<svg viewBox="-14915 -14349.291 119.894 27.29" xmlns="http://www.w3.org/2000/svg"><g data-name="Group 6746"><path data-name="Path 2896" class="ahcls-1" d="M-14908.984-14341.042l-.744-2.14h-3.318l-.714 2.14h-1.24l2.977-8.063h1.272l2.977 8.094h-1.21zm-3.752-3.039h2.7l-1.364-3.97z"/><path data-name="Path 2897" class="ahcls-1" d="M-14901.51-14341.042l-1.551-6.326-1.551 6.326h-1.333l-2.326-8.063h1.3l1.737 6.761 1.553-6.544h1.3l1.551 6.544 1.739-6.792h1.24l-2.357 8.094z"/><path data-name="Path 2898" class="ahcls-1" d="M-14895.524-14344.856a3.482 3.482 0 0 1-1.4-.868 2 2 0 0 1-.434-1.3 2.005 2.005 0 0 1 .341-1.147 2.381 2.381 0 0 1 .93-.806 2.937 2.937 0 0 1 1.433-.314 6.15 6.15 0 0 1 2.171.434v.93a7.02 7.02 0 0 0-2.08-.372 1.9 1.9 0 0 0-1.178.31 1.019 1.019 0 0 0-.4.868 1.006 1.006 0 0 0 .279.744 2.986 2.986 0 0 0 1.023.558l1.054.4a3.685 3.685 0 0 1 1.365.837 1.9 1.9 0 0 1 .4 1.272 2.287 2.287 0 0 1-.806 1.8 3.265 3.265 0 0 1-2.14.651 5.365 5.365 0 0 1-2.326-.465v-.927a7.027 7.027 0 0 0 2.295.4 2.035 2.035 0 0 0 1.3-.372 1.18 1.18 0 0 0 .465-.992.982.982 0 0 0-.279-.713 2.532 2.532 0 0 0-.93-.527z"/><path data-name="Path 2899" class="ahcls-1" d="M-14885.507-14322.588v-26.578h2.264v26.578z"/><path data-name="Path 2900" class="ahcls-1" d="M-14864.947-14322.589v-13.118a5.466 5.466 0 0 0-.961-3.628 3.885 3.885 0 0 0-3.07-1.147 13.167 13.167 0 0 0-7.474 2.45v15.412h-2.2v-19.259h1.923l.217 2.233a16.023 16.023 0 0 1 3.939-2.078 11.969 11.969 0 0 1 4.029-.744 5.793 5.793 0 0 1 4.28 1.489 5.9 5.9 0 0 1 1.489 4.342v14.048z"/><path data-name="Path 2901" class="ahcls-1" d="M-14853.845-14322.589l-7.784-19.29h2.388l6.606 17.026 6.606-17.026h2.295l-7.785 19.29h-2.326z"/><path data-name="Path 2902" class="ahcls-1" d="M-14841.504-14331.862q.047 4.047 1.768 5.954c1.147 1.272 2.915 1.923 5.334 1.923a15.345 15.345 0 0 0 6.327-1.334v1.8a13.01 13.01 0 0 1-6.482 1.52c-3.039 0-5.334-.868-6.854-2.605s-2.295-4.28-2.295-7.691c0-3.225.775-5.737 2.326-7.505a8.216 8.216 0 0 1 6.515-2.668 6.976 6.976 0 0 1 5.365 1.985 8.054 8.054 0 0 1 1.861 5.706 15.177 15.177 0 0 1-.217 2.884h-13.648zm6.42-8.621c-4.032 0-6.171 2.295-6.42 6.854h11.661c.031-.372.031-.775.031-1.272a5.906 5.906 0 0 0-1.334-4.187 5.168 5.168 0 0 0-3.937-1.395z"/><path data-name="Path 2903" class="ahcls-1" d="M-14811.078-14322.589v-13.118a5.466 5.466 0 0 0-.961-3.628 3.885 3.885 0 0 0-3.07-1.147 13.167 13.167 0 0 0-7.474 2.45v15.412h-2.2v-19.259h1.923l.217 2.233a16.023 16.023 0 0 1 3.939-2.078 11.969 11.969 0 0 1 4.028-.744 5.793 5.793 0 0 1 4.28 1.489 5.9 5.9 0 0 1 1.489 4.342v14.048z"/><path data-name="Path 2904" class="ahcls-1" d="M-14795.137-14322.992a10.346 10.346 0 0 1-3.877.651 4.561 4.561 0 0 1-3.442-1.209 4.75 4.75 0 0 1-1.178-3.5v-12.9h-3.6v-1.52l3.69-.341.312-5.65h1.8v5.613h6.14v1.923h-6.14v12.777a2.962 2.962 0 0 0 .682 2.233 3.149 3.149 0 0 0 2.233.651 13.828 13.828 0 0 0 3.411-.465v1.737z"/><path data-name="Path 2905" class="ahcls-1" d="M-14914.535-14322.59v-12.807h1.272l.155 1.861a6.663 6.663 0 0 1 1.892-1.52 4.671 4.671 0 0 1 2.108-.434c.279 0 .651.031 1.054.062v1.3c-.434-.031-.837-.062-1.209-.062a4.874 4.874 0 0 0-2.078.434 5.378 5.378 0 0 0-1.737 1.4v9.766z"/><path data-name="Path 2906" class="ahcls-1" d="M-14905.634-14328.729a5.8 5.8 0 0 0 1.178 3.939 4.6 4.6 0 0 0 3.535 1.272 10.518 10.518 0 0 0 4.218-.9v1.209a8.608 8.608 0 0 1-4.311 1.023 5.785 5.785 0 0 1-4.559-1.706 7.474 7.474 0 0 1-1.52-5.117 7.4 7.4 0 0 1 1.551-4.993 5.433 5.433 0 0 1 4.311-1.767 4.61 4.61 0 0 1 3.566 1.334 5.252 5.252 0 0 1 1.24 3.784 10.934 10.934 0 0 1-.155 1.923zm4.248-5.74c-2.7 0-4.094 1.52-4.249 4.559h7.753a7.017 7.017 0 0 0 .031-.837 4.024 4.024 0 0 0-.9-2.791 3.455 3.455 0 0 0-2.635-.931z"/><path data-name="Path 2907" class="ahcls-1" d="M-14893.074-14333.165a1.145 1.145 0 0 1-.837-.341 1.123 1.123 0 0 1-.31-.837 1.15 1.15 0 1 1 2.295 0 1.123 1.123 0 0 1-.31.837 1.145 1.145 0 0 1-.838.341zm0 10.73a1.145 1.145 0 0 1-.837-.341 1.123 1.123 0 0 1-.31-.837 1.15 1.15 0 1 1 2.295 0 1.123 1.123 0 0 1-.31.837 1.037 1.037 0 0 1-.838.341z"/></g></svg>