<svg width="100" height="40" xmlns="http://www.w3.org/2000/svg"><path d="M1.015 16.105l1.748-2.877 8.98 10.709-10.728-7.832zm1.748 14.236v-3.884l13.815 1.931-13.815 1.953zm11.429 8.82l-2.596-2.878 11.554-7.832-8.958 10.71zm14.358-1.093l-3.85-.399 3.37-13.585.48 13.984zm9.964-10.456l-3.14 2.267-6.551-12.346 9.69 10.079zm.418-14.468l-.816 3.8-13.103-4.787 13.92.987zM29.597 2.121l1.926 3.38-12.936 5.229 11.01-8.61zM15.301.21l3.684 1.197-6.112 12.577L15.3.21zM3.39 8.357l3.537-1.575 3.852 13.46L3.39 8.356zM0 22.425l1.57-3.548 11.847 7.412L0 22.425zM6.845 35.15L5.65 31.454l13.732-2.436L6.845 35.15zM20.429 40l-3.37-1.932 8.603-11.044L20.429 40zm13.333-5.501l-3.788.819-.984-13.964L33.762 34.5zM40 21.459l-2.282 3.15-10.047-9.722L40 21.46zM35.94 7.601l.397 3.864-13.94-.483L35.939 7.6zM23.672 0l2.868 2.604-10.675 9.008L23.673 0zM9.482 2.604h3.872l-1.946 13.858L9.482 2.604zM48 26.187h4.503c3.74 0 6.134-2.624 6.134-6.347 0-3.723-2.411-6.24-6.098-6.24H48v12.587zm17.924-1.524c.017.55.07 1.081.141 1.524h2.128c-.177-.62-.266-1.542-.266-2.748v-2.641c0-2.57-1.17-3.688-3.794-3.688-2.287 0-3.776 1.17-3.918 3.067h2.18c.071-1.01.692-1.56 1.738-1.56 1.135 0 1.649.567 1.649 1.897v.23l-1.88.231c-1.4.195-2.251.426-2.89.798-.708.443-1.08 1.152-1.08 2.003 0 1.578 1.205 2.624 3.013 2.624 1.436 0 2.553-.656 2.979-1.737zm3.403-5.798h1.596v4.574c0 1.79.71 2.908 2.837 2.908.55 0 .94-.053 1.453-.16v-1.79c-.283.07-.514.106-.868.106-.887 0-1.295-.443-1.295-1.4v-4.238h2.163v-1.542H73.05v-3.085l-2.127.851v2.234h-1.596v1.542zm7.73-3.013h2.305v-2.217h-2.305v2.217zm.106 10.335h2.128v-8.864h-2.128v8.864zm12.464-2.96l-2.004-.408c-.195 1.24-.85 1.897-1.914 1.897-1.366 0-2.163-1.1-2.163-3.014 0-1.826.815-2.925 2.127-2.925 1.046 0 1.738.656 1.88 1.861l2.074-.337c-.266-2.02-1.702-3.19-3.9-3.19-2.695 0-4.362 1.754-4.362 4.644 0 2.819 1.702 4.645 4.344 4.645 2.11 0 3.598-1.206 3.918-3.173zm7.268 1.436c.018.55.071 1.081.142 1.524h2.128c-.178-.62-.266-1.542-.266-2.748v-2.641c0-2.57-1.17-3.688-3.794-3.688-2.287 0-3.776 1.17-3.918 3.067h2.18c.071-1.01.692-1.56 1.738-1.56 1.134 0 1.648.567 1.648 1.897v.23l-1.879.231c-1.4.195-2.251.426-2.89.798-.709.443-1.081 1.152-1.081 2.003 0 1.578 1.206 2.624 3.014 2.624 1.436 0 2.553-.656 2.978-1.737zm-3.794-.993c0-.763.532-1.188 1.702-1.383l2.004-.301v.567c0 1.418-.887 2.34-2.199 2.34-.94 0-1.507-.479-1.507-1.223zm-30.971 0c0-.763.531-1.188 1.702-1.383l2.003-.301v.567c0 1.418-.887 2.34-2.198 2.34-.94 0-1.507-.479-1.507-1.223zm-11.843.727V15.39h2.18c2.465 0 3.777 1.897 3.777 4.45 0 2.5-1.365 4.556-3.812 4.556h-2.145z" fill="#010101" fill-rule="evenodd"/></svg>