<svg xmlns="http://www.w3.org/2000/svg" viewBox="0 0 455 91"><g fill="none" fill-rule="evenodd"><path fill="#1D9480" d="M94 85.6c-2 2-5.4 2-7.4 0L67.9 66.9l3.7-3.7 15-15 3.7-3.6 22.4 22.3-3.7 3.7-15 15"/><path fill="#312130" d="M71.6 63.2L68 67 45.6 44.6l3.7-3.8 15-14.9 3.6-3.7 22.4 22.4-3.7 3.7-15 15"/><path fill="#0A8A44" d="M41.8 3.5c2.1-2 5.4-2 7.5 0l18.6 18.7-3.7 3.7-15 15-3.6 3.7-22.4-22.4 3.7-3.7 15-15"/><path fill="#BADDCF" d="M109 26c2-2.1 5.3-2.1 7.4 0L135 44.5l-3.7 3.7-15 15-3.6 3.6-22.4-22.3 3.7-3.8L109 26"/><path fill="#84BD43" d="M4.5 40.8c-2 2.1-2 5.4 0 7.5l18.7 18.6 3.7-3.7 15-15 3.7-3.6-22.4-22.4-3.7 3.7-15 15"/><path fill="#434341" d="M152 87h2.4V74.7H169V87h2.4V61H169v11.5h-14.6V61H152v26zm37.5 0H206v-2.2h-14V74.7h12.6v-2.2H192v-9.3h13.4V61h-15.9v26zm29.4 0h2.6l3-6.9h13.7L241 87h2.7l-11-26h-2.4l-11.4 26zm18.4-9.1h-12l6.1-14.3 6 14.3zm21.2 9.1H273v-2.2h-12V61h-2.5v26zm31.8 0h2.4V63.2h8.9V61h-20.2v2.2h8.9V87zm26.3 0h2.4V74.7h14.6V87h2.4V61h-2.4v11.5H319V61h-2.4v26zM175.3 12.3c-1.5-1.7-3-2.9-4.8-3.5a15.7 15.7 0 0 0-10.1-.4c-1.4.4-2.7 1-3.9 2a9.7 9.7 0 0 0-3.7 8c0 1.6.3 3 .8 4.2.5 1.1 1.3 2 2.2 2.8.8.8 1.9 1.4 3 1.9s2.3 1 3.5 1.3l3.5 1.2c1.2.3 2.2.8 3 1.4a6 6 0 0 1 3 5.4c0 1-.2 2-.7 2.9-.5.8-1.1 1.5-1.9 2-.7.7-1.6 1.1-2.5 1.4-1 .3-1.9.4-2.8.4-2 0-3.7-.4-5-1.2a9 9 0 0 1-3.4-3.3l-3.5 2.5c1.4 2 3.2 3.4 5.2 4.2 2 .9 4.2 1.3 6.5 1.3A13.6 13.6 0 0 0 172 44c1.2-1 2.1-2 2.8-3.4.8-1.4 1.1-2.9 1.1-4.6 0-2.2-.4-4-1.4-5.3a11 11 0 0 0-3.5-3c-1.4-.9-3-1.5-4.6-2-1.7-.4-3.2-1-4.6-1.6-1.4-.6-2.6-1.3-3.5-2.2-1-1-1.4-2.3-1.4-4a6 6 0 0 1 2.5-5.1 8 8 0 0 1 2.5-1.2c1-.2 2-.4 2.9-.4 3.1 0 5.5 1.2 7.2 3.7l3.3-2.6zm31.7.8l8 19.5h-16l8-19.5zm-9.5 23h19l4.1 9.8h4.4L209 8.7h-3.7L189 46h4.4l4.1-9.8zm47.3-27.4H240V46h3.8V14h.1l22.2 31.8h4.7V8.7H267v31.5h-.1L244.8 8.7zm66.4 3.6c-1.5-1.7-3-2.9-4.8-3.5a15.7 15.7 0 0 0-10.1-.4c-1.4.4-2.7 1-3.9 2a9.7 9.7 0 0 0-3.7 8c0 1.6.2 3 .8 4.2.5 1.1 1.3 2 2.1 2.8 1 .8 2 1.4 3 1.9 1.2.5 2.4 1 3.6 1.3l3.5 1.2c1.2.3 2.2.8 3 1.4a6 6 0 0 1 3 5.4c0 1-.2 2-.7 2.9-.5.8-1.1 1.5-1.9 2-.7.7-1.6 1.1-2.5 1.4-1 .3-1.9.4-2.8.4-2 0-3.7-.4-5.1-1.2a9 9 0 0 1-3.3-3.3l-3.5 2.5c1.4 2 3.2 3.4 5.2 4.2 2 .9 4.2 1.3 6.5 1.3a13.6 13.6 0 0 0 8.3-2.8c1.2-1 2.1-2 2.8-3.4.8-1.4 1.1-2.9 1.1-4.6 0-2.2-.5-4-1.4-5.3a11 11 0 0 0-3.5-3c-1.4-.9-3-1.5-4.6-2-1.7-.4-3.2-1-4.6-1.6-1.4-.6-2.6-1.3-3.5-2.2-1-1-1.4-2.3-1.4-4a6 6 0 0 1 2.5-5.1 8 8 0 0 1 2.5-1.2c1-.2 2-.4 2.9-.4 3.1 0 5.5 1.2 7.2 3.7l3.3-2.6zm46.2 21.1a14.5 14.5 0 0 1-14.2 10 15 15 0 0 1-11.3-4.9 15.5 15.5 0 0 1-3-5.1 17.9 17.9 0 0 1 3-17.3 14.5 14.5 0 0 1 11.2-4.9 15 15 0 0 1 11.2 4.9c1.4 1.4 2.4 3.1 3 5a17.9 17.9 0 0 1 0 12.3zm3.6-14a18.7 18.7 0 0 0-17.9-11.6 19.9 19.9 0 0 0-13.8 5.5 20.3 20.3 0 0 0-5.5 14 18.6 18.6 0 0 0 19.4 19.5 19.9 19.9 0 0 0 13.8-5.5 20.3 20.3 0 0 0 5.5-14c0-2.8-.5-5.5-1.5-7.8zm18.6-7.2h6.7c1.7 0 3.1.1 4.3.5 1.2.3 2.1.8 2.8 1.4.7.6 1.2 1.3 1.5 2a6.8 6.8 0 0 1 0 5 5 5 0 0 1-1.5 2.1 8 8 0 0 1-2.8 1.4c-1.2.4-2.6.5-4.3.5h-6.7v-13zm0 16.4h6.3l10.2 17.3h4.6L390 28.2c3-.2 5.4-1.3 7-3 1.7-1.8 2.5-4 2.5-6.6 0-3.3-1.1-5.8-3.3-7.4a14.6 14.6 0 0 0-9-2.5h-11.4V46h3.8V28.6zm65.2 4.8a14.5 14.5 0 0 1-14.2 10 15 15 0 0 1-11.2-4.9 15.5 15.5 0 0 1-3-5.1 17.9 17.9 0 0 1 3-17.3 14.5 14.5 0 0 1 11.2-4.9 15 15 0 0 1 11.2 4.9c1.3 1.4 2.3 3.1 3 5a17.9 17.9 0 0 1 0 12.3zm3.7-14a18.7 18.7 0 0 0-17.9-11.6 19.9 19.9 0 0 0-13.8 5.5 20.4 20.4 0 0 0-5.5 14 18.6 18.6 0 0 0 19.4 19.5 19.9 19.9 0 0 0 13.7-5.5c1.8-1.8 3.1-3.8 4.1-6.2 1-2.4 1.5-5 1.5-7.8s-.5-5.5-1.5-7.8z"/></g></svg>