<svg xmlns="http://www.w3.org/2000/svg" fill="none" viewBox="0 0 177 94"><g id="100m records"><mask id="mask0" width="167" height="81" x="2" y="6" mask-type="alpha" maskUnits="userSpaceOnUse"><g id="Group 5" fill="#000"><path id="100m" d="M28 30h-9.4v10h-7.1V30H2.2v-6.5h9.3v-9.3h7v9.3H28V30zm8.2-9.3a11 11 0 0 1-6.8 2h-1.2v-9.8h1a12 12 0 0 0 5.7-1.4A9.8 9.8 0 0 0 38.3 7H47v37.5H36.2V20.7zm32.3 24.6c-3.5 0-6.6-.7-9.2-2.3a15 15 0 0 1-5.9-6.7c-1.3-2.9-2-6.4-2-10.5 0-4.2.7-7.7 2-10.6 1.4-3 3.4-5.2 6-6.7 2.5-1.6 5.6-2.3 9-2.3 3.6 0 6.7.7 9.2 2.3 2.6 1.5 4.6 3.7 6 6.7 1.3 2.9 2 6.4 2 10.6 0 4.1-.7 7.6-2 10.5a15 15 0 0 1-6 6.7 17.6 17.6 0 0 1-9.1 2.3zm0-8.3c1.9 0 3.3-.9 4.3-2.8a18 18 0 0 0 1.6-8.4 18 18 0 0 0-1.6-8.5c-1-2-2.4-2.9-4.3-2.9s-3.3 1-4.4 2.9c-1 1.9-1.5 4.7-1.5 8.5 0 3.7.5 6.6 1.5 8.4 1 2 2.5 2.8 4.4 2.8zm35.5 8.3c-3.5 0-6.6-.7-9.2-2.3a15 15 0 0 1-5.9-6.7c-1.3-2.9-2-6.4-2-10.5 0-4.2.7-7.7 2-10.6 1.4-3 3.4-5.2 6-6.7 2.5-1.6 5.6-2.3 9-2.3 3.6 0 6.7.7 9.2 2.3 2.6 1.5 4.6 3.7 6 6.7 1.3 2.9 2 6.4 2 10.6 0 4.1-.7 7.6-2 10.5a15 15 0 0 1-6 6.7 17.6 17.6 0 0 1-9.1 2.3zm0-8.3c1.9 0 3.3-.9 4.3-2.8a18 18 0 0 0 1.6-8.4 18 18 0 0 0-1.6-8.5c-1-2-2.4-2.9-4.3-2.9s-3.3 1-4.4 2.9c-1 1.9-1.5 4.7-1.5 8.5 0 3.7.5 6.6 1.5 8.4 1 2 2.5 2.8 4.4 2.8zm30.3-19.5v5c1-2 2-3.4 3.4-4.3a9.4 9.4 0 0 1 5.2-1.3c2 0 3.6.4 4.8 1.3a9 9 0 0 1 3 4.3c1-2 2.2-3.3 3.6-4.2 1.4-1 3.2-1.4 5.2-1.4 2.6 0 4.7.8 6.1 2.6 1.5 1.8 2.3 4.2 2.3 7.4v17.6h-11v-15c0-1.6-.2-2.8-.6-3.5-.4-.7-1.1-1.1-2.1-1.1-2 0-3 1.5-3 4.4v15.2h-10.8v-15c0-1.6-.2-2.8-.7-3.5-.4-.7-1-1.1-2-1.1-2 0-3 1.5-3 4.4v15.2h-11v-27h10.6z"/><path id="patient records processed" d="M37.6 55.6c.9 0 1.6.2 2.3.5.7.4 1.2.8 1.6 1.4.3.6.5 1.3.5 2 0 1.3-.4 2.3-1.2 3-.8.7-2 1-3.3 1H35v4.6h-3V55.6h5.6zm-.8 6c.7 0 1.2-.3 1.6-.6.3-.3.5-.8.5-1.4 0-.5-.2-1-.5-1.3-.4-.3-.9-.5-1.6-.5H35v3.7h1.8zm9 6.7c-.9 0-1.6-.2-2.2-.7-.5-.5-.8-1.1-.8-1.9 0-.8.3-1.5 1-1.9.5-.4 1.4-.7 2.7-.8l2-.3v-.3c0-.5 0-.9-.2-1.1-.2-.3-.6-.4-1-.4s-.8.1-1 .4c-.3.2-.4.5-.4 1H43a3 3 0 0 1 1.2-2.4 5 5 0 0 1 3-.8c1.4 0 2.5.3 3.1.9.7.6 1 1.5 1 2.8v2.9c0 1 0 1.8.2 2.4H49l-.1-1.4c-.3.5-.6.9-1.2 1.2-.5.3-1 .4-1.8.4zm1-1.8c.6 0 1-.1 1.4-.5.3-.3.5-.7.5-1.2V64l-1.5.2c-.5 0-1 .2-1.2.4a1 1 0 0 0-.3.8c0 .3 0 .6.3.7.2.2.5.3.9.3zm5.8-7.2H54v-2l2.8-1.2v3.2h2v2h-2v3.3c0 1 .4 1.4 1.3 1.4l.8-.1V68l-1.6.2c-1.1 0-2-.3-2.5-.8s-.8-1.2-.8-2.2v-4h-1.5v-2zm8.4 0h2.8v8.8H61v-8.8zm0-3.8h2.9v2.6h-3v-2.6zm13.6 8.8h-6.1c0 .6.2 1.1.5 1.5.4.3 1 .5 1.5.5.9 0 1.5-.4 2-1.2l2 1c-.4.6-.9 1.2-1.6 1.6-.7.4-1.5.6-2.4.6-1.5 0-2.6-.4-3.5-1.2a4.4 4.4 0 0 1-1.2-3.3c0-1 .2-1.8.6-2.5.3-.7.8-1.2 1.5-1.6.7-.4 1.5-.6 2.4-.6 1.4 0 2.4.4 3.2 1.2.7.7 1 1.8 1 3.2v.8zm-2.7-1.6c0-.6-.2-1-.5-1.4-.2-.3-.7-.5-1.2-.5s-1 .2-1.2.5c-.3.4-.5.8-.5 1.5h3.4v-.1zm4.8-3.4h2.7V61c.6-1.3 1.6-1.9 2.9-1.9 1 0 1.7.3 2.1.9.5.6.8 1.5.8 2.7V68h-2.8v-5c0-.7-.2-1.1-.4-1.4-.2-.3-.5-.4-1-.4s-.8.1-1.1.5c-.3.4-.4.9-.4 1.6V68h-2.8v-8.8zm9.8 0H88v-2l2.8-1.2v3.2h2v2h-2v3.3c0 1 .4 1.4 1.3 1.4l.8-.1V68l-1.6.2c-1.1 0-2-.3-2.5-.8s-.8-1.2-.8-2.2v-4h-1.5v-2zm18 4h-1.9v4.8h-3V55.6h5.5c1.6 0 2.7.4 3.5 1 .7.7 1.1 1.7 1.1 2.9 0 .8-.2 1.5-.6 2-.4.7-1 1.1-1.8 1.4L110 68h-3.2l-2.4-4.8zm-1.9-2h2c.7 0 1.2-.2 1.5-.5.4-.3.5-.7.5-1.3 0-1.2-.7-1.8-2-1.8h-2v3.6zm17.1 3h-6c0 .6.2 1.1.5 1.5.4.3.9.5 1.5.5.8 0 1.5-.4 1.9-1.2l2 1c-.3.6-.8 1.2-1.5 1.6-.7.4-1.6.6-2.5.6-1.4 0-2.6-.4-3.4-1.2a4.4 4.4 0 0 1-1.2-3.3c0-1 .2-1.8.5-2.5.4-.7 1-1.2 1.6-1.6.7-.4 1.4-.6 2.3-.6 1.4 0 2.5.4 3.2 1.2.8.7 1.1 1.8 1.1 3.2v.8zm-2.7-1.6c0-.6-.1-1-.4-1.4-.3-.3-.7-.5-1.2-.5s-1 .2-1.3.5c-.3.4-.4.8-.4 1.5h3.3v-.1zm9 5.6a5 5 0 0 1-2.5-.5 4 4 0 0 1-1.6-1.7 5 5 0 0 1-.6-2.4c0-1.4.4-2.5 1.2-3.4.9-.8 2-1.2 3.4-1.2 1.2 0 2.1.3 2.8.8.8.6 1.2 1.3 1.4 2.3l-2.6.6c-.1-.5-.3-1-.6-1.2-.2-.3-.6-.4-1-.4-.6 0-1 .2-1.3.6a3 3 0 0 0-.4 1.8c0 .9.1 1.5.4 2 .3.4.7.6 1.3.6.4 0 .8-.1 1-.4.3-.3.5-.7.6-1.2l2.6.6c-.2 1-.6 1.7-1.4 2.3-.7.5-1.7.8-2.8.8zm10 0c-.8 0-1.6-.2-2.3-.5a4 4 0 0 1-1.6-1.6 5 5 0 0 1-.6-2.5c0-1 .2-1.8.6-2.5.4-.7 1-1.2 1.6-1.6.7-.3 1.5-.5 2.4-.5.8 0 1.6.2 2.3.5.7.4 1.2 1 1.6 1.6.4.7.6 1.5.6 2.5a5 5 0 0 1-.6 2.5c-.4.7-.9 1.2-1.6 1.6-.7.3-1.5.5-2.3.5zm0-2c.6 0 1-.2 1.4-.6.3-.5.4-1.1.4-2 0-.9-.1-1.5-.4-2-.3-.4-.8-.6-1.3-.6-.6 0-1 .2-1.3.6-.3.5-.5 1.1-.5 2 0 .9.2 1.5.5 2 .3.4.7.7 1.3.7zm9.3-4.7c.2-.8.6-1.4 1-1.8.6-.5 1.2-.7 2-.7h.1v2.7h-.5c-.7 0-1.3.2-1.7.5a2 2 0 0 0-.6 1l-.1 1.2v3.6h-2.8v-8.8h2.6v2.3zm7.7 6.7c-.7 0-1.3-.2-1.8-.5-.6-.4-1-1-1.3-1.7a6 6 0 0 1-.4-2.3c0-1 .1-1.8.4-2.5.3-.7.8-1.2 1.3-1.6.6-.4 1.2-.6 2-.6.5 0 1 .1 1.5.4.4.2.7.6 1 1v-5.1h2.7V68h-2.6v-1.5c-.3.5-.6 1-1.1 1.3-.5.3-1 .4-1.7.4zm1.1-2c.5 0 .9-.1 1.1-.5.3-.4.5-1 .5-1.7v-.7a3 3 0 0 0-.5-1.7c-.2-.4-.6-.6-1.1-.6-.6 0-1 .2-1.3.7-.3.4-.4 1-.4 1.9 0 .8.1 1.5.4 2 .3.4.8.7 1.3.7zm10.6 2c-1 0-1.9-.2-2.6-.5-.8-.4-1.4-.9-1.8-1.6L162 65c.7 1 1.6 1.4 2.8 1.4.5 0 .8 0 1-.2.3-.1.4-.3.4-.6 0-.2-.1-.4-.3-.5-.2-.2-.5-.3-1-.3l-1.2-.2c-1.9-.3-2.8-1.2-2.8-2.7 0-.9.3-1.5 1-2s1.6-.8 2.8-.8c1 0 1.7.2 2.4.5s1.3.7 1.6 1.3l-1.4 1.3a3.3 3.3 0 0 0-2.6-1.2c-.5 0-.8 0-1 .2-.2 0-.3.3-.3.5s.1.4.3.5l.8.3 1.5.2c1 .1 1.6.4 2 .9.4.4.6 1 .6 1.8 0 1-.3 1.6-1 2.1-.7.6-1.6.8-2.8.8zM37.6 73.6c.9 0 1.6.2 2.3.5.7.4 1.2.8 1.6 1.4.3.6.5 1.3.5 2 0 1.3-.4 2.3-1.2 3-.8.7-2 1-3.3 1H35v4.6h-3V73.6h5.6zm-.8 6c.7 0 1.2-.3 1.6-.6.3-.3.5-.8.5-1.4 0-.5-.2-1-.5-1.3-.4-.3-.9-.5-1.6-.5H35v3.7h1.8zm9.6 0c.3-.8.6-1.4 1.1-1.8.5-.5 1.1-.7 1.9-.7h.1v2.7H49c-.7 0-1.3.2-1.7.5a2 2 0 0 0-.5 1l-.2 1.2v3.6h-2.8v-8.8h2.6v2.3zm8.7 6.7c-.9 0-1.6-.2-2.3-.5a4 4 0 0 1-1.7-1.6 5 5 0 0 1-.5-2.5c0-1 .2-1.8.5-2.5a4 4 0 0 1 1.7-1.6c.7-.3 1.4-.5 2.3-.5.9 0 1.7.2 2.4.5.7.4 1.2 1 1.6 1.6.4.7.6 1.5.6 2.5a5 5 0 0 1-.6 2.5c-.4.7-1 1.2-1.6 1.6-.7.3-1.5.5-2.4.5zm0-2c.6 0 1-.2 1.3-.6.3-.5.5-1.1.5-2 0-.9-.2-1.5-.5-2-.3-.4-.7-.6-1.3-.6-.5 0-1 .2-1.3.6-.3.5-.4 1.1-.4 2 0 .9.1 1.5.4 2 .3.4.8.7 1.3.7zm10.7 2a5 5 0 0 1-2.5-.5 4 4 0 0 1-1.6-1.7 5 5 0 0 1-.5-2.4c0-1.4.4-2.5 1.2-3.4.8-.8 2-1.2 3.4-1.2 1.1 0 2 .3 2.8.8.7.6 1.2 1.3 1.4 2.3l-2.7.6c0-.5-.2-1-.5-1.2-.3-.3-.6-.4-1-.4-.6 0-1 .2-1.3.6a3 3 0 0 0-.5 1.8c0 .9.2 1.5.5 2 .3.4.7.6 1.2.6s.8-.1 1.1-.4c.3-.3.4-.7.5-1.2l2.7.6c-.2 1-.7 1.7-1.4 2.3-.8.5-1.7.8-2.8.8zm14.3-4h-6c0 .6.1 1.1.5 1.5.4.3.9.5 1.5.5.8 0 1.5-.4 1.9-1.2l2 1c-.3.6-.8 1.2-1.6 1.6-.7.4-1.5.6-2.4.6-1.4 0-2.6-.4-3.4-1.2a4.4 4.4 0 0 1-1.2-3.3c0-1 .2-1.8.5-2.5.4-.7.9-1.2 1.6-1.6.6-.4 1.4-.6 2.3-.6 1.4 0 2.5.4 3.2 1.2.7.7 1.1 1.8 1.1 3.2v.8zm-2.7-1.6c0-.6-.1-1-.4-1.4-.3-.3-.7-.5-1.2-.5-.6 0-1 .2-1.3.5-.3.4-.4.8-.5 1.5h3.4v-.1zm8.2 5.6c-1 0-1.8-.2-2.6-.5-.7-.4-1.3-.9-1.7-1.6l1.6-1.2a3 3 0 0 0 2.8 1.4c.4 0 .8 0 1-.2.2-.1.3-.3.3-.6 0-.2 0-.4-.2-.5-.2-.2-.5-.3-1-.3l-1.3-.2c-1.8-.3-2.8-1.2-2.8-2.7 0-.9.4-1.5 1-2 .7-.5 1.7-.8 2.9-.8.9 0 1.7.2 2.4.5s1.2.7 1.6 1.3L88 80.2a3.3 3.3 0 0 0-2.6-1.2c-.4 0-.7 0-1 .2l-.2.5c0 .2 0 .4.2.5l.8.3 1.6.2c.9.1 1.5.4 2 .9.4.4.6 1 .6 1.8 0 1-.4 1.6-1 2.1-.7.6-1.7.8-2.9.8zm9.3 0c-1 0-1.9-.2-2.6-.5-.8-.4-1.3-.9-1.8-1.6l1.7-1.2a3 3 0 0 0 2.7 1.4c.5 0 .8 0 1-.2.3-.1.4-.3.4-.6 0-.2 0-.4-.3-.5-.1-.2-.5-.3-1-.3l-1.2-.2c-1.9-.3-2.8-1.2-2.8-2.7 0-.9.3-1.5 1-2s1.7-.8 2.9-.8c.9 0 1.7.2 2.4.5s1.2.7 1.6 1.3l-1.5 1.3a3.3 3.3 0 0 0-2.6-1.2c-.4 0-.8 0-1 .2l-.2.5c0 .2 0 .4.2.5l.8.3 1.5.2c1 .1 1.6.4 2 .9.5.4.7 1 .7 1.8 0 1-.4 1.6-1 2.1-.8.6-1.7.8-3 .8zm14-4h-6c0 .6.1 1.1.5 1.5.3.3.8.5 1.4.5.9 0 1.5-.4 2-1.2l2 1c-.3.6-.9 1.2-1.6 1.6-.7.4-1.5.6-2.4.6-1.5 0-2.6-.4-3.4-1.2a4.4 4.4 0 0 1-1.3-3.3c0-1 .2-1.8.6-2.5.3-.7.9-1.2 1.5-1.6.7-.4 1.5-.6 2.4-.6 1.4 0 2.4.4 3.2 1.2.7.7 1.1 1.8 1.1 3.2v.8zm-2.7-1.6c0-.6-.2-1-.4-1.4-.3-.3-.7-.5-1.3-.5-.5 0-1 .2-1.2.5-.3.4-.5.8-.5 1.5h3.4v-.1zm7.8 5.6c-.7 0-1.3-.2-1.8-.5-.6-.4-1-1-1.3-1.7a6 6 0 0 1-.4-2.3c0-1 .2-1.8.5-2.5s.7-1.2 1.2-1.6c.6-.4 1.2-.6 2-.6.6 0 1 .1 1.5.4.4.2.7.6 1 1v-5.1h2.7V86h-2.6v-1.5c-.2.5-.6 1-1 1.3-.6.3-1.1.4-1.8.4zm1.1-2c.5 0 .9-.1 1.2-.5.2-.4.4-1 .4-1.7v-.7a3 3 0 0 0-.4-1.7c-.3-.4-.7-.6-1.2-.6-.6 0-1 .2-1.3.7-.3.4-.4 1-.4 1.9 0 .8.1 1.5.5 2 .3.4.7.7 1.2.7z"/></g></mask><g mask="url(#mask0)"><path id="grad overlay" fill="url(#paint0_linear)" d="M0 0h177v94H0z"/></g></g><defs><linearGradient id="paint0_linear" x1="-5.5" x2="182.3" y1="0" y2="72.6" gradientUnits="userSpaceOnUse"><stop stop-color="#4CC0F1"/><stop offset="1" stop-color="#6929D1"/></linearGradient></defs></svg>