<svg xmlns="http://www.w3.org/2000/svg" fill="none" viewBox="0 0 193 125"><g id="1k assessments"><mask id="mask0" width="180" height="111" x="6" y="5" mask-type="alpha" maskUnits="userSpaceOnUse"><g id="Group" fill="#000"><path id="1000:0" d="M14.9 19.7a11 11 0 0 1-6.8 2H6.8v-9.8h1a12 12 0 0 0 5.8-1.4A9.8 9.8 0 0 0 17 6h8.7v37.5H14.9V19.7zM47 44.3c-3.5 0-6.6-.7-9.2-2.3a15 15 0 0 1-5.9-6.7c-1.3-2.9-2-6.4-2-10.5 0-4.2.7-7.7 2-10.6 1.4-3 3.4-5.2 6-6.7 2.5-1.6 5.6-2.3 9.1-2.3s6.6.7 9.1 2.3c2.6 1.5 4.6 3.7 6 6.7 1.3 2.9 2 6.4 2 10.6 0 4.1-.7 7.6-2 10.5a15 15 0 0 1-6 6.7 17.6 17.6 0 0 1-9 2.3zm0-8.3c1.9 0 3.3-.9 4.3-2.8a18 18 0 0 0 1.6-8.4 18 18 0 0 0-1.6-8.5c-1-2-2.4-2.9-4.3-2.9s-3.3 1-4.4 2.9c-1 1.9-1.5 4.7-1.5 8.5 0 3.7.5 6.6 1.5 8.4 1 2 2.5 2.8 4.4 2.8zm35.5 8.3c-3.5 0-6.6-.7-9.2-2.3a15 15 0 0 1-5.9-6.7c-1.3-2.9-2-6.4-2-10.5 0-4.2.7-7.7 2-10.6 1.4-3 3.4-5.2 6-6.7C76 5.9 79 5.2 82.5 5.2s6.6.7 9.1 2.3c2.6 1.5 4.6 3.7 6 6.7 1.3 2.9 2 6.4 2 10.6 0 4.1-.7 7.6-2 10.5a15 15 0 0 1-6 6.7 17.6 17.6 0 0 1-9 2.3zm0-8.3c1.9 0 3.3-.9 4.3-2.8a18 18 0 0 0 1.6-8.4 18 18 0 0 0-1.6-8.5c-1-2-2.4-2.9-4.3-2.9s-3.3 1-4.4 2.9c-1 1.9-1.5 4.7-1.5 8.5 0 3.7.5 6.6 1.5 8.4 1 2 2.5 2.8 4.4 2.8zm35.5 8.3c-3.5 0-6.6-.7-9.2-2.3a15 15 0 0 1-5.9-6.7c-1.3-2.9-2-6.4-2-10.5 0-4.2.7-7.7 2-10.6 1.4-3 3.4-5.2 6-6.7 2.5-1.6 5.6-2.3 9.1-2.3s6.6.7 9.1 2.3c2.6 1.5 4.6 3.7 6 6.7 1.4 2.9 2 6.4 2 10.6 0 4.1-.6 7.6-2 10.5a15 15 0 0 1-6 6.7 17.6 17.6 0 0 1-9 2.3zm0-8.3c1.9 0 3.3-.9 4.3-2.8a18 18 0 0 0 1.6-8.4 18 18 0 0 0-1.6-8.5c-1-2-2.4-2.9-4.3-2.9s-3.3 1-4.4 2.9c-1 1.9-1.5 4.7-1.5 8.5 0 3.7.5 6.6 1.5 8.4 1 2 2.5 2.8 4.4 2.8zm30.3-9.3h-10.8V16.5h10.8v10.2zm0 16.8h-10.8V33.3h10.8v10.2zm19.6.8c-3.5 0-6.6-.7-9.2-2.3a15 15 0 0 1-5.9-6.7c-1.4-2.9-2-6.4-2-10.5 0-4.2.6-7.7 2-10.6 1.4-3 3.3-5.2 5.9-6.7 2.6-1.6 5.7-2.3 9.2-2.3 3.5 0 6.5.7 9.1 2.3 2.6 1.5 4.6 3.7 6 6.7 1.3 2.9 2 6.4 2 10.6 0 4.1-.7 7.6-2 10.5a15 15 0 0 1-6 6.7 17.6 17.6 0 0 1-9.1 2.3zm0-8.3c1.9 0 3.3-.9 4.3-2.8a18 18 0 0 0 1.6-8.4 18 18 0 0 0-1.6-8.5c-1-2-2.4-2.9-4.3-2.9s-3.4 1-4.4 2.9c-1 1.9-1.5 4.7-1.5 8.5 0 3.7.5 6.6 1.5 8.4 1 2 2.5 2.8 4.4 2.8z"/><path id="1000 Customer Assessments ZERO Failures" d="M36.1 60.9c-.2.2-.5.4-.9.5l-1.2.1h-.4v-2.4h.3c.7 0 1.3-.2 1.7-.5.4-.3.8-.8 1-1.4h2.2V69h-2.7v-8.1zm10.4 8.4c-1 0-2-.3-2.8-.8a4.7 4.7 0 0 1-1.7-2c-.4-1-.6-2.1-.6-3.4 0-1.3.2-2.4.6-3.3.4-1 1-1.7 1.7-2.1a5 5 0 0 1 2.8-.8c1.6 0 2.8.6 3.7 1.7a7 7 0 0 1 1.4 4.5c0 1.3-.2 2.4-.6 3.3a4.6 4.6 0 0 1-4.5 2.9zm0-2.2c.7 0 1.3-.3 1.7-1 .4-.7.6-1.7.6-3s-.2-2.3-.6-3c-.4-.7-1-1-1.7-1s-1.3.3-1.7 1c-.4.7-.6 1.7-.6 3s.2 2.3.6 3c.4.7 1 1 1.7 1zm11.7 2.2c-1 0-2-.3-2.7-.8a4.7 4.7 0 0 1-1.8-2c-.4-1-.6-2.1-.6-3.4 0-1.3.2-2.4.6-3.3.4-1 1-1.7 1.8-2.1a5 5 0 0 1 2.7-.8c1.6 0 2.9.6 3.8 1.7a7 7 0 0 1 1.3 4.5c0 1.3-.2 2.4-.6 3.3a4.5 4.5 0 0 1-4.5 2.9zm0-2.2c.8 0 1.3-.3 1.7-1 .4-.7.6-1.7.6-3s-.2-2.3-.6-3c-.4-.7-1-1-1.7-1s-1.3.3-1.7 1c-.4.7-.5 1.7-.5 3s.1 2.3.5 3c.4.7 1 1 1.7 1zM70 69.3c-1 0-2-.3-2.7-.8a4.7 4.7 0 0 1-1.7-2c-.4-1-.6-2.1-.6-3.4 0-1.3.2-2.4.6-3.3.4-1 1-1.7 1.7-2.1a5 5 0 0 1 2.7-.8c1.7 0 2.9.6 3.8 1.7A7 7 0 0 1 75 63c0 1.3-.2 2.4-.6 3.3a4.5 4.5 0 0 1-4.5 2.9zm0-2.2c.8 0 1.3-.3 1.7-1 .4-.7.6-1.7.6-3s-.2-2.3-.6-3c-.4-.7-1-1-1.7-1s-1.2.3-1.6 1c-.4.7-.6 1.7-.6 3s.2 2.3.6 3c.4.7 1 1 1.6 1zm17 2.2c-1.2 0-2.2-.3-3-.8a5 5 0 0 1-1.8-2.3c-.4-1-.6-2-.6-3.3a8 8 0 0 1 .6-3.3c.4-.9 1-1.6 1.9-2.2.8-.5 1.8-.8 3-.8 1.4 0 2.5.4 3.3 1.2a5 5 0 0 1 1.4 3l-1.6.2c-.1-.9-.5-1.6-1-2.2a3 3 0 0 0-2.2-.8c-1.2 0-2 .5-2.7 1.4-.7.8-1 2-1 3.5 0 1 .1 1.8.4 2.6a4 4 0 0 0 1.3 1.7c.5.5 1.2.7 2 .7a3 3 0 0 0 2.2-.8c.5-.5 1-1.3 1-2.2l1.6.3a5.4 5.4 0 0 1-1.5 3c-.8.7-2 1-3.3 1zm10.1-.1c-1 0-1.7-.3-2.2-.8-.4-.6-.7-1.4-.7-2.5v-5.4h1.5v5.3c0 .7.1 1.2.4 1.6.3.4.8.6 1.3.6a2 2 0 0 0 1.7-.8c.4-.6.6-1.3.6-2.1v-4.6h1.4V69h-1.3v-1.6c-.2.5-.6 1-1 1.3-.5.3-1 .5-1.7.5zm10.3 0a4 4 0 0 1-2.5-.7c-.7-.5-1-1.2-1.2-2.1l1.5-.3c0 .7.3 1.1.7 1.4.4.4.9.5 1.5.5s1-.1 1.3-.3c.3-.3.5-.6.5-1s-.1-.7-.3-.9l-1-.4-1.4-.1a3 3 0 0 1-1.9-.8c-.4-.5-.6-1-.6-1.7 0-.8.3-1.4.8-1.8.6-.5 1.4-.7 2.4-.7s1.8.2 2.4.7c.6.5 1 1.1 1 1.9l-1.4.3c0-.5-.3-1-.7-1.3a2 2 0 0 0-1.3-.4c-.6 0-1 0-1.3.3a1 1 0 0 0-.5 1c0 .7.5 1.1 1.5 1.2l1.4.2c1.5.2 2.3 1 2.3 2.4 0 .8-.3 1.5-.8 2-.6.4-1.4.6-2.4.6zm4.5-8.7h1.6v-2.2l1.4-.6v2.8h2.2v1.2h-2.2v4.7c0 .5.1.8.3 1 .2.3.6.4 1 .4l.9-.1V69l-1.3.2c-.8 0-1.4-.3-1.8-.7-.3-.5-.5-1.2-.5-2v-4.8h-1.6v-1.2zm10.5 8.7a3.6 3.6 0 0 1-3.5-2c-.3-.7-.5-1.5-.5-2.5 0-.9.2-1.7.5-2.3.3-.7.8-1.2 1.4-1.6a4 4 0 0 1 2.1-.5 4 4 0 0 1 2 .5c.7.4 1.1.9 1.5 1.6.3.6.5 1.4.5 2.4 0 .9-.2 1.7-.5 2.3-.4.7-.8 1.2-1.4 1.6a4 4 0 0 1-2.1.5zm0-1.3c.8 0 1.4-.2 1.8-.8.4-.5.6-1.3.6-2.3 0-1-.2-1.9-.6-2.4-.4-.6-1-.8-1.8-.8s-1.4.2-1.8.8c-.4.5-.6 1.3-.6 2.4 0 1 .2 1.8.6 2.3.4.6 1 .8 1.8.8zm8-7.4V62c.4-1.2 1.2-1.7 2.4-1.7.6 0 1 .1 1.5.4.4.3.7.7.9 1.3.6-1.2 1.4-1.7 2.6-1.7.8 0 1.4.2 1.9.8.4.6.7 1.3.7 2.3V69h-1.5v-5.5c0-1.3-.5-2-1.6-2-.6 0-1 .3-1.4.7-.3.4-.5 1-.5 1.8v5h-1.4v-5.5c0-.6-.2-1.1-.5-1.5-.2-.3-.6-.5-1.1-.5-.6 0-1.1.3-1.5.7a3 3 0 0 0-.5 1.8v5H129v-8.5h1.3zm19.8 4.7h-6c0 .8.2 1.5.7 2 .4.5 1 .7 1.8.7.6 0 1-.1 1.4-.4.4-.3.7-.7.9-1.2l1.2.5c-.3.8-.8 1.4-1.4 1.8-.6.4-1.3.6-2.2.6-1.2 0-2.2-.4-2.8-1.1-.7-.8-1-1.9-1-3.2a5 5 0 0 1 1-3.4c.6-.8 1.6-1.2 2.8-1.2 1.2 0 2 .3 2.7 1 .6.6 1 1.6 1 2.9v1zm-1.4-1.4c0-.8-.2-1.3-.6-1.8-.4-.4-1-.6-1.6-.6-.8 0-1.3.3-1.8.7-.4.5-.6 1.1-.6 1.9h4.6v-.2zm5.5-1.4c.2-.6.5-1.1 1-1.5a2.3 2.3 0 0 1 1.9-.6v1.4c-.9 0-1.5.2-2 .7-.3.3-.6.8-.7 1.2l-.1 1.8V69h-1.5v-8.5h1.4v2zM50.9 83.5h-5L44.8 87h-1.6l4.6-12h1.6l4.5 12h-1.6l-1.3-3.5zm-.5-1.3l-1.6-4.8-.3-.9-.4 1-1.6 4.7h4zm8.5 5a4 4 0 0 1-2.5-.7c-.7-.5-1-1.2-1.2-2.1l1.4-.3c.2.7.4 1.1.8 1.4.4.4.9.5 1.5.5s1-.1 1.3-.3c.3-.3.5-.6.5-1s-.1-.7-.3-.9l-1-.4-1.4-.1a3 3 0 0 1-1.9-.8c-.4-.5-.6-1-.6-1.7 0-.8.3-1.4.8-1.8.6-.5 1.4-.7 2.4-.7s1.8.2 2.4.7c.6.5 1 1.1 1 1.9l-1.4.3c0-.5-.3-1-.7-1.3a2 2 0 0 0-1.3-.4c-.6 0-1 0-1.4.3a1 1 0 0 0-.4 1c0 .7.5 1.1 1.5 1.2l1.4.2c1.5.2 2.3 1 2.3 2.4 0 .8-.3 1.5-.8 2-.6.4-1.4.6-2.4.6zm8.5 0a4 4 0 0 1-2.5-.7c-.6-.5-1-1.2-1.1-2.1l1.4-.3c.1.7.4 1.1.8 1.4.4.4.9.5 1.5.5s1-.1 1.3-.3c.3-.3.5-.6.5-1s-.1-.7-.4-.9c-.2-.2-.5-.3-1-.4l-1.4-.1a3 3 0 0 1-1.8-.8c-.4-.5-.7-1-.7-1.7 0-.8.3-1.4 1-1.8.5-.5 1.3-.7 2.3-.7 1 0 1.7.2 2.3.7.7.5 1 1.1 1.1 1.9l-1.4.3c-.1-.5-.3-1-.7-1.3a2 2 0 0 0-1.4-.4c-.5 0-1 0-1.3.3a1 1 0 0 0-.4 1c0 .7.5 1.1 1.5 1.2l1.3.2c1.6.2 2.4 1 2.4 2.4 0 .8-.3 1.5-.9 2-.5.4-1.3.6-2.4.6zm12.7-4h-6c0 .8.2 1.5.6 2 .5.5 1.1.7 1.9.7.5 0 1-.1 1.4-.4.3-.3.6-.7.8-1.2l1.2.5c-.3.8-.7 1.4-1.3 1.8-.6.4-1.4.6-2.2.6-1.3 0-2.2-.4-2.9-1.1-.7-.8-1-1.9-1-3.2a5 5 0 0 1 1-3.4c.7-.8 1.6-1.2 2.8-1.2 1.2 0 2 .3 2.7 1 .6.6 1 1.6 1 2.9v1zm-1.5-1.4c0-.8-.2-1.3-.6-1.8-.4-.4-.9-.6-1.6-.6-.7 0-1.3.3-1.7.7-.4.5-.6 1.1-.7 1.9h4.6v-.2zm7 5.4a4 4 0 0 1-2.5-.7c-.6-.5-1-1.2-1.2-2.1l1.5-.3c.1.7.4 1.1.7 1.4.4.4 1 .5 1.6.5.5 0 1-.1 1.3-.3.3-.3.4-.6.4-1s0-.7-.3-.9c-.2-.2-.6-.3-1-.4l-1.4-.1a3 3 0 0 1-1.8-.8c-.5-.5-.7-1-.7-1.7 0-.8.3-1.4.9-1.8.6-.5 1.4-.7 2.4-.7s1.7.2 2.3.7c.6.5 1 1.1 1 1.9l-1.3.3c-.1-.5-.4-1-.7-1.3a2 2 0 0 0-1.4-.4c-.5 0-1 0-1.3.3a1 1 0 0 0-.5 1c0 .7.5 1.1 1.6 1.2l1.3.2c1.6.2 2.4 1 2.4 2.4 0 .8-.3 1.5-.9 2-.6.4-1.4.6-2.4.6zm8.6 0a4 4 0 0 1-2.5-.7c-.7-.5-1-1.2-1.2-2.1L92 84c0 .7.3 1.1.7 1.4.4.4 1 .5 1.6.5.5 0 1-.1 1.3-.3.3-.3.4-.6.4-1s-.1-.7-.3-.9c-.2-.2-.6-.3-1-.4l-1.4-.1a3 3 0 0 1-1.9-.8c-.4-.5-.6-1-.6-1.7 0-.8.3-1.4.9-1.8.5-.5 1.3-.7 2.3-.7 1 0 1.8.2 2.4.7.6.5 1 1.1 1 1.9l-1.4.3c0-.5-.3-1-.6-1.3a2 2 0 0 0-1.4-.4c-.6 0-1 0-1.3.3a1 1 0 0 0-.5 1c0 .7.5 1.1 1.5 1.2l1.4.2c1.6.2 2.3 1 2.3 2.4 0 .8-.2 1.5-.8 2-.6.4-1.4.6-2.4.6zm7.3-8.7V80c.4-1.2 1.2-1.7 2.4-1.7.6 0 1 .1 1.5.4.4.3.7.7 1 1.3.5-1.2 1.3-1.7 2.5-1.7.8 0 1.4.2 1.9.8.4.6.7 1.3.7 2.3V87H110v-5.5c0-1.3-.5-2-1.6-2-.6 0-1 .3-1.4.7-.3.4-.5 1-.5 1.8v5h-1.4v-5.5c0-.6-.2-1.1-.5-1.5-.2-.3-.6-.5-1.1-.5-.6 0-1 .3-1.4.7a3 3 0 0 0-.6 1.8v5h-1.4v-8.5h1.4zm19.8 4.7h-6c0 .8.2 1.5.7 2 .5.5 1 .7 1.8.7.6 0 1-.1 1.4-.4.4-.3.7-.7.9-1.2l1.2.5c-.3.8-.8 1.4-1.4 1.8-.6.4-1.3.6-2.2.6-1.2 0-2.1-.4-2.8-1.1-.7-.8-1-1.9-1-3.2a5 5 0 0 1 1-3.4c.7-.8 1.6-1.2 2.8-1.2 1.2 0 2 .3 2.7 1 .6.6 1 1.6 1 2.9v1zm-1.4-1.4c0-.8-.2-1.3-.6-1.8-.4-.4-1-.6-1.6-.6-.8 0-1.3.3-1.8.7-.4.5-.6 1.1-.6 1.9h4.6v-.2zm4.2-3.3h1.3v1.7c.6-1.3 1.5-2 2.9-2 .9 0 1.6.4 2 1 .6.5.8 1.4.8 2.5V87h-1.5v-5.2c0-1.5-.6-2.3-1.8-2.3a2 2 0 0 0-1.7.9c-.4.5-.6 1.2-.6 2.2V87h-1.4v-8.5zm8.7 0h1.6v-2.2l1.4-.6v2.8h2.2v1.2h-2.2v4.7c0 .5.1.8.3 1 .2.3.5.4 1 .4l.9-.1V87l-1.3.2c-.9 0-1.5-.3-1.8-.7-.3-.5-.5-1.2-.5-2v-4.8h-1.6v-1.2zm10.3 8.7a4 4 0 0 1-2.5-.7c-.6-.5-1-1.2-1.1-2.1l1.4-.3c.2.7.4 1.1.8 1.4.4.4.9.5 1.5.5s1-.1 1.3-.3c.3-.3.5-.6.5-1s-.1-.7-.4-.9c-.2-.2-.5-.3-1-.4l-1.4-.1a3 3 0 0 1-1.8-.8c-.4-.5-.6-1-.6-1.7 0-.8.3-1.4.8-1.8.6-.5 1.4-.7 2.4-.7s1.7.2 2.4.7c.6.5 1 1.1 1 1.9l-1.4.3c-.1-.5-.3-1-.7-1.3a2 2 0 0 0-1.3-.4c-.6 0-1 0-1.4.3a1 1 0 0 0-.4 1c0 .7.5 1.1 1.5 1.2l1.4.2c1.5.2 2.3 1 2.3 2.4 0 .8-.3 1.5-.9 2-.5.4-1.3.6-2.4.6zm-99 18h-5.7v-2.3h8.9v2.1l-5.8 7.8h6v2.2h-9.3v-2l5.8-7.8zm13.8 7.7v2.1h-8.4v-12h8.3v2h-5.4v2.8h5.1v2h-5v3h5.4zm7-2.5h-1.7v4.6h-2.8v-12h5.3c1.4 0 2.6.3 3.3 1 .7.6 1 1.5 1 2.6 0 .8-.1 1.5-.5 2-.4.7-1 1-1.8 1.4l2.7 5h-3.1l-2.3-4.6zm-1.7-2h1.9c.7 0 1.2-.1 1.5-.5.3-.3.5-.7.5-1.3 0-1-.7-1.6-2-1.6h-1.9v3.4zm14.2 6.9c-1.2 0-2.3-.3-3.2-.8a5.3 5.3 0 0 1-2-2.2c-.5-1-.8-2-.8-3.3 0-1.3.3-2.4.8-3.4s1.1-1.7 2-2.2c1-.5 2-.8 3.2-.8 1.2 0 2.2.3 3.1.8 1 .5 1.6 1.3 2.1 2.2.5 1 .7 2 .7 3.4 0 1.2-.2 2.4-.7 3.3-.5 1-1.2 1.7-2 2.2-1 .5-2 .8-3.2.8zm0-2.3c1 0 1.7-.3 2.2-1a5 5 0 0 0 .8-3 5 5 0 0 0-.8-3c-.5-.8-1.3-1.1-2.2-1.1-1 0-1.7.3-2.2 1a5 5 0 0 0-.8 3 5 5 0 0 0 .8 3c.5.8 1.2 1.1 2.2 1.1zm14.8-8.7v3.8h5.6v1.4h-5.6v5.5h-1.6v-12h7.5v1.3h-5.9zm10.3 10.9a3 3 0 0 1-2-.7c-.6-.4-.9-1-.9-1.8l.3-1.2c.3-.3.5-.6 1-.8l1-.4 1.8-.3 1.6-.2v-.1c0-.8-.2-1.4-.5-1.7-.3-.3-.7-.5-1.4-.5a2 2 0 0 0-1.4.4c-.3.3-.5.7-.5 1.3h-1.6c0-.9.4-1.6 1-2.1.7-.5 1.5-.8 2.5-.8 1.1 0 2 .3 2.5.8.6.6.8 1.5.8 2.7v2.3c0 1.3.1 2.3.3 2.9h-1.5l-.1-1.5c-.2.5-.6 1-1 1.2-.6.4-1.2.5-1.9.5zm.3-1.2c.8 0 1.4-.2 1.8-.7.5-.5.7-1.2.7-2v-.4l-2.3.3c-.6.1-1.1.3-1.4.5-.3.2-.4.6-.4 1s.1.7.4 1c.3.2.7.3 1.2.3zm7.1-7.5h1.5v8.5h-1.5v-8.5zm0-3.4h1.6v1.8h-1.7v-1.8zm6.4 11.9h-1.5v-12.3h1.5V115zm6.1.2c-1 0-1.7-.3-2.2-.8-.5-.6-.7-1.4-.7-2.5v-5.4h1.5v5.3c0 .7.1 1.2.4 1.6.3.4.7.6 1.3.6a2 2 0 0 0 1.6-.8c.5-.6.7-1.3.7-2.1v-4.6h1.4v8.5h-1.3v-1.6c-.2.5-.6 1-1 1.3-.5.3-1 .5-1.7.5zm8.8-6.8c.2-.6.5-1.1 1-1.5a2.3 2.3 0 0 1 1.9-.6v1.4h-.1a2.5 2.5 0 0 0-2.6 2l-.1 1.7v3.6h-1.5v-8.5h1.4v2zm11.5 2.8h-6c0 .8.2 1.5.7 2 .5.5 1 .7 1.8.7.6 0 1-.1 1.4-.4.4-.3.7-.7.9-1.2l1.2.5c-.3.8-.8 1.4-1.4 1.8-.6.4-1.3.6-2.2.6-1.2 0-2.1-.4-2.8-1.1-.7-.8-1-1.9-1-3.2a5 5 0 0 1 1-3.4c.7-.8 1.6-1.2 2.8-1.2 1.2 0 2 .3 2.7 1 .6.6 1 1.6 1 2.9v1zm-1.4-1.4c0-.8-.2-1.3-.6-1.8-.4-.4-1-.6-1.6-.6-.8 0-1.3.3-1.7.7-.5.5-.7 1.1-.7 1.9h4.6v-.2zm7 5.4a4 4 0 0 1-2.5-.7c-.6-.5-1-1.2-1.2-2.1l1.5-.3c0 .7.3 1.1.7 1.4.4.4 1 .5 1.6.5.5 0 1-.1 1.3-.3.3-.3.4-.6.4-1s0-.7-.3-.9c-.2-.2-.6-.3-1-.4l-1.4-.1a3 3 0 0 1-1.9-.8c-.4-.5-.6-1-.6-1.7 0-.8.3-1.4.9-1.8.5-.5 1.3-.7 2.3-.7 1 0 1.8.2 2.4.7.6.5 1 1.1 1 1.9l-1.4.3c0-.5-.3-1-.6-1.3a2 2 0 0 0-1.4-.4c-.6 0-1 0-1.3.3a1 1 0 0 0-.5 1c0 .7.5 1.1 1.5 1.2l1.4.2c1.6.2 2.3 1 2.3 2.4 0 .8-.2 1.5-.8 2-.6.4-1.4.6-2.4.6z"/><path id="Rectangle" d="M38 93h116v2H38z"/></g></mask><g mask="url(#mask0)"><path id="grad overlay" fill="url(#paint0_linear)" d="M3 3h186v119H3z"/></g></g><defs><linearGradient id="paint0_linear" x1="176.5" x2="107.6" y1="110" y2="-23.4" gradientUnits="userSpaceOnUse"><stop stop-color="#008FDF"/><stop offset="1" stop-color="#00E3BA"/></linearGradient></defs></svg>