<svg xmlns="http://www.w3.org/2000/svg" fill="none" viewBox="0 0 149 160"><g id="3x growth"><mask id="mask0" width="131" height="150" x="5" y="6" mask-type="alpha" maskUnits="userSpaceOnUse"><g id="Group"><path id="3×" fill="#000" d="M38.86 87.37c-6.15 0-11.51-1-16.1-3-4.51-2.07-8.03-4.99-10.54-8.76-2.45-3.78-3.7-8.22-3.78-13.32l18.1-1.67c.07 4.07 1.22 7.25 3.44 9.55 2.22 2.3 5.21 3.44 8.99 3.44 3.62 0 6.36-.93 8.21-2.78 1.92-1.85 2.89-4.47 2.89-7.88 0-6.88-4.44-10.32-13.32-10.32h-4.11V40.42h4c3.84 0 6.77-.85 8.77-2.55 2-1.78 3-4.33 3-7.66 0-3.11-.9-5.52-2.67-7.22-1.78-1.7-4.3-2.55-7.55-2.55-3.63 0-6.44 1.18-8.44 3.55-1.92 2.37-2.88 5.7-2.88 10L9.22 31.64c0-4.96 1.22-9.29 3.66-12.99A23.36 23.36 0 0 1 23.2 10c4.52-2.07 9.81-3.1 15.88-3.1 8.88 0 15.72 1.85 20.53 5.55 4.81 3.7 7.22 8.91 7.22 15.65 0 4.29-1.4 8.06-4.22 11.32-2.81 3.18-6.55 5.3-11.21 6.33 5.7.81 10.03 2.8 12.99 6 3.03 3.1 4.55 7.24 4.55 12.42 0 4.66-1.26 8.77-3.78 12.32-2.44 3.48-5.92 6.18-10.43 8.1-4.51 1.86-9.8 2.78-15.87 2.78zm70.46-31.42l15.56 15.56-8.46 8.65-15.65-15.75L85.1 80.06l-8.46-8.46L92.3 55.95 76.65 40.3l8.46-8.47 15.66 15.57 15.56-15.57 8.64 8.47-15.65 15.65z"/><path id="Y/Y revenue growth since founding" fill="#000" d="M10.66 103.86L5.94 94.8H9.5l2.5 5.24c.17.37.29.72.34 1.04h.04c.05-.32.17-.67.34-1.04l2.48-5.24h3.58l-4.72 9.06V109h-3.4v-5.14zm7.45 7.48l5.64-17.54h2.8l-5.64 17.54h-2.8zm14.42-7.48l-4.71-9.06h3.55l2.5 5.24c.18.37.3.72.35 1.04h.04c.05-.32.16-.67.34-1.04l2.48-5.24h3.58l-4.72 9.06V109h-3.4v-5.14zm18.03-.3h-2.04V109h-3.38V94.8h6.24c1.74 0 3.04.39 3.9 1.16.86.77 1.3 1.84 1.3 3.2 0 .9-.24 1.7-.72 2.4a4 4 0 0 1-2.06 1.5l3.14 5.94h-3.66l-2.72-5.44zm-2.04-2.32h2.18c.8 0 1.39-.18 1.78-.54.38-.36.58-.87.58-1.54 0-1.32-.79-1.98-2.36-1.98h-2.18v4.06zm19.1 3.48h-6.95c.02.68.23 1.22.64 1.62.43.4.98.6 1.66.6 1 0 1.72-.47 2.18-1.4l2.36 1.08c-.4.83-1 1.47-1.82 1.94a5.5 5.5 0 0 1-2.76.68 5.4 5.4 0 0 1-3.9-1.36 5.03 5.03 0 0 1-1.4-3.78c0-1.08.21-2.02.62-2.82.42-.81 1-1.43 1.76-1.86a5.37 5.37 0 0 1 2.7-.66c1.58 0 2.78.44 3.62 1.32.86.87 1.28 2.1 1.28 3.68v.96zm-3.1-1.88c0-.7-.17-1.25-.49-1.62-.32-.37-.78-.56-1.38-.56-.6 0-1.09.2-1.44.6-.33.39-.5.94-.54 1.66h3.84v-.08zm3.5-3.84h3.3l1.61 5.9c.1.32.2.8.3 1.42h.04c.11-.63.21-1.1.3-1.42L75.2 99h3.3L75 109h-3.5l-3.48-10zm20.77 5.72h-6.94c.01.68.22 1.22.64 1.62.42.4.98.6 1.66.6.98 0 1.71-.47 2.18-1.4l2.36 1.08c-.4.83-1.01 1.47-1.82 1.94a5.5 5.5 0 0 1-2.76.68 5.4 5.4 0 0 1-3.9-1.36 5.03 5.03 0 0 1-1.4-3.78c0-1.08.2-2.02.62-2.82.41-.81 1-1.43 1.76-1.86a5.37 5.37 0 0 1 2.7-.66c1.57 0 2.78.44 3.62 1.32.85.87 1.28 2.1 1.28 3.68v.96zm-3.1-1.88c0-.7-.16-1.25-.48-1.62-.32-.37-.78-.56-1.38-.56-.62 0-1.1.2-1.44.6-.34.39-.52.94-.54 1.66h3.84v-.08zm5.1-3.84h3.09v1.92c.69-1.45 1.8-2.18 3.32-2.18 1.08 0 1.89.34 2.44 1.02.54.68.82 1.7.82 3.04v6.2h-3.2v-5.76c0-.7-.13-1.2-.38-1.54-.24-.33-.62-.5-1.12-.5-.56 0-1 .2-1.3.62-.3.41-.44 1-.44 1.78v5.4H90.8V99zm15.4 10.24c-2.25 0-3.36-1.25-3.36-3.76V99h3.2v5.92c0 .61.11 1.08.36 1.4.25.32.6.48 1.08.48.52 0 .92-.19 1.22-.56.3-.39.45-.9.45-1.52V99h3.22v10h-3.05v-1.82a3.08 3.08 0 0 1-1.2 1.52c-.56.36-1.2.54-1.92.54zm18.06-4.52h-6.94c.02.68.23 1.22.64 1.62.43.4.98.6 1.66.6 1 0 1.72-.47 2.19-1.4l2.36 1.08c-.4.83-1.01 1.47-1.83 1.94a5.5 5.5 0 0 1-2.75.68 5.4 5.4 0 0 1-3.9-1.36 5.03 5.03 0 0 1-1.4-3.78c0-1.08.2-2.02.61-2.82.42-.81 1-1.43 1.77-1.86a5.37 5.37 0 0 1 2.7-.66c1.57 0 2.78.44 3.61 1.32.86.87 1.28 2.1 1.28 3.68v.96zm-3.1-1.88c0-.7-.16-1.25-.48-1.62-.31-.37-.78-.56-1.38-.56-.6 0-1.09.2-1.44.6-.33.39-.5.94-.53 1.66h3.84v-.08zm-108.27 27.5c-1.3 0-2.41-.3-3.36-.9a5.91 5.91 0 0 1-2.18-2.6 9.43 9.43 0 0 1-.76-3.92c0-1.48.28-2.78.84-3.9.57-1.13 1.4-2 2.46-2.62a7.24 7.24 0 0 1 3.74-.94c1.19 0 2.22.2 3.1.58a5.15 5.15 0 0 1 3.08 3.78l-3.34.62a3.13 3.13 0 0 0-.92-1.76 2.67 2.67 0 0 0-1.94-.68c-1.12 0-2 .44-2.62 1.32a5.97 5.97 0 0 0-.94 3.56c0 1.52.3 2.71.92 3.58a3.1 3.1 0 0 0 2.68 1.28c.68 0 1.25-.15 1.72-.44.48-.3.83-.69 1.06-1.14.24-.45.36-.9.36-1.34v-.3h-3.5v-2.42h6.58v7.9h-2.4l-.14-2.08a3.92 3.92 0 0 1-1.7 1.78c-.76.43-1.67.64-2.74.64zm12.36-7.76c.27-.92.68-1.62 1.22-2.1a3.14 3.14 0 0 1 2.12-.72h.2v3.06a6.7 6.7 0 0 0-.6-.02c-.82 0-1.47.2-1.94.6-.29.28-.5.63-.62 1.06-.12.41-.18.9-.18 1.46V130h-3.22v-10h3.02v2.58zm9.49 7.66c-1 0-1.9-.2-2.68-.6a4.59 4.59 0 0 1-1.84-1.8 5.78 5.78 0 0 1-.66-2.86c0-1.12.22-2.07.66-2.84a4.46 4.46 0 0 1 1.84-1.78c.79-.4 1.68-.6 2.68-.6 1 0 1.9.2 2.68.6.79.4 1.4 1 1.84 1.78.45.77.68 1.72.68 2.84 0 1.12-.23 2.07-.68 2.86a4.43 4.43 0 0 1-1.84 1.8c-.79.4-1.68.6-2.68.6zm0-2.22c.64 0 1.13-.25 1.48-.76.35-.52.52-1.28.52-2.28 0-1.01-.17-1.77-.52-2.26a1.7 1.7 0 0 0-1.48-.74 1.7 1.7 0 0 0-1.48.74c-.33.5-.5 1.25-.5 2.26 0 1 .17 1.76.52 2.28.35.5.83.76 1.46.76zm5.83-8.02h3.06l1.26 6.12.14.96h.04c.05-.45.1-.77.16-.96l1.46-6.12h2.72l1.46 6.12c.06.32.12.64.16.96h.04c.05-.45.1-.77.14-.96l1.24-6.12h3.06l-2.66 10h-3.12l-1.52-5.9a3.9 3.9 0 0 1-.14-.84h-.04l-.14.84-1.52 5.9h-3.12l-2.68-10zm15.75 0h1.74v-2.4l3.2-1.24V120h2.38v2.14h-2.38v3.9c0 1.01.5 1.52 1.46 1.52.28 0 .6-.03.92-.1V130c-.7.13-1.3.2-1.82.2-1.29 0-2.24-.29-2.86-.86-.6-.57-.9-1.42-.9-2.54v-4.66h-1.74V120zm9.27-4.5h3.22v6.28a3.23 3.23 0 0 1 3.18-2.06c1.08 0 1.9.34 2.44 1.02.55.68.82 1.7.82 3.04V130h-3.2v-5.9c0-1.28-.49-1.92-1.48-1.92-.57 0-1 .21-1.32.64a3.1 3.1 0 0 0-.44 1.8V130h-3.22v-14.5zm22 14.84c-1.5 0-2.79-.3-3.87-.88a5.49 5.49 0 0 1-2.38-2.42l2.5-1.76c.39.77.9 1.37 1.54 1.8.64.43 1.41.64 2.32.64.72 0 1.3-.13 1.76-.4.45-.28.68-.69.68-1.22 0-.52-.16-.9-.48-1.14-.3-.25-.83-.46-1.58-.62l-1.9-.4c-2.61-.57-3.92-2-3.92-4.26a3.8 3.8 0 0 1 2.58-3.7 7.72 7.72 0 0 1 2.96-.52c1.3 0 2.43.24 3.42.72a4.72 4.72 0 0 1 2.22 2.1l-2.2 1.86a4.03 4.03 0 0 0-3.66-2.18c-.67 0-1.2.13-1.6.4-.4.25-.6.6-.6 1.06 0 .45.15.81.46 1.08.32.25.85.47 1.6.64l2.06.44c1.3.3 2.28.77 2.92 1.44.64.65.96 1.57.96 2.76 0 .9-.23 1.7-.68 2.4a4.5 4.5 0 0 1-2 1.6c-.87.37-1.9.56-3.12.56zM95.62 120h3.22v10h-3.22v-10zm-.04-4.36h3.34v2.92H95.6v-2.92zm6.34 4.36H105v1.92c.7-1.45 1.8-2.18 3.32-2.18 1.08 0 1.9.34 2.44 1.02.55.68.82 1.7.82 3.04v6.2h-3.2v-5.76c0-.7-.13-1.2-.38-1.54-.24-.33-.61-.5-1.12-.5-.56 0-1 .2-1.3.62-.3.41-.44 1-.44 1.78v5.4h-3.22v-10zm17.09 10.24a5.77 5.77 0 0 1-2.76-.64 4.66 4.66 0 0 1-1.86-1.84 5.7 5.7 0 0 1-.64-2.76c0-1.63.47-2.9 1.42-3.84a5.29 5.29 0 0 1 3.88-1.4c1.3 0 2.37.3 3.2.92a3.88 3.88 0 0 1 1.54 2.62l-3.02.62c-.1-.59-.3-1.03-.6-1.34-.31-.3-.71-.46-1.2-.46-.62 0-1.1.25-1.44.74a3.5 3.5 0 0 0-.52 2.04c0 .95.17 1.68.52 2.2.34.5.83.76 1.46.76.49 0 .89-.16 1.2-.48.3-.32.5-.78.6-1.38l3 .66a3.93 3.93 0 0 1-1.56 2.62c-.87.64-1.94.96-3.22.96zm16.37-4.52h-6.94c.01.68.22 1.22.64 1.62.42.4.98.6 1.66.6.98 0 1.71-.47 2.18-1.4l2.36 1.08c-.4.83-1.01 1.47-1.82 1.94a5.5 5.5 0 0 1-2.76.68 5.4 5.4 0 0 1-3.9-1.36 5.02 5.02 0 0 1-1.4-3.78c0-1.08.2-2.02.62-2.82.41-.81 1-1.43 1.76-1.86a5.36 5.36 0 0 1 2.7-.66c1.57 0 2.78.44 3.62 1.32.85.87 1.28 2.1 1.28 3.68v.96zm-3.1-1.88c0-.7-.16-1.25-.48-1.62-.32-.37-.78-.56-1.38-.56-.62 0-1.1.2-1.44.6-.34.39-.52.94-.54 1.66h3.84v-.08zM10.86 139.36v3.28h5.98v2.52h-5.98V151H7.48v-14.2h9.72v2.56h-6.34zm12.88 11.88c-1 0-1.9-.2-2.68-.6a4.59 4.59 0 0 1-1.84-1.8 5.78 5.78 0 0 1-.66-2.86c0-1.12.22-2.07.66-2.84a4.46 4.46 0 0 1 1.84-1.78c.79-.4 1.68-.6 2.68-.6 1 0 1.9.2 2.68.6.79.4 1.4 1 1.84 1.78.46.77.68 1.72.68 2.84 0 1.12-.22 2.07-.68 2.86a4.43 4.43 0 0 1-1.84 1.8c-.78.4-1.68.6-2.68.6zm0-2.22c.64 0 1.14-.25 1.48-.76.35-.52.52-1.28.52-2.28 0-1.01-.17-1.77-.52-2.26a1.7 1.7 0 0 0-1.48-.74 1.7 1.7 0 0 0-1.48.74c-.33.5-.5 1.25-.5 2.26 0 1 .18 1.76.52 2.28.35.5.84.76 1.46.76zm10.73 2.22c-2.24 0-3.36-1.25-3.36-3.76V141h3.2v5.92c0 .61.11 1.08.35 1.4.26.32.62.48 1.09.48.52 0 .92-.19 1.22-.56.3-.39.45-.9.45-1.52V141h3.23v10h-3.06v-1.82a3.08 3.08 0 0 1-1.2 1.52c-.56.36-1.2.54-1.92.54zM43.72 141h3.08v1.92c.69-1.45 1.8-2.18 3.32-2.18 1.08 0 1.89.34 2.44 1.02.54.68.82 1.7.82 3.04v6.2h-3.2v-5.76c0-.7-.13-1.2-.38-1.54-.24-.33-.62-.5-1.12-.5-.56 0-1 .2-1.3.62-.3.41-.44 1-.44 1.78v5.4h-3.22v-10zm15.88 10.24c-.78 0-1.48-.21-2.1-.64a4.3 4.3 0 0 1-1.4-1.84c-.33-.79-.5-1.7-.5-2.72 0-1.05.18-1.97.52-2.76.35-.8.84-1.42 1.46-1.86a3.79 3.79 0 0 1 2.2-.66c.67 0 1.24.13 1.72.4s.85.66 1.1 1.18v-5.84h3.2V151h-3.04v-1.72c-.25.6-.66 1.08-1.22 1.44a3.6 3.6 0 0 1-1.94.52zm1.26-2.22c.55 0 .98-.23 1.3-.68.32-.45.48-1.07.48-1.86v-.86c0-.84-.16-1.49-.48-1.94-.32-.47-.76-.7-1.34-.7a1.6 1.6 0 0 0-1.42.78c-.33.52-.5 1.26-.5 2.22 0 .95.18 1.7.52 2.24.35.53.83.8 1.44.8zm8.15-8.02h3.22v10H69v-10zm-.04-4.36h3.34v2.92h-3.34v-2.92zM75.3 141h3.08v1.92c.69-1.45 1.8-2.18 3.32-2.18 1.08 0 1.89.34 2.44 1.02.54.68.82 1.7.82 3.04v6.2h-3.2v-5.76c0-.7-.13-1.2-.38-1.54-.24-.33-.62-.5-1.12-.5-.56 0-1 .2-1.3.62-.3.41-.44 1-.44 1.78v5.4H75.3v-10zm22.44.46a5.4 5.4 0 0 0-.92-.1c-.54 0-.98.12-1.3.36.78.6 1.16 1.4 1.16 2.38 0 1.03-.4 1.85-1.24 2.48a5.4 5.4 0 0 1-3.32.92 6.5 6.5 0 0 1-2.06-.3c-.2.13-.3.31-.3.54 0 .55.46.82 1.38.82h2.8c1.22 0 2.13.25 2.74.74.63.5.94 1.22.94 2.18 0 1.16-.5 2.06-1.5 2.7-.98.64-2.4.96-4.26.96a8.14 8.14 0 0 1-3.68-.66c-.82-.43-1.24-1-1.24-1.74 0-.4.15-.76.44-1.08.3-.3.72-.55 1.28-.72-.9-.36-1.36-.99-1.36-1.88 0-.53.16-1 .46-1.38.32-.39.77-.69 1.34-.9a2.98 2.98 0 0 1-1.56-2.68c0-1.01.42-1.82 1.24-2.42a5.49 5.49 0 0 1 3.34-.92c.87 0 1.64.12 2.3.36.18-.57.51-1.02 1-1.34.5-.32 1.13-.48 1.9-.48.18 0 .32 0 .42.02v2.14zm-5.62 4.4c.46 0 .82-.16 1.1-.48.3-.33.44-.76.44-1.28 0-.5-.14-.91-.42-1.22a1.41 1.41 0 0 0-1.12-.48c-.46 0-.84.16-1.14.48-.28.3-.42.71-.42 1.22 0 .52.14.95.42 1.28.3.32.68.48 1.14.48zm-1.68 5.36c-.18 0-.42-.01-.72-.04-.26.25-.4.57-.4.94 0 .84.9 1.26 2.68 1.26 1.96 0 2.94-.4 2.94-1.18 0-.64-.44-.96-1.34-.96l-3.16-.02z"/><path id="Vector" stroke="#000" stroke-linecap="square" stroke-width="9" d="M106.34 31.67h17.7v17.7"/></g></mask><g mask="url(#mask0)"><path id="grad overlay" fill="url(#paint0_linear)" d="M0 0h149v157H0z"/></g></g><defs><linearGradient id="paint0_linear" x1="-18.5" x2="190.84" y1="-11.13" y2="116.47" gradientUnits="userSpaceOnUse"><stop stop-color="#4C66F1"/><stop offset="1" stop-color="#D129C3"/></linearGradient></defs></svg>