<svg viewBox="0 0 255 254" fill="none" xmlns="http://www.w3.org/2000/svg"><circle cx="128" cy="127" r="122" fill="url(#paint0_radial)"/><mask id="a" mask-type="alpha" maskUnits="userSpaceOnUse" x="3" y="3" width="248" height="247"><path fill-rule="evenodd" clip-rule="evenodd" d="M234.18 194.37h-23.99v7.91h-19.9c-9.7 0-17.6 6.9-19.65 15.82H34.9a23.96 23.96 0 01-24-23.98 23.96 23.96 0 0124-24H65a74.82 74.82 0 0061.5 32.16 75.8 75.8 0 0075.78-75.78 74.66 74.66 0 00-9.18-35.98h25a31.9 31.9 0 000-63.8H82.36c-1.79-9.18-9.96-15.81-19.65-15.81H42.8V3H18.82v7.91H3v7.91h15.82v23.99H3v7.9h15.82v7.92h23.99v-7.91h19.9c9.7 0 17.6-6.9 19.65-15.82h136a23.96 23.96 0 0123.98 23.98 23.96 23.96 0 01-23.98 23.99h-30.11c-13.78-19.4-36.23-32.15-61.75-32.15a75.8 75.8 0 00-75.78 75.78 74.67 74.67 0 009.18 35.98h-25a31.9 31.9 0 000 63.79h136c1.78 9.18 9.95 15.82 19.64 15.82h19.9V250h24v-7.91h15.81v-7.91h-15.82v-23.99h15.82v-7.9h-15.82v-7.92h-.25zM34.9 50.72h-7.91V10.9h7.9v39.8zm27.8-7.91H42.8v-24h19.9c6.64 0 12 5.37 12 12 0 6.64-5.36 12-12 12zM61.7 146.4h100.53c2.3 0 4.08 1.78 4.08 4.07 0 2.3-1.78 4.09-4.08 4.09H118.6a11.98 11.98 0 100 23.99h23.98c2.3 0 4.09 1.78 4.09 4.07v8.94a64.9 64.9 0 01-19.9 3.06 68.7 68.7 0 01-65.07-48.23zm131.4-31.9h-66.6a4.03 4.03 0 01-4.07-4.09c0-2.3 1.78-4.08 4.08-4.08h23.99c6.63 0 11.99-5.36 11.99-12 0-6.63-5.36-11.99-12-11.99H138.5a4.03 4.03 0 01-4.08-4.08c0-2.3 1.79-4.08 4.08-4.08h31.64c11.74 10.46 20.16 24.5 22.97 40.32zm-34.7-47.72h-19.9c-6.63 0-12 5.36-12 12 0 6.63 5.37 11.99 12 11.99h12c2.3 0 4.08 1.78 4.08 4.08s-1.79 4.08-4.08 4.08h-24c-6.63 0-11.98 5.36-11.98 12 0 6.63 5.35 11.99 11.99 11.99h67.62c0 .6.06 1.21.12 1.85.06.7.13 1.43.13 2.23 0 27.3-16.33 51.03-39.8 61.75v-5.87c0-6.64-5.36-12-12-12H118.6a4.03 4.03 0 01-4.08-4.08c0-2.3 1.78-4.08 4.08-4.08h43.89c6.63 0 11.99-5.36 11.99-12 0-6.63-5.36-11.99-12-11.99H59.9c-.47-2.34-.72-4.9-.96-7.28l-.02-.23-.04-.4H94.6c6.64 0 12-5.36 12-11.99s-5.36-12-12-12h-4.08a4.03 4.03 0 01-4.08-4.08c0-2.3 1.78-4.08 4.08-4.08h7.91c6.64 0 12-5.36 12-12 0-6.63-5.36-11.98-12-11.98H82.87a67.27 67.27 0 0143.63-15.82 64.35 64.35 0 0131.9 7.9zM74.96 82.6h23.73c2.3 0 4.08 1.79 4.08 4.08 0 2.3-1.79 4.09-4.08 4.09h-7.91c-6.64 0-12 5.35-12 11.99 0 6.63 5.36 12 12 12h4.08c2.3 0 4.08 1.78 4.08 4.07 0 2.3-1.78 4.09-4.08 4.09H59.14A67.45 67.45 0 0174.96 82.6zm115.33 151.57c-6.63 0-12-5.36-12-12 0-6.63 5.37-11.99 12-11.99h19.9v23.99h-19.9zm35.98 7.9h-7.91v-39.8h7.9v39.8zm-.51-106.4l-7.91-.76c-.26 2.55-.51 5.1-1.02 7.65l7.9 1.28c.52-2.55.77-5.36 1.03-8.17zm-10.47 14.3l7.66 2.03-.42 1.43c-.63 2.15-1.3 4.4-2.13 6.49l-7.4-2.56c.38-1.27.76-2.49 1.15-3.7.38-1.2.76-2.42 1.14-3.7zm-17.34 33.93l6.12 5.1c1.78-2.04 3.31-4.33 4.85-6.63l-6.38-4.85a36.69 36.69 0 01-4.6 6.38zm12.24-19.65l7.15 3.32c-1.28 2.55-2.55 5.1-3.58 7.4l-6.88-3.83c.5-1.15 1.08-2.3 1.65-3.44.58-1.15 1.15-2.3 1.66-3.45zm14.8-53.33c-.25-1.4-.5-2.74-.76-4.08l-.77-4.08-7.65 1.78c.5 2.56 1.02 5.1 1.53 7.4l7.65-1.02zm1.02 8.17c.26 2.55.26 4.85.26 7.4v.76h-7.91v-.76c0-2.3 0-4.6-.26-6.9l7.91-.5zM35.66 85.42l7.15 3.31c.5-1.14 1.08-2.3 1.65-3.44a84.7 84.7 0 001.66-3.45l-6.63-3.82c-1.28 2.3-2.55 4.85-3.83 7.4zm13.27-21.44l6.12 5.1a38.11 38.11 0 00-4.33 5.88l-6.64-4.34c1.53-2.3 3.06-4.6 4.85-6.64zm-18.88 37l7.65 2.04 1.15-3.7c.39-1.2.77-2.42 1.15-3.7l-7.4-2.55c-.83 2.08-1.5 4.34-2.13 6.48l-.42 1.43zm-1.28 45.16l-.76-4.08 7.65-1.02c.51 2.3 1.02 4.85 1.53 7.4l-7.65 1.79-.77-4.09zm-1.53-28.83l7.91.77c.26-2.55.51-5.1 1.02-7.66l-7.9-1.27a79.27 79.27 0 00-1.03 8.16zM27 133.9c-.26-2.55-.26-4.85-.26-7.4v-.77h7.91v.77c0 2.3 0 4.6.26 6.89l-7.91.5z" fill="#000"/></mask><g mask="url(#a)"><path fill="url(#paint1_linear)" d="M-15.59-4.23h283.02v262.36H-15.59z"/></g><defs><radialGradient id="paint0_radial" cx="0" cy="0" r="1" gradientUnits="userSpaceOnUse" gradientTransform="matrix(0 122 -122 0 128 127)"><stop offset=".59" stop-color="#fff"/><stop offset="1" stop-color="#fff" stop-opacity="0"/></radialGradient><linearGradient id="paint1_linear" x1="-15.59" y1="4.55" x2="230.41" y2="247.2" gradientUnits="userSpaceOnUse"><stop stop-color="#008FDF"/><stop offset="1" stop-color="#00E5BC"/></linearGradient></defs></svg>