<svg viewBox="0 0 774 367" fill="none" xmlns="http://www.w3.org/2000/svg"><g clip-path="url(#a)" stroke="#fff" stroke-width="4.46"><path d="M180.11 273.3a88.95 88.95 0 11-177.88 0 88.95 88.95 0 11177.88 0z"/><path d="M467.66 181.86c0 99.21-80.4 179.64-179.59 179.64-99.18 0-179.58-80.43-179.58-179.64S188.89 2.23 288.07 2.23c99.19 0 179.59 80.42 179.59 179.63z"/><path d="M539.12 212.32a71.48 71.48 0 11-142.94 0 71.48 71.48 0 11142.94 0z"/><path d="M674.1 261.65c0 49.87-40.41 90.3-90.27 90.3s-90.28-40.43-90.28-90.3 40.42-90.3 90.28-90.3 90.28 40.42 90.28 90.3z"/><path d="M698.6 303.42a41.45 41.45 0 11-82.9.01 41.45 41.45 0 0182.9 0z"/><path d="M83.53 260.96h636.44a51.86 51.86 0 0151.85 51.87v.05a51.86 51.86 0 01-51.86 51.86H83.54a51.86 51.86 0 01-51.85-51.86v-.05a51.86 51.86 0 0151.85-51.87z"/></g><path d="M203.54 321.2h-1.98v-5.06h-5.1v5.07h-1.98v-11.42h1.98v4.75h5.1v-4.75h1.98v11.42zm5.9.17c-1.2 0-2.19-.38-2.94-1.14a4.16 4.16 0 01-1.12-3.04v-.24c0-.84.16-1.6.49-2.26a3.75 3.75 0 011.38-1.56 3.64 3.64 0 011.97-.56c1.16 0 2.05.37 2.68 1.1.63.74.94 1.78.94 3.13v.77h-5.54c.06.7.3 1.26.7 1.66.41.41.93.61 1.55.61.87 0 1.59-.35 2.13-1.05l1.03.98c-.34.5-.8.9-1.36 1.18-.57.28-1.2.42-1.9.42zm-.23-7.27c-.52 0-.94.18-1.27.55-.31.36-.52.87-.6 1.53h3.62v-.15a2.3 2.3 0 00-.5-1.44c-.3-.33-.72-.5-1.25-.5zm10.19 7.1a2.94 2.94 0 01-.22-.78 2.96 2.96 0 01-2.23.95 3 3 0 01-2.08-.73 2.33 2.33 0 01-.8-1.8c0-.91.32-1.6 1-2.08a4.88 4.88 0 012.88-.73h1.17v-.56c0-.44-.13-.79-.37-1.05-.25-.27-.62-.4-1.12-.4-.44 0-.8.11-1.07.33a1 1 0 00-.41.82h-1.9c0-.46.14-.9.45-1.3s.73-.72 1.26-.95a4.45 4.45 0 011.78-.35c1 0 1.78.25 2.37.75.6.5.9 1.2.91 2.1v3.83c0 .76.11 1.37.32 1.83v.13h-1.94zm-2.1-1.36c.38 0 .73-.1 1.06-.28a1.83 1.83 0 00.76-.73v-1.6h-1.03c-.7 0-1.24.12-1.6.36-.35.25-.52.6-.52 1.05 0 .36.12.66.36.88.24.21.57.32.98.32zm7.74 1.37h-1.9v-12.04h1.9v12.04zm4.47-10.55v2.07h1.5v1.4h-1.5v4.74c0 .33.07.56.2.7.12.15.35.22.68.22.22 0 .44-.03.67-.08v1.48a4.7 4.7 0 01-1.26.18c-1.46 0-2.2-.81-2.2-2.43v-4.8h-1.39v-1.41h1.4v-2.07h1.9zm4.84 3a2.98 2.98 0 012.36-1.09c1.8 0 2.73 1.03 2.75 3.1v5.54h-1.9v-5.47c0-.59-.13-1-.39-1.24-.25-.25-.62-.37-1.11-.37-.76 0-1.33.34-1.7 1.02v6.06h-1.92v-12.04h1.91v4.48zm13.32 7.55h-1.98v-11.42h1.98v11.42zm4.02-8.48l.06.98a3.05 3.05 0 012.47-1.14c1.76 0 2.66 1.01 2.7 3.03v5.6H255v-5.49c0-.53-.12-.93-.35-1.19-.23-.26-.61-.39-1.14-.39-.77 0-1.34.35-1.72 1.04v6.04h-1.9v-8.48h1.8zm11.93 6.17a.86.86 0 00-.43-.77 4.4 4.4 0 00-1.38-.47 7.15 7.15 0 01-1.63-.52c-.95-.46-1.42-1.13-1.42-2 0-.73.3-1.34.92-1.83.62-.5 1.4-.74 2.35-.74 1.02 0 1.84.25 2.46.75.62.5.94 1.15.94 1.95h-1.9c0-.36-.14-.67-.41-.9a1.55 1.55 0 00-1.09-.37c-.41 0-.76.1-1.02.29a.92.92 0 00-.4.77c0 .3.13.52.37.68.25.17.75.33 1.5.5.74.16 1.33.36 1.75.59.43.22.74.5.95.81.2.32.31.7.31 1.16 0 .77-.32 1.39-.95 1.86-.63.47-1.46.7-2.48.7-.7 0-1.32-.12-1.86-.37s-.97-.6-1.27-1.03a2.45 2.45 0 01-.46-1.42h1.85c.03.44.2.8.51 1.04a2 2 0 001.25.36c.5 0 .88-.1 1.15-.28a.9.9 0 00.39-.76zm8.68 1.48c-.56.66-1.36.99-2.39.99-.92 0-1.61-.27-2.09-.81-.47-.54-.7-1.32-.7-2.34v-5.5h1.9v5.48c0 1.08.45 1.61 1.34 1.61.92 0 1.55-.33 1.87-1v-6.08h1.9v8.48h-1.79l-.04-.83zm8.22-5.91a4.7 4.7 0 00-.78-.07c-.87 0-1.46.34-1.76 1v5.8h-1.9v-8.47h1.81l.05.94c.46-.73 1.1-1.1 1.91-1.1.28 0 .5.04.68.1v1.8zm6.04 6.74a2.94 2.94 0 01-.22-.8 2.96 2.96 0 01-2.23.96 3 3 0 01-2.08-.73 2.33 2.33 0 01-.81-1.8c0-.91.33-1.6 1-2.08a4.88 4.88 0 012.89-.73h1.16v-.56c0-.44-.12-.79-.36-1.05-.25-.27-.62-.4-1.12-.4-.44 0-.8.11-1.07.33a1 1 0 00-.42.82h-1.9c0-.46.15-.9.46-1.3.31-.4.73-.72 1.26-.95a4.45 4.45 0 011.78-.35c.99 0 1.78.25 2.37.75.6.5.9 1.2.91 2.1v3.83c0 .76.1 1.37.32 1.83v.13h-1.94zm-2.1-1.37c.38 0 .73-.1 1.06-.28a1.83 1.83 0 00.75-.73v-1.6h-1.02c-.7 0-1.24.12-1.6.36-.35.25-.53.6-.53 1.05 0 .36.12.66.36.88.25.21.58.32.98.32zm7.48-7.11l.06.98a3.05 3.05 0 012.47-1.14c1.76 0 2.66 1.01 2.7 3.03v5.6h-1.91v-5.49c0-.53-.12-.93-.35-1.19-.23-.26-.61-.39-1.14-.39-.77 0-1.34.35-1.72 1.04v6.04h-1.9v-8.48h1.8zm10.66 7.11c.47 0 .87-.13 1.18-.41a1.42 1.42 0 00.5-1.03h1.8a2.82 2.82 0 01-.5 1.48 3.25 3.25 0 01-1.25 1.09c-.53.26-1.1.4-1.7.4a3.62 3.62 0 01-2.83-1.16 4.57 4.57 0 01-1.04-3.18v-.2c0-1.29.34-2.32 1.03-3.1a3.58 3.58 0 012.82-1.16c1.01 0 1.83.3 2.47.89.63.58.97 1.35 1 2.3h-1.8a1.73 1.73 0 00-.5-1.2c-.3-.3-.7-.46-1.18-.46-.62 0-1.1.22-1.43.67-.33.45-.5 1.12-.5 2.03v.3c0 .93.16 1.62.49 2.07.33.45.81.67 1.44.67zm8.65 1.53c-1.2 0-2.18-.38-2.94-1.14a4.16 4.16 0 01-1.12-3.04v-.24c0-.84.16-1.6.49-2.26a3.75 3.75 0 011.38-1.56 3.63 3.63 0 011.97-.56c1.16 0 2.05.37 2.68 1.1.63.74.95 1.79.95 3.13v.77h-5.55c.06.7.3 1.26.7 1.66.41.41.93.62 1.55.62.88 0 1.59-.36 2.14-1.06l1.02.98a3.45 3.45 0 01-1.36 1.18c-.57.28-1.2.42-1.9.42zm-.22-7.27c-.53 0-.95.18-1.27.55-.32.36-.53.87-.62 1.53h3.63v-.14a2.3 2.3 0 00-.5-1.45c-.3-.33-.72-.5-1.24-.5zm11.28 2.87v4.24h-1.99v-11.42h4.37a4.4 4.4 0 013.04 1 3.34 3.34 0 011.12 2.63c0 1.12-.36 2-1.1 2.62-.73.62-1.76.93-3.08.93h-2.36zm0-1.6h2.38c.7 0 1.25-.16 1.62-.49.37-.33.55-.81.55-1.44 0-.62-.19-1.1-.56-1.47-.38-.37-.9-.57-1.55-.58h-2.44v3.99zm7.63 1.52c0-.83.17-1.58.5-2.24.33-.67.79-1.18 1.39-1.54.6-.36 1.28-.54 2.05-.54a3.7 3.7 0 012.78 1.1c.72.74 1.1 1.72 1.16 2.94l.01.44c0 .84-.16 1.59-.48 2.25a3.53 3.53 0 01-1.38 1.53c-.6.36-1.29.54-2.07.54a3.7 3.7 0 01-2.88-1.2 4.6 4.6 0 01-1.08-3.19v-.1zm1.91.16c0 .88.18 1.56.54 2.06.36.49.86.74 1.5.74.65 0 1.15-.26 1.5-.76.36-.5.54-1.23.54-2.2 0-.86-.18-1.54-.55-2.04-.37-.5-.87-.75-1.5-.75-.62 0-1.12.25-1.48.74-.37.5-.55 1.23-.55 2.21zm12.03-2.58a4.69 4.69 0 00-.77-.07c-.88 0-1.46.34-1.77 1v5.8h-1.9v-8.47h1.82l.04.95c.46-.74 1.1-1.11 1.92-1.11.27 0 .5.04.67.1v1.8zm3.99-3.8v2.06h1.5v1.4h-1.5v4.74c0 .33.06.56.18.7.14.15.37.22.7.22.21 0 .44-.03.66-.08v1.48a4.7 4.7 0 01-1.25.18c-1.47 0-2.2-.81-2.2-2.43v-4.8h-1.4v-1.41h1.4v-2.07h1.9zm8.02 10.54a2.98 2.98 0 01-.21-.8 2.97 2.97 0 01-2.23.96 3 3 0 01-2.09-.73 2.33 2.33 0 01-.8-1.8c0-.91.33-1.6 1-2.08a4.88 4.88 0 012.88-.73h1.17v-.56c0-.44-.12-.79-.37-1.05-.24-.27-.62-.4-1.12-.4-.43 0-.79.11-1.06.33a1 1 0 00-.42.82h-1.9c0-.46.15-.9.46-1.3.3-.4.73-.72 1.25-.95a4.45 4.45 0 011.78-.35c1 0 1.79.25 2.38.75.59.5.9 1.2.9 2.1v3.83c0 .76.11 1.37.33 1.83v.13h-1.95zm-2.09-1.37c.38 0 .73-.1 1.06-.28.33-.18.59-.43.75-.73v-1.6h-1.02c-.71 0-1.24.12-1.6.37-.35.24-.53.59-.53 1.04 0 .36.12.66.36.88.25.21.57.32.98.32zm13.16-2.79c0 1.32-.3 2.37-.89 3.15a2.86 2.86 0 01-2.42 1.17c-1 0-1.77-.36-2.32-1.08l-.1.92h-1.72v-12.04h1.9v4.37a2.76 2.76 0 012.22-.97 2.9 2.9 0 012.44 1.15c.6.77.89 1.84.89 3.22v.11zm-1.9-.16c0-.92-.17-1.61-.5-2.07-.32-.46-.79-.69-1.4-.69-.83 0-1.41.36-1.75 1.08v3.5c.34.74.93 1.1 1.76 1.1.6 0 1.06-.22 1.38-.66.32-.45.5-1.12.5-2.02v-.24zm5.53 4.32h-1.9v-8.48h1.9v8.48zm-2.03-10.69c0-.29.1-.53.28-.73.19-.19.45-.29.8-.29.34 0 .61.1.8.3a1 1 0 01.28.72 1 1 0 01-.28.73c-.19.18-.46.28-.8.28-.35 0-.61-.1-.8-.28a1.01 1.01 0 01-.28-.73zm6.14 10.69h-1.9v-12.04h1.9v12.04zm4.1 0h-1.9v-8.48h1.9v8.48zm-2.02-10.69c0-.29.1-.53.28-.73.18-.19.45-.29.8-.29.34 0 .6.1.8.3a1 1 0 01.28.72 1 1 0 01-.29.73c-.18.18-.45.28-.8.28-.34 0-.6-.1-.8-.28a1.01 1.01 0 01-.27-.73zm6.5.14v2.07h1.49v1.4h-1.5v4.74c0 .33.07.56.2.7.12.15.35.22.68.22.22 0 .44-.03.67-.08v1.48a4.7 4.7 0 01-1.26.18c-1.46 0-2.2-.81-2.2-2.43v-4.8h-1.39v-1.41h1.4v-2.07h1.9zm5.92 7.82l1.72-5.75h2.03l-3.37 9.77c-.51 1.42-1.4 2.14-2.63 2.14a3.41 3.41 0 01-.92-.15v-1.47l.36.02c.48 0 .84-.08 1.08-.26.25-.17.44-.47.58-.88l.28-.73-2.98-8.44h2.05l1.8 5.75zm-195.21 19.65c0-.53.14-1.01.43-1.45.29-.45.86-.97 1.7-1.58a7.3 7.3 0 01-.93-1.42 2.82 2.82 0 01-.26-1.14c0-.9.27-1.6.82-2.12a3.04 3.04 0 012.2-.78c.82 0 1.5.24 2.03.73a2.53 2.53 0 01.44 3.13c-.24.4-.64.8-1.19 1.2l-.77.56 2.2 2.6c.32-.63.48-1.32.48-2.1h1.65a5.7 5.7 0 01-.98 3.47l1.67 1.98h-2.2l-.65-.76c-.82.61-1.79.92-2.92.92s-2.03-.3-2.7-.9a3 3 0 01-1.02-2.34zm3.78 1.72a2.9 2.9 0 001.8-.65l-2.5-2.94-.23.18c-.63.47-.95 1.01-.95 1.63 0 .52.17.95.51 1.28.34.33.8.5 1.37.5zm-1.05-7.36c0 .44.27 1 .8 1.66l.88-.6.24-.2c.32-.28.48-.65.48-1.1a1 1 0 00-.33-.76 1.19 1.19 0 00-.86-.32c-.37 0-.66.12-.88.37-.22.25-.33.57-.33.95zm18.41 6.06h-4.42l-.92 2.66h-2.06l4.3-11.42h1.79l4.32 11.42h-2.07l-.94-2.66zm-3.86-1.6h3.3l-1.65-4.73-1.65 4.73zm11.47 2.9c.47 0 .87-.14 1.18-.42a1.42 1.42 0 00.5-1.03h1.8a2.81 2.81 0 01-.5 1.48 3.25 3.25 0 01-1.25 1.09c-.53.26-1.1.4-1.7.4a3.62 3.62 0 01-2.83-1.16 4.57 4.57 0 01-1.04-3.18v-.2c0-1.29.34-2.32 1.03-3.1a3.58 3.58 0 012.82-1.16c1.01 0 1.83.3 2.47.89.63.58.97 1.35 1 2.3h-1.8a1.73 1.73 0 00-.5-1.2c-.3-.3-.7-.46-1.18-.46-.62 0-1.1.22-1.43.67-.33.45-.5 1.12-.5 2.03v.3c0 .93.16 1.62.49 2.07.33.45.81.67 1.44.67zm8.4 0c.48 0 .87-.14 1.19-.42a1.42 1.42 0 00.5-1.03h1.8a2.82 2.82 0 01-.5 1.48 3.24 3.24 0 01-1.25 1.09c-.53.26-1.1.4-1.71.4a3.62 3.62 0 01-2.83-1.16 4.57 4.57 0 01-1.04-3.18v-.2c0-1.29.35-2.32 1.04-3.1a3.58 3.58 0 012.82-1.16c1 0 1.83.3 2.46.89.64.58.97 1.35 1 2.3h-1.79a1.73 1.73 0 00-.5-1.2c-.31-.3-.7-.46-1.19-.46-.61 0-1.09.22-1.42.67-.34.45-.5 1.12-.51 2.03v.3c0 .93.16 1.62.5 2.07.33.45.8.67 1.43.67zm4.57-2.96c0-.83.16-1.58.5-2.24.32-.67.78-1.18 1.38-1.54.6-.36 1.28-.54 2.05-.54a3.7 3.7 0 012.79 1.1c.71.74 1.1 1.72 1.16 2.94v.44c0 .84-.16 1.59-.48 2.25a3.53 3.53 0 01-1.38 1.53c-.6.36-1.29.54-2.07.54a3.7 3.7 0 01-2.88-1.2 4.6 4.6 0 01-1.07-3.19v-.1zm1.9.16c0 .88.18 1.56.54 2.06.36.49.86.73 1.5.73.65 0 1.15-.25 1.5-.75.37-.5.55-1.23.55-2.2 0-.86-.19-1.54-.56-2.04-.37-.5-.87-.75-1.5-.75-.62 0-1.11.25-1.48.74-.37.5-.55 1.23-.55 2.21zm12.73 3.33c-.56.66-1.35.99-2.38.99-.92 0-1.62-.27-2.1-.81-.46-.54-.7-1.32-.7-2.34v-5.5h1.9v5.48c0 1.08.45 1.61 1.35 1.61.92 0 1.55-.33 1.87-1v-6.08h1.9v8.48h-1.79l-.05-.83zm5.55-7.65l.06.98a3.05 3.05 0 012.47-1.14c1.77 0 2.66 1.01 2.7 3.03v5.6h-1.9v-5.49c0-.53-.13-.93-.36-1.19-.23-.26-.61-.39-1.14-.39-.77 0-1.34.35-1.72 1.04v6.04h-1.9v-8.48h1.8zm9.56-2.07v2.07h1.5v1.4h-1.5v4.74c0 .33.06.56.19.7.13.15.36.22.69.22.22 0 .44-.03.67-.08v1.48a4.7 4.7 0 01-1.26.18c-1.46 0-2.2-.81-2.2-2.43v-4.8h-1.39v-1.41h1.4v-2.07h1.9zm8.03 10.55a2.98 2.98 0 01-.22-.8 2.97 2.97 0 01-2.23.96c-.85 0-1.54-.25-2.08-.73s-.8-1.09-.8-1.8c0-.91.33-1.6 1-2.08a4.88 4.88 0 012.88-.73h1.17v-.56c0-.44-.13-.79-.37-1.05-.25-.27-.62-.4-1.12-.4-.43 0-.8.11-1.07.33a1 1 0 00-.41.82h-1.9c0-.46.15-.9.45-1.3.31-.4.73-.72 1.26-.95a4.45 4.45 0 011.78-.35c1 0 1.78.25 2.37.75.6.5.9 1.2.91 2.1v3.83c0 .76.11 1.37.32 1.83v.13h-1.94zm-2.1-1.37a2.15 2.15 0 001.07-.28 1.83 1.83 0 00.75-.73v-1.6h-1.03c-.7 0-1.24.12-1.59.37-.36.24-.53.59-.53 1.04 0 .36.12.66.36.88.24.21.57.32.98.32zm13.16-2.79c0 1.32-.3 2.37-.88 3.15a2.86 2.86 0 01-2.43 1.17c-.99 0-1.76-.36-2.32-1.08l-.09.92h-1.73v-12.04H279v4.37a2.76 2.76 0 012.22-.97 2.9 2.9 0 012.44 1.15c.59.77.88 1.84.88 3.22v.11zm-1.9-.16c0-.92-.16-1.61-.49-2.07-.32-.46-.8-.69-1.41-.69-.83 0-1.4.36-1.74 1.08v3.5c.34.73.92 1.1 1.76 1.1.6 0 1.05-.22 1.38-.66.32-.45.49-1.12.5-2.02v-.24zm5.53 4.32h-1.9v-8.48h1.9v8.48zm-2.02-10.69c0-.29.1-.53.27-.73.2-.19.46-.29.8-.29.35 0 .62.1.8.3a1 1 0 01.29.72 1 1 0 01-.29.73c-.18.18-.45.28-.8.28-.34 0-.6-.1-.8-.28a1.01 1.01 0 01-.27-.73zm6.13 10.69h-1.9v-12.04h1.9v12.04zm4.1 0h-1.9v-8.48h1.9v8.48zm-2.01-10.69c0-.29.09-.53.27-.73.19-.19.46-.29.8-.29s.61.1.8.3a1 1 0 01.28.72 1 1 0 01-.28.73c-.19.18-.46.28-.8.28s-.61-.1-.8-.28a1.01 1.01 0 01-.27-.73zm6.49.14v2.07h1.5v1.4h-1.5v4.74c0 .33.06.56.19.7.13.15.36.22.69.22.22 0 .44-.03.66-.08v1.48a4.7 4.7 0 01-1.25.18c-1.47 0-2.2-.81-2.2-2.43v-4.8h-1.4v-1.41h1.4v-2.07h1.9zm5.92 7.82l1.73-5.75h2.03l-3.37 9.77c-.52 1.42-1.4 2.14-2.64 2.14a3.41 3.41 0 01-.91-.15v-1.47l.36.02c.48 0 .84-.08 1.08-.26.25-.17.44-.47.58-.88l.28-.73-2.98-8.44h2.05l1.8 5.75zm15.43.07h-4.42l-.92 2.66h-2.06l4.3-11.42h1.79l4.32 11.42h-2.07l-.94-2.66zm-3.86-1.6h3.3l-1.65-4.73-1.65 4.73zm11.47 2.9c.47 0 .87-.14 1.18-.42a1.42 1.42 0 00.5-1.03h1.8a2.81 2.81 0 01-.5 1.48 3.24 3.24 0 01-1.25 1.09c-.53.26-1.1.4-1.7.4a3.62 3.62 0 01-2.83-1.16 4.57 4.57 0 01-1.04-3.18v-.2c0-1.29.34-2.32 1.03-3.1a3.57 3.57 0 012.83-1.16c1 0 1.82.3 2.46.89.63.58.97 1.35 1 2.3h-1.8a1.73 1.73 0 00-.5-1.2c-.3-.3-.7-.46-1.18-.46-.62 0-1.1.22-1.43.67-.33.45-.5 1.12-.5 2.03v.3c0 .93.16 1.62.49 2.07.33.45.81.67 1.44.67zm7.3-9.19v2.07h1.5v1.4h-1.5v4.74c0 .33.07.56.2.7.12.15.35.22.68.22.22 0 .45-.03.67-.08v1.48a4.7 4.7 0 01-1.25.18c-1.47 0-2.2-.81-2.2-2.43v-4.8h-1.4v-1.41h1.4v-2.07h1.9z" fill="#30529F"/><mask id="a" maskUnits="userSpaceOnUse" x="151" y="173" width="87" height="179"><path fill="#C4C4C4" d="M151.1 173h86.82v179h-86.83z"/></mask><g mask="url(#a)" fill="#30529F"><path d="M176.54 252.56c-4.72-4.19-10.86-4.45-13.1-.76-2.06 3.4-.05 8.8 4.5 12.1a12.84 12.84 0 004.87 2.21c-.56 1.8-2.26 3.65-4.84 5.2-2.44 1.45-3.66 1.88-14.05 5.28a2474.4 2474.4 0 00-14.18 4.67c-8.42 2.87-13.43 8.56-13.43 15.23 0 4.75 2.43 8.42 5.8 11.1a28.2 28.2 0 017.85-5.6c-3.56-1.8-4.66-3.16-4.66-5.5 0-1.71 2.44-4.27 7.1-5.86l4.16-1.38h4.49c1.2 0 7.19.9 8.65 1.38 4.65 1.59 7.1 4.15 7.1 5.86 0 4.15-3.5 5.04-15.75 10.51-7.06 3.16-8.22 3.58-10.37 5.06-3.77 2.63-5.81 5.96-5.81 9.89 0 2.25.26 5.04 4.2 7.82h.01a1.3 1.3 0 001.94-1.67h.01c-2.6-5.23.16-7.85 5.54-10.1 1.15-.5 2.44-.5 4.52-.5 6.84.5 12.89 5.74 10 10.6a1.3 1.3 0 001.13 1.96c.3 0 .59-.11.81-.3v.01c3.83-2.9 4.12-5.4 4.12-7.76 0-3.66-2-7.2-5.78-9.92 7.66-2.77 14.43-7.43 14.43-15.6 0-5.63-3.58-10.56-9.76-13.69a31.37 31.37 0 006.27-2.9c8.45-5.05 9.71-11.61 9.71-15.07-.01-4.3-.97-8.37-5.48-12.27zm-5.25 5.42a2.27 2.27 0 01-2.25-2.29c0-1.27 1.01-2.29 2.25-2.29a2.27 2.27 0 012.25 2.3c0 1.26-1 2.28-2.25 2.28z"/><path fill-rule="evenodd" clip-rule="evenodd" d="M188.22 208.43h37.2c0 3.78-1.82 7.2-4.77 9.65h-24.67c-5.48 0-9.53 1.31-12.22 2.65a19.02 19.02 0 00-3.01 1.85 12.64 12.64 0 00-.97.8l-.05.06-.02.02h-.01c-.4.41-.32.98.15 1.3.46.33 1.14.27 1.53-.12l.03-.03a5.57 5.57 0 01.15-.14c.13-.12.35-.3.64-.52a16.78 16.78 0 012.66-1.63c2.4-1.2 6.07-2.4 11.12-2.4l24.8 1.61c-.8 3.99-3.66 7.38-7.62 9.36h-15.39c-3.57 0-6.05.38-7.66.78-.8.2-1.4.4-1.8.56a6.88 6.88 0 00-.58.27l-.04.02-.02.01.6.74-.6-.73c-.49.28-.6.83-.28 1.24.33.4.98.5 1.46.23a5.61 5.61 0 01.37-.17c.3-.11.78-.28 1.48-.46 1.4-.34 3.68-.7 7.07-.7l10.1.62c-3.19 6.55-10.79 11.17-19.65 11.17-7.18 0-13.52-3.03-17.36-7.65a4.74 4.74 0 00-6.52-.47l-13.25 8.12v-14.08l21.27-15.93c3.89-3.7 9.55-6.03 15.86-6.03z"/><path d="M151.1 194.4l3.06 9.46h9.94l-8.04 5.84 3.07 9.45-8.04-5.84-8.04 5.84 3.07-9.45-8.03-5.84h9.93l3.07-9.45z"/></g><path fill-rule="evenodd" clip-rule="evenodd" d="M92.65 208.68a79.48 79.48 0 0158.44-26.16v11.89l-3.07 9.45h-9.94l8.04 5.84-3.07 9.45 8.04-5.84v64.2a2638.64 2638.64 0 00-11.35 3.75c-8.42 2.87-13.43 8.56-13.43 15.23 0 4.75 2.43 8.42 5.8 11.1a28.2 28.2 0 017.85-5.6c-3.56-1.8-4.66-3.16-4.66-5.5 0-1.71 2.44-4.27 7.1-5.86a26.44 26.44 0 018.7-1.44v17.8l-.05.01c-1.09.5-2.03.91-2.87 1.28-4.57 2.03-5.68 2.53-7.5 3.78-3.77 2.63-5.81 5.96-5.81 9.89 0 2.25.26 5.04 4.2 7.82h.01a1.3 1.3 0 001.94-1.67h.01c-2.6-5.23.16-7.85 5.54-10.1a16.8 16.8 0 014.52-.52v24.4a79.69 79.69 0 01-69.16-118.23 14.23 14.23 0 007.09 7.5h15.37c3.57 0 6.04.38 7.65.77.8.2 1.4.4 1.8.56a6.66 6.66 0 01.58.27l.04.02.02.01-.59.74.6-.73c.48.28.6.83.27 1.24-.33.4-.98.5-1.46.23l-.06-.03a4.37 4.37 0 00-.3-.13 11.22 11.22 0 00-1.48-.46c-1.4-.35-3.68-.71-7.07-.71l-10.08.62c3.18 6.56 10.77 11.17 19.62 11.17 7.18 0 13.51-3.02 17.35-7.65a4.74 4.74 0 016.5-.46l13.24 8.1v-14.07l-21.24-15.93v.01c-3.89-3.7-9.54-6.04-15.85-6.04H92.65zm-7.5 9.65a79.72 79.72 0 00-2.09 3.34l23.12-1.5c5.04 0 8.71 1.21 11.1 2.4a16.8 16.8 0 012.67 1.63 10.53 10.53 0 01.78.66l.04.03c.38.4 1.07.45 1.53.13.46-.33.54-.9.14-1.3v-.01l-.02-.02-.06-.05a8.26 8.26 0 00-.2-.19 12.64 12.64 0 00-.76-.62 19 19 0 00-3.01-1.85 27.22 27.22 0 00-12.21-2.65H85.15zm51.7 54.4l.05-.01a19.83 19.83 0 01-2.76-1.41c-2.59-1.55-4.28-3.4-4.84-5.2 1.6-.33 3.28-1.06 4.86-2.2 4.55-3.3 6.57-8.72 4.5-12.1-2.23-3.69-8.37-3.44-13.1.75-4.5 3.9-5.46 7.98-5.46 12.26 0 3.03.96 8.44 6.87 13.13a34 34 0 019.88-5.22zm-6.03-19.32a2.27 2.27 0 012.25 2.29c0 1.26-1.01 2.28-2.25 2.28s-2.25-1.02-2.25-2.29c0-1.26 1-2.28 2.25-2.28z" fill="#30529F"/><path d="M195.42 261.86v-3.76h15.49v3.76l-4.83.83v14.9H227v-14.9l-4.83-.83v-3.76h15.5v3.76l-4.83.83v33.97l4.82.83v3.74h-15.49v-3.74l4.83-.83v-14.48h-20.9v14.48l4.82.83v3.74h-15.5v-3.74l4.84-.83V262.7l-4.83-.83zm46.9 0v-3.76h15.48v3.76l-4.83.83v33.97l4.83.83v3.74h-15.49v-3.74l4.83-.83V262.7l-4.83-.83zm39.75-3.76c4.6 0 8.17 1.19 10.72 3.56 2.56 2.37 3.85 5.48 3.85 9.35 0 3.91-1.29 7.04-3.85 9.4-2.55 2.34-6.12 3.52-10.72 3.52h-9.16v12.73l4.83.83v3.74h-15.49v-3.74l4.83-.83V262.7l-4.83-.83v-3.76h19.82zm-9.16 21.27h9.16c2.92 0 5.1-.78 6.54-2.34a8.43 8.43 0 002.2-5.95c0-2.4-.74-4.39-2.2-5.99-1.44-1.6-3.62-2.4-6.54-2.4h-9.16v16.68zm15.6 18.12l3.2-.44 15.08-38.95h5l14.81 38.95 3.17.44v3.74h-12.38v-3.74l3.26-.56-2.85-7.94h-17.26l-2.94 7.94 3.26.56v3.74h-12.35v-3.74zm13.83-13.38h13.69l-6.7-18.52h-.17l-6.82 18.52zm21.2 13.38l3.2-.44 15.07-38.95h5l14.82 38.95 3.17.44v3.74H352.4v-3.74l3.26-.56-2.84-7.94h-17.27l-2.93 7.94 3.26.56v3.74h-12.35v-3.74zm13.83-13.38h13.68l-6.7-18.52h-.17l-6.81 18.52z" fill="#30529F"/><path d="M318 214a75 75 0 100-150 75 75 0 000 150z" fill="#039"/><path d="M317.54 76.04l-2.8 8.6 4.05 1.32-1.25-9.92z" fill="#FC0"/><path d="M317.37 76.04l2.8 8.6-4.05 1.32 1.25-9.92z" fill="#FC0"/><path d="M325.82 82.33h-9.05v4.26l9.05-4.26z" fill="#FC0"/><path d="M325.77 82.18l-7.32 5.31-2.5-3.44 9.82-1.87z" fill="#FC0"/><path d="M322.54 92.38l-2.8-8.6-4.04 1.3 6.84 7.3z" fill="#FC0"/><path d="M322.67 92.28l-7.32-5.32 2.5-3.44 4.82 8.76z" fill="#FC0"/><path d="M309.09 82.33h9.05v4.26l-9.05-4.26z" fill="#FC0"/><path d="M309.14 82.18l7.32 5.31 2.5-3.44-9.82-1.87z" fill="#FC0"/><path d="M312.37 92.38l2.8-8.6 4.04 1.3-6.84 7.3z" fill="#FC0"/><path d="M312.23 92.28l7.32-5.32-2.5-3.44-4.82 8.76zm5.3 87.76l-2.79 8.6 4.05 1.32-1.25-9.92z" fill="#FC0"/><path d="M317.37 180.04l2.8 8.6-4.05 1.32 1.25-9.92z" fill="#FC0"/><path d="M325.82 186.33h-9.05v4.26l9.05-4.26z" fill="#FC0"/><path d="M325.77 186.18l-7.32 5.31-2.5-3.44 9.82-1.87z" fill="#FC0"/><path d="M322.54 196.38l-2.8-8.6-4.04 1.3 6.84 7.3z" fill="#FC0"/><path d="M322.67 196.28l-7.32-5.32 2.5-3.44 4.82 8.76z" fill="#FC0"/><path d="M309.09 186.33h9.05v4.26l-9.05-4.26z" fill="#FC0"/><path d="M309.14 186.18l7.32 5.31 2.5-3.44-9.82-1.87z" fill="#FC0"/><path d="M312.37 196.38l2.8-8.6 4.04 1.3-6.84 7.3z" fill="#FC0"/><path d="M312.23 196.28l7.32-5.32-2.5-3.44-4.82 8.76zm-46.96-67.33l-2.7 8.33 4.2 1.36-1.5-9.7z" fill="#FC0"/><path d="M265.3 128.95l2.7 8.33-4.2 1.36 1.5-9.7z" fill="#FC0"/><path d="M273.65 135h-8.75v4.43l8.75-4.43z" fill="#FC0"/><path d="M273.66 135.03l-7.08 5.14-2.6-3.57 9.68-1.57z" fill="#FC0"/><path d="M270.47 144.8l-2.7-8.33-4.21 1.37 6.91 6.96z" fill="#FC0"/><path d="M270.45 144.81l-7.08-5.14 2.6-3.58 4.48 8.73z" fill="#FC0"/><path d="M256.92 135h8.76v4.43l-8.76-4.43z" fill="#FC0"/><path d="M256.91 135.03l7.09 5.14 2.6-3.57-9.69-1.57z" fill="#FC0"/><path d="M260.1 144.8l2.71-8.33 4.2 1.37-6.9 6.96z" fill="#FC0"/><path d="M260.13 144.81l7.08-5.14-2.6-3.58-4.48 8.73zm26.56-45.5l7.08-5.14-2.6-3.58-4.48 8.72z" fill="#FC0"/><path d="M286.67 99.3l2.7-8.33 4.2 1.37-6.9 6.96z" fill="#FC0"/><path d="M283.47 89.49l7.08 5.15 2.6-3.58-9.68-1.57z" fill="#FC0"/><path d="M283.48 89.46h8.75v4.43l-8.76-4.43z" fill="#FC0"/><path d="M291.8 83.44l-2.7 8.32 4.2 1.37-1.5-9.7z" fill="#FC0"/><path d="M291.83 83.44l2.7 8.32-4.2 1.37 1.5-9.7z" fill="#FC0"/><path d="M297 99.32l-7.08-5.14 2.6-3.58 4.48 8.72z" fill="#FC0"/><path d="M297.02 99.3l-2.7-8.32-4.2 1.37 6.9 6.96z" fill="#FC0"/><path d="M300.19 89.53l-7.09 5.14-2.6-3.57 9.69-1.57z" fill="#FC0"/><path d="M300.18 89.5h-8.76v4.42l8.76-4.42zm-22.62 29.02l-2.71-8.32-4.2 1.36 6.9 6.96z" fill="#FC0"/><path d="M277.53 118.54l-7.08-5.15 2.6-3.57 4.48 8.72z" fill="#FC0"/><path d="M267.22 118.55l7.08-5.14-2.6-3.58-4.48 8.72z" fill="#FC0"/><path d="M267.2 118.53l2.7-8.32 4.2 1.37-6.9 6.96z" fill="#FC0"/><path d="M264.03 108.75l7.09 5.15 2.6-3.58-9.69-1.56z" fill="#FC0"/><path d="M264.04 108.73h8.76v4.42l-8.76-4.42z" fill="#FC0"/><path d="M280.75 108.72l-7.08 5.14-2.6-3.57 9.68-1.57z" fill="#FC0"/><path d="M280.75 108.7h-8.76v4.41l8.76-4.42z" fill="#FC0"/><path d="M272.42 102.66l2.7 8.33-4.2 1.37 1.5-9.7z" fill="#FC0"/><path d="M272.4 102.66l-2.71 8.33 4.2 1.37-1.5-9.7zm8.32 58.6h-8.76v4.42l8.76-4.43z" fill="#FC0"/><path d="M280.73 161.28l-7.08 5.15-2.6-3.58 9.68-1.57z" fill="#FC0"/><path d="M277.55 171.1l-2.7-8.33-4.2 1.36 6.9 6.96z" fill="#FC0"/><path d="M277.53 171.11l-7.08-5.15 2.6-3.57 4.48 8.72z" fill="#FC0"/><path d="M267.25 171.1l7.09-5.15-2.6-3.58-4.49 8.73z" fill="#FC0"/><path d="M267.23 171.08l2.7-8.33 4.21 1.37-6.91 6.96z" fill="#FC0"/><path d="M272.38 155.18l2.7 8.33-4.2 1.37 1.5-9.7z" fill="#FC0"/><path d="M272.36 155.18l-2.71 8.33 4.2 1.37-1.5-9.7z" fill="#FC0"/><path d="M264.05 161.24h8.75v4.42l-8.75-4.42z" fill="#FC0"/><path d="M264.04 161.26l7.08 5.15 2.6-3.58-9.68-1.57zm36.1 19.22h-8.75v4.43l8.76-4.43z" fill="#FC0"/><path d="M300.15 180.51l-7.08 5.15-2.6-3.58 9.68-1.57z" fill="#FC0"/><path d="M296.98 190.32l-2.7-8.32-4.22 1.36 6.92 6.96z" fill="#FC0"/><path d="M296.95 190.34l-7.08-5.15 2.6-3.57 4.48 8.72z" fill="#FC0"/><path d="M286.68 190.32l7.08-5.14-2.6-3.58-4.48 8.72z" fill="#FC0"/><path d="M286.65 190.3l2.71-8.32 4.2 1.37-6.9 6.96z" fill="#FC0"/><path d="M291.8 174.41l2.71 8.33-4.2 1.36 1.5-9.69z" fill="#FC0"/><path d="M291.78 174.41l-2.7 8.33 4.2 1.36-1.5-9.69z" fill="#FC0"/><path d="M283.47 180.46h8.76v4.43l-8.76-4.43z" fill="#FC0"/><path d="M283.46 180.49l7.09 5.15 2.6-3.58-9.69-1.57zm86.27-51.54l2.7 8.33-4.2 1.36 1.5-9.7z" fill="#FC0"/><path d="M369.7 128.95l-2.7 8.33 4.2 1.36-1.5-9.7z" fill="#FC0"/><path d="M361.35 135h8.75v4.43l-8.75-4.43z" fill="#FC0"/><path d="M361.34 135.03l7.08 5.14 2.6-3.57-9.68-1.57z" fill="#FC0"/><path d="M364.53 144.8l2.7-8.33 4.21 1.37-6.91 6.96z" fill="#FC0"/><path d="M364.55 144.81l7.08-5.14-2.6-3.58-4.48 8.73z" fill="#FC0"/><path d="M378.08 135h-8.76v4.43l8.76-4.43z" fill="#FC0"/><path d="M378.09 135.03l-7.09 5.14-2.6-3.57 9.69-1.57z" fill="#FC0"/><path d="M374.9 144.8l-2.71-8.33-4.2 1.37 6.9 6.96z" fill="#FC0"/><path d="M374.87 144.81l-7.08-5.14 2.6-3.58 4.48 8.73zm-26.56-45.5l-7.08-5.14 2.6-3.58 4.48 8.72z" fill="#FC0"/><path d="M348.33 99.3l-2.7-8.33-4.2 1.37 6.9 6.96z" fill="#FC0"/><path d="M351.53 89.49l-7.08 5.15-2.6-3.58 9.68-1.57z" fill="#FC0"/><path d="M351.52 89.46h-8.75v4.43l8.76-4.43z" fill="#FC0"/><path d="M343.2 83.44l2.7 8.32-4.2 1.37 1.5-9.7z" fill="#FC0"/><path d="M343.17 83.44l-2.7 8.32 4.2 1.37-1.5-9.7z" fill="#FC0"/><path d="M338 99.32l7.08-5.14-2.6-3.58-4.48 8.72z" fill="#FC0"/><path d="M337.98 99.3l2.7-8.32 4.2 1.37-6.9 6.96z" fill="#FC0"/><path d="M334.81 89.53l7.09 5.14 2.6-3.57-9.69-1.57z" fill="#FC0"/><path d="M334.82 89.5h8.76v4.42l-8.76-4.42zm22.62 29.02l2.71-8.32 4.2 1.36-6.9 6.96z" fill="#FC0"/><path d="M357.47 118.54l7.08-5.15-2.6-3.57-4.48 8.72z" fill="#FC0"/><path d="M367.78 118.55l-7.08-5.14 2.6-3.58 4.48 8.72z" fill="#FC0"/><path d="M367.8 118.53l-2.7-8.32-4.2 1.37 6.9 6.96z" fill="#FC0"/><path d="M370.97 108.75l-7.09 5.15-2.6-3.58 9.69-1.56z" fill="#FC0"/><path d="M370.96 108.73h-8.76v4.42l8.76-4.42z" fill="#FC0"/><path d="M354.25 108.72l7.08 5.14 2.6-3.57-9.68-1.57z" fill="#FC0"/><path d="M354.25 108.7h8.76v4.41l-8.76-4.42z" fill="#FC0"/><path d="M362.58 102.66l-2.7 8.33 4.2 1.37-1.5-9.7z" fill="#FC0"/><path d="M362.6 102.66l2.71 8.33-4.2 1.37 1.5-9.7zm-8.32 58.6h8.76v4.42l-8.76-4.43z" fill="#FC0"/><path d="M354.27 161.28l7.08 5.15 2.6-3.58-9.68-1.57z" fill="#FC0"/><path d="M357.45 171.1l2.7-8.33 4.2 1.36-6.9 6.96z" fill="#FC0"/><path d="M357.47 171.11l7.08-5.15-2.6-3.57-4.48 8.72z" fill="#FC0"/><path d="M367.75 171.1l-7.09-5.15 2.6-3.58 4.49 8.73z" fill="#FC0"/><path d="M367.77 171.08l-2.7-8.33-4.21 1.37 6.91 6.96z" fill="#FC0"/><path d="M362.62 155.18l-2.7 8.33 4.2 1.37-1.5-9.7z" fill="#FC0"/><path d="M362.64 155.18l2.71 8.33-4.2 1.37 1.5-9.7z" fill="#FC0"/><path d="M370.95 161.24h-8.75v4.42l8.75-4.42z" fill="#FC0"/><path d="M370.96 161.26l-7.08 5.15-2.6-3.58 9.68-1.57zm-36.1 19.22h8.75v4.43l-8.76-4.43z" fill="#FC0"/><path d="M334.85 180.51l7.08 5.15 2.6-3.58-9.68-1.57z" fill="#FC0"/><path d="M338.02 190.32l2.7-8.32 4.22 1.36-6.92 6.96z" fill="#FC0"/><path d="M338.05 190.34l7.08-5.15-2.6-3.57-4.48 8.72z" fill="#FC0"/><path d="M348.32 190.32l-7.08-5.14 2.6-3.58 4.48 8.72z" fill="#FC0"/><path d="M348.35 190.3l-2.71-8.32-4.2 1.37 6.9 6.96z" fill="#FC0"/><path d="M343.2 174.41l-2.71 8.33 4.2 1.36-1.5-9.69z" fill="#FC0"/><path d="M343.22 174.41l2.7 8.33-4.2 1.36 1.5-9.69z" fill="#FC0"/><path d="M351.53 180.46h-8.76v4.43l8.76-4.43z" fill="#FC0"/><path d="M351.54 180.49l-7.09 5.15-2.6-3.58 9.69-1.57z" fill="#FC0"/><path fill-rule="evenodd" clip-rule="evenodd" d="M298.78 143.45a7.99 7.99 0 01-3.35 2.05c-1.48.52-3.1.78-4.85.78-2.7 0-4.85-.82-6.47-2.48-1.61-1.65-2.48-3.95-2.59-6.9l-.01-1.78c0-2.03.35-3.8 1.07-5.31a8 8 0 013.08-3.5 8.71 8.71 0 014.64-1.23c2.57 0 4.56.6 5.98 1.77 1.42 1.17 2.25 2.93 2.49 5.26h-4.79c-.17-1.15-.54-1.97-1.1-2.47a3.57 3.57 0 00-2.41-.73c-1.25 0-2.2.53-2.89 1.59-.68 1.05-1.02 2.56-1.03 4.53v1.24c0 2.06.35 3.6 1.05 4.64.7 1.03 1.81 1.55 3.32 1.55 1.3 0 2.26-.29 2.9-.86v-3.2h-3.46v-3.42h8.42v8.47zm2.9 2.55v-20.62h6.63c1.82 0 3.46.42 4.91 1.24a8.7 8.7 0 013.41 3.5c.82 1.5 1.23 3.2 1.24 5.06v.95c0 1.89-.4 3.58-1.2 5.08a8.74 8.74 0 01-3.37 3.5 9.56 9.56 0 01-4.85 1.29h-6.78zm4.96-16.78v12.96h1.73c1.42 0 2.52-.51 3.28-1.53.77-1.01 1.15-2.52 1.15-4.52v-.9c0-1.98-.38-3.48-1.15-4.5a3.93 3.93 0 00-3.34-1.51h-1.67zm18.75 9.79V146h-4.97v-20.62h8.23c1.57 0 2.97.3 4.18.87a6.57 6.57 0 013.82 6.13c0 2-.72 3.62-2.16 4.82-1.44 1.2-3.42 1.8-5.93 1.8h-3.17zm0-3.84h3.26c.96 0 1.7-.24 2.2-.72.5-.49.75-1.16.75-2.04 0-.97-.26-1.74-.77-2.31a2.76 2.76 0 00-2.13-.88h-3.31v5.95zm21.57 3.55h-2.7V146h-4.97v-20.62h8.12c2.44 0 4.35.55 5.73 1.63a5.52 5.52 0 012.07 4.6c0 1.44-.29 2.63-.87 3.57a6.2 6.2 0 01-2.73 2.3l4.3 8.3v.22h-5.32l-3.64-7.28zm-2.7-3.84h3.15c.94 0 1.65-.24 2.13-.74s.71-1.19.71-2.07a2.9 2.9 0 00-.72-2.1c-.48-.5-1.19-.75-2.12-.75h-3.15v5.66zm-45.1 26.36h-1.38V165h-2.57v-10.66h4.2c1.26 0 2.25.28 2.96.84a2.86 2.86 0 011.07 2.38c0 .74-.15 1.36-.45 1.84-.3.5-.77.89-1.41 1.2l2.22 4.3v.1h-2.75l-1.88-3.77zm-1.38-1.99h1.62c.5 0 .86-.13 1.1-.38.25-.26.37-.62.37-1.08 0-.46-.12-.82-.37-1.08-.25-.26-.61-.39-1.1-.39h-1.62v2.93zm14.03 1.23h-4.05v2.54h4.78V165h-7.35v-10.66h7.36v1.98h-4.79v2.25h4.04v1.91zm8.03 2.53h-3.52l-.61 1.99h-2.75l3.9-10.66h2.43l3.94 10.66h-2.76l-.63-2zm-2.9-1.99h2.29l-1.15-3.7-1.15 3.7zm7.26 3.98v-10.66h3.44c.94 0 1.79.21 2.54.64a4.5 4.5 0 011.76 1.8c.42.78.64 1.66.64 2.62v.5c0 .97-.2 1.85-.62 2.62a4.53 4.53 0 01-1.74 1.82c-.75.43-1.59.65-2.5.66h-3.52zm2.57-8.68v6.7h.9a2 2 0 001.7-.79c.4-.52.59-1.3.59-2.34v-.46c0-1.03-.2-1.8-.6-2.33-.39-.52-.97-.78-1.72-.78h-.87zm10.92 2.64l1.96-4.63h2.78l-3.44 6.84V165h-2.6v-3.83l-3.43-6.83h2.76l1.97 4.62z" fill="#fff"/><mask id="b" maskUnits="userSpaceOnUse" x="455" y="195" width="152" height="168"><path d="M548.94 254.68a11.22 11.22 0 01-3.3.5 11.32 11.32 0 01-11.29-11.36c0-6.27 5.06-11.35 11.3-11.35 6.22 0 11.28 5.08 11.28 11.35a11.35 11.35 0 01-2.62 7.27l6.6 9.86a30.35 30.35 0 0115.36-4.15 30.73 30.73 0 0130.64 30.81 30.72 30.72 0 01-31.92 30.8l-3.48 14.87a15.41 15.41 0 017.99 13.54c0 8.5-6.86 15.4-15.32 15.4s-15.31-6.9-15.31-15.4a15.36 15.36 0 0116.44-15.37l3.28-14a30.78 30.78 0 01-21.97-22.07l-17.12 3.64.02.76c0 12.1-9.75 21.9-21.77 21.9a21.83 21.83 0 01-21.76-21.9 21.9 21.9 0 0113.62-20.31l-4.88-18.42a33.05 33.05 0 01-6.33.61c-18.25 0-33.05-14.89-33.05-33.25a33.15 33.15 0 0133.05-33.25c18.26 0 33.06 14.89 33.06 33.25a33.26 33.26 0 01-20.55 30.79l4.97 18.76a21.79 21.79 0 0122.45 14.68l17.34-3.68-.03-1.35a30.82 30.82 0 0110.06-22.83l-6.76-10.1z" fill="#fff"/></mask><g mask="url(#b)"><path d="M548.94 254.68a11.22 11.22 0 01-3.3.5 11.32 11.32 0 01-11.29-11.36c0-6.27 5.06-11.35 11.3-11.35 6.22 0 11.28 5.08 11.28 11.35a11.35 11.35 0 01-2.62 7.27l6.6 9.86a30.35 30.35 0 0115.36-4.15 30.73 30.73 0 0130.64 30.81 30.72 30.72 0 01-31.92 30.8l-3.48 14.87a15.41 15.41 0 017.99 13.54c0 8.5-6.86 15.4-15.32 15.4s-15.31-6.9-15.31-15.4a15.36 15.36 0 0116.44-15.37l3.28-14a30.78 30.78 0 01-21.97-22.07l-17.12 3.64.02.76c0 12.1-9.75 21.9-21.77 21.9a21.83 21.83 0 01-21.76-21.9 21.9 21.9 0 0113.62-20.31l-4.88-18.42a33.05 33.05 0 01-6.33.61c-18.25 0-33.05-14.89-33.05-33.25a33.15 33.15 0 0133.05-33.25c18.26 0 33.06 14.89 33.06 33.25a33.26 33.26 0 01-20.55 30.79l4.97 18.76a21.79 21.79 0 0122.45 14.68l17.34-3.68-.03-1.35a30.82 30.82 0 0110.06-22.83l-6.76-10.1z" fill="#000"/><path fill-rule="evenodd" clip-rule="evenodd" d="M445.8 188H628.4v180.2H445.8V188z" fill="url(#d)"/><path fill-rule="evenodd" clip-rule="evenodd" d="M505.6 297.94l-6.8-9.7h5.5l3.1 4.9c.6.98.96 1.66 1.1 2.06h.03c.17-.48.51-1.16 1.05-2.05l2.98-4.91h5.4l-6.69 9.78 7.29 10.34h-5.52l-3.58-5.43a7.06 7.06 0 01-1.09-2.1h-.08a8.22 8.22 0 01-1.12 2.1l-3.59 5.43h-5.27l7.29-10.42zm80.5-26.32c1.8.86 3.2 2.07 4.18 3.64.98 1.58 1.47 3.4 1.47 5.49 0 3.3-1.08 5.9-3.25 7.82-2.16 1.91-5.1 2.87-8.84 2.87h-6.63v12.04h-7.89v-33.14h14.7c2.37 0 4.45.43 6.26 1.28zm-4.08 13a4.61 4.61 0 001.47-3.64c0-1.55-.49-2.77-1.45-3.64-.97-.87-2.34-1.3-4.1-1.3h-4.91v9.9h4.9c1.74 0 3.1-.44 4.09-1.32zm-103.1-42.53a13.67 13.67 0 01-5.09-6.05 22.03 22.03 0 01-1.77-9.15c0-3.45.66-6.5 1.98-9.13a14.39 14.39 0 015.72-6.11 17.06 17.06 0 018.73-2.17c2.77 0 5.18.45 7.24 1.35 2.05.9 3.68 2.13 4.88 3.67a11.66 11.66 0 012.3 5.16l-7.79 1.44A7.37 7.37 0 00493 217c-1.1-1.06-2.63-1.6-4.56-1.6a7.1 7.1 0 00-6.11 3.07c-1.46 2.03-2.2 4.81-2.2 8.33 0 3.55.72 6.32 2.15 8.33 1.43 2 3.52 3.01 6.26 3.01a7.4 7.4 0 004.04-1.05 6.8 6.8 0 002.47-2.64 6.8 6.8 0 00.82-3.12v-.7h-8.17v-5.65h15.36v18.44h-5.6l-.33-4.86a9.16 9.16 0 01-3.95 4.16c-1.79 1-3.93 1.5-6.42 1.5-3.02 0-5.63-.72-7.84-2.13z" fill="#fff"/></g><defs><linearGradient id="d" x1="485.93" y1="194.19" x2="608.28" y2="345.22" gradientUnits="userSpaceOnUse"><stop stop-color="#3023AE"/><stop offset=".47" stop-color="#53A0FD"/><stop offset="1" stop-color="#B4EC51"/></linearGradient><clipPath id="a"><path fill="#fff" d="M0 0h774v366.93H0z"/></clipPath></defs></svg>