<svg xmlns="http://www.w3.org/2000/svg" fill="none" viewBox="0 0 239 118"><g id="featured partners"><g id="aws logo 2017"><g id="Amazon Web Services Logo"><path id="Shape" fill="#000" d="M38.71 83.63c0 .77.09 1.4.23 1.85.17.46.38.96.67 1.5.1.17.15.34.15.49 0 .2-.13.41-.4.62l-1.32.88a1 1 0 0 1-.54.19c-.21 0-.42-.1-.63-.3-.3-.3-.55-.64-.76-.98-.2-.35-.42-.75-.65-1.23a7.76 7.76 0 0 1-6.16 2.88c-1.77 0-3.17-.5-4.2-1.5a5.35 5.35 0 0 1-1.55-4c0-1.78.63-3.22 1.9-4.3 1.29-1.1 2.99-1.63 5.15-1.63.7 0 1.44.06 2.22.16.77.1 1.57.27 2.41.46V77.2c0-1.59-.33-2.7-.99-3.34-.67-.65-1.8-.96-3.41-.96-.74 0-1.5.08-2.27.27s-1.53.42-2.26.71c-.34.15-.59.23-.74.27a1.3 1.3 0 0 1-.33.07c-.3 0-.44-.21-.44-.65v-1.02c0-.34.04-.59.14-.73.1-.15.3-.3.6-.44a12.1 12.1 0 0 1 2.63-.94c1.03-.27 2.12-.4 3.27-.4 2.5 0 4.32.57 5.5 1.7 1.15 1.12 1.74 2.83 1.74 5.13v6.76h.04zM30.2 86.8c.69 0 1.4-.13 2.16-.38a4.67 4.67 0 0 0 1.99-1.33c.34-.4.59-.84.71-1.34.13-.5.21-1.1.21-1.81v-.88a17.6 17.6 0 0 0-3.9-.48c-1.4 0-2.43.27-3.12.83-.7.57-1.03 1.36-1.03 2.4 0 .99.25 1.72.78 2.22.5.52 1.23.77 2.2.77zm16.84 2.25c-.38 0-.63-.06-.8-.2-.17-.13-.31-.42-.44-.82L40.87 71.9a3.64 3.64 0 0 1-.19-.84c0-.33.17-.52.5-.52h2.06c.4 0 .67.07.82.21.17.13.3.42.42.82L48 85.37l3.27-13.8c.1-.42.23-.7.4-.82s.46-.2.84-.2h1.68c.4 0 .67.06.84.2.16.13.31.42.4.82l3.3 13.98 3.64-13.98c.12-.42.27-.7.42-.82.16-.12.44-.2.81-.2h1.95c.34 0 .53.16.53.51 0 .1-.02.21-.04.34-.03.12-.07.29-.15.52l-5.05 16.13c-.13.42-.28.69-.45.81-.16.13-.44.21-.8.21h-1.8c-.4 0-.67-.06-.83-.2-.17-.15-.32-.42-.4-.84L53.3 74.57l-3.23 13.44c-.1.42-.23.69-.4.83-.17.15-.46.21-.84.21h-1.8zm26.94.57a13.94 13.94 0 0 1-5.64-1.21c-.33-.2-.56-.4-.65-.59-.08-.19-.12-.4-.12-.58v-1.07c0-.44.16-.64.48-.64.12 0 .25.02.38.06l.52.2a11.45 11.45 0 0 0 4.8.99c1.32 0 2.35-.23 3.06-.7a2.24 2.24 0 0 0 1.1-1.97c0-.59-.2-1.07-.57-1.46-.38-.4-1.1-.76-2.12-1.09l-3.04-.94a6.4 6.4 0 0 1-3.36-2.13 4.96 4.96 0 0 1-.48-5.34c.38-.67.88-1.25 1.51-1.71a6.67 6.67 0 0 1 2.18-1.09 10.58 10.58 0 0 1 4.05-.27c.48.07.92.15 1.36.23.42.1.82.21 1.2.34.38.12.67.25.88.37.3.17.5.34.63.52.12.17.19.4.19.7v.97c0 .44-.17.67-.48.67-.17 0-.45-.08-.8-.25a9.63 9.63 0 0 0-4.03-.81c-1.2 0-2.14.18-2.79.58-.65.4-.98 1-.98 1.86 0 .58.2 1.08.63 1.48.42.4 1.2.8 2.3 1.15l2.98.94a6.38 6.38 0 0 1 3.25 2c.65.86.97 1.84.97 2.92 0 .9-.2 1.71-.55 2.42a5.62 5.62 0 0 1-1.53 1.84c-.65.52-1.43.9-2.33 1.17-.94.29-1.93.44-3 .44z"/><g id="Group" fill="#F90" fill-rule="evenodd" clip-rule="evenodd"><path id="Shape_2" d="M77.9 99.75c-6.89 5.01-16.9 7.68-25.5 7.68a46.48 46.48 0 0 1-31.12-11.71c-.65-.58-.06-1.37.71-.91a63.43 63.43 0 0 0 31.15 8.16c7.64 0 16.03-1.57 23.76-4.8 1.15-.51 2.13.75 1 1.58z"/><path id="Shape_3" d="M80.77 96.52c-.88-1.11-5.82-.53-8.06-.27-.67.09-.77-.5-.17-.92 3.94-2.73 10.4-1.95 11.16-1.04.75.93-.21 7.31-3.9 10.37-.56.48-1.1.23-.85-.4.83-2.04 2.7-6.64 1.82-7.74z"/></g></g></g><path id="Featured key healthcare partner with" fill="url(#paint0_linear)" d="M63.2 16.36v3.28h5.99v2.52H63.2V28h-3.38V13.8h9.72v2.56H63.2zm16.69 7.36h-6.94c.01.68.23 1.22.64 1.62.43.4.98.6 1.66.6.99 0 1.71-.47 2.18-1.4l2.36 1.08c-.4.83-1 1.47-1.82 1.94a5.5 5.5 0 0 1-2.76.68 5.4 5.4 0 0 1-3.9-1.36 5.03 5.03 0 0 1-1.4-3.78c0-1.08.2-2.02.62-2.82.41-.81 1-1.43 1.76-1.86a5.37 5.37 0 0 1 2.7-.66c1.57 0 2.78.44 3.62 1.32.85.87 1.28 2.1 1.28 3.68v.96zm-3.1-1.88c0-.7-.16-1.25-.48-1.62-.32-.37-.78-.56-1.38-.56-.61 0-1.1.2-1.44.6-.33.39-.51.94-.54 1.66h3.84v-.08zm7.15 6.4a3.78 3.78 0 0 1-2.5-.8 2.73 2.73 0 0 1-.94-2.16c0-.96.34-1.68 1.02-2.16.67-.47 1.71-.8 3.14-.98l2.42-.34v-.34c0-.56-.12-.97-.36-1.24s-.61-.4-1.12-.4c-.5 0-.88.13-1.16.38-.27.25-.41.62-.44 1.1h-3.18c.08-1.1.54-1.97 1.38-2.6.85-.63 2-.94 3.42-.94 1.61 0 2.8.33 3.54 1 .75.65 1.12 1.7 1.12 3.14v3.32c0 1.21.1 2.14.28 2.78h-3.12c-.08-.4-.13-.93-.16-1.58-.25.56-.68 1-1.28 1.34-.6.32-1.29.48-2.06.48zm1.2-2.04a2 2 0 0 0 1.48-.56c.37-.37.56-.86.56-1.46v-.8l-1.72.28a2.9 2.9 0 0 0-1.3.5c-.28.21-.42.5-.42.88 0 .35.13.63.38.84.25.21.6.32 1.02.32zm5.47-8.2h1.74v-2.4l3.2-1.24V18h2.38v2.14h-2.38v3.9c0 1.01.49 1.52 1.46 1.52.28 0 .59-.03.92-.1V28c-.7.13-1.31.2-1.82.2-1.3 0-2.24-.29-2.86-.86-.6-.57-.9-1.42-.9-2.54v-4.66h-1.74V18zm11.77 10.24c-2.24 0-3.36-1.25-3.36-3.76V18h3.2v5.92c0 .61.12 1.08.36 1.4.26.32.62.48 1.08.48.52 0 .93-.19 1.22-.56.3-.39.46-.9.46-1.52V18h3.22v10h-3.06v-1.82a3.08 3.08 0 0 1-1.2 1.52c-.56.36-1.2.54-1.92.54zm11.27-7.66c.27-.92.68-1.62 1.22-2.1a3.14 3.14 0 0 1 2.12-.72h.2v3.06a6.58 6.58 0 0 0-.6-.02c-.82 0-1.47.2-1.94.6-.29.28-.5.63-.62 1.06-.12.41-.18.9-.18 1.46V28h-3.22V18h3.02v2.58zm13.69 3.14h-6.94c.01.68.23 1.22.64 1.62.43.4.98.6 1.66.6.99 0 1.71-.47 2.18-1.4l2.36 1.08c-.4.83-1 1.47-1.82 1.94a5.5 5.5 0 0 1-2.76.68 5.4 5.4 0 0 1-3.9-1.36 5.03 5.03 0 0 1-1.4-3.78c0-1.08.2-2.02.62-2.82.41-.81 1-1.43 1.76-1.86a5.36 5.36 0 0 1 2.7-.66c1.57 0 2.78.44 3.62 1.32.85.87 1.28 2.1 1.28 3.68v.96zm-3.1-1.88c0-.7-.16-1.25-.48-1.62-.32-.37-.78-.56-1.38-.56-.61 0-1.1.2-1.44.6-.33.39-.51.94-.54 1.66h3.84v-.08zm7.93 6.4c-.79 0-1.49-.21-2.1-.64a4.3 4.3 0 0 1-1.4-1.84c-.34-.79-.5-1.7-.5-2.72 0-1.05.17-1.97.52-2.76.34-.8.83-1.42 1.46-1.86a3.79 3.79 0 0 1 2.2-.66c.66 0 1.24.13 1.72.4s.84.66 1.1 1.18V13.5h3.2V28h-3.04v-1.72c-.26.6-.66 1.08-1.22 1.44-.56.35-1.21.52-1.94.52zm1.26-2.22c.54 0 .98-.23 1.3-.68.32-.45.48-1.07.48-1.86v-.86c0-.84-.16-1.49-.48-1.94-.32-.47-.77-.7-1.34-.7a1.6 1.6 0 0 0-1.42.78c-.34.52-.5 1.26-.5 2.22 0 .95.17 1.7.52 2.24.34.53.82.8 1.44.8zm15.9-2.06l-1.1 1.18V28h-3.22V13.5h3.22v8.42l3.24-3.92h3.72l-3.64 3.98L155.3 28h-3.58l-2.38-4.04zm15.4-.24h-6.95c.02.68.23 1.22.64 1.62.43.4.98.6 1.66.6 1 0 1.72-.47 2.18-1.4l2.36 1.08c-.4.83-1 1.47-1.82 1.94a5.5 5.5 0 0 1-2.76.68 5.4 5.4 0 0 1-3.9-1.36 5.03 5.03 0 0 1-1.4-3.78c0-1.08.21-2.02.62-2.82.42-.81 1-1.43 1.76-1.86a5.37 5.37 0 0 1 2.7-.66c1.58 0 2.78.44 3.62 1.32.86.87 1.28 2.1 1.28 3.68v.96zm-3.1-1.88c0-.7-.17-1.25-.49-1.62-.32-.37-.78-.56-1.38-.56-.6 0-1.09.2-1.44.6-.33.39-.5.94-.54 1.66h3.84v-.08zm4.85 10.2c-.18 0-.62-.04-1.32-.12v-2.36c.5.07.87.1 1.12.1.54 0 .96-.1 1.26-.32.31-.2.53-.53.66-.98l.14-.42-3.82-9.94H168l1.76 6.08c.11.39.18.77.22 1.16h.06c.02-.25.1-.64.24-1.16L171.9 18h3.22l-3.58 10.44a5.36 5.36 0 0 1-1.86 2.76c-.78.56-1.85.84-3.2.84zM11.6 37.5h3.22v6.28A3.23 3.23 0 0 1 18 41.72c1.08 0 1.9.34 2.44 1.02.55.68.82 1.7.82 3.04V52h-3.2v-5.9c0-1.28-.49-1.92-1.48-1.92-.57 0-1.01.21-1.32.64a3.1 3.1 0 0 0-.44 1.8V52H11.6V37.5zm20.8 10.22h-6.93c.01.68.23 1.22.64 1.62.43.4.98.6 1.66.6.99 0 1.71-.47 2.18-1.4l2.36 1.08c-.4.83-1 1.47-1.82 1.94a5.5 5.5 0 0 1-2.76.68 5.4 5.4 0 0 1-3.9-1.36 5.03 5.03 0 0 1-1.4-3.78c0-1.08.2-2.02.62-2.82.41-.81 1-1.43 1.76-1.86a5.37 5.37 0 0 1 2.7-.66c1.57 0 2.78.44 3.62 1.32.85.87 1.28 2.1 1.28 3.68v.96zm-3.1-1.88c0-.7-.15-1.25-.47-1.62-.32-.37-.78-.56-1.38-.56-.61 0-1.1.2-1.44.6-.33.39-.51.94-.54 1.66h3.84v-.08zm7.16 6.4a3.78 3.78 0 0 1-2.5-.8 2.73 2.73 0 0 1-.94-2.16c0-.96.34-1.68 1.02-2.16.67-.47 1.71-.8 3.14-.98l2.42-.34v-.34c0-.56-.12-.97-.36-1.24s-.61-.4-1.12-.4c-.5 0-.88.13-1.16.38-.27.25-.41.62-.44 1.1h-3.18c.08-1.1.54-1.97 1.38-2.6.85-.63 2-.94 3.42-.94 1.61 0 2.8.33 3.54 1 .75.65 1.12 1.7 1.12 3.14v3.32c0 1.21.1 2.14.28 2.78h-3.12c-.08-.4-.13-.93-.16-1.58-.25.56-.68 1-1.28 1.34-.6.32-1.29.48-2.06.48zm1.2-2.04a2 2 0 0 0 1.48-.56c.37-.37.56-.86.56-1.46v-.8l-1.72.28a2.9 2.9 0 0 0-1.3.5c-.28.21-.42.5-.42.88 0 .35.13.63.38.84.25.21.6.32 1.02.32zM48.02 52H44.8V37.5h3.22V52zm.94-10h1.74v-2.4l3.2-1.24V42h2.38v2.14H53.9v3.9c0 1.01.48 1.52 1.46 1.52.28 0 .58-.03.92-.1V52c-.7.13-1.32.2-1.82.2-1.3 0-2.25-.29-2.86-.86-.6-.57-.9-1.42-.9-2.54v-4.66h-1.74V42zm8.67-4.5h3.22v6.28a3.23 3.23 0 0 1 3.18-2.06c1.08 0 1.89.34 2.44 1.02.54.68.82 1.7.82 3.04V52h-3.2v-5.9c0-1.28-.5-1.92-1.48-1.92-.58 0-1.02.21-1.32.64a3.1 3.1 0 0 0-.44 1.8V52h-3.22V37.5zM73.7 52.24a5.78 5.78 0 0 1-2.76-.64 4.66 4.66 0 0 1-1.86-1.84 5.7 5.7 0 0 1-.64-2.76c0-1.63.48-2.9 1.42-3.84a5.29 5.29 0 0 1 3.88-1.4c1.3 0 2.38.3 3.2.92a3.88 3.88 0 0 1 1.54 2.62l-3.02.62c-.1-.59-.3-1.03-.6-1.34-.3-.3-.7-.46-1.2-.46-.61 0-1.1.25-1.44.74a3.5 3.5 0 0 0-.52 2.04c0 .95.18 1.68.52 2.2.35.5.84.76 1.46.76.5 0 .9-.16 1.2-.48.3-.32.5-.78.6-1.38l3 .66a3.93 3.93 0 0 1-1.56 2.62c-.86.64-1.94.96-3.22.96zm8.67 0a3.78 3.78 0 0 1-2.5-.8 2.73 2.73 0 0 1-.94-2.16c0-.96.34-1.68 1.02-2.16.67-.47 1.72-.8 3.14-.98l2.42-.34v-.34c0-.56-.12-.97-.36-1.24s-.6-.4-1.12-.4c-.49 0-.88.13-1.16.38-.26.25-.4.62-.44 1.1h-3.18c.08-1.1.54-1.97 1.38-2.6.86-.63 2-.94 3.42-.94 1.62 0 2.8.33 3.54 1 .75.65 1.12 1.7 1.12 3.14v3.32c0 1.21.1 2.14.28 2.78h-3.12c-.08-.4-.13-.93-.16-1.58-.25.56-.68 1-1.28 1.34-.6.32-1.28.48-2.06.48zm1.2-2.04a2 2 0 0 0 1.48-.56c.38-.37.56-.86.56-1.46v-.8l-1.72.28a2.9 2.9 0 0 0-1.3.5c-.28.21-.42.5-.42.88 0 .35.13.63.38.84.26.21.6.32 1.02.32zm10.07-5.62c.27-.92.67-1.62 1.22-2.1a3.14 3.14 0 0 1 2.12-.72h.2v3.06a6.59 6.59 0 0 0-.6-.02c-.83 0-1.47.2-1.94.6-.3.28-.5.63-.62 1.06-.12.41-.18.9-.18 1.46V52h-3.22V42h3.02v2.58zm13.68 3.14h-6.94c.02.68.23 1.22.64 1.62.43.4.98.6 1.66.6 1 0 1.72-.47 2.19-1.4l2.36 1.08c-.4.83-1.01 1.47-1.82 1.94a5.5 5.5 0 0 1-2.77.68 5.4 5.4 0 0 1-3.9-1.36 5.03 5.03 0 0 1-1.4-3.78c0-1.08.21-2.02.63-2.82.4-.81 1-1.43 1.76-1.86a5.36 5.36 0 0 1 2.7-.66c1.57 0 2.78.44 3.62 1.32.85.87 1.27 2.1 1.27 3.68v.96zm-3.1-1.88c0-.7-.16-1.25-.48-1.62-.31-.37-.78-.56-1.38-.56-.6 0-1.09.2-1.44.6-.33.39-.5.94-.54 1.66h3.84v-.08zM113.1 42h3.08v1.6c.3-.6.72-1.05 1.26-1.36a3.61 3.61 0 0 1 1.86-.48c.8 0 1.5.21 2.1.64a3.97 3.97 0 0 1 1.4 1.82c.33.79.5 1.7.5 2.76 0 1.05-.18 1.98-.52 2.78-.34.79-.82 1.4-1.44 1.84-.62.43-1.34.64-2.16.64-1.2 0-2.16-.5-2.86-1.5v5.16h-3.22V42zm5.02 8.02c.58 0 1.04-.27 1.38-.82.33-.55.5-1.29.5-2.22 0-.96-.17-1.7-.5-2.22a1.55 1.55 0 0 0-1.4-.78c-.59 0-1.05.24-1.38.72a3.7 3.7 0 0 0-.48 2.06v.56c0 .83.16 1.49.5 1.98.34.48.8.72 1.38.72zm9.22 2.22a3.77 3.77 0 0 1-2.5-.8 2.73 2.73 0 0 1-.94-2.16c0-.96.34-1.68 1.02-2.16.67-.47 1.72-.8 3.14-.98l2.42-.34v-.34c0-.56-.12-.97-.36-1.24s-.61-.4-1.12-.4c-.49 0-.88.13-1.16.38-.26.25-.41.62-.44 1.1h-3.18c.08-1.1.54-1.97 1.38-2.6.86-.63 2-.94 3.42-.94 1.62 0 2.8.33 3.54 1 .75.65 1.12 1.7 1.12 3.14v3.32c0 1.21.1 2.14.28 2.78h-3.12c-.08-.4-.13-.93-.16-1.58-.25.56-.68 1-1.28 1.34-.6.32-1.28.48-2.06.48zm1.2-2.04a2 2 0 0 0 1.48-.56c.38-.37.56-.86.56-1.46v-.8l-1.72.28a2.9 2.9 0 0 0-1.3.5c-.28.21-.42.5-.42.88 0 .35.13.63.38.84.26.21.6.32 1.02.32zm10.07-5.62c.27-.92.67-1.62 1.22-2.1a3.14 3.14 0 0 1 2.12-.72h.2v3.06a6.58 6.58 0 0 0-.6-.02c-.83 0-1.47.2-1.94.6-.3.28-.5.63-.62 1.06-.12.41-.18.9-.18 1.46V52h-3.22V42h3.02v2.58zm4-2.58h1.75v-2.4l3.2-1.24V42h2.38v2.14h-2.38v3.9c0 1.01.48 1.52 1.46 1.52.28 0 .58-.03.92-.1V52c-.71.13-1.32.2-1.82.2-1.3 0-2.25-.29-2.86-.86-.6-.57-.9-1.42-.9-2.54v-4.66h-1.74V42zm8.58 0h3.07v1.92c.7-1.45 1.8-2.18 3.32-2.18 1.09 0 1.9.34 2.44 1.02.55.68.83 1.7.83 3.04V52h-3.2v-5.76c0-.7-.13-1.2-.38-1.54-.25-.33-.62-.5-1.13-.5-.56 0-.99.2-1.3.62-.29.41-.44 1-.44 1.78V52h-3.21V42zm20.8 5.72h-6.94c.02.68.23 1.22.64 1.62.43.4.98.6 1.66.6.99 0 1.72-.47 2.18-1.4l2.36 1.08c-.4.83-1 1.47-1.82 1.94a5.5 5.5 0 0 1-2.76.68 5.4 5.4 0 0 1-3.9-1.36 5.02 5.02 0 0 1-1.4-3.78c0-1.08.2-2.02.62-2.82.42-.81 1-1.43 1.76-1.86a5.36 5.36 0 0 1 2.7-.66c1.58 0 2.78.44 3.62 1.32.86.87 1.28 2.1 1.28 3.68v.96zm-3.1-1.88c0-.7-.16-1.25-.48-1.62-.32-.37-.78-.56-1.38-.56-.61 0-1.1.2-1.44.6-.33.39-.51.94-.54 1.66h3.84v-.08zm7.53-1.26c.27-.92.68-1.62 1.22-2.1a3.14 3.14 0 0 1 2.12-.72h.2v3.06a6.58 6.58 0 0 0-.6-.02c-.82 0-1.47.2-1.94.6-.29.28-.5.63-.62 1.06-.12.41-.18.9-.18 1.46V52h-3.22V42h3.02v2.58zm6.7-2.58h3.06l1.26 6.12.14.96h.04c.05-.45.1-.77.16-.96l1.46-6.12h2.72l1.46 6.12c.06.32.12.64.16.96h.04c.05-.45.1-.77.14-.96l1.24-6.12h3.06l-2.66 10h-3.12l-1.52-5.9c-.07-.21-.12-.5-.14-.84h-.04l-.14.84-1.52 5.9h-3.12l-2.68-10zm16 0h3.22v10h-3.22V42zm-.04-4.36h3.34v2.92h-3.34v-2.92zm4.1 4.36h1.74v-2.4l3.2-1.24V42h2.38v2.14h-2.38v3.9c0 1.01.49 1.52 1.46 1.52.28 0 .59-.03.92-.1V52c-.7.13-1.31.2-1.82.2-1.3 0-2.24-.29-2.86-.86-.6-.57-.9-1.42-.9-2.54v-4.66h-1.74V42zm8.67-4.5h3.22v6.28a3.23 3.23 0 0 1 3.18-2.06c1.08 0 1.9.34 2.44 1.02.55.68.82 1.7.82 3.04V52h-3.2v-5.9c0-1.28-.5-1.92-1.48-1.92-.57 0-1.01.21-1.32.64a3.1 3.1 0 0 0-.44 1.8V52h-3.22V37.5z"/><g id="Group_2"><path id="path5056" fill="#706D6E" d="M229 81.83v-2.16h-2.66v-3.34l-.1.02-2.5.77-.05.02v2.53h-3.95v-1.41c0-.66.15-1.16.44-1.5.29-.33.7-.5 1.22-.5.38 0 .77.1 1.16.27l.1.04V74.3l-.05-.01a4.5 4.5 0 0 0-1.48-.2c-.78 0-1.48.17-2.1.5a3.6 3.6 0 0 0-1.44 1.43 4.27 4.27 0 0 0-.5 2.1v1.55h-1.87v2.16h1.86v9.07h2.66v-9.07h3.95v5.76c0 2.38 1.12 3.58 3.32 3.58a5.41 5.41 0 0 0 1.96-.39l.03-.02V88.6l-.1.07c-.15.1-.33.17-.54.23-.22.06-.4.1-.53.1-.52 0-.9-.15-1.13-.42-.24-.28-.36-.76-.36-1.44v-5.3H229zm-19.72 7.15c-.97 0-1.73-.32-2.27-.95a4.07 4.07 0 0 1-.81-2.7c0-1.2.27-2.12.81-2.77.54-.64 1.3-.97 2.25-.97.92 0 1.66.31 2.18.93.53.62.8 1.54.8 2.74 0 1.22-.25 2.16-.75 2.79-.5.62-1.24.93-2.21.93zm.12-9.58c-1.85 0-3.31.54-4.36 1.61a6.06 6.06 0 0 0-1.57 4.4c0 1.76.52 3.18 1.53 4.2a5.56 5.56 0 0 0 4.13 1.56c1.78 0 3.22-.55 4.26-1.64a6.04 6.04 0 0 0 1.58-4.35c0-1.79-.5-3.21-1.48-4.24a5.42 5.42 0 0 0-4.1-1.54zm-10.22 0a4.8 4.8 0 0 0-3.09.96c-.8.64-1.2 1.48-1.2 2.49 0 .53.09 1 .26 1.4.17.4.44.74.8 1.04.35.29.9.6 1.61.9.6.26 1.06.47 1.35.63.28.17.48.33.6.5.1.15.16.36.16.63 0 .75-.57 1.12-1.72 1.12a5.46 5.46 0 0 1-2.95-1.03l-.11-.08v2.58l.04.02a7.55 7.55 0 0 0 2.92.61 5.1 5.1 0 0 0 3.26-.96c.8-.65 1.2-1.5 1.2-2.55 0-.76-.21-1.4-.64-1.93a5.6 5.6 0 0 0-2.22-1.42 5.71 5.71 0 0 1-1.58-.82c-.21-.2-.32-.5-.32-.87 0-.32.13-.59.4-.8.28-.21.66-.32 1.14-.32a4.63 4.63 0 0 1 2.53.76l.1.07V79.9l-.04-.02a7.28 7.28 0 0 0-2.5-.47zm-11.23 9.58c-.97 0-1.73-.32-2.27-.95a4.06 4.06 0 0 1-.81-2.7c0-1.2.27-2.12.81-2.77.54-.64 1.3-.97 2.24-.97.93 0 1.66.31 2.19.93.53.62.8 1.54.8 2.74 0 1.22-.26 2.16-.75 2.79-.5.62-1.24.93-2.21.93zm.11-9.58c-1.84 0-3.3.54-4.35 1.61a6.06 6.06 0 0 0-1.57 4.4c0 1.76.51 3.18 1.53 4.2a5.56 5.56 0 0 0 4.12 1.56c1.8 0 3.23-.55 4.27-1.64a6.04 6.04 0 0 0 1.57-4.35c0-1.79-.5-3.21-1.47-4.24a5.42 5.42 0 0 0-4.1-1.54zm-9.97 2.22v-1.95h-2.63V90.9h2.63v-5.74c0-.98.22-1.78.66-2.39.43-.6 1-.9 1.7-.9a3.08 3.08 0 0 1 1.4.37l.12.08v-2.67l-.05-.01c-.24-.1-.59-.16-1.03-.16-.66 0-1.25.21-1.75.63-.45.37-.77.88-1.02 1.5h-.03zm-7.34-2.22c-1.2 0-2.28.26-3.2.77a5.2 5.2 0 0 0-2.1 2.18 6.97 6.97 0 0 0-.03 6.12 4.96 4.96 0 0 0 1.97 2c.84.46 1.8.7 2.88.7 1.25 0 2.31-.25 3.17-.75l.04-.02v-2.42l-.11.09a4.93 4.93 0 0 1-2.55.91 3.23 3.23 0 0 1-2.47-.96c-.6-.64-.9-1.54-.9-2.67 0-1.14.31-2.06.94-2.74a3.22 3.22 0 0 1 2.47-1.02c.87 0 1.7.3 2.5.87l.12.08V80l-.04-.02a7.24 7.24 0 0 0-2.69-.57zm-7.84.27h-2.63V90.9h2.63V79.67zm-1.3-4.78c-.43 0-.8.15-1.11.44-.31.3-.47.67-.47 1.1 0 .43.15.8.46 1.08.3.29.69.43 1.13.43.44 0 .82-.14 1.13-.43.31-.28.47-.65.47-1.08a1.57 1.57 0 0 0-1.6-1.54zm-6.56 3.95V90.9h2.69V75.23h-3.72l-4.72 11.64-4.58-11.64h-3.87V90.9h2.52V78.84h.09l4.84 12.06h1.9l4.77-12.06h.08z"/><path id="path5058" fill="#F1511B" d="M119.38 82.42H107V70h12.38v12.42z"/><path id="path5060" fill="#80CC28" d="M133.04 82.42h-12.37V70h12.37v12.42z"/><path id="path5062" fill="#00ADEF" d="M119.38 96.14H107V83.72h12.38v12.42z"/><path id="path5064" fill="#FBBC09" d="M133.04 96.14h-12.37V83.72h12.37v12.42z"/></g></g><defs><linearGradient id="paint0_linear" x1="269.5" x2="-18" y1="12.5" y2="47" gradientUnits="userSpaceOnUse"><stop stop-color="#4CC0F1"/><stop offset="1" stop-color="#6929D1"/></linearGradient></defs></svg>