<svg viewBox="0 0 336 329" fill="none" xmlns="http://www.w3.org/2000/svg"><ellipse cx="168" cy="144" rx="168" ry="144" fill="url(#paint0_radial)"/><path fill-rule="evenodd" clip-rule="evenodd" d="M70.06 26.27h-15.4v36h15.4v-36zM22.23 77.16H328.8v44.72H22.23V77.16zm0 107.94H328.8v44.72H22.23V185.1zm32.43-56.54h15.4v41.75h-15.4v-41.75zm15.4 107.94h-15.4v81.85h15.4V236.5zM277.01 26.27h15.4v36h-15.4v-36zm15.4 102.29h-15.4v41.75h15.4v-41.75zm-15.4 107.94h15.4v81.85h-15.4V236.5z" fill="url(#paint1_linear)"/><path fill-rule="evenodd" clip-rule="evenodd" d="M6 65.4c0-2.47 2-4.46 4.45-4.46h316.12c2.45 0 4.45 2 4.45 4.45V124c0 2.46-2 4.45-4.45 4.45H10.45C8 128.44 6 126.44 6 124v-58.6zm8.9 4.45v49.69h307.21v-49.7H14.91z" fill="#676767"/><path fill-rule="evenodd" clip-rule="evenodd" d="M60.43 62.24a4.45 4.45 0 010 6.3L13.6 115.42a4.45 4.45 0 11-6.3-6.3l46.83-46.87a4.45 4.45 0 016.3 0zM107.26 62.24a4.45 4.45 0 010 6.3l-58.53 58.6a4.45 4.45 0 11-6.3-6.3l58.54-58.6a4.45 4.45 0 016.3 0zM154.1 62.24a4.45 4.45 0 010 6.3l-58.54 58.6a4.45 4.45 0 11-6.3-6.3l58.54-58.6a4.45 4.45 0 016.3 0zM200.93 62.24a4.45 4.45 0 010 6.3l-58.54 58.6a4.45 4.45 0 11-6.3-6.3l58.54-58.6a4.45 4.45 0 016.3 0zM247.76 62.24a4.45 4.45 0 010 6.3l-58.54 58.6a4.45 4.45 0 01-6.3-6.3l58.54-58.6a4.45 4.45 0 016.3 0zM294.59 62.24a4.45 4.45 0 010 6.3l-58.54 58.6a4.45 4.45 0 11-6.3-6.3l58.54-58.6a4.45 4.45 0 016.3 0zM329.71 73.96a4.45 4.45 0 010 6.3l-46.83 46.88a4.45 4.45 0 11-6.3-6.3l46.84-46.87a4.45 4.45 0 016.3 0zM6 173.31c0-2.46 2-4.45 4.45-4.45h316.12c2.45 0 4.45 1.99 4.45 4.45v58.6c0 2.45-2 4.45-4.45 4.45H10.45c-2.46 0-4.45-2-4.45-4.46v-58.59zm8.9 4.45v49.7h307.21v-49.7H14.91z" fill="#676767"/><path fill-rule="evenodd" clip-rule="evenodd" d="M60.43 170.16a4.45 4.45 0 010 6.3L13.6 223.33a4.45 4.45 0 11-6.3-6.3l46.83-46.87a4.45 4.45 0 016.3 0zM107.26 170.16a4.45 4.45 0 010 6.3l-58.53 58.6a4.45 4.45 0 11-6.3-6.3l58.54-58.6a4.45 4.45 0 016.3 0zM154.1 170.16a4.45 4.45 0 010 6.3l-58.54 58.6a4.45 4.45 0 11-6.3-6.3l58.54-58.6a4.45 4.45 0 016.3 0zM200.93 170.16a4.45 4.45 0 010 6.3l-58.54 58.6a4.45 4.45 0 11-6.3-6.3l58.54-58.6a4.45 4.45 0 016.3 0zM247.76 170.16a4.45 4.45 0 010 6.3l-58.54 58.6a4.45 4.45 0 01-6.3-6.3l58.54-58.6a4.45 4.45 0 016.3 0zM294.59 170.16a4.45 4.45 0 010 6.3l-58.54 58.6a4.45 4.45 0 11-6.3-6.3l58.54-58.6a4.45 4.45 0 016.3 0zM329.71 181.88a4.45 4.45 0 010 6.3l-46.83 46.87a4.45 4.45 0 11-6.3-6.3l46.84-46.87a4.45 4.45 0 016.3 0zM268.03 119.53c2.46 0 4.45 2 4.45 4.46v49.32a4.45 4.45 0 01-8.9 0v-49.32c0-2.46 1.99-4.45 4.45-4.45z" fill="#676767"/><path fill-rule="evenodd" clip-rule="evenodd" d="M291.44 119.53c2.46 0 4.45 2 4.45 4.46v49.32a4.45 4.45 0 01-8.9 0v-49.32c0-2.46 2-4.45 4.45-4.45zM268.03 227.45c2.46 0 4.45 2 4.45 4.46v84.4h14.5v-84.4a4.45 4.45 0 018.91 0v88.86c0 2.46-1.99 4.45-4.45 4.45h-23.41c-2.46 0-4.46-2-4.46-4.45V231.9c0-2.46 2-4.46 4.46-4.46zM263.57 16.45c0-2.46 2-4.45 4.46-4.45h23.41c2.46 0 4.45 2 4.45 4.45V65.4a4.45 4.45 0 01-8.9 0V20.91h-14.51v44.48a4.45 4.45 0 01-8.9 0V16.45zM45.58 119.53c2.46 0 4.45 2 4.45 4.46v49.32a4.45 4.45 0 01-8.9 0v-49.32c0-2.46 1.99-4.45 4.45-4.45zM69 119.53c2.45 0 4.45 2 4.45 4.46v49.32a4.45 4.45 0 01-8.91 0v-49.32c0-2.46 2-4.45 4.45-4.45zM45.58 227.45c2.46 0 4.45 2 4.45 4.46v84.4h14.51v-84.4a4.45 4.45 0 018.9 0v88.86c0 2.46-1.99 4.45-4.45 4.45H45.58c-2.46 0-4.46-2-4.46-4.45V231.9c0-2.46 2-4.46 4.46-4.46zM41.12 16.45c0-2.46 2-4.45 4.46-4.45h23.41c2.46 0 4.46 2 4.46 4.45V65.4a4.45 4.45 0 01-8.91 0V20.91H50.03v44.48a4.45 4.45 0 11-8.9 0V16.45z" fill="#676767"/><defs><radialGradient id="paint0_radial" cx="0" cy="0" r="1" gradientUnits="userSpaceOnUse" gradientTransform="matrix(0 144 -168 0 168 144)"><stop offset=".59" stop-color="#fff"/><stop offset="1" stop-color="#fff" stop-opacity="0"/></radialGradient><linearGradient id="paint1_linear" x1="277.5" y1="318" x2="32.36" y2="-34.58" gradientUnits="userSpaceOnUse"><stop stop-color="#FF2FDE"/><stop offset="1" stop-color="#00E7FF"/></linearGradient></defs></svg>