<svg width="336" height="329" viewBox="0 0 336 329" fill="none" xmlns="http://www.w3.org/2000/svg"><ellipse cx="168" cy="144" rx="168" ry="144" fill="url(#a)"/><path fill-rule="evenodd" clip-rule="evenodd" d="M70.063 26.272H54.657V62.27h15.406V26.272zM22.227 77.16H328.8v44.718H22.227V77.16zm0 107.942H328.8v44.718H22.227v-44.718zm32.43-56.542h15.406v41.753H54.657V128.56zm15.406 107.943H54.657v81.846h15.406v-81.846zM277.01 26.273h15.406v35.996h-15.406V26.272zm15.406 102.287h-15.406v41.753h15.406V128.56zm-15.406 107.943h15.406v81.846h-15.406v-81.846z" fill="url(#b)"/><path fill-rule="evenodd" clip-rule="evenodd" d="M6 65.394a4.453 4.453 0 0 1 4.453-4.453h316.113a4.452 4.452 0 0 1 4.452 4.453v58.595a4.453 4.453 0 0 1-4.452 4.453H10.453A4.453 4.453 0 0 1 6 123.989V65.394zm8.906 4.453v49.689h307.207v-49.69H14.906z" fill="#676767"/><path fill-rule="evenodd" clip-rule="evenodd" d="M60.432 62.244a4.453 4.453 0 0 1 .003 6.297l-46.832 46.875a4.453 4.453 0 1 1-6.3-6.294l46.831-46.875a4.453 4.453 0 0 1 6.298-.003zM107.263 62.244a4.453 4.453 0 0 1 .003 6.297l-58.54 58.594a4.453 4.453 0 1 1-6.3-6.294l58.54-58.594a4.453 4.453 0 0 1 6.297-.003zM154.095 62.244a4.453 4.453 0 0 1 .003 6.297l-58.54 58.594a4.453 4.453 0 1 1-6.3-6.294l58.54-58.594a4.453 4.453 0 0 1 6.297-.003zM200.926 62.244a4.454 4.454 0 0 1 .003 6.297l-58.539 58.594a4.452 4.452 0 1 1-6.3-6.294l58.538-58.594a4.454 4.454 0 0 1 6.298-.003zM247.757 62.244a4.453 4.453 0 0 1 .003 6.297l-58.539 58.594a4.454 4.454 0 0 1-6.301-6.294l58.54-58.594a4.453 4.453 0 0 1 6.297-.003zM294.589 62.244a4.453 4.453 0 0 1 .003 6.297l-58.54 58.594a4.452 4.452 0 1 1-6.3-6.294l58.54-58.594a4.453 4.453 0 0 1 6.297-.003zM329.713 73.963a4.453 4.453 0 0 1 .003 6.297l-46.832 46.875a4.452 4.452 0 1 1-6.3-6.294l46.832-46.875a4.453 4.453 0 0 1 6.297-.003zM6 173.31a4.452 4.452 0 0 1 4.453-4.453h316.113a4.452 4.452 0 0 1 4.452 4.453v58.595a4.453 4.453 0 0 1-4.452 4.453H10.453A4.453 4.453 0 0 1 6 231.905V173.31zm8.906 4.452v49.69h307.207v-49.69H14.906z" fill="#676767"/><path fill-rule="evenodd" clip-rule="evenodd" d="M60.432 170.16a4.453 4.453 0 0 1 .003 6.297l-46.832 46.876a4.453 4.453 0 1 1-6.3-6.294l46.831-46.876a4.452 4.452 0 0 1 6.298-.003zM107.263 170.16a4.452 4.452 0 0 1 .003 6.297l-58.54 58.595a4.453 4.453 0 1 1-6.3-6.294l58.54-58.595a4.452 4.452 0 0 1 6.297-.003zM154.095 170.16a4.452 4.452 0 0 1 .003 6.297l-58.54 58.595a4.453 4.453 0 1 1-6.3-6.294l58.54-58.595a4.452 4.452 0 0 1 6.297-.003zM200.926 170.159a4.455 4.455 0 0 1 .003 6.298l-58.539 58.595a4.452 4.452 0 1 1-6.3-6.294l58.538-58.595a4.454 4.454 0 0 1 6.298-.004zM247.757 170.16a4.452 4.452 0 0 1 .003 6.297l-58.539 58.595a4.454 4.454 0 0 1-6.301-6.294l58.54-58.595a4.452 4.452 0 0 1 6.297-.003zM294.589 170.16a4.452 4.452 0 0 1 .003 6.297l-58.54 58.595a4.452 4.452 0 1 1-6.3-6.294l58.54-58.595a4.452 4.452 0 0 1 6.297-.003zM329.713 181.879a4.453 4.453 0 0 1 .003 6.297l-46.832 46.876a4.452 4.452 0 1 1-6.3-6.294l46.832-46.876a4.452 4.452 0 0 1 6.297-.003zM268.026 119.535a4.453 4.453 0 0 1 4.453 4.453v49.322a4.453 4.453 0 0 1-8.906 0v-49.322a4.453 4.453 0 0 1 4.453-4.453z" fill="#676767"/><path fill-rule="evenodd" clip-rule="evenodd" d="M291.442 119.535a4.453 4.453 0 0 1 4.453 4.453v49.322a4.453 4.453 0 0 1-8.906 0v-49.322a4.453 4.453 0 0 1 4.453-4.453zM268.026 227.452a4.453 4.453 0 0 1 4.453 4.453v84.41h14.51v-84.41a4.453 4.453 0 0 1 8.906 0v88.862a4.453 4.453 0 0 1-4.453 4.453h-23.416a4.453 4.453 0 0 1-4.453-4.453v-88.862a4.453 4.453 0 0 1 4.453-4.453zM263.573 16.453A4.453 4.453 0 0 1 268.026 12h23.416a4.453 4.453 0 0 1 4.453 4.453v48.94a4.453 4.453 0 0 1-8.906 0V20.907h-14.51v44.488a4.453 4.453 0 0 1-8.906 0V16.453zM45.576 119.535a4.453 4.453 0 0 1 4.453 4.453v49.322a4.452 4.452 0 0 1-8.905 0v-49.322a4.453 4.453 0 0 1 4.452-4.453zM68.993 119.535a4.453 4.453 0 0 1 4.452 4.453v49.322a4.452 4.452 0 0 1-8.905 0v-49.322a4.453 4.453 0 0 1 4.453-4.453zM45.576 227.452a4.453 4.453 0 0 1 4.453 4.453v84.41h14.51v-84.41a4.453 4.453 0 0 1 8.906 0v88.862a4.452 4.452 0 0 1-4.453 4.453H45.576a4.452 4.452 0 0 1-4.452-4.453v-88.862a4.453 4.453 0 0 1 4.452-4.453zM41.124 16.453A4.453 4.453 0 0 1 45.576 12h23.416a4.453 4.453 0 0 1 4.453 4.453v48.94a4.453 4.453 0 0 1-8.905 0V20.907H50.03v44.488a4.453 4.453 0 1 1-8.906 0V16.453z" fill="#676767"/><defs><radialGradient id="a" cx="0" cy="0" r="1" gradientUnits="userSpaceOnUse" gradientTransform="matrix(0 144 -168 0 168 144)"><stop offset=".586" stop-color="#fff"/><stop offset="1" stop-color="#fff" stop-opacity="0"/></radialGradient><linearGradient id="b" x1="-4.695" y1="11.189" x2="45.244" y2="307.47" gradientUnits="userSpaceOnUse"><stop stop-color="#2FB4FF"/><stop offset="1" stop-color="#00FFD1"/></linearGradient></defs></svg>