<svg width="560" height="301" fill="none" xmlns="http://www.w3.org/2000/svg"><path d="M221.2 249h-3.3v-8.5h-8.6v8.5H206v-19.2h3.3v8h8.6v-8h3.3V249zm10 .3c-2.1 0-3.8-.7-5-2a7 7 0 01-2-5v-.5c0-1.4.4-2.7 1-3.8.5-1 1.2-2 2.2-2.6 1-.6 2.1-1 3.3-1 2 0 3.5.7 4.5 2 1.1 1.2 1.6 3 1.6 5.2v1.3h-9.3c.1 1.2.5 2 1.2 2.8.7.7 1.6 1 2.6 1 1.5 0 2.7-.6 3.6-1.8l1.7 1.7c-.6.8-1.3 1.5-2.3 2-1 .4-2 .7-3.2.7zm-.5-12.3c-.8 0-1.6.3-2.1 1-.5.6-.9 1.4-1 2.5h6v-.2c0-1-.3-1.9-.8-2.4-.5-.6-1.2-.9-2-.9zm17.2 12c-.2-.3-.3-.7-.4-1.3a5 5 0 01-3.8 1.6 5 5 0 01-3.5-1.3 4 4 0 01-1.3-3 4 4 0 011.7-3.5 8.2 8.2 0 014.8-1.2h2v-1c0-.7-.2-1.3-.6-1.7-.4-.5-1-.7-2-.7-.6 0-1.2.2-1.7.6-.5.3-.7.8-.7 1.3h-3.2c0-.7.2-1.5.8-2.1.5-.7 1.2-1.3 2-1.6 1-.4 2-.6 3-.6a6 6 0 014 1.2c1 .9 1.6 2 1.6 3.6v6.4c0 1.3.2 2.3.5 3v.3H248zm-3.6-2.3c.7 0 1.3-.2 1.8-.5a3 3 0 001.3-1.2v-2.7h-1.7c-1.2 0-2.1.2-2.7.6a2 2 0 00-1 1.8c0 .6.3 1 .7 1.5.4.3 1 .5 1.6.5zm13 2.3h-3.2v-20.3h3.3V249zm7.6-17.7v3.4h2.5v2.4h-2.5v8c0 .5 0 1 .3 1.2.2.2.6.3 1.1.3l1.2-.1v2.5l-2.1.3c-2.5 0-3.7-1.4-3.7-4.1v-8h-2.4v-2.5h2.4v-3.4h3.2zm8.1 5a5 5 0 014-1.8c3 0 4.6 1.7 4.6 5.2v9.3h-3.2v-9.2c0-1-.2-1.7-.7-2-.4-.5-1-.7-1.8-.7a3 3 0 00-2.9 1.7V249h-3.2v-20.3h3.2v7.6zm22.4 12.7h-3.3v-19.2h3.3V249zm6.8-14.3v1.7c1.1-1.3 2.5-2 4.2-2 3 0 4.5 1.8 4.5 5.2v9.4h-3.2v-9.2c0-1-.2-1.6-.6-2-.3-.5-1-.7-1.9-.7a3 3 0 00-2.8 1.7V249H299v-14.3h3zm20 10.4c0-.5-.2-1-.7-1.3-.5-.3-1.2-.5-2.3-.8-1.1-.2-2-.5-2.8-.8-1.6-.8-2.4-2-2.4-3.4 0-1.2.6-2.3 1.6-3 1-1 2.4-1.3 4-1.3 1.7 0 3 .4 4 1.2a4 4 0 011.7 3.3H322a2 2 0 00-.7-1.5c-.5-.4-1-.6-1.8-.6-.7 0-1.3.1-1.8.5-.4.3-.6.7-.6 1.3 0 .5.2.8.6 1.1.4.3 1.2.6 2.5.8 1.2.3 2.2.6 3 1a4 4 0 011.5 1.4c.4.5.6 1.2.6 2 0 1.2-.6 2.3-1.6 3-1 .9-2.5 1.3-4.2 1.3-1.2 0-2.2-.2-3.1-.7-1-.4-1.7-1-2.2-1.7-.5-.7-.7-1.5-.7-2.4h3c.1.8.4 1.3 1 1.8.5.4 1.2.6 2 .6.9 0 1.5-.2 2-.5.4-.3.6-.8.6-1.3zm14.6 2.5a5 5 0 01-4 1.7c-1.5 0-2.7-.5-3.5-1.4-.8-.9-1.2-2.2-1.2-4v-9.2h3.2v9.2c0 1.8.8 2.8 2.3 2.8 1.5 0 2.6-.6 3.1-1.7v-10.3h3.2V249h-3v-1.4zm13.8-10a8 8 0 00-1.3 0c-1.4 0-2.4.5-3 1.6v9.8h-3.1v-14.3h3l.1 1.6a3.6 3.6 0 013.2-1.8c.5 0 .9 0 1.2.2v3zm10.2 11.4a5 5 0 01-.4-1.3 5 5 0 01-3.7 1.6 5 5 0 01-3.5-1.3 4 4 0 01-1.4-3 4 4 0 011.7-3.5 8.2 8.2 0 014.9-1.2h2v-1c0-.7-.3-1.3-.7-1.7-.4-.5-1-.7-1.9-.7-.7 0-1.3.2-1.8.6-.4.3-.7.8-.7 1.3h-3.2c0-.7.3-1.5.8-2.1.5-.7 1.2-1.3 2.1-1.6.9-.4 1.9-.6 3-.6a6 6 0 014 1.2c1 .9 1.5 2 1.5 3.6v6.4c0 1.3.2 2.3.6 3v.3h-3.3zm-3.5-2.3c.6 0 1.2-.2 1.8-.5a3 3 0 001.2-1.2v-2.7h-1.7c-1.2 0-2 .2-2.7.6a2 2 0 00-.9 1.8c0 .6.2 1 .6 1.5.4.3 1 .5 1.7.5zm12.6-12v1.7c1.1-1.3 2.5-2 4.2-2 3 0 4.5 1.8 4.5 5.2v9.4h-3.2v-9.2c0-1-.2-1.6-.6-2-.4-.5-1-.7-1.9-.7a3 3 0 00-2.9 1.7V249h-3.2v-14.3h3zm17.9 12c.8 0 1.4-.2 2-.7.5-.5.8-1 .8-1.7h3c0 .9-.3 1.7-.8 2.5-.5.7-1.2 1.3-2.1 1.8-1 .4-1.9.7-2.9.7a6 6 0 01-4.7-2 7.7 7.7 0 01-1.8-5.3v-.4c0-2.1.6-3.9 1.7-5.2a6 6 0 014.8-2c1.7 0 3 .6 4.1 1.6 1.1 1 1.7 2.2 1.7 3.9h-3a3 3 0 00-.8-2c-.6-.6-1.2-.9-2-.9-1 0-1.9.4-2.4 1.2-.6.7-.9 1.9-.9 3.4v.5a6 6 0 00.8 3.5c.6.7 1.4 1.1 2.5 1.1zm14.5 2.6c-2 0-3.7-.7-5-2a7 7 0 01-1.8-5v-.5c0-1.4.3-2.7.8-3.8.6-1 1.3-2 2.3-2.6 1-.6 2.1-1 3.4-1 1.9 0 3.4.7 4.4 2 1.1 1.2 1.6 3 1.6 5.2v1.3h-9.3c.1 1.2.5 2 1.2 2.8.7.7 1.6 1 2.6 1 1.5 0 2.7-.6 3.6-1.8l1.7 1.7c-.6.8-1.3 1.5-2.3 2-1 .4-2 .7-3.2.7zM402 237c-.8 0-1.6.3-2.1 1-.5.6-.9 1.4-1 2.5h6v-.2c0-1-.3-1.9-.8-2.4-.5-.6-1.2-.9-2-.9zm19 4.9v7.1h-3.3v-19.2h7.3c2.2 0 3.9.6 5.1 1.7a5.6 5.6 0 012 4.4c0 1.9-.7 3.4-2 4.4-1.2 1-2.9 1.6-5.1 1.6h-4zm0-2.7h4c1.2 0 2.1-.3 2.7-.8.7-.6 1-1.4 1-2.5 0-1-.3-1.8-1-2.4-.6-.7-1.5-1-2.6-1h-4v6.7zm12.9 2.5c0-1.4.2-2.6.8-3.7a6 6 0 012.3-2.6c1-.6 2.2-1 3.5-1 1.9 0 3.5.7 4.6 2a7.3 7.3 0 012 4.9v.7c0 1.4-.3 2.7-.8 3.8a6 6 0 01-2.3 2.6c-1 .6-2.2.9-3.5.9-2 0-3.6-.7-4.8-2a7.7 7.7 0 01-1.9-5.4v-.2zm3.2.3c0 1.5.3 2.6.9 3.5a3 3 0 002.5 1.2c1 0 2-.4 2.5-1.3.6-.8 1-2 1-3.7 0-1.4-.4-2.5-1-3.4a3 3 0 00-2.5-1.3 3 3 0 00-2.5 1.3c-.6.8-1 2-1 3.7zm20.2-4.3a8 8 0 00-1.3-.1c-1.5 0-2.5.5-3 1.6v9.8h-3.2v-14.3h3l.2 1.6a3.6 3.6 0 013.2-1.8c.4 0 .8 0 1.1.2v3zm6.7-6.4v3.4h2.5v2.4H464v8c0 .5 0 1 .3 1.2.2.2.6.3 1.2.3l1-.1v2.5c-.6.2-1.3.3-2 .3-2.5 0-3.7-1.4-3.7-4.1v-8h-2.4v-2.5h2.4v-3.4h3.2zm13.5 17.7a5 5 0 01-.4-1.3 5 5 0 01-3.7 1.6 5 5 0 01-3.5-1.3 4 4 0 01-1.4-3 4 4 0 011.7-3.5 8.2 8.2 0 014.8-1.2h2v-1c0-.7-.2-1.3-.6-1.7-.4-.5-1-.7-1.9-.7-.7 0-1.3.2-1.8.6-.5.3-.7.8-.7 1.3h-3.2c0-.7.3-1.5.8-2.1.5-.7 1.2-1.3 2.1-1.6.9-.4 1.9-.6 3-.6a6 6 0 014 1.2c1 .9 1.5 2 1.5 3.6v6.4c0 1.3.2 2.3.6 3v.3h-3.3zm-3.5-2.3c.6 0 1.2-.2 1.7-.5a3 3 0 001.3-1.2v-2.7h-1.7c-1.2 0-2 .2-2.7.6a2 2 0 00-.9 1.8c0 .6.2 1 .6 1.5.4.3 1 .5 1.7.5zm22-4.7c0 2.2-.4 4-1.4 5.3-1 1.3-2.3 2-4 2-1.7 0-3-.6-4-1.8l-.1 1.5h-3v-20.3h3.3v7.4c.9-1 2.1-1.6 3.7-1.6 1.7 0 3.1.6 4.1 2 1 1.2 1.5 3 1.5 5.3v.2zm-3.1-.3a6 6 0 00-.8-3.4 2.7 2.7 0 00-2.4-1.2 3 3 0 00-3 1.8v5.9a3 3 0 003 1.9c1 0 1.8-.4 2.3-1.2.6-.7.9-1.8.9-3.4v-.4zm9.3 7.3h-3.2v-14.3h3.2V249zm-3.4-18c0-.5.1-.9.5-1.2.3-.3.7-.5 1.3-.5.6 0 1 .2 1.3.5.4.3.5.7.5 1.2s-.1 1-.5 1.2c-.3.4-.7.5-1.3.5-.6 0-1-.1-1.3-.5-.4-.3-.5-.7-.5-1.2zm10.3 18h-3.2v-20.3h3.2V249zm7 0h-3.3v-14.3h3.2V249zm-3.5-18c0-.5.2-.9.5-1.2.3-.3.7-.5 1.3-.5.6 0 1 .2 1.4.5.3.3.4.7.4 1.2s-.1 1-.4 1.2c-.4.4-.8.5-1.4.5-.6 0-1-.1-1.3-.5-.3-.3-.5-.7-.5-1.2zm11 .3v3.4h2.4v2.4h-2.5v8c0 .5.1 1 .3 1.2.3.2.6.3 1.2.3l1.1-.1v2.5l-2 .3c-2.5 0-3.8-1.4-3.8-4.1v-8H518v-2.5h2.3v-3.4h3.2zm9.9 13.1l2.9-9.7h3.4l-5.7 16.5c-.8 2.4-2.3 3.6-4.4 3.6l-1.5-.3V252h.6a3 3 0 001.8-.4c.4-.3.7-.7 1-1.4l.4-1.3-5-14.2h3.5l3 9.7zM205 277.8c0-.9.3-1.7.8-2.4.4-.8 1.4-1.6 2.8-2.7-.7-1-1.3-1.7-1.5-2.4a4.7 4.7 0 011-5.5c.8-.8 2-1.3 3.6-1.3 1.4 0 2.5.5 3.4 1.3a4.2 4.2 0 01.7 5.3c-.4.6-1 1.3-2 2l-1.3.9 3.8 4.4c.5-1 .8-2.3.8-3.5h2.7c0 2.3-.5 4.3-1.6 5.8l2.8 3.3h-3.7l-1.1-1.3a8 8 0 01-4.9 1.6c-1.9 0-3.4-.5-4.6-1.5a5 5 0 01-1.7-4zm6.4 3c1 0 2-.5 3-1.2l-4.2-5-.4.4c-1 .8-1.6 1.7-1.6 2.7 0 .9.3 1.6.9 2.2.6.5 1.3.8 2.3.8zm-1.8-12.5c0 .8.5 1.7 1.4 2.8l1.4-1 .5-.3c.5-.5.8-1.1.8-1.9 0-.5-.2-.9-.6-1.2a2 2 0 00-1.4-.6c-.7 0-1.2.2-1.5.6-.4.5-.6 1-.6 1.6zm31 10.2h-7.4l-1.6 4.5h-3.5l7.3-19.2h3l7.2 19.2h-3.4l-1.6-4.5zm-6.5-2.7h5.6l-2.8-8-2.8 8zm19.3 5c.8 0 1.4-.3 2-.8.5-.5.8-1 .8-1.7h3c0 .9-.3 1.7-.8 2.5-.5.7-1.2 1.3-2.1 1.8-.9.4-1.9.7-2.9.7a6 6 0 01-4.7-2 7.7 7.7 0 01-1.8-5.3v-.4c0-2.1.6-3.9 1.8-5.2a6 6 0 014.7-2c1.7 0 3 .6 4.1 1.6 1.1 1 1.7 2.2 1.7 3.9h-3a3 3 0 00-.8-2c-.6-.6-1.2-.9-2-.9-1 0-1.9.4-2.4 1.2-.6.7-.9 1.9-.9 3.4v.5a6 6 0 00.9 3.5c.5.7 1.3 1.1 2.4 1.1zm14.1 0c.8 0 1.5-.3 2-.8s.8-1 .8-1.7h3c0 .9-.2 1.7-.8 2.5-.5.7-1.2 1.3-2 1.8-1 .4-2 .7-3 .7a6 6 0 01-4.7-2 7.7 7.7 0 01-1.7-5.3v-.4c0-2.1.5-3.9 1.7-5.2a6 6 0 014.7-2c1.7 0 3.1.6 4.2 1.6 1 1 1.6 2.2 1.7 3.9h-3a3 3 0 00-.9-2c-.5-.6-1.2-.9-2-.9-1 0-1.8.4-2.4 1.2-.6.7-.8 1.9-.8 3.4v.5a6 6 0 00.8 3.5c.5.7 1.4 1.1 2.4 1.1zm7.7-5c0-1.5.3-2.7.8-3.8a6 6 0 012.3-2.6c1-.6 2.2-1 3.5-1 2 0 3.5.7 4.7 2a7.3 7.3 0 012 4.9v.7c0 1.4-.3 2.7-.9 3.8a6 6 0 01-2.3 2.6c-1 .6-2.2.9-3.5.9-2 0-3.6-.7-4.8-2a7.7 7.7 0 01-1.8-5.4v-.2zm3.2.2c0 1.5.3 2.6.9 3.5a3 3 0 002.5 1.2c1.1 0 2-.4 2.5-1.3.7-.8 1-2 1-3.7 0-1.4-.4-2.5-1-3.4a3 3 0 00-2.5-1.3 3 3 0 00-2.5 1.3c-.6.8-1 2-1 3.7zm21.4 5.6a5 5 0 01-4 1.7c-1.6 0-2.7-.5-3.5-1.4-.8-.9-1.2-2.2-1.2-4v-9.2h3.2v9.2c0 1.8.7 2.8 2.2 2.8 1.6 0 2.6-.6 3.2-1.7v-10.3h3.2V283h-3l-.1-1.4zm9.3-12.9l.1 1.7c1-1.3 2.5-2 4.2-2 3 0 4.5 1.8 4.5 5.2v9.4h-3.2v-9.2c0-1-.2-1.6-.6-2-.4-.5-1-.7-1.9-.7a3 3 0 00-2.9 1.7V283h-3.2v-14.3h3zm16.1-3.4v3.4h2.5v2.4h-2.5v8c0 .5.1 1 .3 1.2.2.2.6.3 1.2.3l1.1-.1v2.5l-2.1.3c-2.5 0-3.7-1.4-3.7-4.1v-8h-2.3v-2.5h2.3v-3.4h3.2zm13.5 17.7a5 5 0 01-.4-1.3 5 5 0 01-3.7 1.6 5 5 0 01-3.5-1.3 4 4 0 01-1.4-3 4 4 0 011.7-3.5 8.2 8.2 0 014.9-1.2h2v-1c0-.7-.3-1.3-.7-1.7-.4-.5-1-.7-1.9-.7-.7 0-1.3.2-1.8.6-.4.3-.7.8-.7 1.3h-3.2c0-.7.3-1.5.8-2.1.5-.7 1.2-1.3 2.1-1.6 1-.4 2-.6 3-.6a6 6 0 014 1.2c1 .9 1.5 2 1.5 3.6v6.4c0 1.3.2 2.3.6 3v.3h-3.3zm-3.5-2.3c.6 0 1.2-.2 1.8-.5a3 3 0 001.2-1.2v-2.7h-1.7c-1.2 0-2 .2-2.7.6a2 2 0 00-.9 1.8c0 .6.2 1 .6 1.5.4.3 1 .5 1.7.5zm22.1-4.7c0 2.2-.5 4-1.5 5.3-1 1.3-2.3 2-4 2-1.7 0-3-.6-4-1.8l-.1 1.5h-3v-20.3h3.3v7.4c1-1 2.1-1.6 3.7-1.6 1.8 0 3.1.6 4.1 2 1 1.2 1.5 3 1.5 5.3v.2zm-3.2-.3a6 6 0 00-.8-3.4 2.7 2.7 0 00-2.4-1.2 3 3 0 00-3 1.8v5.9a3 3 0 003 1.9c1 0 1.8-.4 2.4-1.2.5-.7.8-1.8.8-3.4v-.4zm9.3 7.3h-3.2v-14.3h3.2V283zm-3.4-18c0-.5.2-.9.5-1.2.3-.3.7-.5 1.3-.5.6 0 1 .2 1.4.5.3.3.4.7.4 1.2s-.1 1-.4 1.2c-.4.4-.8.5-1.4.5-.6 0-1-.1-1.3-.5-.3-.3-.5-.7-.5-1.2zm10.3 18h-3.2v-20.3h3.2V283zm7 0H374v-14.3h3.2V283zm-3.5-18c0-.5.2-.9.5-1.2.3-.3.7-.5 1.3-.5.6 0 1 .2 1.4.5.3.3.4.7.4 1.2s-.1 1-.4 1.2c-.3.4-.8.5-1.4.5-.6 0-1-.1-1.3-.5-.3-.3-.5-.7-.5-1.2zm11 .3v3.4h2.5v2.4h-2.6v8c0 .5.1 1 .4 1.2.2.2.6.3 1.1.3l1.1-.1v2.5l-2 .3c-2.5 0-3.8-1.4-3.8-4.1v-8h-2.3v-2.5h2.3v-3.4h3.2zm10 13.1l2.8-9.7h3.4l-5.6 16.5c-1 2.4-2.4 3.6-4.5 3.6l-1.5-.3V286h.6a3 3 0 001.8-.4c.4-.3.7-.7 1-1.4l.4-1.3-5-14.2h3.5l3 9.7zm25.9.1h-7.5l-1.5 4.5h-3.5l7.2-19.2h3l7.3 19.2h-3.5l-1.5-4.5zm-6.5-2.7h5.5l-2.8-8-2.7 8zm19.2 5c.8 0 1.5-.3 2-.8.6-.5.8-1 .9-1.7h3c0 .9-.3 1.7-.8 2.5-.6.7-1.3 1.3-2.1 1.8-1 .4-1.9.7-3 .7a6 6 0 01-4.7-2 7.7 7.7 0 01-1.7-5.3v-.4c0-2.1.6-3.9 1.7-5.2a6 6 0 014.8-2c1.7 0 3 .6 4.1 1.6 1 1 1.6 2.2 1.7 3.9h-3a3 3 0 00-.9-2c-.5-.6-1.2-.9-2-.9-1 0-1.8.4-2.4 1.2-.5.7-.8 1.9-.8 3.4v.5a6 6 0 00.8 3.5c.6.7 1.4 1.1 2.4 1.1zm12.3-15.5v3.4h2.5v2.4h-2.5v8c0 .5.1 1 .3 1.2.3.2.6.3 1.2.3l1.1-.1v2.5l-2 .3c-2.5 0-3.8-1.4-3.8-4.1v-8h-2.3v-2.5h2.3v-3.4h3.2z" fill="#30529F"/><mask id="a" maskUnits="userSpaceOnUse" x="133" y="0" width="146" height="301"><path fill="#C4C4C4" d="M133 0h146v301H133z"/></mask><g mask="url(#a)" fill="#30529F"><path d="M175.8 133.8c-8-7-18.3-7.5-22-1.3-3.5 5.7-.1 14.8 7.5 20.4 2.7 1.9 5.5 3.1 8.2 3.7-1 3-3.8 6.1-8.1 8.7-4.1 2.5-6.2 3.2-23.6 8.9l-23.9 7.8c-14.1 4.9-22.6 14.4-22.6 25.7 0 8 4.1 14.1 9.8 18.6 3.5-3.6 8-6.8 13.2-9.4-6-3-7.8-5.3-7.8-9.2 0-3 4-7.2 11.9-9.9l7-2.3h7.5c2 0 12.1 1.5 14.6 2.3 7.8 2.7 11.9 7 11.9 9.9 0 7-5.9 8.4-26.5 17.6-11.8 5.3-13.8 6-17.4 8.5-6.4 4.5-9.8 10-9.8 16.7 0 3.8.5 8.4 7.1 13.1a2.2 2.2 0 003.6-1.7c0-.4-.1-.8-.3-1.1-4.4-8.8.2-13.2 9.3-17 2-.8 4.1-.8 7.6-.8 11.5.8 21.7 9.6 16.8 17.8a2.2 2.2 0 002 3.3c.4 0 .9-.2 1.3-.5 6.4-4.9 7-9 7-13 0-6.2-3.4-12.1-9.8-16.7 12.9-4.7 24.2-12.5 24.2-26.2 0-9.5-6-17.8-16.4-23 4.9-1.8 7.3-3 10.6-5 14.2-8.4 16.3-19.5 16.3-25.3a25 25 0 00-9.2-20.6zm-8.8 9.1c-2.1 0-3.8-1.7-3.8-3.8 0-2.2 1.7-3.9 3.8-3.9 2 0 3.7 1.7 3.7 3.9 0 2-1.6 3.8-3.7 3.8z"/><path fill-rule="evenodd" clip-rule="evenodd" d="M195.4 59.6H258c0 6.3-3 12-8 16.2h-41.5c-9.2 0-16 2.2-20.6 4.5a32 32 0 00-6.7 4.4v.1c-.8.7-.6 1.7.2 2.2.7.6 1.9.5 2.5-.2l.3-.2 1.1-1a41.7 41.7 0 0123.2-6.8l41.7 2.8a23.1 23.1 0 01-12.8 15.7h-26a54.2 54.2 0 00-15.8 2.3 11.4 11.4 0 00-1 .5h-.1l1 1.2-1-1.2c-.8.5-1 1.4-.5 2.1.6.7 1.7.9 2.5.4a3.6 3.6 0 01.6-.3l2.5-.8c2.4-.5 6.2-1.2 11.9-1.2l17 1a36.2 36.2 0 01-33 18.9c-12.1 0-22.8-5.1-29.3-12.9a8 8 0 00-11-.8L133 120.2V96.5l35.8-26.8c6.5-6.2 16-10.1 26.6-10.1z"/><path d="M133 36l5.2 15.9h16.7l-13.5 9.8 5.1 16-13.5-10-13.5 10 5.1-16-13.5-9.8h16.7L133 36z"/></g><path fill-rule="evenodd" clip-rule="evenodd" d="M34.7 60A133.7 133.7 0 01133 16v20l-5.2 15.9h-16.7l13.5 9.8-5.1 16 13.5-10v108l-19 6.3c-14.2 4.9-22.7 14.4-22.7 25.7 0 8 4.1 14.1 9.8 18.6 3.5-3.6 8-6.8 13.2-9.4-6-3-7.8-5.3-7.8-9.2 0-3 4-7.2 11.9-9.9 4.3-1.4 8.1-2.3 14.6-2.4v30l-4.9 2a67.9 67.9 0 00-12.6 6.4c-6.4 4.5-9.8 10-9.8 16.7 0 3.8.5 8.4 7.1 13.1a2.2 2.2 0 003.6-1.7c0-.4-.1-.8-.3-1-4.4-8.9.2-13.3 9.3-17 3.1-.8 5.5-1 7.6-1V284A134 134 0 0116.7 85.2a24 24 0 0012 12.6h25.8a54.1 54.1 0 0115.8 2.2 11.6 11.6 0 011 .5h.1l-1 1.3 1-1.3c.9.5 1 1.4.5 2.1-.6.7-1.6.9-2.4.4h-.1l-.6-.3-2.5-.7a50 50 0 00-11.8-1.2l-17 1a36.2 36.2 0 0033 18.8c12 0 22.7-5 29.2-12.9a8 8 0 0111-.7l22.2 13.6V96.9L97.2 70.1A38.6 38.6 0 0070.5 60H34.7zM22.1 76.2a134 134 0 00-3.5 5.6l38.9-2.5c8.5 0 14.6 2 18.7 4a28.2 28.2 0 015.7 3.9h.1a2 2 0 002.6.3c.8-.6.9-1.5.2-2.2a6.5 6.5 0 00-.4-.5 31.9 31.9 0 00-6.4-4.2 45.7 45.7 0 00-20.5-4.4H22zm87 91.5c-1.8-.8-3-1.5-4.6-2.4-4.4-2.6-7.2-5.7-8.2-8.7 2.7-.6 5.6-1.8 8.2-3.7 7.7-5.6 11-14.7 7.6-20.4-3.8-6.2-14-5.8-22 1.3a24.8 24.8 0 00-9.2 20.6c0 5.1 1.6 14.2 11.5 22a57.2 57.2 0 0116.7-8.7zm-10.2-32.5c2 0 3.8 1.7 3.8 3.9 0 2-1.7 3.8-3.8 3.8-2 0-3.8-1.7-3.8-3.8 0-2.2 1.7-3.9 3.8-3.9z" fill="#30529F"/><path d="M207.5 148.8v-6.3h26v6.3l-8 1.4v25h35.1v-25l-8-1.4v-6.3h26v6.3l-8.2 1.4v57.1l8.2 1.4v6.3h-26v-6.3l8-1.4V183h-35.1v24.3l8 1.4v6.3h-26v-6.3l8.2-1.4v-57.1l-8.2-1.4zm78.9 0v-6.3h26v6.3l-8 1.4v57.1l8 1.4v6.3h-26v-6.3l8.1-1.4v-57.1l-8.1-1.4zm66.8-6.3c7.8 0 13.8 2 18 6 4.4 4 6.5 9.2 6.5 15.7 0 6.6-2.1 11.8-6.4 15.8-4.3 4-10.3 6-18 6h-15.5v21.3l8.2 1.4v6.3h-26v-6.3l8-1.4v-57.1l-8-1.4v-6.3h33.2zm-15.4 35.7h15.4c5 0 8.6-1.3 11-3.9 2.5-2.6 3.7-6 3.7-10s-1.2-7.4-3.7-10c-2.4-2.8-6-4.1-11-4.1h-15.4v28zm26.3 30.5l5.4-.7 25.3-65.5h8.4l25 65.5 5.3.7v6.3h-20.9v-6.3l5.5-1-4.8-13.3h-29l-5 13.4 5.5 1v6.2h-20.7v-6.3zm23.2-22.5h23l-11.2-31.1h-.3l-11.5 31.1zm35.7 22.5l5.4-.7 25.3-65.5h8.4l25 65.5 5.3.7v6.3h-20.9v-6.3l5.5-1-4.8-13.3h-29l-5 13.4 5.5 1v6.2H423v-6.3zm23.2-22.5h23L458 155.1h-.3l-11.5 31.1z" fill="#30529F"/></svg>