<svg xmlns="http://www.w3.org/2000/svg" fill="none" viewBox="0 0 134 131"><defs/><mask id="a" width="129" height="125" x="2" y="2" mask-type="alpha" maskUnits="userSpaceOnUse"><path fill="#000" d="M13.08 126.5a11 11 0 01-5.58-1.33 8.77 8.77 0 01-3.46-3.8 13.4 13.4 0 01-1.18-5.83c0-2.2.41-4.14 1.24-5.8.83-1.65 2-2.93 3.54-3.83a10.56 10.56 0 015.5-1.4c2.64 0 4.78.69 6.41 2.05a8.01 8.01 0 012.87 5.5l-5.06.88a5.37 5.37 0 00-1.35-3.25 3.97 3.97 0 00-2.99-1.15c-1.57 0-2.82.63-3.72 1.89-.89 1.24-1.33 2.93-1.33 5.08 0 2.1.45 3.8 1.36 5.05a4.5 4.5 0 003.84 1.9c1.16 0 2.12-.38 2.87-1.13a5.73 5.73 0 001.44-3.19l5.06 1.1a9.17 9.17 0 01-3.22 5.34c-1.62 1.28-3.7 1.92-6.24 1.92zm19.37-.14c-1.47 0-2.8-.3-3.96-.9a6.79 6.79 0 01-2.71-2.65 8.54 8.54 0 01-.98-4.23c0-1.65.33-3.05.98-4.2a6.58 6.58 0 012.71-2.62 8.61 8.61 0 013.96-.89c1.48 0 2.8.3 3.96.89a6.36 6.36 0 012.72 2.63c.67 1.14 1 2.54 1 4.2 0 1.65-.33 3.06-1 4.22a6.55 6.55 0 01-2.72 2.66c-1.16.59-2.48.89-3.96.89zm0-3.28a2.5 2.5 0 002.19-1.13c.51-.77.77-1.89.77-3.37 0-1.5-.26-2.6-.77-3.33a2.51 2.51 0 00-2.19-1.1c-.94 0-1.67.37-2.18 1.1-.5.72-.74 1.84-.74 3.33 0 1.48.25 2.6.77 3.37a2.47 2.47 0 002.15 1.13zm11.12-11.85h4.55v2.83c1.02-2.14 2.66-3.22 4.9-3.22 1.6 0 2.8.5 3.6 1.5.82 1.01 1.22 2.51 1.22 4.5V126h-4.73v-8.51c0-1.02-.19-1.78-.56-2.27-.35-.5-.9-.74-1.65-.74-.83 0-1.47.3-1.92.91a4.51 4.51 0 00-.65 2.63V126h-4.76v-14.77zm16.47 0h2.57v-3.55l4.73-1.83v5.38h3.52v3.16h-3.52v5.76c0 1.5.72 2.24 2.16 2.24.41 0 .87-.04 1.36-.14V126c-1.05.2-1.94.3-2.69.3-1.91 0-3.32-.43-4.23-1.27-.88-.85-1.33-2.1-1.33-3.76v-6.88h-2.57v-3.16zm18.6 3.8c.4-1.35 1-2.39 1.8-3.1a4.64 4.64 0 013.14-1.06h.3v4.52c-.2-.02-.5-.03-.9-.03-1.21 0-2.17.3-2.86.89-.43.41-.74.94-.91 1.56a7.78 7.78 0 00-.27 2.16V126h-4.76v-14.77h4.46v3.8zm14.6 11.33c-1.47 0-2.79-.3-3.95-.9a6.79 6.79 0 01-2.72-2.65 8.54 8.54 0 01-.97-4.23c0-1.65.32-3.05.97-4.2a6.58 6.58 0 012.72-2.62 8.61 8.61 0 013.96-.89c1.48 0 2.8.3 3.96.89a6.36 6.36 0 012.72 2.63c.67 1.14 1 2.54 1 4.2 0 1.65-.33 3.06-1 4.22a6.55 6.55 0 01-2.72 2.66c-1.16.59-2.48.89-3.96.89zm.01-3.28a2.5 2.5 0 002.19-1.13c.5-.77.76-1.89.76-3.37 0-1.5-.25-2.6-.76-3.33a2.51 2.51 0 00-2.19-1.1c-.95 0-1.67.37-2.19 1.1-.49.72-.74 1.84-.74 3.33 0 1.48.26 2.6.77 3.37a2.47 2.47 0 002.16 1.13zm16.02 2.92h-4.76v-21.42h4.76V126zm10.45.36c-1.64 0-3.1-.3-4.37-.9a6.91 6.91 0 01-2.96-2.65l2.75-2.07a5.21 5.21 0 004.67 2.4c.77 0 1.34-.11 1.71-.33.4-.24.6-.56.6-.98 0-.43-.16-.75-.45-.94a4 4 0 00-1.66-.5l-2.12-.3c-3.14-.47-4.7-1.99-4.7-4.55 0-1.44.57-2.57 1.71-3.4 1.16-.84 2.76-1.27 4.79-1.27 1.5 0 2.84.27 4.02.8a6.02 6.02 0 012.69 2.13l-2.46 2.21a5.61 5.61 0 00-4.4-1.98c-.7 0-1.23.1-1.56.3-.34.2-.5.5-.5.92 0 .35.12.64.38.85.27.2.73.34 1.36.42l2.63.4c1.53.23 2.65.72 3.34 1.49.7.75 1.06 1.77 1.06 3.07 0 1.52-.58 2.7-1.74 3.57-1.15.87-2.74 1.3-4.8 1.3zM14.88 23.44c-2.4 1.83-5.7 2.75-9.9 2.75h-1.8V12.05H4.5c3.67-.16 6.5-.86 8.49-2.12 1.99-1.3 3.64-3.48 4.94-6.52H30.6V58h-15.7V23.44zm61.76 23.49V58H60.93V46.93H36.1v-10.6L59.36 3.4h17.28v32.2h7.77v11.32h-7.77zM61.7 22.26c0-2.2.05-3.77.16-4.71h-.16a32.99 32.99 0 01-2.67 4.63l-6.99 10.06a21.86 21.86 0 01-2.67 3.37h12.33V22.26zm45.16-20.03c7.48 0 13.24 2.36 17.28 7.07 4.03 4.66 6.04 11.52 6.04 20.58 0 9.58-1.99 16.86-5.97 21.84-3.97 4.97-9.94 7.46-17.9 7.46-5.76 0-10.45-1.26-14.06-3.77-3.62-2.57-5.79-6.23-6.52-11l14.69-2.43a6.54 6.54 0 002.35 3.85 7.13 7.13 0 004.4 1.4 6.61 6.61 0 005.9-3.37c1.46-2.25 2.22-5.44 2.27-9.58a11.69 11.69 0 01-5.03 3.7c-2.04.78-4.3 1.17-6.75 1.17-3.83 0-7.15-.76-9.98-2.28-2.83-1.52-5-3.61-6.52-6.28a18.7 18.7 0 01-2.28-9.27c0-3.77.9-7.1 2.68-9.98a17.6 17.6 0 017.61-6.67c3.36-1.63 7.28-2.44 11.79-2.44zm0 25.84c1.78 0 3.43-.47 4.94-1.41 1.52-1 2.7-2.36 3.54-4.08-.1-2.83-.86-5.06-2.28-6.68-1.41-1.68-3.38-2.51-5.89-2.51-2.3 0-4.14.68-5.5 2.04-1.36 1.3-2.04 3.11-2.04 5.42 0 2.04.66 3.77 1.96 5.18a7.12 7.12 0 005.27 2.04z"/></mask><g mask="url(#a)"><path fill="url(#paint0_linear)" d="M0 2h179v152H0z"/></g><path fill="#B3292D" d="M21.45 68.01v28.83c0 .84.32 1.47.95 1.9.43.27.64.6.64.97v1.1c0 .37-.22.55-.64.55h-7.6c-.35 0-.53-.16-.53-.5V99.7c0-.36.2-.68.61-.97.63-.44.95-1.07.95-1.9V82.89h-5.62v13.95c0 .84.3 1.47.92 1.9.43.27.64.6.64.97v1.1c0 .37-.21.55-.64.55h-7.6c-.35 0-.53-.16-.53-.5V99.7c0-.36.21-.68.63-.97.62-.44.93-1.07.93-1.9V68c0-.82-.3-1.45-.93-1.87-.42-.28-.63-.61-.63-1v-1.07c0-.37.21-.56.63-.56h7.6c.36 0 .53.17.53.51v1.12c0 .37-.2.7-.63 1a2.16 2.16 0 00-.92 1.87v11.47h5.62V68a2.1 2.1 0 00-.95-1.87c-.42-.28-.63-.61-.63-1v-1.07c0-.37.21-.56.63-.56h7.6c.35 0 .53.17.53.51v1.12c0 .37-.2.7-.61 1a2.15 2.15 0 00-.95 1.87zm10.37 28.83c0 .84.31 1.47.93 1.9.42.27.63.6.63.97v1.1c0 .37-.2.55-.63.55h-7.6c-.35 0-.53-.16-.53-.5V99.7c0-.36.21-.68.63-.97.62-.44.93-1.07.93-1.9V68c0-.82-.3-1.45-.93-1.87-.42-.28-.63-.61-.63-1v-1.07c0-.37.21-.56.63-.56h7.6c.35 0 .53.17.53.51v1.12c0 .37-.2.7-.63 1a2.16 2.16 0 00-.92 1.87v28.83z"/><path fill="#262749" d="M46.6 66.33v30.5c0 .85.3 1.48.93 1.9.42.28.63.6.63.98v1.1c0 .37-.21.55-.64.55h-7.6c-.34 0-.53-.16-.53-.5V99.7c0-.36.22-.68.64-.97.62-.44.92-1.07.92-1.9v-30.5h-1.07c-.8 0-1.39.3-1.77.9-.38.6-.72 1.92-1.03 3.96-.03.28-.2.42-.51.42h-.95c-.55 0-.83-.24-.83-.7v-7.1c0-.54.26-.82.78-.82.33 0 .9.06 1.73.2 1.33.2 2.34.31 3.02.31h8.62c.43-.06.97-.15 1.6-.27.98-.14 1.51-.22 1.61-.22.44 0 .66.2.66.61v7.28c0 .47-.21.7-.64.7h-.92c-.37 0-.6-.1-.68-.3-.07-.22-.18-.75-.34-1.6-.3-1.39-.6-2.3-.9-2.72-.31-.44-.86-.66-1.63-.66h-1.1zm14.78 17.31v13.2c0 .84.3 1.47.92 1.9.43.27.64.6.64.97v1.1c0 .37-.21.55-.64.55h-7.6c-.35 0-.53-.17-.53-.5V99.7c0-.36.21-.68.63-.97.62-.44.93-1.07.93-1.9V68c0-.82-.3-1.45-.93-1.87-.42-.28-.63-.61-.63-1v-1.07c0-.37.21-.56.63-.56h6.38c3.6 0 6.35.8 8.23 2.43 1.88 1.62 2.82 3.97 2.82 7.04 0 4.88-2.26 8.04-6.79 9.47a8.9 8.9 0 013.02 2.21c.7.81 1.23 2.02 1.6 3.6l1.78 7.72c.23 1 .45 1.67.66 2.02.3.4.67.74 1.1.98.14.1.22.25.22.46v1.39c0 .35-.18.53-.54.53h-4.87c-.47 0-.77-.26-.9-.78L64.2 87.2c-.36-1.47-.75-2.43-1.2-2.87a2.24 2.24 0 00-1.62-.68zm0-17.18v14.29c1.75 0 3.04-.55 3.87-1.66.82-1.1 1.24-3.07 1.24-5.9 0-2.75-.42-4.56-1.27-5.42-.83-.88-2.1-1.32-3.84-1.32zM92.2 92.6c0 2.9-.74 5.18-2.22 6.82a7.43 7.43 0 01-5.8 2.45 7.7 7.7 0 01-5.86-2.43c-1.52-1.62-2.29-3.75-2.29-6.38V68.01c0-.82-.3-1.45-.92-1.87-.43-.3-.64-.62-.64-1v-1.07c0-.37.21-.56.64-.56h7.6c.35 0 .53.17.53.51v1.12c0 .37-.22.7-.64 1a2.13 2.13 0 00-.92 1.87v25.32c0 3.37 1.12 5.06 3.36 5.06 2.45 0 3.68-1.98 3.68-5.94V68.01c0-.82-.31-1.45-.93-1.87-.42-.3-.63-.62-.63-1v-1.07c0-.37.2-.56.63-.56h5.43c.35 0 .53.17.53.51v1.12c0 .37-.2.7-.63 1A2.13 2.13 0 0092.2 68V92.6zm5.6 8.77h-1.22c-.4 0-.61-.22-.61-.66v-9.18c0-.62.22-.92.66-.92h1.04c.28 0 .46.1.54.29.1.18.23.82.39 1.92.66 4.25 2.18 6.38 4.55 6.38 1.23 0 2.2-.54 2.9-1.6a6.88 6.88 0 001.07-3.9c0-1.58-.38-3.04-1.15-4.38-.74-1.35-2.2-3.17-4.35-5.46a49.24 49.24 0 01-3.58-4.06 12.2 12.2 0 01-2.34-7.3c0-2.7.68-4.92 2.02-6.65 1.37-1.74 3.02-2.6 4.97-2.6.9 0 1.85.25 2.87.75.45.23.76.34.92.34.17 0 .35-.06.54-.2.23-.11.48-.17.73-.16h.9c.47 0 .7.21.7.65v8.06c0 .4-.17.61-.53.61h-1.12c-.29 0-.48-.07-.58-.22-.08-.16-.24-.75-.46-1.78-.77-3.52-2-5.28-3.73-5.28-.93 0-1.67.39-2.24 1.17-.55.79-.84 1.74-.82 2.7 0 1.19.32 2.4.97 3.65.66 1.24 1.98 2.86 3.94 4.87 2.52 2.58 4.25 4.85 5.21 6.82a14 14 0 011.46 6.35c0 3.08-.81 5.6-2.43 7.52-1.6 1.93-3.52 2.9-5.75 2.9a9.8 9.8 0 01-3.48-.78 2.77 2.77 0 00-.9-.27c-.16 0-.37.08-.63.25a1 1 0 01-.46.17zm26.65-35.04v30.5c0 .85.31 1.48.93 1.9.42.28.63.6.63.98v1.1c0 .37-.2.55-.63.55h-7.6c-.36 0-.53-.16-.53-.5V99.7c0-.36.21-.68.63-.97.62-.44.93-1.07.93-1.9v-30.5h-1.08c-.8 0-1.38.3-1.77.9-.38.6-.72 1.92-1.02 3.96-.04.28-.2.42-.52.42h-.95c-.55 0-.82-.24-.82-.7v-7.1c0-.54.25-.82.77-.82.33 0 .9.06 1.73.2 1.33.2 2.34.31 3.02.31h8.62c.44-.06.97-.15 1.6-.27.98-.14 1.52-.22 1.61-.22.44 0 .66.2.66.61v7.28c0 .47-.2.7-.63.7h-.93c-.37 0-.6-.1-.68-.3-.06-.22-.18-.75-.34-1.6-.3-1.39-.6-2.3-.9-2.72-.3-.44-.85-.66-1.63-.66h-1.1z"/><defs><linearGradient id="paint0_linear" x1="20.5" x2="140.64" y1="118" y2="19.98" gradientUnits="userSpaceOnUse"><stop stop-color="#31DAFF"/><stop offset="1" stop-color="#6929D1"/></linearGradient></defs></svg>