<svg viewBox="0 0 430 254" fill="none" xmlns="http://www.w3.org/2000/svg"><path d="M231.16 194.87c-12.46 0-23.7.6-35.25-5.46-35.56-17.92-46.81-64.37-18.85-94.12 13.98-14.88 34.04-21.26 54.1-21.26 0 0 2.74-54.04 55.32-54.04 0 0 34.95-2.73 50.15 33.1 0 0 27.96-14.28 47.71 4.24a35.81 35.81 0 0111.25 24.9c0 3.64-.3 6.98-1.22 10.32-.9 3.95-4.25 7.29.92 9.41 10.03 4.26 19.75 9.72 25.83 18.83 6.69 10.63 10.03 23.68 7.9 36.13-1.52 9.72-6.38 19.13-13.06 26.41-3.96 3.95-8.52 7.3-13.68 9.11-5.17 2.13-10.94 2.13-16.41 2.13h-18.24" fill="url(#paint0_linear)"/><mask id="a" mask-type="alpha" maskUnits="userSpaceOnUse" x="0" y="0" width="397" height="254"><path d="M321.65 158.97a19.6 19.6 0 100-39.2 19.6 19.6 0 000 39.2zM299.05 193.53v-28.9h-3.32c-10.63-.34-19.94 7.3-21.6 17.6-.33.67-2.32 25.59-3.32 33.9h101c-.66-8.31-2.98-32.9-2.98-33.56a21.81 21.81 0 00-21.93-17.61h-3.32v15.28c9.3 2 16.6 11.96 16.6 24.25 0 2-1.32 3.33-3.31 3.33h-5.65a3.33 3.33 0 010-6.65h1.66c-1.33-7.97-6.65-14.28-12.96-14.28-6.31 0-11.63 6.3-12.96 14.28h2.33c2 0 3.32 1.66 3.32 3.32a3.57 3.57 0 01-3.32 3.33h-5.65c-2 0-3.32-1.33-3.32-3.33 0-11.96 7.3-22.26 16.61-24.25v-15.62h-30.9v28.9c2.66 1.34 4.32 3.66 4.32 6.65a7.81 7.81 0 01-15.62 0c0-2.99 1.66-5.31 4.32-6.64z" fill="#000"/><path fill-rule="evenodd" clip-rule="evenodd" d="M246.56 109.47a4.32 4.32 0 014.31-4.32h141.21a4.32 4.32 0 014.32 4.32v105.66a4.32 4.32 0 01-4.31 4.31H250.87a4.32 4.32 0 01-4.32-4.31V109.47zm8.63 4.32v97.02h132.58v-97.02H255.19z" fill="#000"/><path fill-rule="evenodd" clip-rule="evenodd" d="M301.05 215.13a4.32 4.32 0 014.32-4.32h32.23a4.32 4.32 0 014.31 4.32v15.28h26.25a4.32 4.32 0 014.32 4.32v14.95a4.32 4.32 0 01-4.32 4.32H274.8a4.32 4.32 0 01-4.32-4.32v-14.95a4.32 4.32 0 014.32-4.32h26.25v-15.28zm8.63 4.31v15.29a4.32 4.32 0 01-4.31 4.32h-26.25v6.31h84.72v-6.31H337.6a4.32 4.32 0 01-4.32-4.32v-15.28h-23.6z" fill="#000"/><path d="M14.16 186.01c0 2.02 1.58 3.6 3.6 3.6h17.51v17.5c0 2.03 1.57 3.6 3.6 3.6H95c2.02 0 3.6-1.57 3.6-3.6 0-12.34 3.59-24.24 10.55-34.57a35.66 35.66 0 006.96-22v-6.74c0-8.31-1.8-16.62-5.16-24.26h12.12v21.11c0 2.02 1.58 3.6 3.6 3.6h11.22a10.8 10.8 0 0013.48 6.5 10.8 10.8 0 006.5-13.47 10.8 10.8 0 00-13.46-6.5 10.97 10.97 0 00-6.52 6.5h-7.63v-17.51h6.96c2.02 0 3.6-1.57 3.6-3.6V105.4h6.95v-6.97h-6.96v-21.1h13.92v-6.96h-13.92V52.85c0-2.02-1.57-3.6-3.6-3.6h-6.95V35.35h13.92v-6.97h-17.52a3.55 3.55 0 00-3.59 3.6v17.29h-13.92V20.52a10.8 10.8 0 006.51-13.48A10.8 10.8 0 00102.2.53 10.8 10.8 0 0095.68 14a10.98 10.98 0 006.51 6.52v28.74H88.27v-7.64a10.8 10.8 0 006.5-13.47 10.8 10.8 0 00-13.46-6.51 10.8 10.8 0 00-6.52 13.47 10.98 10.98 0 006.52 6.51v7.64h-6.97a3.55 3.55 0 00-3.59 3.6v17.5H42.23V41.63a10.8 10.8 0 006.51-13.47c-1.8-5.61-7.85-8.3-13.47-6.51a10.8 10.8 0 00-6.51 13.47 10.98 10.98 0 006.51 6.51v32.34c0 2.02 1.57 3.6 3.6 3.6h31.66v8.53a55.74 55.74 0 00-13.7-1.58h-39.3a3.55 3.55 0 00-3.6 3.6v30.53L.48 142.44c-.9 1.58-.45 3.6.9 4.5l12.57 9.43v29.64h.22zm133.39-48.95c2.02 0 3.6 1.57 3.6 3.6 0 2.01-1.58 3.59-3.6 3.59a3.55 3.55 0 01-3.6-3.6c0-2.02 1.58-3.6 3.6-3.6zM38.64 35.34a3.55 3.55 0 01-3.6-3.6c0-2.02 1.58-3.59 3.6-3.59s3.6 1.57 3.6 3.6c0 2.01-1.58 3.59-3.6 3.59zm66.7-28.3c2.01 0 3.58 1.57 3.58 3.6 0 2.02-1.57 3.59-3.59 3.59a3.55 3.55 0 01-3.59-3.6c0-2.02 1.57-3.59 3.6-3.59zM84.21 28.15c2.03 0 3.6 1.57 3.6 3.6 0 2.01-1.57 3.59-3.6 3.59a3.55 3.55 0 01-3.59-3.6 3.7 3.7 0 013.6-3.59zm-6.96 28.07h56.14v56.14H77.26V56.22zM8.1 143.12l12.57-21.78c.23-.45.45-1.12.45-1.8V91.47H56.6c4.72 0 9.21.68 13.7 1.8v22.68c0 2.02 1.57 3.6 3.6 3.6h6.96v6.95H63.34a3.55 3.55 0 00-3.6 3.6v6.96h6.97v-3.6h17.51c2.03 0 3.6-1.57 3.6-3.59v-10.55h15.04a53.14 53.14 0 016.06 24.25v6.74c0 6.5-2.02 12.8-5.83 17.96A69.35 69.35 0 0091.4 203.3H42.23v-15.5L64.91 175a3.58 3.58 0 001.8-3.13v-13.93h-6.96v11.9l-22 12.58H21.11v-27.85c0-1.12-.44-2.24-1.34-2.7L8.1 143.13z" fill="#000"/><path d="M35.27 119.32a6.96 6.96 0 100-13.92 6.96 6.96 0 000 13.92zM115.89 70.37H94.78a3.55 3.55 0 00-3.6 3.59v21.1c0 2.03 1.58 3.6 3.6 3.6h21.1c2.03 0 3.6-1.57 3.6-3.6v-21.1c-.23-2.02-1.57-3.6-3.6-3.6zm-3.6 21.1H98.37V77.55h13.92v13.92zM172.03 21.19a10.7 10.7 0 00-9.88 6.96h-11.23v6.96h11.23a10.5 10.5 0 0013.47 6.29 10.5 10.5 0 006.29-13.47 10.5 10.5 0 00-9.88-6.74zm0 14.15a3.55 3.55 0 01-3.6-3.6c0-2.02 1.57-3.59 3.6-3.59 2.02 0 3.59 1.57 3.59 3.6 0 2.01-1.57 3.59-3.6 3.59zM251.67 63.45a10.54 10.54 0 100 21.11 10.54 10.54 0 100-21.1zm0 14.15a3.55 3.55 0 01-3.6-3.6c0-2.01 1.58-3.59 3.6-3.59s3.6 1.58 3.6 3.6-1.58 3.59-3.6 3.59zM206.35 91.47a10.54 10.54 0 100 21.11c5.84 0 10.55-4.71 10.55-10.55a10.4 10.4 0 00-10.55-10.56zm0 13.93a3.55 3.55 0 01-3.6-3.6c0-2.02 1.58-3.59 3.6-3.59s3.6 1.57 3.6 3.6c0 2.02-1.58 3.59-3.6 3.59zM172.03 137.06h-6.97v6.96h6.97v-6.96zM161.47 98.44h-6.96v6.96h6.96v-6.96zM175.56 98.44h-6.96v6.96h6.96v-6.96zM189.65 98.44h-6.96v6.96h6.96v-6.96zM185.95 137.06h-6.96v6.96h6.96v-6.96zM210.65 137.06h-17.52v6.96h17.52v-6.96zM168.43 70.37h-6.96v6.96h6.96v-6.96zM196.41 70.37h-6.96v6.96h6.96v-6.96zM224.51 70.37h-6.96v6.96h6.96v-6.96zM182.35 70.37h-6.96v6.96h6.96v-6.96zM210.33 70.37h-6.96v6.96h6.96v-6.96zM238.43 70.37h-6.96v6.96h6.96v-6.96zM66.7 144.02h-6.95v6.96h6.96v-6.96z" fill="#000"/></mask><g mask="url(#a)"><path fill="url(#paint1_linear)" d="M-19.94-20.85h443.26v297.32H-19.94z"/></g><defs><linearGradient id="paint0_linear" x1="250.5" y1="43.5" x2="295.5" y2="194.89" gradientUnits="userSpaceOnUse"><stop offset=".55" stop-color="#fff"/><stop offset="1" stop-color="#fff" stop-opacity="0"/></linearGradient><linearGradient id="paint1_linear" x1="381.17" y1="177.21" x2=".36" y2="134.58" gradientUnits="userSpaceOnUse"><stop stop-color="#4CADF1"/><stop offset=".34" stop-color="#516DFF"/><stop offset="1" stop-color="#FF3CD4"/></linearGradient></defs></svg>