<svg xmlns="http://www.w3.org/2000/svg" fill="none" viewBox="0 0 144 113"><g id="many events"><mask id="mask0" width="134" height="107" x="3" y="3" mask-type="alpha" maskUnits="userSpaceOnUse"><g id="Group 4" fill="#000"><path id="29" d="M47.9 46.2a132 132 0 0 0 19.8-13c2.1-1.8 3.7-3.7 4.7-5.6 1-2 1.5-4.1 1.5-6.4 0-4.3-1.8-6.5-5.3-6.5-1.7 0-3.1.6-4.1 1.8a7.4 7.4 0 0 0-1.5 4.9c0 1.1.2 2.4.5 4l-15.6-1.5a23 23 0 0 1-.4-4c0-3.5 1-6.4 2.7-9 1.8-2.5 4.4-4.4 7.7-5.8a30 30 0 0 1 11.5-2C76 3 81.1 4.4 84.8 7.3c3.6 3 5.4 7.1 5.4 12.4 0 6.9-2.7 12.6-8.2 17.3a62.2 62.2 0 0 1-13.2 8.2h21.9V57H47.9V46.2zM113.6 3c7.2 0 12.8 2.3 16.7 6.9 4 4.5 5.9 11.1 5.9 19.9 0 9.3-2 16.3-5.8 21.1-3.9 4.8-9.6 7.2-17.3 7.2-5.6 0-10.2-1.2-13.7-3.6-3.4-2.5-5.5-6-6.3-10.6l14.3-2.4a6.3 6.3 0 0 0 6.5 5c2.4 0 4.3-1 5.7-3.2 1.4-2.2 2.1-5.2 2.2-9.3a11.3 11.3 0 0 1-4.9 3.6 18 18 0 0 1-6.5 1.2c-3.7 0-7-.8-9.7-2.2a15.5 15.5 0 0 1-6.3-6.1 18.1 18.1 0 0 1-2.2-9 17 17 0 0 1 10-16.1c3.2-1.6 7-2.4 11.4-2.4zm0 25a9 9 0 0 0 8.2-5.3c-.1-2.7-.8-4.9-2.2-6.4a7 7 0 0 0-5.7-2.5c-2.2 0-4 .7-5.3 2a7 7 0 0 0-2 5.3c0 2 .6 3.6 1.9 5 1.3 1.3 3 2 5 2z"/><path id="Distinguished Events" d="M3.3 70.7H9c1.4 0 2.6.3 3.6 1a6 6 0 0 1 2.5 2.4c.6 1 .9 2.3.9 3.7 0 1.4-.3 2.6-.9 3.7-.6 1.1-1.4 2-2.5 2.5-1 .6-2.3 1-3.7 1H3.3V70.6zm5.5 11.8c.8 0 1.4-.2 2-.7.5-.4 1-1 1.3-1.7.3-.7.4-1.5.4-2.3 0-1.4-.3-2.5-1-3.3a3.2 3.2 0 0 0-2.7-1.3H6.7v9.3h2zm8.5-7.6h3.2v10h-3.2V75zm0-4.3h3.3v2.9h-3.3v-3zm9.2 14.6a7 7 0 0 1-3-.6c-.8-.4-1.5-1-2-1.8l2-1.4c.6 1 1.7 1.6 3 1.6.6 0 1 0 1.2-.2.3-.2.4-.4.4-.7 0-.3 0-.5-.3-.6-.2-.2-.5-.3-1-.4l-1.5-.2c-2.2-.3-3.2-1.3-3.2-3 0-1 .4-1.8 1.1-2.3.8-.6 2-.9 3.3-.9 1 0 2 .2 2.7.5a4 4 0 0 1 1.8 1.5l-1.6 1.5a3.8 3.8 0 0 0-3-1.4l-1 .2c-.3.2-.4.4-.4.7 0 .2 0 .4.2.5.2.2.5.3 1 .3l1.7.3c1 .1 1.8.5 2.3 1 .5.5.7 1.2.7 2 0 1.1-.4 2-1.2 2.5-.7.6-1.8.9-3.2.9zm4.6-10.3H33v-2.4l3.2-1.2v3.6h2.3v2.2h-2.3V81c0 1 .4 1.5 1.4 1.5l1-.1v2.5c-.8.2-1.4.2-1.9.2-1.3 0-2.2-.2-2.8-.8-.6-.6-1-1.4-1-2.6v-4.6h-1.7v-2.2zm8.6 0h3.2v10h-3.2V75zm0-4.3H43v2.9h-3.4v-3zm5.3 4.3h3v2c.8-1.5 1.9-2.2 3.4-2.2 1 0 1.9.3 2.4 1 .6.7.8 1.7.8 3V85h-3.2v-5.7c0-.7 0-1.2-.3-1.6-.3-.3-.6-.5-1.2-.5-.5 0-1 .2-1.3.7a3 3 0 0 0-.4 1.7V85H45V75zm21.4.5l-.9-.1c-.5 0-1 .1-1.3.4a3 3 0 0 1 0 4.9c-.9.5-2 .8-3.4.8-.8 0-1.4 0-2-.3l-.3.6c0 .5.4.8 1.3.8h2.8c1.2 0 2.2.2 2.8.7.6.5 1 1.3 1 2.2a3 3 0 0 1-1.6 2.7c-1 .7-2.4 1-4.2 1-1.7 0-2.9-.2-3.7-.7-.9-.4-1.3-1-1.3-1.7 0-.4.2-.8.5-1.1a3 3 0 0 1 1.3-.7c-1-.4-1.4-1-1.4-1.9 0-.5.1-1 .5-1.4a3 3 0 0 1 1.3-.9c-.5-.3-.9-.7-1.2-1.1a3 3 0 0 1-.4-1.6c0-1 .4-1.8 1.3-2.4.8-.6 2-.9 3.3-.9.9 0 1.6.1 2.3.4.2-.6.5-1 1-1.4.5-.3 1.1-.5 2-.5h.3v2.2zm-5.6 4.4c.5 0 .8-.2 1.1-.5.3-.3.5-.7.5-1.3 0-.5-.2-.9-.5-1.2-.2-.3-.6-.5-1-.5-.6 0-1 .2-1.2.5-.3.3-.4.7-.4 1.2 0 .6 0 1 .4 1.3.3.3.6.5 1.1.5zm-1.7 5.4h-.7c-.3.2-.4.5-.4.9 0 .8 1 1.2 2.7 1.2 2 0 3-.4 3-1.2 0-.6-.5-1-1.4-1H59zm11.4 0c-2.2 0-3.4-1.3-3.4-3.8V75h3.2v6c0 .6.2 1 .4 1.4.3.3.6.4 1 .4.6 0 1-.1 1.3-.5.3-.4.5-1 .5-1.5v-5.8h3.2v10h-3v-1.8a3 3 0 0 1-1.3 1.5c-.5.4-1.2.6-1.9.6zm8.3-10.3H82v10h-3.2V75zm0-4.3H82v2.9h-3.4v-3zM88 85.2a7 7 0 0 1-3-.6c-.9-.4-1.5-1-2-1.8l1.9-1.4c.7 1 1.7 1.6 3.1 1.6.5 0 1 0 1.2-.2.2-.2.4-.4.4-.7 0-.3-.1-.5-.3-.6-.2-.2-.6-.3-1.1-.4l-1.5-.2c-2.1-.3-3.2-1.3-3.2-3 0-1 .4-1.8 1.2-2.3.8-.6 1.9-.9 3.2-.9 1 0 2 .2 2.8.5a4 4 0 0 1 1.8 1.5l-1.7 1.5a3.8 3.8 0 0 0-3-1.4l-1 .2c-.3.2-.4.4-.4.7 0 .2.1.4.3.5.2.2.5.3 1 .3l1.7.3c1 .1 1.8.5 2.3 1 .4.5.7 1.2.7 2 0 1.1-.4 2-1.2 2.5-.8.6-1.9.9-3.2.9zm5.7-14.8h3.2v6.3c.6-1.4 1.7-2 3.2-2 1 0 1.9.3 2.4 1 .6.7.8 1.7.8 3V85h-3.2V79c0-1.2-.4-1.9-1.4-1.9-.6 0-1 .2-1.4.7a3 3 0 0 0-.4 1.8v5.3h-3.2V70.4zm20.8 10.3h-7c0 .6.3 1.2.7 1.6.4.4 1 .6 1.7.6 1 0 1.7-.5 2.1-1.4l2.4 1c-.4.9-1 1.5-1.8 2s-1.7.7-2.8.7c-1.6 0-3-.5-3.9-1.4a5 5 0 0 1-1.4-3.8c0-1 .2-2 .6-2.8.4-.8 1-1.4 1.8-1.8.8-.5 1.7-.7 2.7-.7 1.6 0 2.8.4 3.6 1.3a5 5 0 0 1 1.3 3.7v1zm-3.1-2c0-.6-.2-1.2-.5-1.5-.3-.4-.8-.6-1.4-.6-.6 0-1 .2-1.4.6-.3.4-.5 1-.5 1.7h3.8v-.1zm8 6.5c-.9 0-1.6-.2-2.2-.7-.6-.4-1-1-1.4-1.8a7 7 0 0 1-.5-2.7c0-1 .2-2 .5-2.8.4-.8.9-1.4 1.5-1.8.6-.5 1.4-.7 2.2-.7.7 0 1.2.1 1.7.4.5.3.9.7 1.1 1.2v-5.9h3.2V85h-3v-1.7c-.3.6-.7 1.1-1.2 1.5-.6.3-1.2.5-2 .5zm1.2-2.2c.5 0 1-.3 1.3-.7.3-.5.5-1 .5-1.9v-.8c0-.9-.2-1.5-.5-2-.3-.4-.8-.7-1.4-.7-.6 0-1 .3-1.4.8-.3.5-.5 1.3-.5 2.2 0 1 .2 1.7.5 2.3.4.5.9.8 1.5.8zM13.2 106.4v2.5H3.3V94.7H13v2.5H6.7v3.2h6v2.5h-6v3.5h6.5zm.2-7.5h3.3l1.7 6 .3 1.4.3-1.5 1.6-5.9H24l-3.5 10H17l-3.5-10zm20.2 5.8h-7c0 .6.3 1.2.7 1.6.4.4 1 .6 1.7.6 1 0 1.7-.5 2.1-1.4l2.4 1c-.4.9-1 1.5-1.8 2s-1.7.7-2.8.7c-1.6 0-3-.5-3.9-1.4a5 5 0 0 1-1.4-3.8c0-1 .2-2 .6-2.8.5-.8 1-1.4 1.8-1.8.8-.5 1.7-.7 2.7-.7 1.6 0 2.8.4 3.6 1.3.9.9 1.3 2.1 1.3 3.7v1zm-3.1-2c0-.6-.2-1.2-.5-1.5-.3-.4-.8-.6-1.4-.6-.6 0-1 .2-1.4.6-.3.4-.5 1-.5 1.7h3.8v-.1zM35 99h3v2c.8-1.5 1.9-2.2 3.4-2.2 1 0 2 .3 2.5 1s.8 1.7.8 3v6.2h-3.2v-5.7c0-.7-.2-1.2-.4-1.6-.2-.3-.6-.5-1.1-.5-.6 0-1 .2-1.3.7a3 3 0 0 0-.5 1.7v5.4H35V99zm10.2 0h1.7v-2.4l3.2-1.2v3.6h2.4v2.2H50v3.9c0 1 .5 1.5 1.5 1.5l.9-.1v2.5c-.7.2-1.3.2-1.8.2-1.3 0-2.3-.2-2.9-.8-.6-.6-.9-1.4-.9-2.6v-4.6h-1.7v-2.2zm12.5 10.3a7 7 0 0 1-3-.6c-.8-.4-1.5-1-2-1.8l2-1.4c.6 1 1.7 1.6 3 1.6.6 0 1 0 1.2-.2.3-.2.4-.4.4-.7 0-.3 0-.5-.3-.6-.2-.2-.5-.3-1-.4l-1.5-.2c-2.1-.3-3.2-1.3-3.2-3 0-1 .4-1.8 1.2-2.3.7-.6 1.8-.9 3.2-.9 1 0 2 .2 2.7.5a4 4 0 0 1 1.8 1.5l-1.6 1.5a3.8 3.8 0 0 0-3-1.4l-1 .2c-.3.2-.4.4-.4.7 0 .2 0 .4.3.5.1.2.4.3.9.3l1.8.3c1 .1 1.7.5 2.2 1 .5.5.7 1.2.7 2 0 1.1-.4 2-1.1 2.5-.8.6-1.9.9-3.3.9z"/><path id="Vector" d="M39.7 24.3H9.3c-.7 0-1.3-.6-1.3-1.3 0-.7.6-1.3 1.3-1.3h14v-1.3a1.3 1.3 0 0 1 1.2-1.4 1.3 1.3 0 0 1 1.4 1.4v1.3h13.8a1.3 1.3 0 0 1 0 2.6zm0 21.2H9.3V25.6h30.4v19.9zM13.3 34.9a5.3 5.3 0 1 0 10.5 0h-5.2v-5.3c-3 0-5.3 2.4-5.3 5.3zm14.5-5.3h-1.3V31h1.3v-1.3zm0 2.7h-1.3v1.3h1.3v-1.3zm0 2.6h-1.3v1.3h1.3V35zm0 2.6h-1.3V39h1.3v-1.4zm0 2.7h-1.3v1.3h1.3v-1.3zm8-10.6H29V31h6.6v-1.3zm0 2.7H29v1.3h6.6v-1.3zm0 2.6H29v1.3h6.6V35zm0 2.6H29V39h6.6v-1.4zm0 2.7H29v1.3h6.6v-1.3zM20.8 52h3v-6.6h1.3V52h3l-3-6.6h2.6l5.3 11.9h-2.6l-1.8-4h-3.5V60h-1.3v-6.6h-3.6l-1.8 4H16l5.3-12H24l-3 6.7z"/></g></mask><g mask="url(#mask0)"><path id="grad overlay" fill="url(#paint0_linear)" d="M0 0h144v124H0z"/></g></g><defs><linearGradient id="paint0_linear" x1="128" x2="-7.1" y1="99.5" y2="3.4" gradientUnits="userSpaceOnUse"><stop stop-color="#4CC0F1"/><stop offset="1" stop-color="#6929D1"/></linearGradient></defs></svg>