<svg xmlns="http://www.w3.org/2000/svg" fill="none" viewBox="0 0 224 148"><g id="oss + education"><mask id="mask0" width="211" height="129" x="8" y="5" mask-type="alpha" maskUnits="userSpaceOnUse"><g id="Group"><path id="Built on open source Deep educational resources" fill="#000" d="M51.6 103.5c.7.1 1.2.4 1.5.8.4.5.6 1 .6 1.8 0 .5-.1 1-.4 1.4-.2.4-.5.8-1 1-.6.4-1.3.5-2.1.5h-4V98.3h3.7c1.2 0 2.1.3 2.7.9.5.5.8 1.2.8 2 0 .5-.2 1-.5 1.4-.3.4-.7.7-1.3.9zm-4-4v3.5h2.3c1.4 0 2-.6 2-1.7 0-.5 0-1-.4-1.3-.3-.3-.9-.5-1.6-.5h-2.3zm2.5 8.3c.8 0 1.3-.2 1.7-.5.3-.4.5-.8.5-1.4 0-.5-.2-1-.5-1.2-.4-.4-.9-.5-1.6-.5h-2.6v3.6H50zm8 1.4c-1 0-1.6-.3-2-.8-.4-.5-.6-1.2-.6-2.1v-4.8h1.3v4.6c0 .7.1 1.2.4 1.5.2.3.6.5 1.1.5.6 0 1-.3 1.5-.7.3-.5.5-1.1.5-1.9v-4h1.3v7.5h-1.2v-1.4c-.2.5-.5.8-1 1.1-.3.3-.8.5-1.3.5zm6-7.7h1.3v7.5h-1.3v-7.5zm0-3h1.4v1.6h-1.4v-1.6zm5.2 10.5H68V98.1h1.3V109zm1.5-7.5h1.4v-2l1.3-.5v2.5h1.9v1h-2v4.2c0 .4.2.8.3 1l.9.2h.8v1.1l-1.1.1c-.8 0-1.3-.2-1.6-.6a3 3 0 0 1-.5-1.8v-4.2h-1.4v-1zm12.8 7.7c-.7 0-1.3-.2-1.8-.5s-1-.8-1.2-1.4c-.3-.5-.4-1.2-.4-2 0-.9 0-1.6.4-2.1.3-.6.7-1 1.2-1.4.5-.3 1.1-.5 1.8-.5s1.4.2 1.9.5 1 .8 1.2 1.4c.3.5.4 1.2.4 2 0 .9-.1 1.6-.4 2.1-.3.6-.7 1-1.2 1.4-.5.3-1.2.5-1.9.5zm0-1.1c.7 0 1.3-.3 1.6-.8.4-.4.6-1.1.6-2 0-1-.2-1.7-.6-2.1-.3-.5-.9-.8-1.6-.8a2 2 0 0 0-1.5.8c-.4.4-.6 1.1-.6 2 0 1 .2 1.7.6 2.1.3.5.9.8 1.5.8zm5.4-6.6h1.2v1.5c.5-1.1 1.3-1.7 2.5-1.7.8 0 1.5.3 1.9.8.4.5.6 1.2.6 2.2v4.7H94v-4.6c0-1.3-.5-2-1.6-2-.6 0-1.1.3-1.5.7-.3.5-.5 1.2-.5 2v3.9H89v-7.5zm15.1 7.7c-.7 0-1.3-.2-1.8-.5-.6-.3-1-.8-1.3-1.4-.2-.5-.4-1.2-.4-2 0-.9.2-1.6.4-2.1.3-.6.7-1 1.3-1.4.5-.3 1.1-.5 1.8-.5s1.3.2 1.9.5c.5.3.9.8 1.2 1.4.3.5.4 1.2.4 2 0 .9-.1 1.6-.4 2.1-.3.6-.7 1-1.2 1.4-.6.3-1.2.5-1.9.5zm0-1.1c.7 0 1.2-.3 1.6-.8.4-.4.6-1.1.6-2 0-1-.2-1.7-.6-2.1-.4-.5-1-.8-1.6-.8a2 2 0 0 0-1.6.8c-.3.4-.5 1.1-.5 2 0 1 .2 1.7.5 2.1.4.5 1 .8 1.6.8zm5.4-6.6h1.2v1.4c.2-.5.5-1 1-1.2.4-.2.9-.4 1.4-.4.6 0 1.2.2 1.6.5.5.3.8.8 1 1.4a5 5 0 0 1 0 4.1c-.2.6-.6 1-1 1.4-.5.3-1 .5-1.7.5-.5 0-1-.2-1.4-.4-.4-.3-.7-.6-.8-1v4.1h-1.3v-10.4zm3.2 6.6c.7 0 1.2-.3 1.5-.8.4-.5.6-1.2.6-2 0-1-.2-1.6-.5-2.1-.4-.5-.9-.8-1.5-.8s-1.1.3-1.5.8a3 3 0 0 0-.6 1.9v.3c0 .8.2 1.5.6 2 .3.4.8.7 1.4.7zm11.3-2.5h-5.4c0 .8.2 1.3.6 1.8.5.4 1 .7 1.7.7a2 2 0 0 0 1.2-.4l.8-1 1 .4c-.2.7-.6 1.2-1.2 1.6-.5.3-1.2.5-2 .5-1 0-1.8-.4-2.4-1-.6-.7-1-1.6-1-2.9 0-1.2.4-2.2 1-3 .6-.6 1.4-1 2.5-1 1 0 1.8.3 2.3.9.6.6.9 1.4.9 2.5v1zm-1.3-1.2c0-.7-.2-1.2-.5-1.5-.4-.4-.8-.6-1.5-.6a2 2 0 0 0-1.5.6c-.4.4-.5 1-.6 1.7h4v-.2zm3.2-2.9h1.2v1.5c.5-1.1 1.3-1.7 2.5-1.7.8 0 1.5.3 1.9.8.4.5.6 1.2.6 2.2v4.7h-1.3v-4.6c0-1.3-.5-2-1.6-2-.6 0-1.1.3-1.5.7-.3.5-.5 1.2-.5 2v3.9h-1.3v-7.5zm14.8 7.7c-1 0-1.7-.2-2.2-.7-.6-.4-1-1-1-1.8l1.2-.2c.1.5.4 1 .7 1.2.3.3.8.4 1.3.4a2 2 0 0 0 1.2-.3c.3-.2.4-.4.4-.8s-.1-.6-.3-.8c-.2-.2-.5-.3-.9-.4l-1.2-.1c-.7 0-1.3-.3-1.6-.7a2 2 0 0 1-.6-1.5c0-.6.3-1.2.8-1.6.5-.4 1.2-.6 2-.6.9 0 1.6.2 2.1.7.6.4.9 1 1 1.6l-1.3.3c0-.5-.3-.9-.6-1.1-.3-.3-.7-.4-1.2-.4a2 2 0 0 0-1.2.3 1 1 0 0 0-.4.8c0 .6.5 1 1.4 1.1l1.2.2c1.4.1 2 .8 2 2a2 2 0 0 1-.7 1.8c-.5.4-1.2.6-2.1.6zm7.6 0c-.7 0-1.3-.2-1.9-.5-.5-.3-1-.8-1.2-1.4-.3-.5-.4-1.2-.4-2 0-.9.1-1.6.4-2.1.3-.6.7-1 1.2-1.4.6-.3 1.2-.5 1.9-.5s1.3.2 1.8.5 1 .8 1.2 1.4c.3.5.5 1.2.5 2 0 .9-.2 1.6-.5 2.1-.2.6-.7 1-1.2 1.4-.5.3-1.1.5-1.8.5zm0-1.1c.7 0 1.2-.3 1.5-.8.4-.4.6-1.1.6-2 0-1-.2-1.7-.6-2.1-.3-.5-.8-.8-1.5-.8a2 2 0 0 0-1.6.8c-.4.4-.6 1.1-.6 2 0 1 .2 1.7.6 2.1.4.5.9.8 1.6.8zm7.7 1c-1 0-1.6-.2-2-.7-.4-.5-.6-1.2-.6-2.1v-4.8h1.3v4.6c0 .7.1 1.2.4 1.5.2.3.6.5 1.1.5.6 0 1.1-.3 1.5-.7.3-.5.5-1.1.5-1.9v-4h1.3v7.5h-1.2v-1.4c-.2.5-.5.8-.9 1.1-.4.3-.9.5-1.4.5zm7.2-5.9c.2-.5.5-1 1-1.4a2 2 0 0 1 1.6-.5v1.3c-.8 0-1.3.2-1.7.6-.3.3-.5.7-.6 1l-.2 1.6v3.2h-1.2v-7.5h1.1v1.7zm6.7 6c-.7 0-1.3-.2-1.9-.5-.5-.3-.9-.8-1.2-1.4-.3-.6-.4-1.3-.4-2 0-1.3.3-2.2 1-3 .5-.6 1.4-1 2.5-1a3 3 0 0 1 2 .7 3 3 0 0 1 1 2l-1.3.2c0-.6-.2-1-.5-1.3-.4-.3-.8-.5-1.3-.5-.6 0-1.1.3-1.5.8-.4.5-.5 1.2-.5 2 0 1 .1 1.6.5 2.1s.9.8 1.6.8c.5 0 .9-.2 1.2-.5.3-.3.5-.7.6-1.3l1.2.2c-.1.8-.5 1.5-1 2a3 3 0 0 1-2 .7zm10.8-3.6h-5.3c0 .8.2 1.3.6 1.8.4.4 1 .7 1.7.7a2 2 0 0 0 1.2-.4l.8-1 1 .4c-.3.7-.7 1.2-1.2 1.6-.5.3-1.2.5-2 .5-1 0-1.9-.4-2.5-1-.6-.7-.9-1.6-.9-2.9 0-1.2.3-2.2 1-3 .5-.6 1.4-1 2.5-1 1 0 1.8.3 2.3.9.6.6.8 1.4.8 2.5v1zm-1.2-1.2c0-.7-.2-1.2-.6-1.5-.3-.4-.8-.6-1.4-.6a2 2 0 0 0-1.5.6c-.4.4-.6 1-.6 1.7h4v-.2zM22 120.4h3.5c1 0 1.9.2 2.6.6.8.5 1.4 1 1.8 1.9.4.8.6 1.7.6 2.8 0 1-.2 2-.6 2.7-.4.8-1 1.5-1.8 2-.8.4-1.7.6-2.7.6h-3.4v-10.7zm3.4 9.4c.7 0 1.4-.2 2-.5.5-.4.9-1 1.2-1.5a5 5 0 0 0 .4-2.1c0-.8-.1-1.5-.4-2.2-.3-.6-.7-1-1.3-1.4-.5-.4-1.1-.5-1.9-.5h-2v8.2h2zm13-2.2H33c0 .8.2 1.3.6 1.8.4.4 1 .7 1.6.7a2 2 0 0 0 1.3-.4l.7-1 1 .4c-.2.7-.6 1.2-1.1 1.6-.6.3-1.2.5-2 .5-1 0-1.9-.3-2.5-1-.6-.7-.9-1.6-.9-2.9 0-1.2.3-2.2 1-3 .5-.6 1.3-1 2.4-1 1 0 1.8.3 2.4.9.5.6.8 1.4.8 2.5v1zm-1.4-1.2c0-.7-.1-1.2-.5-1.5-.3-.4-.8-.6-1.4-.6a2 2 0 0 0-1.5.6c-.4.4-.6 1-.6 1.7h4v-.2zm9.2 1.2H41c0 .8.2 1.3.6 1.8.4.4 1 .7 1.6.7a2 2 0 0 0 1.2-.4c.4-.3.6-.6.8-1l1 .4c-.2.7-.6 1.2-1.2 1.6-.5.3-1.1.5-1.9.5-1 0-2-.3-2.5-1-.6-.7-1-1.6-1-2.9 0-1.2.4-2.2 1-3 .6-.6 1.4-1 2.5-1 1 0 1.8.3 2.3.9.6.6.9 1.4.9 2.5v1zm-1.3-1.2c0-.7-.2-1.2-.5-1.5-.3-.4-.8-.6-1.4-.6a2 2 0 0 0-1.6.6c-.3.4-.5 1-.5 1.7h4v-.2zm3.2-2.9h1.2v1.4c.3-.5.6-1 1-1.2.5-.2 1-.4 1.5-.4.6 0 1.1.2 1.6.5.4.3.8.8 1 1.4.3.6.4 1.3.4 2a5 5 0 0 1-.4 2.1c-.2.6-.6 1-1 1.4-.6.3-1 .5-1.7.5-.5 0-1-.1-1.4-.4-.4-.3-.7-.6-.9-1v4.1h-1.3v-10.4zm3.3 6.6c.7 0 1.2-.3 1.5-.8.4-.5.6-1.2.6-2 0-1-.2-1.6-.6-2.1-.3-.5-.8-.8-1.4-.8-.7 0-1.2.3-1.6.8a3 3 0 0 0-.5 1.9v.3c0 .8.2 1.5.5 2 .4.4.9.7 1.5.7zm15-2.5H61c0 .8.3 1.3.7 1.8.4.4.9.7 1.6.7a2 2 0 0 0 1.2-.4l.8-1 1 .4c-.2.7-.6 1.2-1.2 1.6-.5.3-1.2.5-2 .5-1 0-1.8-.3-2.4-1-.6-.7-1-1.6-1-2.9 0-1.2.4-2.2 1-3 .6-.6 1.4-1 2.5-1 1 0 1.8.3 2.3.9.6.6.9 1.4.9 2.5v1zm-1.3-1.2c0-.7-.2-1.2-.5-1.5-.4-.4-.8-.6-1.5-.6a2 2 0 0 0-1.5.6c-.4.4-.5 1-.6 1.7h4v-.2zm5.6 4.8c-.6 0-1.1-.2-1.6-.5s-.8-.8-1-1.4a4.8 4.8 0 0 1 0-4c.2-.7.6-1.1 1-1.5.6-.3 1.1-.5 1.7-.5 1 0 1.8.5 2.2 1.3v-4.5h1.3V131h-1.2v-1.4c-.2.5-.5 1-1 1.2-.3.2-.8.4-1.4.4zm.3-1.1c.7 0 1.1-.3 1.5-.8a3 3 0 0 0 .6-1.9v-.3a3 3 0 0 0-.6-2c-.3-.4-.8-.7-1.5-.7-.6 0-1.1.3-1.5.8-.3.5-.5 1.2-.5 2 0 1 .2 1.6.5 2.1.4.5.9.8 1.5.8zm8.3 1c-1 0-1.6-.2-2-.7-.4-.5-.6-1.2-.6-2.1v-4.8h1.3v4.6c0 .7.1 1.2.4 1.5.2.3.6.5 1.1.5.6 0 1.1-.3 1.5-.7.3-.5.5-1.1.5-1.9v-4H83v7.5h-1.2v-1.4c-.2.5-.5.8-.9 1.1-.4.3-.9.5-1.4.5zm8.8 0c-.7 0-1.3 0-1.8-.4-.5-.3-1-.8-1.2-1.4-.3-.6-.4-1.3-.4-2 0-1.3.3-2.2.9-3 .6-.6 1.5-1 2.5-1a3 3 0 0 1 2.2.7 3 3 0 0 1 1 2l-1.4.2c0-.6-.2-1-.6-1.3-.3-.3-.7-.5-1.2-.5-.6 0-1.2.3-1.5.8-.4.5-.6 1.2-.6 2 0 1 .2 1.6.6 2.1.4.5.9.8 1.5.8s1-.2 1.3-.5c.3-.3.5-.7.6-1.3l1.2.2c-.1.8-.5 1.5-1 2a3 3 0 0 1-2 .7zm6.8 0c-.8 0-1.4-.1-1.9-.5a2 2 0 0 1-.6-1.6c0-.4 0-.7.2-1 .2-.4.5-.6.8-.8l1-.4 1.5-.2 1.4-.2c0-.8-.1-1.3-.4-1.6-.2-.3-.6-.4-1.2-.4-.5 0-1 .1-1.2.4-.3.2-.5.6-.5 1h-1.4c0-.7.3-1.3.9-1.8.6-.5 1.3-.7 2.2-.7 1 0 1.7.3 2.2.8.5.5.7 1.3.7 2.3v2c0 1.2.1 2 .3 2.6h-1.4v-1.4c-.3.5-.6.9-1 1.2a3 3 0 0 1-1.6.4zm.3-1a2 2 0 0 0 1.5-.6c.4-.5.6-1 .6-1.8v-.3l-2 .3c-.6 0-1 .2-1.2.4a1 1 0 0 0-.4.8c0 .4.1.7.4 1l1 .2zm4.3-6.6h1.4v-2l1.3-.5v2.5h1.9v1h-1.9v4.2c0 .4.1.8.3 1l.8.2h.8v1.1l-1.1.1c-.8 0-1.3-.2-1.6-.6a3 3 0 0 1-.5-1.8v-4.1h-1.4v-1.1zm6.3 0h1.3v7.5h-1.3v-7.5zm0-3h1.4v1.6h-1.5v-1.6zm6.7 10.7c-.7 0-1.4-.2-1.9-.5s-1-.8-1.2-1.3c-.3-.6-.4-1.3-.4-2.2 0-.8.1-1.5.4-2 .3-.6.7-1 1.2-1.4.5-.3 1.2-.5 1.9-.5s1.3.2 1.8.5 1 .8 1.2 1.4c.3.5.4 1.2.4 2 0 .9-.1 1.6-.4 2.1-.3.6-.7 1-1.2 1.4-.5.3-1.1.5-1.8.5zm0-1.1c.6 0 1.2-.3 1.5-.8.4-.4.6-1.1.6-2 0-1-.2-1.7-.6-2.1-.3-.5-.9-.8-1.5-.8a2 2 0 0 0-1.6.8c-.4.4-.6 1.1-.6 2 0 1 .2 1.7.6 2.1.3.5.9.8 1.6.8zm5.3-6.6h1.2v1.5c.5-1.1 1.3-1.7 2.5-1.7.9 0 1.5.3 1.9.8.4.5.6 1.2.6 2.2v4.7H123v-4.6c0-1.3-.6-2-1.7-2-.6 0-1.1.3-1.5.7-.3.5-.5 1.2-.5 2v3.9h-1.3v-7.5zm10.4 7.7c-.8 0-1.4-.2-1.8-.6a2 2 0 0 1-.7-1.6c0-.4 0-.7.2-1 .2-.4.5-.6.8-.8l1-.4 1.5-.2 1.4-.2c0-.8 0-1.3-.3-1.6-.3-.3-.7-.4-1.3-.4-.5 0-1 .1-1.2.4-.3.2-.5.6-.5 1H126c0-.7.4-1.3 1-1.8.5-.5 1.2-.7 2-.7 1.1 0 1.9.3 2.3.8.5.5.7 1.3.7 2.3v2c0 1.2.1 2 .3 2.6H131l-.2-1.4c-.1.5-.4.9-.9 1.2a3 3 0 0 1-1.6.4zm.3-1a2 2 0 0 0 1.6-.7c.4-.5.6-1 .6-1.8v-.3l-2 .3c-.6 0-1 .2-1.3.4a1 1 0 0 0-.4.8c0 .4.2.7.4 1l1.1.2zm7.1.8h-1.2v-10.9h1.2V131zm7.6-5.8c.2-.5.5-1 .9-1.4a2 2 0 0 1 1.7-.5v1.3h-.1c-.7 0-1.3.2-1.7.6-.3.3-.5.7-.6 1l-.1 1.6v3.2H142v-7.5h1.2v1.7zm9.8 2.4h-5.4c0 .8.3 1.3.7 1.8.4.4.9.7 1.6.7a2 2 0 0 0 1.2-.4l.8-1 1 .4c-.2.7-.6 1.2-1.2 1.6-.5.3-1.2.5-2 .5-1 0-1.8-.3-2.4-1-.6-.7-1-1.6-1-2.9 0-1.2.4-2.2 1-3 .6-.6 1.4-1 2.5-1 1 0 1.8.3 2.3.9.6.6.9 1.4.9 2.5v1zm-1.3-1.2c0-.7-.2-1.2-.5-1.5-.4-.4-.8-.6-1.5-.6a2 2 0 0 0-1.5.6c-.4.4-.5 1-.6 1.7h4v-.2zm5.7 4.8c-.9 0-1.6-.2-2.2-.7-.6-.4-1-1-1-1.8l1.3-.2c0 .5.3 1 .6 1.2.4.3.8.4 1.4.4a2 2 0 0 0 1.1-.3c.3-.2.4-.4.4-.8s0-.6-.3-.8c-.2-.2-.5-.3-.9-.4l-1.2-.1c-.7 0-1.3-.3-1.6-.7a2 2 0 0 1-.6-1.5c0-.6.3-1.2.8-1.6.5-.4 1.2-.6 2-.6 1 0 1.6.2 2.2.7.5.4.8 1 .9 1.6l-1.3.3c0-.5-.3-.9-.6-1.1-.3-.3-.7-.4-1.2-.4a2 2 0 0 0-1.1.3 1 1 0 0 0-.4.8c0 .6.4 1 1.3 1.1l1.2.2c1.4.1 2 .8 2 2a2 2 0 0 1-.7 1.8c-.5.4-1.2.6-2 .6zm7.6 0c-.7 0-1.3-.2-1.8-.5-.6-.3-1-.8-1.3-1.3-.3-.6-.4-1.3-.4-2.2 0-.8.1-1.5.4-2 .3-.6.7-1 1.3-1.4.5-.3 1.1-.5 1.8-.5s1.3.2 1.8.5c.6.3 1 .8 1.3 1.4.2.5.4 1.2.4 2 0 .9-.2 1.6-.4 2.1-.3.6-.7 1-1.3 1.4-.5.3-1.1.5-1.8.5zm0-1.1c.7 0 1.2-.3 1.6-.8.4-.4.5-1.1.5-2 0-1-.1-1.7-.5-2.1-.4-.5-1-.8-1.6-.8a2 2 0 0 0-1.6.8c-.4.4-.5 1.1-.5 2 0 1 .1 1.7.5 2.1.4.5 1 .8 1.6.8zm7.7 1c-.9 0-1.6-.2-2-.7-.4-.5-.6-1.2-.6-2.1v-4.8h1.3v4.6c0 .7.1 1.2.4 1.5.3.3.7.5 1.1.5.6 0 1.1-.3 1.5-.7.4-.5.6-1.1.6-1.9v-4h1.2v7.5h-1.2v-1.4c-.1.5-.4.8-.9 1.1-.4.3-.9.5-1.4.5zm7.3-5.9c.2-.5.4-1 .8-1.4a2 2 0 0 1 1.7-.5v1.3c-.8 0-1.3.2-1.7.6-.3.3-.5.7-.6 1l-.1 1.6v3.2h-1.3v-7.5h1.2v1.7zm6.6 6a3.2 3.2 0 0 1-3-1.8c-.3-.7-.5-1.4-.5-2.1 0-1.3.3-2.2 1-3 .6-.6 1.4-1 2.5-1a3 3 0 0 1 2.1.7 3 3 0 0 1 1 2l-1.3.2c-.1-.6-.3-1-.6-1.3-.3-.3-.7-.5-1.3-.5-.6 0-1.1.3-1.5.8-.3.5-.5 1.2-.5 2 0 1 .2 1.6.5 2.1.4.5 1 .8 1.6.8.5 0 1-.2 1.2-.5.3-.3.5-.7.6-1.3l1.3.2c-.2.8-.5 1.5-1 2a3 3 0 0 1-2.1.7zm10.9-3.6h-5.4c0 .8.3 1.3.7 1.8.4.4 1 .7 1.6.7a2 2 0 0 0 1.2-.4c.4-.3.6-.6.8-1l1 .4c-.2.7-.6 1.2-1.2 1.6-.5.3-1.1.5-2 .5-1 0-1.8-.3-2.4-1-.6-.7-1-1.6-1-2.9 0-1.2.4-2.2 1-3 .6-.6 1.4-1 2.5-1 1 0 1.8.3 2.3.9.6.6.9 1.4.9 2.5v1zm-1.3-1.2c0-.7-.2-1.2-.5-1.5-.4-.4-.8-.6-1.5-.6a2 2 0 0 0-1.5.6c-.3.4-.5 1-.6 1.7h4v-.2zm5.7 4.8c-.9 0-1.6-.2-2.2-.7-.6-.4-.9-1-1-1.8l1.3-.2c0 .5.3 1 .6 1.2.4.3.8.4 1.4.4a2 2 0 0 0 1.1-.3c.3-.2.4-.4.4-.8s0-.6-.3-.8c-.2-.2-.5-.3-.9-.4l-1.2-.1c-.7 0-1.2-.3-1.6-.7a2 2 0 0 1-.6-1.5c0-.6.3-1.2.8-1.6.5-.4 1.2-.6 2-.6 1 0 1.6.2 2.2.7.5.4.8 1 1 1.6l-1.3.3c-.1-.5-.3-.9-.6-1.1-.3-.3-.8-.4-1.3-.4a2 2 0 0 0-1.1.3 1 1 0 0 0-.4.8c0 .6.4 1 1.3 1.1l1.2.2c1.4.1 2 .8 2 2a2 2 0 0 1-.7 1.8c-.5.4-1.2.6-2 .6z"/><path id="Vector" fill="#010101" fill-rule="evenodd" d="M115.3 21L100.1 5.6a2.2 2.2 0 0 0-3.2 0l-3.2 3.1 4 4a2.7 2.7 0 0 1 3.4 3.5l3.9 3.9a2.7 2.7 0 1 1-1.6 1.5L99.8 18v9.6a2.7 2.7 0 0 1 .3 4.6 2.7 2.7 0 1 1-2.5-4.7v-9.6a2.7 2.7 0 0 1-1.5-3.5l-4-4-10.4 10.5a2.3 2.3 0 0 0 0 3.2l15.2 15.2a2.3 2.3 0 0 0 3.2 0l15.2-15.2a2.3 2.3 0 0 0 0-3.2" clip-rule="evenodd"/><path id="Open Source" fill="#000" d="M22.5 29.3c-1.2 0-2.3-.3-3.1-.8a5.3 5.3 0 0 1-2.1-2.2c-.5-1-.8-2-.8-3.3 0-1.3.3-2.4.8-3.4s1.2-1.7 2-2.2c1-.5 2-.8 3.2-.8 1.2 0 2.2.3 3.1.8 1 .5 1.6 1.3 2.1 2.2.5 1 .7 2 .7 3.4 0 1.2-.2 2.4-.7 3.3-.5 1-1.2 1.7-2 2.2-1 .5-2 .8-3.2.8zm0-2.3c1 0 1.7-.3 2.2-1a5 5 0 0 0 .8-3 5 5 0 0 0-.8-3c-.5-.8-1.3-1.1-2.2-1.1-1 0-1.7.3-2.2 1a5 5 0 0 0-.8 3 5 5 0 0 0 .8 3c.5.8 1.3 1.1 2.2 1.1zm15.4-10c.9 0 1.6 0 2.3.4.7.3 1.2.8 1.5 1.3.4.6.6 1.3.6 2 0 1.2-.4 2.2-1.2 2.9-.8.7-1.9 1-3.2 1h-2.5V29h-2.8V17h5.3zm-.7 5.6c.7 0 1.2-.2 1.5-.5.4-.3.6-.7.6-1.3 0-.6-.2-1-.6-1.3-.3-.3-.8-.5-1.5-.5h-1.8v3.6h1.8zM54.5 27V29h-8.4V17h8.3v2H49v2.8h5.1v2H49v3h5.5zm4.5-10h3.2l3.8 7 .8 1.5v-8.5h2.6V29h-3l-4-7a26.6 26.6 0 0 1-.8-1.4V29H59V17zm72 12.4c-1.3 0-2.4-.3-3.3-.8-1-.5-1.6-1.1-2-2l2-1.5c.4.6.9 1.2 1.4 1.5.5.4 1.2.6 2 .6a3 3 0 0 0 1.5-.4c.3-.2.5-.6.5-1 0-.5 0-.8-.4-1-.2-.2-.7-.4-1.3-.5l-1.6-.4c-2.2-.4-3.4-1.6-3.4-3.6a3.2 3.2 0 0 1 2.2-3.1c.8-.3 1.6-.5 2.6-.5s2 .2 2.9.7a4 4 0 0 1 1.8 1.7l-1.8 1.6c-.3-.6-.8-1-1.3-1.3-.5-.4-1.1-.5-1.8-.5-.6 0-1 0-1.4.3a1 1 0 0 0-.5 1c0 .3.1.6.4.8l1.3.6 1.8.3c1.1.3 2 .7 2.5 1.3.5.5.8 1.3.8 2.3 0 .8-.2 1.5-.6 2-.4.6-1 1-1.7 1.4-.7.3-1.6.5-2.6.5zm14.2 0c-1.2 0-2.3-.3-3.2-.8a5.3 5.3 0 0 1-2-2.2c-.5-1-.8-2-.8-3.3 0-1.3.3-2.4.7-3.4.5-1 1.2-1.7 2.1-2.2 1-.5 2-.8 3.2-.8 1.2 0 2.2.3 3.1.8.9.5 1.6 1.3 2 2.2.6 1 .8 2 .8 3.4 0 1.2-.2 2.4-.7 3.3-.5 1-1.2 1.7-2.1 2.2-.9.5-2 .8-3.1.8zm0-2.3c.9 0 1.6-.3 2.2-1a5 5 0 0 0 .8-3 5 5 0 0 0-.8-3c-.6-.8-1.3-1.1-2.2-1.1-1 0-1.7.3-2.3 1a5 5 0 0 0-.8 3 5 5 0 0 0 .8 3c.6.8 1.3 1.1 2.3 1.1zm12.7-10v7.7c0 .7.2 1.2.6 1.6.4.5 1 .7 1.7.7s1.2-.2 1.6-.7c.4-.4.6-1 .6-1.6v-7.8h2.9v7.9c0 .9-.2 1.7-.6 2.4-.5.6-1 1.2-1.8 1.5-.8.4-1.7.6-2.8.6-1 0-2-.2-2.7-.6-.8-.3-1.3-.9-1.8-1.5-.4-.7-.6-1.5-.6-2.4v-7.9h3zm16.7 7.4h-1.8V29H170V17h5.3c1.4 0 2.5.3 3.3 1 .7.6 1 1.5 1 2.6 0 .8-.1 1.5-.5 2-.4.7-1 1-1.8 1.4l2.7 5h-3.1l-2.3-4.6zm-1.8-2h1.9c.7 0 1.2-.1 1.5-.5.3-.3.5-.7.5-1.3 0-1-.7-1.6-2-1.6h-1.9v3.4zm16.2 6.9c-1.3 0-2.4-.3-3.3-.8a5 5 0 0 1-2-2.2c-.4-1-.6-2-.6-3.3 0-1.3.2-2.4.7-3.4.5-.9 1.1-1.6 2-2.2a6 6 0 0 1 3.2-.8c1.5 0 2.7.4 3.7 1.2 1 .8 1.5 1.8 1.6 3.2l-2.9.5a3 3 0 0 0-.8-1.9c-.4-.4-1-.6-1.7-.6-.9 0-1.6.3-2.1 1a5 5 0 0 0-.8 3c0 1.2.3 2.1.8 2.9.5.7 1.3 1 2.2 1 .7 0 1.2-.2 1.7-.6.4-.4.7-1 .8-1.8l2.9.6c-.3 1.3-1 2.3-1.9 3-.9.8-2 1.2-3.5 1.2zm17.8-2.4V29h-8.4V17h8.3v2h-5.4v2.8h5v2h-5v3h5.5z"/><g id="datica academy logo" fill="#000"><g id="atica Academy"><path d="M63.4 74c-1.1 0-2-.2-2.7-.8-.7-.6-1-1.5-1-2.5s.3-1.9 1-2.4c.8-.5 2-.9 3.5-1.1l2.7-.4v-.4c0-.6-.2-1-.4-1.4-.3-.3-.7-.4-1.3-.4-.5 0-1 .1-1.2.4-.3.3-.5.7-.5 1.2H60c0-1.2.6-2.2 1.5-2.9 1-.7 2.2-1 3.8-1 1.7 0 3 .3 3.9 1 .8.8 1.2 2 1.2 3.6v3.8c0 1.3.1 2.4.3 3.1h-3.4L67 72c-.3.7-.8 1.2-1.4 1.5-.7.4-1.4.6-2.3.6zm1.3-2.2c.7 0 1.3-.2 1.7-.7.4-.4.6-1 .6-1.6v-1l-2 .4c-.6.1-1 .3-1.3.6-.3.2-.5.5-.5 1 0 .4.1.7.4 1 .3.2.7.3 1.1.3zM71 62.5h2v-2.7l3.4-1.4v4.1h2.7V65h-2.7v4.4c0 1.2.6 1.7 1.7 1.7h1v2.8c-.8.2-1.5.2-2 .2-1.5 0-2.5-.3-3.2-1-.7-.6-1-1.5-1-2.8v-5.3H71v-2.4zM80.7 62.5h3.5v11.3h-3.5V62.5zm0-4.9h3.6V61h-3.7v-3.3zM91.7 74c-1.2 0-2.2-.2-3-.7a5.2 5.2 0 0 1-2.1-2c-.5-1-.7-2-.7-3.1 0-1.9.5-3.3 1.6-4.4 1-1 2.4-1.5 4.2-1.5 1.5 0 2.7.3 3.6 1 .9.7 1.5 1.7 1.7 3l-3.4.6c0-.6-.3-1.1-.6-1.5-.4-.3-.8-.5-1.4-.5-.6 0-1.2.3-1.5.8a4 4 0 0 0-.6 2.3c0 1.1.2 2 .6 2.5.3.6.9.9 1.6.9.5 0 1-.2 1.3-.6.3-.3.6-.8.7-1.5l3.3.7a4.4 4.4 0 0 1-1.8 3c-1 .7-2.1 1-3.5 1zM101.5 74c-1.2 0-2-.2-2.8-.8-.7-.6-1-1.5-1-2.5s.4-1.9 1.1-2.4c.7-.5 1.9-.9 3.5-1.1l2.6-.4v-.4c0-.6 0-1-.4-1.4-.2-.3-.6-.4-1.2-.4-.5 0-1 .1-1.3.4-.3.3-.4.7-.5 1.2H98c.1-1.2.6-2.2 1.6-2.9.9-.7 2.2-1 3.7-1 1.8 0 3.1.3 4 1 .8.8 1.2 2 1.2 3.6v3.8c0 1.3 0 2.4.3 3.1h-3.5l-.1-1.8c-.3.7-.8 1.2-1.5 1.5-.6.4-1.4.6-2.2.6zm1.3-2.2c.7 0 1.2-.2 1.6-.7.4-.4.6-1 .6-1.6v-1l-1.8.4c-.7.1-1.2.3-1.5.6-.3.2-.4.5-.4 1 0 .4 0 .7.4 1 .3.2.6.3 1.1.3zM124.4 70h-5.8l-1.2 3.8h-3.7l5.7-16h4.2l5.7 16h-3.7l-1.2-3.7zm-.9-2.6l-1.4-4.5a21.9 21.9 0 0 1-.6-2.2 12.8 12.8 0 0 1-.6 2.2l-1.4 4.5h4zM135.3 74c-1.2 0-2.2-.2-3-.7a5.2 5.2 0 0 1-2.1-2c-.5-1-.7-2-.7-3.1 0-1.9.5-3.3 1.5-4.4 1-1 2.5-1.5 4.3-1.5 1.4 0 2.6.3 3.5 1 1 .7 1.5 1.7 1.7 3l-3.3.6c-.1-.6-.3-1.1-.7-1.5-.3-.3-.7-.5-1.3-.5-.7 0-1.2.3-1.6.8a4 4 0 0 0-.5 2.3c0 1.1.2 2 .5 2.5.4.6 1 .9 1.6.9.6 0 1-.2 1.4-.6.3-.3.5-.8.6-1.5l3.3.7a4.5 4.5 0 0 1-1.7 3c-1 .7-2.1 1-3.5 1zM145 74c-1 0-2-.2-2.7-.8-.7-.6-1-1.5-1-2.5s.3-1.9 1-2.4c.8-.5 2-.9 3.5-1.1l2.7-.4v-.4c0-.6-.1-1-.4-1.4-.3-.3-.7-.4-1.2-.4-.6 0-1 .1-1.3.4-.3.3-.5.7-.5 1.2h-3.5c.1-1.2.6-2.2 1.5-2.9 1-.7 2.2-1 3.8-1 1.8 0 3 .3 4 1 .7.8 1.1 2 1.1 3.6v3.8c0 1.3.1 2.4.3 3.1H149l-.2-1.8c-.2.7-.7 1.2-1.4 1.5-.6.4-1.4.6-2.3.6zm1.4-2.2c.6 0 1.2-.2 1.6-.7.4-.4.6-1 .6-1.6v-1l-1.9.4c-.6.1-1.1.3-1.4.6-.3.2-.5.5-.5 1 0 .4.2.7.4 1 .3.2.7.3 1.2.3zM158 74c-1 0-1.7-.2-2.4-.7a4.8 4.8 0 0 1-1.5-2 8 8 0 0 1-.6-3c0-1.3.2-2.3.6-3.2.4-1 1-1.6 1.6-2.1.7-.5 1.5-.7 2.5-.7.7 0 1.3.1 1.9.4.5.3.9.7 1.2 1.3v-6.5h3.5v16.3h-3.4v-2c-.2.7-.7 1.3-1.3 1.7a4 4 0 0 1-2.1.6zm1.3-2.4c.6 0 1.1-.3 1.5-.8.3-.5.5-1.2.5-2.1v-1c0-1-.2-1.6-.5-2.2-.4-.5-.9-.7-1.5-.7-.7 0-1.2.3-1.6.8-.3.6-.5 1.5-.5 2.5 0 1.1.2 2 .6 2.6.3.6.9.9 1.5.9zM177.6 69H170c0 .7.2 1.4.7 1.8.4.5 1 .7 1.8.7 1 0 1.9-.5 2.4-1.6l2.6 1.2a5 5 0 0 1-2 2.2 6 6 0 0 1-3 .8c-1.9 0-3.3-.5-4.3-1.6-1-1-1.6-2.4-1.6-4.2a7 7 0 0 1 .7-3.2c.4-1 1-1.6 2-2.1.8-.5 1.8-.7 3-.7 1.6 0 3 .5 3.9 1.4 1 1 1.4 2.4 1.4 4.2v1zm-3.4-2.1c0-.8-.2-1.5-.5-1.9-.4-.4-.9-.6-1.6-.6a2 2 0 0 0-1.5.7 3 3 0 0 0-.6 1.8h4.2zM182.8 62.5v2a4 4 0 0 1 1.3-1.7c.6-.4 1.3-.6 2-.6.9 0 1.5.2 2 .6.5.4 1 1 1.2 1.8.8-1.6 2-2.4 3.5-2.4 1.1 0 2 .4 2.5 1.1.6.8 1 1.8 1 3.1v7.4h-3.6v-6.6a3 3 0 0 0-.3-1.7c-.3-.3-.7-.5-1.2-.5s-1 .2-1.2.6a3 3 0 0 0-.4 1.7v6.5H186v-6.6c0-1.5-.5-2.2-1.5-2.2-.5 0-1 .2-1.2.6a3 3 0 0 0-.5 1.8v6.4h-3.5V62.5h3.4zM198.8 78.4l-1.4-.2v-2.6h1.2c.6 0 1 0 1.4-.3.4-.2.6-.6.7-1l.2-.6-4.2-11.2h3.8l2 6.9.2 1.3.3-1.3 1.8-6.9h3.6l-4 11.8a6 6 0 0 1-2 3.1c-.9.6-2 1-3.6 1z"/></g><path id="Subtract" fill-rule="evenodd" d="M34.4 59.7V86c3-2.3 7.3-4.7 11.5-6.5a38 38 0 0 1 11.9-3.2v-7a7 7 0 0 1-3.3 4c-1.2.7-2.7 1-4.3 1h-7V58h7c1.7 0 3 .3 4.3 1a6.9 6.9 0 0 1 3.3 3.8V49.4a50 50 0 0 0-23.4 10.3zm-3 0A50.3 50.3 0 0 0 8 49.4v26.9c7.3.4 17.5 5.3 23.4 9.7V59.7zm-2-4c-3.5-5-10.2-11-16.1-11.7v4.3a57.7 57.7 0 0 1 16 7.4zm7 0c4.5-3 10.6-6 16.1-7.4V44c-5.9.6-12.7 6.7-16.1 11.7zm16.2 13.8A3 3 0 0 1 50 71h-2v-9.5h2a3 3 0 0 1 2.6 1.3c.6.9.9 2 .9 3.3 0 1.4-.3 2.6-1 3.5z" clip-rule="evenodd"/></g></g></mask><g mask="url(#mask0)"><path id="grad overlay" fill="url(#paint0_linear)" d="M0 1h224v141H0z"/></g></g><defs><linearGradient id="paint0_linear" x1="-13" x2="181.5" y1="-29.5" y2="228.5" gradientUnits="userSpaceOnUse"><stop stop-color="#6049FF"/><stop offset="1" stop-color="#00E3BA"/></linearGradient></defs></svg>