<svg viewBox="0 0 615 456" fill="none" xmlns="http://www.w3.org/2000/svg"><g filter="url(#filter0_d)" fill="#fff"><path d="M349.6 116.8V98.2H328V11.4h-18.2l-64.4 89.9v15.5h58.3V153H328v-36.2h21.7zm-88.5-18.6L303.6 38v60.3h-42.5zm190.3 36.6l9.9-9.8-32.7-32.5 32.7-32.7-9.9-9.7L419 82.6l-32.6-32.5-9.7 9.7 32.5 32.7-32.5 32.5 9.7 9.8 32.6-32.7 32.5 32.7zm141.5-18V98.2h-21.7V11.4h-18.1l-64.5 89.9v15.5H547V153h24.3v-36.2H593zm-88.5-18.6L547 38v60.3h-42.5zM28.5 245.6c0 17 0 33.8-.4 50.2l-16.4 1.8v9.3h58.9v-9.3l-16.2-1.8c-.4-15.8-.4-32-.4-51h53.5c0 17.2 0 34.4-.4 51l-16 1.8v9.3h59v-9.3l-16.5-1.8c-.4-16.8-.4-33.6-.4-50.2v-8.5c0-17 0-33.8.4-50.2l16.4-1.8V176H91.1v9.2l16 1.8c.4 15.6.4 31.4.4 47.6H54c0-14.4 0-31.2.4-47.6l16.2-1.8V176H11.7v9.2l16.4 1.8c.4 16.8.4 33.6.4 50.2v8.5zm178.4-26.7c9.7 0 17.6 8.5 17.6 20.6 0 7-2.4 11.2-11.9 11.2h-27c1.6-23.5 11.6-31.8 21.3-31.8zm1.4-9.5c-24.9 0-48 19-48 50.6 0 31 19 49.6 46.6 49.6a42 42 0 0 0 39.5-22.9l-5.7-5.1A32.4 32.4 0 0 1 215 294c-16.6 0-28.6-11.2-29.6-34h60.4c.8-3 1.2-6.3 1.2-10.8 0-24-15.4-39.8-38.7-39.8zm127.2 99.8c9.5 0 15.6-3.3 20.4-12.4l-4.6-4c-2.2 3-4.1 4.4-6.9 4.4-3.6 0-5.7-2.6-5.7-9v-43c0-25.7-10.1-35.8-33-35.8-24.1 0-39.4 10.3-41.7 26.1 1 5.8 5 9 11 9 6.6 0 11.3-4.4 12.5-14l2.4-10.8c3-.6 5.7-.8 8-.8 13 0 17.4 5.2 17.4 23.5v5.6a260 260 0 0 0-19 5.5c-28.4 9.1-35.3 18.6-35.3 31.2 0 16.2 11.5 25 26.3 25 12.6 0 19-5.2 28.6-15.3 2.4 9.3 9.1 14.8 19.6 14.8zm-51.4-28.6c0-7.5 4-14.6 17.2-20 3.4-1.4 8.5-3 14-4.7v31.4c-8.4 6-11.8 7.9-17.1 7.9-8 0-14-4.3-14-14.6zm76.6-109.7v7.7l14.4 2v84.8c0 10.2-.2 20.5-.4 30.8l-13.4 2.6v8h51.4v-8l-13.5-2.6a1600 1600 0 0 1-.4-30.8v-73.7l.8-27.9-3-1.8-35.9 9zm97.1 111.7v-58.3h24v-12H458l.8-27.4h-16l-7.5 27.1-16 2v10.3h14.6v42l-.2 18.4c0 17.4 9.5 25 25.3 25 12.3 0 21-4.8 26.1-13.1l-4.7-5c-4.6 3.4-8.1 5-12 5-6.4 0-10.6-4.4-10.6-14zm45.8-17.2c0 8.5 0 21.1-.2 30.8l-13 2.6v8h48.8v-8l-11.6-2.4c-.2-9.9-.2-22.3-.2-31v-28.1c8-7.7 15.4-11.3 22.9-11.3 9.9 0 13.6 5.2 13.6 20.6v18.8c0 8.9 0 21.1-.2 30.8l-12.6 2.6v8h48.8v-8l-12-2.4c-.3-9.7-.3-22.1-.3-31v-20.6c0-24.5-9.9-35.4-27-35.4-12 0-23.6 6-33.8 17.6v-35.3l.8-27.9-3-1.8-35.4 9v7.6l14.4 2v84.8zM14.4 440.4H42l.9-3.7-10.1-1.7c.9-5.4 2-11.8 4-21.2 1.9 1 3.9 1.6 6.3 1.6 15.8 0 33.8-22.8 33.8-41.3 0-9.8-4.6-13.5-10-13.5-6.2 0-14.8 5-21.6 13.4l2.6-12.3-1.4-1-18.7 5.5-.4 3.2 10.9.7-13.9 65-9.4 1.6-.7 3.7zM61.9 368c4.3 0 6.7 3.4 6.7 10.5 0 7.6-2.7 15.3-7.1 21.1-3.9 5-8.9 8.4-14.4 8.4a14 14 0 0 1-8.3-3l5.5-25.6C51.2 372 57.4 368 61.9 368zm40.2 47.4c15.3 0 28-16.5 28-35.6 0-12.4-7.4-19.2-17.7-19.2-15.6 0-28.6 15.8-28.6 35.5 0 12.5 8 19.3 18.3 19.3zm1.2-4.4c-6.2 0-10.5-4.7-10.5-16.2 0-16.3 8-29.8 18.4-29.8 5.9 0 10 4.6 10 16.5 0 14.6-7.2 29.5-18 29.5zm41.6-13.5c0-9 3.4-17.4 8.4-22.8 3.7-4.2 8.4-6.8 13.1-6.8 2.2 0 4.5.7 6.7 2.6l-5.3 26.2c-7.3 8.3-12 11.2-16 11.2-3.9 0-6.9-3.2-6.9-10.4zm30.5 1.7l13.3-65.4-1.4-.9-18.7 5.5-.4 3.2 11 .7-4.1 20a9.2 9.2 0 0 0-5.4-1.7c-14.8 0-33.2 22.8-33.2 41 0 10 4.6 13.8 9.9 13.8 6 0 13.7-5.2 20.2-12.9-.7 3.8-.8 5.7-.7 7.2 0 3.9 2.7 5.7 6.1 5.7 7.3 0 14.1-7 18.4-13.3l-2.6-2.1c-3.7 4.7-7.9 7.9-10.8 7.9-1.3 0-2.5-1-2.5-2.4 0-1.3.4-3.6.9-6.3zm35.8 16.2c7.4 0 15.4-5.9 19.8-13.6l-2.5-2c-3 3.8-7.6 8-13.4 8-7.2 0-12.1-4.5-12.1-14 0-13.5 8-25.7 17.4-29l3.3 3.7c2 2.2 4 4 6.4 4 2.1 0 4.2-1.1 4.6-3.9-1.2-4.7-5.1-8-11.8-8-13.8 0-28.2 15.8-28.2 34.3 0 13.7 6.8 20.5 16.5 20.5zm35.7-17.4a35 35 0 0 1 9.4-23.8c4-4 8.6-6.3 12-6.3 2.4 0 4.7.8 6.8 2l-6 27.4c-7.2 8-11.8 10.6-15.6 10.6-4 0-6.6-3.2-6.6-9.9zm26.3 17.4c7.4 0 14.3-7 18.5-13.3l-2.6-2.1c-3.8 4.7-8 7.9-10.7 7.9-1.5 0-2.7-1-2.7-2.4 0-1.3.4-3.6 1-6.3l8.8-38.7-2-1-5 4.1a8.3 8.3 0 0 0-6.3-3c-14.1 0-33.8 22.8-33.8 41.9 0 9 5.1 13 10.4 13 5.9 0 12.8-5 19.2-12.2-.4 2-.5 3.7-.5 5.8 0 4.4 2.8 6.3 5.7 6.3zm53-15.5c0-6.4-2.3-9.7-8.9-14.6-6.2-4.6-8-6.8-8-11.4 0-5 2.8-9 10.3-9l1.6.1 1 3.2c1 3.3 3 5.1 5.5 5.1 2 0 3.5-1 4.2-3-1.6-7.1-6.6-9.7-13-9.7-10.6 0-17.5 6.8-17.5 15.4 0 6.9 4.2 10.8 9.7 15 6.2 4.5 7.1 7.3 7.1 10.8 0 5.7-4.5 9.4-12 9.4-.6 0-1.1 0-1.6-.2l-1.2-4.7c-.8-3-2-4.8-5.3-4.8a4.3 4.3 0 0 0-4 3c.8 6.7 5 11 13.6 11 11 0 18.5-6.5 18.5-15.6zm14.4 2c-.9 4.4-1.1 6.3-1.1 8 0 3.7 2.8 5.5 6 5.5 7.5 0 14.2-6.8 18.8-13.3l-2.8-2.1c-4.4 5.2-7.8 7.9-10.7 7.9-1.3 0-2.6-1-2.6-2.6 0-1 .3-3.4 1-6.3l6.6-31.5 14.2.5.8-6H357l3.2-14.7h-5.6l-5.1 14.7-11.9 1-.7 4.4h11.1l-7.3 34.4zM180.2 163.6c-.4 2.2-.6 3.8-.6 5 0 2.5 1.6 3.7 3.9 3.7 4.5 0 8.2-3.8 10.7-7.6l-1.6-1.2c-2.2 2.7-3.8 4-5.1 4-.7 0-1.3-.4-1.3-1.3l.5-3 3.5-17 7 .3.5-3.5H191l1.7-8.1h-4.3l-3.3 8-5.8.6-.5 2.6h5.3l-3.8 17.5zm18.2 8.3l5.8-.5c.7-4.2 1.4-8 2.4-12.6l1.5-7.2c3.5-3 6.4-4.5 8.4-4.5 1 0 1.7.7 1.7 2.3 0 1.2-.3 3-.8 4.9l-2.4 9.6c-.5 2.2-1 3.7-1 5.2 0 2 1.4 3.2 3.8 3.2 4.5 0 8.5-3.8 10.8-7.6l-1.6-1.2c-2 2.6-3.9 4-5.1 4-.7 0-1-.4-1-1.2l.5-3 2.8-11.1c.5-2 .9-3.8.9-5.6 0-3-1.6-4.5-4.2-4.5-3.7 0-8.3 2.8-12.3 6.7l4.2-20.2-.7-.6-11.4 3.4-.3 2 4.8.4-2 10.8-5.5 26.7.7.6zm48.1-26.9c1.6 0 2.8 1.2 2.8 3.3 0 3.2-3 7.3-12 10.1.5-7.2 5.8-13.4 9.2-13.4zm-5.8 27.3c5.4 0 9.7-4 12.2-8.4l-1.5-1a10.4 10.4 0 0 1-8.1 4.3c-3.4 0-5.6-2-6-6.3 12.6-3.4 17.4-8.4 17.4-12.8 0-3.7-2.6-6-7-6-9.3 0-16.6 9.1-16.6 19 0 7.3 4 11.2 9.6 11.2z"/></g><defs><filter id="filter0_d" x="-7.1" y=".3" width="627.7" height="455" filterUnits="userSpaceOnUse" color-interpolation-filters="sRGB"><feFlood flood-opacity="0" result="BackgroundImageFix"/><feColorMatrix in="SourceAlpha" values="0 0 0 0 0 0 0 0 0 0 0 0 0 0 0 0 0 0 127 0"/><feOffset dx="1.9" dy="1.9"/><feGaussianBlur stdDeviation="6.5"/><feColorMatrix values="0 0 0 0 0 0 0 0 0 0 0 0 0 0 0 0 0 0 0.19 0"/><feBlend in2="BackgroundImageFix" result="effect1_dropShadow"/><feBlend in="SourceGraphic" in2="effect1_dropShadow" result="shape"/></filter></defs></svg>