<svg width="292" height="278" viewBox="0 0 292 278" fill="none" xmlns="http://www.w3.org/2000/svg"><circle cx="144.892" cy="139" r="139" fill="url(#a)"/><path fill-rule="evenodd" clip-rule="evenodd" d="M212.076 210.527c31.185 0 56.465-25.302 56.465-56.514 0-31.213-25.28-56.515-56.465-56.515-31.185 0-56.465 25.302-56.465 56.515 0 31.212 25.28 56.514 56.465 56.514zm-95.423-91.119c5.713 0 10.345-4.635 10.345-10.353 0-5.719-4.632-10.354-10.345-10.354-5.713 0-10.345 4.635-10.345 10.354 0 5.718 4.632 10.353 10.345 10.353zm1.088 36.086c0 5.718-4.632 10.354-10.345 10.354-5.713 0-10.345-4.636-10.345-10.354 0-5.718 4.632-10.354 10.345-10.354 5.713 0 10.345 4.636 10.345 10.354z" fill="url(#b)"/><path fill-rule="evenodd" clip-rule="evenodd" d="M18.555 40C9.952 40 2.89 47.063 2.89 55.666v172.893c0 8.602 7.062 15.665 15.664 15.665h257.793c8.642 0 15.652-7.075 15.652-15.665v-10.612l.001-.076V55.666C292 47.074 284.99 40 276.348 40H18.555zm265.668 26.278V55.666c0-4.31-3.545-7.882-7.875-7.882H18.555c-4.313 0-7.888 3.583-7.888 7.882v172.893c0 4.297 3.574 7.881 7.887 7.881h257.793c4.33 0 7.875-3.572 7.875-7.881V66.353l.001-.075z" fill="url(#c)"/><path fill-rule="evenodd" clip-rule="evenodd" d="M15.665 37.108C7.063 37.108.002 44.171.002 52.774v10.597L0 63.447v162.22c0 8.602 7.062 15.665 15.665 15.665h257.793c8.642 0 15.652-7.074 15.652-15.665v-10.612l.001-.076V52.774c0-8.592-7.01-15.666-15.653-15.666H15.665zm265.669 26.277V52.774c0-4.31-3.546-7.882-7.876-7.882H15.665c-4.313 0-7.887 3.583-7.887 7.882v162.219l-.001.077v10.597c0 4.298 3.574 7.881 7.888 7.881h257.793c4.33 0 7.875-3.572 7.875-7.881V63.461l.001-.076z" fill="#4F4D4D"/><path fill-rule="evenodd" clip-rule="evenodd" d="M207.334 94.3c-30.745 0-55.668 24.945-55.668 55.716 0 30.772 24.923 55.717 55.668 55.717 30.744 0 55.668-24.945 55.668-55.717 0-30.771-24.924-55.716-55.668-55.716zm-63.445 55.716c0-35.07 28.405-63.5 63.445-63.5 35.039 0 63.445 28.43 63.445 63.5 0 35.071-28.406 63.501-63.445 63.501-35.04 0-63.445-28.43-63.445-63.501zM106.191 89.207a17.49 17.49 0 0 1 19.074 3.797 17.528 17.528 0 0 1-2.652 26.953 17.49 17.49 0 0 1-9.724 2.953h-.003a17.505 17.505 0 0 1-12.371-5.134 17.533 17.533 0 0 1-5.129-12.382v-.003c0-3.464 1.026-6.851 2.95-9.732a17.508 17.508 0 0 1 7.855-6.452zm6.698 25.919a9.721 9.721 0 0 0 8.986-6.009 9.748 9.748 0 0 0-2.109-10.609 9.72 9.72 0 0 0-14.964 1.475 9.734 9.734 0 0 0 1.212 12.289 9.73 9.73 0 0 0 6.875 2.854zM97.827 135.535a17.496 17.496 0 0 1 19.075 3.798 17.532 17.532 0 0 1 3.794 19.091 17.514 17.514 0 0 1-6.447 7.862 17.49 17.49 0 0 1-9.724 2.952h-.002a17.497 17.497 0 0 1-12.372-5.133 17.533 17.533 0 0 1-5.129-12.383v-.002a17.525 17.525 0 0 1 10.805-16.185zm6.7 25.92a9.73 9.73 0 0 0 9.537-11.634 9.734 9.734 0 0 0-7.641-7.648 9.721 9.721 0 0 0-9.985 4.139 9.741 9.741 0 0 0-1.639 5.407m9.726 9.736a9.726 9.726 0 0 1-6.875-2.854 9.747 9.747 0 0 1-2.851-6.881" fill="#4F4D4D"/><path fill-rule="evenodd" clip-rule="evenodd" d="M124.031 105.392a3.89 3.89 0 0 1 3.889-3.892h59.186c2.539 0 5.013.805 7.066 2.301a12.023 12.023 0 0 1 4.36 6.022v.001l6.648 20.606a3.889 3.889 0 1 1-7.401 2.392l-6.648-20.606a4.23 4.23 0 0 0-4.025-2.933H127.92a3.89 3.89 0 0 1-3.889-3.891zM106.28 161.316a3.887 3.887 0 0 1 4.854 2.585l1.326 4.346a14.047 14.047 0 0 0 5.068 7.187 14.024 14.024 0 0 0 8.345 2.76h52.547a3.89 3.89 0 0 1 3.889 3.891 3.89 3.89 0 0 1-3.889 3.892h-52.551a21.79 21.79 0 0 1-12.97-4.289 21.822 21.822 0 0 1-7.877-11.168l-1.325-4.346a3.89 3.89 0 0 1 2.583-4.858z" fill="#4F4D4D"/><path fill-rule="evenodd" clip-rule="evenodd" d="M247.579 100.927a3.894 3.894 0 0 1 .54 5.477l-37.779 46.081a3.888 3.888 0 0 1-3.006 1.423h-59.556a3.89 3.89 0 0 1-3.889-3.892 3.89 3.89 0 0 1 3.889-3.891h57.717l36.612-44.658a3.885 3.885 0 0 1 5.472-.54z" fill="#4F4D4D"/><path fill-rule="evenodd" clip-rule="evenodd" d="M206.195 146.295a3.886 3.886 0 0 1 4.36 1.542l33.357 49.387a3.893 3.893 0 0 1-1.044 5.404 3.887 3.887 0 0 1-5.399-1.044l-26.247-38.861v46.902a3.89 3.89 0 0 1-3.888 3.892 3.89 3.89 0 0 1-3.889-3.892v-59.609c0-1.71 1.116-3.22 2.75-3.721z" fill="#4F4D4D"/><path fill-rule="evenodd" clip-rule="evenodd" d="M203.645 148.786a3.888 3.888 0 0 1 4.918-2.462l56.505 18.842a3.892 3.892 0 0 1-2.458 7.384l-56.505-18.841a3.893 3.893 0 0 1-2.46-4.923zM21.67 179.788a3.89 3.89 0 0 1 3.888-3.892h44.467a3.89 3.89 0 0 1 3.888 3.892v17.458a3.89 3.89 0 0 1-3.888 3.892H25.558a3.89 3.89 0 0 1-3.888-3.892v-17.458zm7.777 3.892v9.675h36.69v-9.675h-36.69z" fill="#4F4D4D"/><path fill-rule="evenodd" clip-rule="evenodd" d="M21.67 197.246a3.89 3.89 0 0 1 3.888-3.891h78.088a3.889 3.889 0 0 1 3.888 3.891v17.459a3.89 3.89 0 0 1-3.888 3.892H25.558a3.89 3.89 0 0 1-3.888-3.892v-17.459zm7.777 3.892v9.675h70.31v-9.675h-70.31zM25.558 126.521a3.89 3.89 0 0 1 3.889 3.892v17.774a3.89 3.89 0 0 1-3.889 3.892 3.89 3.89 0 0 1-3.888-3.892v-17.774a3.89 3.89 0 0 1 3.888-3.892zM47.791 98.705a3.89 3.89 0 0 1 3.889 3.892v45.59a3.89 3.89 0 0 1-3.889 3.892 3.89 3.89 0 0 1-3.888-3.892v-45.59a3.89 3.89 0 0 1 3.888-3.892zM70.025 91.31a3.89 3.89 0 0 1 3.888 3.892v52.985a3.89 3.89 0 0 1-3.888 3.892 3.89 3.89 0 0 1-3.888-3.892V95.202a3.89 3.89 0 0 1 3.888-3.892zM.008 70.056a3.89 3.89 0 0 1 3.888-3.892h279.65a3.89 3.89 0 0 1 3.889 3.892 3.89 3.89 0 0 1-3.889 3.892H3.896a3.89 3.89 0 0 1-3.888-3.892z" fill="#4F4D4D"/><path d="M19.474 60.91a4.485 4.485 0 0 0 4.483-4.487 4.485 4.485 0 0 0-4.483-4.487 4.485 4.485 0 0 0-4.483 4.487 4.485 4.485 0 0 0 4.483 4.486zM35.128 60.91a4.485 4.485 0 0 0 4.483-4.487 4.485 4.485 0 0 0-4.483-4.487 4.485 4.485 0 0 0-4.483 4.487 4.485 4.485 0 0 0 4.483 4.486z" fill="#4F4D4D"/><defs><radialGradient id="a" cx="0" cy="0" r="1" gradientUnits="userSpaceOnUse" gradientTransform="matrix(0 139 -139 0 144.892 139)"><stop offset=".586" stop-color="#fff"/><stop offset="1" stop-color="#fff" stop-opacity="0"/></radialGradient><linearGradient id="b" x1="85.817" y1="48" x2="256.438" y2="220.597" gradientUnits="userSpaceOnUse"><stop stop-color="#3CC4FF"/><stop offset="1" stop-color="#FF11EB"/></linearGradient><linearGradient id="c" x1="299.131" y1="244" x2="-40.858" y2="98.222" gradientUnits="userSpaceOnUse"><stop stop-color="#3CC4FF"/><stop offset="1" stop-color="#FF11EB"/></linearGradient></defs></svg>