<svg width="304" height="225" viewBox="0 0 304 225" fill="none" xmlns="http://www.w3.org/2000/svg"><path fill-rule="evenodd" clip-rule="evenodd" d="M149.966 10.836H93.291v36.291h56.675V10.836zm136.603 62.068h-56.674v36.292h56.674V72.904zM238.08 177.498h56.675v36.291H238.08v-36.291zM80.28 156.04H10.875v36.291h69.407V156.04zm33.785-53.651h86.003v55.575h-86.003v-55.575z" fill="url(#a)"/><path d="M110.71 27.273l-1.886 2.188v4.865h-3.933V17.8h3.933v7.099l5.843-7.1h4.492l-5.772 6.704 6.098 9.823h-4.469l-4.306-7.053zm15.767 7.448c-1.738 0-3.235-.341-4.492-1.024-1.257-.683-2.18-1.621-2.77-2.816l2.91-2.049c.45.9 1.047 1.599 1.792 2.095.745.497 1.645.745 2.7.745.838 0 1.521-.155 2.048-.465.528-.326.792-.8.792-1.42 0-.605-.187-1.048-.559-1.327-.357-.295-.97-.535-1.839-.721l-2.211-.466c-3.042-.667-4.562-2.32-4.562-4.958 0-1.008.256-1.877.768-2.607.527-.744 1.272-1.31 2.234-1.699.978-.403 2.126-.605 3.445-.605 1.505 0 2.832.28 3.98.838 1.149.543 2.01 1.358 2.584 2.444l-2.56 2.165c-.419-.807-1.001-1.428-1.746-1.863-.729-.45-1.567-.674-2.514-.674-.776 0-1.396.155-1.862.465-.465.295-.698.706-.698 1.234 0 .527.178.946.535 1.257.373.294.993.543 1.862.744l2.398.512c1.52.342 2.653.9 3.398 1.676.745.76 1.117 1.831 1.117 3.212 0 1.056-.264 1.987-.791 2.794-.528.79-1.304 1.412-2.328 1.862-1.008.434-2.219.651-3.631.651zM247.934 97.218c-1.738 0-3.235-.342-4.492-1.025-1.257-.682-2.18-1.621-2.77-2.816l2.91-2.048c.45.9 1.047 1.598 1.792 2.095.745.496 1.645.744 2.7.744.838 0 1.521-.155 2.048-.465.528-.326.791-.8.791-1.42 0-.605-.186-1.047-.558-1.327-.357-.294-.97-.535-1.839-.721l-2.211-.466c-3.042-.667-4.562-2.32-4.562-4.958 0-1.008.256-1.877.768-2.607.527-.744 1.272-1.31 2.234-1.699.978-.403 2.126-.605 3.445-.605 1.505 0 2.832.28 3.98.838 1.149.543 2.01 1.358 2.584 2.444l-2.56 2.165c-.419-.807-1.001-1.428-1.746-1.862-.729-.45-1.567-.675-2.514-.675-.776 0-1.396.155-1.862.465-.465.295-.698.706-.698 1.234s.178.946.535 1.257c.373.295.993.543 1.862.745l2.398.512c1.52.341 2.653.9 3.398 1.676.745.76 1.117 1.83 1.117 3.212 0 1.055-.264 1.986-.791 2.793-.528.791-1.304 1.412-2.328 1.862-1.008.434-2.219.652-3.631.652zm14.381-.047c-1.288 0-2.413-.21-3.375-.628-.947-.435-1.684-1.048-2.211-1.84-.512-.79-.776-1.722-.792-2.792l3.794-.35c.016.854.256 1.521.722 2.002.465.481 1.094.722 1.885.722.761 0 1.335-.194 1.723-.582.403-.388.605-.939.605-1.653 0-1.443-.931-2.164-2.793-2.164h-.862v-2.56h.838c.807 0 1.42-.18 1.839-.536.419-.373.629-.908.629-1.606 0-.652-.187-1.156-.559-1.513-.372-.357-.9-.535-1.583-.535-.76 0-1.35.248-1.769.744-.403.497-.605 1.195-.605 2.095l-3.701-.488c0-1.04.256-1.948.768-2.724.512-.791 1.234-1.396 2.165-1.815.947-.435 2.056-.652 3.328-.652 1.863 0 3.298.388 4.307 1.164 1.008.776 1.513 1.87 1.513 3.282 0 .9-.295 1.691-.885 2.374-.59.667-1.373 1.11-2.351 1.326 1.195.171 2.103.59 2.723 1.257.637.652.955 1.521.955 2.607 0 .978-.264 1.84-.792 2.584-.512.73-1.241 1.296-2.188 1.7-.946.387-2.056.581-3.328.581zM254.354 199.725v2.91h-11.476v-16.526h11.313v2.909h-7.379v3.724h6.983v2.886h-6.983v4.097h7.542zM264 203.03c-1.722 0-3.189-.349-4.399-1.047-1.195-.714-2.103-1.715-2.723-3.003-.621-1.303-.931-2.832-.931-4.585 0-1.738.326-3.259.977-4.562.652-1.304 1.583-2.312 2.793-3.026 1.226-.73 2.669-1.094 4.33-1.094 2.079 0 3.763.535 5.051 1.606 1.288 1.055 2.04 2.498 2.257 4.329l-3.98.699c-.124-1.102-.481-1.956-1.07-2.561-.59-.605-1.374-.908-2.351-.908-1.242 0-2.219.497-2.933 1.49-.698.978-1.048 2.312-1.048 4.004 0 1.66.357 2.987 1.071 3.98.729.993 1.738 1.489 3.026 1.489.916 0 1.668-.294 2.258-.884.589-.605.97-1.443 1.14-2.514l3.981.861c-.404 1.785-1.25 3.189-2.538 4.213-1.272 1.009-2.909 1.513-4.911 1.513zm8.858-3.142c2.576-1.567 4.524-2.964 5.842-4.19.792-.729 1.358-1.42 1.7-2.071a4.741 4.741 0 0 0 .512-2.188c0-.761-.179-1.343-.536-1.746-.357-.419-.876-.628-1.559-.628-.683 0-1.218.209-1.606.628-.388.403-.582.97-.582 1.699 0 .311.054.753.163 1.327l-3.817-.372a5.725 5.725 0 0 1-.14-1.257c0-1.009.248-1.886.745-2.631.512-.744 1.226-1.319 2.141-1.722.931-.419 2.025-.628 3.282-.628 1.862 0 3.313.442 4.353 1.326 1.039.885 1.559 2.126 1.559 3.724 0 1.071-.24 2.08-.721 3.026-.481.931-1.211 1.839-2.188 2.724-1.071.931-2.413 1.846-4.027 2.746h7.076v2.98h-12.197v-2.747zM25.88 166.124v3.817h6.96v2.933h-6.96v6.796h-3.933v-16.526h11.312v2.98H25.88zm22.464.139h-4.818v13.407h-3.91v-13.407h-4.795v-3.119h13.523v3.119zm9.189-3.119c1.179 0 2.219.218 3.119.652.9.419 1.59 1.024 2.071 1.816.497.776.745 1.683.745 2.723 0 1.645-.543 2.948-1.63 3.91-1.07.947-2.536 1.42-4.398 1.42h-3.306v6.005h-3.933v-16.526h7.332zm-.955 7.775c.87 0 1.544-.218 2.025-.652.497-.435.745-1.04.745-1.816s-.24-1.381-.721-1.815c-.481-.435-1.164-.652-2.049-.652h-2.444v4.935h2.444zM138.749 128.862h-2.374v6.331h-3.934v-16.526h7.263c2.032 0 3.545.45 4.538 1.35 1.009.9 1.513 2.142 1.513 3.724 0 1.055-.279 1.987-.838 2.793-.558.807-1.357 1.389-2.397 1.746l3.654 6.913h-4.259l-3.166-6.331zm-2.374-2.7h2.537c.931 0 1.622-.209 2.072-.628.45-.419.675-1.017.675-1.793 0-1.536-.916-2.304-2.747-2.304h-2.537v4.725zm12.205-7.495h6.587c1.63 0 3.057.341 4.283 1.024a7.032 7.032 0 0 1 2.863 2.886c.683 1.226 1.024 2.646 1.024 4.26 0 1.645-.341 3.103-1.024 4.376a7.145 7.145 0 0 1-2.863 2.933c-1.241.698-2.684 1.047-4.329 1.047h-6.541v-16.526zm6.378 13.64c.9 0 1.676-.241 2.327-.722.652-.496 1.149-1.156 1.49-1.978.341-.838.512-1.761.512-2.77 0-1.567-.372-2.84-1.117-3.817-.745-.978-1.8-1.467-3.166-1.467h-2.49v10.754h2.444zm16.095 3.282c-1.738 0-3.235-.342-4.492-1.024-1.257-.683-2.18-1.622-2.77-2.817l2.909-2.048c.45.9 1.048 1.598 1.793 2.095.744.496 1.644.745 2.7.745.838 0 1.52-.156 2.048-.466.528-.326.791-.799.791-1.42 0-.605-.186-1.047-.558-1.326-.357-.295-.97-.536-1.839-.722l-2.211-.466c-3.042-.667-4.562-2.319-4.562-4.957 0-1.009.256-1.878.768-2.607.527-.745 1.272-1.311 2.234-1.699.978-.404 2.126-.606 3.445-.606 1.505 0 2.832.28 3.98.838 1.149.543 2.01 1.358 2.584 2.444l-2.56 2.165c-.419-.807-1.001-1.428-1.746-1.862-.73-.45-1.567-.675-2.514-.675-.776 0-1.397.155-1.862.465-.466.295-.698.706-.698 1.234s.178.947.535 1.257c.372.295.993.543 1.862.745l2.397.512c1.521.341 2.654.9 3.399 1.676.745.76 1.117 1.831 1.117 3.212 0 1.055-.264 1.986-.791 2.793-.528.791-1.304 1.412-2.328 1.862-1.009.435-2.219.652-3.631.652z" fill="#fff"/><path fill-rule="evenodd" clip-rule="evenodd" d="M89.645 1h59.562v3.233L149.213 1a5.96 5.96 0 0 1 5.946 5.94v39.919a5.958 5.958 0 0 1-5.946 5.945H89.645a5.966 5.966 0 0 1-5.936-5.936V6.937A5.966 5.966 0 0 1 89.645 1zm59.049 6.465h-58.52V46.34h58.52V7.465zM226.103 63.495h59.568a5.957 5.957 0 0 1 5.946 5.94V109.359a5.957 5.957 0 0 1-5.946 5.945h-59.568a5.967 5.967 0 0 1-5.937-5.936V69.432a5.966 5.966 0 0 1 5.937-5.937zm.529 6.466h58.519v38.878h-58.519V69.961zM233.862 168.093h59.561v3.232l.006-3.232a5.954 5.954 0 0 1 5.946 5.93v39.931a5.96 5.96 0 0 1-5.946 5.946h-59.567a5.964 5.964 0 0 1-5.937-5.938V174.03a5.964 5.964 0 0 1 5.937-5.937zm59.048 6.465h-58.52v38.876h58.52v-38.876zM1 152.297c0-3.785 3.465-5.952 6.473-5.952h70.93c3.024 0 6.47 2.174 6.47 5.949v39.905c0 3.775-3.443 5.953-6.47 5.953H7.473c-3.01 0-6.473-2.174-6.473-5.953v-39.902zm6.465.513v38.876H78.407V152.81H7.465zM110.616 91.434h86.981a7.214 7.214 0 0 1 7.189 7.189v58.29a7.217 7.217 0 0 1-7.189 7.187h-86.981a7.222 7.222 0 0 1-7.189-7.181V98.615a7.223 7.223 0 0 1 7.189-7.181zm.026 6.465a.757.757 0 0 0-.75.749v58.239a.756.756 0 0 0 .75.748h86.935a.751.751 0 0 0 .743-.743V98.644a.749.749 0 0 0-.743-.745h-86.935z" fill="#4F4D4D"/><path fill-rule="evenodd" clip-rule="evenodd" d="M104.876 46.947a3.233 3.233 0 0 1 1.063 4.447l-60.75 98.917a3.232 3.232 0 1 1-5.509-3.383L100.43 48.01a3.233 3.233 0 0 1 4.447-1.063zM116.317 47.147a3.233 3.233 0 0 1 4.37 1.343l22.934 43.288a3.233 3.233 0 0 1-5.713 3.027l-22.934-43.288a3.232 3.232 0 0 1 1.343-4.37zM79.352 185.572a3.233 3.233 0 0 1 3.533-2.902l148.491 14.563a3.233 3.233 0 0 1-.631 6.435L82.254 189.105a3.233 3.233 0 0 1-2.902-3.533zM150.874 27.272a3.233 3.233 0 0 1 4.554-.403l68.802 57.622a3.233 3.233 0 0 1-4.151 4.957l-68.802-57.622a3.233 3.233 0 0 1-.403-4.554zM253.531 109.87a3.234 3.234 0 0 1 3.647 2.757l7.758 55.844a3.233 3.233 0 1 1-6.404.889l-7.758-55.843a3.233 3.233 0 0 1 2.757-3.647z" fill="#4F4D4D"/><path fill-rule="evenodd" clip-rule="evenodd" d="M198.948 136.254a3.234 3.234 0 0 1 4.35-1.407l59.907 30.617a3.232 3.232 0 1 1-2.942 5.757l-59.907-30.617a3.233 3.233 0 0 1-1.408-4.35zM108.418 149.257a3.234 3.234 0 0 1-.113 4.571l-23.794 22.647a3.232 3.232 0 1 1-4.457-4.683l23.794-22.648a3.233 3.233 0 0 1 4.57.113z" fill="#4F4D4D"/><defs><linearGradient id="a" x1="26.5" y1="9.635" x2="336.14" y2="128.879" gradientUnits="userSpaceOnUse"><stop stop-color="#34B4FF"/><stop offset="1" stop-color="#FC3DFF"/></linearGradient></defs></svg>