<svg viewBox="0 0 266 273" fill="none" xmlns="http://www.w3.org/2000/svg"><circle cx="133" cy="136" r="122" fill="url(#paint0_radial)"/><mask id="a" mask-type="alpha" maskUnits="userSpaceOnUse" x="0" y="0" width="266" height="273"><path d="M52.2 247c-.5 0-1.2-.2-1.7-.4L37.6 240c-1.2-.4-2-1.7-2-3.2 0-1.5.5-2.7 1.8-3.2l12.8-8.2a4 4 0 015.2 1.3c1 1.7.5 4-1.2 5.2l-7.4 4.7 7 3.4c1.6 1 2.4 3.3 1.6 5-.5 1.2-2 2-3.2 2zM84.4 247c-1.5 0-2.7-.7-3.2-1.9-1-1.7-.3-4 1.7-5l7-3.4-7.5-4.7c-1.7-1-2.2-3.5-1.2-5.2 1-1.8 3.4-2.2 5.2-1.3l12.9 8.2c1.2.8 1.7 2 1.7 3.2 0 1.3-.8 2.5-2 3.2l-12.9 6.5c-.5.2-1.2.5-1.7.5zM64.8 248.6c-.4 0-1 0-1.2-.3-2-.7-3-3-2.2-4.7L68 226c.7-2 3-3 4.7-2.2 2 .8 3 3 2.2 4.7l-6.7 17.6c-.5 1.5-2 2.5-3.5 2.5z" fill="#000"/><path d="M113.1 261.2H23.3c-2 0-3.7-1.7-3.7-3.7v-42.6c0-2 1.7-3.7 3.7-3.7H113c2 0 3.7 1.7 3.7 3.7v42.6c0 2-1.7 3.7-3.7 3.7zM27 253.8h82.4v-35.2H27v35.2zM26 178.8H0v7.4h26v-7.4zM47.5 178.8h-15v7.4h15v-7.4zM59.9 191.4H22v7.4H60v-7.4zM15.8 191.4H.8v7.4h15v-7.4zM253.4 272.5H238c-2 0-3.7-1.7-3.7-3.7v-77c0-2 1.7-3.7 3.7-3.7h15.4c2 0 3.7 1.8 3.7 3.7v77c0 2-1.7 3.7-3.7 3.7zm-11.7-7.4h8v-69.5h-8V265zM158.7 261c-1 0-2-.2-2.7-1l-5-4.9a3.6 3.6 0 010-5.2 3.6 3.6 0 015.2 0l5 5a3.6 3.6 0 010 5.2c-.5.7-1.5 1-2.5 1zM144 246.5c-.9 0-1.9-.3-2.6-1l-4.7-4.7a3.6 3.6 0 010-5.2 3.6 3.6 0 015.2 0l4.7 4.7a3.6 3.6 0 010 5.2c-.5.7-1.5 1-2.5 1zM139.4 261c-1 0-1.7-.2-2.5-1a3.8 3.8 0 01-.2-5.1l4.7-5a3.8 3.8 0 015.2-.2 3.8 3.8 0 01.2 5.2l-4.7 5a4 4 0 01-2.7 1.2zM153.7 246.5c-1 0-2-.5-2.7-1.3a3.6 3.6 0 01.3-5.2l5-4.7c1.4-1.4 3.9-1.2 5.1.3 1.5 1.5 1.2 4-.2 5.2l-5 4.7c-.7.7-1.5 1-2.5 1z" fill="#000"/><path d="M245.2 195.8c-3 0-5.7-.5-8.4-1.7a22.2 22.2 0 01-12.4-23.3c0-.2 0-.2.3-.5v-.5c0-.5.2-1 .5-1.7 0-.3 0-.3.2-.5.7-1.7 2-2.5 3-2.5 1-.2 2.2 0 3.7 1.3l.2.2c1.5 2 3.5 4 5.5 6l.2.2h5v-6.2l-.8-.2-.5-.5c-.2-.5-.5-.8-1-1.3l-.4-.5c0-.2-.3-.2-.5-.5-.3-.2-1-1-1.3-1.5 0 0-.2 0-.2-.2l-1-.7a4.3 4.3 0 01-1-4.5 4.2 4.2 0 013.2-2.5c.8-.2 1.7-.2 2.7-.5a21.6 21.6 0 0119.6 8.2c2.7 3.7 4.2 8.2 4.2 12.6.2 12.2-9 21.3-20.8 21.3zm-13.4-18.6c.3 1.5 1 3 1.8 4.3 1.2 2.4 3.4 4.4 6.2 5.6 1.7.8 3.4 1.3 5.4 1.3 7.7 0 13.6-6 13.6-13.6 0-3-1-6-2.7-8.2-2-2.5-4.2-4.2-7-5l-1.2-.2 1 1c.8.7 1 1.7 1 2.7v11.4c0 2-1.7 3.7-3.7 3.7H236c-1.4 0-3-1-4.2-3 .3.3 0 .3 0 0zM180.6 227.3a3 3 0 01-2.3-.9 3.6 3.6 0 01-1.1-2.5c0-3-2.1-5-4.8-5-2.8 0-4.8 2-4.8 4.8 0 1-.5 2-1.2 2.7-.7.7-1.8 1.2-2.7 1-2-.3-4-1-5.7-1.7-1.6-.9-2.3-3-1.6-4.5.4-1.1.6-1.8.6-2.5 0-2.7-2-4.8-4.8-4.8-1.3 0-2.5.5-3.4 1.6-.7.7-1.6 1.2-2.5 1-1 0-1.8-.5-2.5-1.4-1-1.2-2-2.5-3-4.4a3.5 3.5 0 011.1-4.3c1.2-.6 2.8-2.2 2.8-4.3 0-2.7-2-4.8-4.8-4.8h-1a3.5 3.5 0 01-3.4-3.4v-3.6c0-1.8 1.6-3.4 3.5-3.4h.2c2.7 0 4.8-2 4.8-4.8a5 5 0 00-2.3-4c-.9-.5-1.4-1.2-1.6-2.1-.2-1-.2-1.8.2-2.7.7-1.2 1.4-2 2.1-3 .2-.4.7-.9 1-1.1.4-1 1.5-1.4 2.4-1.6 1 0 2 .2 2.8.9 1.1 1.1 2.3 1.8 3.6 1.8 2.8 0 4.8-2 4.8-4.8 0-.9-.2-1.3-.4-1.3-.5-1.2-1-2.3-.7-3.2.2-1 1-2 1.8-2.5 1.2-.7 2.3-1 3.2-1.1.3 0 .7-.3 1.2-.3.9-.2 2-.2 2.7.3 1 .4 1.4 1.3 1.6 2.2.5 2.5 2.5 4.1 4.8 4.1a5 5 0 004.8-4.5c0-1 .7-1.8 1.4-2.5 1.1-.5 2-.7 3.2-.5 1.8.5 3.6 1 5.5 1.8.9.5 1.6 1.2 1.8 2.3.5 1 .2 2-.5 2.7-.4.7-.6 1.6-.6 2.8 0 2.7 2 4.7 4.8 4.7 1.6 0 3-.6 3.9-1.8.6-.9 1.6-1.3 2.7-1.3s2 .4 2.7 1.1l3.2 4.3c.5 1 .7 1.8.5 2.7-.2 1-1 1.9-1.8 2.3a5 5 0 00-2.8 4.3c0 2.8 2 4.8 4.8 4.8h1.2c1.8 0 3.4 1.6 3.4 3.4v4c0 1.2-.7 2.4-1.6 3-1 .5-2 .7-3 .3h-.4c-2.8 0-4.8 2-4.8 4.7 0 1.9.9 3.5 2.3 4a3 3 0 012 2c.2.9.2 2-.4 2.9-1 1.4-1.9 3-3 4-.7.8-1.6 1.5-2.5 1.5-1 0-2-.5-2.8-1.2a4.9 4.9 0 00-3.9-1.8c-2.7 0-4.8 2-4.8 4.8 0 .9.3 1.8.7 2.5.5.9.7 2 .3 3-.5.8-1.2 1.7-2.1 2l-.7.2c-1.1.4-2.3.7-3.7.9 0 .2-.2.2-.4.2zM152.5 207a12 12 0 0111.4 8.8c2-2.2 5.3-3.6 8.5-3.6s6 1.1 8 3.2c1.3-4.8 6-8.4 11.2-8.4.7 0 1.3 0 2 .2a16 16 0 01-.9-4.8c0-4.5 2.5-8.1 6.2-10.2a11.5 11.5 0 01-4.6-15c-.9.3-1.8.3-2.7.3-6.2 0-11-4.6-11.7-10.5-2 2.3-5.3 3.6-8.5 3.6-3 0-5.4-1-7.5-2.7-1.1 5.2-5.7 9.1-11.4 9.1-1 0-1.9 0-2.8-.2 1 1.6 1.4 3.4 1.4 5.2 0 4-2.3 7.7-5.5 9.8a11.8 11.8 0 015 15.4c.5-.2 1.2-.2 1.9-.2z" fill="#000"/><path d="M171.6 204.8c-7.5 0-13.5-6-13.5-13.5s6-13.4 13.5-13.4 13.5 5.9 13.5 13.4c0 7.6-6 13.5-13.5 13.5zm0-20a6.6 6.6 0 100 13.2 6.6 6.6 0 000-13.3zM203.3 261.2a12.1 12.1 0 110-24.3 12.1 12.1 0 010 24.3zm0-16.8a4.9 4.9 0 00-4.7 4.7c0 2.5 2.2 4.7 4.7 4.7s4.7-2.2 4.7-4.7-2.2-4.7-4.7-4.7zM20.6 125c0-12.6-.3-24.4 3-36.8-2 .3-4.1.5-6 1.6-2.4 1-4.5 3-4.5 6.2v23.1c0 4.3 1.6 6.2 3.7 7.8 1.9.8 3.8 1.1 3.8-1.9zm62.6-91.7c0 4-6.1 4-6.1 0V14.5C77 7.3 83 1.3 90.2 1.3h149.3c7.2 0 13.1 6 13.1 13.2v95.2c0 7.3-5.9 13.2-13.1 13.2h-13c-1 0-1.8.8-1.8 1.9v21.8c0 1.6-1.6 2.4-3 1.6l-38.2-25c-.2-.3-.8-.3-1-.3h-17c-4 0-4-6.2 0-6.2h18.6c.2 0 .8 0 1 .3l30.2 19.9c1.3.8 3 0 3-1.6v-16.7c0-1 .7-1.9 1.8-1.9h19.1c3.8 0 7-3.2 7-7V14.5c0-3.7-3.2-7-7-7h-149c-3.7 0-7 3.3-7 7v18.8zM25.7 81.7a61.6 61.6 0 0136.6-36.3 55.5 55.5 0 0155 9.7 62 62 0 0117.8 26.6c8.1.3 16.7 3.5 18.3 11.9.3 1.9.3 3.5.3 5.4v19.9c0 8.8-4 11.2-8.6 14.2-5.4 3.5-6.5 4.8-8.9 10.8-2.4 8-5.6 15-9.4 21-9.1 13.7-22 21-35.8 22.8-.2 1.3-1 2.4-1.8 3.5a8.4 8.4 0 01-5.7 2.4h-5.4c-2.1 0-4.3-.8-5.6-2.4a9.5 9.5 0 010-12.6A8.4 8.4 0 0178 176h5.4c2.2 0 4.3.8 5.7 2.5.8.8 1.3 1.8 1.8 3 11.9-1.7 22.9-8.2 30.7-20 12.9-19 15.6-51 9.1-73.1a58 58 0 00-17.2-28.3 49.6 49.6 0 00-49-8.6A55 55 0 0031.4 86c-4.5 13-4.3 26.1-4 39.6 0 5.9-6.2 11-12.4 7-4.3-2.7-7.5-5.4-7.5-13.5V96c.3-6.2 3.8-9.7 8.3-11.6a18 18 0 0110-2.7zm57 100.6h-5.4c-2.4 0-2.4 4.9 0 4.9h5.4c2.7 0 2.7-4.9 0-4.9zm54-94.1c3.5 13.2 3.8 28 2 41.4l2.6-1.6c3.2-1.9 5.7-3.5 5.7-8.9V99.2c0-1.6.2-3.5-.3-4.8-1-4.3-6-6-10-6.2z" fill="#000"/><path d="M83.5 195h-5.4c-2.7 0-5-1.1-6.7-3a10.4 10.4 0 01-2.7-7.3c0-3 1-5.3 2.7-7.2a10 10 0 016.7-2.7h5.4c2.7 0 5.1 1 6.7 3 .6.5 1.1 1.6 1.6 2.4a42.2 42.2 0 0028.8-19.1c11.8-17.8 15.9-48.7 8.9-72a57.5 57.5 0 00-17-27.8C99.6 50.3 81.6 47.1 65 53a53.9 53.9 0 00-32.5 33.6c-4.6 12.6-4.3 25.5-4 39 0 3.7-1.9 7-5.1 8.9a9.1 9.1 0 01-9.4-.6c-4.6-2.7-8.1-5.9-8.1-14.5V96.3c.3-6 3.5-10.5 9.1-12.7a22 22 0 019.7-3 63.3 63.3 0 0137.1-36.2A57 57 0 01136 80.7c10.3.5 17.2 5.3 18.6 12.9.3 2.1.3 3.7.3 5.6V119c0 9.4-4.3 12-9 15.3-5 3.2-5.8 4.6-8.2 10.2-2.5 7.8-5.7 15-9.5 21.2-8.6 13-21 21-35.7 23.4-.6 1.1-1.1 2.2-1.9 3.3a12 12 0 01-7 2.7zm-5.4-17.5c-1.6 0-3.5.8-4.5 2.1a7.5 7.5 0 00-2.2 5.4c0 2.2.8 4 2.2 5.4 1 1.3 2.6 2.1 4.5 2.1h5.4c1.6 0 3.5-.8 4.6-2.1.5-.8 1.3-1.9 1.6-2.7l.3-.8h1a49.1 49.1 0 0035-22.3c3.8-6 7-13 9.1-20.7 2.7-6.2 3.8-7.8 9.4-11.6l.3-.3c4.3-2.7 7.8-5 7.8-12.9V99.2c0-1.9 0-3.5-.3-5-1.8-9.5-13.4-10.6-16.9-10.8h-.8l-.3-.8A54.6 54.6 0 0063 47C46.8 53 34 65.6 27.4 82.6l-.3.8h-.8c-1.3 0-6.2.2-9.1 2.4l-.3.2a11 11 0 00-7.5 10.5v23.2c0 7.5 3 9.6 7 12.3a6.7 6.7 0 006.7.6 7.8 7.8 0 003.8-6.5c-.3-13.7-.6-26.9 4-40 6-17 18.3-29.6 34.2-35.3a51.2 51.2 0 0150.2 8.9A62.2 62.2 0 01133 88.5c7 23.9 3 55.9-9.4 74.2A43.7 43.7 0 0192 183h-1l-.6-.8c-.5-1-1-1.9-1.6-2.7a5.7 5.7 0 00-4.6-2.1h-6.2zm4.6 11h-5.4c-1.9 0-3.2-1.6-3.2-3.8 0-2.1 1.3-3.7 3.2-3.7h5.4c1.9 0 3.2 1.6 3.2 3.7 0 2.2-1.3 3.8-3.2 3.8zm-5.4-4.8c-.3 0-.5.5-.5 1 0 .6.2 1.1.5 1.1h5.4c.5 0 .5-1 .5-1s0-1.1-.5-1.1h-5.4zm145.5-34a5 5 0 01-1.9-.5l-38.2-25h-17.2c-3 0-4.3-2.1-4.3-4.5 0-2.2 1.6-4.3 4.3-4.3h18.6c.2 0 1.3 0 1.9.5l30 19.9h.6c.3 0 .3-.3.3-.5v-16.7c0-1.9 1.3-3.2 3.2-3.2h19.1c3 0 5.6-2.7 5.6-5.7V14.5c0-3-2.6-5.6-5.6-5.6h-149c-3 0-5.6 2.7-5.6 5.6v18.8c0 5.7-8.9 5.7-8.9 0V14.5c0-8 6.5-14.5 14.5-14.5h149.3c8 0 14.5 6.5 14.5 14.5v95.2c0 8-6.5 14.5-14.5 14.5h-13c-.2 0-.5.3-.5.6v21.8c0 1.3-.5 2.4-1.6 3-.5.2-1 .2-1.6.2zm-38.5-27.6l38.2 25h.6c.2 0 .2-.3.2-.5v-21.8c0-2 1.4-3.3 3.3-3.3h12.9a12 12 0 0011.8-11.8V14.5a12 12 0 00-11.8-11.8H90.2a12 12 0 00-11.8 11.8v18.8c0 1.7 1.3 1.7 1.6 1.7.3 0 1.9 0 1.9-1.7V14.5c0-4.6 3.8-8.3 8.3-8.3h149c4.6 0 8.3 3.7 8.3 8.3v95.2c0 4.6-3.7 8.3-8.3 8.3h-19c-.4 0-.6.3-.6.6v16.7c0 1.3-.6 2.4-1.6 3a4 4 0 01-3.5 0L184 118h-18.9c-1.6 0-1.6 1.4-1.6 1.7 0 .2 0 1.8 1.6 1.8h17c.5 0 1.6 0 2.1.6zM137 132.3l.6-3c1.8-14.2 1.3-28.7-2-40.8l-.5-2h2c5.8.4 10.1 3 11.2 7.3.5 1.1.3 2.7.3 4v21c0 6.5-3.2 8.4-6.2 10-.3.3-.8.5-1.4.8l-1.3.8-2.7 1.9zm1.6-42.5c2.7 11.3 3.3 24.2 2 37.4 0 0 .2 0 .2-.3 3.2-1.9 5-3.2 5-7.8V98c0-1.1 0-2.4-.2-3-1-3.5-4.6-4.5-7-5zM19 128.8c-.8 0-2-.3-2.7-.5l-.3-.3c-2.1-1.6-4.3-4-4.3-8.9V96c0-3.2 1.9-6 5.4-7.5 1.9-1.1 4-1.4 5.9-1.6l1.9-.3v1.9c-3 11.3-3 22.3-3 33.8v2.7c0 1.7-.5 2.7-1.3 3.3-.6.5-1.1.5-1.6.5zm-1.4-3c1.4.6 1.6.3 1.6.3s.3-.3.3-1v-2.8c0-11 0-21.5 2.4-32.5l-3.5 1c-2.7 1.2-3.7 2.8-3.7 5.2v23.1c-.3 3.5.8 5.1 3 6.7z" fill="#000"/><path d="M225 32.3H108.4a3.1 3.1 0 01-3.2-3.3c0-1.8 1.3-3.2 3.2-3.2H225c2 0 3.3 1.4 3.3 3.2 0 2-1.4 3.3-3.3 3.3z" fill="#000"/><path d="M225 33.6H108.4A4.4 4.4 0 01104 29c0-2.6 2-4.5 4.6-4.5H225c2.7 0 4.6 1.9 4.6 4.5 0 2.7-1.9 4.6-4.6 4.6zm-116.5-6.4c-1 0-1.9.8-1.9 1.8 0 1.1.8 2 2 2h116.3c1.1 0 2-.9 2-2 0-1-.9-1.8-2-1.8H108.5zM225 55.7h-84.5a3.1 3.1 0 01-3.2-3.3c0-1.8 1.3-3.2 3.2-3.2H225c2 0 3.3 1.4 3.3 3.2 0 1.6-1.4 3.3-3.3 3.3z" fill="#000"/><path d="M225 57h-84.5a4.4 4.4 0 01-4.6-4.6c0-2.7 2-4.5 4.6-4.5H225c2.7 0 4.6 1.8 4.6 4.5 0 2.2-1.9 4.6-4.6 4.6zm-84.5-6.4c-1 0-1.9.8-1.9 1.8 0 1.1.8 2 2 2h84.3c1.1 0 2-1.2 2-2 0-1-.9-1.8-2-1.8h-84.4zM225 78.5h-67.3a3.1 3.1 0 01-3.2-3.2c0-1.9 1.3-3.2 3.2-3.2H225c2 0 3.3 1.3 3.3 3.2 0 1.9-1.4 3.2-3.3 3.2z" fill="#000"/><path d="M225 79.9h-67.3a4.4 4.4 0 01-4.6-4.6c0-2.7 2-4.6 4.6-4.6H225c2.7 0 4.6 1.9 4.6 4.6 0 2.7-1.9 4.6-4.6 4.6zm-67.3-6.5c-1 0-1.9.8-1.9 1.9 0 1 .8 1.9 2 1.9h67.1c1.1 0 2-.8 2-2 0-1-.9-1.8-2-1.8h-67.2zM225 101.6h-56a3.1 3.1 0 01-3.2-3.2c0-1.9 1.3-3.2 3.2-3.2h56c1.8 0 3.2 1.3 3.2 3.2 0 1.6-1.4 3.2-3.3 3.2z" fill="#000"/><path d="M225 103h-56a4.4 4.4 0 01-4.6-4.6c0-2.7 2-4.6 4.6-4.6h56c2.6 0 4.5 2 4.5 4.6 0 2.2-1.9 4.6-4.6 4.6zm-56-6.5c-1 0-1.9.8-1.9 2 0 1 .8 1.8 2 1.8h55.8c1.1 0 2-1 2-1.9 0-1-.9-1.9-2-1.9H169zM80.8 190.4c4 0 7.3-2.4 7.3-5.4 0-3-3.3-5.4-7.3-5.4s-7.2 2.4-7.2 5.4c0 3 3.2 5.4 7.2 5.4z" fill="#000"/></mask><g mask="url(#a)"><path fill="url(#paint1_linear)" d="M-7-9h273v289H-7z"/></g><defs><radialGradient id="paint0_radial" cx="0" cy="0" r="1" gradientUnits="userSpaceOnUse" gradientTransform="matrix(0 122 -122 0 133 136)"><stop offset=".6" stop-color="#fff"/><stop offset="1" stop-color="#fff" stop-opacity="0"/></radialGradient><linearGradient id="paint1_linear" x1="17.4" y1="-25.9" x2="-72.9" y2="257.4" gradientUnits="userSpaceOnUse"><stop stop-color="#DD48AA"/><stop offset="1" stop-color="#FFE177"/></linearGradient></defs></svg>