<svg viewBox="0 0 266 273" fill="none" xmlns="http://www.w3.org/2000/svg"><circle cx="133" cy="136" r="122" fill="url(#paint0_radial)"/><mask id="a" mask-type="alpha" maskUnits="userSpaceOnUse" x="0" y="0" width="266" height="273"><path d="M52.23 247.08c-.5 0-1.24-.25-1.74-.5l-12.87-6.44c-1.24-.49-1.98-1.73-1.98-3.21 0-1.49.5-2.72 1.73-3.22l12.88-8.17a3.96 3.96 0 015.2 1.24c.98 1.73.49 3.96-1.24 5.2l-7.43 4.7 6.93 3.47c1.73.99 2.48 3.21 1.73 4.95-.5 1.23-1.98 1.98-3.21 1.98zM84.4 247.08c-1.48 0-2.72-.75-3.22-1.98-.99-1.74-.24-3.97 1.74-4.95l6.93-3.47-7.43-4.7c-1.73-1-2.23-3.47-1.24-5.2 1-1.73 3.47-2.23 5.2-1.24l12.88 8.17a3.6 3.6 0 011.73 3.22c0 1.23-.74 2.47-1.98 3.22l-12.87 6.43c-.5.25-1.24.5-1.74.5zM64.85 248.56c-.5 0-1 0-1.24-.25-1.98-.74-2.97-2.97-2.23-4.7l6.69-17.57c.74-1.98 2.97-2.97 4.7-2.23 1.98.74 2.97 2.97 2.23 4.7L68.3 246.1a3.72 3.72 0 01-3.46 2.47z" fill="#000"/><path d="M113.11 261.18H23.27a3.8 3.8 0 01-3.72-3.7V214.9a3.8 3.8 0 013.72-3.71h89.84a3.8 3.8 0 013.72 3.7v42.58a3.8 3.8 0 01-3.72 3.71zm-86.13-7.42h82.42V218.6H26.98v35.15zM25.99 178.76H0v7.43h25.99v-7.43zM47.52 178.76h-15.1v7.43h15.1v-7.43zM59.9 191.38H22.03v7.43H59.9v-7.43zM15.84 191.38H.74v7.43h15.1v-7.43zM253.38 272.54h-15.35a3.8 3.8 0 01-3.71-3.72v-76.97a3.8 3.8 0 013.71-3.71h15.34a3.8 3.8 0 013.72 3.7v76.98a3.8 3.8 0 01-3.71 3.72zm-11.64-7.43h7.92v-69.55h-7.92v69.55zM158.69 261.08c-1 0-1.98-.24-2.72-.99l-4.95-4.95a3.59 3.59 0 010-5.2 3.59 3.59 0 015.2 0l4.94 4.95a3.59 3.59 0 010 5.2c-.5.74-1.48 1-2.47 1zM144.09 246.48c-1 0-1.98-.25-2.73-1l-4.7-4.7a3.59 3.59 0 010-5.2 3.59 3.59 0 015.2 0l4.7 4.71a3.59 3.59 0 010 5.2c-.5.74-1.48.99-2.47.99zM139.38 261.08c-.99 0-1.73-.24-2.47-.99a3.83 3.83 0 01-.25-5.2l4.7-4.95a3.83 3.83 0 015.2-.24 3.83 3.83 0 01.25 5.2l-4.7 4.94a3.98 3.98 0 01-2.73 1.24zM153.74 246.48c-1 0-1.98-.5-2.73-1.24a3.59 3.59 0 01.25-5.2l4.95-4.7a3.59 3.59 0 015.2.25 3.59 3.59 0 01-.24 5.2l-4.95 4.7c-.75.74-1.5.99-2.48.99z" fill="#000"/><path d="M245.2 195.8c-2.96 0-5.69-.49-8.4-1.72a21.17 21.17 0 01-9.66-8.92 22.19 22.19 0 01-2.72-14.35c0-.25 0-.25.24-.5v-.5c0-.49.25-.98.5-1.72 0-.25 0-.25.24-.5.75-1.73 1.98-2.47 2.97-2.47 1-.25 2.23 0 3.72 1.23l.24.25c1.49 1.98 3.47 3.96 5.45 5.94l.24.25h4.95v-6.19l-.74-.24-.5-.5c-.24-.5-.49-.74-.98-1.24l-.5-.5c0-.24-.24-.24-.5-.49-.24-.25-.98-.99-1.23-1.48 0 0-.25 0-.25-.25-.24-.24-.74-.5-.99-.74a4.3 4.3 0 01-.99-4.46 4.2 4.2 0 013.22-2.47c.74-.25 1.73-.25 2.72-.5 2.97-.5 6.2 0 8.67.75a21.63 21.63 0 0110.89 7.42 21.47 21.47 0 014.2 12.63c.26 12.12-8.9 21.28-20.78 21.28zm-13.36-18.56c.25 1.49 1 2.97 1.73 4.21a12.64 12.64 0 006.2 5.7 13.42 13.42 0 0019.06-12.38c0-2.97-1-5.94-2.73-8.17-1.98-2.47-4.2-4.2-6.93-4.95-.25 0-.74-.25-1.24-.25l1 1c.73.74.98 1.73.98 2.72v11.38a3.8 3.8 0 01-3.71 3.72h-10.15c-1.49 0-2.97-1-4.2-2.98.24.25 0 .25 0 0zM180.6 227.33c-.92 0-1.61-.22-2.3-.9a3.64 3.64 0 01-1.14-2.5c0-2.96-2.06-5-4.8-5a4.67 4.67 0 00-4.8 4.77c0 .9-.46 2.04-1.15 2.72-.68.69-1.82 1.14-2.74.91-2.06-.22-3.89-.9-5.72-1.59a3.7 3.7 0 01-1.6-4.54c.46-1.14.69-1.82.69-2.5a4.67 4.67 0 00-4.8-4.77c-1.37 0-2.52.45-3.43 1.59-.69.68-1.6 1.13-2.52.9-.91 0-1.83-.45-2.51-1.35-.92-1.14-2.06-2.5-2.97-4.32a3.48 3.48 0 011.14-4.32c1.14-.68 2.74-2.27 2.74-4.31a4.67 4.67 0 00-4.8-4.77h-.91a3.5 3.5 0 01-3.43-3.41v-3.63a3.5 3.5 0 013.43-3.41h.23c2.74 0 4.8-2.05 4.8-4.77 0-1.6-.92-3.18-2.29-4.1a2.9 2.9 0 01-1.6-2.04 3.8 3.8 0 01.23-2.72 33.22 33.22 0 012.06-2.96c.22-.45.68-.9.91-1.13.46-.91 1.6-1.36 2.52-1.6.9 0 2.05.23 2.74.92 1.14 1.13 2.28 1.81 3.66 1.81 2.74 0 4.8-2.04 4.8-4.77 0-.9-.23-1.36-.46-1.36-.46-1.14-.91-2.27-.68-3.18.22-.9.91-2.04 1.82-2.5 1.15-.68 2.3-.9 3.2-1.13.24 0 .7-.23 1.15-.23.91-.22 2.06-.22 2.74.23.92.45 1.38 1.36 1.6 2.27a4.87 4.87 0 004.8 4.09 4.94 4.94 0 004.8-4.55c0-.9.7-1.81 1.38-2.5 1.14-.45 2.06-.68 3.2-.45 1.83.46 3.66.9 5.49 1.82.91.45 1.6 1.13 1.83 2.27.45.9.23 2.04-.46 2.72a4.82 4.82 0 00-.69 2.73 4.67 4.67 0 004.8 4.77 4.9 4.9 0 003.9-1.82c.68-.9 1.6-1.36 2.74-1.36a3.8 3.8 0 012.74 1.14c1.14 1.59 2.29 2.95 3.2 4.31.46.91.69 1.82.46 2.73-.23.9-.92 1.82-1.83 2.27-1.6.91-2.74 2.5-2.74 4.32a4.67 4.67 0 004.8 4.77h1.14a3.5 3.5 0 013.43 3.4v4.1c0 1.13-.68 2.26-1.6 2.95-.91.45-2.05.68-2.97.22h-.46a4.67 4.67 0 00-4.8 4.77c0 1.82.92 3.41 2.29 3.87a3.08 3.08 0 012.06 2.04c.23.9.22 2.04-.46 2.95-.92 1.37-1.83 2.96-2.97 4.1-.69.67-1.6 1.35-2.52 1.35-.91 0-2.06-.45-2.74-1.13a4.9 4.9 0 00-3.89-1.82 4.67 4.67 0 00-4.8 4.77c0 .91.23 1.82.69 2.5.45.91.68 2.04.22 2.95-.46.91-1.14 1.82-2.06 2.05l-.68.22c-1.15.46-2.29.69-3.66.91 0 .23-.23.23-.46.23zm-28.13-20.44c5.48 0 10.06 3.86 11.43 8.86a11.6 11.6 0 018.46-3.64c3.2 0 5.95 1.14 8 3.18a11.78 11.78 0 0111.2-8.4c.7 0 1.38 0 2.06.23a16.08 16.08 0 01-.9-4.78c0-4.54 2.5-8.17 6.16-10.22a11.53 11.53 0 01-4.57-15c-.91.23-1.83.23-2.74.23a11.65 11.65 0 01-11.66-10.44 11.6 11.6 0 01-8.46 3.63 12.2 12.2 0 01-7.55-2.72 11.55 11.55 0 01-11.43 9.08c-.92 0-1.83 0-2.75-.22a10.5 10.5 0 011.38 5.22c0 4.09-2.3 7.72-5.5 9.77a11.85 11.85 0 016.18 10.22c0 1.82-.46 3.63-1.14 5.22.46-.22 1.14-.22 1.83-.22z" fill="#000"/><path d="M171.6 204.8a13.35 13.35 0 01-13.46-13.47c0-7.53 5.93-13.47 13.47-13.47 7.53 0 13.46 5.94 13.46 13.47s-5.93 13.47-13.46 13.47zm0-20.09a6.62 6.62 0 10.02 13.25 6.62 6.62 0 00-.01-13.25zM203.28 261.2a12.15 12.15 0 01-12.12-12.12c0-6.69 5.44-12.13 12.13-12.13 6.68 0 12.12 5.45 12.12 12.13 0 6.68-5.44 12.12-12.13 12.12zm0-16.83a4.87 4.87 0 00-4.7 4.7c0 2.48 2.23 4.71 4.7 4.71 2.48 0 4.7-2.23 4.7-4.7 0-2.48-2.22-4.7-4.7-4.7zM20.58 125.04c0-12.64-.27-24.47 2.96-36.84-1.88.27-4.04.54-5.92 1.61-2.42 1.08-4.57 2.96-4.57 6.19v23.12c0 4.3 1.61 6.19 3.77 7.8 1.88.8 3.76 1.08 3.76-1.88zm62.65-91.7c0 4.04-6.18 4.04-6.18 0V14.52A13.2 13.2 0 0190.23 1.34h149.24a13.2 13.2 0 0113.17 13.18v95.2a13.2 13.2 0 01-13.17 13.17h-12.91c-1.08 0-1.88.8-1.88 1.88v21.78c0 1.61-1.62 2.42-2.96 1.61l-38.19-25c-.26-.27-.8-.27-1.07-.27h-16.94c-4.03 0-4.03-6.19 0-6.19h18.55c.27 0 .81 0 1.08.27l30.11 19.9c1.35.81 2.96 0 2.96-1.61v-16.67c0-1.08.81-1.89 1.88-1.89h19.1c3.76 0 6.99-3.22 6.99-6.99V14.52c0-3.76-3.23-7-7-7H90.24c-3.77 0-7 3.24-7 7v18.82zM25.7 81.74c7.26-18.55 20.97-30.65 36.57-36.3 18.82-6.72 39.8-3.5 55.13 9.69 7.52 6.45 13.7 15.32 17.74 26.62 8.07.27 16.67 3.5 18.29 11.83.27 1.88.27 3.5.27 5.38v19.9c0 8.87-4.04 11.29-8.6 14.25-5.39 3.5-6.46 4.84-8.88 10.75a83.8 83.8 0 01-9.41 20.98c-9.15 13.71-22.05 20.97-35.77 22.85-.27 1.35-1.07 2.42-1.88 3.5a8.38 8.38 0 01-5.65 2.42h-5.37c-2.16 0-4.3-.8-5.65-2.42-3.23-3.23-3.23-9.41 0-12.64a8.38 8.38 0 015.65-2.42h5.37c2.15 0 4.3.8 5.65 2.42.8.8 1.34 1.88 1.88 2.96 11.83-1.61 22.86-8.07 30.66-19.9 12.9-19.1 15.6-51.1 9.14-73.14-3.5-12.37-9.68-21.51-17.21-28.24-13.45-11.56-32.27-14.52-48.94-8.6-14.52 5.1-27.16 16.94-33.34 34.42-4.58 12.9-4.3 26.08-4.04 39.53 0 5.91-6.18 11.02-12.37 6.99-4.3-2.69-7.53-5.38-7.53-13.45V96c.27-6.19 3.77-9.68 8.34-11.56 2.96-2.16 7.26-2.7 9.95-2.7zm57 100.58h-5.37c-2.42 0-2.42 4.84 0 4.84h5.38c2.69 0 2.69-4.84 0-4.84zm54.06-94.12c3.5 13.18 3.76 27.97 1.88 41.41.8-.54 1.88-1.08 2.69-1.61 3.22-1.89 5.64-3.5 5.64-8.88v-19.9c0-1.6.27-3.5-.27-4.84-1.07-4.3-5.91-5.91-9.94-6.18z" fill="#000"/><path d="M83.5 194.95h-5.37A8.74 8.74 0 0171.4 192c-1.61-1.62-2.69-4.3-2.69-7.26s1.08-5.38 2.7-7.27a10.06 10.06 0 016.72-2.68h5.37c2.7 0 5.11 1.07 6.73 2.95.53.54 1.07 1.62 1.6 2.42 11.84-1.88 21.79-8.6 28.78-19.09 11.83-17.75 15.87-48.67 8.88-72.06-3.23-11.3-8.88-20.44-16.95-27.7-12.9-11.02-30.92-14.25-47.6-8.34C49.9 58.35 38.07 70.45 32.42 86.6c-4.57 12.64-4.3 25.54-4.03 38.99 0 3.76-1.88 6.99-5.11 8.87-2.96 1.62-6.45 1.35-9.41-.54-4.57-2.69-8.07-5.91-8.07-14.52V96.27c.27-5.92 3.5-10.49 9.14-12.64 3.23-2.15 7.26-2.69 9.68-2.96 7-17.2 20.17-30.12 37.11-36.3 19.63-7 41.14-3.23 56.47 9.95 7.8 6.72 13.72 15.6 17.75 26.35 10.22.54 17.2 5.38 18.55 12.9.27 2.16.27 3.77.27 5.66v19.63c0 9.4-4.3 12.1-8.87 15.32-5.11 3.23-5.92 4.57-8.34 10.22a95.85 95.85 0 01-9.4 21.24c-8.61 12.91-20.98 20.98-35.77 23.4-.54 1.07-1.08 2.15-1.88 3.23-2.16 1.6-4.58 2.68-7 2.68zm-5.37-17.47c-1.62 0-3.5.8-4.58 2.15A7.5 7.5 0 0071.4 185c0 2.15.81 4.03 2.15 5.37a5.74 5.74 0 004.58 2.15h5.37c1.62 0 3.5-.8 4.57-2.15.54-.8 1.35-1.88 1.62-2.69l.27-.8h1.07c14.52-1.89 26.36-9.68 34.96-22.32 3.76-5.92 7-12.91 9.14-20.7 2.7-6.2 3.77-7.8 9.41-11.57l.27-.27c4.3-2.69 7.8-5.11 7.8-12.9v-19.9c0-1.89 0-3.5-.27-5.11-1.88-9.42-13.44-10.5-16.94-10.76h-.8l-.28-.8c-3.76-10.76-9.68-19.37-17.47-26.1-14.52-12.36-35.23-16.13-53.78-9.4-16.4 5.91-29.05 18.55-35.77 35.5l-.27.8h-.8c-1.35 0-6.19.27-9.15 2.42l-.27.27c-4.83 1.88-7.25 5.38-7.52 10.49v23.12c0 7.53 2.95 9.68 6.99 12.37 2.15 1.34 4.57 1.61 6.72.54a7.81 7.81 0 003.77-6.46c-.27-13.71-.54-26.89 4.03-40.06 5.92-16.94 18.29-29.58 34.15-35.23 17.48-6.18 36.84-2.69 50.28 8.87 8.34 7.53 14.26 17.21 17.75 28.78 7 23.93 2.96 55.93-9.4 74.21-7.54 11.57-18.56 18.83-31.47 20.44h-1.08l-.53-.8a23.5 23.5 0 00-1.62-2.7 5.74 5.74 0 00-4.57-2.15h-6.18zm4.57 11.02h-5.38c-1.88 0-3.23-1.61-3.23-3.76 0-2.16 1.35-3.77 3.23-3.77h5.38c1.88 0 3.22 1.62 3.22 3.77s-1.34 3.76-3.22 3.76zm-5.38-4.84c-.27 0-.54.54-.54 1.08 0 .53.27 1.07.54 1.07h5.38c.53 0 .53-1.07.53-1.07s0-1.08-.53-1.08h-5.38zm145.47-33.88c-.53 0-1.34-.27-1.88-.54l-38.18-25h-17.21c-2.96 0-4.3-2.16-4.3-4.58 0-2.15 1.6-4.3 4.3-4.3h18.55c.27 0 1.35 0 1.89.54l30.11 19.9h.54c.27 0 .27-.27.27-.54v-16.67a3.1 3.1 0 013.22-3.23h19.1a5.87 5.87 0 005.64-5.65V14.52a5.87 5.87 0 00-5.64-5.65H90.23a5.87 5.87 0 00-5.65 5.65v18.82c0 5.65-8.88 5.65-8.88 0V14.52C75.7 6.45 82.16 0 90.23 0h149.24c8.06 0 14.52 6.45 14.52 14.52v95.2c0 8.06-6.46 14.51-14.52 14.51h-12.91a.58.58 0 00-.54.54v21.78c0 1.35-.54 2.42-1.61 2.96-.54.27-1.08.27-1.62.27zm-38.45-27.7l38.19 25h.53c.27 0 .27-.26.27-.53v-21.78a3.1 3.1 0 013.23-3.23h12.9c6.46 0 11.84-5.37 11.84-11.83V14.52c0-6.45-5.38-11.83-11.83-11.83H90.23a11.94 11.94 0 00-11.84 11.83v18.82c0 1.62 1.35 1.62 1.62 1.62s1.88 0 1.88-1.62V14.52a8.38 8.38 0 018.34-8.34H239.2a8.38 8.38 0 018.33 8.34v95.2a8.38 8.38 0 01-8.33 8.33h-19.1c-.26 0-.53.27-.53.54v16.67c0 1.34-.54 2.42-1.61 2.96a3.99 3.99 0 01-3.5 0l-30.39-20.17h-18.82c-1.61 0-1.61 1.34-1.61 1.61s0 1.88 1.6 1.88h16.95c.54 0 1.61 0 2.15.54zm-47.33 10.22l.54-2.96c1.88-14.25 1.35-28.77-1.88-40.87l-.54-1.88h1.88c5.92.27 10.22 2.95 11.3 7.26.54 1.07.27 2.69.27 4.03v20.98c0 6.45-3.23 8.33-6.19 9.94-.26.27-.8.54-1.34.81s-.8.54-1.35.81l-2.69 1.88zm1.62-42.49c2.69 11.3 3.22 24.2 1.88 37.38 0 0 .27 0 .27-.27 3.23-1.88 5.1-3.23 5.1-7.8V97.88c0-1.08 0-2.42-.26-2.96-1.08-3.5-4.57-4.57-7-5.1zm-119.66 39c-.81 0-1.89-.28-2.7-.54l-.26-.27c-2.15-1.62-4.3-4.04-4.3-8.88V96c0-3.23 1.88-5.92 5.37-7.53 1.89-1.08 4.04-1.35 5.92-1.61l1.88-.27v1.88c-2.96 11.3-2.96 22.32-2.96 33.88v2.69c0 1.61-.53 2.69-1.34 3.23-.54.53-1.08.53-1.61.53zm-1.35-2.96c1.35.53 1.62.27 1.62.27s.26-.27.26-1.08v-2.69c0-11.02 0-21.51 2.42-32.54-1.34.27-2.42.54-3.5 1.08-2.68 1.07-3.76 2.69-3.76 5.1v23.13c-.26 3.5.81 5.11 2.96 6.73z" fill="#000"/><path d="M224.95 32.27H108.5a3.1 3.1 0 01-3.22-3.23 3.1 3.1 0 013.22-3.23h116.44a3.1 3.1 0 013.22 3.23 3.1 3.1 0 01-3.22 3.23z" fill="#000"/><path d="M224.95 33.61H108.5a4.38 4.38 0 01-4.57-4.57 4.38 4.38 0 014.57-4.57h116.44a4.38 4.38 0 014.57 4.57 4.38 4.38 0 01-4.57 4.57zM108.5 27.16c-1.07 0-1.88.8-1.88 1.88 0 1.08.8 1.88 1.88 1.88h116.44c1.07 0 1.88-.8 1.88-1.88 0-1.07-.81-1.88-1.88-1.88H108.5zM224.95 55.66H140.5a3.1 3.1 0 01-3.23-3.22 3.1 3.1 0 013.23-3.23h84.44a3.1 3.1 0 013.22 3.23 3.27 3.27 0 01-3.22 3.22z" fill="#000"/><path d="M224.94 57h-84.43a4.38 4.38 0 01-4.57-4.56 4.38 4.38 0 014.57-4.58h84.44a4.38 4.38 0 014.57 4.58 4.7 4.7 0 01-4.58 4.57zm-84.43-6.45c-1.07 0-1.88.81-1.88 1.89 0 1.07.8 1.88 1.88 1.88h84.44c1.07 0 1.88-1.08 1.88-1.88 0-1.08-.81-1.89-1.89-1.89h-84.43zM224.94 78.52h-67.22a3.1 3.1 0 01-3.23-3.23 3.1 3.1 0 013.23-3.22h67.22a3.1 3.1 0 013.23 3.22 3.1 3.1 0 01-3.22 3.23z" fill="#000"/><path d="M224.94 79.86h-67.22a4.38 4.38 0 01-4.57-4.57 4.38 4.38 0 014.57-4.57h67.22a4.38 4.38 0 014.58 4.57 4.38 4.38 0 01-4.58 4.57zm-67.22-6.45c-1.08 0-1.88.8-1.88 1.88 0 1.08.8 1.88 1.88 1.88h67.22c1.08 0 1.89-.8 1.89-1.88 0-1.07-.81-1.88-1.89-1.88h-67.22zM224.95 101.64H169a3.1 3.1 0 01-3.22-3.22 3.1 3.1 0 013.22-3.23h55.94a3.1 3.1 0 013.22 3.23 3.27 3.27 0 01-3.22 3.22z" fill="#000"/><path d="M224.95 102.99H169a4.38 4.38 0 01-4.57-4.57 4.38 4.38 0 014.57-4.57h55.94a4.38 4.38 0 014.57 4.57 4.7 4.7 0 01-4.57 4.57zM169 96.54c-1.07 0-1.88.8-1.88 1.88 0 1.07.81 1.88 1.88 1.88h55.94c1.07 0 1.88-1.08 1.88-1.88 0-1.08-.81-1.88-1.88-1.88H169zM80.81 190.38c4.01 0 7.26-2.4 7.26-5.38 0-2.97-3.25-5.37-7.26-5.37-4 0-7.26 2.4-7.26 5.38 0 2.97 3.25 5.37 7.26 5.37z" fill="#000"/></mask><g mask="url(#a)"><path fill="url(#paint1_linear)" d="M-7-9h273v289H-7z"/></g><defs><radialGradient id="paint0_radial" cx="0" cy="0" r="1" gradientUnits="userSpaceOnUse" gradientTransform="matrix(0 122 -122 0 133 136)"><stop offset=".59" stop-color="#fff"/><stop offset="1" stop-color="#fff" stop-opacity="0"/></radialGradient><linearGradient id="paint1_linear" x1="-7" y1=".68" x2="261.13" y2="232.27" gradientUnits="userSpaceOnUse"><stop stop-color="#0085FF"/><stop offset="1" stop-color="#00F3C8"/></linearGradient></defs></svg>