<svg viewBox="0 0 286 278" fill="none" xmlns="http://www.w3.org/2000/svg"><circle cx="142.89" cy="139" r="139" fill="url(#paint0_radial)"/><path fill-rule="evenodd" clip-rule="evenodd" d="M201.96 105.13c.86.86 1.71 1.14 2.85 1.14.29 0 .57 0 .57-.28 1.71-.29 3.14-.57 4.56-1.14l.86-.29c1.14-.28 1.99-1.42 2.56-2.56.57-1.14.29-2.56-.28-3.7-.58-.86-.86-2-.86-3.14a5.84 5.84 0 015.98-5.98c2 0 3.7.86 4.85 2.28a5.25 5.25 0 003.41 1.42c1.14 0 2.28-.85 3.14-1.7 1.11-1.12 2.05-2.58 2.95-3.98l.75-1.15c.85-1.14.86-2.57.57-3.7a3.85 3.85 0 00-2.56-2.57c-1.71-.57-2.85-2.56-2.85-4.84a5.84 5.84 0 015.98-5.98h.57c1.14.57 2.56.28 3.7-.29 1.14-.85 2-2.28 2-3.7v-5.13c0-2.28-2-4.27-4.28-4.27h-1.42a5.84 5.84 0 01-5.98-5.98c0-2.28 1.42-4.28 3.41-5.42 1.14-.57 2-1.7 2.28-2.84a4.9 4.9 0 00-.57-3.42c-.64-.97-1.38-1.94-2.16-2.97-.6-.77-1.21-1.58-1.83-2.45-.85-.85-1.99-1.42-3.41-1.42-1.43 0-2.57.57-3.42 1.7a6.08 6.08 0 01-4.84 2.29 5.84 5.84 0 01-5.99-5.98c0-1.43.29-2.57.86-3.42a3.03 3.03 0 00.57-3.42 3.92 3.92 0 00-2.28-2.85c-2.28-1.14-4.56-1.7-6.84-2.28-1.42-.28-2.56 0-3.99.57-.85.86-1.7 2-1.7 3.13-.29 3.14-2.85 5.7-5.99 5.7-2.85 0-5.41-2-5.98-5.13-.28-1.13-.85-2.27-2-2.84-.85-.57-2.27-.57-3.41-.29-.34 0-.67.1-.95.18-.2.06-.36.1-.48.1l-.37.1c-1.07.26-2.34.57-3.61 1.33-1.14.57-2 2-2.28 3.13-.29 1.14.28 2.57.85 4 .29 0 .57.56.57 1.7a5.84 5.84 0 01-5.98 5.98c-1.71 0-3.13-.85-4.56-2.28-.85-.85-2.28-1.14-3.42-1.14-1.14.29-2.56.86-3.13 2-.3.29-.86.86-1.14 1.42-.86 1.14-1.71 2.28-2.56 3.7a4.79 4.79 0 00-.29 3.42c.29 1.14.86 2 2 2.57a6.37 6.37 0 012.85 5.13 5.84 5.84 0 01-5.99 5.98h-.28c-2.28 0-4.27 2-4.27 4.27v4.56c0 2.28 2 4.27 4.27 4.27h1.14a5.84 5.84 0 015.98 5.98c0 2.57-2 4.56-3.42 5.41a4.38 4.38 0 00-1.42 5.42c1.06 2.12 2.36 3.74 3.46 5.1l.24.31c.86 1.14 2 1.7 3.13 1.7 1.14.3 2.28-.28 3.14-1.13a5.13 5.13 0 014.27-2 5.84 5.84 0 015.98 5.99c0 .85-.28 1.7-.85 3.13-.86 2 0 4.56 2 5.7 2.28.86 4.55 1.7 7.11 2 1.14.28 2.57-.3 3.42-1.15a5.26 5.26 0 001.43-3.42 5.84 5.84 0 015.98-5.98c3.42 0 5.98 2.57 5.98 6.27 0 1.14.57 2.28 1.42 3.13zm-17.94-13.39c-1.71-6.26-7.4-11.1-14.25-11.1-.85 0-1.7 0-2.27.28.85-2 1.42-4.27 1.42-6.55 0-5.41-3.13-10.26-7.69-12.82a14.74 14.74 0 006.84-12.25c0-2.28-.57-4.56-1.71-6.55 1.14.28 2.28.28 3.42.28a14.4 14.4 0 0014.24-11.4c2.56 2 5.7 3.43 9.4 3.43 3.99 0 7.98-1.71 10.54-4.56.85 7.4 6.84 13.1 14.53 13.1 1.14 0 2.28 0 3.42-.28a14.5 14.5 0 00-1.43 6.27c0 5.4 2.85 9.97 7.12 12.53-4.56 2.56-7.69 7.12-7.69 12.82 0 2 .57 4.27 1.14 5.98-.85-.28-1.7-.28-2.56-.28a14.7 14.7 0 00-13.96 10.54 13.75 13.75 0 00-9.97-4c-4 0-7.98 1.72-10.54 4.56zM0 43.04h29.91v8.54H0v-8.55zm130.18 94.85H26.78c-2.28 0-4.28-2-4.28-4.27v-49c0-2.28 2-4.27 4.28-4.27h103.4c2.28 0 4.27 2 4.27 4.27v49c0 2.28-1.99 4.27-4.27 4.27zm-99.13-8.54h94.86V88.9H31.05v40.44zm43.58-5.99c-.57 0-1.14 0-1.42-.28-2.28-.85-3.42-3.42-2.57-5.41l7.7-20.23c.85-2.28 3.41-3.41 5.4-2.56 2.29.85 3.43 3.42 2.57 5.41l-7.69 20.23a4.28 4.28 0 01-3.99 2.84zm-14.52-1.7c-.57 0-1.43-.29-2-.57l-14.81-7.41c-1.43-.57-2.28-2-2.28-3.7 0-1.71.57-3.14 2-3.7l14.8-9.4c2-1.15 4.56-.58 5.99 1.42 1.14 2 .57 4.56-1.43 5.98l-8.54 5.41 7.97 3.99c2 1.14 2.85 3.7 2 5.7-.57 1.42-2.28 2.28-3.7 2.28zM208.5 260.1H26.79c-2.28 0-4.28-2-4.28-4.28v-88.59c0-2.28 2-4.27 4.28-4.27h181.74c2.28 0 4.27 2 4.27 4.27v88.6c0 2.27-2 4.27-4.27 4.27zm-177.46-8.55h173.2v-80.04H31.05v80.04zm29.06-44.72H43.3c-2.28 0-4.27-2-4.27-4.27v-16.81c0-2.28 1.99-4.27 4.27-4.27h16.8c2.28 0 4.28 1.99 4.28 4.27v16.8c0 2.28-2 4.28-4.27 4.28zm-12.54-8.55h8.26v-8.26h-8.26v8.26zm-4.27 43.3h16.8c2.28 0 4.28-2 4.28-4.27v-16.8c0-2.29-2-4.28-4.27-4.28H43.3c-2.28 0-4.27 2-4.27 4.27v16.8c0 2.29 1.99 4.28 4.27 4.28zm12.53-8.54h-8.26v-8.27h8.26v8.27zm37.6-26.21h-16.8c-2.28 0-4.28-2-4.28-4.27v-16.81c0-2.28 2-4.27 4.28-4.27h16.8c2.28 0 4.28 1.99 4.28 4.27v16.8c0 2.28-2 4.28-4.28 4.28zm-12.53-8.55h8.26v-8.26H80.9v8.26zm-4.27 43.3h49.85c2.28 0 4.27-2 4.27-4.27v-16.8c0-2.29-2-4.28-4.27-4.28H76.63c-2.28 0-4.28 2-4.28 4.27v16.8c0 2.29 2 4.28 4.28 4.28zm45.58-8.54H80.9v-8.27h41.3v8.27zm4.27-26.21h-16.8c-2.29 0-4.28-2-4.28-4.27v-16.81c0-2.28 2-4.27 4.27-4.27h16.8c2.29 0 4.28 1.99 4.28 4.27v16.8c0 2.28-2 4.28-4.27 4.28zm-12.54-8.55h8.27v-8.26h-8.27v8.26zm29.06 8.55h16.8c2.28 0 4.28-2 4.28-4.27v-16.81c0-2.28-2-4.27-4.28-4.27H143c-2.28 0-4.27 1.99-4.27 4.27v16.8c0 2.28 2 4.28 4.27 4.28zm12.53-8.55h-8.26v-8.26h8.26v8.26zm4.28 43.3H143c-2.28 0-4.27-2-4.27-4.27v-16.8c0-2.29 2-4.28 4.27-4.28h16.8c2.28 0 4.28 2 4.28 4.27v16.8c0 2.29-2 4.28-4.28 4.28zm-12.54-8.54h8.26v-8.27h-8.26v8.27zm28.77-26.21h16.81c2.28 0 4.27-2 4.27-4.27v-16.81c0-2.28-2-4.27-4.27-4.27h-16.8c-2.29 0-4.28 1.99-4.28 4.27v16.8c0 2.28 2 4.28 4.27 4.28zm12.53-8.55h-8.26v-8.26h8.26v8.26zm-95.14-78.9c.57 1.42 2 2.28 3.7 2.28.58 0 1.43-.29 2-.57l14.82-7.41a4.45 4.45 0 002.27-3.7c0-1.43-.56-2.85-1.99-3.7l-14.81-9.4c-2-1.15-4.85-.58-5.99 1.42-1.14 2-.57 4.84 1.43 5.98l8.54 5.41-7.97 3.99c-2.28 1.14-3.14 3.7-2 5.7zm82.61 122.2h16.81c2.28 0 4.27-2 4.27-4.27v-16.8c0-2.29-2-4.28-4.27-4.28h-16.8c-2.29 0-4.28 2-4.28 4.27v16.8c0 2.29 2 4.28 4.27 4.28zm12.53-8.54h-8.26v-8.27h8.26v8.27zM54.7 43.04H37.32v8.54h17.37v-8.55zM.85 168.93H9.4v29.91H.85v-29.9zm8.55-24.5H.85v17.38H9.4v-17.38zm15.95-86.88h43.59v8.55H25.35v-8.55zm-7.12 0H.85v8.55h17.38v-8.55zm219.63 202.82h17.66c2.28 0 4.27-2 4.27-4.27v-88.12c6.4-4.31 10.43-11.7 10.25-20.4a24.7 24.7 0 00-4.84-14.54 24.88 24.88 0 00-12.53-8.54c-2.85-.86-6.55-1.43-9.97-.86-.54.14-1.07.2-1.58.27-.57.08-1.1.15-1.56.3a4.85 4.85 0 00-3.7 2.85 4.95 4.95 0 001.14 5.13c.14.14.36.28.57.43.21.14.43.28.57.42 0 .29.28.29.28.29a8.96 8.96 0 001.43 1.7c.1.11.21.18.3.24.16.1.27.16.27.34a32.53 32.53 0 00.32.32l.14.13.1.12h.02c.56.57.84.85 1.13 1.42l.56.57.86.28v7.12h-5.7l-.28-.28c-2.28-2.28-4.56-4.56-6.27-6.84l-.28-.28c-1.71-1.43-3.14-1.71-4.28-1.43-1.13 0-2.56.86-3.41 2.85-.17.16-.24.24-.27.32-.02.06-.02.13-.02.25l-.22.63c-.2.53-.35.95-.35 1.36v.58c-.28.28-.28.28-.28.56-.85 5.7.28 11.68 3.13 16.53a23.73 23.73 0 008.27 8.69v87.59c0 2.28 1.99 4.27 4.27 4.27zm13.39-88.59h-1.29a25.9 25.9 0 01-7.78 0h-.05v80.05h9.12v-80.05zm10.54-23.93a15.4 15.4 0 01-12.6 15.39h-5.82a18.3 18.3 0 01-3.52-1.15 14.56 14.56 0 01-7.12-6.55 14.72 14.72 0 01-1.97-4.72c.03.09.1.11.1.08 1.4 2.15 3.06 3.22 4.72 3.22h11.68c2.28 0 4.27-2 4.27-4.27v-13.1c0-1.15-.28-2.28-1.14-3.14l-1.14-1.14c.34 0 .67.1.95.18.2.06.36.1.48.1 3.13.86 5.7 2.85 7.97 5.7 2 2.56 3.14 5.98 3.14 9.4zm19.37-59.82a4.27 4.27 0 01-3.14-1.14l-5.7-5.7a4.13 4.13 0 010-5.98 4.13 4.13 0 015.99 0l5.7 5.7a4.13 4.13 0 010 5.98c-.57.86-1.71 1.14-2.85 1.14zM261.22 70.1c.85.85 2 1.14 3.13 1.14 1.14 0 2.28-.29 2.85-1.14a4.13 4.13 0 000-5.99l-5.41-5.4a4.13 4.13 0 00-5.99 0 4.13 4.13 0 000 5.97l5.42 5.42zm-2.28 17.94c-1.14 0-2-.28-2.85-1.14a4.4 4.4 0 01-.28-5.98l5.4-5.7a4.4 4.4 0 015.99-.28 4.4 4.4 0 01.28 5.98l-5.4 5.7c-.86.85-2 1.42-3.14 1.42zm13.38-18.23c.86.86 2 1.43 3.14 1.43 1.14 0 2-.29 2.85-1.15l5.7-5.4c1.7-1.43 1.99-4.28.28-6a4.13 4.13 0 00-5.98-.27l-5.7 5.4a4.13 4.13 0 00-.29 6zm-78.9 8.83c-9.4 0-16.8-7.4-16.8-16.8s7.4-16.81 16.8-16.81 16.8 7.4 16.8 16.8-7.4 16.81-16.8 16.81zm0-25.07a8.27 8.27 0 10.01 16.54 8.27 8.27 0 00-.01-16.54zm-38.17 80.05c0 7.69 6.27 13.96 13.96 13.96 7.69 0 13.95-6.27 13.95-13.96 0-7.7-6.26-13.96-13.95-13.96-7.7 0-13.96 6.27-13.96 13.96zm8.54 0a5.6 5.6 0 015.42-5.41 5.6 5.6 0 015.4 5.41 5.6 5.6 0 01-5.4 5.41 5.6 5.6 0 01-5.42-5.41z" fill="url(#paint1_linear)"/><defs><radialGradient id="paint0_radial" cx="0" cy="0" r="1" gradientUnits="userSpaceOnUse" gradientTransform="matrix(0 139 -139 0 142.9 139)"><stop offset=".59" stop-color="#fff"/><stop offset="1" stop-color="#fff" stop-opacity="0"/></radialGradient><linearGradient id="paint1_linear" x1="285" y1="-12" x2="67.57" y2="297.48" gradientUnits="userSpaceOnUse"><stop stop-color="#4C8EF1"/><stop offset="1" stop-color="#FF37EB"/></linearGradient></defs></svg>