<svg version="1" xmlns="http://www.w3.org/2000/svg" width="480" height="480" viewBox="0 0 360.000000 360.000000"><path d="M212.2 1.3c-.5.7-12.5 18.5-26.7 39.7-14.2 21.2-29 43.2-33 49-9.3 13.7-9.4 13.9-6.9 12 1-.8 3.5-2.8 5.4-4.5 2-1.6 5.8-4.9 8.5-7.1 5.4-4.5 44.9-37.8 65.5-55.2 6.9-5.8 12.8-10.8 13.3-11.2.4-.3-5.1-5.9-12.2-12.3-9.4-8.4-13.2-11.3-13.9-10.4zm-74.6 2.4c-.5 1.6-3.4 16.9-4.1 21.8-.1 1.1-1.2 7.2-2.3 13.5-1.2 6.3-2.4 13.1-2.7 15-.3 1.9-1.5 8.7-2.6 15-1.2 6.3-2.3 12.6-2.5 14-.3 1.4-1.1 6.1-1.9 10.5-.8 4.4-1.7 9.8-2.1 12-.3 2.2-1.2 7.1-1.9 11-.7 3.8-1.2 7.1-1 7.3.1.1 1-1.4 2-3.5s7.7-15.7 14.8-30.3c7.1-14.6 16-32.8 19.7-40.5 3.7-7.7 9.2-19.1 12.3-25.3 3.4-7.2 5.1-11.5 4.3-11.8-1.9-.7-31-10.4-31.2-10.4-.2 0-.5.8-.8 1.7zM263 21.9c-2.8 2.1-26.7 20.7-44.5 34.7-1.6 1.3-12.9 10-25 19.4-25.7 20-26.6 20.9-21 18.5 2.2-.9 22.5-9.1 45-18.2 34.5-13.9 58.6-23.7 64.3-26 .6-.3 1.2-.9 1.2-1.3 0-.5-3.3-6.6-7.3-13.7-4.1-7-7.8-13.5-8.3-14.4-.8-1.5-1.3-1.4-4.4 1zM85.7 23.7c-.2.1.2 4 .9 8.5.6 4.6 1.5 10.5 1.8 13.3.4 2.7 1.1 8.1 1.7 12 .5 3.8 1.2 8.8 1.5 11 .2 2.2.7 5.1.9 6.5.2 1.4 1.6 11 3 21.5 1.4 10.4 2.8 20.1 3 21.5.2 1.4.9 6.5 1.5 11.5.7 4.9 1.4 9.7 1.6 10.5.1.8.3 2.6.3 3.9.1 3.3 1.1 2.1 1.6-2 .3-1.9.7-5 1-6.9.3-1.9.8-5.1 1-7 .2-1.9.7-5.3 1-7.5.4-2.2.8-5.1 1-6.5.2-1.4.6-4.3 1-6.5.3-2.2.7-5.4.9-7 .6-4.4 3.7-26.6 4.1-29.5.2-1.4.6-4.5 1-7 .3-2.5.8-5.6 1-7 .2-1.4.7-4.5 1-7 .3-2.5 1-7.2 1.5-10.5s1.2-8.3 1.5-11l.6-5.1H103c-9.4 0-17.2.1-17.3.3zM56.9 63.4c-4.8 2.2-10.7 4.9-20.1 9-3.2 1.4-5.8 2.8-5.8 3.1 0 .6 63.9 103.6 65 104.8.4.5-6.8-25.8-16.2-58.5-9.3-32.6-17.3-59.6-17.6-59.9-.4-.4-2.7.3-5.3 1.5zM261 84c-32.6 8.2-56.9 14.9-55 15 7.5.3 51.6 1.8 71.5 2.5 6.1.2 19.7.7 30.3 1l19.4.7-.6-4.3c-.3-2.4-.8-7.6-1.2-11.4-.4-3.9-.8-7.9-.9-9-.1-1.1-.3-3.7-.4-5.8-.1-3.2-.4-3.7-2.3-3.6-1.3 0-28.6 6.8-60.8 14.9zm-33.5 25.8c.6.5 16.5 6.6 35.5 13.5s40.1 14.7 47 17.2c6.9 2.6 13 4.8 13.5 4.9.6.2 2.1.7 3.5 1.3 11.5 4.5 15.2 5.6 15.9 4.4 1-1.6 7.5-32 7-32.5-.2-.2-4.9-.7-10.4-1-5.5-.4-12.2-.9-15-1.1-2.7-.3-9-.7-14-1-4.9-.3-11.5-.8-14.5-1-8.1-.7-17.4-1.4-27-2-4.7-.3-11-.7-14-1-3-.2-9.8-.6-15-1-5.2-.3-10.4-.9-11.5-1.2-1.3-.3-1.7-.2-1 .5zm-204 10.5c-.6.7-5.5 6.3-11 12.5s-10.1 11.6-10.3 12c-.1.4 1.7 1.9 4 3.4 2.4 1.5 9.5 6.2 15.8 10.5 6.3 4.3 21.4 14.5 33.5 22.7 12.1 8.2 28.3 19.2 36 24.4 7.7 5.3 13.3 8.7 12.4 7.6-10.7-13-16.5-20-16.9-20.4-.3-.3-7.5-8.8-16-19s-15.7-18.7-16-19c-.3-.3-7.2-8.5-15.3-18.3-8.2-9.7-14.9-17.7-15-17.7-.1.1-.7.6-1.2 1.3zM251 135.9c0 .5.4 1.1.9 1.3.5.1 12.1 11.2 25.8 24.4 13.6 13.3 27.7 27 31.3 30.4 3.6 3.4 11.7 11.3 18.1 17.6 6.3 6.3 11.8 11.4 12.2 11.4.8 0 19.7-26.3 19.6-27.5 0-.9-5.7-4.1-37.4-20.9-22.4-11.9-27.4-14.6-61.7-33-4.9-2.6-8.8-4.3-8.8-3.7zm12.3 29.1c1.9 3.6 5.8 11 8.7 16.5 4.9 9.4 10.2 19.3 17.5 33 1.8 3.3 8.3 15.7 14.5 27.5 6.3 11.8 12.1 22.7 12.9 24.1l1.6 2.6 13.5-9.6c7.4-5.4 13.5-10.2 13.5-10.8 0-1-25.7-28-75.5-79.3l-10.2-10.5 3.5 6.5zm-250.9 8.5c-.8 2.1-3.9 9.2-6.9 15.8C2.6 196 .3 201.6.4 201.8c.4.3 53.1 15.6 94.6 27.3 11.8 3.4 22.3 6.6 23.3 7.1.9.5 1.7.7 1.7.4 0-.4-22.4-14.7-30.8-19.7-1.5-.9-18.4-11.5-37.7-23.6-19.2-12-35.6-22.3-36.3-22.7-.8-.5-1.7.4-2.8 2.9zm249 26c.3 3.3.8 10.3 1.2 15.5.3 5.2.8 11.7 1 14.5.1 2.7.6 9 .9 14 .3 4.9.8 10.8.9 13 .2 2.2.7 8.9 1.1 15 .4 6 .8 12.8 1 15 .2 2.2.6 8.7 1 14.5.6 9.6 1.3 16.1 1.8 16.6.1.1 5.8-1.1 12.7-2.6 6.9-1.6 13.3-2.9 14.2-3 .9 0 2.8-.4 4.1-.9l2.5-1-6.5-17.8c-6.4-17.8-10.6-29.1-18.1-49.8-2.2-6.1-7.1-19.3-10.7-29.5-3.7-10.2-6.9-18.7-7.2-19-.3-.3-.2 2.2.1 5.5zm-10.1 23.1c-.4 1-7.1 27.5-14.8 58.9l-14.1 57 3.1.7c1.6.4 5.7.9 9 1.2 3.3.2 8.9.8 12.5 1.1 3.6.4 6.7.7 7 .7 3 .1 3.1-.3 2.6-13.5-.6-14.4-1.4-36.5-2.1-57.7-1-33.4-1.7-49.5-2.1-49.9-.2-.2-.7.5-1.1 1.5zM25 255.6V273l3.8-.5c2-.2 5.3-.7 7.2-.9 8-1.2 56.7-8.1 64.5-9.2 2.8-.3 5.8-.8 6.9-1 1-.2 4.4-.6 7.5-1 3.1-.3 5.8-.8 6.1-.9.3-.2 3.2-.6 6.5-1s9.4-1.2 13.5-1.9l7.5-1.2-9.5-1.3c-5.2-.7-10.2-1.5-11.1-1.6-.9-.2-4-.6-7-1-3-.3-9.7-1.3-14.9-2-5.2-.8-11.5-1.7-14-2-2.5-.3-5.6-.7-7-1-1.4-.3-4.5-.7-7-1-2.5-.3-5.6-.7-7-1-1.4-.2-4.7-.7-7.5-1-2.7-.3-7.7-1-11-1.5-9.8-1.4-12.7-1.9-18-2.5-2.7-.4-6-.8-7.2-1l-2.3-.4v17.5zm198.4-2.9c-3.1 4.3-6 8-6.3 8.3-.3.3-2.7 3.2-5.2 6.5s-16.6 21.5-31.3 40.4-26.4 34.7-25.9 35.1c.4.5 7.1 4.5 14.8 8.9l14 8 2.1-4.7c5.5-12.2 44.6-110.2 44-110.2-.2 0-3 3.5-6.2 7.7zm-40.9 20.8c-13.2 9-35.9 24.4-50.3 34.2-14.5 9.8-26.6 18.1-26.9 18.6-.4.7 7.7 10.3 18.4 21.7l4.2 4.5 1.6-2.2c.8-1.2 2.1-2.8 2.8-3.5.7-.7 12.8-15 26.8-31.8 13.9-16.8 26.3-31.6 27.5-33 13.5-15.7 21.1-25.1 20.2-24.9-.2 0-11.1 7.4-24.3 16.4zm-30.5-8.4c-8 1.5-16.5 3-19 3.4-2.4.3-8.7 1.5-14 2.5-5.2 1-11.3 2.1-13.5 2.4-4.2.7-19 3.2-24 4.2-1.6.3-9 1.6-16.3 2.9-7.4 1.3-13.6 2.5-13.8 2.8-.4.3 4.9 18.1 6.7 22.2.4 1.1 1.3 3.9 2 6.2.7 2.4 1.4 4.3 1.7 4.3.4 0 7.9-3.6 49.2-23.8 55.3-27 61.4-30.2 58.5-30-1.6.1-9.5 1.4-17.5 2.9z"/></svg>