<svg width="1688" height="1450" viewBox="0 0 1688 1450" fill="none" xmlns="http://www.w3.org/2000/svg">
<g clip-path="url(#clip0)">
<path d="M485.93 1446.95C487.278 1445.92 488.407 1444.64 489.253 1443.16C490.099 1441.69 490.646 1440.07 490.86 1438.39C491.074 1436.71 490.953 1435 490.503 1433.36C490.052 1431.73 489.282 1430.19 488.236 1428.86C486.17 1426.1 483.095 1424.27 479.682 1423.76C476.27 1423.26 472.797 1424.12 470.02 1426.17C468.673 1427.2 467.543 1428.49 466.697 1429.96C465.851 1431.43 465.305 1433.05 465.09 1434.74C464.876 1436.42 464.997 1438.13 465.448 1439.76C465.898 1441.4 466.668 1442.93 467.714 1444.27C469.793 1447.01 472.866 1448.83 476.272 1449.33C479.679 1449.84 483.147 1448.98 485.93 1446.95ZM139.126 1345.64C140.659 1344.47 141.943 1343 142.906 1341.33C143.868 1339.65 144.488 1337.8 144.731 1335.89C144.974 1333.97 144.835 1332.03 144.321 1330.17C143.808 1328.31 142.93 1326.57 141.739 1325.05C139.376 1321.91 135.875 1319.83 131.993 1319.26C128.11 1318.68 124.156 1319.66 120.986 1321.97C119.453 1323.15 118.169 1324.61 117.206 1326.29C116.244 1327.96 115.624 1329.81 115.381 1331.72C115.138 1333.64 115.277 1335.58 115.791 1337.45C116.304 1339.31 117.182 1341.05 118.373 1342.57C120.736 1345.7 124.237 1347.78 128.12 1348.35C132.002 1348.93 135.956 1347.95 139.126 1345.64ZM-230.2 1741.49C-229.056 1740.61 -228.097 1739.51 -227.379 1738.26C-226.66 1737 -226.197 1735.62 -226.015 1734.19C-225.833 1732.76 -225.935 1731.3 -226.317 1729.91C-226.699 1728.52 -227.352 1727.22 -228.24 1726.08C-230 1723.74 -232.612 1722.18 -235.51 1721.75C-238.409 1721.32 -241.361 1722.05 -243.728 1723.77C-244.872 1724.65 -245.83 1725.75 -246.549 1727C-247.267 1728.26 -247.73 1729.64 -247.912 1731.07C-248.095 1732.5 -247.992 1733.96 -247.61 1735.35C-247.228 1736.74 -246.575 1738.04 -245.688 1739.18C-243.928 1741.52 -241.316 1743.08 -238.417 1743.51C-235.518 1743.94 -232.566 1743.21 -230.2 1741.49ZM-102.415 1418.02C-101.068 1416.99 -99.9386 1415.7 -99.0925 1414.23C-98.2464 1412.76 -97.7003 1411.14 -97.4858 1409.46C-97.2714 1407.77 -97.3929 1406.07 -97.8432 1404.43C-98.2935 1402.79 -99.0638 1401.26 -100.109 1399.93C-102.182 1397.18 -105.256 1395.35 -108.666 1394.85C-112.075 1394.34 -115.546 1395.2 -118.326 1397.24C-119.673 1398.27 -120.803 1399.56 -121.649 1401.03C-122.495 1402.5 -123.041 1404.12 -123.255 1405.81C-123.47 1407.49 -123.348 1409.2 -122.898 1410.83C-122.448 1412.47 -121.677 1414 -120.632 1415.33C-118.553 1418.08 -115.48 1419.9 -112.073 1420.4C-108.667 1420.9 -105.199 1420.05 -102.415 1418.02ZM93.4693 1534.17C94.6043 1533.3 95.5557 1532.22 96.2679 1530.98C96.9801 1529.75 97.439 1528.38 97.6179 1526.96C97.7967 1525.55 97.6919 1524.11 97.3096 1522.74C96.9273 1521.36 96.275 1520.08 95.3909 1518.95C93.6531 1516.63 91.0649 1515.08 88.1916 1514.66C85.3184 1514.23 82.3937 1514.96 80.0568 1516.69C78.9218 1517.55 77.9705 1518.64 77.2582 1519.87C76.546 1521.11 76.0871 1522.48 75.9083 1523.89C75.7294 1525.31 75.8342 1526.75 76.2166 1528.12C76.5989 1529.5 77.2511 1530.78 78.1352 1531.9C79.8853 1534.21 82.4718 1535.74 85.3391 1536.17C88.2063 1536.59 91.1255 1535.87 93.4693 1534.17ZM526.36 1672.25C527.708 1671.22 528.837 1669.93 529.683 1668.46C530.529 1666.99 531.075 1665.37 531.29 1663.69C531.504 1662 531.383 1660.29 530.932 1658.66C530.482 1657.02 529.712 1655.49 528.666 1654.16C526.594 1651.4 523.52 1649.58 520.11 1649.07C516.701 1648.57 513.23 1649.43 510.45 1651.47C509.102 1652.5 507.973 1653.79 507.127 1655.26C506.281 1656.73 505.735 1658.35 505.52 1660.03C505.306 1661.72 505.427 1663.43 505.878 1665.06C506.328 1666.7 507.098 1668.23 508.144 1669.56C510.216 1672.32 513.29 1674.14 516.7 1674.65C520.109 1675.15 523.58 1674.29 526.36 1672.25ZM329.246 1902.97C330.593 1901.94 331.723 1900.65 332.569 1899.18C333.415 1897.71 333.961 1896.08 334.175 1894.4C334.39 1892.72 334.268 1891.01 333.818 1889.37C333.368 1887.74 332.597 1886.21 331.552 1884.87C329.479 1882.12 326.405 1880.29 322.996 1879.79C319.586 1879.29 316.115 1880.15 313.335 1882.18C311.988 1883.21 310.858 1884.5 310.012 1885.97C309.166 1887.44 308.62 1889.07 308.406 1890.75C308.191 1892.43 308.313 1894.14 308.763 1895.78C309.213 1897.41 309.984 1898.94 311.029 1900.28C313.102 1903.03 316.176 1904.86 319.585 1905.36C322.995 1905.86 326.466 1905 329.246 1902.97ZM1125.31 1763.19C1126.42 1762.34 1127.35 1761.28 1128.05 1760.07C1128.74 1758.86 1129.19 1757.52 1129.37 1756.13C1129.54 1754.75 1129.44 1753.34 1129.07 1751.99C1128.7 1750.65 1128.06 1749.39 1127.2 1748.29C1125.48 1746.02 1122.95 1744.52 1120.14 1744.1C1117.33 1743.68 1114.47 1744.39 1112.17 1746.06C1111.06 1746.91 1110.13 1747.97 1109.43 1749.18C1108.74 1750.39 1108.29 1751.73 1108.12 1753.12C1107.94 1754.51 1108.04 1755.91 1108.41 1757.26C1108.79 1758.61 1109.42 1759.87 1110.29 1760.97C1112 1763.23 1114.53 1764.74 1117.34 1765.15C1120.15 1765.57 1123.02 1764.87 1125.31 1763.19ZM1308.17 474.034C1309.28 473.187 1310.22 472.126 1310.92 470.914C1311.61 469.703 1312.06 468.363 1312.24 466.975C1312.42 465.588 1312.31 464.179 1311.94 462.831C1311.56 461.483 1310.92 460.224 1310.05 459.127C1308.34 456.86 1305.81 455.357 1303 454.94C1300.18 454.523 1297.32 455.227 1295.03 456.898C1293.92 457.749 1292.99 458.811 1292.29 460.023C1291.6 461.235 1291.15 462.573 1290.97 463.959C1290.8 465.346 1290.9 466.753 1291.27 468.1C1291.64 469.447 1292.28 470.706 1293.14 471.806C1294.86 474.072 1297.39 475.576 1300.2 475.992C1303.01 476.409 1305.87 475.706 1308.17 474.034ZM1479.73 589.795C1481.87 588.158 1483.66 586.112 1485.01 583.776C1486.35 581.44 1487.22 578.861 1487.56 576.188C1487.9 573.515 1487.7 570.801 1486.98 568.203C1486.27 565.606 1485.04 563.177 1483.38 561.056C1480.09 556.672 1475.21 553.761 1469.79 552.955C1464.38 552.149 1458.86 553.514 1454.44 556.753C1452.3 558.391 1450.5 560.436 1449.16 562.772C1447.82 565.108 1446.95 567.687 1446.61 570.36C1446.27 573.033 1446.46 575.747 1447.18 578.345C1447.9 580.942 1449.13 583.371 1450.79 585.492C1454.08 589.859 1458.96 592.757 1464.38 593.562C1469.79 594.367 1475.3 593.014 1479.73 589.795ZM1464.78 270.675C1466.69 269.207 1468.3 267.374 1469.5 265.282C1470.7 263.189 1471.48 260.879 1471.78 258.485C1472.09 256.091 1471.91 253.661 1471.27 251.335C1470.63 249.008 1469.53 246.833 1468.04 244.933C1465.1 241.006 1460.72 238.399 1455.86 237.68C1451.01 236.96 1446.06 238.186 1442.1 241.091C1440.18 242.555 1438.57 244.387 1437.37 246.479C1436.16 248.572 1435.38 250.883 1435.08 253.278C1434.78 255.674 1434.95 258.106 1435.6 260.433C1436.24 262.76 1437.34 264.935 1438.84 266.833C1441.78 270.76 1446.16 273.366 1451.02 274.086C1455.87 274.805 1460.82 273.579 1464.78 270.675ZM1743.67 535.584C1745.02 534.552 1746.15 533.264 1747 531.794C1747.84 530.323 1748.39 528.699 1748.6 527.017C1748.82 525.334 1748.7 523.625 1748.25 521.989C1747.8 520.354 1747.03 518.824 1745.98 517.488C1743.91 514.726 1740.84 512.894 1737.43 512.39C1734.01 511.886 1730.54 512.752 1727.76 514.798C1722.11 519.063 1721.08 527.169 1725.5 532.894C1729.92 538.619 1737.99 539.81 1743.67 535.584ZM1724.8 408.22C1725.92 407.373 1726.85 406.312 1727.55 405.1C1728.25 403.888 1728.7 402.549 1728.88 401.161C1729.05 399.773 1728.95 398.365 1728.57 397.017C1728.2 395.669 1727.56 394.41 1726.69 393.313C1724.99 391.04 1722.46 389.531 1719.65 389.114C1716.84 388.697 1713.99 389.405 1711.7 391.084C1710.59 391.931 1709.65 392.992 1708.95 394.204C1708.25 395.416 1707.8 396.755 1707.63 398.143C1707.45 399.531 1707.56 400.94 1707.93 402.287C1708.31 403.635 1708.95 404.894 1709.82 405.991C1711.52 408.264 1714.04 409.773 1716.85 410.19C1719.66 410.608 1722.52 409.899 1724.8 408.22ZM1974.49 342.252C1977.34 340.139 1977.84 336.066 1975.65 333.185C1974.61 331.804 1973.08 330.888 1971.37 330.636C1969.66 330.384 1967.93 330.817 1966.54 331.84C1965.86 332.356 1965.29 333.001 1964.87 333.738C1964.44 334.475 1964.17 335.289 1964.06 336.132C1963.96 336.976 1964.02 337.833 1964.24 338.652C1964.47 339.472 1964.86 340.239 1965.38 340.907C1967.58 343.75 1971.65 344.365 1974.49 342.252ZM1205.37 172.818C1206.48 171.967 1207.4 170.906 1208.1 169.694C1208.8 168.482 1209.24 167.144 1209.42 165.757C1209.6 164.371 1209.49 162.963 1209.12 161.616C1208.75 160.27 1208.11 159.01 1207.25 157.911C1205.54 155.644 1203 154.141 1200.19 153.724C1197.38 153.307 1194.52 154.01 1192.22 155.682C1191.11 156.533 1190.18 157.595 1189.49 158.807C1188.79 160.018 1188.34 161.356 1188.17 162.743C1187.99 164.129 1188.09 165.537 1188.47 166.884C1188.84 168.23 1189.48 169.49 1190.34 170.589C1192.05 172.856 1194.59 174.359 1197.4 174.776C1200.21 175.193 1203.07 174.49 1205.37 172.818ZM1117.01 122.564C1118.13 121.717 1119.06 120.656 1119.76 119.444C1120.46 118.232 1120.91 116.893 1121.08 115.505C1121.26 114.117 1121.15 112.708 1120.78 111.361C1120.4 110.013 1119.76 108.754 1118.9 107.657C1117.18 105.39 1114.65 103.887 1111.84 103.47C1109.03 103.053 1106.17 103.756 1103.87 105.428C1102.76 106.279 1101.83 107.341 1101.13 108.553C1100.44 109.765 1099.99 111.102 1099.81 112.489C1099.64 113.875 1099.74 115.283 1100.11 116.63C1100.49 117.977 1101.12 119.236 1101.99 120.336C1103.7 122.602 1106.23 124.105 1109.04 124.522C1111.85 124.939 1114.72 124.236 1117.01 122.564ZM1346.83 -9.79456C1347.94 -10.6449 1348.87 -11.7068 1349.57 -12.9188C1350.26 -14.1307 1350.71 -15.4687 1350.89 -16.8551C1351.06 -18.2416 1350.96 -19.649 1350.59 -20.9959C1350.21 -22.3428 1349.58 -23.6023 1348.71 -24.7017C1347 -26.9681 1344.47 -28.4716 1341.66 -28.8884C1338.85 -29.3052 1335.99 -28.6019 1333.69 -26.9301C1332.57 -26.0829 1331.64 -25.0224 1330.94 -23.8105C1330.24 -22.5985 1329.79 -21.2594 1329.62 -19.8715C1329.44 -18.4836 1329.55 -17.0747 1329.92 -15.7271C1330.3 -14.3795 1330.94 -13.1203 1331.81 -12.0229C1333.51 -9.74809 1336.05 -8.23808 1338.86 -7.82086C1341.67 -7.40364 1344.54 -8.11287 1346.83 -9.79456ZM1242.38 27.5501C1243.48 26.6998 1244.41 25.6378 1245.11 24.4259C1245.81 23.2139 1246.25 21.876 1246.43 20.4895C1246.6 19.1031 1246.5 17.6957 1246.13 16.3488C1245.76 15.0019 1245.12 13.7423 1244.26 12.643C1242.55 10.3765 1240.01 8.87302 1237.2 8.45624C1234.39 8.03946 1231.53 8.74274 1229.23 10.4146C1228.12 11.265 1227.19 12.3269 1226.5 13.5388C1225.8 14.7508 1225.35 16.0887 1225.18 17.4752C1225 18.8616 1225.1 20.269 1225.48 21.6159C1225.85 22.9628 1226.49 24.2224 1227.35 25.3217C1229.06 27.5882 1231.6 29.0917 1234.41 29.5085C1237.22 29.9252 1240.08 29.222 1242.38 27.5501ZM1149.45 -108.381C1150.36 -109.081 1151.12 -109.955 1151.69 -110.951C1152.27 -111.948 1152.63 -113.049 1152.78 -114.189C1152.92 -115.329 1152.84 -116.486 1152.53 -117.593C1152.22 -118.7 1151.7 -119.735 1150.99 -120.638C1149.58 -122.505 1147.5 -123.745 1145.2 -124.091C1142.89 -124.436 1140.53 -123.858 1138.65 -122.482C1137.73 -121.785 1136.97 -120.913 1136.39 -119.916C1135.82 -118.92 1135.45 -117.818 1135.3 -116.677C1135.16 -115.535 1135.25 -114.377 1135.56 -113.269C1135.87 -112.161 1136.4 -111.127 1137.11 -110.226C1138.51 -108.35 1140.59 -107.103 1142.9 -106.757C1145.21 -106.411 1147.57 -106.995 1149.45 -108.381ZM1040.38 348.092C1041.49 347.242 1042.42 346.18 1043.11 344.968C1043.81 343.756 1044.26 342.418 1044.43 341.031C1044.61 339.645 1044.51 338.237 1044.13 336.891C1043.76 335.544 1043.13 334.284 1042.26 333.185C1040.55 330.918 1038.02 329.415 1035.21 328.998C1032.4 328.581 1029.53 329.284 1027.24 330.956C1026.13 331.807 1025.2 332.869 1024.5 334.081C1023.81 335.293 1023.36 336.63 1023.18 338.017C1023.01 339.403 1023.11 340.811 1023.48 342.158C1023.85 343.505 1024.49 344.764 1025.35 345.863C1027.07 348.13 1029.6 349.633 1032.41 350.05C1035.22 350.467 1038.08 349.764 1040.38 348.092ZM850.567 212.276C851.677 211.425 852.606 210.363 853.302 209.151C853.998 207.939 854.447 206.601 854.622 205.215C854.797 203.829 854.695 202.421 854.322 201.074C853.95 199.727 853.313 198.468 852.45 197.368C850.738 195.102 848.204 193.599 845.393 193.182C842.583 192.765 839.721 193.468 837.424 195.14C836.315 195.99 835.385 197.052 834.689 198.264C833.993 199.476 833.545 200.814 833.37 202.201C833.194 203.587 833.296 204.995 833.669 206.341C834.041 207.688 834.678 208.948 835.541 210.047C837.253 212.314 839.788 213.817 842.598 214.234C845.409 214.651 848.27 213.947 850.567 212.276ZM1032.23 -146.763C1033.34 -147.614 1034.27 -148.676 1034.97 -149.888C1035.66 -151.1 1036.11 -152.438 1036.29 -153.824C1036.46 -155.21 1036.36 -156.618 1035.99 -157.965C1035.61 -159.312 1034.98 -160.571 1034.12 -161.671C1032.4 -163.937 1029.87 -165.441 1027.06 -165.857C1024.25 -166.274 1021.39 -165.571 1019.09 -163.899C1017.98 -163.049 1017.05 -161.987 1016.35 -160.775C1015.66 -159.563 1015.21 -158.225 1015.03 -156.838C1014.86 -155.452 1014.96 -154.045 1015.33 -152.698C1015.71 -151.351 1016.34 -150.091 1017.21 -148.992C1018.92 -146.725 1021.45 -145.222 1024.26 -144.805C1027.07 -144.388 1029.94 -145.092 1032.23 -146.763ZM1193.84 449.445C1194.95 448.595 1195.88 447.533 1196.57 446.321C1197.27 445.109 1197.72 443.771 1197.89 442.384C1198.07 440.998 1197.96 439.591 1197.59 438.244C1197.22 436.897 1196.58 435.637 1195.72 434.538C1194.01 432.271 1191.47 430.768 1188.66 430.351C1185.85 429.934 1182.99 430.638 1180.69 432.309C1179.58 433.16 1178.65 434.222 1177.96 435.434C1177.26 436.646 1176.81 437.984 1176.64 439.37C1176.46 440.756 1176.57 442.164 1176.94 443.511C1177.31 444.858 1177.95 446.117 1178.81 447.217C1180.52 449.483 1183.06 450.987 1185.87 451.403C1188.68 451.82 1191.54 451.117 1193.84 449.445ZM1013.71 2049.89C1014.82 2049.04 1015.75 2047.97 1016.44 2046.76C1017.14 2045.55 1017.59 2044.21 1017.76 2042.83C1017.94 2041.44 1017.84 2040.03 1017.46 2038.69C1017.09 2037.34 1016.45 2036.08 1015.59 2034.98C1013.88 2032.71 1011.34 2031.21 1008.53 2030.79C1005.72 2030.38 1002.86 2031.08 1000.57 2032.75C999.456 2033.6 998.526 2034.66 997.83 2035.88C997.134 2037.09 996.686 2038.43 996.511 2039.81C996.336 2041.2 996.437 2042.61 996.81 2043.95C997.183 2045.3 997.819 2046.56 998.682 2047.66C1000.39 2049.92 1002.93 2051.43 1005.74 2051.85C1008.55 2052.26 1011.41 2051.56 1013.71 2049.89ZM840.152 2297.47C841.262 2296.62 842.191 2295.56 842.887 2294.34C843.583 2293.13 844.032 2291.79 844.207 2290.41C844.382 2289.02 844.28 2287.61 843.908 2286.27C843.535 2284.92 842.899 2283.66 842.036 2282.56C840.323 2280.29 837.789 2278.79 834.978 2278.37C832.168 2277.96 829.306 2278.66 827.009 2280.33C825.9 2281.18 824.97 2282.24 824.274 2283.46C823.578 2284.67 823.13 2286.01 822.955 2287.39C822.779 2288.78 822.881 2290.19 823.254 2291.53C823.627 2292.88 824.263 2294.14 825.126 2295.24C826.838 2297.51 829.373 2299.01 832.183 2299.43C834.994 2299.84 837.856 2299.14 840.152 2297.47ZM944.109 2085.89C945.219 2085.04 946.148 2083.97 946.844 2082.76C947.54 2081.55 947.989 2080.21 948.164 2078.83C948.339 2077.44 948.237 2076.03 947.864 2074.69C947.492 2073.34 946.855 2072.08 945.992 2070.98C944.28 2068.71 941.745 2067.21 938.935 2066.79C936.125 2066.38 933.263 2067.08 930.966 2068.75C929.856 2069.6 928.927 2070.66 928.231 2071.88C927.535 2073.09 927.087 2074.43 926.911 2075.81C926.736 2077.2 926.838 2078.61 927.211 2079.95C927.583 2081.3 928.22 2082.56 929.083 2083.66C930.795 2085.92 933.33 2087.43 936.14 2087.84C938.951 2088.26 941.812 2087.56 944.109 2085.89ZM1165.17 2016.15C1165.96 2015.55 1166.62 2014.79 1167.12 2013.92C1167.62 2013.06 1167.94 2012.1 1168.07 2011.11C1168.19 2010.12 1168.12 2009.12 1167.85 2008.16C1167.58 2007.19 1167.13 2006.3 1166.51 2005.51C1165.29 2003.89 1163.48 2002.81 1161.48 2002.51C1159.47 2002.22 1157.42 2002.73 1155.79 2003.94C1155 2004.54 1154.33 2005.3 1153.83 2006.16C1153.34 2007.03 1153.01 2007.99 1152.89 2008.98C1152.76 2009.97 1152.84 2010.97 1153.1 2011.93C1153.37 2012.9 1153.83 2013.79 1154.44 2014.58C1155.67 2016.19 1157.48 2017.25 1159.48 2017.55C1161.49 2017.84 1163.53 2017.34 1165.17 2016.15ZM871.858 1426.55C878.353 1421.67 879.545 1412.38 874.472 1405.81C872.093 1402.65 868.567 1400.55 864.656 1399.97C860.745 1399.39 856.761 1400.37 853.565 1402.69C852.019 1403.88 850.723 1405.35 849.753 1407.04C848.783 1408.73 848.158 1410.59 847.915 1412.52C847.672 1414.45 847.815 1416.41 848.336 1418.29C848.857 1420.16 849.747 1421.91 850.952 1423.44C853.324 1426.61 856.851 1428.71 860.765 1429.29C864.68 1429.88 868.666 1428.89 871.858 1426.55ZM909.367 1593.61C910.318 1592.88 911.115 1591.97 911.712 1590.93C912.308 1589.9 912.693 1588.75 912.843 1587.57C912.993 1586.38 912.906 1585.17 912.586 1584.02C912.267 1582.87 911.721 1581.79 910.981 1580.85C909.52 1578.9 907.349 1577.61 904.939 1577.25C902.529 1576.89 900.074 1577.49 898.107 1578.93C897.155 1579.66 896.357 1580.57 895.76 1581.61C895.163 1582.65 894.778 1583.8 894.628 1584.99C894.478 1586.18 894.566 1587.39 894.886 1588.54C895.206 1589.7 895.752 1590.78 896.493 1591.72C897.966 1593.66 900.139 1594.94 902.546 1595.29C904.953 1595.64 907.401 1595.04 909.367 1593.61ZM826.548 1281.67C827.617 1280.85 828.512 1279.83 829.182 1278.66C829.853 1277.49 830.284 1276.2 830.452 1274.86C830.62 1273.53 830.521 1272.17 830.161 1270.87C829.801 1269.57 829.187 1268.36 828.354 1267.3C826.709 1265.11 824.265 1263.65 821.552 1263.25C818.839 1262.85 816.077 1263.53 813.865 1265.15C812.796 1265.97 811.901 1266.99 811.231 1268.16C810.561 1269.33 810.129 1270.62 809.961 1271.96C809.793 1273.29 809.892 1274.65 810.252 1275.95C810.612 1277.25 811.226 1278.46 812.059 1279.52C813.704 1281.71 816.149 1283.17 818.861 1283.57C821.574 1283.97 824.336 1283.29 826.548 1281.67ZM790.269 1159.69C791.337 1158.87 792.233 1157.84 792.903 1156.67C793.573 1155.5 794.005 1154.21 794.173 1152.88C794.341 1151.54 794.242 1150.18 793.882 1148.89C793.522 1147.59 792.907 1146.38 792.075 1145.32C790.43 1143.12 787.985 1141.67 785.273 1141.26C782.56 1140.86 779.798 1141.54 777.586 1143.16C776.517 1143.98 775.622 1145.01 774.952 1146.18C774.281 1147.35 773.85 1148.64 773.682 1149.97C773.514 1151.31 773.613 1152.67 773.973 1153.96C774.333 1155.26 774.947 1156.47 775.78 1157.53C777.425 1159.73 779.869 1161.18 782.582 1161.59C785.295 1161.99 788.057 1161.31 790.269 1159.69ZM851.643 1150.69C855.487 1147.81 856.178 1142.32 853.181 1138.44C851.774 1136.58 849.695 1135.35 847.389 1135C845.083 1134.66 842.733 1135.23 840.844 1136.59C839.928 1137.29 839.161 1138.16 838.586 1139.16C838.012 1140.16 837.642 1141.26 837.499 1142.4C837.356 1143.54 837.442 1144.7 837.752 1145.81C838.063 1146.92 838.591 1147.95 839.307 1148.85C840.701 1150.73 842.782 1151.97 845.094 1152.32C847.406 1152.66 849.761 1152.08 851.643 1150.69ZM809.753 1572.7C810.547 1572.1 811.212 1571.34 811.709 1570.48C812.207 1569.61 812.528 1568.66 812.653 1567.67C812.779 1566.67 812.705 1565.67 812.438 1564.71C812.172 1563.75 811.716 1562.85 811.098 1562.06C809.882 1560.44 808.071 1559.36 806.062 1559.06C804.053 1558.77 802.009 1559.28 800.376 1560.49C799.583 1561.09 798.918 1561.85 798.42 1562.72C797.922 1563.58 797.601 1564.54 797.476 1565.53C797.351 1566.52 797.424 1567.52 797.691 1568.48C797.958 1569.45 798.413 1570.35 799.031 1571.13C800.26 1572.74 802.069 1573.8 804.072 1574.1C806.075 1574.39 808.114 1573.89 809.753 1572.7ZM913.633 1708.1C914.823 1707.19 915.821 1706.05 916.568 1704.75C917.316 1703.45 917.798 1702.02 917.987 1700.53C918.177 1699.05 918.069 1697.54 917.672 1696.09C917.274 1694.65 916.594 1693.3 915.67 1692.12C913.848 1689.68 911.138 1688.06 908.129 1687.62C905.12 1687.17 902.056 1687.93 899.606 1689.73C894.61 1693.46 893.687 1700.65 897.607 1705.72C901.527 1710.79 908.637 1711.86 913.633 1708.1ZM973.663 1760.43C975 1759.47 976.133 1758.25 976.997 1756.85C977.861 1755.45 978.438 1753.89 978.696 1752.26C978.953 1750.64 978.885 1748.98 978.496 1747.38C978.108 1745.78 977.405 1744.27 976.43 1742.95C974.338 1740.34 971.305 1738.66 967.985 1738.26C964.664 1737.86 961.321 1738.79 958.675 1740.83C957.338 1741.79 956.205 1743.01 955.341 1744.41C954.477 1745.81 953.9 1747.37 953.642 1749C953.385 1750.62 953.453 1752.28 953.841 1753.88C954.23 1755.48 954.933 1756.99 955.908 1758.31C957.988 1760.94 961.023 1762.64 964.349 1763.03C967.676 1763.43 971.024 1762.49 973.663 1760.43ZM873.741 1776.22C877.585 1773.34 878.276 1767.84 875.279 1763.96C873.872 1762.1 871.793 1760.87 869.487 1760.52C867.181 1760.18 864.831 1760.75 862.942 1762.12C862.026 1762.81 861.259 1763.69 860.684 1764.68C860.11 1765.68 859.74 1766.78 859.597 1767.92C859.454 1769.06 859.54 1770.22 859.85 1771.33C860.161 1772.44 860.689 1773.47 861.405 1774.37C862.812 1776.23 864.891 1777.47 867.197 1777.81C869.503 1778.16 871.852 1777.58 873.741 1776.22ZM952.91 1827.78C953.703 1827.17 954.368 1826.41 954.866 1825.55C955.364 1824.68 955.685 1823.73 955.81 1822.74C955.935 1821.75 955.862 1820.74 955.595 1819.78C955.328 1818.82 954.873 1817.92 954.255 1817.14C953.038 1815.51 951.228 1814.43 949.219 1814.14C947.21 1813.84 945.166 1814.35 943.533 1815.56C940.189 1818.06 939.613 1822.82 942.188 1826.2C944.763 1829.58 949.605 1830.28 952.91 1827.78ZM879.66 1960.71C883.503 1957.83 884.195 1952.34 881.197 1948.46C879.79 1946.6 877.711 1945.36 875.405 1945.02C873.099 1944.67 870.75 1945.25 868.861 1946.61C867.945 1947.31 867.177 1948.18 866.603 1949.18C866.028 1950.17 865.659 1951.28 865.516 1952.42C865.372 1953.56 865.458 1954.72 865.769 1955.83C866.079 1956.93 866.608 1957.97 867.323 1958.87C868.73 1960.73 870.809 1961.96 873.115 1962.31C875.422 1962.65 877.771 1962.08 879.66 1960.71ZM867.439 1203.87C870.436 1201.64 870.974 1197.34 868.63 1194.3C867.536 1192.84 865.907 1191.87 864.1 1191.6C862.293 1191.34 860.454 1191.8 858.984 1192.88C855.986 1195.15 855.448 1199.41 857.792 1202.45C860.098 1205.48 864.441 1206.14 867.439 1203.87ZM900.836 1060.18C903.833 1057.91 904.371 1053.64 902.065 1050.61C900.971 1049.15 899.343 1048.18 897.535 1047.91C895.728 1047.64 893.889 1048.1 892.419 1049.19C889.421 1051.45 888.883 1055.72 891.228 1058.75C893.495 1061.79 897.838 1062.44 900.836 1060.18Z" fill="white"/>
<path d="M845.84 1145.35L783.312 1152.39M477.206 1435.66L781.583 1150.69L477.206 1435.66ZM783.966 1151.12L821.59 1272.72L783.966 1151.12ZM820.821 1275.95L478.359 1436.24L820.821 1275.95ZM818.631 1272.53L861.635 1197.76L818.631 1272.53ZM862.596 1199.95L782.467 1152.23L862.596 1199.95ZM820.168 1273.14L864.172 1413.91L820.168 1273.14ZM861.904 1414.18L860.482 1198.76L861.904 1414.18ZM862.596 1415.3L807.947 1566.29L862.596 1415.3ZM805.18 1564.64L904.179 1585.46L805.18 1564.64ZM903.295 1586.34L859.675 1415.18L903.295 1586.34ZM904.486 1586.42L907.945 1699.26L904.486 1586.42ZM806.179 1565.71L906.984 1698.65L806.179 1565.71ZM906.792 1700.26L869.86 1770.42L906.792 1700.26ZM907.33 1698.65L950.258 1821.02L907.33 1698.65ZM1162.09 2008.7L1115.82 1755.28L1162.09 2008.7ZM868.592 1770.11L876.701 1953.95L868.592 1770.11ZM873.511 1953.49L946.377 1821.13L873.511 1953.49ZM906.715 1698.22L967.13 1749.75L906.715 1698.22ZM967.168 1751.13L950.028 1821.9L967.168 1751.13ZM862.135 1198.72L843.919 1144.09L862.135 1198.72Z" stroke="white" stroke-width="3"/>
<path d="M1047.76 1399.04C1049.11 1398.01 1050.24 1396.73 1051.08 1395.25C1051.93 1393.78 1052.47 1392.16 1052.69 1390.48C1052.9 1388.79 1052.78 1387.09 1052.33 1385.45C1051.88 1383.82 1051.11 1382.28 1050.06 1380.95C1048 1378.19 1044.92 1376.35 1041.51 1375.85C1038.1 1375.35 1034.62 1376.21 1031.85 1378.26C1030.5 1379.29 1029.37 1380.58 1028.53 1382.05C1027.68 1383.52 1027.13 1385.14 1026.92 1386.83C1026.7 1388.51 1026.83 1390.22 1027.28 1391.85C1027.73 1393.49 1028.5 1395.02 1029.54 1396.36C1031.61 1399.11 1034.69 1400.93 1038.1 1401.44C1041.51 1401.94 1044.98 1401.08 1047.76 1399.04ZM977.237 958.17C978.306 957.35 979.202 956.326 979.872 955.158C980.542 953.989 980.974 952.699 981.142 951.363C981.31 950.026 981.211 948.67 980.851 947.372C980.49 946.074 979.876 944.86 979.043 943.801C977.398 941.608 974.954 940.151 972.241 939.749C969.529 939.346 966.767 940.029 964.555 941.649C963.486 942.469 962.59 943.493 961.92 944.662C961.25 945.83 960.818 947.12 960.65 948.457C960.482 949.793 960.581 951.15 960.941 952.448C961.302 953.746 961.916 954.96 962.749 956.019C964.394 958.212 966.838 959.668 969.551 960.071C972.263 960.474 975.025 959.791 977.237 958.17ZM1089.42 1230.76C1090.49 1229.94 1091.38 1228.92 1092.05 1227.75C1092.72 1226.58 1093.15 1225.29 1093.32 1223.96C1093.49 1222.62 1093.39 1221.26 1093.03 1219.96C1092.67 1218.67 1092.06 1217.45 1091.22 1216.39C1089.58 1214.2 1087.14 1212.74 1084.42 1212.34C1081.71 1211.94 1078.95 1212.62 1076.74 1214.24C1075.67 1215.06 1074.77 1216.09 1074.1 1217.26C1073.43 1218.42 1073 1219.71 1072.83 1221.05C1072.66 1222.39 1072.76 1223.74 1073.12 1225.04C1073.48 1226.34 1074.1 1227.55 1074.93 1228.61C1076.58 1230.8 1079.02 1232.26 1081.73 1232.66C1084.44 1233.07 1087.21 1232.38 1089.42 1230.76ZM982.195 1146.08C983.979 1144.72 985.475 1143.02 986.595 1141.07C987.716 1139.13 988.438 1136.98 988.72 1134.75C989.003 1132.52 988.84 1130.26 988.241 1128.1C987.642 1125.94 986.619 1123.91 985.231 1122.15C982.485 1118.5 978.413 1116.08 973.897 1115.41C969.38 1114.74 964.781 1115.88 961.096 1118.58C959.31 1119.94 957.814 1121.65 956.693 1123.6C955.572 1125.55 954.85 1127.7 954.567 1129.93C954.285 1132.16 954.448 1134.42 955.048 1136.59C955.647 1138.76 956.671 1140.78 958.06 1142.55C960.811 1146.19 964.886 1148.6 969.402 1149.26C973.919 1149.93 978.514 1148.78 982.195 1146.08ZM1095.57 980.185C1099.41 977.303 1100.1 971.809 1097.1 967.929C1095.7 966.062 1093.62 964.821 1091.31 964.476C1089.01 964.131 1086.65 964.709 1084.77 966.085C1083.85 966.781 1083.08 967.653 1082.51 968.65C1081.94 969.647 1081.57 970.748 1081.42 971.89C1081.28 973.031 1081.37 974.19 1081.68 975.298C1081.99 976.405 1082.52 977.44 1083.23 978.341C1084.64 980.2 1086.72 981.434 1089.02 981.779C1091.33 982.123 1093.68 981.551 1095.57 980.185ZM1167.63 847.212C1170.62 844.945 1171.16 840.68 1168.86 837.645C1167.76 836.183 1166.13 835.213 1164.33 834.947C1162.52 834.68 1160.68 835.139 1159.21 836.224C1156.21 838.49 1155.67 842.755 1157.98 845.79C1160.29 848.826 1164.63 849.44 1167.63 847.212ZM1248.29 997.743C1251.29 995.476 1251.83 991.212 1249.48 988.177C1248.39 986.714 1246.76 985.744 1244.96 985.478C1243.15 985.211 1241.31 985.671 1239.84 986.755C1236.84 989.022 1236.3 993.286 1238.61 996.322C1240.95 999.357 1245.3 1000.01 1248.29 997.743Z" fill="white"/>
<path d="M904.833 1584.08L1039.03 1389.55M861.405 1420.02L971.011 1131.48L861.405 1420.02ZM895.148 1052.42L847.262 1144.09L895.148 1052.42ZM1083.15 1223.54L862.443 1416.14L1083.15 1223.54ZM1082.5 1221.93L1087.38 972.847L1082.5 1221.93ZM1040.5 1389.55L1080.08 1222.31L1040.5 1389.55ZM861.52 1412.11L1039.88 1388.29L861.52 1412.11Z" stroke="white" stroke-width="3"/>
<path d="M1081.12 518.563C1082.07 517.833 1082.87 516.922 1083.46 515.882C1084.06 514.841 1084.45 513.693 1084.6 512.503C1084.75 511.313 1084.66 510.105 1084.34 508.949C1084.02 507.794 1083.47 506.713 1082.73 505.769C1081.27 503.82 1079.1 502.526 1076.69 502.166C1074.28 501.807 1071.82 502.411 1069.86 503.848C1068.9 504.578 1068.11 505.49 1067.51 506.53C1066.91 507.57 1066.53 508.718 1066.38 509.908C1066.23 511.098 1066.32 512.306 1066.64 513.462C1066.96 514.618 1067.5 515.699 1068.24 516.642C1069.7 518.591 1071.88 519.886 1074.29 520.245C1076.7 520.605 1079.15 520 1081.12 518.563ZM986.345 546.61C989.689 544.113 990.265 539.349 987.69 535.968C986.474 534.342 984.663 533.265 982.654 532.969C980.645 532.674 978.601 533.186 976.968 534.392C976.174 534.998 975.51 535.756 975.012 536.621C974.514 537.487 974.193 538.442 974.068 539.432C973.943 540.423 974.016 541.428 974.283 542.39C974.55 543.352 975.005 544.251 975.623 545.035C976.84 546.66 978.65 547.738 980.659 548.033C982.668 548.328 984.712 547.817 986.345 546.61ZM1136.88 663.024C1138.63 661.688 1140.09 660.019 1141.18 658.114C1142.28 656.208 1142.98 654.104 1143.26 651.924C1143.53 649.744 1143.37 647.531 1142.79 645.413C1142.2 643.295 1141.2 641.315 1139.84 639.588C1137.16 636.022 1133.17 633.656 1128.76 633.002C1124.34 632.348 1119.85 633.458 1116.24 636.091C1114.5 637.427 1113.04 639.096 1111.94 641.002C1110.85 642.907 1110.14 645.011 1109.86 647.191C1109.59 649.372 1109.75 651.585 1110.34 653.702C1110.92 655.82 1111.93 657.8 1113.28 659.528C1115.97 663.085 1119.95 665.444 1124.37 666.098C1128.78 666.752 1133.27 665.648 1136.88 663.024ZM1250.91 833.918C1252.24 832.958 1253.38 831.742 1254.24 830.34C1255.1 828.939 1255.68 827.381 1255.94 825.755C1256.2 824.129 1256.13 822.469 1255.74 820.869C1255.35 819.27 1254.65 817.763 1253.67 816.437C1251.58 813.829 1248.55 812.146 1245.23 811.751C1241.91 811.356 1238.56 812.28 1235.92 814.324C1234.58 815.284 1233.45 816.5 1232.58 817.902C1231.72 819.303 1231.14 820.861 1230.89 822.487C1230.63 824.113 1230.7 825.774 1231.09 827.373C1231.47 828.972 1232.18 830.479 1233.15 831.805C1235.23 834.43 1238.27 836.126 1241.59 836.522C1244.92 836.918 1248.27 835.982 1250.91 833.918ZM1012.32 665.291C1016.17 662.409 1016.86 656.954 1013.86 653.035C1012.46 651.167 1010.38 649.927 1008.07 649.582C1005.76 649.237 1003.41 649.815 1001.53 651.191C1000.61 651.887 999.842 652.759 999.268 653.756C998.693 654.753 998.324 655.854 998.18 656.996C998.037 658.137 998.123 659.296 998.434 660.404C998.744 661.511 999.273 662.546 999.988 663.447C1001.38 665.322 1003.46 666.57 1005.78 666.915C1008.09 667.261 1010.44 666.677 1012.32 665.291ZM1133.35 803.566C1134.14 802.96 1134.8 802.202 1135.3 801.337C1135.8 800.472 1136.12 799.516 1136.25 798.526C1136.37 797.536 1136.3 796.531 1136.03 795.569C1135.76 794.607 1135.31 793.708 1134.69 792.924C1133.47 791.298 1131.66 790.22 1129.65 789.925C1127.65 789.63 1125.6 790.142 1123.97 791.348C1123.17 791.954 1122.51 792.712 1122.01 793.577C1121.51 794.442 1121.19 795.398 1121.07 796.388C1120.94 797.379 1121.02 798.384 1121.28 799.346C1121.55 800.307 1122.01 801.207 1122.62 801.991C1123.84 803.616 1125.65 804.694 1127.66 804.989C1129.67 805.284 1131.71 804.773 1133.35 803.566ZM911.442 820.971C912.272 820.331 912.967 819.534 913.488 818.626C914.008 817.717 914.344 816.714 914.476 815.676C914.608 814.637 914.534 813.582 914.257 812.572C913.981 811.562 913.507 810.617 912.864 809.79C911.58 808.094 909.683 806.968 907.579 806.652C905.474 806.336 903.33 806.856 901.604 808.1C900.775 808.739 900.079 809.536 899.559 810.445C899.038 811.353 898.702 812.356 898.57 813.395C898.438 814.433 898.512 815.488 898.789 816.498C899.066 817.508 899.539 818.453 900.182 819.28C901.466 820.976 903.364 822.102 905.468 822.418C907.572 822.734 909.716 822.215 911.442 820.971Z" fill="white"/>
<path d="M517.636 1661.46L323.097 1893.29M1034.08 340.216L982.656 541.731L1034.08 340.216ZM981.08 538.619L1075.24 510.341L981.08 538.619ZM1075.08 511.302L1031.46 340.139L1075.08 511.302ZM1130.39 795.536L1123.51 650.422L1130.39 795.536ZM1076.12 510.956L1127.81 649.423L1076.12 510.956ZM1126.12 652.267L1005.45 659.49L1126.12 652.267ZM1007.14 658.452L1128.23 797.803L1007.14 658.452ZM1129.62 800.07L906.792 813.825L1129.62 800.07ZM907.446 814.286L972.971 949.333L907.446 814.286ZM1087.61 973.577L1126.27 797.419L1087.61 973.577ZM1128.81 795.421L1243.91 823.353L1128.81 795.421ZM1244.1 825.235L1089.26 975.152L1244.1 825.235ZM1077.58 510.918L1008.1 659.951L1077.58 510.918ZM1081.62 1223.85L969.974 1132.98L1081.62 1223.85ZM1090.19 974.537L970.512 949.987L1090.19 974.537ZM971.741 950.179L898.145 1055.37L971.741 950.179ZM1088.57 975.19L972.702 1132.94L1088.57 975.19ZM895.301 1050.53L972.049 1131.41L895.301 1050.53ZM1244.14 994.554L1089.84 973L1244.14 994.554ZM1244.37 993.325L1084.46 1222.96L1244.37 993.325ZM971.319 1134.4L845.494 1144.24L971.319 1134.4ZM1129.81 796.612L1163.78 841.41L1129.81 796.612ZM1243.84 825.965L1162.82 843.178L1243.84 825.965ZM1089.61 971.579L1161.55 841.141L1089.61 971.579ZM1243.84 824.39L1248.02 990.789L1243.84 824.39ZM1239.88 824.467L1125.01 650.461L1239.88 824.467ZM905.947 1583.31L1119.82 1754.16L905.947 1583.31ZM1118.97 1756.97L966.476 1751.94L1118.97 1756.97ZM1161.02 2012.31L1007.18 2041.86L1161.02 2012.31ZM1155.1 2002.17L965.592 1752.28L1155.1 2002.17ZM472.518 1435.58L802.836 1562.49L472.518 1435.58ZM516.368 1657.46L805.065 1566.75L516.368 1657.46Z" stroke="white" stroke-width="3"/>
<path d="M1339.91 -16.1721L1143.26 -115.719M568.404 1916.45L320.714 1892.56L568.404 1916.45ZM514.908 1662.19L570.633 1915.57L514.908 1662.19ZM478.552 1438.23L518.712 1659L478.552 1438.23ZM874.818 1952.61L1008.1 2040.67L874.818 1952.61ZM948.375 1821.63L1009.71 2040.59L948.375 1821.63ZM1126.31 648.809L1184.73 440.801L1126.31 648.809ZM1120.62 652.459L1300.1 464.583L1120.62 652.459ZM1301.48 467.503L1186.76 441.646L1301.48 467.503ZM1188.11 442.376L1078.47 510.457L1188.11 442.376ZM1187.46 440.34L1195.68 164.634L1187.46 440.34ZM1030.93 340.139L1197.33 163.405L1030.93 340.139ZM1231.69 21.0189L1109.1 113.074L841.075 202.555L1032.04 340.677L1108.6 113.727L1231.69 21.0189ZM1198.18 165.864L1109.59 114.842L1198.18 165.864ZM1198.26 163.174L1338.49 -19.0537L1198.26 163.174Z" stroke="white" stroke-width="3"/>
<path d="M1235.15 17.0996L1339.95 -19.1693M1024.39 -155.639L1110.86 113.266L1141.72 -115.374L1024.39 -155.639Z" stroke="white" stroke-width="3"/>
<path d="M1714.89 394.312L1737.87 524.711M1352.02 -274.204L1143.88 -116.449L1352.02 -274.204ZM1340.38 -18.8613L1348.18 -274.972L1340.38 -18.8613ZM1236.38 19.5975L1201.02 164.366L1236.38 19.5975ZM1007.37 2042.43L835.656 2289.48L1007.37 2042.43ZM873.626 1955.07L836.963 2288.48L873.626 1955.07ZM873.588 1956.53L515.715 1660.69L873.588 1956.53ZM868.668 1772.72L516.291 1659.8L868.668 1772.72ZM1007.87 2042.86L938.114 2078.32L1007.87 2042.86ZM874.971 1953.84L939.305 2076.55L874.971 1953.84ZM937.806 2078.24L835.848 2289.21L937.806 2078.24ZM1302.17 463.623L1469.2 574.235L1302.17 463.623ZM1466.16 571.738L1717.54 398.807L1466.16 571.738ZM1466.39 570.316L1735.91 525.326L1466.39 570.316ZM1734.87 524.02L1969.57 335.298L1734.87 524.02ZM1971.34 339.179L1718.19 399.614L1971.34 339.179Z" stroke="white" stroke-width="3"/>
<path d="M1517.04 58.5937C1518.16 57.7466 1519.09 56.6861 1519.79 55.4741C1520.49 54.2622 1520.94 52.9231 1521.11 51.5352C1521.29 50.1473 1521.19 48.7384 1520.81 47.3908C1520.44 46.0432 1519.8 44.7839 1518.93 43.6866C1517.21 41.4201 1514.68 39.9167 1511.87 39.4999C1509.06 39.0831 1506.2 39.7863 1503.9 41.4582C1502.79 42.3086 1501.86 43.3705 1501.17 44.5825C1500.47 45.7944 1500.02 47.1324 1499.85 48.5188C1499.67 49.9053 1499.77 51.3127 1500.15 52.6595C1500.52 54.0064 1501.15 55.266 1502.02 56.3654C1503.73 58.6318 1506.26 60.1353 1509.08 60.5521C1511.89 60.9689 1514.75 60.2656 1517.04 58.5937ZM1643.71 217.962C1644.83 217.115 1645.76 216.054 1646.46 214.842C1647.16 213.63 1647.61 212.291 1647.78 210.903C1647.96 209.515 1647.86 208.106 1647.48 206.759C1647.11 205.411 1646.47 204.152 1645.6 203.055C1643.88 200.788 1641.35 199.285 1638.54 198.868C1635.73 198.451 1632.87 199.154 1630.57 200.826C1629.46 201.677 1628.53 202.739 1627.84 203.951C1627.14 205.162 1626.69 206.5 1626.52 207.887C1626.34 209.273 1626.44 210.681 1626.82 212.028C1627.19 213.374 1627.82 214.634 1628.69 215.733C1630.4 218 1632.93 219.503 1635.74 219.92C1638.56 220.337 1641.42 219.634 1643.71 217.962Z" fill="white"/>
<path d="M1637.99 211.123L1458.17 254.846M1454.59 255.537L1508.55 49.1809L1454.59 255.537Z" stroke="white" stroke-width="3"/>
<path d="M1819.58 166.402L1639.76 210.124M1635.84 210.931L1719.27 42.342L1635.84 210.931Z" stroke="white" stroke-width="3"/>
<path d="M1424.08 1211.9C1425.43 1210.87 1426.56 1209.58 1427.4 1208.11C1428.25 1206.64 1428.79 1205.01 1429.01 1203.33C1429.22 1201.65 1429.1 1199.94 1428.65 1198.3C1428.2 1196.67 1427.43 1195.14 1426.38 1193.8C1424.32 1191.04 1421.24 1189.21 1417.83 1188.71C1414.42 1188.2 1410.94 1189.07 1408.17 1191.11C1406.82 1192.14 1405.69 1193.43 1404.84 1194.91C1404 1196.38 1403.45 1198 1403.24 1199.69C1403.03 1201.37 1403.16 1203.08 1403.61 1204.72C1404.07 1206.35 1404.85 1207.88 1405.9 1209.21C1407.97 1211.96 1411.03 1213.78 1414.44 1214.29C1417.84 1214.79 1421.3 1213.93 1424.08 1211.9ZM1465.89 1057.33C1467.01 1056.49 1467.94 1055.43 1468.64 1054.21C1469.34 1053 1469.79 1051.66 1469.96 1050.28C1470.14 1048.89 1470.03 1047.48 1469.66 1046.13C1469.28 1044.78 1468.64 1043.52 1467.78 1042.43C1466.08 1040.15 1463.55 1038.65 1460.74 1038.23C1457.93 1037.81 1455.07 1038.52 1452.79 1040.2C1451.67 1041.05 1450.74 1042.11 1450.04 1043.32C1449.34 1044.53 1448.89 1045.87 1448.72 1047.26C1448.54 1048.64 1448.64 1050.05 1449.02 1051.4C1449.4 1052.75 1450.04 1054.01 1450.9 1055.11C1452.6 1057.38 1455.13 1058.89 1457.94 1059.3C1460.75 1059.72 1463.6 1059.01 1465.89 1057.33ZM1623.19 1205.67C1624.34 1204.8 1625.3 1203.7 1626.02 1202.45C1626.74 1201.2 1627.21 1199.81 1627.39 1198.38C1627.57 1196.95 1627.47 1195.49 1627.09 1194.1C1626.7 1192.71 1626.04 1191.4 1625.15 1190.27C1623.39 1187.91 1620.77 1186.35 1617.86 1185.92C1614.96 1185.49 1611.99 1186.22 1609.63 1187.96C1608.48 1188.84 1607.52 1189.94 1606.8 1191.2C1606.09 1192.45 1605.62 1193.83 1605.44 1195.27C1605.27 1196.7 1605.37 1198.15 1605.76 1199.54C1606.15 1200.94 1606.81 1202.24 1607.7 1203.37C1609.46 1205.71 1612.08 1207.27 1614.97 1207.7C1617.87 1208.13 1620.83 1207.4 1623.19 1205.67ZM1544.98 1523.87C1546.13 1522.99 1547.09 1521.89 1547.81 1520.64C1548.52 1519.39 1548.99 1518 1549.16 1516.57C1549.34 1515.14 1549.24 1513.68 1548.85 1512.29C1548.46 1510.9 1547.8 1509.6 1546.91 1508.47C1545.14 1506.12 1542.52 1504.56 1539.61 1504.13C1536.71 1503.7 1533.75 1504.43 1531.38 1506.16C1530.23 1507.04 1529.27 1508.13 1528.55 1509.39C1527.83 1510.64 1527.36 1512.02 1527.18 1513.45C1527 1514.89 1527.1 1516.34 1527.48 1517.74C1527.87 1519.13 1528.53 1520.43 1529.42 1521.57C1531.18 1523.93 1533.81 1525.5 1536.73 1525.94C1539.64 1526.37 1542.61 1525.63 1544.98 1523.87Z" fill="white"/>
<path d="M127.827 1337.84L87.8585 1525.14M1242.38 988.599L1460.17 1048.92L1242.38 988.599ZM1243.41 990.136L1417.24 1200.76L1243.41 990.136ZM1415.7 1201.14L1539.99 1513.88L1415.7 1201.14ZM1615.89 1197.99L1458.36 1049.73L1615.89 1197.99ZM1460.55 1050.49L1418.28 1201.68L1460.55 1050.49ZM1467.47 574.389L1245.14 824.851L1467.47 574.389ZM1128.73 643.93L1467.35 573.774L1128.73 643.93ZM980.85 541.539L1007.6 658.26L980.85 541.539ZM1003.37 655.264L909.444 813.21L1003.37 655.264ZM1540.22 1513.81L1613.55 1197.34L1540.22 1513.81ZM1617.12 1199.18L1417.97 1200.14L1617.12 1199.18ZM1414.55 1205.41L1083.08 1223.39L1414.55 1205.41ZM1235.5 22.7094L1141.8 -113.683L1023.47 -155.216L843.189 203.862L1235.5 22.7094ZM907.023 814.67L1089.3 975.536L907.023 814.67ZM863.98 1420.21L478.782 1438.39L126.251 1335.57L-113.407 1402.96L-236.694 1727.27L86.1675 1523.41L478.706 1438.39L863.98 1420.21ZM-110.601 1406.81L87.013 1526.25L-110.601 1406.81Z" stroke="white" stroke-width="3"/>
<path d="M533.278 492.784C534.811 491.609 536.095 490.143 537.058 488.469C538.02 486.795 538.64 484.947 538.883 483.032C539.126 481.117 538.987 479.173 538.474 477.311C537.96 475.45 537.082 473.71 535.891 472.19C533.528 469.057 530.028 466.978 526.145 466.403C522.262 465.828 518.309 466.803 515.138 469.117C513.605 470.291 512.321 471.757 511.359 473.431C510.396 475.105 509.776 476.953 509.533 478.868C509.29 480.783 509.429 482.728 509.943 484.589C510.456 486.45 511.334 488.19 512.525 489.71C514.888 492.843 518.389 494.922 522.272 495.497C526.154 496.072 530.108 495.097 533.278 492.784ZM223.867 662.371C225.011 661.491 225.97 660.393 226.688 659.141C227.406 657.889 227.87 656.507 228.052 655.076C228.234 653.644 228.131 652.19 227.749 650.798C227.368 649.406 226.714 648.104 225.827 646.965C224.067 644.622 221.455 643.066 218.556 642.635C215.657 642.204 212.705 642.931 210.339 644.66C209.195 645.54 208.236 646.638 207.518 647.89C206.8 649.142 206.336 650.524 206.154 651.955C205.972 653.387 206.075 654.841 206.457 656.233C206.838 657.625 207.492 658.928 208.379 660.066C210.139 662.409 212.751 663.965 215.65 664.396C218.549 664.828 221.501 664.1 223.867 662.371ZM290.968 478.069C292.315 477.037 293.445 475.749 294.291 474.278C295.137 472.808 295.683 471.184 295.898 469.501C296.112 467.819 295.991 466.11 295.54 464.474C295.09 462.839 294.32 461.309 293.274 459.972C291.207 457.214 288.136 455.38 284.726 454.869C281.316 454.359 277.842 455.212 275.058 457.245C273.71 458.276 272.581 459.564 271.735 461.035C270.889 462.505 270.342 464.129 270.128 465.812C269.914 467.495 270.035 469.203 270.485 470.839C270.936 472.474 271.706 474.005 272.752 475.341C274.812 478.108 277.884 479.948 281.297 480.459C284.71 480.97 288.187 480.111 290.968 478.069ZM427.476 702.751C428.611 701.886 429.563 700.803 430.275 699.566C430.987 698.329 431.446 696.962 431.625 695.546C431.804 694.13 431.699 692.693 431.317 691.318C430.934 689.943 430.282 688.658 429.398 687.537C427.654 685.219 425.067 683.681 422.196 683.257C419.326 682.832 416.404 683.556 414.064 685.27C412.929 686.136 411.978 687.219 411.265 688.456C410.553 689.693 410.094 691.059 409.915 692.475C409.736 693.891 409.841 695.328 410.224 696.703C410.606 698.079 411.258 699.364 412.142 700.485C413.892 702.794 416.479 704.326 419.346 704.75C422.213 705.173 425.133 704.456 427.476 702.751ZM734.389 674.551C735.524 673.685 736.476 672.602 737.188 671.365C737.9 670.128 738.359 668.762 738.538 667.346C738.717 665.93 738.612 664.492 738.23 663.117C737.847 661.742 737.195 660.457 736.311 659.336C734.567 657.018 731.98 655.48 729.109 655.056C726.239 654.632 723.317 655.355 720.977 657.069C719.842 657.935 718.89 659.018 718.178 660.255C717.466 661.492 717.007 662.858 716.828 664.274C716.649 665.69 716.754 667.128 717.137 668.503C717.519 669.878 718.171 671.163 719.055 672.284C720.799 674.602 723.387 676.14 726.257 676.564C729.127 676.989 732.049 676.265 734.389 674.551Z" fill="white"/>
<path d="M1303.14 464.045L1452.67 256.114M908.33 819.165L728.394 670.286L524.708 481.296L280.553 465.659L216.949 649.962L420.905 692.685L728.394 670.248L908.33 819.165ZM282.359 467.849L421.366 693.8L282.359 467.849ZM526.206 480.758L421.788 693.684L526.206 480.758ZM728.355 666.175L1006.1 661.834L728.355 666.175ZM981.503 540.156L728.548 666.828L981.503 540.156Z" stroke="white" stroke-width="3"/>
<path d="M491.196 946.529C493.116 945.064 494.726 943.232 495.932 941.14C497.137 939.048 497.915 936.737 498.219 934.341C498.523 931.946 498.347 929.514 497.702 927.187C497.058 924.86 495.956 922.684 494.462 920.787C491.516 916.86 487.139 914.253 482.282 913.534C477.425 912.814 472.48 914.04 468.521 916.945C466.601 918.409 464.991 920.241 463.785 922.333C462.58 924.426 461.802 926.737 461.498 929.132C461.194 931.528 461.37 933.96 462.015 936.287C462.66 938.614 463.761 940.789 465.255 942.687C468.213 946.597 472.588 949.191 477.44 949.909C482.291 950.628 487.23 949.414 491.196 946.529ZM272.752 939.613C273.861 938.763 274.791 937.701 275.487 936.489C276.183 935.277 276.631 933.939 276.806 932.552C276.981 931.166 276.88 929.759 276.507 928.412C276.134 927.065 275.498 925.805 274.635 924.706C272.922 922.439 270.388 920.936 267.578 920.519C264.767 920.102 261.905 920.806 259.608 922.477C258.499 923.328 257.57 924.39 256.874 925.602C256.178 926.814 255.729 928.152 255.554 929.538C255.379 930.924 255.481 932.332 255.853 933.679C256.226 935.026 256.862 936.285 257.725 937.385C259.438 939.651 261.972 941.155 264.783 941.571C267.593 941.988 270.455 941.285 272.752 939.613ZM392.043 1104.55C393.152 1103.7 394.082 1102.64 394.778 1101.43C395.473 1100.22 395.922 1098.88 396.097 1097.49C396.272 1096.1 396.171 1094.7 395.798 1093.35C395.425 1092 394.789 1090.74 393.926 1089.64C392.213 1087.38 389.679 1085.87 386.869 1085.46C384.058 1085.04 381.196 1085.74 378.899 1087.42C377.79 1088.27 376.861 1089.33 376.165 1090.54C375.469 1091.75 375.02 1093.09 374.845 1094.48C374.67 1095.86 374.772 1097.27 375.144 1098.62C375.517 1099.96 376.153 1101.22 377.016 1102.32C378.729 1104.59 381.263 1106.09 384.074 1106.51C386.884 1106.93 389.746 1106.22 392.043 1104.55Z" fill="white"/>
<path d="M477.744 936.731L386.739 1096.52M264.912 928.663L480.243 933.005L264.912 928.663Z" stroke="white" stroke-width="3"/>
<path d="M247.426 1111.51C248.535 1110.66 249.464 1109.59 250.16 1108.38C250.856 1107.17 251.305 1105.83 251.48 1104.45C251.655 1103.06 251.553 1101.65 251.181 1100.3C250.808 1098.96 250.172 1097.7 249.309 1096.6C247.596 1094.33 245.062 1092.83 242.251 1092.41C239.441 1092 236.579 1092.7 234.282 1094.37C233.173 1095.22 232.243 1096.28 231.547 1097.49C230.851 1098.71 230.403 1100.04 230.228 1101.43C230.053 1102.82 230.154 1104.23 230.527 1105.57C230.9 1106.92 231.536 1108.18 232.399 1109.28C234.112 1111.54 236.646 1113.05 239.456 1113.46C242.267 1113.88 245.129 1113.18 247.426 1111.51ZM489.466 1235.1C490.576 1234.25 491.505 1233.19 492.201 1231.98C492.897 1230.77 493.346 1229.43 493.521 1228.04C493.696 1226.66 493.594 1225.25 493.221 1223.9C492.849 1222.56 492.212 1221.3 491.35 1220.2C489.637 1217.93 487.103 1216.43 484.292 1216.01C481.482 1215.59 478.62 1216.3 476.323 1217.97C475.214 1218.82 474.284 1219.88 473.588 1221.09C472.892 1222.31 472.444 1223.64 472.269 1225.03C472.093 1226.42 472.195 1227.82 472.568 1229.17C472.94 1230.52 473.577 1231.78 474.44 1232.88C476.152 1235.14 478.687 1236.65 481.497 1237.06C484.308 1237.48 487.169 1236.78 489.466 1235.1Z" fill="white"/>
<path d="M419.406 694.375L481.165 931.353M239.701 1100.94L388.007 1095.29L239.701 1100.94ZM386.355 1099.21L483.471 1227.27L386.355 1099.21Z" stroke="white" stroke-width="3"/>
</g>
<defs>
<clipPath id="clip0">
<rect width="1688" height="1450" fill="white"/>
</clipPath>
</defs>
</svg>
