<svg width="1688" height="1450" viewBox="0 0 1688 1450" fill="none" xmlns="http://www.w3.org/2000/svg">
<g clip-path="url(#clip0)">
<rect width="1688" height="1450" fill="url(#paint0_linear)"/>
<g style="mix-blend-mode:screen" opacity="0.1">
<rect x="889" y="710" width="833" height="778" fill="url(#paint1_radial)"/>
</g>
<g style="mix-blend-mode:lighten" opacity="0.5">
<rect x="-55" y="-96" width="1101" height="1029" fill="url(#paint2_radial)"/>
</g>
<g style="mix-blend-mode:lighten" opacity="0.6" filter="url(#filter0_f)">
<mask id="mask0" mask-type="alpha" maskUnits="userSpaceOnUse" x="79" y="-202" width="1900" height="2207">
<path d="M706.118 1276.99C707.267 1276.11 708.231 1275.01 708.953 1273.75C709.675 1272.5 710.141 1271.11 710.324 1269.68C710.507 1268.24 710.404 1266.79 710.019 1265.39C709.635 1264 708.978 1262.69 708.085 1261.55C706.322 1259.2 703.698 1257.63 700.786 1257.2C697.874 1256.77 694.91 1257.51 692.541 1259.26C691.391 1260.14 690.428 1261.24 689.706 1262.49C688.983 1263.74 688.518 1265.13 688.335 1266.56C688.152 1268 688.255 1269.46 688.639 1270.85C689.024 1272.25 689.681 1273.55 690.573 1274.69C692.347 1277.03 694.969 1278.58 697.876 1279.01C700.783 1279.44 703.742 1278.71 706.118 1276.99ZM410.184 1190.57C411.492 1189.57 412.588 1188.32 413.409 1186.89C414.23 1185.47 414.76 1183.89 414.967 1182.26C415.174 1180.62 415.055 1178.96 414.617 1177.38C414.179 1175.79 413.43 1174.3 412.414 1173.01C410.397 1170.34 407.41 1168.56 404.097 1168.07C400.783 1167.58 397.41 1168.41 394.705 1170.39C393.397 1171.39 392.301 1172.64 391.48 1174.07C390.658 1175.49 390.129 1177.07 389.922 1178.7C389.714 1180.34 389.833 1182 390.271 1183.58C390.71 1185.17 391.459 1186.66 392.475 1187.95C394.491 1190.62 397.478 1192.4 400.792 1192.89C404.105 1193.38 407.478 1192.55 410.184 1190.57ZM95.0322 1528.19C96.0085 1527.44 96.8266 1526.51 97.4395 1525.44C98.0523 1524.37 98.4479 1523.19 98.6033 1521.97C98.7587 1520.75 98.671 1519.51 98.3452 1518.32C98.0193 1517.14 97.4618 1516.02 96.7047 1515.05C95.203 1513.05 92.974 1511.73 90.5004 1511.36C88.0269 1510.99 85.5078 1511.61 83.4887 1513.09C82.5124 1513.84 81.6943 1514.77 81.0814 1515.84C80.4685 1516.91 80.073 1518.09 79.9176 1519.31C79.7621 1520.53 79.8499 1521.77 80.1757 1522.96C80.5015 1524.15 81.059 1525.26 81.8162 1526.23C83.3179 1528.23 85.5469 1529.55 88.0204 1529.92C90.494 1530.29 93.0131 1529.67 95.0322 1528.19ZM204.073 1252.31C205.222 1251.43 206.186 1250.33 206.908 1249.08C207.63 1247.82 208.096 1246.44 208.279 1245C208.462 1243.57 208.358 1242.11 207.974 1240.72C207.59 1239.32 206.933 1238.02 206.04 1236.88C204.272 1234.53 201.649 1232.97 198.739 1232.54C195.83 1232.11 192.868 1232.85 190.496 1234.58C189.346 1235.46 188.382 1236.56 187.66 1237.81C186.938 1239.07 186.472 1240.45 186.289 1241.89C186.106 1243.32 186.21 1244.78 186.594 1246.18C186.979 1247.57 187.636 1248.88 188.528 1250.02C190.302 1252.36 192.924 1253.91 195.831 1254.34C198.738 1254.77 201.697 1254.04 204.073 1252.31ZM371.224 1351.37C372.193 1350.63 373.005 1349.71 373.612 1348.65C374.22 1347.6 374.612 1346.43 374.764 1345.23C374.917 1344.02 374.827 1342.79 374.501 1341.62C374.175 1340.45 373.618 1339.35 372.864 1338.39C371.381 1336.41 369.172 1335.09 366.721 1334.73C364.269 1334.37 361.773 1334.99 359.779 1336.46C358.811 1337.2 357.999 1338.12 357.391 1339.18C356.783 1340.23 356.392 1341.4 356.239 1342.61C356.086 1343.81 356.176 1345.04 356.502 1346.21C356.828 1347.39 357.385 1348.48 358.139 1349.44C359.633 1351.41 361.84 1352.71 364.287 1353.08C366.733 1353.44 369.224 1352.83 371.224 1351.37ZM740.617 1469.14C741.767 1468.26 742.731 1467.17 743.453 1465.91C744.175 1464.66 744.641 1463.27 744.824 1461.84C745.007 1460.4 744.903 1458.94 744.519 1457.55C744.134 1456.15 743.477 1454.85 742.585 1453.71C740.816 1451.36 738.193 1449.8 735.284 1449.37C732.374 1448.95 729.413 1449.68 727.04 1451.42C725.891 1452.3 724.927 1453.39 724.205 1454.65C723.483 1455.9 723.017 1457.29 722.834 1458.72C722.651 1460.16 722.755 1461.61 723.139 1463.01C723.523 1464.41 724.18 1465.71 725.073 1466.85C726.841 1469.2 729.464 1470.76 732.374 1471.18C735.283 1471.61 738.245 1470.88 740.617 1469.14ZM572.416 1665.92C573.566 1665.04 574.53 1663.94 575.252 1662.69C575.974 1661.44 576.44 1660.05 576.623 1658.62C576.806 1657.18 576.702 1655.72 576.318 1654.33C575.933 1652.93 575.276 1651.63 574.384 1650.49C572.615 1648.14 569.992 1646.58 567.083 1646.15C564.173 1645.72 561.212 1646.46 558.839 1648.19C557.69 1649.07 556.726 1650.17 556.004 1651.43C555.282 1652.68 554.816 1654.07 554.633 1655.5C554.45 1656.94 554.554 1658.39 554.938 1659.79C555.322 1661.18 555.979 1662.49 556.872 1663.63C558.64 1665.98 561.263 1667.53 564.173 1667.96C567.082 1668.39 570.044 1667.66 572.416 1665.92ZM1251.71 1546.71C1252.66 1545.98 1253.45 1545.08 1254.05 1544.04C1254.64 1543.01 1255.02 1541.87 1255.17 1540.69C1255.32 1539.5 1255.24 1538.3 1254.92 1537.15C1254.6 1536.01 1254.06 1534.93 1253.32 1533.99C1251.86 1532.06 1249.7 1530.78 1247.3 1530.42C1244.9 1530.07 1242.46 1530.67 1240.5 1532.09C1239.55 1532.82 1238.76 1533.72 1238.16 1534.76C1237.57 1535.79 1237.19 1536.93 1237.04 1538.11C1236.89 1539.3 1236.98 1540.5 1237.29 1541.65C1237.61 1542.8 1238.15 1543.87 1238.89 1544.81C1240.35 1546.74 1242.52 1548.02 1244.91 1548.38C1247.31 1548.73 1249.75 1548.13 1251.71 1546.71ZM1407.75 447.172C1408.7 446.45 1409.49 445.545 1410.09 444.512C1410.69 443.478 1411.07 442.336 1411.22 441.152C1411.37 439.968 1411.28 438.767 1410.96 437.617C1410.64 436.468 1410.1 435.394 1409.35 434.458C1407.89 432.525 1405.73 431.243 1403.33 430.887C1400.93 430.532 1398.49 431.131 1396.53 432.557C1395.59 433.283 1394.79 434.188 1394.2 435.222C1393.6 436.256 1393.22 437.397 1393.07 438.579C1392.92 439.762 1393.01 440.962 1393.33 442.111C1393.65 443.26 1394.19 444.334 1394.93 445.272C1396.39 447.205 1398.55 448.487 1400.95 448.843C1403.35 449.198 1405.79 448.598 1407.75 447.172ZM1554.14 545.906C1555.97 544.509 1557.5 542.764 1558.65 540.772C1559.79 538.78 1560.53 536.58 1560.82 534.3C1561.11 532.02 1560.95 529.706 1560.33 527.49C1559.72 525.275 1558.68 523.203 1557.26 521.394C1554.45 517.655 1550.29 515.172 1545.66 514.485C1541.04 513.798 1536.33 514.962 1532.56 517.724C1530.74 519.121 1529.2 520.866 1528.06 522.858C1526.91 524.85 1526.17 527.05 1525.88 529.33C1525.59 531.61 1525.76 533.924 1526.37 536.14C1526.98 538.355 1528.03 540.427 1529.45 542.236C1532.26 545.961 1536.42 548.433 1541.04 549.119C1545.66 549.806 1550.37 548.652 1554.14 545.906ZM1541.38 273.725C1543.02 272.474 1544.39 270.91 1545.42 269.126C1546.44 267.341 1547.1 265.371 1547.36 263.329C1547.62 261.287 1547.47 259.214 1546.93 257.23C1546.38 255.246 1545.44 253.39 1544.17 251.77C1541.66 248.42 1537.92 246.197 1533.78 245.584C1529.63 244.97 1525.41 246.016 1522.04 248.493C1520.4 249.742 1519.02 251.305 1517.99 253.089C1516.97 254.874 1516.3 256.845 1516.04 258.888C1515.78 260.931 1515.93 263.005 1516.48 264.99C1517.03 266.975 1517.97 268.83 1519.25 270.448C1521.76 273.798 1525.5 276.021 1529.64 276.635C1533.79 277.248 1538.01 276.203 1541.38 273.725ZM1779.37 499.669C1780.52 498.789 1781.48 497.69 1782.21 496.436C1782.93 495.182 1783.39 493.797 1783.58 492.362C1783.76 490.926 1783.66 489.469 1783.27 488.074C1782.89 486.679 1782.23 485.374 1781.34 484.234C1779.58 481.879 1776.95 480.316 1774.04 479.886C1771.13 479.457 1768.16 480.195 1765.79 481.94C1760.97 485.578 1760.09 492.492 1763.86 497.375C1767.63 502.257 1774.52 503.273 1779.37 499.669ZM1763.27 391.039C1764.22 390.316 1765.02 389.412 1765.61 388.378C1766.21 387.344 1766.59 386.202 1766.74 385.019C1766.89 383.835 1766.8 382.633 1766.48 381.484C1766.16 380.334 1765.62 379.26 1764.88 378.324C1763.43 376.386 1761.27 375.099 1758.87 374.743C1756.48 374.387 1754.04 374.991 1752.09 376.424C1751.14 377.146 1750.34 378.051 1749.74 379.085C1749.15 380.118 1748.76 381.26 1748.61 382.444C1748.46 383.628 1748.55 384.83 1748.87 385.979C1749.19 387.128 1749.74 388.202 1750.48 389.138C1751.93 391.076 1754.09 392.364 1756.48 392.719C1758.88 393.075 1761.32 392.471 1763.27 391.039ZM1976.33 334.774C1978.76 332.972 1979.19 329.498 1977.32 327.041C1976.43 325.863 1975.12 325.082 1973.67 324.867C1972.21 324.652 1970.73 325.021 1969.54 325.894C1968.97 326.334 1968.48 326.884 1968.12 327.513C1967.76 328.141 1967.52 328.835 1967.43 329.555C1967.34 330.275 1967.39 331.005 1967.59 331.704C1967.78 332.403 1968.11 333.057 1968.56 333.627C1970.43 336.052 1973.91 336.577 1976.33 334.774ZM1320.02 190.262C1320.97 189.537 1321.76 188.631 1322.36 187.598C1322.95 186.564 1323.33 185.423 1323.48 184.24C1323.63 183.058 1323.55 181.857 1323.23 180.709C1322.91 179.56 1322.37 178.486 1321.63 177.548C1320.17 175.615 1318.01 174.333 1315.61 173.977C1313.21 173.622 1310.77 174.221 1308.81 175.647C1307.86 176.373 1307.07 177.278 1306.47 178.312C1305.88 179.346 1305.5 180.487 1305.35 181.669C1305.2 182.852 1305.29 184.052 1305.6 185.201C1305.92 186.35 1306.46 187.424 1307.2 188.362C1308.66 190.295 1310.83 191.577 1313.22 191.933C1315.62 192.288 1318.06 191.688 1320.02 190.262ZM1244.63 147.4C1245.58 146.678 1246.38 145.773 1246.97 144.74C1247.57 143.706 1247.95 142.564 1248.1 141.38C1248.25 140.196 1248.16 138.995 1247.84 137.845C1247.52 136.696 1246.98 135.622 1246.24 134.686C1244.78 132.753 1242.61 131.471 1240.21 131.115C1237.82 130.76 1235.37 131.359 1233.41 132.785C1232.47 133.511 1231.67 134.416 1231.08 135.45C1230.49 136.484 1230.1 137.625 1229.95 138.807C1229.81 139.99 1229.89 141.19 1230.21 142.339C1230.53 143.488 1231.07 144.562 1231.81 145.5C1233.27 147.433 1235.43 148.715 1237.83 149.071C1240.23 149.426 1242.67 148.826 1244.63 147.4ZM1440.74 34.5107C1441.69 33.7854 1442.48 32.8797 1443.07 31.846C1443.67 30.8123 1444.05 29.6712 1444.2 28.4887C1444.35 27.3062 1444.26 26.1058 1443.94 24.957C1443.62 23.8082 1443.08 22.7339 1442.35 21.7963C1440.88 19.8632 1438.72 18.5809 1436.32 18.2254C1433.93 17.8699 1431.48 18.4697 1429.52 19.8957C1428.57 20.6182 1427.78 21.5227 1427.18 22.5564C1426.58 23.5901 1426.2 24.7322 1426.05 25.916C1425.9 27.0997 1425.99 28.3014 1426.31 29.4508C1426.63 30.6002 1427.18 31.6742 1427.92 32.6101C1429.37 34.5503 1431.54 35.8382 1433.94 36.1941C1436.34 36.5499 1438.78 35.945 1440.74 34.5107ZM1351.6 66.3623C1352.55 65.637 1353.34 64.7313 1353.94 63.6976C1354.53 62.6639 1354.91 61.5228 1355.06 60.3403C1355.21 59.1578 1355.13 57.9574 1354.81 56.8086C1354.49 55.6598 1353.95 54.5855 1353.21 53.6479C1351.75 51.7148 1349.59 50.4324 1347.19 50.077C1344.79 49.7215 1342.35 50.3213 1340.39 51.7473C1339.44 52.4725 1338.65 53.3783 1338.06 54.4119C1337.46 55.4456 1337.08 56.5868 1336.93 57.7693C1336.78 58.9518 1336.87 60.1522 1337.18 61.3009C1337.5 62.4497 1338.05 63.524 1338.78 64.4617C1340.24 66.3948 1342.41 67.6771 1344.8 68.0326C1347.2 68.3881 1349.64 67.7883 1351.6 66.3623ZM1272.31 -49.5749C1273.09 -50.1716 1273.74 -50.9167 1274.23 -51.7669C1274.71 -52.6171 1275.03 -53.5555 1275.15 -54.5278C1275.27 -55.5001 1275.2 -56.487 1274.94 -57.4312C1274.67 -58.3753 1274.23 -59.2581 1273.62 -60.0283C1272.42 -61.6209 1270.65 -62.679 1268.68 -62.9734C1266.71 -63.2678 1264.7 -62.7748 1263.09 -61.6012C1262.31 -61.0072 1261.66 -60.2633 1261.17 -59.4131C1260.68 -58.5629 1260.36 -57.6235 1260.24 -56.65C1260.12 -55.6764 1260.19 -54.6883 1260.45 -53.7435C1260.72 -52.7987 1261.17 -51.9162 1261.78 -51.1478C1262.97 -49.548 1264.75 -48.4842 1266.72 -48.1894C1268.69 -47.8947 1270.7 -48.3928 1272.31 -49.5749ZM1179.24 339.755C1180.18 339.03 1180.98 338.124 1181.57 337.091C1182.17 336.057 1182.55 334.916 1182.7 333.733C1182.85 332.551 1182.76 331.35 1182.44 330.202C1182.12 329.053 1181.58 327.978 1180.85 327.041C1179.38 325.108 1177.22 323.825 1174.82 323.47C1172.42 323.114 1169.98 323.714 1168.02 325.14C1167.08 325.865 1166.28 326.771 1165.69 327.805C1165.1 328.839 1164.71 329.98 1164.56 331.162C1164.41 332.345 1164.5 333.545 1164.82 334.694C1165.14 335.843 1165.68 336.917 1166.42 337.855C1167.88 339.788 1170.04 341.07 1172.44 341.425C1174.84 341.781 1177.28 341.181 1179.24 339.755ZM1017.27 223.916C1018.21 223.191 1019.01 222.285 1019.6 221.252C1020.2 220.218 1020.58 219.077 1020.73 217.894C1020.88 216.712 1020.79 215.511 1020.47 214.363C1020.15 213.214 1019.61 212.14 1018.88 211.202C1017.41 209.269 1015.25 207.986 1012.85 207.631C1010.45 207.276 1008.01 207.875 1006.05 209.301C1005.11 210.027 1004.31 210.932 1003.72 211.966C1003.13 213 1002.74 214.141 1002.59 215.323C1002.44 216.506 1002.53 217.706 1002.85 218.855C1003.17 220.004 1003.71 221.078 1004.45 222.016C1005.91 223.949 1008.07 225.231 1010.47 225.587C1012.87 225.942 1015.31 225.342 1017.27 223.916ZM1172.29 -82.3113C1173.23 -83.0365 1174.03 -83.9423 1174.62 -84.976C1175.21 -86.0096 1175.6 -87.1508 1175.75 -88.3333C1175.9 -89.5158 1175.81 -90.7162 1175.49 -91.865C1175.17 -93.0137 1174.63 -94.088 1173.89 -95.0257C1172.43 -96.9588 1170.27 -98.2411 1167.87 -98.5966C1165.47 -98.9521 1163.03 -98.3523 1161.07 -96.9263C1160.12 -96.201 1159.33 -95.2953 1158.74 -94.2616C1158.14 -93.2279 1157.76 -92.0868 1157.61 -90.9043C1157.46 -89.7218 1157.55 -88.5214 1157.87 -87.3726C1158.18 -86.2238 1158.73 -85.1495 1159.46 -84.2119C1160.92 -82.2788 1163.09 -80.9965 1165.49 -80.641C1167.88 -80.2855 1170.33 -80.8853 1172.29 -82.3113ZM1310.19 426.2C1311.13 425.475 1311.93 424.569 1312.52 423.536C1313.11 422.502 1313.5 421.361 1313.64 420.178C1313.79 418.996 1313.71 417.795 1313.39 416.646C1313.07 415.498 1312.53 414.423 1311.79 413.486C1310.33 411.553 1308.17 410.27 1305.77 409.915C1303.37 409.559 1300.93 410.159 1298.97 411.585C1298.02 412.31 1297.23 413.216 1296.64 414.25C1296.04 415.284 1295.66 416.425 1295.51 417.607C1295.36 418.79 1295.45 419.99 1295.77 421.139C1296.08 422.288 1296.63 423.362 1297.36 424.3C1298.82 426.233 1300.99 427.515 1303.39 427.87C1305.78 428.226 1308.23 427.626 1310.19 426.2ZM1156.48 1791.23C1157.43 1790.51 1158.22 1789.6 1158.81 1788.57C1159.41 1787.53 1159.79 1786.39 1159.94 1785.21C1160.09 1784.03 1160 1782.83 1159.68 1781.68C1159.37 1780.53 1158.82 1779.45 1158.09 1778.52C1156.62 1776.58 1154.46 1775.3 1152.06 1774.95C1149.67 1774.59 1147.22 1775.19 1145.26 1776.62C1144.32 1777.34 1143.52 1778.25 1142.93 1779.28C1142.34 1780.31 1141.95 1781.46 1141.8 1782.64C1141.65 1783.82 1141.74 1785.02 1142.06 1786.17C1142.38 1787.32 1142.92 1788.39 1143.66 1789.33C1145.12 1791.26 1147.28 1792.55 1149.68 1792.9C1152.08 1793.26 1154.52 1792.66 1156.48 1791.23ZM1008.38 2002.4C1009.33 2001.67 1010.12 2000.76 1010.71 1999.73C1011.31 1998.7 1011.69 1997.56 1011.84 1996.37C1011.99 1995.19 1011.9 1993.99 1011.59 1992.84C1011.27 1991.69 1010.72 1990.62 1009.99 1989.68C1008.53 1987.75 1006.36 1986.47 1003.97 1986.11C1001.57 1985.75 999.125 1986.35 997.166 1987.78C996.219 1988.51 995.426 1989.41 994.832 1990.45C994.238 1991.48 993.855 1992.62 993.706 1993.8C993.556 1994.98 993.643 1996.19 993.961 1997.33C994.279 1998.48 994.822 1999.56 995.559 2000.49C997.02 2002.43 999.183 2003.71 1001.58 2004.07C1003.98 2004.42 1006.42 2003.82 1008.38 2002.4ZM1097.09 1821.94C1098.04 1821.21 1098.83 1820.3 1099.42 1819.27C1100.02 1818.24 1100.4 1817.1 1100.55 1815.91C1100.7 1814.73 1100.61 1813.53 1100.29 1812.38C1099.98 1811.23 1099.43 1810.16 1098.7 1809.22C1097.23 1807.29 1095.07 1806.01 1092.67 1805.65C1090.28 1805.3 1087.83 1805.89 1085.87 1807.32C1084.93 1808.05 1084.13 1808.95 1083.54 1809.99C1082.95 1811.02 1082.56 1812.16 1082.41 1813.34C1082.26 1814.53 1082.35 1815.73 1082.67 1816.87C1082.99 1818.02 1083.53 1819.1 1084.27 1820.04C1085.73 1821.97 1087.89 1823.25 1090.29 1823.61C1092.69 1823.96 1095.13 1823.36 1097.09 1821.94ZM1285.72 1762.46C1286.4 1761.94 1286.97 1761.3 1287.39 1760.56C1287.82 1759.82 1288.09 1759.01 1288.2 1758.16C1288.3 1757.32 1288.24 1756.46 1288.01 1755.64C1287.78 1754.82 1287.4 1754.05 1286.87 1753.38C1285.83 1752 1284.29 1751.08 1282.57 1750.83C1280.86 1750.57 1279.11 1751.01 1277.72 1752.04C1277.04 1752.56 1276.47 1753.2 1276.05 1753.94C1275.62 1754.68 1275.35 1755.49 1275.24 1756.34C1275.14 1757.18 1275.2 1758.04 1275.43 1758.86C1275.66 1759.68 1276.04 1760.45 1276.57 1761.12C1277.62 1762.49 1279.16 1763.4 1280.87 1763.65C1282.58 1763.9 1284.32 1763.47 1285.72 1762.46ZM1035.44 1259.58C1040.98 1255.42 1042 1247.49 1037.67 1241.89C1035.64 1239.2 1032.63 1237.41 1029.29 1236.91C1025.95 1236.41 1022.55 1237.25 1019.83 1239.24C1018.51 1240.24 1017.4 1241.5 1016.57 1242.94C1015.75 1244.38 1015.21 1245.97 1015 1247.62C1014.8 1249.26 1014.92 1250.93 1015.36 1252.53C1015.81 1254.13 1016.57 1255.63 1017.6 1256.93C1019.62 1259.63 1022.63 1261.42 1025.97 1261.92C1029.31 1262.42 1032.71 1261.58 1035.44 1259.58ZM1067.44 1402.07C1068.25 1401.45 1068.93 1400.67 1069.44 1399.79C1069.95 1398.9 1070.28 1397.93 1070.41 1396.91C1070.54 1395.9 1070.46 1394.87 1070.19 1393.89C1069.92 1392.91 1069.45 1391.99 1068.82 1391.19C1067.57 1389.52 1065.72 1388.42 1063.66 1388.11C1061.61 1387.81 1059.51 1388.32 1057.83 1389.55C1057.02 1390.17 1056.34 1390.95 1055.83 1391.83C1055.32 1392.72 1054.99 1393.7 1054.87 1394.72C1054.74 1395.73 1054.81 1396.76 1055.09 1397.75C1055.36 1398.73 1055.83 1399.65 1056.46 1400.46C1057.71 1402.11 1059.57 1403.2 1061.62 1403.5C1063.68 1403.8 1065.77 1403.29 1067.44 1402.07ZM996.772 1136.01C997.684 1135.31 998.448 1134.44 999.02 1133.44C999.592 1132.45 999.96 1131.35 1000.1 1130.21C1000.25 1129.07 1000.16 1127.91 999.855 1126.8C999.548 1125.7 999.024 1124.66 998.313 1123.76C996.909 1121.89 994.824 1120.64 992.509 1120.3C990.194 1119.96 987.837 1120.54 985.95 1121.92C985.038 1122.62 984.274 1123.49 983.702 1124.49C983.13 1125.49 982.761 1126.59 982.618 1127.73C982.475 1128.87 982.559 1130.02 982.867 1131.13C983.174 1132.24 983.698 1133.27 984.409 1134.18C985.812 1136.05 987.898 1137.29 990.213 1137.63C992.528 1137.98 994.885 1137.39 996.772 1136.01ZM965.814 1031.97C966.726 1031.27 967.491 1030.4 968.062 1029.4C968.634 1028.4 969.003 1027.3 969.146 1026.16C969.289 1025.02 969.205 1023.87 968.898 1022.76C968.59 1021.65 968.066 1020.62 967.356 1019.71C965.952 1017.84 963.866 1016.6 961.551 1016.26C959.237 1015.92 956.88 1016.5 954.992 1017.88C954.08 1018.58 953.316 1019.45 952.744 1020.45C952.172 1021.45 951.804 1022.55 951.66 1023.69C951.517 1024.83 951.602 1025.98 951.909 1027.09C952.216 1028.2 952.74 1029.23 953.451 1030.14C954.855 1032.01 956.941 1033.25 959.255 1033.59C961.57 1033.94 963.927 1033.35 965.814 1031.97ZM1018.19 1024.3C1021.47 1021.84 1022.06 1017.16 1019.5 1013.85C1018.3 1012.26 1016.52 1011.21 1014.56 1010.92C1012.59 1010.62 1010.58 1011.11 1008.97 1012.28C1008.19 1012.87 1007.53 1013.61 1007.04 1014.46C1006.55 1015.31 1006.24 1016.25 1006.12 1017.23C1005.99 1018.2 1006.07 1019.19 1006.33 1020.13C1006.6 1021.08 1007.05 1021.96 1007.66 1022.73C1008.85 1024.33 1010.63 1025.39 1012.6 1025.69C1014.57 1025.98 1016.58 1025.48 1018.19 1024.3ZM982.441 1384.24C983.118 1383.72 983.685 1383.08 984.11 1382.34C984.535 1381.6 984.809 1380.78 984.916 1379.94C985.022 1379.1 984.96 1378.24 984.732 1377.42C984.505 1376.6 984.116 1375.83 983.589 1375.16C982.55 1373.78 981.006 1372.86 979.291 1372.6C977.577 1372.35 975.833 1372.79 974.439 1373.82C973.762 1374.33 973.195 1374.98 972.77 1375.72C972.345 1376.46 972.071 1377.27 971.964 1378.12C971.858 1378.96 971.92 1379.82 972.148 1380.64C972.376 1381.46 972.764 1382.23 973.291 1382.9C974.34 1384.27 975.883 1385.18 977.593 1385.43C979.302 1385.68 981.042 1385.25 982.441 1384.24ZM1071.08 1499.72C1072.1 1498.94 1072.95 1497.97 1073.59 1496.86C1074.23 1495.75 1074.64 1494.53 1074.8 1493.26C1074.96 1492 1074.87 1490.71 1074.53 1489.48C1074.19 1488.24 1073.61 1487.09 1072.82 1486.09C1071.27 1484.01 1068.95 1482.63 1066.39 1482.25C1063.82 1481.87 1061.2 1482.52 1059.11 1484.05C1054.85 1487.23 1054.06 1493.36 1057.41 1497.69C1060.75 1502.01 1066.82 1502.93 1071.08 1499.72ZM1122.31 1544.35C1123.45 1543.53 1124.42 1542.49 1125.15 1541.3C1125.89 1540.1 1126.38 1538.77 1126.6 1537.39C1126.82 1536 1126.76 1534.58 1126.43 1533.22C1126.1 1531.85 1125.5 1530.57 1124.67 1529.44C1122.88 1527.21 1120.3 1525.78 1117.46 1525.44C1114.63 1525.11 1111.78 1525.89 1109.52 1527.64C1108.38 1528.46 1107.41 1529.49 1106.67 1530.69C1105.94 1531.88 1105.44 1533.21 1105.22 1534.6C1105 1535.99 1105.06 1537.4 1105.39 1538.77C1105.73 1540.13 1106.32 1541.42 1107.16 1542.55C1108.93 1544.79 1111.52 1546.23 1114.36 1546.57C1117.2 1546.91 1120.06 1546.11 1122.31 1544.35ZM1037.04 1557.82C1040.32 1555.36 1040.91 1550.67 1038.35 1547.36C1037.15 1545.78 1035.38 1544.73 1033.41 1544.43C1031.44 1544.14 1029.44 1544.63 1027.83 1545.79C1027.05 1546.38 1026.39 1547.13 1025.9 1547.98C1025.41 1548.83 1025.1 1549.77 1024.97 1550.74C1024.85 1551.72 1024.92 1552.7 1025.19 1553.65C1025.45 1554.59 1025.91 1555.48 1026.52 1556.24C1027.72 1557.83 1029.49 1558.88 1031.46 1559.18C1033.43 1559.47 1035.43 1558.98 1037.04 1557.82ZM1104.6 1601.79C1105.28 1601.28 1105.84 1600.63 1106.27 1599.89C1106.69 1599.15 1106.97 1598.34 1107.07 1597.49C1107.18 1596.65 1107.12 1595.79 1106.89 1594.97C1106.66 1594.15 1106.27 1593.38 1105.75 1592.72C1104.71 1591.33 1103.16 1590.41 1101.45 1590.16C1099.74 1589.91 1097.99 1590.34 1096.6 1591.37C1093.74 1593.5 1093.25 1597.57 1095.45 1600.45C1097.65 1603.33 1101.78 1603.92 1104.6 1601.79ZM1042.09 1715.17C1045.37 1712.72 1045.96 1708.03 1043.41 1704.72C1042.2 1703.14 1040.43 1702.08 1038.46 1701.79C1036.5 1701.49 1034.49 1701.98 1032.88 1703.15C1032.1 1703.74 1031.44 1704.49 1030.95 1705.34C1030.46 1706.19 1030.15 1707.13 1030.02 1708.1C1029.9 1709.07 1029.98 1710.06 1030.24 1711.01C1030.5 1711.95 1030.96 1712.83 1031.57 1713.6C1032.77 1715.19 1034.54 1716.24 1036.51 1716.53C1038.48 1716.83 1040.48 1716.34 1042.09 1715.17ZM1031.66 1069.65C1034.22 1067.75 1034.68 1064.08 1032.68 1061.5C1031.75 1060.25 1030.36 1059.42 1028.82 1059.19C1027.27 1058.97 1025.7 1059.36 1024.45 1060.28C1021.89 1062.22 1021.43 1065.85 1023.43 1068.44C1025.4 1071.03 1029.11 1071.59 1031.66 1069.65ZM1060.16 947.098C1062.72 945.165 1063.18 941.528 1061.21 938.939C1060.28 937.692 1058.89 936.864 1057.35 936.637C1055.8 936.41 1054.24 936.802 1052.98 937.726C1050.42 939.66 1049.96 943.297 1051.96 945.886C1053.9 948.475 1057.61 949.032 1060.16 947.098Z" fill="white"/>
<path d="M1013.23 1019.75L959.879 1025.74M698.673 1267.35L958.403 1024.3L698.673 1267.35ZM960.436 1024.66L992.541 1128.38L960.436 1024.66ZM991.886 1131.13L699.657 1267.84L991.886 1131.13ZM990.016 1128.21L1026.71 1064.44L990.016 1128.21ZM1027.53 1066.31L959.157 1025.61L1027.53 1066.31ZM991.328 1128.74L1028.88 1248.8L991.328 1128.74ZM1026.94 1249.03L1025.73 1065.3L1026.94 1249.03ZM1027.53 1249.98L980.9 1378.77L1027.53 1249.98ZM978.538 1377.36L1063.02 1395.12L978.538 1377.36ZM1062.26 1395.87L1025.04 1249.89L1062.26 1395.87ZM1063.28 1395.94L1066.23 1492.18L1063.28 1395.94ZM979.391 1378.28L1065.41 1491.66L979.391 1378.28ZM1065.25 1493.03L1033.73 1552.87L1065.25 1493.03ZM1065.71 1491.66L1102.34 1596.03L1065.71 1491.66ZM1283.1 1756.1L1243.61 1539.96L1283.1 1756.1ZM1032.65 1552.61L1039.57 1709.41L1032.65 1552.61ZM1036.85 1709.01L1099.02 1596.12L1036.85 1709.01ZM1065.18 1491.3L1116.73 1535.24L1065.18 1491.3ZM1116.77 1536.42L1102.14 1596.78L1116.77 1536.42ZM1027.14 1065.26L1011.59 1018.67L1027.14 1065.26Z" stroke="white"/>
<path d="M1185.53 1236.12C1186.68 1235.24 1187.65 1234.14 1188.37 1232.89C1189.09 1231.64 1189.56 1230.25 1189.74 1228.82C1189.92 1227.38 1189.82 1225.92 1189.44 1224.53C1189.05 1223.13 1188.39 1221.83 1187.5 1220.69C1185.74 1218.33 1183.12 1216.77 1180.2 1216.34C1177.29 1215.91 1174.33 1216.65 1171.96 1218.39C1170.81 1219.27 1169.84 1220.37 1169.12 1221.63C1168.4 1222.88 1167.93 1224.27 1167.75 1225.7C1167.57 1227.14 1167.67 1228.59 1168.06 1229.99C1168.44 1231.38 1169.1 1232.69 1169.99 1233.83C1171.76 1236.18 1174.38 1237.73 1177.29 1238.16C1180.2 1238.59 1183.16 1237.86 1185.53 1236.12ZM1125.36 860.096C1126.27 859.397 1127.03 858.524 1127.61 857.527C1128.18 856.53 1128.55 855.43 1128.69 854.29C1128.83 853.15 1128.75 851.993 1128.44 850.886C1128.13 849.779 1127.61 848.744 1126.9 847.841C1125.5 845.97 1123.41 844.728 1121.09 844.384C1118.78 844.041 1116.42 844.623 1114.54 846.006C1113.62 846.705 1112.86 847.578 1112.29 848.575C1111.72 849.572 1111.35 850.672 1111.2 851.812C1111.06 852.952 1111.14 854.109 1111.45 855.216C1111.76 856.323 1112.28 857.358 1112.99 858.261C1114.4 860.132 1116.48 861.374 1118.8 861.718C1121.11 862.061 1123.47 861.479 1125.36 860.096ZM1221.08 1092.59C1222 1091.89 1222.76 1091.02 1223.33 1090.02C1223.9 1089.03 1224.27 1087.93 1224.42 1086.79C1224.56 1085.65 1224.47 1084.49 1224.17 1083.38C1223.86 1082.28 1223.34 1081.24 1222.63 1080.34C1221.22 1078.47 1219.14 1077.23 1216.82 1076.88C1214.51 1076.54 1212.15 1077.12 1210.26 1078.5C1209.35 1079.2 1208.59 1080.08 1208.01 1081.07C1207.44 1082.07 1207.07 1083.17 1206.93 1084.31C1206.79 1085.45 1206.87 1086.61 1207.18 1087.71C1207.49 1088.82 1208.01 1089.86 1208.72 1090.76C1210.12 1092.63 1212.21 1093.87 1214.52 1094.21C1216.84 1094.56 1219.2 1093.98 1221.08 1092.59ZM1129.59 1020.37C1131.11 1019.21 1132.39 1017.75 1133.34 1016.1C1134.3 1014.44 1134.92 1012.6 1135.16 1010.7C1135.4 1008.8 1135.26 1006.88 1134.75 1005.03C1134.24 1003.19 1133.36 1001.46 1132.18 999.955C1129.84 996.844 1126.36 994.781 1122.51 994.21C1118.65 993.64 1114.73 994.609 1111.58 996.908C1110.06 998.073 1108.78 999.529 1107.83 1001.19C1106.87 1002.85 1106.25 1004.69 1106.01 1006.59C1105.77 1008.49 1105.91 1010.42 1106.42 1012.27C1106.93 1014.12 1107.81 1015.85 1108.99 1017.36C1111.34 1020.46 1114.82 1022.52 1118.67 1023.08C1122.53 1023.65 1126.45 1022.67 1129.59 1020.37ZM1226.33 878.873C1229.61 876.415 1230.2 871.729 1227.64 868.42C1226.45 866.827 1224.67 865.769 1222.7 865.475C1220.73 865.18 1218.72 865.673 1217.12 866.847C1216.33 867.441 1215.68 868.185 1215.19 869.035C1214.7 869.885 1214.38 870.824 1214.26 871.798C1214.14 872.772 1214.21 873.76 1214.48 874.705C1214.74 875.649 1215.19 876.532 1215.8 877.3C1217 878.886 1218.78 879.938 1220.75 880.232C1222.71 880.526 1224.72 880.038 1226.33 878.873ZM1287.82 765.459C1290.38 763.526 1290.84 759.888 1288.87 757.3C1287.94 756.052 1286.55 755.225 1285 754.998C1283.46 754.771 1281.89 755.162 1280.64 756.087C1278.08 758.02 1277.62 761.658 1279.59 764.247C1281.56 766.835 1285.26 767.36 1287.82 765.459ZM1356.65 893.849C1359.21 891.915 1359.67 888.278 1357.67 885.689C1356.74 884.442 1355.35 883.614 1353.81 883.387C1352.26 883.16 1350.69 883.552 1349.44 884.477C1346.88 886.41 1346.42 890.047 1348.39 892.636C1350.39 895.225 1354.1 895.782 1356.65 893.849Z" fill="white"/>
<path d="M1063.57 1393.94L1178.09 1228.03M1026.52 1254.01L1120.05 1007.92L1026.52 1254.01ZM1055.31 940.479L1014.45 1018.67L1055.31 940.479ZM1215.74 1086.43L1027.4 1250.7L1215.74 1086.43ZM1215.18 1085.06L1219.35 872.614L1215.18 1085.06ZM1179.34 1228.03L1213.11 1085.38L1179.34 1228.03ZM1026.61 1247.26L1178.81 1226.95L1026.61 1247.26Z" stroke="white"/>
<path d="M1214 485.152C1214.81 484.529 1215.49 483.752 1216 482.865C1216.51 481.977 1216.84 480.998 1216.97 479.983C1217.1 478.968 1217.02 477.938 1216.75 476.952C1216.48 475.966 1216.01 475.044 1215.38 474.24C1214.13 472.577 1212.28 471.473 1210.22 471.167C1208.16 470.86 1206.07 471.375 1204.39 472.601C1203.58 473.224 1202.9 474.001 1202.39 474.888C1201.88 475.776 1201.55 476.755 1201.42 477.77C1201.29 478.785 1201.37 479.815 1201.64 480.801C1201.92 481.787 1202.38 482.709 1203.01 483.513C1204.26 485.175 1206.11 486.28 1208.17 486.586C1210.23 486.893 1212.32 486.378 1214 485.152ZM1133.13 509.073C1135.98 506.943 1136.47 502.88 1134.28 499.996C1133.24 498.61 1131.69 497.691 1129.98 497.439C1128.27 497.187 1126.52 497.624 1125.13 498.653C1124.45 499.17 1123.88 499.816 1123.46 500.554C1123.03 501.292 1122.76 502.107 1122.65 502.951C1122.55 503.796 1122.61 504.653 1122.84 505.474C1123.06 506.294 1123.45 507.061 1123.98 507.73C1125.02 509.116 1126.56 510.035 1128.28 510.287C1129.99 510.539 1131.74 510.102 1133.13 509.073ZM1261.58 608.364C1263.07 607.224 1264.32 605.801 1265.26 604.176C1266.19 602.55 1266.79 600.756 1267.03 598.896C1267.26 597.037 1267.13 595.149 1266.62 593.343C1266.12 591.537 1265.27 589.848 1264.11 588.375C1261.82 585.333 1258.42 583.316 1254.65 582.758C1250.89 582.2 1247.05 583.146 1243.97 585.393C1242.48 586.532 1241.24 587.956 1240.3 589.581C1239.37 591.206 1238.77 593 1238.53 594.86C1238.3 596.719 1238.43 598.607 1238.93 600.413C1239.43 602.219 1240.29 603.908 1241.45 605.382C1243.74 608.416 1247.14 610.428 1250.91 610.986C1254.67 611.543 1258.51 610.602 1261.58 608.364ZM1358.88 754.121C1360.03 753.302 1360.99 752.264 1361.73 751.069C1362.47 749.874 1362.96 748.545 1363.18 747.158C1363.4 745.772 1363.34 744.355 1363.01 742.991C1362.68 741.627 1362.08 740.342 1361.25 739.211C1359.46 736.986 1356.87 735.551 1354.04 735.214C1351.21 734.877 1348.35 735.665 1346.09 737.409C1344.95 738.228 1343.99 739.265 1343.25 740.46C1342.51 741.655 1342.02 742.985 1341.8 744.371C1341.58 745.758 1341.64 747.174 1341.97 748.538C1342.3 749.902 1342.9 751.187 1343.73 752.319C1345.51 754.558 1348.1 756.004 1350.94 756.342C1353.78 756.679 1356.63 755.881 1358.88 754.121ZM1155.3 610.297C1158.58 607.839 1159.17 603.186 1156.61 599.844C1155.42 598.251 1153.64 597.193 1151.67 596.899C1149.7 596.604 1147.69 597.097 1146.08 598.271C1145.3 598.865 1144.65 599.609 1144.16 600.459C1143.67 601.309 1143.35 602.249 1143.23 603.222C1143.11 604.196 1143.18 605.184 1143.45 606.129C1143.71 607.073 1144.16 607.956 1144.77 608.724C1145.96 610.324 1147.74 611.388 1149.71 611.683C1151.68 611.977 1153.69 611.479 1155.3 610.297ZM1258.57 728.233C1259.24 727.716 1259.81 727.07 1260.24 726.332C1260.66 725.594 1260.94 724.779 1261.04 723.935C1261.15 723.09 1261.09 722.233 1260.86 721.412C1260.63 720.592 1260.24 719.825 1259.72 719.156C1258.68 717.77 1257.13 716.851 1255.42 716.599C1253.7 716.347 1251.96 716.784 1250.57 717.813C1249.89 718.33 1249.32 718.976 1248.9 719.714C1248.47 720.452 1248.2 721.267 1248.09 722.111C1247.98 722.956 1248.05 723.813 1248.27 724.634C1248.5 725.454 1248.89 726.221 1249.42 726.89C1250.46 728.276 1252 729.195 1253.72 729.447C1255.43 729.699 1257.17 729.262 1258.57 728.233ZM1069.21 743.078C1069.92 742.532 1070.51 741.853 1070.96 741.078C1071.4 740.303 1071.69 739.448 1071.8 738.562C1071.92 737.676 1071.85 736.776 1071.62 735.915C1071.38 735.053 1070.98 734.247 1070.43 733.542C1069.33 732.095 1067.71 731.135 1065.92 730.865C1064.12 730.596 1062.29 731.039 1060.82 732.1C1060.11 732.645 1059.52 733.325 1059.07 734.1C1058.63 734.875 1058.34 735.73 1058.23 736.616C1058.12 737.502 1058.18 738.402 1058.42 739.263C1058.65 740.124 1059.06 740.931 1059.61 741.636C1060.7 743.082 1062.32 744.043 1064.12 744.312C1065.91 744.582 1067.74 744.139 1069.21 743.078Z" fill="white"/>
<path d="M733.173 1459.94L567.169 1657.66M1173.86 333.038L1129.98 504.912L1173.86 333.038ZM1128.64 502.258L1208.98 478.139L1128.64 502.258ZM1208.85 478.959L1171.63 332.972L1208.85 478.959ZM1256.04 721.385L1250.17 597.616L1256.04 721.385ZM1209.74 478.664L1253.85 596.764L1209.74 478.664ZM1252.4 599.189L1149.43 605.349L1252.4 599.189ZM1150.87 604.464L1254.21 723.318L1150.87 604.464ZM1255.39 725.251L1065.25 736.983L1255.39 725.251ZM1065.8 737.376L1121.72 852.56L1065.8 737.376ZM1219.54 873.237L1252.53 722.99L1219.54 873.237ZM1254.7 721.286L1352.92 745.11L1254.7 721.286ZM1353.08 746.715L1220.95 874.58L1353.08 746.715ZM1210.98 478.631L1151.69 605.742L1210.98 478.631ZM1214.43 1086.7L1119.16 1009.2L1214.43 1086.7ZM1221.74 874.056L1119.62 853.117L1221.74 874.056ZM1120.67 853.281L1057.87 943.002L1120.67 853.281ZM1220.36 874.613L1121.49 1009.16L1220.36 874.613ZM1055.44 938.873L1120.93 1007.85L1055.44 938.873ZM1353.11 891.129L1221.44 872.745L1353.11 891.129ZM1353.31 890.08L1216.85 1085.94L1353.31 890.08ZM1120.31 1010.41L1012.94 1018.8L1120.31 1010.41ZM1255.55 722.302L1284.54 760.511L1255.55 722.302ZM1352.85 747.338L1283.72 762.018L1352.85 747.338ZM1221.25 871.533L1282.64 760.282L1221.25 871.533ZM1352.85 745.994L1356.43 887.918L1352.85 745.994ZM1349.47 746.06L1251.45 597.649L1349.47 746.06ZM1064.52 1393.28L1247.02 1539.01L1064.52 1393.28ZM1246.3 1541.4L1116.18 1537.11L1246.3 1541.4ZM1282.18 1759.18L1150.9 1784.38L1282.18 1759.18ZM1277.13 1750.53L1115.42 1537.4L1277.13 1750.53ZM694.673 1267.29L976.538 1375.52L694.673 1267.29ZM732.091 1456.53L978.44 1379.16L732.091 1456.53Z" stroke="white"/>
<path d="M1434.84 29.0712L1267.03 -55.8336M776.494 1677.42L565.136 1657.04L776.494 1677.42ZM730.844 1460.56L778.396 1676.67L730.844 1460.56ZM699.821 1269.55L734.091 1457.84L699.821 1269.55ZM1037.96 1708.26L1151.69 1783.37L1037.96 1708.26ZM1100.73 1596.55L1153.07 1783.3L1100.73 1596.55ZM1252.57 596.239L1302.41 418.827L1252.57 596.239ZM1247.71 599.353L1400.86 439.111L1247.71 599.353ZM1402.04 441.602L1304.15 419.548L1402.04 441.602ZM1305.3 420.171L1211.74 478.238L1305.3 420.171ZM1304.74 418.434L1311.76 183.283L1304.74 418.434ZM1171.17 332.972L1313.17 182.234L1171.17 332.972ZM1342.49 60.7917L1237.87 139.307L1009.17 215.626L1172.12 333.431L1237.45 139.864L1342.49 60.7917ZM1313.89 184.331L1238.3 140.814L1313.89 184.331ZM1313.96 182.038L1433.62 26.6135L1313.96 182.038Z" stroke="white"/>
<path d="M1345.44 57.4489L1434.87 26.5149M1165.6 -89.8811L1239.38 139.47L1265.72 -55.539L1165.6 -89.8811Z" stroke="white"/>
<path d="M1754.81 379.177L1774.42 490.395M1445.17 -191.006L1267.55 -56.456L1445.17 -191.006ZM1435.23 26.7776L1441.89 -191.661L1435.23 26.7776ZM1346.49 59.5795L1316.32 183.054L1346.49 59.5795ZM1151.07 1784.87L1004.54 1995.58L1151.07 1784.87ZM1036.94 1710.36L1005.66 1994.73L1036.94 1710.36ZM1036.91 1711.6L731.533 1459.28L1036.91 1711.6ZM1032.71 1554.84L732.025 1458.53L1032.71 1554.84ZM1151.49 1785.24L1091.97 1815.48L1151.49 1785.24ZM1038.09 1709.31L1092.99 1813.97L1038.09 1709.31ZM1091.71 1815.42L1004.71 1995.35L1091.71 1815.42ZM1402.63 438.292L1545.16 532.635L1402.63 438.292ZM1542.56 530.505L1757.07 383.011L1542.56 530.505ZM1542.76 529.292L1772.75 490.92L1542.76 529.292ZM1771.86 489.806L1972.13 328.844L1771.86 489.806ZM1973.64 332.153L1757.63 383.699L1973.64 332.153Z" stroke="white"/>
<path d="M1585.98 92.8397C1586.93 92.1172 1587.73 91.2127 1588.33 90.179C1588.92 89.1453 1589.31 88.0032 1589.46 86.8195C1589.61 85.6357 1589.52 84.434 1589.2 83.2846C1588.88 82.1353 1588.33 81.0612 1587.59 80.1253C1586.13 78.1922 1583.97 76.9099 1581.57 76.5544C1579.17 76.1989 1576.73 76.7987 1574.77 78.2247C1573.82 78.95 1573.03 79.8557 1572.43 80.8894C1571.84 81.9231 1571.46 83.0642 1571.31 84.2467C1571.16 85.4292 1571.25 86.6296 1571.56 87.7784C1571.88 88.9272 1572.43 90.0015 1573.16 90.9391C1574.62 92.8722 1576.79 94.1546 1579.18 94.51C1581.58 94.8655 1584.02 94.2657 1585.98 92.8397ZM1694.07 228.766C1695.02 228.044 1695.82 227.139 1696.42 226.105C1697.01 225.072 1697.4 223.93 1697.55 222.746C1697.7 221.562 1697.61 220.36 1697.29 219.211C1696.97 218.062 1696.42 216.988 1695.68 216.052C1694.22 214.119 1692.06 212.836 1689.66 212.481C1687.26 212.125 1684.82 212.725 1682.86 214.151C1681.91 214.876 1681.12 215.782 1680.52 216.816C1679.93 217.85 1679.55 218.991 1679.4 220.173C1679.25 221.356 1679.34 222.556 1679.65 223.705C1679.97 224.854 1680.51 225.928 1681.25 226.866C1682.71 228.799 1684.87 230.081 1687.27 230.436C1689.67 230.792 1692.11 230.192 1694.07 228.766Z" fill="white"/>
<path d="M1689.19 222.933L1535.74 260.225M1532.69 260.815L1578.74 84.8114L1532.69 260.815Z" stroke="white"/>
<path d="M1844.14 184.79L1690.7 222.081M1687.35 222.769L1758.55 78.9785L1687.35 222.769Z" stroke="white"/>
<path d="M1506.65 1076.5C1507.8 1075.62 1508.77 1074.53 1509.49 1073.27C1510.21 1072.02 1510.68 1070.63 1510.86 1069.2C1511.04 1067.76 1510.94 1066.3 1510.56 1064.91C1510.17 1063.51 1509.51 1062.21 1508.62 1061.07C1506.86 1058.71 1504.24 1057.15 1501.32 1056.72C1498.41 1056.29 1495.45 1057.03 1493.08 1058.78C1491.93 1059.66 1490.96 1060.75 1490.24 1062.01C1489.52 1063.27 1489.06 1064.65 1488.88 1066.09C1488.7 1067.52 1488.8 1068.98 1489.19 1070.38C1489.58 1071.77 1490.25 1073.07 1491.14 1074.21C1492.91 1076.56 1495.52 1078.11 1498.43 1078.54C1501.33 1078.97 1504.29 1078.24 1506.65 1076.5ZM1542.33 944.674C1543.29 943.951 1544.08 943.047 1544.68 942.013C1545.27 940.979 1545.66 939.837 1545.81 938.654C1545.96 937.47 1545.87 936.268 1545.55 935.119C1545.23 933.969 1544.68 932.895 1543.94 931.96C1542.49 930.021 1540.33 928.734 1537.94 928.378C1535.54 928.022 1533.1 928.626 1531.15 930.059C1530.2 930.781 1529.41 931.686 1528.81 932.72C1528.21 933.753 1527.83 934.895 1527.68 936.079C1527.53 937.263 1527.62 938.465 1527.94 939.614C1528.26 940.763 1528.8 941.837 1529.55 942.773C1531 944.711 1533.15 945.999 1535.55 946.355C1537.94 946.71 1540.38 946.106 1542.33 944.674ZM1676.56 1071.2C1677.54 1070.45 1678.36 1069.51 1678.98 1068.44C1679.59 1067.38 1679.99 1066.2 1680.15 1064.97C1680.3 1063.75 1680.21 1062.51 1679.88 1061.32C1679.56 1060.14 1678.99 1059.02 1678.23 1058.06C1676.73 1056.05 1674.5 1054.71 1672.01 1054.35C1669.53 1053.98 1667.01 1054.6 1664.98 1056.09C1664.01 1056.84 1663.19 1057.78 1662.58 1058.85C1661.96 1059.91 1661.57 1061.09 1661.42 1062.32C1661.27 1063.54 1661.36 1064.78 1661.69 1065.97C1662.02 1067.15 1662.58 1068.26 1663.35 1069.23C1664.85 1071.23 1667.08 1072.55 1669.55 1072.92C1672.02 1073.29 1674.54 1072.67 1676.56 1071.2ZM1609.83 1342.59C1610.8 1341.84 1611.62 1340.9 1612.23 1339.83C1612.85 1338.76 1613.24 1337.58 1613.39 1336.36C1613.54 1335.14 1613.45 1333.9 1613.12 1332.71C1612.79 1331.53 1612.23 1330.42 1611.46 1329.45C1609.96 1327.45 1607.72 1326.12 1605.24 1325.75C1602.76 1325.39 1600.24 1326.01 1598.22 1327.48C1597.24 1328.23 1596.41 1329.17 1595.8 1330.23C1595.18 1331.3 1594.79 1332.48 1594.63 1333.7C1594.48 1334.93 1594.56 1336.17 1594.89 1337.36C1595.22 1338.54 1595.78 1339.65 1596.54 1340.62C1598.05 1342.64 1600.29 1343.98 1602.78 1344.35C1605.27 1344.72 1607.8 1344.08 1609.83 1342.59Z" fill="white"/>
<path d="M400.542 1183.92L366.436 1343.67M1351.6 886.05L1537.45 937.497L1351.6 886.05ZM1352.49 887.361L1500.82 1067L1352.49 887.361ZM1499.51 1067.33L1605.56 1334.07L1499.51 1067.33ZM1670.33 1064.64L1535.91 938.186L1670.33 1064.64ZM1537.78 938.841L1501.7 1067.79L1537.78 938.841ZM1543.68 532.766L1353.97 746.388L1543.68 532.766ZM1254.63 592.078L1543.58 532.241L1254.63 592.078ZM1128.44 504.748L1151.27 604.301L1128.44 504.748ZM1147.66 601.745L1067.51 736.459L1147.66 601.745ZM1605.76 1334L1668.33 1064.08L1605.76 1334ZM1671.38 1065.66L1501.44 1066.48L1671.38 1065.66ZM1498.52 1070.97L1215.67 1086.3L1498.52 1070.97ZM1345.73 62.2336L1265.78 -54.0968L1164.81 -89.5203L1010.97 216.74L1345.73 62.2336ZM1065.44 737.704L1220.99 874.908L1065.44 737.704ZM1028.71 1254.18L700.018 1269.68L399.198 1181.99L194.694 1239.47L89.4901 1516.07L364.993 1342.2L699.953 1269.68L1028.71 1254.18ZM197.088 1242.74L365.715 1344.62L197.088 1242.74Z" stroke="white"/>
<path d="M746.52 463.164C747.828 462.163 748.924 460.912 749.745 459.484C750.566 458.057 751.096 456.48 751.303 454.847C751.511 453.213 751.392 451.555 750.954 449.968C750.515 448.381 749.766 446.896 748.75 445.6C746.734 442.927 743.747 441.154 740.433 440.664C737.12 440.173 733.747 441.005 731.041 442.978C729.733 443.98 728.637 445.23 727.816 446.658C726.995 448.086 726.465 449.662 726.258 451.295C726.051 452.929 726.17 454.587 726.608 456.175C727.046 457.762 727.795 459.246 728.811 460.543C730.828 463.215 733.815 464.988 737.128 465.478C740.442 465.969 743.815 465.138 746.52 463.164ZM482.495 607.807C483.471 607.056 484.289 606.12 484.902 605.052C485.515 603.984 485.91 602.806 486.066 601.584C486.221 600.363 486.134 599.123 485.808 597.936C485.482 596.749 484.924 595.638 484.167 594.667C482.666 592.668 480.437 591.342 477.963 590.974C475.489 590.606 472.97 591.226 470.951 592.701C469.975 593.451 469.157 594.388 468.544 595.456C467.931 596.524 467.536 597.702 467.38 598.923C467.225 600.144 467.312 601.384 467.638 602.571C467.964 603.759 468.522 604.87 469.279 605.841C470.78 607.839 473.009 609.166 475.483 609.534C477.956 609.902 480.476 609.281 482.495 607.807ZM539.753 450.614C540.903 449.734 541.867 448.635 542.589 447.381C543.311 446.127 543.777 444.742 543.96 443.307C544.143 441.871 544.039 440.414 543.655 439.019C543.27 437.624 542.613 436.319 541.721 435.179C539.957 432.826 537.336 431.262 534.427 430.827C531.517 430.391 528.553 431.119 526.176 432.853C525.027 433.732 524.063 434.831 523.341 436.085C522.619 437.339 522.153 438.724 521.97 440.16C521.787 441.595 521.891 443.052 522.275 444.447C522.659 445.842 523.317 447.147 524.209 448.287C525.967 450.647 528.589 452.217 531.501 452.653C534.413 453.088 537.38 452.355 539.753 450.614ZM656.238 642.247C657.206 641.509 658.018 640.585 658.626 639.53C659.234 638.475 659.625 637.31 659.778 636.102C659.931 634.895 659.841 633.669 659.515 632.496C659.189 631.323 658.632 630.227 657.878 629.271C656.389 627.294 654.182 625.982 651.732 625.62C649.283 625.258 646.79 625.875 644.793 627.338C643.824 628.076 643.013 629 642.405 630.055C641.797 631.11 641.405 632.275 641.253 633.483C641.1 634.69 641.19 635.916 641.516 637.089C641.842 638.262 642.399 639.358 643.153 640.314C644.646 642.284 646.854 643.59 649.3 643.952C651.747 644.313 654.238 643.701 656.238 642.247ZM918.132 618.195C919.1 617.456 919.912 616.533 920.52 615.478C921.128 614.423 921.519 613.258 921.672 612.05C921.824 610.842 921.735 609.616 921.409 608.443C921.082 607.27 920.526 606.174 919.771 605.218C918.283 603.241 916.076 601.93 913.626 601.568C911.177 601.206 908.684 601.823 906.687 603.285C905.718 604.023 904.906 604.947 904.299 606.002C903.691 607.057 903.299 608.222 903.147 609.43C902.994 610.638 903.083 611.864 903.41 613.037C903.736 614.209 904.293 615.306 905.047 616.262C906.535 618.239 908.743 619.55 911.192 619.912C913.641 620.274 916.135 619.657 918.132 618.195Z" fill="white"/>
<path d="M1403.45 438.653L1531.05 261.306M1066.56 741.538L913.016 614.558L739.207 453.366L530.866 440.029L476.592 597.223L650.63 633.662L913.016 614.525L1066.56 741.538ZM532.407 441.897L651.024 634.612L532.407 441.897ZM740.486 452.907L651.384 634.514L740.486 452.907ZM912.983 611.051L1149.99 607.348L912.983 611.051ZM1129 503.569L913.147 611.608L1129 503.569Z" stroke="white"/>
<path d="M710.611 850.167C712.249 848.918 713.623 847.356 714.652 845.571C715.681 843.787 716.344 841.816 716.604 839.773C716.863 837.73 716.713 835.655 716.163 833.671C715.613 831.686 714.673 829.83 713.398 828.212C710.884 824.862 707.149 822.639 703.004 822.026C698.86 821.412 694.64 822.458 691.262 824.935C689.623 826.184 688.25 827.746 687.221 829.531C686.192 831.315 685.529 833.287 685.269 835.33C685.01 837.373 685.16 839.447 685.71 841.432C686.26 843.416 687.2 845.272 688.475 846.89C690.999 850.226 694.733 852.438 698.872 853.05C703.012 853.663 707.227 852.628 710.611 850.167ZM524.209 844.269C525.155 843.544 525.949 842.638 526.543 841.604C527.136 840.57 527.519 839.429 527.669 838.247C527.818 837.064 527.731 835.864 527.413 834.715C527.095 833.566 526.552 832.492 525.816 831.554C524.354 829.621 522.192 828.339 519.794 827.984C517.395 827.628 514.953 828.228 512.993 829.654C512.047 830.379 511.254 831.285 510.66 832.318C510.066 833.352 509.683 834.493 509.534 835.676C509.384 836.858 509.471 838.059 509.789 839.208C510.107 840.356 510.65 841.431 511.386 842.368C512.848 844.301 515.01 845.584 517.409 845.939C519.807 846.295 522.249 845.695 524.209 844.269ZM626.002 984.947C626.948 984.221 627.742 983.316 628.335 982.282C628.929 981.248 629.312 980.107 629.461 978.925C629.611 977.742 629.524 976.542 629.206 975.393C628.888 974.244 628.345 973.17 627.609 972.232C626.147 970.299 623.985 969.017 621.587 968.661C619.188 968.306 616.746 968.906 614.786 970.332C613.84 971.057 613.047 971.963 612.453 972.996C611.859 974.03 611.476 975.171 611.327 976.354C611.177 977.536 611.264 978.737 611.582 979.885C611.9 981.034 612.443 982.109 613.179 983.046C614.641 984.979 616.803 986.262 619.202 986.617C621.6 986.973 624.042 986.373 626.002 984.947Z" fill="white"/>
<path d="M699.132 841.811L621.476 978.098M517.519 834.93L701.264 838.633L517.519 834.93Z" stroke="white"/>
<path d="M502.598 990.878C503.544 990.153 504.337 989.247 504.931 988.214C505.525 987.18 505.908 986.039 506.057 984.856C506.207 983.674 506.12 982.473 505.802 981.325C505.484 980.176 504.941 979.102 504.205 978.164C502.743 976.231 500.581 974.948 498.182 974.593C495.784 974.238 493.342 974.837 491.382 976.263C490.436 976.989 489.642 977.894 489.049 978.928C488.455 979.962 488.072 981.103 487.923 982.285C487.773 983.468 487.86 984.668 488.178 985.817C488.496 986.966 489.039 988.04 489.775 988.978C491.237 990.911 493.399 992.193 495.797 992.549C498.196 992.904 500.638 992.304 502.598 990.878ZM709.135 1096.3C710.082 1095.57 710.875 1094.67 711.469 1093.63C712.062 1092.6 712.445 1091.46 712.595 1090.27C712.744 1089.09 712.657 1087.89 712.339 1086.74C712.021 1085.59 711.478 1084.52 710.742 1083.58C709.281 1081.65 707.118 1080.37 704.72 1080.01C702.321 1079.66 699.879 1080.26 697.919 1081.68C696.973 1082.41 696.18 1083.31 695.586 1084.35C694.992 1085.38 694.609 1086.52 694.46 1087.7C694.31 1088.89 694.397 1090.09 694.715 1091.24C695.033 1092.38 695.576 1093.46 696.312 1094.4C697.774 1096.33 699.936 1097.61 702.335 1097.97C704.733 1098.32 707.175 1097.72 709.135 1096.3Z" fill="white"/>
<path d="M649.351 635.103L702.051 837.223M496.006 981.866L622.558 977.049L496.006 981.866ZM621.148 980.392L704.019 1089.61L621.148 980.392Z" stroke="white"/>
</mask>
<g mask="url(#mask0)">
<path d="M24 -263H2031V2068H24V-263Z" fill="url(#paint3_linear)"/>
</g>
</g>
<g style="mix-blend-mode:overlay" opacity="0.07">
<path d="M337.72 67.5538L456.541 136.155V273.357L337.72 341.958L218.9 273.357V136.155L337.72 67.5538Z" fill="white"/>
</g>
<g style="mix-blend-mode:overlay" opacity="0.05">
<path d="M678.212 304.605L797.032 373.206V510.408L678.212 579.009L559.391 510.408V373.206L678.212 304.605Z" fill="white"/>
</g>
<g style="mix-blend-mode:overlay" opacity="0.08">
<path d="M617.871 -56L739.18 14.0378V154.113L617.871 224.151L496.562 154.113V14.0378L617.871 -56Z" fill="black"/>
</g>
<g style="mix-blend-mode:overlay" opacity="0.09">
<path d="M503.656 103.471L590.75 153.754V254.321L503.656 304.605L416.562 254.321V153.754L503.656 103.471Z" fill="black"/>
</g>
<g style="mix-blend-mode:overlay" opacity="0.05">
<path d="M474.922 336.212L634.179 428.159V612.053L474.922 704L315.665 612.053V428.159L474.922 336.212Z" fill="white"/>
</g>
<g style="mix-blend-mode:overlay" opacity="0.16">
<path d="M655.225 202.601L720.545 240.314V315.739L655.225 353.452L589.905 315.739V240.314L655.225 202.601Z" fill="white"/>
</g>
<g style="mix-blend-mode:overlay" opacity="0.05">
<path d="M324.473 540.749L389.793 578.462V653.887L324.473 691.6L259.153 653.887V578.462L324.473 540.749Z" fill="white"/>
</g>
<g style="mix-blend-mode:overlay" opacity="0.16">
<path d="M186.87 317.535L252.19 355.248V430.673L186.87 468.386L121.549 430.673V355.248L186.87 317.535Z" fill="white"/>
</g>
<g style="mix-blend-mode:overlay" opacity="0.04">
<path d="M46.0756 -18.6465L167.385 51.3913V191.467L46.0756 261.505L-75.2334 191.467V51.3913L46.0756 -18.6465Z" fill="black"/>
</g>
</g>
<defs>
<filter id="filter0_f" x="16" y="-271" width="2023" height="2347" filterUnits="userSpaceOnUse" color-interpolation-filters="sRGB">
<feFlood flood-opacity="0" result="BackgroundImageFix"/>
<feBlend mode="normal" in="SourceGraphic" in2="BackgroundImageFix" result="shape"/>
<feGaussianBlur stdDeviation="4" result="effect1_foregroundBlur"/>
</filter>
<linearGradient id="paint0_linear" x1="711.5" y1="9" x2="711.5" y2="1428" gradientUnits="userSpaceOnUse">
<stop offset="0.0001" stop-color="#1D1E1E"/>
<stop offset="1" stop-color="#2E2E30"/>
</linearGradient>
<radialGradient id="paint1_radial" cx="0" cy="0" r="1" gradientUnits="userSpaceOnUse" gradientTransform="translate(1695.9 1449.59) rotate(-141.033) scale(702.608 579.613)">
<stop stop-color="#D443FF"/>
<stop offset="1" stop-color="#4902FF" stop-opacity="0"/>
</radialGradient>
<radialGradient id="paint2_radial" cx="0" cy="0" r="1" gradientUnits="userSpaceOnUse" gradientTransform="translate(-55 -42.4062) rotate(53.6902) scale(1000.51 825.569)">
<stop stop-color="#00E3BA"/>
<stop offset="1" stop-color="#005FDF" stop-opacity="0"/>
</radialGradient>
<linearGradient id="paint3_linear" x1="397.769" y1="1669.68" x2="1656.08" y2="13.3148" gradientUnits="userSpaceOnUse">
<stop stop-color="#3B7772"/>
<stop offset="0.515625" stop-color="#4346AF"/>
<stop offset="1" stop-color="#A15CC9"/>
</linearGradient>
<clipPath id="clip0">
<rect width="1688" height="1450" fill="white"/>
</clipPath>
</defs>
</svg>
