<svg width="1688" height="1284" viewBox="0 0 1688 1284" fill="none" xmlns="http://www.w3.org/2000/svg"><g clip-path="url(#clip0)"><path fill="url(#paint0_linear)" d="M0 0h1688v1284H0z"/><g style="mix-blend-mode:screen" opacity=".19"><path fill="url(#paint1_radial)" d="M1004 651h718v671h-718z"/></g><g style="mix-blend-mode:lighten" opacity=".5"><path fill="url(#paint2_radial)" d="M-55-96h965v902H-55z"/></g><g style="mix-blend-mode:overlay" clip-path="url(#clip1)"><g clip-path="url(#clip2)"><path opacity=".39" d="M1843.56-39.38v-144.24L1970.14-257l126.59 73.4v144.23l-126.59 73.4-126.58-73.4zM957.42 1048.88V904.63l126.61-73.4 126.58 73.4v144.25l-126.58 73.4-126.6-73.4zm-253.25 870.59v-144.25l126.58-73.4 126.59 73.4v144.25l-126.59 73.4-126.58-73.4zm379.86-217.65v-144.28l126.58-73.39 126.59 73.39v144.26l-126.59 73.4-126.58-73.38zM-55.26 1484.17v-144.24l126.59-73.39L198 1339.93v144.24l-126.7 73.37-126.56-73.37zm759.53 0v-144.24l126.59-73.39 126.58 73.39v144.24l-126.6 73.37-126.57-73.37zm886.1-652.94l-126.59 73.4-126.58-73.4V686.97l126.58-73.4V469.33L1590.37 396l126.58 73.4v144.25l-126.58 73.4v144.2zm-253.26-579.56v144.32l-126.58 73.4-126.5-73.4V251.67l-126.6-73.4V34.02l126.6-73.4 126.58 73.4v144.25l126.5 73.4z" fill="url(#paint3_linear)"/><path opacity=".21" d="M2596.91 286.88l133.07 77.1v151.56l-133.09 77.12-133.04-77.12V363.98l133.06-77.1zm133.07-686.02l133.06 77.1v151.58l-133.06 77.1-133.07-77.1v-151.58l133.07-77.1zm-931.49 228.68l133.1 77.1V58.2l-133.1 77.1-133.02-77.1V-93.36l133.02-77.1zM-862.94-627.78l133.06 77.13v151.55L-862.94-322-996-399.1v-151.55l133.06-77.13zm798.38-151.55l133.09-77.1 133.06 77.1v151.55L68.53-550.65l-133.04-77.17-133.07 77.13-133.08-77.13v-151.55l133.08-77.11 133.02 77.15zM-596.8-170.42v-151.57l133.06-77.1 133.07 77.1v151.57l-133.07 77.1V58.2l-133.06 77.1-133.09-77.1V-93.36l133.09-77.06zM600.95 58.2V-93.36l133.07-77.1 133.06 77.1V58.2l-133.17 77.1v151.58l-132.95 77.1-133.07-77.1V135.3l133.07-77.1zM201.65-170.46v-151.58l133.06-77.1 133.09 77.1v151.58L334.7-93.36V58.2l-133.06 77.1L68.57 58.2-64.5 135.3v151.58l-133.07 77.1v151.56l-133.08 77.12v151.56l-133.07 77.1-133.06-77.1V592.66l133.06-77.12V363.98l133.07-77.1V135.3l133.08-77.1V-93.36l133.07-77.1 133.08 77.1 133.07-77.1zM2197.72-550.7l-133.06-77.13-133.07 77.13-133.08-77.13v-151.55l133.08-77.11 133.07 77.1 133.06-77.1 133.09 77.1v151.56l133.06 77.13v151.55l-133.06 77.1-133.09-77.1V-550.7zM68.7 821.26l133.06-77.1 133.07 77.1 133.08-77.1 133.05 77.16V972.9L467.89 1050v151.55l-133.19 77.13-133.06-77.13V1050L68.57 972.9-64.5 1050l-133.07-77.1V821.32l133.07-77.1L68.7 821.26zM-197.43 1887.5v-151.49l133.07-77.11v-151.57l133.08-77.11 133.06 77.11v151.57l-133.06 77.11v151.55l-133.23 77.11v151.57l-133.07 77.11-133.08-77.11v-151.57l133.23-77.17zm-665.51-380.17L-996 1430.23v-151.55l133.06-77.13V1050l133.06-77.1 133.09 77.1 133.06-77.1 133.07 77.1v151.55l-133.07 77.13v151.55l133.07 77.11v151.57l-133.07 77.11v151.55l-133.06 77.11-133.09-77.11v-151.55l-133.06-77.11v-151.57zm2395.28-763.12l133.13 77.1V972.9l-133.09 77.1-133.04-77.1-133.06 77.1v151.55l133.06 77.13v151.55l-133.06 77.11v151.57l-133.07 77.11v151.55l-133.06 77.11-133.07-77.11v-151.55l133.07-77.11v-151.57l133.06-77.11v-151.55l-133.06-77.13V1050l133.06-77.1V821.32l-133.06-77.1V592.66l-133.07-77.12V363.98l133.07-77.1 133.06 77.1v151.56l133.09 77.12 133.04-77.12 133.06 77.12-.06 151.56zm532.25-457.32V135.3l133.13-77.1 133.09 77.1v151.58l-133.09 77.1v151.56l133.09 77.12v151.56l-133.09 77.1V972.9l-133.06 77.1-133.07-77.1V821.32l133.07-77.1V592.66l-133.07-77.12V363.98l133-77.08zm133.13 1449.12v151.55l-133.06 77.11-133.07-77.11v-151.55l-133.08-77.11v-151.57l133.08-77.11 133.07 77.11 133.06-77.11 133.09 77.11 133.06-77.11v-151.55l-133.06-77.13V1050l133.06-77.1V821.32l133.07-77.1 133.04 77.1 133.06-77.1 133.07 77.1 133.08-77.1 133.07 77.1V972.9l-133.07 77.1-133.08-77.1-133.07 77.1-133.06-77.1-133.09 77.1v151.55l133.09 77.13v151.55l-133.07 77.11v151.57l-133.06 77.11-133.06-77.11-133.07 77.11zm-931.51-2515.4l133.13-77.1 133.06 77.1v151.56l-133.06 77.13-133.06-77.13-133.07 77.13v151.55l133.09 77.1 133.04-77.1 133.06 77.1v151.58l-133.06 77.1-133.06-77.1-133.07 77.1-133.06-77.1v-151.58l-133.07-77.1L734-322.04l-133.04-77.1V-550.7l133.06-77.13v-151.55l133.06-77.11 133.07 77.1 133.06-77.1 133 77.1z" fill="url(#paint4_radial)"/><path opacity=".11" d="M1803.41 1151l98.91 57.4v112.68l-98.91 57.4-98.91-57.4V1208.4l98.91-57.4zm296.75-169.92l98.91 57.4v112.67l-98.91 57.4-98.93-57.4v-112.67l98.93-57.4zM-176.9 1488.9l98.91 57.4v112.67l-98.9 57.11-98.94-57.4V1546l98.93-57.1zm991.1-677.77l98.91 57.4v112.68l-98.9 57.4-98.94-57.4V868.53l98.94-57.4zM-471.66-378.39l98.91 57.3v112.67l-98.9 57.4-98.92-57.4V-321.1l98.91-57.3zm-98.9 509.8l98.9 57.4v112.67l-98.9 57.4-98.94-57.4V188.81l98.93-57.4zM319.65-38.52l-98.92 57.4-98.9-57.4v-112.67l98.9-57.4v-112.68l98.91-57.3 98.94 57.3v112.68l98.9 57.4v112.67l98.92 57.4v112.68l-98.91 57.4-98.91-57.55V18.73l-98.94-57.25zm-494.58 57.4l-98.93-57.4v-112.67l98.93-57.4L-76-151.2v112.67l98.91 57.4v112.68l-98.9 57.4-98.92-57.55V18.88zM1111 301.33l-98.93 57.4v112.68l98.93 57.4 98.91-57.4V358.73l-98.91-57.4zm494.57-169.92l98.93 57.4 98.91-57.3 98.91 57.4 98.91-57.29 98.93 57.4v112.67l98.91 57.4 98.91-57.4V189.02l-98.91-57.61V18.73l98.91-57.3 98.93 57.4v112.68l98.91 57.4V301.6l-98.91 57.4v112.67l-98.93 57.4v112.68l-98.91 57.4-98.91-57.4V529.06l-98.93-57.4-98.91 57.4-98.91-57.4V359l-98.91-57.4-98.93 57.4v112.67l-98.91 57.4-98.91-57.4-98.93 57.4v112.68l98.93 57.4V811.8l98.91 57.4V981.9l-98.91 57.4v112.67l-98.93 57.4v112.68l-98.91 57.4-98.91-57.4v-112.68l-98.85-58.36v-112.67l98.93-57.4 98.91 57.4 98.91-57.4V868.26l-98.91-57.4V698.17l-98.91-57.4-98.93 57.4-98.9-57.4V528.11l-98.92-57.4V358.03l-98.93-57.4V187.96l98.8-56.55 98.91 57.4 99.04-57.4 98.93 57.4 98.83-57.4V18.73l98.91-57.25v-112.67l-98.91-57.4v-112.68l98.91-57.3 98.93 57.3v112.68l98.91 57.4 98.91-57.4 98.93 57.4v112.67l-98.93 57.4v112.53zm-98.91 57.4l-98.91-57.4-98.93 57.4v112.67l98.93 57.4 98.91-57.4V188.81zM22.9 1151l98.94 57.4v112.68l-98.94 57.4-98.9-57.4V1208.4l-98.92-57.4v-112.67l-98.93-57.4-98.9 57.4-98.92-57.4V868.26l-98.9-57.4V698.17l-98.94-57.4V528.11l98.93-57.4 98.91 57.4 98.91-57.4V358.03l98.91-57.4 98.93 57.4v112.68l-98.93 57.4v112.67l-98.9 57.4v112.68l98.9 57.4 98.93-57.4V698.17l98.91-57.4V528.11l98.91-57.4 98.94 57.4 98.9-57.4V358.03l98.91-57.4 98.94 57.4v112.68l98.9 57.4 98.92-57.4 98.9 57.4v112.67l-98.9 57.4v112.68l-98.91 57.4-98.91-57.4V698.17l-98.94-57.4-98.9 57.4v112.68l-98.92 57.4-98.93-57.4-98.9 57.4v112.67l98.9 57.4V1151zm1879.44-282.55v112.67l-98.91 57.4-98.91-57.4V868.45l98.91-57.4V698.37l98.91-57.4 98.91 57.4v112.68l-98.91 57.4zm296.75 622.43l-98.93 57.25v112.67l-98.93 57.4-98.91-57.4v-112.67l98.91-57.3v-112.67l98.93-57.4 98.91 57.4 98.91-57.4 98.93 57.4v112.67l-98.93 57.3-98.89-57.25zM616.43 1378.2l-98.91-57.4v-112.67l-98.91-57.4v-112.68l98.9-57.4 98.92 57.4v112.68l98.9 57.4v112.67l98.94 57.4v112.68l-98.95 57.25-98.91-57.3.02-112.63z" fill="url(#paint5_linear)"/><path d="M1144.36 1443.48l99.03 57.47v112.82l-99.03 57.47-99-57.47v-112.82l99-57.47zM451.27 592.73l99.03 57.47v112.82l-99.03 57.37-99-57.37V650.2l99-57.47zM253.3-87.86l98.96 57.33V82.28l-98.96 57.48-99.07-57.48V-30.53l99.07-57.33zm297 170.14l99 57.48v112.81l-99 57.24-99.03-57.36v-112.7l99.03-57.47zm-891.13 170.17l99 57.36v112.82l-99 57.32-99.03-57.36V309.77l99.03-57.32zm594.09 0l99 57.36v112.82l-98.96 57.32-99.07-57.36V309.77l99.03-57.32zM2134.54-258V-370.8l99.03-57.48 99.01 57.48V-258l-99.01 57.48v112.81l-98.99 57.18V82.28l-99 57.48-99.14-57.48-99.01 57.48-98.98-57.48V-30.53l99.03-57.37 98.96 57.37 99.01-57.37v-112.82l99.09-57.28zM847.32 933.03l99.03 57.48v112.81l-99.03 57.48-99-57.48V990.51l-99.01-57.48V820.22l99-57.37 99.01 57.37v112.81zM550.3 1330.7v112.82l-99.03 57.47-99-57.47V1330.7l99-57.47v-112.82l99.03-57.47 99 57.47v112.82l-99 57.47z" fill="url(#paint6_linear)"/></g></g></g><defs><linearGradient id="paint0_linear" x1="844" y1="0" x2="844" y2="1284" gradientUnits="userSpaceOnUse"><stop stop-color="#3C3C3C"/><stop offset="1" stop-color="#222222"/></linearGradient><radialGradient id="paint1_radial" cx="0" cy="0" r="1" gradientUnits="userSpaceOnUse" gradientTransform="rotate(-141.02 1077.86 343.66) scale(605.755 499.778)"><stop stop-color="#D443FF"/><stop offset="1" stop-color="#4902FF" stop-opacity="0"/></radialGradient><radialGradient id="paint2_radial" cx="0" cy="0" r="1" gradientUnits="userSpaceOnUse" gradientTransform="matrix(519.26987 706.72962 -583.13728 428.46034 -55 -49.02)"><stop stop-color="#00E3BA"/><stop offset="1" stop-color="#005FDF" stop-opacity="0"/></radialGradient><linearGradient id="paint3_linear" x1="2396.22" y1="1622.9" x2="337.72" y2="-192.55" gradientUnits="userSpaceOnUse"><stop stop-color="white"/><stop offset="1" stop-color="white" stop-opacity="0"/></linearGradient><radialGradient id="paint4_radial" cx="0" cy="0" r="1" gradientUnits="userSpaceOnUse" gradientTransform="matrix(1742.52714 42.69022 -33.55727 1369.739 1012.01 436.51)"><stop stop-opacity="0"/><stop offset="1"/></radialGradient><linearGradient id="paint5_linear" x1="-623.36" y1="946.49" x2="2910.34" y2="240.61" gradientUnits="userSpaceOnUse"><stop stop-color="white" stop-opacity="0"/><stop offset=".29" stop-color="white" stop-opacity=".28"/><stop offset=".96" stop-color="white" stop-opacity=".96"/><stop offset="1" stop-color="white"/></linearGradient><linearGradient id="paint6_linear" x1="-92872.8" y1="648913" x2="3514760" y2="648913" gradientUnits="userSpaceOnUse"><stop stop-color="white" stop-opacity=".06"/><stop offset="1" stop-color="white" stop-opacity=".93"/></linearGradient><clipPath id="clip0"><path fill="white" d="M0 0h1688v1284H0z"/></clipPath><clipPath id="clip1"><path fill="white" transform="translate(-634 -217)" d="M0 0h2920v1642H0z"/></clipPath><clipPath id="clip2"><path fill="white" transform="translate(-705.48 -257.01)" d="M0 0h3062.96v1721.06H0z"/></clipPath></defs></svg>