<svg viewBox="0 0 1436 400" fill="none" xmlns="http://www.w3.org/2000/svg"><g clip-path="url(#clip0)"><path fill="#413C39" d="M0 0h1436v400H0z"/><path fill="url(#paint0_linear)" d="M0 0h1436v400H0z"/><g opacity=".38" fill-rule="evenodd" clip-rule="evenodd"><path d="M810.83 235.07L147.96 897.94 470.02 1220l662.87-662.88 663.05 663.05L2118 898.11l-663.05-663.04 664.01-664.01L1796.9-751 1132.89-87 469.06-750.81 147-428.77l663.83 663.84z" fill="url(#paint1_linear)"/><path d="M908.05 196.02L562.5 541.57l167.88 167.88 345.55-345.54 345.64 345.64 167.88-167.89-345.63-345.64 346.14-346.13L1422.07-318 1075.93 28.14 729.88-317.91 562-150.02l346.05 346.04z" fill="url(#paint2_linear)"/><path d="M968.23 195.87L703.38 460.72 832.06 589.4l264.85-264.85 294.81 294.81L1520.4 490.7l-294.81-294.82 295.19-295.2L1392.11-228l-295.2 295.2-265.23-265.24L703-69.36l265.23 265.23z" fill="url(#paint3_linear)"/><path d="M1006.63 184.03l-308.2 308.21 69.73 69.74 308.21-308.2 305.29 305.28 69.73-69.73-305.29-305.3 307.88-307.87-69.74-69.74-307.87 307.88-304.72-304.72-69.74 69.74 304.72 304.71z" fill="url(#paint4_linear)"/></g><path fill="url(#paint5_radial)" d="M-13-2h1451v415H-13z" opacity=".7"/></g><defs><linearGradient id="paint0_linear" x1="395.8" y1="-111" x2="310.13" y2="477.92" gradientUnits="userSpaceOnUse"><stop stop-color="#0B4950"/><stop offset="1" stop-color="#20AE9A"/></linearGradient><linearGradient id="paint1_linear" x1="1050.22" y1="-135.97" x2="1421.4" y2="472.13" gradientUnits="userSpaceOnUse"><stop stop-color="#003E46"/><stop offset="1" stop-color="#03B8A0"/></linearGradient><linearGradient id="paint2_linear" x1="756.26" y1="397.95" x2="1288.62" y2="62.93" gradientUnits="userSpaceOnUse"><stop stop-color="#003E46"/><stop offset="1" stop-color="#03B8A0"/></linearGradient><linearGradient id="paint3_linear" x1="830" y1="168" x2="1445.82" y2="103.09" gradientUnits="userSpaceOnUse"><stop stop-color="#003E46"/><stop offset="1" stop-color="#03B8A0"/></linearGradient><linearGradient id="paint4_linear" x1="1400" y1="454" x2="1325.13" y2="62.88" gradientUnits="userSpaceOnUse"><stop stop-color="#003E46"/><stop offset="1" stop-color="#03B8A0"/></linearGradient><radialGradient id="paint5_radial" cx="0" cy="0" r="1" gradientUnits="userSpaceOnUse" gradientTransform="matrix(-545.50195 -305.49577 299.9851 -535.66194 1438 413)"><stop stop-color="#E900A4"/><stop offset=".97" stop-color="#B600FF" stop-opacity="0"/></radialGradient><clipPath id="clip0"><path fill="#fff" d="M0 0h1436v400H0z"/></clipPath></defs></svg>