<svg viewBox="0 0 460 224" fill="none" xmlns="http://www.w3.org/2000/svg"><g clip-path="url(#clip0)"><path fill="url(#paint0_linear)" d="M0 0h460v224H0z"/><g style="mix-blend-mode:lighten"><path fill-rule="evenodd" clip-rule="evenodd" d="M30.54 2.92l33.94 19.6v39.2L30.54 81.3-3.4 61.7V22.52l33.94-19.6zm33.6 78.39l23.2 13.4v26.8l-23.2 13.4-23.22-13.4v-26.8l23.21-13.4zm64.09 56.49l-12.93-7.47-12.93 7.47v14.93l12.93 7.47 12.93-7.47V137.8zm13.5 31.28l7 4.04v8.07l-7 4.03-6.99-4.03v-8.07l7-4.04zM102.51 59.66l-12.25-7.07-12.24 7.07V73.8l12.24 7.06 12.25-7.06V59.66z" fill="url(#paint1_linear)"/></g><g style="mix-blend-mode:lighten" opacity=".8"><path fill="url(#paint2_radial)" d="M0 0h358v223H0z"/></g><g style="mix-blend-mode:overlay" clip-path="url(#clip1)"><path opacity=".39" d="M540.16 21.78v-42.4l37.15-21.58 37.16 21.58v42.4L577.3 43.36l-37.15-21.58zM280.07 341.74v-42.42l37.16-21.57 37.16 21.57v42.42l-37.16 21.58-37.16-21.58zM205.74 597.7v-42.42l37.16-21.58 37.15 21.58v42.42l-37.16 21.57-37.15-21.57zm111.5-64V491.3l37.15-21.58 37.15 21.58v42.4l-37.15 21.59-37.16-21.58zm-334.4-63.99v-42.4L20 405.73l37.18 21.58v42.4L19.99 491.3l-37.15-21.58zm222.93 0v-42.4l37.16-21.58 37.15 21.58v42.4l-37.16 21.58-37.15-21.58zm260.08-191.96l-37.16 21.57-37.15-21.57v-42.42l37.15-21.57v-42.42l37.16-21.56L503 171.36v42.41l-37.15 21.58v42.4zm-74.34-170.4v42.43l-37.15 21.58-37.13-21.58v-42.43l-37.16-21.58v-42.4l37.16-21.59 37.16 21.58v42.41l37.13 21.58z" fill="url(#paint3_linear)"/><path opacity=".21" d="M761.28 117.7l39.05 22.67v44.56l-39.06 22.68-39.05-22.68v-44.56l39.06-22.67zm39.05-201.69l39.06 22.67v44.56L800.33 5.91l-39.05-22.67v-44.56l39.05-22.67zm-273.4 67.23L566 5.91v44.56l-39.07 22.67-39.04-22.67V5.91l39.04-22.67zM-254.22-151.2l39.06 22.68v44.55l-39.06 22.67-39.05-22.67v-44.55l39.05-22.68zm234.34-44.56l39.06-22.67 39.05 22.67v44.56l-39.05 22.68-39.05-22.7-39.06 22.68-39.06-22.67v-44.56l39.06-22.67 39.05 22.68zM-176.1-16.74v-44.57l39.05-22.67 39.06 22.67v44.57l-39.06 22.67v44.54l-39.05 22.67-39.07-22.67V5.91l39.06-22.65zm351.55 67.21V5.91l39.05-22.67 39.06 22.67v44.56l-39.09 22.67v44.56l-39.02 22.67-39.06-22.67V73.14l39.06-22.67zM58.25-16.76v-44.56L97.3-83.99l39.06 22.67v44.56L97.3 5.91v44.56L58.24 73.14 19.2 50.47l-39.06 22.67v44.56l-39.06 22.67v44.56l-39.06 22.68v44.55l-39.05 22.67-39.06-22.67v-44.55l39.06-22.68v-44.56L-98 117.7V73.14l39.06-22.67V5.91l39.06-22.67L19.19 5.91l39.05-22.67zM644.1-128.55l-39.06-22.67L566-128.55l-39.06-22.67v-44.56L566-218.45l39.05 22.67 39.06-22.67 39.06 22.67v44.56l39.06 22.67v44.56l-39.06 22.67-39.06-22.67v-44.56zM19.23 274.81l39.05-22.66 39.06 22.66 39.06-22.66 39.05 22.68v44.57l-39.06 22.67v44.55L97.3 409.3l-39.06-22.68v-44.55L19.2 319.4l-39.06 22.67-39.06-22.67v-44.57l39.06-22.67 39.1 22.65zM-58.88 588.3v-44.54l39.05-22.67v-44.56l39.06-22.67 39.06 22.67v44.56l-39.06 22.67v44.56l-39.1 22.66v44.57l-39.06 22.67-39.06-22.67v-44.56l39.1-22.7zm-195.34-111.77l-39.05-22.67V409.3l39.05-22.68v-44.55l39.06-22.67 39.06 22.67 39.06-22.67L-98 342.07v44.55l-39.05 22.68v44.56L-98 476.53v44.56l-39.05 22.67v44.56l-39.06 22.66-39.06-22.66v-44.56l-39.06-22.67v-44.56zm703.03-224.37l39.08 22.67v44.57l-39.06 22.67-39.05-22.67-39.06 22.67v44.55l39.06 22.68v44.56l-39.06 22.67v44.56l-39.05 22.67v44.56l-39.06 22.66-39.05-22.66v-44.56l39.05-22.67v-44.56l39.06-22.67V409.3l-39.06-22.68v-44.55l39.06-22.67v-44.57l-39.06-22.67v-44.55l-39.05-22.68v-44.56l39.05-22.67 39.06 22.67v44.56l39.06 22.68 39.05-22.68 39.05 22.68-.01 44.55zm156.23-134.45V73.14l39.07-22.67 39.06 22.67v44.56l-39.06 22.67v44.56l39.06 22.68v44.55l-39.06 22.67v44.57l-39.06 22.67L566 319.4v-44.57l39.05-22.67v-44.55L566 184.93v-44.56l39.04-22.66zm39.07 426.05v44.56l-39.06 22.66L566 588.33v-44.56l-39.06-22.67v-44.56L566 453.86l39.05 22.67 39.06-22.67 39.06 22.67 39.06-22.67V409.3l-39.06-22.68v-44.55l39.06-22.67v-44.57l39.05-22.67 39.05 22.67 39.06-22.67 39.05 22.67 39.06-22.67 39.06 22.67v44.57l-39.06 22.67-39.06-22.67-39.05 22.67-39.06-22.67-39.06 22.67v44.55l39.06 22.68v44.56l-39.05 22.67v44.56l-39.06 22.67-39.05-22.67-39.06 22.67zm-273.4-739.54l39.07-22.67 39.05 22.67v44.56l-39.05 22.67-39.06-22.67-39.05 22.67v44.56l39.06 22.67 39.05-22.67 39.05 22.67v44.56L409.78 5.91l-39.06-22.67-39.05 22.67-39.06-22.67v-44.56l-39.05-22.67-39.06 22.67-39.05-22.67v-44.56l39.05-22.67v-44.56l39.06-22.67 39.05 22.67 39.06-22.67 39.03 22.67z" fill="url(#paint4_radial)"/><path opacity=".11" d="M528.38 371.76l29.03 16.88v33.12l-29.03 16.88-29.03-16.88v-33.12l29.03-16.88zm87.1-49.96l29.03 16.88v33.13l-29.03 16.87-29.04-16.88v-33.12l29.04-16.88zM-52.86 471.1l29.03 16.88v33.13l-29.03 16.78-29.03-16.87v-33.13l29.03-16.79zm290.9-199.26l29.03 16.87v33.13l-29.03 16.88L209 321.83v-33.13l29.04-16.87zM-139.37-77.9l29.03 16.85v33.12l-29.03 16.88-29.04-16.88v-33.12l29.03-16.85zM-168.41 72l29.03 16.88V122l-29.03 16.87-29.03-16.87V88.87L-168.41 72zM92.9 22.04L63.84 38.9 34.82 22.04V-11.1l29.03-16.88v-33.12l29.03-16.85 29.04 16.85v33.12l29.03 16.88v33.13l29.03 16.87v33.13L150.95 88.9 121.92 72V38.87L92.88 22.04zM-52.29 38.9L-81.3 22.04V-11.1l29.03-16.88 29.03 16.88v33.13L5.8 38.9v33.13L-23.25 88.9-52.28 72V38.91zm377.43 83.04l-29.04 16.88v33.13l29.04 16.87 29.03-16.87v-33.13l-29.03-16.88zM470.3 72l29.04 16.88 29.03-16.84L557.4 88.9l29.03-16.84 29.04 16.87v33.13l29.03 16.88 29.03-16.88V88.93L644.5 72V38.87l29.03-16.85 29.03 16.88v33.13L731.6 88.9v33.13l-29.03 16.87v33.13l-29.03 16.88v33.12l-29.03 16.88-29.03-16.88v-33.12l-29.04-16.88-29.03 16.88-29.03-16.88V138.9l-29.03-16.87-29.04 16.87v33.13l-29.03 16.88-29.03-16.88-29.04 16.88v33.12l29.04 16.88v33.13l29.03 16.87v33.13l-29.03 16.88v33.12l-29.04 16.88v33.13l-29.03 16.87-29.03-16.88v-33.12l-29.01-17.16v-33.13l29.03-16.87 29.03 16.87 29.04-16.87v-33.13l-29.04-16.87v-33.13l-29.03-16.88-29.03 16.88-29.03-16.88v-33.12l-29.03-16.88v-33.13l-29.04-16.87V88.62l29-16.63 29.03 16.88L296.14 72l29.03 16.88L354.18 72V38.87l29.03-16.83V-11.1l-29.03-16.88v-33.12l29.03-16.85 29.04 16.85v33.12l29.03 16.88 29.03-16.88 29.04 16.88v33.13L470.3 38.9V72zm-29.03 16.88L412.25 72 383.2 88.87V122l29.04 16.87L441.28 122V88.87zM5.78 371.77l29.04 16.87v33.12L5.8 438.64l-29.04-16.88v-33.12l-29.03-16.88v-33.13l-29.03-16.87-29.03 16.87-29.03-16.87v-33.13l-29.04-16.87v-33.13l-29.03-16.88v-33.12l29.03-16.88 29.03 16.88 29.04-16.88v-33.13l29.03-16.87 29.03 16.87v33.13l-29.03 16.88v33.12l-29.03 16.88v33.13l29.03 16.87 29.03-16.87v-33.13l29.03-16.88v-33.12L5.8 171.75l29.03 16.88 29.03-16.88v-33.13l29.03-16.87 29.04 16.87v33.13l29.03 16.88 29.03-16.88 29.03 16.88v33.12l-29.03 16.88v33.13l-29.03 16.87-29.03-16.87v-33.13l-29.04-16.88-29.03 16.88v33.13l-29.03 16.87L5.8 271.76l-29.04 16.87v33.13L5.8 338.63v33.13zm551.63-83.08v33.13l-29.03 16.87-29.03-16.88V288.7l29.03-16.88v-33.13l29.03-16.87 29.04 16.88v33.12L557.4 288.7zm87.1 183l-29.03 16.83v33.12l-29.04 16.88-29.03-16.88v-33.12l29.03-16.85v-33.12l29.04-16.88 29.03 16.88 29.03-16.88 29.03 16.88v33.12l-29.03 16.85-29.03-16.83zM180 438.56l-29.03-16.88v-33.12l-29.03-16.88v-33.13l29.03-16.87 29.03 16.87v33.13l29.03 16.88v33.12l29.04 16.88v33.13L209 488.51l-29.03-16.85v-33.11z" fill="url(#paint5_linear)"/><path d="M334.94 457.75l29.07 16.9v33.17l-29.07 16.9-29.06-16.9v-33.17l29.06-16.9zM131.51 207.63l29.07 16.9v33.16l-29.07 16.87-29.05-16.87v-33.17l29.05-16.9zM73.41 7.53l29.05 16.85v33.17L73.4 74.45l-29.08-16.9V24.38L73.41 7.53zm87.17 50.02l29.06 16.9v33.17l-29.06 16.83-29.07-16.87V74.45l29.07-16.9zm-261.55 50.03l29.06 16.87v33.17l-29.06 16.85-29.07-16.87v-33.17l29.07-16.85zm174.37 0l29.05 16.87v33.17l-29.04 16.85-29.08-16.87v-33.17l29.07-16.85zM625.57-42.49v-33.17l29.06-16.9 29.06 16.9v33.17l-29.06 16.9V7.57l-29.05 16.81v33.17l-29.06 16.9-29.1-16.9-29.06 16.9-29.05-16.9V24.38l29.07-16.86 29.04 16.86 29.06-16.86v-33.17l29.09-16.84zM247.76 307.68l29.06 16.9v33.16l-29.06 16.9-29.06-16.9v-33.17l-29.06-16.9v-33.16l29.06-16.87 29.06 16.87v33.17zm-87.18 116.91v33.17l-29.07 16.9-29.05-16.9V424.6l29.05-16.9v-33.16l29.07-16.9 29.06 16.9v33.17l-29.06 16.9z" fill="url(#paint6_linear)"/></g></g><defs><linearGradient id="paint0_linear" x1="230" y1="0" x2="230" y2="224" gradientUnits="userSpaceOnUse"><stop stop-color="#312F2F"/><stop offset="1" stop-color="#53514E"/></linearGradient><linearGradient id="paint1_linear" x1="83.11" y1="3.04" x2="71.03" y2="187.61" gradientUnits="userSpaceOnUse"><stop stop-color="#4C66F1"/><stop offset="1" stop-color="#D129C3"/></linearGradient><radialGradient id="paint2_radial" cx="0" cy="0" r="1" gradientUnits="userSpaceOnUse" gradientTransform="rotate(34.37) scale(270.158 232.35)"><stop stop-color="#EF3CFF"/><stop offset="1" stop-color="#AE2DFF" stop-opacity="0"/></radialGradient><linearGradient id="paint3_linear" x1="702.37" y1="510.5" x2="97.29" y2="-22.23" gradientUnits="userSpaceOnUse"><stop stop-color="white"/><stop offset="1" stop-color="white" stop-opacity="0"/></linearGradient><radialGradient id="paint4_radial" cx="0" cy="0" r="1" gradientUnits="userSpaceOnUse" gradientTransform="matrix(511.44302 12.55111 -9.88273 402.70975 296.1 161.7)"><stop stop-opacity="0"/><stop offset="1"/></radialGradient><linearGradient id="paint5_linear" x1="-183.9" y1="311.63" x2="853.4" y2="104.78" gradientUnits="userSpaceOnUse"><stop stop-color="white" stop-opacity="0"/><stop offset=".29" stop-color="white" stop-opacity=".28"/><stop offset=".96" stop-color="white" stop-opacity=".96"/><stop offset="1" stop-color="white"/></linearGradient><linearGradient id="paint6_linear" x1="-27259.8" y1="190817" x2="1031610" y2="190817" gradientUnits="userSpaceOnUse"><stop stop-color="white" stop-opacity=".06"/><stop offset="1" stop-color="white" stop-opacity=".93"/></linearGradient><clipPath id="clip0"><path fill="white" d="M0 0h460v224H0z"/></clipPath><clipPath id="clip1"><path fill="white" transform="translate(-208 -42.2)" d="M0 0h899v506H0z"/></clipPath></defs></svg>