<svg viewBox="0 0 460 224" fill="none" xmlns="http://www.w3.org/2000/svg"><g clip-path="url(#clip0)"><path fill="url(#paint0_linear)" d="M0 0h460v224H0z"/><g style="mix-blend-mode:lighten" opacity=".6"><path fill="url(#paint1_radial)" d="M0 0h460v224H0z"/></g><path fill-rule="evenodd" clip-rule="evenodd" d="M41.03-10.21l26.96-15.82V21.6L41.03 37.42v-47.63zM26.44 50.93L-.5 66.76v47.62l26.95-15.82V50.93zm30.2 49.38l-22.9 13.44v40.46l22.9-13.44v-40.46zm2.08 55.46l-9.66 5.67v17.07l9.66-5.67v-17.07zm29.04-19.74L67.57 124.2v35.66l20.19 11.84v-35.66z" fill="url(#paint2_linear)"/><g style="mix-blend-mode:overlay"><path opacity=".2" d="M281.25-187.58L-16.85-12.62v526.64l298.1-174.96v-526.64z" fill="url(#paint3_linear)"/><path opacity=".2" d="M446.2-86.98L153.44 84.85v517.22L446.2 430.24V-86.98z" fill="url(#paint4_linear)"/><path opacity=".2" d="M588.04 86.83L377.01 210.7v372.85l211.03-123.87V86.83z" fill="url(#paint5_linear)"/><path opacity=".2" d="M475.25-181.24l-149.9 87.98V171.6l149.9-87.99v-264.84z" fill="url(#paint6_linear)"/><path opacity=".2" d="M624.57-69.52L446.2 35.18V350.3l178.37-104.69V-69.52z" fill="url(#paint7_linear)"/><path opacity=".2" d="M22.75-181.24l-127.95 75.1V119.9L22.75 44.8v-226.05z" fill="url(#paint8_linear)"/><path opacity=".2" d="M296.72 33.84L223.68 76.7v129.04l73.04-42.87V33.84z" fill="url(#paint9_linear)"/><path opacity=".2" d="M434.9 60.08l-125.8 73.83v222.26l125.8-73.84V60.08z" fill="url(#paint10_linear)"/><path opacity=".2" d="M365.24-163.41l-79.8 46.83V24.38l79.8-46.83v-140.96z" fill="url(#paint11_linear)"/><path opacity=".2" d="M101.35 146.54L21.2 193.6v141.6l80.15-47.04v-141.6z" fill="url(#paint12_linear)"/><path opacity=".2" d="M251.54-217.4L73.17-112.7v315.12l178.37-104.7V-217.4z" fill="url(#paint13_linear)"/></g></g><defs><linearGradient id="paint0_linear" x1="377.79" y1="198.12" x2="407.51" y2="-7.34" gradientUnits="userSpaceOnUse"><stop stop-color="#312F2F"/><stop offset="1" stop-color="#62605D"/></linearGradient><radialGradient id="paint1_radial" cx="0" cy="0" r="1" gradientUnits="userSpaceOnUse" gradientTransform="rotate(48.32 -10.75 -23.97) scale(324.811 248.527)"><stop stop-color="#00EA95"/><stop offset="1" stop-color="#02DDFF" stop-opacity="0"/></radialGradient><linearGradient id="paint2_linear" x1="-8.27" y1="-36.6" x2="66.63" y2="146.08" gradientUnits="userSpaceOnUse"><stop stop-color="#00DF73"/><stop offset="1" stop-color="#00A298"/></linearGradient><linearGradient id="paint3_linear" x1="65.44" y1="-138.21" x2="308.19" y2="433.69" gradientUnits="userSpaceOnUse"><stop stop-opacity=".92"/><stop offset="1" stop-opacity="0"/></linearGradient><linearGradient id="paint4_linear" x1="234.26" y1="-38.49" x2="472.66" y2="523.18" gradientUnits="userSpaceOnUse"><stop stop-opacity=".92"/><stop offset="1" stop-opacity="0"/></linearGradient><linearGradient id="paint5_linear" x1="435.26" y1="121.79" x2="607.12" y2="526.68" gradientUnits="userSpaceOnUse"><stop stop-opacity=".92"/><stop offset="1" stop-opacity="0"/></linearGradient><linearGradient id="paint6_linear" x1="366.72" y1="-156.41" x2="488.8" y2="131.19" gradientUnits="userSpaceOnUse"><stop stop-color="white" stop-opacity=".92"/><stop offset="1" stop-color="white" stop-opacity="0"/></linearGradient><linearGradient id="paint7_linear" x1="495.44" y1="-39.97" x2="640.69" y2="302.24" gradientUnits="userSpaceOnUse"><stop stop-color="white" stop-opacity=".92"/><stop offset="1" stop-color="white" stop-opacity="0"/></linearGradient><linearGradient id="paint8_linear" x1="-69.88" y1="-160.05" x2="34.32" y2="85.43" gradientUnits="userSpaceOnUse"><stop stop-color="white" stop-opacity=".92"/><stop offset="1" stop-color="white" stop-opacity="0"/></linearGradient><linearGradient id="paint9_linear" x1="243.84" y1="45.94" x2="303.32" y2="186.07" gradientUnits="userSpaceOnUse"><stop stop-color="white" stop-opacity=".92"/><stop offset="1" stop-color="white" stop-opacity="0"/></linearGradient><linearGradient id="paint10_linear" x1="343.83" y1="80.92" x2="446.27" y2="322.27" gradientUnits="userSpaceOnUse"><stop stop-color="white" stop-opacity=".92"/><stop offset="1" stop-color="white" stop-opacity="0"/></linearGradient><linearGradient id="paint11_linear" x1="307.47" y1="-150.2" x2="372.45" y2="2.88" gradientUnits="userSpaceOnUse"><stop stop-color="white" stop-opacity=".92"/><stop offset="1" stop-color="white" stop-opacity="0"/></linearGradient><linearGradient id="paint12_linear" x1="43.33" y1="159.82" x2="108.6" y2="313.59" gradientUnits="userSpaceOnUse"><stop stop-color="white" stop-opacity=".92"/><stop offset="1" stop-color="white" stop-opacity="0"/></linearGradient><linearGradient id="paint13_linear" x1="122.41" y1="-187.86" x2="267.66" y2="154.35" gradientUnits="userSpaceOnUse"><stop stop-color="white" stop-opacity=".92"/><stop offset="1" stop-color="white" stop-opacity="0"/></linearGradient><clipPath id="clip0"><path fill="white" d="M0 0h460v224H0z"/></clipPath></defs></svg>