<svg width="1497" height="862" viewBox="0 0 1497 862" fill="none" xmlns="http://www.w3.org/2000/svg">
<g clip-path="url(#clip0)">
<rect width="1497" height="862" fill="url(#paint0_linear)"/>
<g opacity="0.8">
<rect width="1497" height="862" fill="url(#paint1_linear)"/>
<rect width="1497" height="862" fill="url(#paint2_linear)"/>
<rect width="1497" height="862" fill="url(#paint3_linear)"/>
</g>
<g style="mix-blend-mode:hard-light" opacity="0.5">
<path opacity="0.2" d="M721.389 -72.4342L217.721 223.236V1113.23L721.389 817.562V-72.4342Z" fill="url(#paint4_linear)"/>
<path opacity="0.2" d="M1176.97 230.389L853.961 420.005V990.767L1176.97 801.151V230.389Z" fill="url(#paint5_linear)"/>
<path opacity="0.2" d="M145.895 -219.105L-267 23.2784V752.875L145.895 510.492V-219.105Z" fill="url(#paint6_linear)"/>
<path opacity="0.2" d="M1059.89 230.389L827.043 367.078V778.524L1059.89 641.835V230.389Z" fill="url(#paint7_linear)"/>
<path opacity="0.2" d="M935.437 -65.4379L770.04 31.6557V323.917L935.437 226.823V-65.4379Z" fill="url(#paint8_linear)"/>
<path opacity="0.2" d="M1076.3 -117.571L1001.78 -73.8253V57.8542L1076.3 14.1083V-117.571Z" fill="url(#paint9_linear)"/>
<path opacity="0.2" d="M1140.48 323.917L1059.89 371.224L1059.89 646.688L1140.48 599.381L1140.48 323.917Z" fill="url(#paint10_linear)"/>
<path opacity="0.2" d="M1026.11 490.078L977.455 518.641V604.617L1026.11 576.055V490.078Z" fill="url(#paint11_linear)"/>
<path opacity="0.2" d="M903.384 566.996L788.858 634.227V836.598L903.384 769.367V566.996Z" fill="url(#paint12_linear)"/>
<path opacity="0.2" d="M1188.74 -81.5338L1047.57 1.33785V250.789L1188.74 167.918V-81.5338Z" fill="url(#paint13_linear)"/>
<path opacity="0.2" d="M1128.1 142.57L983.643 227.371V786.513L1128.1 701.712V142.57Z" fill="url(#paint14_linear)"/>
<path opacity="0.2" d="M436.18 -65.4379L295.01 17.4337V266.885L436.18 184.014V-65.4379Z" fill="url(#paint15_linear)"/>
<path opacity="0.2" d="M189.573 153.849L10.9683 258.696V574.297L189.573 469.45V153.849Z" fill="url(#paint16_linear)"/>
<path opacity="0.2" d="M263.429 -117.571L148.972 -50.381V151.868L263.429 84.6778V-117.571Z" fill="url(#paint17_linear)"/>
<path opacity="0.2" d="M119.844 38.5811L-71.366 150.828V488.701L119.844 376.455V38.5811Z" fill="url(#paint18_linear)"/>
<path opacity="0.2" d="M53.9973 464.542L-15.5083 505.344V628.162L53.9973 587.36V464.542Z" fill="url(#paint19_linear)"/>
<path opacity="0.2" d="M330.686 210.593L242.253 262.506V418.77L330.686 366.857V210.593Z" fill="url(#paint20_linear)"/>
<path opacity="0.2" d="M724.574 129.239L643.988 176.546V318.945L724.574 271.638V129.239Z" fill="url(#paint21_linear)"/>
<path opacity="0.2" d="M890.919 283.842L752.122 365.32V610.578L890.919 529.1V283.842Z" fill="url(#paint22_linear)"/>
<path opacity="0.2" d="M617.572 444.63L430.202 554.623V885.713L617.572 775.72V444.63Z" fill="url(#paint23_linear)"/>
<path opacity="0.2" d="M100.271 628.162L-22.6227 700.305V917.461L100.271 845.319V628.162Z" fill="url(#paint24_linear)"/>
<path opacity="0.2" d="M286.47 359.806L148.972 440.522V891.407L286.47 810.691V359.806Z" fill="url(#paint25_linear)"/>
<path opacity="0.2" d="M814.057 -45.7619L726.025 5.91565V161.47L814.057 109.792V-45.7619Z" fill="url(#paint26_linear)"/>
<path opacity="0.2" d="M450.953 268.744L362.52 320.657V800.89L450.953 748.976V268.744Z" fill="url(#paint27_linear)"/>
<path opacity="0.2" d="M1261.11 416.151L1368.81 479.374V669.682L1261.11 606.459V416.151Z" fill="url(#paint28_linear)"/>
<path opacity="0.2" d="M1196.05 224.093L1262.45 263.073V380.407L1196.05 341.427V224.093Z" fill="url(#paint29_linear)"/>
<path opacity="0.2" d="M686.12 3.37384L489.321 118.902L489.321 1005.54L686.12 890.011L686.12 3.37384Z" fill="url(#paint30_linear)"/>
<path opacity="0.2" d="M1467.37 57.851L1547.96 105.158V247.557L1467.37 200.25V57.851Z" fill="url(#paint31_linear)"/>
<path opacity="0.2" d="M1239.88 72.3253L1381.05 155.197V404.648L1239.88 321.777V72.3253Z" fill="url(#paint32_linear)"/>
<path opacity="0.2" d="M1276.86 -271.5L1418.03 -188.628V60.8231L1276.86 -22.0485V-271.5Z" fill="url(#paint33_linear)"/>
<path opacity="0.2" d="M1492.83 -133.645L1634 -50.7738V198.678L1492.83 115.806V-133.645Z" fill="url(#paint34_linear)"/>
<path opacity="0.2" d="M1157.17 -190.053L1244.53 -138.77V15.5956L1157.17 -35.6871V-190.053Z" fill="url(#paint35_linear)"/>
<path opacity="0.2" d="M1380.59 72.3463L1501.91 143.565V357.939L1380.59 286.721V72.3463Z" fill="url(#paint36_linear)"/>
<path opacity="0.2" d="M346.174 677.601L226.765 747.698V958.696L346.174 888.599V677.601Z" fill="url(#paint37_linear)"/>
<path opacity="0.2" d="M1164.99 571.704L1306.16 654.575V1133.5L1164.99 1050.63V571.704Z" fill="url(#paint38_linear)"/>
</g>
</g>
<defs>
<linearGradient id="paint0_linear" x1="748.5" y1="0" x2="748.5" y2="862" gradientUnits="userSpaceOnUse">
<stop stop-color="#312F2F"/>
<stop offset="1" stop-color="#62605D"/>
</linearGradient>
<linearGradient id="paint1_linear" x1="489.531" y1="-260.778" x2="266.54" y2="924.158" gradientUnits="userSpaceOnUse">
<stop stop-color="#1D1B1B"/>
<stop offset="1" stop-color="#62605D"/>
</linearGradient>
<linearGradient id="paint2_linear" x1="1450.32" y1="1000.55" x2="116.46" y2="129.766" gradientUnits="userSpaceOnUse">
<stop stop-color="#FFCC69" stop-opacity="0.63"/>
<stop offset="0.343419" stop-color="#A87436" stop-opacity="0"/>
</linearGradient>
<linearGradient id="paint3_linear" x1="-59.7107" y1="-147.074" x2="1909.38" y2="270.035" gradientUnits="userSpaceOnUse">
<stop stop-color="#D44883" stop-opacity="0.81"/>
<stop offset="0.204231" stop-color="#D9489B" stop-opacity="0.19"/>
<stop offset="0.406054" stop-color="#DA489F" stop-opacity="0"/>
<stop offset="0.715351" stop-color="#882065" stop-opacity="0"/>
<stop offset="1" stop-color="#B92966" stop-opacity="0.81"/>
</linearGradient>
<linearGradient id="paint4_linear" x1="356.759" y1="11.0032" x2="767.04" y2="977.433" gradientUnits="userSpaceOnUse">
<stop stop-opacity="0.92"/>
<stop offset="1" stop-opacity="0"/>
</linearGradient>
<linearGradient id="paint5_linear" x1="943.127" y1="283.898" x2="1206.24" y2="903.678" gradientUnits="userSpaceOnUse">
<stop stop-opacity="0.92"/>
<stop offset="1" stop-opacity="0"/>
</linearGradient>
<linearGradient id="paint6_linear" x1="-153.02" y1="-150.705" x2="183.318" y2="641.55" gradientUnits="userSpaceOnUse">
<stop stop-opacity="0.92"/>
<stop offset="1" stop-opacity="0"/>
</linearGradient>
<linearGradient id="paint7_linear" x1="891.32" y1="268.962" x2="1080.99" y2="715.744" gradientUnits="userSpaceOnUse">
<stop stop-opacity="0.92"/>
<stop offset="1" stop-opacity="0"/>
</linearGradient>
<linearGradient id="paint8_linear" x1="815.698" y1="-38.0384" x2="950.428" y2="279.322" gradientUnits="userSpaceOnUse">
<stop stop-color="white" stop-opacity="0.92"/>
<stop offset="1" stop-color="white" stop-opacity="0"/>
</linearGradient>
<linearGradient id="paint9_linear" x1="1022.35" y1="-105.226" x2="1083.06" y2="37.762" gradientUnits="userSpaceOnUse">
<stop stop-color="white" stop-opacity="0.92"/>
<stop offset="1" stop-color="white" stop-opacity="0"/>
</linearGradient>
<linearGradient id="paint10_linear" x1="1082.14" y1="337.267" x2="1140.49" y2="585.014" gradientUnits="userSpaceOnUse">
<stop stop-color="white" stop-opacity="0.92"/>
<stop offset="1" stop-color="white" stop-opacity="0"/>
</linearGradient>
<linearGradient id="paint11_linear" x1="990.886" y1="498.139" x2="1030.52" y2="591.499" gradientUnits="userSpaceOnUse">
<stop stop-color="white" stop-opacity="0.92"/>
<stop offset="1" stop-color="white" stop-opacity="0"/>
</linearGradient>
<linearGradient id="paint12_linear" x1="820.473" y1="585.969" x2="913.764" y2="805.719" gradientUnits="userSpaceOnUse">
<stop stop-color="white" stop-opacity="0.92"/>
<stop offset="1" stop-color="white" stop-opacity="0"/>
</linearGradient>
<linearGradient id="paint13_linear" x1="1086.54" y1="-58.1476" x2="1201.54" y2="212.727" gradientUnits="userSpaceOnUse">
<stop stop-color="white" stop-opacity="0.92"/>
<stop offset="1" stop-color="white" stop-opacity="0"/>
</linearGradient>
<linearGradient id="paint14_linear" x1="1023.52" y1="166.501" x2="1141.19" y2="443.681" gradientUnits="userSpaceOnUse">
<stop stop-color="white" stop-opacity="0.92"/>
<stop offset="1" stop-color="white" stop-opacity="0"/>
</linearGradient>
<linearGradient id="paint15_linear" x1="333.98" y1="-42.0518" x2="448.975" y2="228.823" gradientUnits="userSpaceOnUse">
<stop stop-color="white" stop-opacity="0.92"/>
<stop offset="1" stop-color="white" stop-opacity="0"/>
</linearGradient>
<linearGradient id="paint16_linear" x1="60.2723" y1="183.437" x2="205.762" y2="526.141" gradientUnits="userSpaceOnUse">
<stop stop-color="white" stop-opacity="0.92"/>
<stop offset="1" stop-color="white" stop-opacity="0"/>
</linearGradient>
<linearGradient id="paint17_linear" x1="180.568" y1="-98.6104" x2="273.803" y2="121.008" gradientUnits="userSpaceOnUse">
<stop stop-color="white" stop-opacity="0.92"/>
<stop offset="1" stop-color="white" stop-opacity="0"/>
</linearGradient>
<linearGradient id="paint18_linear" x1="-18.5824" y1="70.2568" x2="137.175" y2="437.147" gradientUnits="userSpaceOnUse">
<stop stop-color="white" stop-opacity="0.92"/>
<stop offset="1" stop-color="white" stop-opacity="0"/>
</linearGradient>
<linearGradient id="paint19_linear" x1="3.67878" y1="476.056" x2="60.2971" y2="609.422" gradientUnits="userSpaceOnUse">
<stop stop-color="white" stop-opacity="0.92"/>
<stop offset="1" stop-color="white" stop-opacity="0"/>
</linearGradient>
<linearGradient id="paint20_linear" x1="266.665" y1="225.243" x2="338.701" y2="394.927" gradientUnits="userSpaceOnUse">
<stop stop-color="white" stop-opacity="0.92"/>
<stop offset="1" stop-color="white" stop-opacity="0"/>
</linearGradient>
<linearGradient id="paint21_linear" x1="666.234" y1="142.589" x2="731.879" y2="297.218" gradientUnits="userSpaceOnUse">
<stop stop-color="white" stop-opacity="0.92"/>
<stop offset="1" stop-color="white" stop-opacity="0"/>
</linearGradient>
<linearGradient id="paint22_linear" x1="790.437" y1="306.835" x2="903.499" y2="573.156" gradientUnits="userSpaceOnUse">
<stop stop-color="white" stop-opacity="0.92"/>
<stop offset="1" stop-color="white" stop-opacity="0"/>
</linearGradient>
<linearGradient id="paint23_linear" x1="481.925" y1="475.67" x2="634.555" y2="835.194" gradientUnits="userSpaceOnUse">
<stop stop-color="white" stop-opacity="0.92"/>
<stop offset="1" stop-color="white" stop-opacity="0"/>
</linearGradient>
<linearGradient id="paint24_linear" x1="11.3022" y1="648.521" x2="111.409" y2="884.326" gradientUnits="userSpaceOnUse">
<stop stop-color="white" stop-opacity="0.92"/>
<stop offset="1" stop-color="white" stop-opacity="0"/>
</linearGradient>
<linearGradient id="paint25_linear" x1="186.928" y1="382.584" x2="247.119" y2="759.752" gradientUnits="userSpaceOnUse">
<stop stop-color="white" stop-opacity="0.92"/>
<stop offset="1" stop-color="white" stop-opacity="0"/>
</linearGradient>
<linearGradient id="paint26_linear" x1="750.327" y1="-31.1786" x2="822.036" y2="137.735" gradientUnits="userSpaceOnUse">
<stop stop-color="white" stop-opacity="0.92"/>
<stop offset="1" stop-color="white" stop-opacity="0"/>
</linearGradient>
<linearGradient id="paint27_linear" x1="386.932" y1="283.394" x2="433.632" y2="737.006" gradientUnits="userSpaceOnUse">
<stop stop-color="white" stop-opacity="0.92"/>
<stop offset="1" stop-color="white" stop-opacity="0"/>
</linearGradient>
<linearGradient id="paint28_linear" x1="1339.08" y1="433.992" x2="1251.35" y2="640.644" gradientUnits="userSpaceOnUse">
<stop stop-color="white" stop-opacity="0.92"/>
<stop offset="1" stop-color="white" stop-opacity="0"/>
</linearGradient>
<linearGradient id="paint29_linear" x1="1244.12" y1="235.093" x2="1190.03" y2="362.504" gradientUnits="userSpaceOnUse">
<stop stop-color="white" stop-opacity="0.92"/>
<stop offset="1" stop-color="white" stop-opacity="0"/>
</linearGradient>
<linearGradient id="paint30_linear" x1="543.647" y1="35.9754" x2="587.736" y2="736.816" gradientUnits="userSpaceOnUse">
<stop stop-color="white" stop-opacity="0.92"/>
<stop offset="1" stop-color="white" stop-opacity="0"/>
</linearGradient>
<linearGradient id="paint31_linear" x1="1525.71" y1="71.201" x2="1460.07" y2="225.829" gradientUnits="userSpaceOnUse">
<stop stop-color="white" stop-opacity="0.92"/>
<stop offset="1" stop-color="white" stop-opacity="0"/>
</linearGradient>
<linearGradient id="paint32_linear" x1="1342.08" y1="95.7114" x2="1227.08" y2="366.586" gradientUnits="userSpaceOnUse">
<stop stop-color="white" stop-opacity="0.92"/>
<stop offset="1" stop-color="white" stop-opacity="0"/>
</linearGradient>
<linearGradient id="paint33_linear" x1="1379.06" y1="-248.114" x2="1264.07" y2="22.7606" gradientUnits="userSpaceOnUse">
<stop stop-color="white" stop-opacity="0.92"/>
<stop offset="1" stop-color="white" stop-opacity="0"/>
</linearGradient>
<linearGradient id="paint34_linear" x1="1595.03" y1="-110.259" x2="1480.03" y2="160.615" gradientUnits="userSpaceOnUse">
<stop stop-color="white" stop-opacity="0.92"/>
<stop offset="1" stop-color="white" stop-opacity="0"/>
</linearGradient>
<linearGradient id="paint35_linear" x1="1220.42" y1="-175.581" x2="1149.26" y2="-7.95829" gradientUnits="userSpaceOnUse">
<stop stop-color="white" stop-opacity="0.92"/>
<stop offset="1" stop-color="white" stop-opacity="0"/>
</linearGradient>
<linearGradient id="paint36_linear" x1="1468.42" y1="92.4439" x2="1369.59" y2="325.229" gradientUnits="userSpaceOnUse">
<stop stop-color="white" stop-opacity="0.92"/>
<stop offset="1" stop-color="white" stop-opacity="0"/>
</linearGradient>
<linearGradient id="paint37_linear" x1="259.728" y1="697.382" x2="356.997" y2="926.501" gradientUnits="userSpaceOnUse">
<stop stop-color="white" stop-opacity="0.92"/>
<stop offset="1" stop-color="white" stop-opacity="0"/>
</linearGradient>
<linearGradient id="paint38_linear" x1="1267.19" y1="595.09" x2="1257.58" y2="1088.93" gradientUnits="userSpaceOnUse">
<stop stop-color="white" stop-opacity="0.92"/>
<stop offset="1" stop-color="white" stop-opacity="0"/>
</linearGradient>
<clipPath id="clip0">
<rect width="1497" height="862" fill="white"/>
</clipPath>
</defs>
</svg>
