<svg xmlns="http://www.w3.org/2000/svg" fill="none" viewBox="0 0 203 40" preserveAspectRatio="xMidYMid meet" x="0" y="0"><path fill="currentColor" d="M53.3 28.6c-1 0-2-.2-2.6-.8a3 3 0 0 1-1-2.3c0-1 .3-1.8 1-2.4.8-.5 1.9-.8 3.4-1l2.5-.4v-.3c0-.6 0-1-.3-1.4-.3-.3-.7-.4-1.2-.4s-1 .1-1.3.4c-.2.3-.4.7-.4 1.2H50c0-1.2.6-2.1 1.5-2.8a6 6 0 0 1 3.6-1c1.7 0 3 .3 3.8 1 .7.8 1.1 1.9 1.1 3.4v3.6c0 1.3.1 2.3.3 3H57l-.1-1.7a3 3 0 0 1-1.4 1.4c-.6.4-1.4.5-2.2.5zm1.3-2.2c.6 0 1.2-.2 1.6-.6.4-.4.6-.9.6-1.5v-.9l-1.9.3a3 3 0 0 0-1.4.6c-.2.2-.4.5-.4.9s.1.7.4.9c.3.2.6.3 1 .3zM60.6 17.6h1.9v-2.5l3.3-1.4v4h2.6v2.2h-2.6v4.2c0 1.1.6 1.7 1.6 1.7l1-.1v2.7l-2 .2c-1.3 0-2.3-.3-3-1-.6-.5-1-1.5-1-2.7v-5h-1.8v-2.3zM70 17.6h3.3v10.8H70V17.6zm-.1-4.6h3.5V16H70V13zM80.5 28.6a6 6 0 0 1-3-.6 5 5 0 0 1-1.9-2c-.4-.9-.7-1.9-.7-3 0-1.7.5-3.1 1.5-4.1 1-1 2.4-1.5 4.2-1.5 1.3 0 2.5.3 3.4 1 .8.6 1.4 1.6 1.6 2.8l-3.2.7c-.1-.7-.3-1.2-.7-1.5-.3-.3-.7-.5-1.2-.5-.7 0-1.2.3-1.6.8-.3.5-.5 1.3-.5 2.2 0 1 .2 1.8.5 2.4.4.5 1 .8 1.6.8.5 0 1-.2 1.3-.5.3-.4.5-.9.6-1.5l3.2.7a4.2 4.2 0 0 1-1.7 2.8c-.9.7-2 1-3.4 1zM90 28.6c-1.2 0-2-.2-2.7-.8a3 3 0 0 1-1-2.3c0-1 .3-1.8 1-2.4.8-.5 1.9-.8 3.4-1l2.6-.4v-.3c0-.6-.2-1-.4-1.4-.3-.3-.7-.4-1.2-.4s-1 .1-1.2.4c-.3.3-.5.7-.5 1.2h-3.4c.1-1.2.6-2.1 1.5-2.8a6 6 0 0 1 3.6-1c1.7 0 3 .3 3.8 1 .8.8 1.2 1.9 1.2 3.4v3.6c0 1.3 0 2.3.3 3h-3.4l-.1-1.7A3 3 0 0 1 92 28c-.6.4-1.3.5-2.2.5zm1.2-2.2c.7 0 1.2-.2 1.6-.6.4-.4.6-.9.6-1.5v-.9l-1.9.3a3 3 0 0 0-1.3.6c-.3.2-.5.5-.5.9s.2.7.4.9c.3.2.7.3 1.1.3zM112 24.8h-5.6l-1.1 3.6h-3.6L107 13h4.1l5.5 15.3h-3.6l-1.1-3.6zm-.9-2.5l-1.3-4.3a21.2 21.2 0 0 1-.6-2.1 12 12 0 0 1-.6 2.1l-1.4 4.3h4zM122.4 28.6a6 6 0 0 1-2.9-.6 5 5 0 0 1-2-2c-.4-.9-.6-1.9-.6-3 0-1.7.5-3.1 1.5-4.1 1-1 2.3-1.5 4-1.5 1.5 0 2.6.3 3.5 1 .9.6 1.4 1.6 1.6 2.8l-3.2.7c0-.7-.3-1.2-.6-1.5-.4-.3-.8-.5-1.3-.5-.7 0-1.2.3-1.5.8-.4.5-.6 1.3-.6 2.2 0 1 .2 1.8.6 2.4.3.5.9.8 1.5.8.5 0 1-.2 1.3-.5.3-.4.5-.9.6-1.5l3.2.7a4.2 4.2 0 0 1-1.6 2.8c-1 .7-2.1 1-3.5 1zM131.9 28.6c-1.1 0-2-.2-2.7-.8a3 3 0 0 1-1-2.3c0-1 .4-1.8 1-2.4.8-.5 1.9-.8 3.4-1l2.6-.4v-.3c0-.6-.1-1-.4-1.4-.3-.3-.6-.4-1.2-.4-.5 0-1 .1-1.2.4-.3.3-.5.7-.5 1.2h-3.4c.1-1.2.6-2.1 1.5-2.8a6 6 0 0 1 3.6-1c1.7 0 3 .3 3.8 1 .8.8 1.2 1.9 1.2 3.4v3.6c0 1.3 0 2.3.3 3h-3.3l-.2-1.7A3 3 0 0 1 134 28c-.6.4-1.3.5-2.1.5zm1.2-2.2c.7 0 1.2-.2 1.6-.6.4-.4.6-.9.6-1.5v-.9l-1.8.3a3 3 0 0 0-1.4.6c-.3.2-.5.5-.5.9s.2.7.4.9c.3.2.7.3 1.1.3zM144.3 28.6c-.9 0-1.6-.2-2.3-.6a4.6 4.6 0 0 1-1.4-2c-.4-.9-.6-1.8-.6-3 0-1 .2-2 .6-3 .3-.8.9-1.4 1.5-2a4 4 0 0 1 2.4-.6c.7 0 1.3.1 1.8.4.5.3.9.7 1.2 1.3v-6.3h3.3v15.6h-3.2v-1.9c-.2.7-.7 1.2-1.3 1.6-.6.4-1.3.5-2 .5zm1.3-2.3c.6 0 1-.3 1.4-.8.3-.5.5-1.1.5-2v-.9c0-.9-.2-1.6-.5-2-.4-.6-.8-.8-1.4-.8-.7 0-1.2.2-1.5.8-.4.6-.6 1.4-.6 2.4s.2 1.8.6 2.4c.3.6.9.9 1.5.9zM163.2 23.8h-7.4c0 .7.3 1.3.7 1.7.5.5 1 .7 1.8.7 1 0 1.8-.5 2.3-1.5l2.5 1.1c-.4 1-1 1.6-2 2.1-.8.5-1.8.7-2.9.7-1.7 0-3.1-.4-4.1-1.4-1-1-1.5-2.3-1.5-4 0-1.2.2-2.2.7-3.1.4-.9 1-1.5 1.8-2s1.8-.7 2.9-.7c1.7 0 3 .5 3.8 1.4 1 1 1.4 2.3 1.4 4v1zm-3.3-2c0-.8-.2-1.4-.5-1.8-.4-.4-.8-.6-1.5-.6-.6 0-1.1.2-1.5.7-.4.4-.6 1-.6 1.8h4v-.1zM168.2 17.6v2c.3-.8.7-1.3 1.3-1.7.5-.4 1.1-.5 2-.5a3 3 0 0 1 1.8.5c.5.4.9 1 1.1 1.7.8-1.5 2-2.2 3.4-2.2 1 0 1.9.3 2.4 1 .6.7.9 1.7.9 3v7h-3.4V22c0-.7-.1-1.3-.3-1.6-.3-.3-.6-.5-1.1-.5-.5 0-1 .2-1.2.6-.3.4-.4.9-.4 1.6v6.2h-3.4V22c0-1.4-.5-2-1.4-2-.5 0-1 .1-1.2.5-.3.4-.4 1-.4 1.6v6.2H165V17.6h3.3zM183.6 32.7l-1.4-.1V30h1.2c.6 0 1 0 1.3-.3.4-.2.6-.5.7-1l.2-.5-4-10.7h3.6l1.9 6.6.2 1.2.3-1.2 1.8-6.6h3.4L189 29a5.8 5.8 0 0 1-2 3c-.8.5-2 .8-3.4.8z"/><path fill="currentColor" fill-rule="evenodd" d="M25.4 15v25c3-2.2 7-4.4 11-6.2 4-1.7 8.1-3 11.5-3v-6.6l-.4 1a6.8 6.8 0 0 1-2.8 2.7c-1.2.7-2.5 1-4.1 1h-6.7V13.3h6.7c1.6 0 3 .3 4.1 1a6.6 6.6 0 0 1 3.2 3.6V5.2c-7 .4-17.5 5.6-22.5 9.8zm-3 0C17.5 10.8 7 5.6 0 5.2v25.5c7 .4 16.8 5.1 22.5 9.3V15zm-1.9-3.8C17.2 6.3 10.8.6 5.1 0v4.1c5.2 1.4 11 4.2 15.4 7zm6.8 0a55.4 55.4 0 0 1 15.5-7V0c-5.7.6-12.2 6.3-15.5 11.2zM43 24.3c-.6 1-1.5 1.4-2.5 1.4h-2v-9.1h2c1.1 0 2 .4 2.5 1.2.6.8.9 1.9.9 3.2 0 1.3-.3 2.4-1 3.3z" clip-rule="evenodd"/></svg>