<svg xmlns="http://www.w3.org/2000/svg" viewBox="0 0 2030 1213" preserveAspectRatio="xMinYMin meet"><path d="M1078.3 944.2c74.4 0 134.7-60.3 134.7-134.7s-60.3-134.7-134.7-134.7c-74.4 0-134.7 60.3-134.7 134.7s60.3 134.7 134.7 134.7zM.4 136.2c74.4 0 134.7-60.3 134.7-134.7S74.8-133.1.4-133.1-134.4-72.9-134.4 1.5-74 136.2.4 136.2zM.4 674.9c74.4 0 134.7-60.3 134.7-134.7S74.8 405.5.4 405.5s-134.7 60.3-134.7 134.7S-74 674.9.4 674.9zM.4 944.2c74.4 0 134.7-60.3 134.7-134.7S74.8 674.9.4 674.9s-134.7 60.3-134.7 134.7S-74 944.2.4 944.2zM539.3 944.2c74.4 0 134.7-60.3 134.7-134.7s-60.3-134.7-134.7-134.7c-74.4 0-134.7 60.3-134.7 134.7s60.3 134.7 134.7 134.7zM741.4 809.5c37.2 0 67.4-30.1 67.4-67.3 0-37.2-30.2-67.3-67.4-67.3S674 705 674 742.2c.1 37.2 30.2 67.3 67.4 67.3zM876.2 944.2c37.2 0 67.4-30.1 67.4-67.3s-30.2-67.3-67.4-67.3-67.4 30.1-67.4 67.3 30.2 67.3 67.4 67.3zM741.4 674.9c37.2 0 67.4-30.1 67.4-67.3s-30.2-67.3-67.4-67.3-67.4 30.1-67.4 67.3 30.2 67.3 67.4 67.3zM876.2 270.9c37.2 0 67.4-30.1 67.4-67.3s-30.2-67.3-67.4-67.3-67.4 30.1-67.4 67.3 30.2 67.3 67.4 67.3zM876.2 405.5c37.2 0 67.4-30.1 67.4-67.3s-30.2-67.3-67.4-67.3-67.4 30.1-67.4 67.3 30.2 67.3 67.4 67.3zM606.7 136.2c37.2 0 67.4-30.1 67.4-67.3 0-37.2-30.2-67.3-67.4-67.3s-67.4 30.1-67.4 67.3c0 37.1 30.2 67.3 67.4 67.3zM67.7 405.5c37.2 0 67.4-30.1 67.4-67.3s-30.2-67.3-67.4-67.3S.3 301 .3 338.2s30.2 67.3 67.4 67.3zM202.5 270.9c37.2 0 67.4-30.1 67.4-67.3s-30.2-67.3-67.4-67.3-67.4 30.1-67.4 67.3 30.2 67.3 67.4 67.3z"/><path d="M337.2 270.9c37.2 0 67.4-30.1 67.4-67.3s-30.2-67.3-67.4-67.3-67.4 30.1-67.4 67.3 30.2 67.3 67.4 67.3zM202.5 405.5c37.2 0 67.4-30.1 67.4-67.3s-30.2-67.3-67.4-67.3-67.4 30.1-67.4 67.3 30.2 67.3 67.4 67.3z"/><path d="M337.2 405.5c37.2 0 67.4-30.1 67.4-67.3s-30.2-67.3-67.4-67.3-67.4 30.1-67.4 67.3 30.2 67.3 67.4 67.3zM606.7 540.2c37.2 0 67.4-30.1 67.4-67.3s-30.2-67.3-67.4-67.3-67.4 30.1-67.4 67.3 30.2 67.3 67.4 67.3zM472 674.9c37.2 0 67.4-30.1 67.4-67.3s-30.2-67.3-67.4-67.3-67.4 30.1-67.4 67.3 30.2 67.3 67.4 67.3z"/><path d="M606.7 674.9c37.2 0 67.4-30.1 67.4-67.3s-30.2-67.3-67.4-67.3-67.4 30.1-67.4 67.3 30.2 67.3 67.4 67.3zM1010.9 270.9c37.2 0 67.4-30.1 67.4-67.3s-30.2-67.3-67.4-67.3-67.4 30.1-67.4 67.3 30.2 67.3 67.4 67.3z"/><path d="M1145.6 270.9c37.2 0 67.4-30.1 67.4-67.3s-30.2-67.3-67.4-67.3-67.4 30.1-67.4 67.3 30.2 67.3 67.4 67.3zM1010.9 405.5c37.2 0 67.4-30.1 67.4-67.3s-30.2-67.3-67.4-67.3-67.4 30.1-67.4 67.3 30.2 67.3 67.4 67.3z"/><path d="M1145.6 405.5c37.2 0 67.4-30.1 67.4-67.3s-30.2-67.3-67.4-67.3-67.4 30.1-67.4 67.3 30.2 67.3 67.4 67.3zM741.4 136.2c37.2 0 67.4-30.1 67.4-67.3 0-37.2-30.2-67.3-67.4-67.3S674 31.7 674 68.9c.1 37.1 30.2 67.3 67.4 67.3zM876.2 136.2c37.2 0 67.4-30.1 67.4-67.3 0-37.2-30.2-67.3-67.4-67.3s-67.4 30.1-67.4 67.3c0 37.1 30.2 67.3 67.4 67.3zM438.3 136.2c18.6 0 33.7-15.1 33.7-33.7s-15.1-33.7-33.7-33.7-33.7 15.1-33.7 33.7 15.1 33.7 33.7 33.7zM472 270.9c37.2 0 67.4-30.1 67.4-67.3s-30.2-67.3-67.4-67.3-67.4 30.1-67.4 67.3 30.2 67.3 67.4 67.3zM472 405.5c37.2 0 67.4-30.1 67.4-67.3s-30.2-67.3-67.4-67.3-67.4 30.1-67.4 67.3 30.2 67.3 67.4 67.3zM.4 1213.5c74.4 0 134.7-60.3 134.7-134.7S74.8 944.2.4 944.2s-134.7 60.3-134.7 134.7S-74 1213.5.4 1213.5zM269.9 1213.5c74.4 0 134.7-60.3 134.7-134.7s-60.3-134.7-134.7-134.7c-74.4 0-134.7 60.3-134.7 134.7s60.2 134.7 134.7 134.7zM808.8 1213.5c74.4 0 134.7-60.3 134.7-134.7s-60.3-134.7-134.7-134.7c-74.4 0-134.7 60.3-134.7 134.7s60.3 134.7 134.7 134.7zM1078.3 1213.5c74.4 0 134.7-60.3 134.7-134.7s-60.3-134.7-134.7-134.7c-74.4 0-134.7 60.3-134.7 134.7s60.3 134.7 134.7 134.7zM1617.2 1213.5c74.4 0 134.7-60.3 134.7-134.7s-60.3-134.7-134.7-134.7c-74.4 0-134.7 60.3-134.7 134.7s60.3 134.7 134.7 134.7zM1347.8 674.9c74.4 0 134.7-60.3 134.7-134.7s-60.3-134.7-134.7-134.7S1213 465.8 1213 540.2s60.3 134.7 134.8 134.7zM1010.9 540.2c37.2 0 67.4-30.1 67.4-67.3s-30.2-67.3-67.4-67.3-67.4 30.1-67.4 67.3 30.2 67.3 67.4 67.3z"/><path d="M1145.6 540.2c37.2 0 67.4-30.1 67.4-67.3s-30.2-67.3-67.4-67.3-67.4 30.1-67.4 67.3 30.2 67.3 67.4 67.3zM1010.9 674.9c37.2 0 67.4-30.1 67.4-67.3s-30.2-67.3-67.4-67.3-67.4 30.1-67.4 67.3 30.2 67.3 67.4 67.3z"/><path d="M1145.6 674.9c37.2 0 67.4-30.1 67.4-67.3s-30.2-67.3-67.4-67.3-67.4 30.1-67.4 67.3 30.2 67.3 67.4 67.3zM909.9 472.9c18.6 0 33.7-15.1 33.7-33.7s-15.1-33.7-33.7-33.7-33.7 15.1-33.7 33.7 15 33.7 33.7 33.7z"/><path d="M909.9 540.2c18.6 0 33.7-15.1 33.7-33.7s-15.1-33.7-33.7-33.7-33.7 15.1-33.7 33.7 15 33.7 33.7 33.7zM775.1 472.9c18.6 0 33.7-15.1 33.7-33.7s-15.1-33.7-33.7-33.7-33.7 15.1-33.7 33.7 15.1 33.7 33.7 33.7zM707.7 540.2c18.6 0 33.7-15.1 33.7-33.7s-15.1-33.7-33.7-33.7-33.7 15.1-33.7 33.7c.1 18.6 15.1 33.7 33.7 33.7z"/><path d="M775.1 540.2c18.6 0 33.7-15.1 33.7-33.7s-15.1-33.7-33.7-33.7-33.7 15.1-33.7 33.7 15.1 33.7 33.7 33.7zM690.9 439.2c9.3 0 16.8-7.5 16.8-16.8s-7.5-16.8-16.8-16.8-16.8 7.5-16.8 16.8 7.5 16.8 16.8 16.8zM724.6 439.2c9.3 0 16.8-7.5 16.8-16.8s-7.5-16.8-16.8-16.8-16.8 7.5-16.8 16.8 7.5 16.8 16.8 16.8zM690.9 472.9c9.3 0 16.8-7.5 16.8-16.8s-7.5-16.8-16.8-16.8-16.8 7.5-16.8 16.8c0 9.2 7.5 16.8 16.8 16.8zM724.6 472.9c9.3 0 16.8-7.5 16.8-16.8s-7.5-16.8-16.8-16.8-16.8 7.5-16.8 16.8c-.1 9.2 7.5 16.8 16.8 16.8zM573 338.2c18.6 0 33.7-15.1 33.7-33.7s-15.1-33.7-33.7-33.7-33.7 15.1-33.7 33.7 15.1 33.7 33.7 33.7z"/><path d="M640.4 338.2c18.6 0 33.7-15.1 33.7-33.7s-15.1-33.7-33.7-33.7-33.7 15.1-33.7 33.7 15.1 33.7 33.7 33.7z"/><path d="M707.7 338.2c18.6 0 33.7-15.1 33.7-33.7s-15.1-33.7-33.7-33.7-33.7 15.1-33.7 33.7c.1 18.6 15.1 33.7 33.7 33.7z"/><path d="M707.7 405.5c18.6 0 33.7-15.1 33.7-33.7s-15.1-33.7-33.7-33.7-33.7 15.1-33.7 33.7c.1 18.6 15.1 33.7 33.7 33.7zM623.5 371.9c9.3 0 16.8-7.5 16.8-16.8s-7.5-16.8-16.8-16.8-16.8 7.5-16.8 16.8c0 9.2 7.5 16.8 16.8 16.8zM657.2 371.9c9.3 0 16.8-7.5 16.8-16.8s-7.5-16.8-16.8-16.8-16.8 7.5-16.8 16.8c0 9.2 7.5 16.8 16.8 16.8zM623.5 405.5c9.3 0 16.8-7.5 16.8-16.8s-7.5-16.8-16.8-16.8-16.8 7.5-16.8 16.8 7.5 16.8 16.8 16.8zM657.2 405.5c9.3 0 16.8-7.5 16.8-16.8s-7.5-16.8-16.8-16.8-16.8 7.5-16.8 16.8 7.5 16.8 16.8 16.8zM556.2 371.9c9.3 0 16.8-7.5 16.8-16.8s-7.5-16.8-16.8-16.8-16.8 7.5-16.8 16.8c-.1 9.2 7.5 16.8 16.8 16.8zM589.9 371.9c9.3 0 16.8-7.5 16.8-16.8s-7.5-16.8-16.8-16.8S573 345.7 573 355c0 9.3 7.6 16.9 16.9 16.9zM556.2 405.5c9.3 0 16.8-7.5 16.8-16.8s-7.5-16.8-16.8-16.8-16.8 7.5-16.8 16.8 7.5 16.8 16.8 16.8zM589.9 405.5c9.3 0 16.8-7.5 16.8-16.8s-7.5-16.8-16.8-16.8-16.8 7.5-16.8 16.8 7.5 16.8 16.8 16.8zM438.3 472.9c18.6 0 33.7-15.1 33.7-33.7s-15.1-33.7-33.7-33.7-33.7 15.1-33.7 33.7 15.1 33.7 33.7 33.7z"/><path d="M505.6 472.9c18.6 0 33.7-15.1 33.7-33.7s-15.1-33.7-33.7-33.7-33.7 15.1-33.7 33.7c.1 18.6 15.1 33.7 33.7 33.7zM438.3 540.2c18.6 0 33.7-15.1 33.7-33.7s-15.1-33.7-33.7-33.7-33.7 15.1-33.7 33.7 15.1 33.7 33.7 33.7z"/><path d="M505.6 540.2c18.6 0 33.7-15.1 33.7-33.7s-15.1-33.7-33.7-33.7-33.7 15.1-33.7 33.7c.1 18.6 15.1 33.7 33.7 33.7zM202.5 540.2c37.2 0 67.4-30.1 67.4-67.3s-30.2-67.3-67.4-67.3-67.4 30.1-67.4 67.3 30.2 67.3 67.4 67.3z"/><path d="M337.2 540.2c37.2 0 67.4-30.1 67.4-67.3s-30.2-67.3-67.4-67.3-67.4 30.1-67.4 67.3 30.2 67.3 67.4 67.3zM202.5 674.9c37.2 0 67.4-30.1 67.4-67.3s-30.2-67.3-67.4-67.3-67.4 30.1-67.4 67.3 30.2 67.3 67.4 67.3z"/><path d="M337.2 674.9c37.2 0 67.4-30.1 67.4-67.3s-30.2-67.3-67.4-67.3-67.4 30.1-67.4 67.3 30.2 67.3 67.4 67.3zM202.5 809.5c37.2 0 67.4-30.1 67.4-67.3 0-37.2-30.2-67.3-67.4-67.3s-67.4 30.1-67.4 67.3c0 37.2 30.2 67.3 67.4 67.3z"/><path d="M337.2 809.5c37.2 0 67.4-30.1 67.4-67.3 0-37.2-30.2-67.3-67.4-67.3s-67.4 30.1-67.4 67.3c.1 37.2 30.2 67.3 67.4 67.3zM202.5 944.2c37.2 0 67.4-30.1 67.4-67.3s-30.2-67.3-67.4-67.3-67.4 30.1-67.4 67.3 30.2 67.3 67.4 67.3z"/><path d="M337.2 944.2c37.2 0 67.4-30.1 67.4-67.3s-30.2-67.3-67.4-67.3-67.4 30.1-67.4 67.3 30.2 67.3 67.4 67.3zM472 1078.8c37.2 0 67.4-30.2 67.4-67.3 0-37.2-30.2-67.3-67.4-67.3s-67.4 30.1-67.4 67.3c0 37.2 30.2 67.3 67.4 67.3z"/><path d="M606.7 1078.8c37.2 0 67.4-30.2 67.4-67.3 0-37.2-30.2-67.3-67.4-67.3s-67.4 30.1-67.4 67.3c0 37.2 30.2 67.3 67.4 67.3zM472 1213.5c37.2 0 67.4-30.2 67.4-67.3 0-37.2-30.2-67.3-67.4-67.3s-67.4 30.2-67.4 67.3c0 37.2 30.2 67.3 67.4 67.3z"/><path d="M606.7 1213.5c37.2 0 67.4-30.2 67.4-67.3 0-37.2-30.2-67.3-67.4-67.3s-67.4 30.2-67.4 67.3c0 37.2 30.2 67.3 67.4 67.3zM707.7 876.9c18.6 0 33.7-15.1 33.7-33.7s-15.1-33.7-33.7-33.7-33.7 15.1-33.7 33.7c.1 18.6 15.1 33.7 33.7 33.7z"/><path d="M775.1 876.9c18.6 0 33.7-15.1 33.7-33.7s-15.1-33.7-33.7-33.7-33.7 15.1-33.7 33.7 15.1 33.7 33.7 33.7zM707.7 944.2c18.6 0 33.7-15.1 33.7-33.7s-15.1-33.7-33.7-33.7-33.7 15.1-33.7 33.7c.1 18.6 15.1 33.7 33.7 33.7z"/><path d="M775.1 944.2c18.6 0 33.7-15.1 33.7-33.7s-15.1-33.7-33.7-33.7-33.7 15.1-33.7 33.7 15.1 33.7 33.7 33.7zM842.5 742.2c18.6 0 33.7-15.1 33.7-33.7s-15.1-33.7-33.7-33.7-33.7 15.1-33.7 33.7 15.1 33.7 33.7 33.7z"/><path d="M909.9 742.2c18.6 0 33.7-15.1 33.7-33.7s-15.1-33.7-33.7-33.7-33.7 15.1-33.7 33.7 15 33.7 33.7 33.7zM842.5 809.5c18.6 0 33.7-15.1 33.7-33.7s-15.1-33.7-33.7-33.7-33.7 15.1-33.7 33.7 15.1 33.7 33.7 33.7z"/><path d="M909.9 809.5c18.6 0 33.7-15.1 33.7-33.7s-15.1-33.7-33.7-33.7-33.7 15.1-33.7 33.7 15 33.7 33.7 33.7zM842.5 607.5c18.6 0 33.7-15.1 33.7-33.7s-15.1-33.7-33.7-33.7-33.7 15.1-33.7 33.7 15.1 33.7 33.7 33.7z"/><path d="M909.9 607.5c18.6 0 33.7-15.1 33.7-33.7s-15.1-33.7-33.7-33.7-33.7 15.1-33.7 33.7 15 33.7 33.7 33.7zM842.5 674.9c18.6 0 33.7-15.1 33.7-33.7s-15.1-33.7-33.7-33.7-33.7 15.1-33.7 33.7 15.1 33.7 33.7 33.7z"/><path d="M909.9 674.9c18.6 0 33.7-15.1 33.7-33.7s-15.1-33.7-33.7-33.7-33.7 15.1-33.7 33.7 15 33.7 33.7 33.7zM825.6 506.5c9.3 0 16.8-7.5 16.8-16.8s-7.5-16.8-16.8-16.8-16.8 7.5-16.8 16.8 7.5 16.8 16.8 16.8zM859.3 506.5c9.3 0 16.8-7.5 16.8-16.8s-7.5-16.8-16.8-16.8-16.8 7.5-16.8 16.8 7.5 16.8 16.8 16.8zM825.6 540.2c9.3 0 16.8-7.5 16.8-16.8s-7.5-16.8-16.8-16.8-16.8 7.5-16.8 16.8 7.5 16.8 16.8 16.8zM859.3 540.2c9.3 0 16.8-7.5 16.8-16.8s-7.5-16.8-16.8-16.8-16.8 7.5-16.8 16.8 7.5 16.8 16.8 16.8zM825.6 439.2c9.3 0 16.8-7.5 16.8-16.8s-7.5-16.8-16.8-16.8-16.8 7.5-16.8 16.8 7.5 16.8 16.8 16.8zM859.3 439.2c9.3 0 16.8-7.5 16.8-16.8s-7.5-16.8-16.8-16.8-16.8 7.5-16.8 16.8 7.5 16.8 16.8 16.8zM825.6 472.9c9.3 0 16.8-7.5 16.8-16.8s-7.5-16.8-16.8-16.8-16.8 7.5-16.8 16.8c0 9.2 7.5 16.8 16.8 16.8zM859.3 472.9c9.3 0 16.8-7.5 16.8-16.8s-7.5-16.8-16.8-16.8-16.8 7.5-16.8 16.8c0 9.2 7.5 16.8 16.8 16.8zM758.3 371.9c9.3 0 16.8-7.5 16.8-16.8s-7.5-16.8-16.8-16.8-16.8 7.5-16.8 16.8c-.1 9.2 7.5 16.8 16.8 16.8zM792 371.9c9.3 0 16.8-7.5 16.8-16.8s-7.5-16.8-16.8-16.8-16.8 7.5-16.8 16.8c-.1 9.2 7.5 16.8 16.8 16.8zM758.3 405.5c9.3 0 16.8-7.5 16.8-16.8s-7.5-16.8-16.8-16.8-16.8 7.5-16.8 16.8 7.5 16.8 16.8 16.8zM792 405.5c9.3 0 16.8-7.5 16.8-16.8s-7.5-16.8-16.8-16.8-16.8 7.5-16.8 16.8 7.5 16.8 16.8 16.8zM758.3 304.5c9.3 0 16.8-7.5 16.8-16.8s-7.5-16.8-16.8-16.8-16.8 7.5-16.8 16.8 7.5 16.8 16.8 16.8zM792 304.5c9.3 0 16.8-7.5 16.8-16.8s-7.5-16.8-16.8-16.8-16.8 7.5-16.8 16.8 7.5 16.8 16.8 16.8zM758.3 338.2c9.3 0 16.8-7.5 16.8-16.8s-7.5-16.8-16.8-16.8-16.8 7.5-16.8 16.8c-.1 9.2 7.5 16.8 16.8 16.8zM792 338.2c9.3 0 16.8-7.5 16.8-16.8s-7.5-16.8-16.8-16.8-16.8 7.5-16.8 16.8c-.1 9.2 7.5 16.8 16.8 16.8zM707.7 203.5c18.6 0 33.7-15.1 33.7-33.7s-15.1-33.7-33.7-33.7-33.7 15.1-33.7 33.7c.1 18.6 15.1 33.7 33.7 33.7z"/><path d="M775.1 203.5c18.6 0 33.7-15.1 33.7-33.7s-15.1-33.7-33.7-33.7-33.7 15.1-33.7 33.7 15.1 33.7 33.7 33.7zM707.7 270.9c18.6 0 33.7-15.1 33.7-33.7s-15.1-33.7-33.7-33.7-33.7 15.1-33.7 33.7c.1 18.6 15.1 33.7 33.7 33.7z"/><path d="M775.1 270.9c18.6 0 33.7-15.1 33.7-33.7s-15.1-33.7-33.7-33.7-33.7 15.1-33.7 33.7 15.1 33.7 33.7 33.7zM1246.7 203.5c18.6 0 33.7-15.1 33.7-33.7s-15.1-33.7-33.7-33.7-33.7 15.1-33.7 33.7 15.1 33.7 33.7 33.7z"/><path d="M1314.1 203.5c18.6 0 33.7-15.1 33.7-33.7s-15.1-33.7-33.7-33.7-33.7 15.1-33.7 33.7 15.1 33.7 33.7 33.7zM1246.7 270.9c18.6 0 33.7-15.1 33.7-33.7s-15.1-33.7-33.7-33.7-33.7 15.1-33.7 33.7 15.1 33.7 33.7 33.7z"/><path d="M1314.1 270.9c18.6 0 33.7-15.1 33.7-33.7s-15.1-33.7-33.7-33.7-33.7 15.1-33.7 33.7 15.1 33.7 33.7 33.7zM573 203.5c18.6 0 33.7-15.1 33.7-33.7s-15.1-33.7-33.7-33.7-33.7 15.1-33.7 33.7 15.1 33.7 33.7 33.7z"/><path d="M640.4 203.5c18.6 0 33.7-15.1 33.7-33.7s-15.1-33.7-33.7-33.7-33.7 15.1-33.7 33.7 15.1 33.7 33.7 33.7zM573 270.9c18.6 0 33.7-15.1 33.7-33.7s-15.1-33.7-33.7-33.7-33.7 15.1-33.7 33.7 15.1 33.7 33.7 33.7z"/><path d="M640.4 270.9c18.6 0 33.7-15.1 33.7-33.7s-15.1-33.7-33.7-33.7-33.7 15.1-33.7 33.7 15.1 33.7 33.7 33.7zM421.4 35.2c9.3 0 16.8-7.5 16.8-16.8s-7.5-16.8-16.8-16.8-16.8 7.5-16.8 16.8 7.5 16.8 16.8 16.8zM455.1 35.2c9.3 0 16.8-7.5 16.8-16.8s-7.5-16.8-16.8-16.8-16.8 7.5-16.8 16.8 7.5 16.8 16.8 16.8zM421.4 68.9c9.3 0 16.8-7.5 16.8-16.8s-7.5-16.8-16.8-16.8-16.8 7.5-16.8 16.8c0 9.2 7.5 16.8 16.8 16.8zM455.1 68.9c9.3 0 16.8-7.5 16.8-16.8s-7.5-16.8-16.8-16.8-16.8 7.5-16.8 16.8c0 9.2 7.5 16.8 16.8 16.8zM303.5 68.9c18.6 0 33.7-15.1 33.7-33.7S322.1 1.5 303.5 1.5s-33.7 15.1-33.7 33.7c.1 18.6 15.1 33.7 33.7 33.7zM370.9 68.9c18.6 0 33.7-15.1 33.7-33.7S389.5 1.5 370.9 1.5s-33.7 15.1-33.7 33.7 15.1 33.7 33.7 33.7z"/><path d="M303.5 136.2c18.6 0 33.7-15.1 33.7-33.7s-15.1-33.7-33.7-33.7-33.7 15.1-33.7 33.7c.1 18.6 15.1 33.7 33.7 33.7zM370.9 136.2c18.6 0 33.7-15.1 33.7-33.7s-15.1-33.7-33.7-33.7-33.7 15.1-33.7 33.7 15.1 33.7 33.7 33.7zM168.8 68.9c18.6 0 33.7-15.1 33.7-33.7S187.4 1.5 168.8 1.5s-33.7 15.1-33.7 33.7 15.1 33.7 33.7 33.7zM236.2 68.9c18.6 0 33.7-15.1 33.7-33.7S254.8 1.5 236.2 1.5s-33.7 15.1-33.7 33.7 15.1 33.7 33.7 33.7z"/><path d="M168.8 136.2c18.6 0 33.7-15.1 33.7-33.7s-15.1-33.7-33.7-33.7-33.7 15.1-33.7 33.7 15.1 33.7 33.7 33.7zM236.2 136.2c18.6 0 33.7-15.1 33.7-33.7s-15.1-33.7-33.7-33.7-33.7 15.1-33.7 33.7 15.1 33.7 33.7 33.7zM505.6 136.2c18.6 0 33.7-15.1 33.7-33.7s-15.1-33.7-33.7-33.7-33.7 15.1-33.7 33.7c.1 18.6 15.1 33.7 33.7 33.7z"/><path d="M505.6 68.9c18.6 0 33.7-15.1 33.7-33.7S524.2 1.5 505.6 1.5 472 16.6 472 35.2s15 33.7 33.6 33.7zM34.1 203.5c18.6 0 33.7-15.1 33.7-33.7s-15.1-33.7-33.7-33.7S.4 151.2.4 169.8s15.1 33.7 33.7 33.7z"/><path d="M101.4 203.5c18.6 0 33.7-15.1 33.7-33.7s-15.1-33.7-33.7-33.7-33.7 15.1-33.7 33.7 15.1 33.7 33.7 33.7zM34.1 270.9c18.6 0 33.7-15.1 33.7-33.7s-15.1-33.7-33.7-33.7S.4 218.6.4 237.2s15.1 33.7 33.7 33.7z"/><path d="M101.4 270.9c18.6 0 33.7-15.1 33.7-33.7s-15.1-33.7-33.7-33.7-33.7 15.1-33.7 33.7 15.1 33.7 33.7 33.7zM1280.4 1078.8c37.2 0 67.4-30.2 67.4-67.3 0-37.2-30.2-67.3-67.4-67.3s-67.4 30.1-67.4 67.3c0 37.2 30.2 67.3 67.4 67.3z"/><path d="M1415.1 1078.8c37.2 0 67.4-30.2 67.4-67.3 0-37.2-30.2-67.3-67.4-67.3s-67.4 30.1-67.4 67.3c.1 37.2 30.2 67.3 67.4 67.3zM1280.4 1213.5c37.2 0 67.4-30.2 67.4-67.3 0-37.2-30.2-67.3-67.4-67.3s-67.4 30.2-67.4 67.3c0 37.2 30.2 67.3 67.4 67.3z"/><path d="M1415.1 1213.5c37.2 0 67.4-30.2 67.4-67.3 0-37.2-30.2-67.3-67.4-67.3s-67.4 30.2-67.4 67.3c.1 37.2 30.2 67.3 67.4 67.3zM1549.9 270.9c37.2 0 67.4-30.1 67.4-67.3s-30.2-67.3-67.4-67.3-67.4 30.1-67.4 67.3 30.2 67.3 67.4 67.3z"/><path d="M1684.6 270.9c37.2 0 67.4-30.1 67.4-67.3s-30.2-67.3-67.4-67.3-67.4 30.1-67.4 67.3 30.2 67.3 67.4 67.3zM1549.9 405.5c37.2 0 67.4-30.1 67.4-67.3s-30.2-67.3-67.4-67.3-67.4 30.1-67.4 67.3 30.2 67.3 67.4 67.3z"/><path d="M1684.6 405.5c37.2 0 67.4-30.1 67.4-67.3s-30.2-67.3-67.4-67.3-67.4 30.1-67.4 67.3 30.2 67.3 67.4 67.3zM1415.1 270.9c37.2 0 67.4-30.1 67.4-67.3s-30.2-67.3-67.4-67.3-67.4 30.1-67.4 67.3 30.2 67.3 67.4 67.3zM1280.4 405.5c37.2 0 67.4-30.1 67.4-67.3s-30.2-67.3-67.4-67.3-67.4 30.1-67.4 67.3 30.2 67.3 67.4 67.3z"/><path d="M1415.1 405.5c37.2 0 67.4-30.1 67.4-67.3s-30.2-67.3-67.4-67.3-67.4 30.1-67.4 67.3 30.2 67.3 67.4 67.3zM1280.4 136.2c37.2 0 67.4-30.1 67.4-67.3 0-37.2-30.2-67.3-67.4-67.3S1213 31.7 1213 68.9c0 37.1 30.2 67.3 67.4 67.3z"/><path d="M1415.1 136.2c37.2 0 67.4-30.1 67.4-67.3 0-37.2-30.2-67.3-67.4-67.3s-67.4 30.1-67.4 67.3c.1 37.1 30.2 67.3 67.4 67.3zM1010.9 136.2c37.2 0 67.4-30.1 67.4-67.3 0-37.2-30.2-67.3-67.4-67.3s-67.4 30.1-67.4 67.3c0 37.1 30.2 67.3 67.4 67.3z"/><path d="M1145.6 136.2c37.2 0 67.4-30.1 67.4-67.3 0-37.2-30.2-67.3-67.4-67.3s-67.4 30.1-67.4 67.3c.1 37.1 30.2 67.3 67.4 67.3zM1549.9 136.2c37.2 0 67.4-30.1 67.4-67.3 0-37.2-30.2-67.3-67.4-67.3s-67.4 30.1-67.4 67.3c0 37.1 30.2 67.3 67.4 67.3z"/><path d="M1684.6 136.2c37.2 0 67.4-30.1 67.4-67.3 0-37.2-30.2-67.3-67.4-67.3s-67.4 30.1-67.4 67.3c0 37.1 30.2 67.3 67.4 67.3zM1549.9 540.2c37.2 0 67.4-30.1 67.4-67.3s-30.2-67.3-67.4-67.3-67.4 30.1-67.4 67.3 30.2 67.3 67.4 67.3z"/><path d="M1684.6 540.2c37.2 0 67.4-30.1 67.4-67.3s-30.2-67.3-67.4-67.3-67.4 30.1-67.4 67.3 30.2 67.3 67.4 67.3zM1549.9 674.9c37.2 0 67.4-30.1 67.4-67.3s-30.2-67.3-67.4-67.3-67.4 30.1-67.4 67.3 30.2 67.3 67.4 67.3z"/><path d="M1684.6 674.9c37.2 0 67.4-30.1 67.4-67.3s-30.2-67.3-67.4-67.3-67.4 30.1-67.4 67.3 30.2 67.3 67.4 67.3zM1549.9 809.5c37.2 0 67.4-30.1 67.4-67.3 0-37.2-30.2-67.3-67.4-67.3s-67.4 30.1-67.4 67.3c0 37.2 30.2 67.3 67.4 67.3z"/><path d="M1684.6 809.5c37.2 0 67.4-30.1 67.4-67.3 0-37.2-30.2-67.3-67.4-67.3s-67.4 30.1-67.4 67.3c0 37.2 30.2 67.3 67.4 67.3zM1280.4 809.5c37.2 0 67.4-30.1 67.4-67.3 0-37.2-30.2-67.3-67.4-67.3S1213 705 1213 742.2c0 37.2 30.2 67.3 67.4 67.3z"/><path d="M1415.1 809.5c37.2 0 67.4-30.1 67.4-67.3 0-37.2-30.2-67.3-67.4-67.3s-67.4 30.1-67.4 67.3c.1 37.2 30.2 67.3 67.4 67.3zM1280.4 944.2c37.2 0 67.4-30.1 67.4-67.3s-30.2-67.3-67.4-67.3-67.4 30.1-67.4 67.3 30.2 67.3 67.4 67.3zM1381.4 876.9c18.6 0 33.7-15.1 33.7-33.7s-15.1-33.7-33.7-33.7-33.7 15.1-33.7 33.7c.1 18.6 15.1 33.7 33.7 33.7z"/><path d="M1448.8 876.9c18.6 0 33.7-15.1 33.7-33.7s-15.1-33.7-33.7-33.7-33.7 15.1-33.7 33.7 15.1 33.7 33.7 33.7zM1381.4 944.2c18.6 0 33.7-15.1 33.7-33.7s-15.1-33.7-33.7-33.7-33.7 15.1-33.7 33.7c.1 18.6 15.1 33.7 33.7 33.7z"/><path d="M1448.8 944.2c18.6 0 33.7-15.1 33.7-33.7s-15.1-33.7-33.7-33.7-33.7 15.1-33.7 33.7 15.1 33.7 33.7 33.7zM1516.2 876.9c18.6 0 33.7-15.1 33.7-33.7s-15.1-33.7-33.7-33.7-33.7 15.1-33.7 33.7 15.1 33.7 33.7 33.7z"/><path d="M1583.5 876.9c18.6 0 33.7-15.1 33.7-33.7s-15.1-33.7-33.7-33.7-33.7 15.1-33.7 33.7c.1 18.6 15.1 33.7 33.7 33.7zM1516.2 944.2c18.6 0 33.7-15.1 33.7-33.7s-15.1-33.7-33.7-33.7-33.7 15.1-33.7 33.7 15.1 33.7 33.7 33.7z"/><path d="M1583.5 944.2c18.6 0 33.7-15.1 33.7-33.7s-15.1-33.7-33.7-33.7-33.7 15.1-33.7 33.7c.1 18.6 15.1 33.7 33.7 33.7zM1650.9 876.9c18.6 0 33.7-15.1 33.7-33.7s-15.1-33.7-33.7-33.7-33.7 15.1-33.7 33.7 15.1 33.7 33.7 33.7z"/><path d="M1718.3 876.9c18.6 0 33.7-15.1 33.7-33.7s-15.1-33.7-33.7-33.7-33.7 15.1-33.7 33.7 15.1 33.7 33.7 33.7zM1650.9 944.2c18.6 0 33.7-15.1 33.7-33.7s-15.1-33.7-33.7-33.7-33.7 15.1-33.7 33.7 15.1 33.7 33.7 33.7z"/><path d="M1718.3 944.2c18.6 0 33.7-15.1 33.7-33.7s-15.1-33.7-33.7-33.7-33.7 15.1-33.7 33.7 15.1 33.7 33.7 33.7zM1895.1 674.9c74.4 0 134.7-60.3 134.7-134.7s-60.3-134.7-134.7-134.7c-74.4 0-134.7 60.3-134.7 134.7s60.3 134.7 134.7 134.7zM1827.8 809.5c37.2 0 67.4-30.1 67.4-67.3 0-37.2-30.2-67.3-67.4-67.3s-67.4 30.1-67.4 67.3c0 37.2 30.2 67.3 67.4 67.3z"/><path d="M1962.5 809.5c37.2 0 67.4-30.1 67.4-67.3 0-37.2-30.2-67.3-67.4-67.3s-67.4 30.1-67.4 67.3c0 37.2 30.2 67.3 67.4 67.3zM1827.8 944.2c37.2 0 67.4-30.1 67.4-67.3s-30.2-67.3-67.4-67.3-67.4 30.1-67.4 67.3 30.2 67.3 67.4 67.3z"/><path d="M1962.5 944.2c37.2 0 67.4-30.1 67.4-67.3s-30.2-67.3-67.4-67.3-67.4 30.1-67.4 67.3 30.2 67.3 67.4 67.3zM1827.8 1078.8c37.2 0 67.4-30.2 67.4-67.3 0-37.2-30.2-67.3-67.4-67.3s-67.4 30.1-67.4 67.3c0 37.2 30.2 67.3 67.4 67.3z"/><path d="M1962.5 1078.8c37.2 0 67.4-30.2 67.4-67.3 0-37.2-30.2-67.3-67.4-67.3s-67.4 30.1-67.4 67.3c0 37.2 30.2 67.3 67.4 67.3zM1827.8 1213.5c37.2 0 67.4-30.2 67.4-67.3 0-37.2-30.2-67.3-67.4-67.3s-67.4 30.2-67.4 67.3c0 37.2 30.2 67.3 67.4 67.3z"/><path d="M1962.5 1213.5c37.2 0 67.4-30.2 67.4-67.3 0-37.2-30.2-67.3-67.4-67.3s-67.4 30.2-67.4 67.3c0 37.2 30.2 67.3 67.4 67.3zM2025.9 414.5c148.8 0 269.5-120.6 269.5-269.3 0-148.7-120.6-269.3-269.5-269.3S1756.4-3.6 1756.4 145.2c0 148.7 120.6 269.3 269.5 269.3z"/></svg>