<?xml version="1.0" encoding="utf-8"?>
<!-- Generator: Adobe Illustrator 23.0.1, SVG Export Plug-In . SVG Version: 6.00 Build 0)  -->
<svg version="1.1" id="Layer_1" xmlns="http://www.w3.org/2000/svg" xmlns:xlink="http://www.w3.org/1999/xlink" x="0px" y="0px"
	 viewBox="0 0 1248.2 900" style="enable-background:new 0 0 1248.2 900;" xml:space="preserve">
<style type="text/css">
	.st0{opacity:0.28;fill:url(#SVGID_1_);enable-background:new    ;}
	.st1{opacity:4.000000e-02;fill:url(#SVGID_2_);enable-background:new    ;}
	.st2{opacity:8.000000e-02;fill:url(#SVGID_3_);enable-background:new    ;}
	.st3{opacity:8.000000e-02;fill:url(#SVGID_4_);enable-background:new    ;}
</style>
<title>dark gray hex pattern, 16x9</title>
<g id="texture">
	
		<radialGradient id="SVGID_1_" cx="556.1136" cy="544.0224" r="1129.4674" gradientTransform="matrix(1 0 0 -1 0 845.04)" gradientUnits="userSpaceOnUse">
		<stop  offset="0" style="stop-color:#000000;stop-opacity:0"/>
		<stop  offset="1" style="stop-color:#000000"/>
	</radialGradient>
	<path class="st0" d="M1283.1,232.3l61,35.4v69.6l-61,35.4l-61-35.4v-69.6L1283.1,232.3z M1344.1-82.6l61,35.4v69.6l-61,35.4
		l-61-35.4v-69.6L1344.1-82.6z M916.9,22.3l61.1,35.4v69.6l-61.1,35.4l-61-35.4V57.7L916.9,22.3z M-303.9-187.6l61,35.4v69.6
		l-61,35.4l-61-35.4v-69.6L-303.9-187.6z M62.3-257.2l61-35.4l61,35.4v69.6l-61,35.4l-61-35.4l-61,35.4l-61-35.4v-69.6l61-35.4
		L62.3-257.2z M-181.8,22.4v-69.6l61-35.4l61,35.4v69.6l-61,35.4v69.6l-61,35.4l-61-35.4V57.7L-181.8,22.4z M367.6,127.3V57.7
		l61-35.4l61,35.4v69.6l-61.1,35.4v69.6l-61,35.4l-61-35.4v-69.6L367.6,127.3z M184.4,22.3v-69.6l61-35.4l61,35.4v69.6l-61,35.4
		v69.6l-61,35.4l-61-35.4l-61,35.4v69.6l-61,35.4v69.6l-61,35.4v69.6l-61,35.4l-61-35.4v-69.6l61-35.4v-69.6l61-35.4v-69.6l61-35.4
		V57.7l61-35.4l61,35.4L184.4,22.3z M1100-152.2l-61-35.4l-61,35.4l-61-35.4v-69.6l61-35.4l61,35.4l61-35.4l61,35.4v69.6l61,35.4
		v69.6l-61,35.4l-61-35.4V-152.2z M123.4,477.7l61-35.4l61,35.4l61-35.4l61,35.4v69.6l-61,35.4v69.6l-61.1,35.4l-61-35.4v-69.6
		l-61-35.4l-61,35.4l-61-35.4v-69.6l61-35.4L123.4,477.7z M1.4,967.2v-69.6l61-35.4v-69.6l61-35.4l61,35.4v69.6l-61,35.4v69.6
		l-61.1,35.4v69.6l-61,35.4l-61-35.4v-69.6L1.4,967.2z M-303.9,792.7l-61-35.4v-69.6l61-35.4v-69.6l61-35.4l61,35.4l61-35.4l61,35.4
		v69.6l-61,35.4v69.6l61,35.4v69.6l-61,35.4v69.6l-61,35.4l-61-35.4v-69.6l-61-35.4V792.7z M794.8,442.3l61.1,35.4v69.6l-61,35.4
		l-61-35.4l-61,35.4v69.6l61,35.4v69.6l-61,35.4v69.6l-61,35.4v69.6l-61,35.4l-61-35.4v-69.6l61-35.4v-69.6l61-35.4v-69.6l-61-35.4
		v-69.6l61-35.4v-69.6l-61-35.4v-69.6l-61-35.4v-69.6l61-35.4l61,35.4v69.6l61,35.4l61-35.4l61,35.4L794.8,442.3z M1038.9,232.3
		v-69.6l61.1-35.4l61,35.4v69.6l-61,35.4v69.6l61,35.4v69.6l-61,35.4v69.6l-61,35.4l-61-35.4v-69.6l61-35.4v-69.6l-61-35.4v-69.6
		L1038.9,232.3z M1100,897.6v69.6l-61,35.4l-61-35.4v-69.6l-61-35.4v-69.6l61-35.4l61,35.4l61-35.4l61,35.4l61-35.4v-69.6l-61-35.4
		v-69.6l61-35.4v-69.6l61-35.4l61,35.4l61-35.4l61,35.4l61-35.4l61,35.4v69.6l-61,35.4l-61-35.4l-61,35.4l-61-35.4l-61,35.4v69.6
		l61,35.4v69.6l-61,35.4v69.6l-61,35.4l-61-35.4L1100,897.6z M672.7-257.2l61.1-35.4l61,35.4v69.6l-61,35.4l-61-35.4l-61,35.4v69.6
		l61,35.4l61-35.4l61,35.4v69.6l-61,35.4l-61-35.4l-61,35.4l-61-35.4v-69.6l-61-35.4l-61,35.4l-61-35.4v-69.6l61-35.4v-69.6l61-35.4
		l61,35.4l61-35.4L672.7-257.2z"/>
	
		<linearGradient id="SVGID_2_" gradientUnits="userSpaceOnUse" x1="-138.6802" y1="311.0623" x2="1482.7717" y2="634.5695" gradientTransform="matrix(1 0 0 -1 0 845.04)">
		<stop  offset="0" style="stop-color:#FFFFFF;stop-opacity:0"/>
		<stop  offset="0.29" style="stop-color:#FFFFFF;stop-opacity:0.28"/>
		<stop  offset="0.96" style="stop-color:#FFFFFF;stop-opacity:0.96"/>
		<stop  offset="1" style="stop-color:#FFFFFF"/>
	</linearGradient>
	<path class="st1" d="M974.7,627.9l45.4,26.4V706l-45.4,26.4L929.4,706v-51.8L974.7,627.9z M1110.9,549.8l45.4,26.4V628l-45.4,26.4
		l-45.4-26.4v-51.8L1110.9,549.8z M66.2,783.1l45.4,26.4v51.8l-45.4,26.2l-45.4-26.4v-51.8L66.2,783.1z M520.9,471.8l45.4,26.4v51.8
		l-45.4,26.4l-45.4-26.4v-51.8L520.9,471.8z M-69.1-74.6l45.4,26.3V3.4l-45.4,26.4l-45.4-26.4v-51.8L-69.1-74.6z M-114.5,159.5
		l45.4,26.4v51.8l-45.4,26.4l-45.4-26.4v-51.8L-114.5,159.5z M294,81.5l-45.4,26.4l-45.4-26.4V29.7l45.4-26.4v-51.8L294-74.7
		l45.4,26.3V3.4l45.4,26.4v51.8l45.4,26.4v51.8L384.8,186l-45.4-26.4v-51.8L294,81.5z M67.1,107.9L21.7,81.5V29.7L67.1,3.4
		l45.4,26.4v51.8l45.4,26.4v51.8L112.4,186l-45.4-26.4L67.1,107.9z M657.1,237.6L611.7,264v51.8l45.4,26.4l45.4-26.4V264
		L657.1,237.6z M884,159.5l45.4,26.4l45.4-26.3l45.4,26.4l45.4-26.3l45.4,26.4v51.8l45.4,26.4l45.4-26.4V186l-45.4-26.5v-51.8
		l45.4-26.3l45.4,26.4v51.8l45.4,26.4v51.8l-45.4,26.4v51.8l-45.4,26.4V394l-45.4,26.4l-45.4-26.4v-51.8l-45.4-26.4l-45.4,26.4
		l-45.4-26.4v-51.8l-45.4-26.4L884,264.1v51.8l-45.4,26.4l-45.4-26.4l-45.4,26.4V394l45.4,26.4v51.8l45.4,26.4v51.8l-45.4,26.4v51.8
		l-45.4,26.4v51.8l-45.4,26.4l-45.4-26.4v-51.8l-45.4-26.8v-51.8l45.4-26.4l45.4,26.4l45.4-26.4V498l-45.4-26.4v-51.8l-45.4-26.4
		l-45.4,26.4l-45.4-26.4v-51.8l-45.4-26.4v-51.8l-45.4-26.4v-51.8l45.3-26l45.4,26.4l45.4-26.4l45.4,26.4l45.3-26.4v-51.8l45.4-26.3
		V29.7L702.4,3.4v-51.8l45.4-26.3l45.4,26.3V3.4l45.4,26.4L884,3.4l45.4,26.4v51.8L884,107.9L884,159.5z M838.6,185.9l-45.4-26.4
		l-45.4,26.4v51.8l45.4,26.4l45.4-26.4V185.9z M157.8,627.9l45.4,26.4V706l-45.4,26.4L112.4,706v-51.8l-45.4-26.4v-51.8l-45.4-26.4
		l-45.4,26.4l-45.4-26.4V498l-45.4-26.4v-51.8l-45.4-26.4v-51.8l45.4-26.4l45.4,26.4l45.4-26.4v-51.8l45.4-26.4l45.4,26.4v51.8
		l-45.4,26.4v51.8l-45.4,26.4v51.8L21.7,498l45.4-26.4v-51.8l45.4-26.4v-51.8l45.4-26.4l45.4,26.4l45.4-26.4v-51.8l45.4-26.4
		l45.4,26.4v51.8l45.4,26.4l45.4-26.4l45.4,26.4v51.8l-45.4,26.4v51.8L384.8,498l-45.4-26.4v-51.8L294,393.5l-45.4,26.4v51.8
		L203.2,498l-45.4-26.4L112.4,498v51.8l45.4,26.4V627.9z M1020.1,498.1v51.8l-45.4,26.4l-45.4-26.4v-51.8l45.4-26.4V420l45.4-26.4
		l45.4,26.4v51.8L1020.1,498.1z M1156.3,784l-45.4,26.3v51.8l-45.4,26.4l-45.4-26.4v-51.8l45.4-26.3v-51.8l45.4-26.4l45.4,26.4
		l45.4-26.4l45.4,26.4V784l-45.4,26.3L1156.3,784z M430.1,732.3l-45.4-26.4v-51.8l-45.4-26.4V576l45.4-26.4l45.4,26.4v51.8
		l45.4,26.4v51.8l45.4,26.4V784l-45.4,26.3L430.1,784L430.1,732.3z"/>
	
		<linearGradient id="SVGID_3_" gradientUnits="userSpaceOnUse" x1="-52.6876" y1="460.1989" x2="1218.089" y2="460.1989" gradientTransform="matrix(1 0 0 -1 0 845.04)">
		<stop  offset="0" style="stop-color:#FFFFFF;stop-opacity:0"/>
		<stop  offset="0.29" style="stop-color:#FFFFFF;stop-opacity:0.28"/>
		<stop  offset="0.96" style="stop-color:#FFFFFF;stop-opacity:0.96"/>
		<stop  offset="1" style="stop-color:#FFFFFF"/>
	</linearGradient>
	<path class="st2" d="M673.5,762l45.4,26.4v51.8l-45.4,26.4l-45.4-26.4v-51.8L673.5,762z M355.8,371.7l45.4,26.4v51.8l-45.4,26.3
		l-45.4-26.3V398L355.8,371.7z M265,59.4l45.4,26.3v51.8L265,163.8l-45.4-26.4V85.7L265,59.4z M401.2,137.5l45.4,26.4v51.8
		l-45.4,26.3l-45.4-26.3v-51.7L401.2,137.5z M-7.3,215.5l45.4,26.3v51.8l-45.4,26.3l-45.4-26.3v-51.8L-7.3,215.5z M265,215.5
		l45.4,26.3v51.8L265,319.9l-45.4-26.3v-51.8L265,215.5z M1127.3-18.6v-51.8l45.4-26.4l45.4,26.4v51.8l-45.4,26.4v51.8l-45.4,26.2
		v51.8l-45.4,26.4l-45.4-26.4l-45.4,26.4l-45.4-26.4V85.7l45.4-26.3l45.4,26.3l45.4-26.3V7.6L1127.3-18.6z M537.3,527.8l45.4,26.4
		v51.8l-45.4,26.4l-45.4-26.4v-51.8l-45.4-26.4V476l45.4-26.3l45.4,26.3L537.3,527.8z M401.2,710.2V762l-45.4,26.4L310.4,762v-51.8
		l45.4-26.4v-51.8l45.4-26.4l45.4,26.4v51.8L401.2,710.2z"/>
	
		<linearGradient id="SVGID_4_" gradientUnits="userSpaceOnUse" x1="145.8874" y1="260.1541" x2="1772.3099" y2="260.1541" gradientTransform="matrix(1 0 0 -1 0 845.04)">
		<stop  offset="0" style="stop-color:#FFFFFF;stop-opacity:0"/>
		<stop  offset="0.29" style="stop-color:#FFFFFF;stop-opacity:0.28"/>
		<stop  offset="0.96" style="stop-color:#FFFFFF;stop-opacity:0.96"/>
		<stop  offset="1" style="stop-color:#FFFFFF"/>
	</linearGradient>
	<path class="st3" d="M1017.2,68.5V2.3l58.1-33.7l58.1,33.7v66.2l-58.1,33.7L1017.2,68.5z M610.6,568v-66.2l58.1-33.7l58.1,33.7V568
		l-58.1,33.7L610.6,568z M494.4,967.7v-66.2l58.1-33.7l58.1,33.7v66.2l-58.1,33.7L494.4,967.7z M668.7,867.8v-66.2l58.1-33.7
		l58.1,33.7v66.2l-58.1,33.7L668.7,867.8z M145.9,767.9v-66.2L204,668l58.1,33.7v66.2L204,801.5L145.9,767.9z M494.4,767.9v-66.2
		l58.1-33.7l58.1,33.7v66.2l-58.1,33.7L494.4,767.9z M1598,1067.6v-66.2l-58.1-33.7l-58.1,33.7l-58.1-33.7v-66.2l58.1-33.7
		l58.1,33.7l58.1-33.7l58.1,33.7v66.2l58.1,33.7v66.2l58.1,33.7v66.2l-58.1,33.7l-58.1-33.7v-66.2L1598,1067.6z M901,468.1
		l-58.1,33.7l-58.1-33.7v-66.2l58.1-33.7V302l58.1-33.7l58.1,33.7v66.2L901,401.9V468.1z M784.8,202.1v66.3L726.7,302l-58-33.7
		v-66.3l-58.1-33.7v-66.2l58.1-33.7l58.1,33.7v66.2L784.8,202.1z"/>
</g>
</svg>
