<svg xmlns="http://www.w3.org/2000/svg" width="2043" height="1567" fill="none" viewBox="0 0 2043 1567"><g clip-path="url(#clip0)"><path fill="#000" d="M2178.9 469.6l-136.4 78.8V390.9l136.4 78.7zM2042.2 548l-136.4 78.8V469.3l136.4 78.7z" opacity=".1"/><path fill="#000" d="M2042.2 391.3L1905.8 470V312.5l136.4 78.8zM2178.9 783.2l-136.4 78.7V704.4l136.4 78.8zM2042.2 861.6l-136.4 78.7V782.8l136.4 78.8z" opacity=".1"/><path fill="#000" d="M2042.2 704.8l-136.4 78.8V626l136.4 78.8zM2178.9 1096.7l-136.4 78.8V1018l136.4 78.7zM2042.2 1175.1l-136.4 78.8v-157.6l136.4 78.8z" opacity=".1"/><path fill="#000" d="M2042.2 1018.3l-136.4 78.8V939.6l136.4 78.7zM2178.9 1410.3l-136.4 78.7v-157.5l136.4 78.8zM2178.9 626.4l-136.4 78.8V547.6l136.4 78.8zM2178.9 940l-136.4 78.7V861.2l136.4 78.8z" opacity=".1"/><path fill="#000" d="M2178.9 1253.5l-136.4 78.8v-157.6l136.4 78.8zM2178.9 1567l-136.4 78.8v-157.5l136.4 78.7zM2042.2 1488.7l-136.4 78.7V1410l136.4 78.8z" opacity=".1"/><path fill="#000" d="M2042.2 1645.4l-136.4 78.8v-157.5l136.4 78.7zM2042.2 1331.9l-136.4 78.7v-157.5l136.4 78.8zM1906 626.4l-136.4 78.8V547.6l136.4 78.8z" opacity=".1"/><path fill="#000" d="M1906 469.6l-136.4 78.8V390.9l136.4 78.7z" opacity=".3"/><path fill="#000" d="M1770.8 704.8l-136.4 78.8V626l136.4 78.8z" opacity=".1"/><path fill="#000" d="M1770.8 548l-136.4 78.8V469.3l136.4 78.7z" opacity=".1"/><path fill="#fff" d="M1906 312.9l-136.4 78.7V234.1L1906 313z" opacity=".1"/><path fill="#000" d="M2178.9 312.9l-136.4 78.7V234.1l136.4 78.8zM2042.2 234.5l-136.4 78.8V155.7l136.4 78.8z" opacity=".1"/><path fill="#000" d="M1906 156.1l-136.4 78.8V77.3l136.4 78.8zM2178.9 156.1l-136.4 78.8V77.3l136.4 78.8z" opacity=".1"/><path fill="#000" d="M2042.2 77.7l-136.4 78.8V-1l136.4 78.7z" opacity=".1"/><path fill="#000" d="M1906-.7l-136.4 78.8V-79.4L1906-.7zM1770.8 391.3L1634.4 470V312.5l136.4 78.8z" opacity=".1"/><path fill="#000" d="M1770.8 234.5l-136.4 78.7V155.7l136.4 78.8zM1906 1253.5l-136.4 78.8v-157.6l136.4 78.8z" opacity=".1"/><path fill="#000" d="M1906 1096.7l-136.4 78.8V1018l136.4 78.7z" opacity=".3"/><path fill="#000" d="M1770.8 1331.9l-136.4 78.7v-157.5l136.4 78.8z" opacity=".1"/><path fill="#000" d="M1770.8 1175.1l-136.4 78.8v-157.6l136.4 78.8zM1906 940l-136.4 78.7V861.2L1906 940z" opacity=".1"/><path fill="#000" d="M1906 783.2l-136.4 78.7V704.4l136.4 78.8zM1770.8 1018.3l-136.4 78.8V939.6l136.4 78.7z" opacity=".1"/><path fill="#000" d="M1770.8 861.6l-136.4 78.7V782.8l136.4 78.8zM1906 1567l-136.4 78.8v-157.5L1906 1567z" opacity=".1"/><path fill="#000" d="M1906 1410.3l-136.4 78.7v-157.5l136.5 78.8zM1770.8 1645.4l-136.4 78.8v-157.5l136.4 78.7z" opacity=".1"/><path fill="#000" d="M1770.8 1488.7l-136.4 78.7V1410l136.4 78.8z" opacity=".1"/><path fill="#000" d="M1633.7 783.2l-136.5 78.7V704.4l136.5 78.8z" opacity=".3"/><path fill="#000" d="M1633.7 626.4l-136.5 78.8V547.6l136.5 78.8zM1498.4 861.6L1362 940.3V782.8l136.4 78.8z" opacity=".1"/><path fill="#000" d="M1498.4 704.8L1362 783.6V626l136.4 78.8zM1633.7 469.6l-136.5 78.8V390.9l136.5 78.7z" opacity=".1"/><path fill="#000" d="M1633.7 312.9l-136.5 78.7V234.1l136.5 78.8zM1498.4 548L1362 626.8V469.3l136.4 78.7z" opacity=".1"/><path fill="#000" d="M1498.4 391.3L1362 470V312.5l136.4 78.8zM1361.3 940l-136.5 78.7V861.2l136.5 78.8z" opacity=".1"/><path fill="#000" d="M1226 1018.3l-136.4 78.8V939.6l136.5 78.7z" opacity=".1"/><path fill="#000" d="M1226 861.6l-136.4 78.7V782.8l136.5 78.8z" opacity=".3"/><path fill="#000" d="M1361.3 626.4l-136.5 78.8V547.6l136.5 78.8z" opacity=".1"/><path fill="#000" d="M1226 704.8l-136.4 78.8V626l136.5 78.8z" opacity=".1"/><path fill="#000" d="M1226 548l-136.4 78.8V469.3l136.5 78.7zM1633.7 156.1l-136.5 78.8V77.3l136.5 78.8zM1770.8 77.7l-136.4 78.8V-1l136.4 78.7z" opacity=".1"/><path fill="#000" d="M1633.7-.7l-136.5 78.8V-79.4L1633.7-.7zM1633.7 1567l-136.5 78.8v-157.5l136.5 78.7z" opacity=".1"/><path fill="#000" d="M1633.7 1410.3l-136.5 78.7v-157.5l136.5 78.8z" opacity=".1"/><path fill="#000" d="M1633.7 1253.5l-136.5 78.8v-157.6l136.5 78.8z" opacity=".3"/><path fill="#000" d="M1633.7 1096.7l-136.5 78.8V1018l136.5 78.7z" opacity=".1"/><path fill="#000" fill-opacity=".5" d="M1633.7 940l-136.5 78.7V861.2l136.5 78.8z" opacity=".2"/><path fill="#000" d="M1498.4 234.5L1362 313.2V155.7l136.4 78.8z" opacity=".3"/><path fill="#000" d="M1498.4 77.7L1362 156.5V-1l136.4 78.7zM1498.4 1645.4l-136.4 78.8v-157.5l136.4 78.7z" opacity=".1"/><path fill="#000" d="M1498.4 1488.7l-136.4 78.7V1410l136.4 78.8z" opacity=".1"/><path fill="#000" d="M1498.4 1331.9l-136.4 78.7v-157.5l136.4 78.8z" opacity=".1"/><path fill="#000" d="M1498.4 1175.1L1362 1254v-157.6l136.4 78.8z" opacity=".1"/><path fill="#fff" d="M1498.4 1018.3l-136.4 78.8V939.6l136.4 78.7z" opacity=".1"/><path fill="#000" d="M1361.3 312.9l-136.5 78.7V234.1l136.5 78.8z" opacity=".1"/><path fill="#000" fill-opacity=".5" d="M1361.3 469.6l-136.5 78.8V390.9l136.5 78.7z" opacity=".2"/><path fill="#000" d="M1361.3 783.2l-136.5 78.7V704.4l136.5 78.8zM1361.3 156.1l-136.5 78.8V77.3l136.5 78.8zM1226 391.3L1089.7 470V312.5l136.5 78.8z" opacity=".1"/><path fill="#000" d="M1226 234.5l-136.4 78.7V155.7l136.5 78.8zM1226 1645.4l-136.4 78.8v-157.5l136.5 78.7z" opacity=".1"/><path fill="#000" d="M1226 1488.7l-136.4 78.7V1410l136.5 78.8z" opacity=".1"/><path fill="#000" d="M1226 1331.9l-136.4 78.7v-157.5l136.5 78.8z" opacity=".1"/><path fill="#000" d="M1226 1175.1l-136.4 78.8v-157.6l136.5 78.8zM1361.3-.7l-136.5 78.8V-79.4L1361.3-.7z" opacity=".1"/><path fill="#000" d="M1361.3 1410.3l-136.5 78.7v-157.5l136.5 78.8z" opacity=".3"/><path fill="#000" d="M1361.3 1567l-136.5 78.8v-157.5l136.5 78.7zM1361.3 1253.5l-136.5 78.8v-157.6l136.5 78.8z" opacity=".1"/><path fill="#000" d="M1361.3 1096.7l-136.5 78.8V1018l136.5 78.7z" opacity=".1"/><path fill="#000" d="M1088.9 469.6l-136.4 78.8V390.9l136.4 78.7z" opacity=".3"/><path fill="#000" d="M953.7 548l-136.5 78.8V469.3L953.7 548z" opacity=".1"/><path fill="#000" d="M953.7 391.3L817.2 470V312.5l136.5 78.8zM1088.9 783.2l-136.4 78.7V704.4l136.4 78.8z" opacity=".1"/><path fill="#000" d="M953.7 861.6l-136.5 78.7V782.8l136.5 78.8z" opacity=".1"/><path fill="#000" d="M953.7 704.8l-136.5 78.8V626l136.5 78.8z" opacity=".1"/><path fill="#000" d="M1088.9 1096.7l-136.4 78.8V1018l136.4 78.7z" opacity=".3"/><path fill="#000" d="M953.7 1175.1L817.2 1254v-157.6l136.5 78.8z" opacity=".1"/><path fill="#000" fill-opacity=".5" d="M953.7 1018.3l-136.5 78.8V939.6l136.5 78.7z" opacity=".2"/><path fill="#000" d="M1088.9 1410.3L952.5 1489v-157.5l136.4 78.8zM1088.9 626.4l-136.4 78.8V547.7l136.4 78.7zM1088.9 940l-136.4 78.7V861.2l136.4 78.8z" opacity=".1"/><path fill="#000" d="M1088.9 1253.5l-136.4 78.8v-157.6l136.4 78.8zM1088.9 1567l-136.4 78.8v-157.5l136.4 78.7z" opacity=".1"/><path fill="#000" d="M953.7 1488.7l-136.5 78.7V1410l136.5 78.8z" opacity=".1"/><path fill="#000" d="M953.7 1645.4l-136.5 78.8v-157.5l136.5 78.7zM953.7 1331.9l-136.5 78.7v-157.5l136.5 78.8zM816.5 626.4L680 705.2V547.6l136.4 78.8z" opacity=".1"/><path fill="#000" d="M816.5 469.6l-136.4 78.8V390.9l136.4 78.7z" opacity=".3"/><path fill="#000" d="M681.3 704.8l-136.4 78.8V626l136.4 78.8z" opacity=".1"/><path fill="#000" d="M681.3 548l-136.4 78.8V469.3L681.3 548zM816.5 312.9L680 391.6V234.1L816.5 313z" opacity=".1"/><path fill="#000" d="M681.3 391.3L544.9 470V312.5l136.4 78.8z" opacity=".1"/><path fill="#000" d="M681.3 234.5l-136.4 78.7V155.7l136.4 78.8zM816.5 1253.5l-136.4 78.8v-157.6l136.4 78.8z" opacity=".1"/><path fill="#000" d="M816.5 1096.7L680 1175.5V1018l136.4 78.7zM681.3 1331.9l-136.4 78.7v-157.5l136.4 78.8z" opacity=".1"/><path fill="#000" d="M681.3 1175.1L544.9 1254v-157.6l136.4 78.8zM816.5 940L680 1018.7V861.2L816.5 940z" opacity=".1"/><path fill="#000" d="M816.5 783.2L680 861.9V704.4l136.4 78.8zM1088.9-.7L952.5 78.1V-79.4L1088.9-.7z" opacity=".1"/><path fill="#000" d="M953.7 77.7l-136.5 78.8V-1l136.5 78.7zM1088.9 312.9l-136.4 78.7V234.1l136.4 78.8z" opacity=".1"/><path fill="#000" d="M953.7 234.5l-136.5 78.7V155.7l136.5 78.8z" opacity=".1"/><path fill="#000" d="M1088.9 156.1l-136.4 78.8V77.3l136.4 78.8zM816.5 156.1l-136.4 78.8V77.3l136.4 78.8z" opacity=".1"/><path fill="#000" d="M816.5-.7L680.1 78.1V-79.4L816.5-.7zM681.3 1018.3l-136.4 78.8V939.6l136.4 78.7z" opacity=".1"/><path fill="#000" d="M681.3 861.6l-136.4 78.7V782.8l136.4 78.8zM816.5 1567l-136.4 78.8v-157.5l136.4 78.7z" opacity=".1"/><path fill="#000" d="M816.5 1410.3L680.1 1489v-157.5l136.4 78.8z" opacity=".3"/><path fill="#000" d="M681.3 1645.4l-136.4 78.8v-157.5l136.4 78.7z" opacity=".1"/><path fill="#000" d="M681.3 1488.7l-136.4 78.7V1410l136.4 78.8zM544.1 783.2l-136.4 78.7V704.4L544 783.2z" opacity=".1"/><path fill="#000" d="M544.1 626.4l-136.4 78.8V547.6L544 626.4zM408.9 861.6l-136.4 78.7V782.8l136.4 78.8z" opacity=".1"/><path fill="#000" d="M408.9 704.8l-136.4 78.8V626l136.4 78.8z" opacity=".3"/><path fill="#000" d="M544.1 469.6l-136.4 78.8V390.9L544 469.6z" opacity=".1"/><path fill="#000" d="M544.1 312.9l-136.4 78.7V234.1L544 313zM408.9 548l-136.4 78.8V469.3L408.9 548z" opacity=".1"/><path fill="#fff" d="M408.9 391.3L272.5 470V312.5l136.4 78.8z" opacity=".1"/><path fill="#000" d="M272.6 940.2l-136.4 78.7V861.4l136.4 78.8z" opacity=".1"/><path fill="#000" d="M136.5 1018.5L0 1097.3V939.8l136.5 78.7z" opacity=".1"/><path fill="#000" d="M136.5 861.8L0 940.5V783l136.5 78.8zM272.6 626.6l-136.4 78.8V547.9l136.4 78.7z" opacity=".1"/><path fill="#000" d="M136.5 705L0 783.8V626.2L136.5 705z" opacity=".1"/><path fill="#000" d="M136.5 548.2L0 627V469.5l136.5 78.7zM544.1 156.1l-136.4 78.8V77.3L544 156.1zM544.1 1567l-136.4 78.8v-157.5L544 1567z" opacity=".1"/><path fill="#000" d="M544.1 1410.3L407.7 1489v-157.5l136.4 78.8z" opacity=".1"/><path fill="#000" d="M544.1 1253.5l-136.4 78.8v-157.6l136.4 78.8z" opacity=".1"/><path fill="#000" d="M544.1 1096.7l-136.4 78.8V1018l136.4 78.7z" opacity=".3"/><path fill="#000" d="M544.1 940l-136.4 78.7V861.2L544 940zM408.9 234.5l-136.4 78.7V155.7l136.4 78.8zM408.9 1645.4l-136.4 78.8v-157.5l136.4 78.7z" opacity=".1"/><path fill="#000" d="M408.9 1488.7l-136.4 78.7V1410l136.4 78.8z" opacity=".1"/><path fill="#000" d="M408.9 1331.9l-136.4 78.7v-157.5l136.4 78.8z" opacity=".3"/><path fill="#000" d="M408.9 1175.1L272.5 1254v-157.6l136.4 78.8z" opacity=".1"/><path fill="#000" d="M408.9 1018.3l-136.4 78.8V939.6l136.4 78.7zM272.6 313l-136.4 78.8V234.3l136.4 78.8z" opacity=".1"/><path fill="#000" fill-opacity=".5" d="M272.6 469.8l-136.4 78.8V391.1l136.4 78.7z" opacity=".4"/><path fill="#000" d="M272.6 783.4L136.2 862V704.6l136.4 78.8zM272.6 156.3l-136.4 78.8V77.5l136.4 78.8zM136.5 391.5L0 470.2V312.7l136.5 78.8z" opacity=".1"/><path fill="#000" d="M136.5 234.7L0 313.5V155.9l136.5 78.8zM681.3 80l-136.4 78.8V1.2L681.3 80z" opacity=".1"/><path fill="#000" d="M681.3-76.8L544.9 2v-157.5l136.4 78.7zM544.1 1.6L407.7 80.4V-77.1L544 1.6z" opacity=".1"/><path fill="#000" d="M408.9 80l-136.4 78.8V1.2L408.9 80z" opacity=".3"/><path fill="#000" d="M408.9-76.8L272.5 2v-157.5l136.4 78.7zM136.5 80.2L0 159V1.5l136.5 78.7z" opacity=".1"/><path fill="#000" d="M272.6 1.8L136.2 80.6V-77L272.6 1.8z" opacity=".1"/><path fill="#000" d="M136.5-76.6L0 2.2v-157.5l136.5 78.7zM136.5 1645.6L0 1724.4v-157.5l136.5 78.7z" opacity=".1"/><path fill="#000" d="M136.5 1488.8L0 1567.6v-157.5l136.5 78.8z" opacity=".1"/><path fill="#000" d="M136.5 1332L0 1410.9v-157.5l136.5 78.8z" opacity=".1"/><path fill="#000" d="M136.5 1175.3L0 1254.1v-157.5l136.5 78.7z" opacity=".1"/><path fill="#fff" d="M272.6 1410.5l-136.4 78.7v-157.5l136.4 78.8z" opacity=".1"/><path fill="#000" d="M272.6 1567.2L136.2 1646v-157.5l136.4 78.7zM272.6 1253.7l-136.4 78.8v-157.6l136.4 78.8z" opacity=".1"/><path fill="#000" d="M272.6 1097l-136.4 78.7v-157.5l136.4 78.7z" opacity=".1"/><path fill="#fff" d="M1226 77.7l-136.4 78.8V-1l136.5 78.7z" opacity=".1"/></g><defs><clipPath id="clip0"><path fill="#fff" d="M0 0h2044v1567H0z"/></clipPath></defs></svg>