<svg width="28" height="27" viewBox="0 0 28 27" fill="none" xmlns="http://www.w3.org/2000/svg"><path fill-rule="evenodd" clip-rule="evenodd" d="M17.286 18.054a.693.693 0 0 1-.943 0l-2.367-2.244.472-.447 1.895-1.797.472-.447 2.839 2.691-.472.447-1.896 1.797z" fill="#fff" fill-opacity=".84"/><path fill-rule="evenodd" clip-rule="evenodd" d="M14.448 15.363l-.471.447-2.839-2.69.472-.448 1.895-1.797.472-.447 2.838 2.691-.471.447-1.896 1.797z" fill="#fff" fill-opacity=".7"/><path fill-rule="evenodd" clip-rule="evenodd" d="M10.667 8.185a.692.692 0 0 1 .943 0l2.367 2.244-.472.447-1.896 1.797-.47.446-2.84-2.69.472-.447 1.896-1.797z" fill="#fff" fill-opacity=".84"/><path fill-rule="evenodd" clip-rule="evenodd" d="M19.182 10.876a.693.693 0 0 1 .943 0l2.367 2.244-.471.446-1.896 1.797-.471.447-2.84-2.69.473-.447 1.895-1.797zM5.933 12.672a.609.609 0 0 0 0 .894L8.3 15.81l.471-.447 1.896-1.797.471-.447L8.3 10.43l-.472.446-1.895 1.797z" fill="#fff"/><path fill-rule="evenodd" clip-rule="evenodd" d="M14.115 25.5c6.627 0 12-5.373 12-12s-5.373-12-12-12c-6.628 0-12 5.373-12 12s5.372 12 12 12zm0 1.5c7.456 0 13.5-6.044 13.5-13.5S21.57 0 14.115 0 .615 6.044.615 13.5 6.659 27 14.115 27z" fill="#fff"/></svg>