<svg width="544" height="233" viewBox="0 0 544 233" fill="none" xmlns="http://www.w3.org/2000/svg"><path d="M78.96 22.184v122.562c0 3.589 1.347 6.28 4.038 8.074 1.794 1.173 2.691 2.554 2.691 4.141v4.658c0 1.587-.897 2.381-2.691 2.381H50.701c-1.518 0-2.277-.725-2.277-2.174v-4.865c0-1.518.862-2.899 2.588-4.141 2.691-1.863 4.037-4.554 4.037-8.074V85.432H31.137v59.314c0 3.589 1.31 6.28 3.933 8.074 1.795 1.173 2.692 2.554 2.692 4.141v4.658c0 1.587-.897 2.381-2.692 2.381H2.773c-1.518 0-2.277-.725-2.277-2.174v-4.865c0-1.518.897-2.899 2.692-4.141 2.622-1.863 3.933-4.554 3.933-8.074V22.184c0-3.52-1.311-6.177-3.934-7.971C1.393 13.04.498 11.625.498 9.969V5.414c0-1.587.896-2.38 2.69-2.38h32.297c1.519 0 2.278.724 2.278 2.173v4.762c0 1.587-.897 3.002-2.692 4.244-2.622 1.863-3.933 4.52-3.933 7.97V70.94h23.912V22.184c0-3.52-1.346-6.177-4.037-7.971-1.795-1.173-2.692-2.588-2.692-4.244V5.414c0-1.587.897-2.38 2.692-2.38h32.297c1.518 0 2.277.724 2.277 2.173v4.762c0 1.587-.863 3.002-2.588 4.244-2.691 1.863-4.037 4.52-4.037 7.97zm44.099 122.562c0 3.589 1.311 6.28 3.933 8.074 1.794 1.173 2.692 2.554 2.692 4.141v4.658c0 1.587-.898 2.381-2.692 2.381H94.695c-1.518 0-2.277-.725-2.277-2.174v-4.865c0-1.518.897-2.899 2.691-4.141 2.623-1.863 3.934-4.554 3.934-8.074V22.184c0-3.52-1.311-6.177-3.934-7.971-1.794-1.173-2.691-2.588-2.691-4.244V5.414c0-1.587.897-2.38 2.691-2.38h32.297c1.518 0 2.278.724 2.278 2.173v4.762c0 1.587-.898 3.002-2.692 4.244-2.622 1.863-3.933 4.52-3.933 7.97v122.563zm62.834-129.705v129.705c0 3.589 1.311 6.28 3.933 8.074 1.794 1.173 2.692 2.554 2.692 4.141v4.658c0 1.587-.898 2.381-2.692 2.381h-32.297c-1.518 0-2.277-.725-2.277-2.174v-4.865c0-1.518.897-2.899 2.691-4.141 2.623-1.863 3.934-4.554 3.934-8.074V15.041h-4.555c-3.381 0-5.9 1.277-7.556 3.83-1.588 2.553-3.037 8.178-4.348 16.873-.138 1.173-.863 1.76-2.174 1.76h-4.037c-2.346 0-3.519-1-3.519-3.002V4.379c0-2.346 1.104-3.52 3.312-3.52 1.38 0 3.83.276 7.35.829 5.658.897 9.937 1.345 12.836 1.345h36.644c1.863-.276 4.141-.655 6.832-1.138 4.141-.622 6.418-.932 6.832-.932 1.863 0 2.795.863 2.795 2.588v30.951c0 2.001-.897 3.002-2.691 3.002h-3.934c-1.587 0-2.553-.449-2.898-1.346-.276-.897-.759-3.14-1.45-6.728-1.242-5.935-2.518-9.8-3.83-11.594-1.311-1.863-3.623-2.795-6.935-2.795h-4.658zm62.834 73.6v56.105c0 3.589 1.311 6.28 3.933 8.074 1.794 1.173 2.692 2.554 2.692 4.141v4.658c0 1.587-.898 2.381-2.692 2.381h-32.297c-1.518 0-2.277-.725-2.277-2.174v-4.865c0-1.518.897-2.899 2.691-4.141 2.623-1.863 3.934-4.554 3.934-8.074V22.184c0-3.52-1.311-6.177-3.934-7.971-1.794-1.173-2.691-2.588-2.691-4.244V5.414c0-1.587.897-2.38 2.691-2.38h27.121c15.321 0 26.984 3.45 34.989 10.35 8.005 6.902 12.008 16.874 12.008 29.917 0 20.772-9.627 34.194-28.881 40.267 5.659 2.76 9.937 5.9 12.836 9.42 2.967 3.45 5.244 8.558 6.832 15.321l7.556 32.814c.966 4.21 1.898 7.074 2.795 8.592.966 1.449 2.519 2.829 4.658 4.14.621.415.932 1.07.932 1.967v5.901c0 1.518-.759 2.277-2.277 2.277h-20.703c-2.002 0-3.278-1.104-3.831-3.312l-14.078-56.934c-1.518-6.28-3.209-10.352-5.072-12.215-1.794-1.863-4.106-2.83-6.935-2.898zm0-73.082v60.763c7.453 0 12.939-2.346 16.459-7.039 3.519-4.692 5.279-13.043 5.279-25.05 0-11.732-1.794-19.427-5.383-23.085-3.52-3.726-8.971-5.59-16.355-5.59zm131.05 111.175c0 12.353-3.14 22.015-9.42 28.985-6.28 6.97-14.492 10.455-24.636 10.455-10.145 0-18.461-3.451-24.948-10.352-6.487-6.901-9.73-15.941-9.73-27.121V22.184c0-3.52-1.311-6.177-3.934-7.971-1.794-1.242-2.691-2.657-2.691-4.244V5.414c0-1.587.897-2.38 2.691-2.38h32.297c1.518 0 2.278.724 2.278 2.173v4.762c0 1.587-.898 3.002-2.692 4.244-2.622 1.794-3.933 4.451-3.933 7.97V129.84c0 14.354 4.761 21.531 14.285 21.531 10.42 0 15.631-8.419 15.631-25.258V22.183c0-3.519-1.312-6.176-3.934-7.97-1.794-1.242-2.691-2.657-2.691-4.244V5.414c0-1.587.897-2.38 2.691-2.38h23.084c1.518 0 2.277.724 2.277 2.173v4.762c0 1.587-.897 3.002-2.691 4.244-2.622 1.794-3.934 4.451-3.934 7.97v104.551zM403.586 164h-5.176c-1.725 0-2.588-.932-2.588-2.795V122.18c0-2.623.932-3.934 2.795-3.934h4.451c1.174 0 1.933.414 2.278 1.242.414.759.966 3.485 1.656 8.178 2.829 18.081 9.282 27.121 19.357 27.121 5.245 0 9.351-2.277 12.319-6.832 3.036-4.555 4.554-10.075 4.554-16.562 0-6.694-1.621-12.905-4.865-18.633-3.174-5.728-9.351-13.457-18.529-23.188-7.108-7.453-12.18-13.215-15.217-17.287-2.967-4.14-5.383-8.799-7.246-13.974-1.794-5.176-2.691-10.87-2.691-17.08 0-11.456 2.864-20.876 8.591-28.26 5.797-7.384 12.836-11.076 21.118-11.076 3.795 0 7.867 1.07 12.214 3.209 1.933.966 3.244 1.449 3.934 1.449s1.449-.276 2.277-.828c.828-.483 1.864-.725 3.106-.725h3.83c2.001 0 3.002.932 3.002 2.795v34.264c0 1.725-.759 2.588-2.277 2.588h-4.762c-1.242 0-2.071-.311-2.485-.932-.345-.69-1-3.21-1.966-7.557-3.244-14.975-8.523-22.463-15.838-22.463-3.934 0-7.108 1.657-9.524 4.97-2.346 3.312-3.519 7.142-3.519 11.49 0 5.037 1.38 10.213 4.14 15.527 2.83 5.244 8.42 12.145 16.77 20.703 10.697 10.972 18.081 20.634 22.152 28.984 4.141 8.281 6.211 17.287 6.211 27.018 0 13.112-3.45 23.774-10.351 31.986-6.832 8.212-14.976 12.318-24.43 12.318-4.21 0-9.144-1.104-14.803-3.312-1.794-.759-3.071-1.139-3.83-1.139-.69 0-1.587.345-2.691 1.035-.828.483-1.484.725-1.967.725zm113.35-148.959v129.705c0 3.589 1.311 6.28 3.933 8.074 1.794 1.173 2.692 2.554 2.692 4.141v4.658c0 1.587-.898 2.381-2.692 2.381h-32.297c-1.518 0-2.277-.725-2.277-2.174v-4.865c0-1.518.897-2.899 2.691-4.141 2.623-1.863 3.934-4.554 3.934-8.074V15.041h-4.555c-3.381 0-5.9 1.277-7.556 3.83-1.588 2.553-3.037 8.178-4.348 16.873-.138 1.173-.863 1.76-2.174 1.76h-4.037c-2.346 0-3.52-1-3.52-3.002V4.379c0-2.346 1.105-3.52 3.313-3.52 1.38 0 3.83.276 7.35.829 5.658.897 9.937 1.345 12.836 1.345h36.644c1.863-.276 4.141-.655 6.832-1.138 4.141-.622 6.418-.932 6.832-.932 1.863 0 2.795.863 2.795 2.588v30.951c0 2.001-.897 3.002-2.691 3.002h-3.934c-1.587 0-2.553-.449-2.898-1.346-.276-.897-.76-3.14-1.45-6.728-1.242-5.935-2.519-9.8-3.83-11.594-1.311-1.863-3.623-2.795-6.935-2.795h-4.658zM22.646 232.02c-4.2 0-7.72-.98-10.56-2.94-2.84-2-4.96-4.68-6.36-8.04-1.36-3.4-2.04-7.22-2.04-11.46 0-4.4.74-8.26 2.22-11.58 1.48-3.36 3.64-5.96 6.48-7.8 2.88-1.88 6.36-2.82 10.44-2.82 4.96 0 8.84 1.36 11.64 4.08 2.84 2.68 4.54 6.32 5.1 10.92l-4.74.48c-.48-3.52-1.78-6.3-3.9-8.34-2.08-2.08-4.86-3.12-8.34-3.12-2.92 0-5.44.76-7.56 2.28-2.12 1.48-3.74 3.58-4.86 6.3-1.08 2.72-1.62 5.9-1.62 9.54 0 3.56.52 6.74 1.56 9.54 1.08 2.76 2.68 4.94 4.8 6.54 2.16 1.56 4.76 2.34 7.8 2.34 3.28 0 5.98-.98 8.1-2.94 2.16-1.96 3.58-4.68 4.26-8.16l4.5.72c-.84 4.36-2.66 7.86-5.46 10.5-2.8 2.64-6.62 3.96-11.46 3.96zm48.013 0c-5.16 0-9.18-1.26-12.06-3.78-2.84-2.52-4.42-5.86-4.74-10.02l4.68-.66c.36 3.12 1.54 5.68 3.54 7.68 2.04 1.96 4.96 2.94 8.76 2.94 2.96 0 5.4-.68 7.32-2.04 1.96-1.36 2.94-3.36 2.94-6 0-2.6-.72-4.48-2.16-5.64-1.4-1.2-3.56-2.08-6.48-2.64l-6.3-1.26c-7-1.36-10.5-5.16-10.5-11.4 0-2.36.58-4.42 1.74-6.18 1.2-1.8 2.88-3.18 5.04-4.14 2.2-1 4.76-1.5 7.68-1.5 4.4 0 7.98 1.02 10.74 3.06s4.32 5.14 4.68 9.3l-4.68.9c-.6-6.36-4.22-9.54-10.86-9.54-2.88 0-5.2.7-6.96 2.1-1.72 1.36-2.58 3.22-2.58 5.58 0 2.12.6 3.82 1.8 5.1 1.24 1.24 3.16 2.14 5.76 2.7l6.3 1.26c3.64.72 6.48 1.98 8.52 3.78 2.04 1.8 3.06 4.48 3.06 8.04 0 2.36-.58 4.48-1.74 6.36-1.16 1.84-2.9 3.3-5.22 4.38-2.28 1.08-5.04 1.62-8.28 1.62zm37.99-39.66v14.82h20.34v3.96h-20.34V231h-4.62v-42.6h25.98v3.96h-21.36zm76.325 39.66c-4.2 0-7.72-.98-10.56-2.94-2.84-2-4.96-4.68-6.36-8.04-1.36-3.4-2.04-7.22-2.04-11.46 0-4.4.74-8.26 2.22-11.58 1.48-3.36 3.64-5.96 6.48-7.8 2.88-1.88 6.36-2.82 10.44-2.82 4.96 0 8.84 1.36 11.64 4.08 2.84 2.68 4.54 6.32 5.1 10.92l-4.74.48c-.48-3.52-1.78-6.3-3.9-8.34-2.08-2.08-4.86-3.12-8.34-3.12-2.92 0-5.44.76-7.56 2.28-2.12 1.48-3.74 3.58-4.86 6.3-1.08 2.72-1.62 5.9-1.62 9.54 0 3.56.52 6.74 1.56 9.54 1.08 2.76 2.68 4.94 4.8 6.54 2.16 1.56 4.76 2.34 7.8 2.34 3.28 0 5.98-.98 8.1-2.94 2.16-1.96 3.58-4.68 4.26-8.16l4.5.72c-.84 4.36-2.66 7.86-5.46 10.5-2.8 2.64-6.62 3.96-11.46 3.96zm61.693-4.98V231h-26.4v-42.6h25.98v3.96h-21.36v14.82h20.34v3.96h-20.34v15.9h21.78zm33.679-14.22h-9.78V231h-4.62v-42.6h15.24c5.04 0 8.6 1.16 10.68 3.48 2.12 2.28 3.18 5.18 3.18 8.7 0 2.76-.8 5.22-2.4 7.38-1.56 2.16-4.02 3.58-7.38 4.26l11.1 18.78h-5.28l-10.74-18.18zm-9.78-3.96h10.2c3.24 0 5.6-.74 7.08-2.22 1.52-1.52 2.28-3.54 2.28-6.06 0-2.52-.74-4.52-2.22-6-1.48-1.48-3.86-2.22-7.14-2.22h-10.2v16.5zm68.282-16.5h-13.74V231h-4.68v-38.64h-13.74v-3.96h32.16v3.96zm15.88 38.64v-42.6h4.62V231h-4.62zm30.846-38.64v14.82h20.34v3.96h-20.34V231h-4.62v-42.6h25.98v3.96h-21.36zM424.759 231v-42.6h4.62V231h-4.62zm52.627-3.96V231h-26.4v-42.6h25.98v3.96h-21.36v14.82h20.34v3.96h-20.34v15.9h21.78zm19.279-38.64h13.5c4.04 0 7.58.88 10.62 2.64 3.08 1.76 5.44 4.26 7.08 7.5 1.68 3.2 2.52 6.9 2.52 11.1 0 4.12-.84 7.8-2.52 11.04-1.68 3.24-4.06 5.78-7.14 7.62-3.08 1.8-6.64 2.7-10.68 2.7h-13.38v-42.6zm13.32 38.64c3.12 0 5.84-.76 8.16-2.28 2.36-1.52 4.16-3.6 5.4-6.24 1.24-2.64 1.86-5.6 1.86-8.88 0-3.4-.6-6.4-1.8-9-1.2-2.6-2.96-4.62-5.28-6.06-2.32-1.48-5.06-2.22-8.22-2.22h-8.82v34.68h8.7z" fill="#fff"/></svg>