<svg xmlns="http://www.w3.org/2000/svg" width="96" height="96" viewBox="0 0 96 96"><path fill="currentColor" fill-rule="evenodd" d="M79.177 4.068c5.067.719 8.214 3.86 9.056 9.076.013.045 2.386 10.182 2.386 22.532s-2.373 22.487-2.397 22.587c-.831 5.162-3.978 8.303-9.085 9.029-.067.014-12.71 2.965-25.898 3.566L39.234 93.562a3.09 3.09 0 0 1-5.353 0l-1.715-22.706c-7.15.002-12.863-1.968-16.65-3.572-3.789-1.603-8.283-4.29-9.057-9.076-.013-.045-2.387-10.182-2.387-22.532S6.446 13.19 6.471 13.09c.831-5.16 3.977-8.302 9.084-9.027.082-.019 12.426-2.385 31.79-2.385 19.366 0 31.71 2.366 31.832 2.39zM22.052 16.92a4.67 4.67 0 1 0 0 9.34h30.102a4.67 4.67 0 1 0 0-9.34H22.052zm46.756 0a4.67 4.67 0 0 0 0 9.34h.07a4.67 4.67 0 0 0 0-9.34h-.07zM22.052 32.913a4.67 4.67 0 1 0 0 9.34h10.38a4.67 4.67 0 0 0 0-9.34h-10.38z"/></svg>