<svg width="32" height="32" viewBox="0 0 32 32" xmlns="http://www.w3.org/2000/svg"><title>small/icon-book-fill</title><path d="M15.345 30.2V11.036C11.927 8.236 4.764 4.746 0 4.455v19.527c2.29.109 5.09.945 7.782 2.036 2.8 1.2 5.563 2.727 7.563 4.182zM32 4.455c-4.727.29-11.927 3.781-15.345 6.581V30.2C20.509 27.4 27.2 24.236 32 23.982V4.455zM28.545 1c-3.89.4-8.29 4.255-10.545 7.49 2.982-1.926 6.982-3.817 10.545-4.726V1zM3.455 3.764c3.6.909 7.6 2.8 10.581 4.727C11.782 5.255 7.346 1.4 3.455 1v2.764z" fill="currentColor" fill-rule="evenodd"/></svg>