<svg width="50" height="50" viewBox="0 0 50 50" xmlns="http://www.w3.org/2000/svg"><title>Vuln Scanning</title><path d="M36.199 13.032l-6.442 6.436c-1.32-1.272-3.023-1.968-4.83-1.968-3.937 0-7.476 3.385-7.476 7.5s3.618 7.454 7.555 7.454c1.908 0 3.74-.628 5.134-1.982.48-.467.547-1.074.298-1.342-.25-.268-.82-.222-1.309.241A5.927 5.927 0 0 1 25.007 31c-3.39-.001-6.017-2.838-6.014-5.999.003-3.853 3.274-5.996 6.013-5.996 1.43 0 2.88.605 3.819 1.395l-2.04 2.036a3.125 3.125 0 1 0 .927 1.012l17.11-16.991c.61-.611.896-.684.285-1.295-.61-.611-.724-.305-1.335.306l-1.48 1.48C37.619 2.462 31.498 0 25 0 11.216 0 0 11.216 0 25s11.216 25 25 25c3.419 0 6.734-.678 9.85-2.016.79-.339 1.146-.85 1.146-1.402 0-.553-.771-.473-1.146-.278-2.983 1.55-6.35 2.195-9.85 2.196C12.39 48.504 1.304 38.11 1.5 25 1.705 11.304 12.766 1.286 25 1.5c7.08.124 12.16 2.64 16.216 6.521l-3.856 3.852C33.863 8.645 29.59 6.987 25 7.005 14.412 7.045 6.973 15.803 6.997 25c.024 8.756 7.077 18.168 18 18 1.43-.022 4.13-.271 6.675-1.255.846-.327 2.218-.898 1.89-1.745-.331-.845-1.154-.338-1.996 0-.788.316-3.232 1.352-6.569 1.4C16.015 41.528 8.636 34.073 8.6 25 8.568 16.95 15.299 8.47 25 8.603c4.604.063 8.436 1.93 11.199 4.43zm2.949 31.797c-.384-.488-.039-.983.388-1.334 2.028-1.663 4.274-4.02 5.718-6.592.29-.515.897-.593 1.198-.334.3.26.46.619 0 1.368-1.986 3.234-5.003 5.948-5.897 6.636-.29.224-1.1.645-1.407.256zm8.656-11.211c-.254 0-.784-.375-.452-1.31.708-1.993 1.106-5.525 1.106-6.355 0-.382.178-.67.581-.67.403 0 1.005.362.961 1.249-.12 2.402-.946 5.227-1.211 6.268-.176.691-.732.818-.985.818zM36.107 37.05c2.497-2.482 3.324-3.956 4.243-6.31.31-.793.866-.8 1.222-.666.357.133.504.913.323 1.241-.47.852-1.098 3.365-4.526 6.758-.462.458-.885.203-1.15 0-.266-.202-.322-.814-.112-1.023zm5.964-9.182a.75.75 0 1 0 0-1.5.75.75 0 0 0 0 1.5zm7-5a.75.75 0 1 0 0-1.5.75.75 0 0 0 0 1.5z" fill="#000" fill-rule="evenodd"/></svg>