<svg viewBox="0 0 50 56" xmlns="http://www.w3.org/2000/svg" preserveAspectRatio="xMidYMid meet"><title>HITRUST: Infra</title><path d="M0 50h6.5283v-1.5H1.5v-47h38V28H41V.005L0 0v50zm33.4048-21c6.225 0 10.6125 5.437 10.2957 10.982C47.3133 40.8823 50 44.1513 50 48.0358 50 52.6128 46.5405 56 41.7024 56H17.7857C12.5077 56 9 52.8563 9 48.5238c0-3.5047 2.3833-6.9086 5.903-7.7027.12-2.8712 1.4856-5.0157 3.3708-6.147 1.8487-1.109 4.1318-1.244 6.147-.3964C26.0364 31.3646 29.2192 29 33.4048 29zm-8.0514 6.5704c-.1143.224-.3885.3133-.6128.1995-1.6812-.8408-3.6952-.7327-5.2723.2135-1.577.9463-2.736 2.7185-2.736 5.315-.004.2212-.1663.4074-.3847.442-2.9873.501-5.7476 3.1407-5.7476 6.398 0 4.5137 2.9605 6.3837 7.9 6.3837h22.3997c5.0852 0 8.0903-2.6268 7.7003-6.8398-.3-3.2417-3.2336-6.109-6.3752-6.7258-.235-.0434-.3967-.261-.3704-.4987.4856-4.7826-2.0478-9.958-8.7065-9.958-4.463 0-6.4984 2.4776-7.7947 5.0703zM14.4 35.5s.6 0 .6-.756c0-.7562-.6-.744-.6-.744H6.6s-.6.0803-.6.7902c0 .7098.6.7098.6.7098h7.8zm11.76-8s.84 0 .84-.699-.84-.801-.84-.801H6.84s-.84.0974-.84.7987c0 .7013.84.7013.84.7013h19.32zM24 18s-1 .109-1 .8046c0 .6954 1 .6954 1 .6954h8s1 0 1-.75-1-.75-1-.75h-8zm10.0445-6.5S35 11.5 35 10.7338c0-.7663-.9555-.7338-.9555-.7338h-10.089S23 10.0588 23 10.7794s.9555.7206.9555.7206h10.089zM12.23 6.346c-2.6775 0-4.8545 2.2042-4.8545 4.8998 0 1.1375.3908 2.1847 1.04 3.0182l-2.2613 5.8957 2.975-1.2144 1.4514 2.8062 1.646-4.5317 1.7244 4.5226 1.3562-2.83 3.0136 1.3255-2.3565-5.8676c.6994-.8495 1.1204-1.9392 1.1204-3.1247 0-2.6956-2.177-4.8998-4.8546-4.8998zm0 1.354c1.9365 0 3.5 1.5582 3.5 3.5005 0 1.9423-1.5635 3.4995-3.5 3.4995s-3.5-1.5572-3.5-3.4995S10.2935 7.7 12.23 7.7zm-2.9126 7.4534c.6046.4604 1.316.782 2.0925.9165l-1.0164 2.796-.7206-1.3948-1.476.6027 1.1204-2.9207zm5.7383.0668l1.1283 2.8108-1.4376-.6333-.674 1.406-1.0413-2.7316c.7467-.126 1.4343-.4226 2.0248-.8517z" fill="#000000" fill-rule="evenodd"/></svg>