<?xml version="1.0" encoding="UTF-8"?>
<svg width="16px" height="16px" viewBox="0 0 16 16" version="1.1" xmlns="http://www.w3.org/2000/svg" xmlns:xlink="http://www.w3.org/1999/xlink">
    <!-- Generator: Sketch 50.2 (55047) - http://www.bohemiancoding.com/sketch -->
    <title>icon-check-circle</title>
    <desc>Created with Sketch.</desc>
    <defs></defs>
    <g id="icon-check-circle" stroke="none" stroke-width="1" fill="none" fill-rule="evenodd">
        <g id="check" transform="translate(0.000000, 1.000000)" fill="#000000" fill-rule="nonzero">
            <polygon id="Path-5-Copy" points="14.1658616 0.782833591 15.1999987 1.81697066 7.32641102 10.001324 4.24302401 6.91793702 5.27716108 5.88379995 7.32641102 7.93304989"></polygon>
            <path d="M11.8585268,1.92361807 L11.0496735,2.73247137 C10.0958677,1.98698513 8.89523186,1.54270998 7.59082996,1.54270998 C4.48620134,1.54270998 1.96940256,4.05950876 1.96940256,7.16413739 C1.96940256,10.268766 4.48620134,12.7855648 7.59082996,12.7855648 C10.6954586,12.7855648 13.2122574,10.268766 13.2122574,7.16413739 C13.2122574,6.53096387 13.1075747,5.92224029 12.9145725,5.35432971 L13.7931761,4.4757261 C14.150788,5.29962885 14.3490413,6.20873085 14.3490413,7.16413739 C14.3490413,10.8965945 11.323287,13.9223487 7.59082996,13.9223487 C3.8583729,13.9223487 0.832618609,10.8965945 0.832618609,7.16413739 C0.832618609,3.43168032 3.8583729,0.405926031 7.59082996,0.405926031 C9.20930066,0.405926031 10.6948922,0.974849298 11.8585268,1.92361807 Z" id="Combined-Shape"></path>
        </g>
    </g>
</svg>