<svg width="43" height="32" viewBox="0 0 43 32" xmlns="http://www.w3.org/2000/svg"><title>blue/icon-ui-pictures-blue</title><path d="M6.667 5.333c-.874 0-1.334.625-1.334 1.467v23.606c0 .84.46 1.594 1.334 1.594H41.33c.873 0 1.337-.753 1.337-1.594V6.8c0-.842-.39-1.467-1.263-1.467H6.667zm34.666 25.334H6.667v-24h34.666v24zM38.3 22.244l-.864-2.234c-.333-.543-1.132-1.11-1.767-1.266l-3.517.281a.965.965 0 0 1-.558-.436l-2.476-6.055c-.286-.567-.752-.568-1.04-.001l-5.73 11.291a.348.348 0 0 1-.506.134l-5.497-3.451c-.549-.344-1.3-.213-1.677.303L9.333 28h29.334v-4.339c0-.42-.146-1.055-.368-1.417zm-23.854-6.535c1.529 0 2.768-1.194 2.768-2.666s-1.239-2.665-2.768-2.665c-1.528 0-2.768 1.193-2.768 2.665s1.24 2.666 2.768 2.666zM4.192 26.946l-1.19.023-1.516-23.51 35.023-2.196.227 2.571 1.302-.136-.142-2.267C37.846.623 37.149 0 36.319 0 36.286 0 1.486 2.024 1.486 2.024c-.872.05-1.536.773-1.483 1.612L1.482 27.2c.05.808.747 1.43 1.577 1.43.033 0 1.275-.07 1.275-.07l-.142-1.614z" fill="#0A0A0A" fill-rule="evenodd"/></svg>