<svg viewBox="0 0 95 95" xmlns="http://www.w3.org/2000/svg" preserveAspectRatio="xMidYMid meet"><title>icon-integration</title><path d="M87.439 42.446c-.068 0-5.056-8.517-14.965-25.55 1.214-1.01 1.922-2.524 1.922-4.24 0-3.03-2.528-5.656-5.562-5.656-2.73 0-4.954 2.525-5.46 4.544H33.041C32.536 9.524 30.311 7 27.581 7c-3.033 0-5.561 2.525-5.561 5.554 0 1.919.91 3.636 2.427 4.646L9.583 42.85c-.606-.303-1.314-.404-2.022-.404C4.528 42.446 2 44.97 2 48c0 3.03 2.528 5.554 5.561 5.554.708 0 1.416-.1 2.123-.404L24.447 78.7c-1.517 1.01-2.427 2.726-2.427 4.645 0 3.03 2.528 5.655 5.561 5.655 2.73 0 5.056-1.515 5.46-4.544h30.333c.405 3.03 2.73 4.544 5.46 4.544 3.034 0 5.562-2.525 5.562-5.655 0-1.717-.81-3.232-1.922-4.242l14.763-25.448c3.235 0 5.763-2.524 5.763-5.554 0-3.13-2.528-5.655-5.561-5.655zm-5.46 4.544H69.138l-.202-9.492 13.65 7.775c-.304.606-.506 1.717-.607 1.717zm-14.661 0H53.97c-.101-1.01-.809-2.726-1.921-3.736l6.774-11.614 8.19 4.747.304 10.603zm-2.63 32.618L50.23 71.227l8.797-5.05 7.38 12.119c-.808.404-1.314.807-1.718 1.312zm-16.38-9.391l-8.998-5.15 7.179-12.32a5.894 5.894 0 0 0 1.921.302c.809 0 1.517-.202 2.224-.505l7.28 12.018-9.605 5.655zM31.12 79.002l7.28-12.32 8.089 4.646-14.661 8.381c-.202-.303-.506-.505-.708-.707zm.708-62.812l14.054 8.078-7.482 4.545-7.179-11.815c.202-.303.405-.505.607-.808zm15.975 9.19l9.505 5.453-6.775 11.512c-.606-.202-1.314-.404-2.022-.404-.607 0-1.314.1-1.82.303l-7.28-11.916 8.392-4.949zm17.493-8.382l-7.18 12.219-8.594-4.949 14.661-8.583c.304.505.708 1.01 1.113 1.313zm-5.46 13.128L66.71 18.41l.303 15.855-7.178-4.14zm3.64-16.158l-15.673 9.29-15.065-8.583c.1-.303.202-1.01.303-1.01h30.333s0 .202.102.303zm-35.187 4.241c1.011-.1.91-.202 1.213-.303l7.18 11.816-8.393 4.948V18.21zm9.403 13.128l7.28 11.917c-1.112.909-1.92 2.827-2.022 3.837H28.289v-10.3l9.403-5.454zM26.267 46.99H13.02c-.101 0-.303-.606-.404-.909l13.65-8.18v9.09zM13.02 49.01h13.246v8.685l-13.65-7.877c.1-.303.404-.808.404-.808zm15.268 0H43.05c.303 1.01.91 2.12 1.82 2.827l-7.28 12.32-9.302-5.352V49.01zm8.392 16.662L29.3 78.094c-.303-.101 0-.202-1.011-.303V60.926l8.392 4.746zm-3.943 15.653l15.57-8.988 15.37 8.887c-.101.303-.202 1.111-.304 1.111H33.041c-.101 0-.202-.707-.303-1.01zm35.186-3.837l-7.38-12.22 7.077-4.039.303 16.259zm-8.392-13.734l-7.38-12.018c.808-.706 1.314-1.615 1.617-2.625h13.448l.202 10.2-7.887 4.443zm9.606-14.744h12.74c.1 1.01.303 1.11.505 1.616L69.24 58.2l-.101-9.19zm16.178-6.16a4.404 4.404 0 0 0-1.618 1.01l-14.864-8.483-.404-17.067h.303c.708 0 1.416-.1 2.023-.404l14.56 24.944zM25.963 18.108c.203 0 .304.101.304.101v17.47l-14.56 8.787-.607-.606 14.863-25.752zM11.201 52.14c.202-.202.303-.505.506-.707l14.56 8.483v17.875s-.101.1-.304.1l-14.762-25.75zm59.656 25.954a16.606 16.606 0 0 0-1.113-.303l-.404-17.572 14.257-8.18c.505.404 1.01.808 1.617 1.111L70.857 78.094z"/></svg>