<svg width="38" height="50" viewBox="0 0 38 50" xmlns="http://www.w3.org/2000/svg"><title>Logging</title><path d="M0 3h7V1s0-1 1-1 1 1 1 1v2h9V1s0-1 1-1 1.001 1 1.001 1v2h8.997V1s0-1 1.002-1 1 1 1 1v2h7v47H0V3zm1.5 1.5h5.506v1.46S7.006 7 8 7s1-1.04 1-1.04V4.5h9v1.46S18 7 19 7s1-1 1-1V4.5h9v1.46S29 7 30 7s1-1.04 1-1.04V4.5h5.5s.072 18.14.072 30.977c0 4.305-.354 7.108-3.394 9.528C29 48.328 28.388 48.5 20 48.5H1.5v-44zm29 44c3.85-1.986 5.103-3.352 6.21-5.479-.21 4.86-.21 5.48-.21 5.48h-6zM5 11.75c0-.414.33-.75.745-.75h17.51c.412 0 .745.333.745.75 0 .414-.33.75-.745.75H5.745A.746.746 0 0 1 5 11.75zm20 0c0-.414.342-.75.752-.75h7.496a.75.75 0 1 1 0 1.5h-7.496a.75.75 0 0 1-.752-.75zm-20 5c0-.414.341-.75.756-.75h9.488c.417 0 .756.333.756.75 0 .414-.341.75-.756.75H5.756A.751.751 0 0 1 5 16.75zm12 0a.75.75 0 0 1 .755-.75h11.49a.75.75 0 1 1 0 1.5h-11.49a.75.75 0 0 1-.755-.75zm-12 5c0-.414.346-.75.757-.75h20.486c.418 0 .757.333.757.75 0 .414-.346.75-.757.75H5.757A.752.752 0 0 1 5 21.75zm16 5c0-.414.341-.75.756-.75h9.488c.417 0 .756.333.756.75 0 .414-.341.75-.756.75h-9.488a.751.751 0 0 1-.756-.75zm-16 0c0-.414.341-.75.744-.75h13.512c.411 0 .744.333.744.75 0 .414-.341.75-.744.75H5.744A.745.745 0 0 1 5 26.75zm0 5c0-.414.34-.75.745-.75h22.51a.751.751 0 0 1 0 1.5H5.745A.745.745 0 0 1 5 31.75zm0 5c0-.414.338-.75.75-.75h5.5a.751.751 0 0 1 0 1.5h-5.5a.748.748 0 0 1-.75-.75zm8 0c0-.414.342-.75.752-.75h7.496a.75.75 0 1 1 0 1.5h-7.496a.75.75 0 0 1-.752-.75zm10 0c0-.414.342-.75.752-.75h7.496a.75.75 0 1 1 0 1.5h-7.496a.75.75 0 0 1-.752-.75zm-18 5c0-.414.33-.75.76-.75h18.48c.42 0 .76.333.76.75 0 .414-.33.75-.76.75H5.76a.753.753 0 0 1-.76-.75z" fill="#000" fill-rule="evenodd"/></svg>