<svg width="60" height="64" viewBox="0 0 60 64" xmlns="http://www.w3.org/2000/svg"><title>icon-large-mobile-globe</title><path d="M38.4 9.6V1.614C38.4.719 37.683 0 36.799 0H1.6C.716 0 0 .723 0 1.614v60.772C0 63.281.717 64 1.601 64H36.8c.885 0 1.601-.723 1.601-1.614V48h-1.493l-.09 4.007A.812.812 0 0 1 36 52.8H2.4a.8.8 0 0 1-.801-.793V5.593a.79.79 0 0 1 .801-.793H36a.79.79 0 0 1 .801.793V9.6h1.6zM19.2 60.8a2.4 2.4 0 1 0 0-4.8 2.4 2.4 0 0 0 0 4.8zm-8-59.2h16v1.6h-16V1.6zm45.893 35.167c1.383-2.37 2.107-5.07 2.107-7.967 0-2.897-.79-5.597-2.107-7.967 0-.066-.066-.066-.066-.066-2.765-4.74-7.901-7.967-13.827-7.967-5.86 0-11.062 3.226-13.827 7.967l-.066.066c-1.383 2.37-2.107 5.07-2.107 7.967 0 2.897.79 5.597 2.107 7.967 0 .066.066.066.066.066 2.765 4.74 7.901 7.967 13.827 7.967 5.86 0 11.062-3.226 13.827-7.967 0 0 0-.066.066-.066zm-28.774-7.44h5.465c.066 2.37.395 4.609.988 6.65h-4.609a14.155 14.155 0 0 1-1.844-6.65zm1.844-7.704h4.609c-.593 2.041-.922 4.28-.988 6.65H28.32a14.155 14.155 0 0 1 1.844-6.65zm27.918 6.65h-5.465c-.066-2.37-.395-4.609-.988-6.65h4.609a14.155 14.155 0 0 1 1.844 6.65zm-6.585 0h-7.77v-6.65h6.717c.658 1.975.987 4.28 1.053 6.65zm-7.77-7.77v-6.518c1.976.264 3.82 1.712 5.202 4.214.395.724.79 1.515 1.12 2.305h-6.321zm-1.053-6.518v6.519h-6.32c.328-.856.658-1.58 1.119-2.305 1.382-2.568 3.226-4.016 5.201-4.214zm0 7.638v6.65h-7.77c.067-2.37.396-4.609 1.054-6.65h6.716zm-7.77 7.704h7.77v6.65h-6.716c-.658-1.975-.987-4.28-1.053-6.65zm7.77 7.77v6.518c-1.975-.264-3.819-1.712-5.201-4.214a24.879 24.879 0 0 1-1.12-2.305h6.321zm1.054 6.518v-6.519h6.32c-.328.856-.658 1.58-1.119 2.305-1.382 2.568-3.226 4.016-5.201 4.214zm0-7.638v-6.65h7.77c-.067 2.37-.396 4.609-1.054 6.65h-6.716zm8.889-6.65h5.465a14.155 14.155 0 0 1-1.844 6.65h-4.609c.593-2.041.922-4.28.988-6.65zm2.963-8.823h-4.28c-.395-1.054-.79-1.976-1.317-2.897-.724-1.251-1.515-2.305-2.436-3.03a14.845 14.845 0 0 1 8.033 5.927zM38.92 14.512c-.922.79-1.712 1.778-2.436 3.029-.527.856-.922 1.843-1.317 2.897h-4.28c1.844-2.766 4.675-4.873 8.033-5.926zm-8.099 22.584h4.28c.395 1.054.79 1.976 1.317 2.897.724 1.251 1.515 2.305 2.436 3.03a14.845 14.845 0 0 1-8.033-5.927zm16.659 5.992c.922-.79 1.712-1.778 2.436-3.029.527-.856.922-1.843 1.317-2.897h4.28c-1.844 2.766-4.675 4.873-8.033 5.926z" fill="currentColor" fill-rule="evenodd"/></svg>