<svg width="29" height="30" viewBox="0 0 29 30" xmlns="http://www.w3.org/2000/svg"><title>blue/icon-ui-key-blue</title><path d="M18.09 12.62a8.658 8.658 0 0 0 .479-2.834c0-4.983-4.062-9.045-9.046-9.045C4.54.74.478 4.803.478 9.786c0 4.984 4.062 9.045 9.045 9.045.99 0 1.946-.17 2.833-.477l2.082 2.082h3.725c.356 0 .644.286.644.644v2.667c0 .584.468 1.058 1.058 1.058h2.667c.356 0 .645.289.645.65v2.687c0 .589.491 1.066 1.058 1.066h4.07c.354 0 .64-.277.64-.658v-5.076L18.091 12.619zM7.647 10.877c-1.707 0-3.072-1.365-3.072-3.037 0-1.673 1.365-3.038 3.072-3.038a3.045 3.045 0 0 1 3.038 3.038 3.045 3.045 0 0 1-3.038 3.037z" fill="#0A0A0A" fill-rule="evenodd"/></svg>