<svg width="96" height="96" viewBox="0 0 96 96" xmlns="http://www.w3.org/2000/svg"><title>icon-webinar</title><path d="M6.477 1.396C2.927 1.396 0 4.324 0 7.879c0 3.183 2.356 5.857 5.398 6.381v50.883c0 1.758 1.482 3.241 3.238 3.241h36.705v5.605L29.72 90.67a2.164 2.164 0 0 0 .124 3.049 2.16 2.16 0 0 0 3.047-.112l12.449-13.303v7.53a2.16 2.16 0 1 0 4.318 0v-7.53l12.449 13.303a2.16 2.16 0 0 0 3.656-.825 2.164 2.164 0 0 0-.485-2.112l-15.62-16.68v-5.605h36.705c1.756 0 3.238-1.483 3.238-3.241V14.26C92.644 13.736 95 11.062 95 7.879c0-3.555-2.926-6.483-6.477-6.483H6.477zm0 4.322h82.046c1.233 0 2.159.926 2.159 2.16 0 1.235-.926 2.161-2.16 2.161H6.478c-1.233 0-2.159-.926-2.159-2.16 0-1.235.926-2.161 2.16-2.161zm3.239 8.643h75.568v49.701H9.716v-49.7zm33.24 32.342l10.687-7.332-10.687-7.332v14.664zm-4-22.26l21.758 14.928-21.758 14.927V24.444z" fill="currentColor" fill-rule="nonzero"/></svg>