<svg width="44" height="32" viewBox="0 0 44 32" xmlns="http://www.w3.org/2000/svg"><title>blue/icon-ui-json-blue</title><path d="M0 14.414c.249 0 .528-.036.84-.108.31-.072.59-.198.838-.378.249-.18.46-.439.634-.775s.261-.757.261-1.261V4.757c0-.817.131-1.52.392-2.108A4.237 4.237 0 0 1 4.028 1.17a4.41 4.41 0 0 1 1.53-.883A5.582 5.582 0 0 1 7.347 0h2.722v3.027h-2.05c-.721 0-1.175.228-1.362.685-.186.456-.28.949-.28 1.477v6.775c0 .697-.136 1.291-.41 1.784a4.228 4.228 0 0 1-.97 1.207c-.372.312-.77.553-1.193.72-.422.169-.783.265-1.081.289v.072a5.11 5.11 0 0 1 1.081.234c.423.132.82.355 1.194.667.373.312.696.733.97 1.261.273.529.41 1.213.41 2.054v6.559c0 .528.093 1.02.28 1.477.186.457.64.685 1.36.685h2.052V32H7.347a5.582 5.582 0 0 1-1.79-.288 4.393 4.393 0 0 1-1.529-.883 4.237 4.237 0 0 1-1.063-1.478c-.261-.588-.392-1.29-.392-2.108V20.36c0-.576-.087-1.045-.26-1.405-.175-.36-.386-.643-.635-.847a2.027 2.027 0 0 0-.839-.414A3.753 3.753 0 0 0 0 17.586v-3.172zm13.8 9.442c0-.769.292-1.43.876-1.982.584-.553 1.287-.829 2.107-.829a3.05 3.05 0 0 1 2.089.793c.597.528.895 1.177.895 1.946 0 .769-.292 1.43-.877 1.982-.584.552-1.286.829-2.107.829-.398 0-.777-.072-1.137-.217a3.262 3.262 0 0 1-.951-.576 2.686 2.686 0 0 1-.653-.865 2.464 2.464 0 0 1-.242-1.081zm9.697 0c0-.769.292-1.43.876-1.982.584-.553 1.287-.829 2.107-.829a3.05 3.05 0 0 1 2.089.793c.597.528.895 1.177.895 1.946 0 .769-.292 1.43-.877 1.982-.584.552-1.286.829-2.107.829-.398 0-.777-.072-1.137-.217a3.262 3.262 0 0 1-.951-.576 2.686 2.686 0 0 1-.653-.865 2.464 2.464 0 0 1-.242-1.081zm19.766-6.27a3.65 3.65 0 0 0-.857.108c-.299.072-.572.21-.82.414-.25.204-.46.487-.635.847-.174.36-.261.829-.261 1.405v6.883c0 .817-.13 1.52-.392 2.108a4.237 4.237 0 0 1-1.063 1.478c-.447.396-.957.69-1.529.883a5.582 5.582 0 0 1-1.79.288h-2.723v-3.027h2.052c.72 0 1.175-.228 1.361-.685.187-.456.28-.949.28-1.477v-6.559c0-.84.137-1.525.41-2.054.274-.528.597-.949.97-1.261.373-.312.77-.535 1.193-.667a5.11 5.11 0 0 1 1.082-.234v-.072c-.299-.024-.66-.12-1.082-.288a4.372 4.372 0 0 1-1.193-.721 4.228 4.228 0 0 1-.97-1.207c-.273-.493-.41-1.087-.41-1.784V5.189a3.86 3.86 0 0 0-.28-1.477c-.186-.457-.64-.685-1.361-.685h-2.052V0h2.723c.622 0 1.218.096 1.79.288a4.393 4.393 0 0 1 1.53.883c.447.397.801.89 1.062 1.478s.392 1.29.392 2.108v7.135c0 .504.087.925.261 1.261.174.336.385.595.634.775.249.18.522.306.82.378.299.072.585.108.858.108v3.172z" fill="#0A0A0A" fill-rule="evenodd"/></svg>