<svg width="44" height="50" viewBox="0 0 44 50" xmlns="http://www.w3.org/2000/svg"><title>Network</title><path d="M29.024 29.786c.286-.192.476-.479.476-.861v-8.179c0-.334-.19-.67-.476-.86l-7.048-4.018s-.333-.143-.476-.143c-.19 0-.476.143-.476.143l-7.048 4.065c-.286.192-.476.479-.476.861v8.178c0 .335.19.67.476.861l7 4.113s.334.144.476.144c.19 0 .477-.144.477-.144l7.095-4.16zM28 27.734v.925l-.819.462-4.862 2.828-.819.514-.819-.463-4.862-2.827L15 28.71V21.102l.819-.462 4.862-2.827.819-.463.819.463 4.862 2.827.819.462V27.734zM8.732 17.547A.566.566 0 0 0 9 17.063v-4.6a.602.602 0 0 0-.268-.485l-3.964-2.26s-.188-.08-.268-.08a.787.787 0 0 0-.268.08L.268 12.005A.566.566 0 0 0 0 12.49v4.6c0 .189.107.377.268.485l3.937 2.313s.188.081.268.081c.107 0 .268-.08.268-.08l3.991-2.341zm-.982-.8L4.5 18.71l-3.25-1.937v-3.926L4.5 10.91l3.25 1.937v3.9zm.982 20.583A.566.566 0 0 0 9 36.845v-4.6a.602.602 0 0 0-.268-.484L4.768 29.5s-.188-.08-.268-.08a.787.787 0 0 0-.268.08L.268 31.788a.566.566 0 0 0-.268.484v4.6c0 .189.107.377.268.484l3.937 2.314s.188.08.268.08c.107 0 .268-.08.268-.08l3.991-2.34zm-.982-.793L4.5 38.5l-3.25-1.937v-3.926L4.5 30.7l3.25 1.937v3.9zm17.982 10.937A.566.566 0 0 0 26 46.99v-4.6a.602.602 0 0 0-.268-.484l-3.964-2.26s-.188-.08-.268-.08a.787.787 0 0 0-.268.08l-3.964 2.287a.566.566 0 0 0-.268.484v4.6c0 .188.107.377.268.484l3.937 2.314s.188.08.268.08c.107 0 .268-.08.268-.08l3.991-2.34zm-.982-.797L21.5 48.64l-3.25-1.937v-3.926l3.25-1.937 3.25 1.937v3.9zm18.282-9.347a.566.566 0 0 0 .268-.485v-4.6a.602.602 0 0 0-.268-.484l-3.964-2.26s-.188-.08-.268-.08a.787.787 0 0 0-.268.08l-3.964 2.287a.566.566 0 0 0-.268.484v4.6c0 .189.107.377.268.484l3.937 2.314s.188.08.268.08c.107 0 .268-.08.268-.08l3.991-2.34zm-.982-.813L38.8 38.48l-3.25-1.937v-3.926l3.25-1.937 3.25 1.937v3.9zm.982-18.97a.566.566 0 0 0 .268-.484v-4.6a.602.602 0 0 0-.268-.485l-3.964-2.26s-.188-.08-.268-.08a.787.787 0 0 0-.268.08l-3.964 2.287a.566.566 0 0 0-.268.484v4.6c0 .189.107.377.268.485l3.937 2.313s.188.081.268.081c.107 0 .268-.08.268-.08l3.991-2.341zm-.932-.83l-3.25 1.963-3.25-1.937v-3.926l3.25-1.937 3.25 1.937v3.9zM25.932 7.909a.566.566 0 0 0 .268-.484v-4.6a.602.602 0 0 0-.268-.485L21.968.08S21.78 0 21.7 0c-.107 0-.268.08-.268.08l-3.964 2.287a.566.566 0 0 0-.268.485v4.6c0 .188.107.376.268.484l3.937 2.313s.188.081.268.081c.107 0 .268-.08.268-.08l3.99-2.341zm-.982-.81L21.7 9.063l-3.25-1.938V3.197L21.7 1.26l3.25 1.937V7.1zm-4.2 28.251h1.5v3h-1.5v-3zM3.7 21.7h1.5v6H3.7v-6zm34.3 0h1.5v6H38v-6zM27.5 9.04l.693-1.306 5.078 2.985-.717 1.194L27.5 9.04zM10.293 38.86l.7-1.29 5.019 2.938-.57 1.25-5.149-2.898zm17.673 2.982l-.701-1.19 5.064-2.947.737 1.211-5.1 2.926zM10.938 11.931l-.735-1.282 4.924-2.862.753 1.278-4.942 2.866zm-.373 5.36l-.772 1.232 2.352 1.444.792-1.203-2.372-1.474zm23.083 1.439l-.81-1.23-2.51 1.53.828 1.23 2.492-1.53z" fill="#000" fill-rule="evenodd"/></svg>