<svg xmlns="http://www.w3.org/2000/svg" width="32" height="32" viewBox="0 0 32 32">
  <g>
    <path d="M15.9746863,0.118202792 L29.1423376,5.97049224 L29.1423376,14.7304987 C29.1423376,22.7070355 23.6357994,30.0776881 16.2357206,31.8900985 L15.9746863,31.9540304 L15.7136521,31.8900985 C8.31357328,30.0776881 2.80703509,22.7070355 2.80703509,14.7304987 L2.80703509,5.97049224 L15.9746863,0.118202792 Z M15.9746863,2.5198014 L5.00164363,7.39670927 L5.00164363,14.7304987 C5.00164363,21.6214771 9.70790663,28.0149905 15.9746863,29.6916117 C22.241466,28.0149905 26.947729,21.6214771 26.947729,14.7304987 L26.947729,7.39670927 L15.9746863,2.5198014 Z"/>
    <polygon points="13.87 17.936 22.081 9.724 23.708 11.35 13.87 21.188 8.804 16.122 10.43 14.496"/>
  </g>
</svg>
