<svg viewBox="0 0 96 96" xmlns="http://www.w3.org/2000/svg" preserveAspectRatio="xMidYMid meet"><title>icon-consulting-compass</title><g fill="none" fill-rule="evenodd"><path d="M75.095 87.194l-3.106-2.33-13.362-43.7c.315-1.056.49-2.17.49-3.325 0-.04-.005-.078-.005-.117.356-.207.7-.433 1.03-.674l14.952 48.908v1.236zM33.77 59.614l4.506-14.742c2.125 2.777 5.464 4.58 9.224 4.58s7.1-1.803 9.224-4.58l4.507 14.74H33.77zm-13.865 27.58v-1.236l14.952-48.91c.33.242.674.467 1.03.673 0 .042-.006.08-.006.12 0 1.154.177 2.268.492 3.32l-13.36 43.704-3.107 2.33zM41.69 18.968c1.16 0 2.265.232 3.28.644-2.026 2.092-3.28 4.933-3.28 8.065 0 .04.006.077.006.117-2.547 1.476-4.483 3.884-5.334 6.76-2.055-1.594-3.386-4.08-3.386-6.877 0-4.803 3.91-8.71 8.714-8.71zm2.905-10.162c0-1.6 1.303-2.903 2.905-2.903 1.602 0 2.905 1.302 2.905 2.903v7.64c-1.03.267-2.006.668-2.905 1.19-.9-.523-1.874-.923-2.905-1.19v-7.64zm8.715 27.58c-1.16 0-2.265-.23-3.28-.643 1.288-1.33 2.26-2.962 2.797-4.78 1.58 1.225 2.728 2.977 3.175 4.993-.848.277-1.75.43-2.692.43zm-8.342-.643c-1.013.412-2.12.644-3.278.644-.94 0-1.844-.154-2.694-.43.448-2.017 1.595-3.77 3.175-4.995.54 1.82 1.512 3.45 2.798 4.78zM47.5 29.13c.94 0 1.845.153 2.694.43-.4 1.806-1.364 3.397-2.694 4.592-1.33-1.195-2.295-2.786-2.694-4.592.85-.277 1.753-.43 2.694-.43zm0-7.927c1.522 1.366 2.562 3.255 2.83 5.384-.908-.226-1.853-.36-2.83-.36-.977 0-1.922.134-2.83.362.268-2.13 1.308-4.02 2.83-5.387zm0 25.345c-4.436 0-8.1-3.33-8.64-7.62.91.227 1.853.362 2.83.362 2.118 0 4.1-.577 5.81-1.57 1.71.993 3.692 1.57 5.81 1.57.977 0 1.92-.135 2.83-.363-.54 4.29-4.204 7.62-8.64 7.62zm14.524-18.87c0 2.795-1.33 5.282-3.386 6.876-.85-2.876-2.787-5.284-5.334-6.76 0-.04.006-.077.006-.117 0-3.132-1.254-5.973-3.28-8.065 1.015-.412 2.12-.644 3.28-.644 4.805 0 8.714 3.906 8.714 8.71zm14.98 48.295l-2.108-2c-.106.112-.222.213-.33.323l-12.082-39.52c1.527-1.966 2.445-4.425 2.445-7.1 0-6.402-5.214-11.61-11.62-11.61v-5.332c.386.06.77.1 1.156.17l.53-2.854c-.597-.11-1.193-.18-1.79-.264C52.72 5.07 50.354 3 47.5 3c-2.854 0-5.22 2.07-5.706 4.786-.597.084-1.193.154-1.79.264l.53 2.855c.387-.07.77-.11 1.156-.17v5.33c-6.406 0-11.62 5.21-11.62 11.612 0 2.674.92 5.133 2.444 7.097l-12.082 39.52c-.107-.11-.224-.21-.33-.322l-2.107 2c.475.498.98.972 1.48 1.45l-2.413 7.896L17 93l8.512-6.38 1.146-3.75c.31.186.612.39.923.565l1.422-2.53c-.495-.28-.98-.596-1.47-.9l5.348-17.49h29.238l5.346 17.49c-.49.305-.973.62-1.47.9l1.422 2.532c.313-.176.613-.38.923-.565l1.145 3.748L78 93v-7.474l-2.478-8.103c.5-.478 1.008-.95 1.482-1.45zM66 12.335c-1.643-.903-3.36-1.69-5.102-2.335L60 12.832c1.62.597 3.213 1.327 4.738 2.168L66 12.335zM75 18.813c-1.367-1.377-2.835-2.66-4.367-3.813L69 17.457c1.422 1.072 2.787 2.264 4.057 3.543L75 18.813zM83.48 39l2.52-.665c-.41-1.812-.947-3.605-1.595-5.335L82 34.05c.602 1.606 1.1 3.272 1.48 4.95M83 27.597C81.95 26 80.76 24.453 79.46 23L77 24.73c1.208 1.35 2.313 2.788 3.287 4.27L83 27.597z" fill="currentColor"/><path d="M88 44.36v5.59h-2.83v-5.59H88"/><path d="M87.823 44.36l-2.653.27c.108 1.18.164 2.38.164 3.57 0 .546-.01 1.088-.035 1.628l2.663.123c.025-.58.037-1.164.037-1.75 0-1.278-.058-2.57-.177-3.84M83 60.082l2.598.918c.592-1.782 1.063-3.625 1.402-5.475L84.3 55c-.312 1.717-.75 3.428-1.3 5.082M78 69.4l2.202 1.6c1.04-1.506 1.983-3.097 2.798-4.733L80.6 65c-.76 1.52-1.634 3-2.6 4.4M56 84.436L56.598 87c1.838-.39 3.654-.91 5.402-1.55L61.012 83c-1.62.592-3.308 1.076-5.012 1.436M33 85.45c1.757.642 3.574 1.164 5.403 1.55L39 84.436c-1.696-.357-3.383-.84-5.01-1.436L33 85.45zM48.008 86.1c-.933-.023-1.863-.033-2.794-.1L45 88.89c.983.07 1.977.106 2.952.106 1.063.02 2.047-.033 3.048-.106L50.79 86c-.914.067-1.85.1-2.782.1M35 12.835L34.106 10c-1.745.64-3.464 1.426-5.106 2.333L30.26 15c1.526-.842 3.12-1.57 4.74-2.165M9.822 48.167c0-1.29.06-2.594.178-3.87L7.192 44C7.062 45.378 7 46.78 7 48.17c0 .61.013 1.22.037 1.83l2.82-.132c-.024-.565-.035-1.13-.035-1.7M10.7 55l-2.7.523c.338 1.854.808 3.695 1.4 5.477l2.6-.915c-.55-1.653-.987-3.364-1.3-5.085M11 66.263c.817 1.638 1.758 3.23 2.796 4.737L16 69.4c-.965-1.4-1.84-2.88-2.596-4.4L11 66.263zM12 34.054L9.598 33C8.95 34.723 8.413 36.517 8 38.33l2.516.67c.385-1.68.884-3.345 1.484-4.946M19 24.733L16.542 23c-1.3 1.454-2.494 3-3.542 4.593L15.71 29c.973-1.482 2.082-2.916 3.29-4.267M26 17.46L24.37 15c-1.532 1.152-3.002 2.433-4.37 3.81L21.94 21c1.27-1.278 2.637-2.47 4.06-3.54" fill="currentColor"/></g></svg>