<svg xmlns="http://www.w3.org/2000/svg" width="128" height="128" viewBox="0 0 128 128">
  <g>
    <path d="M63.8987453,0.472811169 L116.56935,23.8819689 L116.56935,58.921995 C116.56935,90.8281421 94.5431976,120.310753 64.9428823,127.560394 L63.8987453,127.816122 L62.8546084,127.560394 C33.2542931,120.310753 11.2281403,90.8281421 11.2281403,58.921995 L11.2281403,23.8819689 L63.8987453,0.472811169 Z M63.8987453,6.45327467 L17.0779883,27.2625 L17.0779883,58.5549669 C17.0779883,87.9580076 37.1590909,115.238421 63.8987453,122.392378 C90.6383998,115.238421 110.719502,87.9580076 110.719502,58.5549669 L110.719502,27.2625 L63.8987453,6.45327467 Z"/>
    <polygon points="90.751 41.447 94.994 45.69 53.628 87.056 33.012 66.44 37.255 62.198 53.628 78.57"/>
  </g>
</svg>
