<svg data-name="icon" xmlns="http://www.w3.org/2000/svg" viewBox="0 0 96 96" preserveAspectRatio="xMidYMid meet"><title>data-shipping</title><path data-name="ship" d="M79 84.25H9.93a1.09 1.09 0 0 1-1.06-.83L3 59.91a1.1 1.1 0 0 1 .19-.91 1.12 1.12 0 0 1 .86-.42h14.69a1.08 1.08 0 0 1 1.09 1.08v1.84h25.75V42a1.08 1.08 0 0 1 1.09-1.08H54a1.21 1.21 0 0 1 .38.06v-5.23h-1.83a1.08 1.08 0 0 1-1.09-1.08V20a1.08 1.08 0 0 1 1.09-1.08h12.21a1 1 0 0 1-.07-.39v-2.97a1 1 0 0 1 .07-.38h-4.87a1.08 1.08 0 0 1-1.08-1.09V9.68a1.08 1.08 0 0 1 1.08-1.08h11.76a1.09 1.09 0 0 1 1.09 1.08v4.41a1.09 1.09 0 0 1-1.09 1.09h-4.86a1 1 0 0 1 .07.38v2.94a1 1 0 0 1-.07.39h4.86A1.08 1.08 0 0 1 72.74 20v10.26a1.12 1.12 0 0 1-.32.77l-4.09 4.09v18.82l2.25-.12v-5.93a1.08 1.08 0 0 1 1.08-1.08h13.22A1.08 1.08 0 0 1 86 47.89V53l6.21-.33a1 1 0 0 1 1 .48 1.07 1.07 0 0 1 .1 1.05L80 83.61a1.09 1.09 0 0 1-1 .64zm-68.22-2.18H78.3l5.63-12.53H7.64zM7.1 67.38h77.81L90.51 55l-5.57.29-13.15.69h-.12l-6.26.33v6.32a1.09 1.09 0 0 1-1.09 1.09H18.74a1.08 1.08 0 0 1-1.08-1.08v-1.9H5.44zM61 61.5h2.24v-6.26a1.09 1.09 0 0 1 1-1.09l1.94-.1a1.27 1.27 0 0 1 0-.28v-19.1a1.09 1.09 0 0 1 .31-.77l4.1-4.09v-8.75H53.63v12.52h1.86a1.08 1.08 0 0 1 1.08 1.09v16.16a1.09 1.09 0 1 1-2.17 0v-1.92a1.22 1.22 0 0 1-.4.09h-6.25v5.17h12.14A1.09 1.09 0 0 1 61 55.24zm-13.23 0h11.04v-5.18H47.75zM72.74 49v4.73l11.05-.58V49zM54 46.8a1.22 1.22 0 0 1 .38.07V43a1.22 1.22 0 0 1-.38.07h-6.25v3.71zM61 13h9.59v-2.23H61zm1.85 38.91h-2.96a1.09 1.09 0 0 1 0-2.17h2.94a1.09 1.09 0 1 1 0 2.17zm0-4.41h-2.96a1.09 1.09 0 0 1 0-2.17h2.94a1.09 1.09 0 1 1 0 2.17zm0-4.41h-2.96a1.09 1.09 0 0 1 0-2.17h2.94a1.09 1.09 0 1 1 0 2.17zm0-4.41h-2.96a1.09 1.09 0 0 1 0-2.17h2.94a1.09 1.09 0 1 1 0 2.17zm3-7.35H57a1.09 1.09 0 1 1 0-2.17h8.82a1.09 1.09 0 0 1 0 2.17zm1.46-4.41H57a1.09 1.09 0 1 1 0-2.17h10.24a1.09 1.09 0 1 1 0 2.17zm-15.5-10.27a4.77 4.77 0 1 1 4.76-4.76 4.77 4.77 0 0 1-4.76 4.76zm0-7.35a2.59 2.59 0 1 0 2.59 2.59 2.59 2.59 0 0 0-2.59-2.59z"/><g data-name="data-boxes"><path d="M32.74 38l6.5 3.74v7.46L32.76 53l-6.5-3.74v-7.5L32.74 38m0-2.17a2.2 2.2 0 0 0-1.09.29l-6.5 3.77a2.18 2.18 0 0 0-1.08 1.88v7.5a2.14 2.14 0 0 0 1.09 1.88l6.5 3.74a2.11 2.11 0 0 0 1.08.29 2.2 2.2 0 0 0 1.09-.29l6.49-3.76a2.19 2.19 0 0 0 1.09-1.89v-7.5a2.16 2.16 0 0 0-1.09-1.88l-6.5-3.74a2.21 2.21 0 0 0-1.08-.29z"/><path d="M32.72 46.63a1.08 1.08 0 0 1-.55-.15l-6.48-3.83a1.09 1.09 0 0 1-.38-1.49 1.1 1.1 0 0 1 1.49-.38l5.92 3.5 6-3.52a1.08 1.08 0 1 1 1.1 1.87l-6.52 3.85a1.08 1.08 0 0 1-.58.15z"/><path d="M32.76 54.05A1.08 1.08 0 0 1 31.68 53v-7.46a1.09 1.09 0 0 1 2.17 0V53a1.09 1.09 0 0 1-1.09 1.05zM12.2 38l6.51 3.74v7.46L12.23 53l-6.5-3.74v-7.5L12.2 38m0-2.17a2.25 2.25 0 0 0-1.09.29l-6.49 3.72a2.18 2.18 0 0 0-1.08 1.88v7.5a2.18 2.18 0 0 0 1.1 1.88l6.51 3.74a2.09 2.09 0 0 0 1.08.29 2.22 2.22 0 0 0 1.09-.29l6.49-3.76a2.16 2.16 0 0 0 1.08-1.89v-7.5a2.18 2.18 0 0 0-1.09-1.88l-6.5-3.74a2.22 2.22 0 0 0-1.09-.29z"/><path d="M12.19 46.63a1.08 1.08 0 0 1-.55-.15l-6.48-3.83a1.08 1.08 0 0 1 1.1-1.87l5.93 3.5 6-3.52a1.08 1.08 0 0 1 1.1 1.87l-6.52 3.85a1.08 1.08 0 0 1-.58.15z"/><path d="M12.23 54.05A1.09 1.09 0 0 1 11.14 53v-7.46a1.09 1.09 0 0 1 2.18 0V53a1.09 1.09 0 0 1-1.09 1.05zm10.51-34.19l6.5 3.74v7.5l-6.49 3.76-6.5-3.74v-7.5l6.5-3.76m0-2.18a2.11 2.11 0 0 0-1.09.3l-6.49 3.76a2.17 2.17 0 0 0-1.09 1.88v7.51a2.17 2.17 0 0 0 1.1 1.87l6.5 3.74a2.21 2.21 0 0 0 1.08.29 2.11 2.11 0 0 0 1.09-.3L30.34 33a2.17 2.17 0 0 0 1.09-1.88v-7.51a2.17 2.17 0 0 0-1.09-1.88L23.82 18a2.21 2.21 0 0 0-1.08-.29z"/><path d="M22.72 28.53a1.08 1.08 0 0 1-.55-.15l-6.48-3.83a1.08 1.08 0 0 1-.38-1.48 1.09 1.09 0 0 1 1.49-.39l5.92 3.51 6-3.53a1.08 1.08 0 1 1 1.1 1.87l-6.52 3.85a1.08 1.08 0 0 1-.58.15z"/><path d="M22.76 36a1.08 1.08 0 0 1-1.08-1.09v-7.46a1.09 1.09 0 1 1 2.17 0v7.41A1.09 1.09 0 0 1 22.76 36z"/></g></svg>