<svg viewBox="0 0 96 96" xmlns="http://www.w3.org/2000/svg" preserveAspectRatio="xMidYMid meet"><title>icon-transform-gears</title><g fill="#000000"><path d="M90.5343 67.9886c-.6214-1.051-1.39-2.0215-2.3495-2.9087l-2.772 1.176c-.688-.494-1.4265-.893-2.1974-1.196l-.5168-2.9676c-1.2134-.3115-2.4667-.4445-3.7183-.395L77.8515 64.49c-.8175.134-1.624.3685-2.4002.707l-2.4627-1.7322c-1.051.6214-2.0215 1.39-2.9087 2.3495l1.176 2.772c-.494.688-.893 1.4263-1.196 2.1972l-2.9676.5168c-.3117 1.2127-.4445 2.4668-.395 3.7184l2.7926 1.1287c.134.8175.3685 1.624.707 2.4002l-1.7322 2.4626c.6214 1.051 1.39 2.0216 2.3495 2.909l2.772-1.176c.688.4932 1.4263.8924 2.1972 1.195l.5168 2.9675c1.2127.3118 2.4668.4446 3.7184.395l1.1287-2.7925c.8175-.134 1.624-.3685 2.4002-.707l2.4626 1.7322c1.051-.6213 2.0216-1.39 2.909-2.3494l-1.176-2.772c.4932-.688.8924-1.4266 1.195-2.1975l2.9675-.517c.3118-1.2126.4446-2.4667.395-3.7183l-2.7925-1.1287c-.134-.8174-.3685-1.624-.707-2.4l1.7322-2.4627zm-6.8057 11.746c-2.8908 2.335-7.1272 1.885-9.463-1.0056-2.335-2.8908-1.885-7.1272 1.0055-9.463 2.891-2.336 7.128-1.885 9.464 1.0055 2.336 2.8906 1.885 7.1272-1.0055 9.463zM73.6146 50.253c.4966-3.394.531-6.8728 0-10.506l-8.134-2.3242c-.6317-2.2933-1.5414-4.471-2.6926-6.494l4.1104-7.3982c-2.101-2.823-4.606-5.328-7.429-7.429l-7.398 4.1104c-2.0233-1.1512-4.1998-2.061-6.4942-2.6926l-2.324-8.134c-3.3942-.4966-6.873-.531-10.5063 0l-2.325 8.134c-2.2934.6317-4.471 1.5414-6.494 2.6926l-7.398-4.1104c-2.823 2.101-5.328 4.606-7.429 7.429l4.1103 7.398c-1.1513 2.0233-2.061 4.1998-2.6927 6.4942l-8.134 2.324c-.4966 3.3942-.531 6.873 0 10.5063l8.134 2.325c.6317 2.2934 1.5414 4.471 2.6926 6.494L9.101 66.47c2.101 2.823 4.606 5.328 7.429 7.429l7.398-4.1104c2.0234 1.1513 4.2 2.061 6.4943 2.6927l2.324 8.134c3.3942.4967 6.873.531 10.5063 0l2.3242-8.134c2.2942-.6316 4.471-1.5413 6.494-2.6925l7.398 4.1105c2.823-2.101 5.328-4.606 7.429-7.429l-4.1104-7.398c1.1512-2.0234 2.061-4.2 2.6926-6.4943l8.134-2.324zm-35.614 19.459c-13.6475 0-24.7125-11.0632-24.7125-24.7126 0-13.6475 11.064-24.7125 24.713-24.7125 13.6498 0 24.713 11.063 24.713 24.712-.002 13.648-11.0654 24.713-24.7127 24.713z"/><path d="M45 44.9996C45 48.8654 41.8664 52 38 52s-7-3.1338-7-7.0004S34.1336 38 38 38s7 3.1338 7 6.9996z"/><path d="M50.1875 44.9992c0-6.7308-5.456-12.1867-12.1875-12.1867-6.732 0-12.1875 5.455-12.1875 12.1867 0 6.7322 5.4558 12.1883 12.1875 12.1883 6.7312 0 12.1875-5.457 12.1875-12.1883zm2.8125 0C53 53.2837 46.2846 60 38 60c-8.285 0-15-6.7153-15-15.0008C23 36.714 29.7147 30 38 30c8.2848 0 15 6.715 15 14.9992z"/></g></svg>