<svg viewBox="0 0 96 96" xmlns="http://www.w3.org/2000/svg" preserveAspectRatio="xMidYMid meet"><title>iconintegration-puzzle</title><g fill="#000000"><path d="M87.867 60.267c-.52 0-1.035.067-1.534.2v-27.46c0-.606-.355-1.155-.91-1.4-.548-.245-1.196-.146-1.65.26-.405.364-1.087.8-2.04.8-1.69 0-3.066-1.376-3.066-3.067 0-1.69 1.375-3.067 3.066-3.067.953 0 1.635.436 2.04.8.452.406 1.1.508 1.65.26.555-.245.91-.794.91-1.4V11.2c0-.846-.687-1.533-1.533-1.533H73.867c.132-.5.2-1.014.2-1.534C74.067 4.75 71.317 2 67.933 2 64.55 2 61.8 4.75 61.8 8.133c0 .52.067 1.035.2 1.534H11.2c-.846 0-1.533.687-1.533 1.533v49.266c-.5-.132-1.014-.2-1.534-.2C4.75 60.266 2 63.016 2 66.4c0 3.383 2.75 6.133 6.133 6.133.52 0 1.035-.067 1.534-.2V84.8c0 .846.687 1.533 1.533 1.533h12.466c-.132.5-.2 1.014-.2 1.534 0 3.382 2.75 6.133 6.134 6.133 3.383 0 6.133-2.75 6.133-6.133 0-.52-.067-1.035-.2-1.534h28.994c.606 0 1.155-.355 1.402-.91.245-.552.142-1.198-.26-1.65-.368-.405-.8-1.087-.8-2.04 0-1.69 1.372-3.066 3.063-3.066 1.692 0 3.067 1.375 3.067 3.066 0 .953-.434 1.635-.8 2.04-.403.45-.505 1.098-.26 1.65.248.555.796.91 1.4.91H84.8c.846 0 1.533-.687 1.533-1.533V72.334c.5.132 1.014.2 1.534.2 3.382 0 6.133-2.75 6.133-6.134 0-3.383-2.75-6.133-6.133-6.133zM48.624 27.594c.554-.246.91-.795.91-1.4v-13.46h14.992c.606 0 1.155-.356 1.402-.91.247-.553.144-1.2-.26-1.65-.366-.406-.8-1.088-.8-2.04 0-1.692 1.374-3.067 3.065-3.067C69.625 5.067 71 6.442 71 8.133c0 .953-.435 1.635-.8 2.04-.404.45-.506 1.098-.26 1.65.247.555.795.91 1.4.91h11.927v10.933c-.5-.132-1.014-.2-1.534-.2-3.382 0-6.133 2.75-6.133 6.134 0 3.383 2.75 6.133 6.133 6.133.52 0 1.035-.067 1.534-.2v10.934H71.34c-.605 0-1.154.355-1.4.91-.248.552-.145 1.198.26 1.65.365.405.8 1.087.8 2.04 0 1.69-1.375 3.066-3.067 3.066-1.69 0-3.066-1.375-3.066-3.066 0-.953.435-1.635.8-2.04.403-.45.506-1.098.26-1.65-.248-.555-.795-.91-1.4-.91H49.532v-13.46c0-.606-.355-1.155-.91-1.4-.548-.245-1.196-.146-1.65.26-.405.364-1.087.8-2.04.8-1.69 0-3.066-1.376-3.066-3.067 0-1.69 1.375-3.067 3.066-3.067.953 0 1.635.436 2.04.8.452.407 1.1.508 1.65.26zm-35.89-14.86h33.733v10.932c-.5-.132-1.014-.2-1.534-.2-3.382 0-6.133 2.75-6.133 6.134 0 3.383 2.75 6.133 6.133 6.133.52 0 1.035-.067 1.534-.2v10.934H35.534c.132-.5.2-1.014.2-1.534 0-3.382-2.75-6.133-6.134-6.133-3.383 0-6.133 2.75-6.133 6.133 0 .52.067 1.035.2 1.534H12.732V12.733zm34.642 55.672c-.554.246-.91.795-.91 1.4v13.46h-13.46c-.605 0-1.154.356-1.4.91-.247.553-.145 1.2.26 1.65.365.406.8 1.088.8 2.04 0 1.692-1.375 3.067-3.066 3.067-1.69 0-3.067-1.375-3.067-3.066 0-.953.436-1.635.8-2.04.404-.45.507-1.098.26-1.65-.247-.555-.794-.91-1.4-.91h-13.46v-13.46c0-.606-.355-1.155-.91-1.4-.548-.245-1.196-.146-1.65.26-.405.364-1.087.8-2.04.8-1.69 0-3.066-1.376-3.066-3.067 0-1.69 1.375-3.067 3.066-3.067.953 0 1.635.436 2.04.8.452.406 1.1.507 1.65.26.555-.245.91-.794.91-1.4v-13.46h13.46c.606 0 1.155-.355 1.4-.91.248-.552.146-1.198-.26-1.65-.364-.405-.8-1.087-.8-2.04 0-1.69 1.376-3.066 3.067-3.066 1.69 0 3.067 1.375 3.067 3.066 0 .953-.436 1.635-.8 2.04-.404.45-.507 1.098-.26 1.65.247.555.794.91 1.4.91h13.46v13.46c0 .606.355 1.155.91 1.4.552.25 1.198.147 1.65-.26.405-.364 1.087-.8 2.04-.8 1.69 0 3.066 1.376 3.066 3.067 0 1.69-1.375 3.067-3.066 3.067-.953 0-1.635-.436-2.04-.8-.452-.406-1.1-.507-1.65-.26zm40.49 1.06c-.952 0-1.634-.435-2.04-.798-.45-.407-1.098-.506-1.65-.26-.554.244-.91.793-.91 1.4v13.46h-9.4c.133-.5.2-1.015.2-1.535 0-3.382-2.75-6.133-6.133-6.133-3.382 0-6.133 2.75-6.133 6.133 0 .52.067 1.035.2 1.534H49.532V72.334c.5.132 1.014.2 1.534.2 3.382 0 6.133-2.75 6.133-6.134 0-3.383-2.75-6.133-6.135-6.133-.52 0-1.035.067-1.534.2V49.532H62c-.133.5-.2 1.014-.2 1.534 0 3.382 2.75 6.133 6.133 6.133s6.134-2.75 6.134-6.135c0-.52-.068-1.035-.2-1.534h9.4v13.46c0 .607.355 1.156.91 1.4.552.25 1.198.148 1.65-.26.405-.363 1.087-.8 2.04-.8 1.69 0 3.066 1.377 3.066 3.068 0 1.69-1.375 3.066-3.066 3.066z"/><path d="M16 16h3v3h-3zm6 0h3v3h-3zm6 0h3v3h-3zm-12 6h3v3h-3zm6 0h3v3h-3zm6 0h3v3h-3zm-12 6h3v3h-3zm6 0h3v3h-3zm6 0h3v3h-3zm25 0h3v3h-3zm0 6h3v3h-3zm6 0h3v3h-3zm-6 6h3v3h-3zm6 0h3v3h-3zm6 0h3v3h-3zM22 59h3v3h-3zm6 0h3v3h-3zm6 0h3v3h-3zm-12 6h3v3h-3zm6 0h3v3h-3zm6 0h3v3h-3zm-12 6h3v3h-3zm6 0h3v3h-3zm6 0h3v3h-3zm43-12h3v3h-3zm-12 6h3v3h-3zm6-3h3v3h-3zm6 3h3v3h-3zm-6 3h3v3h-3zm6 3h3v3h-3zm0-18h3v3h-3zm0 24h3v3h-3zM28 53h3v3h-3zm12 12h3v3h-3zM28 77h3v3h-3zM16 65h3v3h-3z"/></g></svg>