<svg viewBox="0 0 46 45" xmlns="http://www.w3.org/2000/svg"><title>Ruby Gem icon</title><path d="M32.3498 31.8182l10.703-16.2873-14.35.9563-.0693.061 3.7163 15.2696zm11.9544-16.3707L32.9432 32.736l9.4104 9.4104-.7072.7072-9.6863-9.6864-13.651 10.726L17 43.5l13.9608-10.8194L16.5 28.5 9.4957 44 4.5 32.6806l-3.0528 4.543-.8944-.4472 3.512-6.029-3.512-7.0238.8944-.4472 3.3112 6.6223 10.9925-3.3455 11.866-10.4425 3.2903-10.915-4.6944-3.286.5734-.8193 4.756 3.3292 7.734-3.8668.447.8944-7.316 3.658L44.78 15.416l-.4758.0317zM31.303 31.7773L27.7136 17.358l-11.155 9.8164 14.7444 4.603zm-15.5745-4.172l-10.836 3.298L9.4955 41.5l6.233-13.8947zM31.753 5.8617l-3.0887 9.6262 13.5557-.904-10.467-8.7225zm-5.8675-4.8484l13.785-.52 5.8455 4.783-2.5474 38.2112-37.7368 1.02L.5 37.1468V23.882l4.0528-8.1056.0936-.13L17.247 3.046l8.6385-2.0327zM17.753 3.954L5.411 16.2963 1.5 24.118v12.735l4.2682 6.6396 36.2632-.98 2.4526-36.789-5.1544-4.217-13.2625.491-8.314 1.9564z" fill="#000000"/></svg>