<svg width="50" height="38" viewBox="0 0 50 38" xmlns="http://www.w3.org/2000/svg"><title>BYOD</title><path d="M10.031 29.974c-1.422 0-2.716-1.164-2.716-2.587 0-1.423 1.164-2.587 2.716-2.587 1.553 0 2.717 1.164 2.717 2.587 0 1.423-1.294 2.587-2.717 2.587zM40.17 11.83l-.647-.517-.518.647c-1.034 1.164-1.422 3.234-1.293 4.786.13 1.164.517 2.328 1.164 3.233-.517.26-1.164.518-1.681.776-1.165.389-3.493.245-3.493.245H2.68C.974 21 0 21.52 0 23.12c0 2.129.35 4.31 1.236 6.302l.517.905v.13C4.857 35.63 9.715 38.045 16.55 38c8.117-.053 21.162-5.086 25.69-15.951 2.974.13 5.95-.647 7.372-3.492L50 17.91l-.647-.388c-1.681-1.035-4.01-1.164-5.95-.647-.258-2.07-1.552-3.751-3.233-5.045zM28 14h-5v5h5v-5zm0-7h-5v5h5V7zm0-7h-5v5h5V0zm7 14h-5v5h5v-5zm-21 0H9v5h5v-5zm7 0h-5v5h5v-5zM7 14H2v5h5v-5zm14-7h-5v5h5V7zm-7 0H9v5h5V7z" fill="#000" fill-rule="evenodd"/></svg>