<svg width="32" height="32" viewBox="0 0 32 32" xmlns="http://www.w3.org/2000/svg"><title>small/icon-webinar-sm</title><path d="M2.429 1.132C1.637 1.132 1 1.782 1 2.591c0 .808.637 1.459 1.429 1.459H29.57C30.363 4.05 31 3.4 31 2.59c0-.808-.637-1.459-1.429-1.459H2.43zm.357 3.647v17.143c0 .202.159.364.357.364h25.714a.36.36 0 0 0 .357-.364V4.779H2.786zm12.5 18.237h1.428v1.903l5.179 5.642c.254.28.23.767-.045 1.026-.274.26-.75.235-1.004-.046l-4.13-4.502v2.542c0 .403-.32.73-.714.73a.722.722 0 0 1-.714-.73v-2.542l-4.13 4.502c-.254.28-.73.305-1.004.046-.275-.26-.299-.746-.045-1.026l5.179-5.642v-1.903zM12.454 7.25l8.093 5.552-8.093 5.553V7.25z" fill="currentColor" fill-rule="nonzero"/></svg>