<svg width="50" height="45" viewBox="0 0 50 45" xmlns="http://www.w3.org/2000/svg"><title>&gt;_</title><path d="M2.497 0h45.006A2.494 2.494 0 0 1 50 2.5v40c0 1.38-1.114 2.5-2.497 2.5H2.497A2.494 2.494 0 0 1 0 42.5v-40C0 1.12 1.114 0 2.497 0zM1.5 6.245C1.5 5.541 1.817 5 2.496 5h45.008c.688 0 .996.416.996 1.245v36.26c0 .459-.434.995-.996.995H2.496c-.451 0-.996-.386-.996-.995V6.245zm7.063 6.506c-.587-.36-1.063-.088-1.063.596v3.392c0 .69.479 1.553 1.051 1.917l5.937 3.776c.58.37.584.977 0 1.362l-5.937 3.917c-.58.383-1.051 1.258-1.051 1.942v3.392c0 .69.474.952 1.051.59 0 0 14.241-8.828 14.241-10.534 0-1.706-14.229-10.35-14.229-10.35zm14.128 24.432v1.578c0 .684.551 1.239 1.247 1.239h19.815A1.25 1.25 0 0 0 45 38.761v-1.578c0-.685-.551-1.24-1.247-1.24H23.938a1.25 1.25 0 0 0-1.247 1.24z" fill="#000" fill-rule="evenodd"/></svg>