<svg xmlns="http://www.w3.org/2000/svg" width="32" height="32" viewBox="0 0 32 32"><path fill-rule="evenodd" d="M15.22 25.131H8.08A31.568 31.568 0 0 1 6.72 23.35h8.5v1.782zm0 1.961v4.024c-1.92-1.014-3.712-2.355-5.372-4.024h5.372zm0-5.704H5.431c-.34-.566-.66-1.16-.962-1.783H15.22v1.783zm0-3.744H3.618a30.427 30.427 0 0 1-.626-1.783H15.22v1.783zm0-3.743H2.432a40.282 40.282 0 0 1-.41-1.783H15.22V13.9zm0-3.744H1.661a51.968 51.968 0 0 1-.256-1.783H15.22v1.783zm0-3.744H1.19c-.079-.86-.142-1.745-.19-2.653L15.22.552v5.861zm2.002-5.86l14.22 3.207c-.405 7.722-1.963 13.73-4.674 18.023-2.712 4.294-5.893 7.405-9.546 9.333V.552z"/></svg>