<svg width="24" height="24" viewBox="0 0 24 24" xmlns="http://www.w3.org/2000/svg"><title>icon-faq-q</title><path d="M12 24c6.627 0 12-5.373 12-12S18.627 0 12 0 0 5.373 0 12s5.373 12 12 12zm4.956-7.17h-1.717l-.71-.726a4.563 4.563 0 0 1-2.519.727c-1.199 0-2.263-.407-3.193-1.219-1.012-.895-1.518-2.037-1.518-3.428 0-1.363.479-2.5 1.436-3.41.93-.883 2.027-1.324 3.293-1.324 1.148 0 2.178.387 3.088 1.16 1.094.93 1.64 2.143 1.64 3.639 0 1.172-.431 2.213-1.294 3.123l1.494 1.459zM13.2 13.088l1.312 1.306c.578-.601.868-1.345.868-2.232 0-.973-.323-1.787-.967-2.444-.645-.656-1.446-.984-2.403-.984-.968 0-1.765.328-2.39.984-.63.653-.944 1.479-.944 2.479 0 .977.325 1.775.973 2.396.676.641 1.447.961 2.315.961.59 0 1.123-.134 1.6-.404l-2.128-2.062H13.2z" fill="#0A0A0A" fill-rule="evenodd"/></svg>