<svg viewBox="0 0 96 96" xmlns="http://www.w3.org/2000/svg" preserveAspectRatio="xMidYMid meet"><title>icon-dollar-sign</title><g fill="#000000"><path d="M48 94C22.5952 94 2 73.4048 2 48S22.5952 2 48 2s46 20.5952 46 46-20.5952 46-46 46zm0-4.2593c23.0528 0 41.7407-18.688 41.7407-41.7407 0-23.0528-18.688-41.7407-41.7407-41.7407C24.9472 6.2593 6.2593 24.9473 6.2593 48c0 23.0528 18.688 41.7407 41.7407 41.7407z"/><path d="M54.431 58.842c0-1.55-.4864-2.825-1.4592-3.8286-.9728-1.0206-2.594-1.9317-4.864-2.7333-2.2702-.82-4.0364-1.5775-5.2977-2.269-4.197-2.2785-6.296-5.65-6.296-10.1154 0-3.025.91-5.514 2.7298-7.4636 1.8198-1.951 4.288-3.1075 7.405-3.4723V23h4.324v6.0146c3.1348.4556 5.5584 1.8044 7.271 4.0466 1.7107 2.2226 2.566 5.1213 2.566 8.6928h-6.5412c.0017-2.2964-.5115-4.1008-1.539-5.4123-1.008-1.332-2.3858-1.9962-4.1343-1.9962-1.729 0-3.0802.475-4.053 1.4218-.973.9476-1.4592 2.3058-1.4592 4.0737 0 1.5864.478 2.8614 1.4325 3.826.973.95 2.6124 1.851 4.9186 2.7078 2.3064.857 4.116 1.6492 5.431 2.378 1.3167.7295 2.4237 1.5676 3.3244 2.5152.9015.9298 1.595 2.0046 2.0815 3.2262.4863 1.2216.7295 2.652.7295 4.2925 0 3.0795-.9366 5.577-2.811 7.4908-1.855 1.913-4.4497 3.043-7.7825 3.39V75h-4.298v-5.3038c-3.5676-.4012-6.315-1.695-8.2437-3.882C35.956 63.6266 35 60.7278 35 57.12h6.5665c0 2.2956.5686 4.072 1.7024 5.33 1.1535 1.2572 2.7754 1.8867 4.8653 1.8867 2.0546 0 3.6128-.5005 4.6754-1.504 1.0817-1.001 1.622-2.333 1.622-3.9915l-.001.001z"/></g></svg>