<svg width="32" height="32" viewBox="0 0 32 32" xmlns="http://www.w3.org/2000/svg"><title>icon-linkedin</title><path d="M2 7.267A5.255 5.255 0 0 1 7.267 2h17.466A5.255 5.255 0 0 1 30 7.267v17.466A5.255 5.255 0 0 1 24.733 30H7.267A5.255 5.255 0 0 1 2 24.733V7.267zm24.114 11.575c0-3.922-2.095-5.748-4.889-5.748-2.255 0-3.263 1.242-3.827 2.11v.042h-.028l.028-.041v-1.81h-4.247c.058 1.198 0 12.77 0 12.77h4.247v-7.132c0-.382.03-.762.141-1.035.307-.763 1.005-1.553 2.179-1.553 1.536 0 2.15 1.171 2.15 2.888v6.833h4.246v-7.324zM8.709 7.238c-1.453 0-2.403.953-2.403 2.206 0 1.226.923 2.208 2.347 2.208h.028c1.481 0 2.402-.982 2.402-2.208-.028-1.253-.921-2.206-2.374-2.206zm-2.15 18.928h4.244V13.394H6.558v12.772z" fill-rule="nonzero" fill="#0077B5"/></svg>