<svg width="31" height="32" viewBox="0 0 31 32" xmlns="http://www.w3.org/2000/svg"><title>blue/icon-ui-hamburger-blue</title><path d="M28.186 4.571a2.283 2.283 0 0 0 2.29-2.285A2.28 2.28 0 0 0 28.186 0H2.29A2.283 2.283 0 0 0 0 2.286 2.28 2.28 0 0 0 2.29 4.57h25.896zm0 13.715A2.283 2.283 0 0 0 30.476 16a2.28 2.28 0 0 0-2.29-2.286H2.29A2.283 2.283 0 0 0 0 16a2.28 2.28 0 0 0 2.29 2.286h25.896zm0 13.714a2.283 2.283 0 0 0 2.29-2.286 2.28 2.28 0 0 0-2.29-2.285H2.29A2.283 2.283 0 0 0 0 29.714 2.28 2.28 0 0 0 2.29 32h25.896z" fill="#0A0A0A" fill-rule="evenodd"/></svg>