<svg xmlns="http://www.w3.org/2000/svg" width="36" height="36" viewBox="0 0 36 36"><title>Datica Logomark. Copyright 2017 Datica</title><path fill="#010101" fill-rule="evenodd" d="M.17 14.495l2.317-2.59 8.082 9.638-10.4-7.048zm2.317 12.812v-3.496L14.92 25.55 2.487 27.307zm10.286 7.937l-2.336-2.589 10.398-7.049-8.062 9.638zm12.923-.983l-3.466-.359 3.032-12.226.433 12.585zm8.967-9.41l-2.826 2.04-5.896-11.112 8.722 9.071zm.377-13.021l-.735 3.42-11.793-4.308 12.527.888zm-8.402-9.921l1.732 3.042-11.642 4.706 9.91-7.748zM13.77.189l3.316 1.077-5.5 11.32L13.77.189zM3.052 7.522l3.183-1.418 3.467 12.113-6.65-10.695zM0 20.182l1.413-3.193 10.662 6.67L0 20.183zm6.16 11.452L5.086 28.31l12.358-2.192L6.16 31.634zM18.386 36l-3.033-1.739 7.743-9.94L18.386 36zm12-4.951l-3.41.737-.885-12.567 4.295 11.83zM36 19.313l-2.053 2.835-9.043-8.75L36 19.313zM32.345 6.841l.358 3.477-12.546-.434L32.345 6.84zM21.306 0l2.581 2.343-9.607 8.108L21.306 0zM8.533 2.343h3.486l-1.752 12.473L8.534 2.343z"/></svg>