<svg width="47" height="50" viewBox="0 0 47 50" xmlns="http://www.w3.org/2000/svg"><title>Rectangle-25</title><path d="M30 2.261C30 .871 29.244 0 27.75 0H2.25C1.25 0 0 1.057 0 2.261v45.478C0 49.075 1.213 50 2.25 50h25.5c1.232 0 2.25-.66 2.25-2.261V37h-1.5v3c.015.71-.255 1-1.5 1H3c-.88 0-1.443 0-1.5-1V5.37c-.026-.927.376-1.606 1.376-1.62h24.248c1.155.048 1.444.356 1.376 1.25v2.5H30V2.261zM15 47.5a1.875 1.875 0 1 0 0-3.75 1.875 1.875 0 0 0 0 3.75zM8.75 1.25h12.5V2.5H8.75V1.25zm35.854 27.474c1.08-1.852 1.646-3.96 1.646-6.224 0-2.263-.617-4.372-1.646-6.224 0-.052-.052-.052-.052-.052C42.392 12.521 38.38 10 33.75 10c-4.578 0-8.642 2.52-10.802 6.224l-.052.052c-1.08 1.852-1.646 3.96-1.646 6.224 0 2.263.617 4.372 1.646 6.224 0 .052.052.052.052.052C25.108 32.479 29.12 35 33.75 35c4.578 0 8.642-2.52 10.802-6.224 0 0 0-.052.052-.052zm-22.48-5.812h4.27c.051 1.851.309 3.6.772 5.195h-3.601a11.058 11.058 0 0 1-1.44-5.195zm1.44-6.019h3.602c-.463 1.595-.72 3.344-.772 5.195h-4.27a11.058 11.058 0 0 1 1.44-5.195zm21.812 5.195h-4.27c-.051-1.851-.309-3.6-.772-5.195h3.601a11.058 11.058 0 0 1 1.44 5.195zm-5.145 0h-6.07v-5.195h5.247c.515 1.543.772 3.344.823 5.195zm-6.07-6.07v-5.092c1.544.206 2.984 1.337 4.064 3.292.309.566.618 1.183.875 1.8h-4.938zm-.823-5.092v5.093H28.4c.257-.67.515-1.235.875-1.8 1.08-2.007 2.52-3.139 4.063-3.293zm0 5.967v5.195h-6.07c.052-1.851.31-3.6.824-5.195h5.246zm-6.07 6.019h6.07v5.195h-5.246c-.515-1.543-.772-3.344-.823-5.195zm6.07 6.07v5.092c-1.543-.206-2.983-1.337-4.063-3.292a19.436 19.436 0 0 1-.875-1.8h4.938zm.824 5.092v-5.093H39.1c-.257.67-.515 1.235-.875 1.8-1.08 2.007-2.52 3.139-4.063 3.293zm0-5.967v-5.195h6.07c-.052 1.851-.31 3.6-.824 5.195h-5.246zm6.944-5.195h4.27a11.058 11.058 0 0 1-1.44 5.195h-3.602c.463-1.595.72-3.344.772-5.195zm2.315-6.893h-3.344c-.308-.824-.617-1.544-1.029-2.264-.565-.977-1.183-1.8-1.903-2.366a11.598 11.598 0 0 1 6.276 4.63zm-13.015-4.682c-.72.618-1.337 1.39-1.903 2.367-.411.668-.72 1.44-1.029 2.263h-3.343c1.44-2.16 3.652-3.807 6.275-4.63zM24.08 28.981h3.344c.308.824.617 1.544 1.029 2.264.565.977 1.183 1.8 1.903 2.366a11.598 11.598 0 0 1-6.276-4.63zm13.015 4.682c.72-.618 1.337-1.39 1.903-2.367.411-.668.72-1.44 1.029-2.263h3.343c-1.44 2.16-3.652 3.807-6.275 4.63z" fill="#000" fill-rule="evenodd"/></svg>