<svg width="95" height="70" viewBox="0 0 95 70" xmlns="http://www.w3.org/2000/svg" xmlns:xlink="http://www.w3.org/1999/xlink"><title>iconbook-academy</title><defs><path d="M3.466.687H34.33c.58 0 1.054.473 1.054 1.054v47.575c0 .581-.473 1.053-1.054 1.053H1.09a1.054 1.054 0 0 1-1.053-1.053V4.114A3.431 3.431 0 0 1 3.466.687z" id="a"/></defs><g fill="none" fill-rule="evenodd"><g fill="#000" fill-rule="nonzero"><path d="M16.948 12.85h22.757a1.5 1.5 0 1 0 0-3H16.948a1.5 1.5 0 1 0 0 3zM16.948 22.28h22.757a1.5 1.5 0 1 0 0-3H16.948a1.5 1.5 0 1 0 0 3zM16.948 31.71h22.757a1.5 1.5 0 1 0 0-3H16.948a1.5 1.5 0 1 0 0 3zM16.948 41.14h22.757a1.5 1.5 0 1 0 0-3H16.948a1.5 1.5 0 1 0 0 3zM16.948 50.569h22.757a1.5 1.5 0 1 0 0-3H16.948a1.5 1.5 0 1 0 0 3z"/><path d="M87.347 6.846v-.424a4.058 4.058 0 0 0-4.054-4.054H52.428A6.417 6.417 0 0 0 47.5 4.676a6.415 6.415 0 0 0-4.928-2.308H11.707a4.058 4.058 0 0 0-4.054 4.054v.423C4.706 7.527 2.5 10.168 2.5 13.319v43.048a6.657 6.657 0 0 0 6.65 6.65h31.381c.678 2.927 3.301 5.118 6.431 5.118h1.075c3.13 0 5.753-2.191 6.431-5.118H85.85a6.657 6.657 0 0 0 6.65-6.65V13.319c0-3.151-2.206-5.792-5.153-6.473zM52.428 5.369h30.865c.581 0 1.054.473 1.054 1.054v47.575c0 .581-.473 1.053-1.054 1.053h-33.24A1.054 1.054 0 0 1 49 53.998V8.796a3.431 3.431 0 0 1 3.428-3.427zM10.653 6.422c0-.581.473-1.054 1.054-1.054h30.865A3.432 3.432 0 0 1 46 8.796v45.201c0 .581-.473 1.053-1.053 1.053h-33.24a1.055 1.055 0 0 1-1.054-1.053V6.422zM89.5 56.368a3.654 3.654 0 0 1-3.65 3.65H53.145a1.5 1.5 0 0 0-1.5 1.5l.001.005-.001.005a3.611 3.611 0 0 1-3.607 3.607h-1.075a3.613 3.613 0 0 1-3.607-3.618 1.5 1.5 0 0 0-1.5-1.5H9.15a3.654 3.654 0 0 1-3.65-3.65V13.319a3.65 3.65 0 0 1 2.153-3.321v43.998a4.058 4.058 0 0 0 4.054 4.053h33.24c.367 0 .715-.065 1.053-.156v3.091a1.5 1.5 0 1 0 3 0v-3.091c.338.092.687.156 1.053.156h33.24a4.058 4.058 0 0 0 4.054-4.053V9.999a3.648 3.648 0 0 1 2.153 3.32v43.049z"/></g><g transform="translate(48.962 4.682)"><mask id="b" fill="#fff"><use xlink:href="#a"/></mask><g mask="url(#b)" fill="#000" fill-rule="nonzero"><path d="M52.924 12.373H39.83a4.333 4.333 0 0 0-4.219-3.378 4.333 4.333 0 0 0-4.328 4.33c0 1.402.673 2.648 1.712 3.439l-2.263 5.99a4.262 4.262 0 0 0-3.18.785l-7.859-6.076c.07-.308.11-.627.11-.957 0-.805-.224-1.557-.609-2.203L32.942-1.251a.945.945 0 0 0-.082-1.336.944.944 0 0 0-1.337.082l-13.63 15.423a4.303 4.303 0 0 0-4.399-.254l-.797-.618a4.298 4.298 0 0 0 .547-2.1 4.333 4.333 0 0 0-4.328-4.328 4.333 4.333 0 0 0-4.193 3.273H-5.954a4.338 4.338 0 0 0-3.241-3.164V-7.578a.949.949 0 0 0-.95-.95.949.949 0 0 0-.95.95V5.725A4.338 4.338 0 0 0-14.34 8.89h-3.888c-.519 0-.95.425-.95.95 0 .526.431.95.95.95h3.836a4.335 4.335 0 0 0 4.245 3.485c.945 0 1.819-.309 2.531-.826l11.52 10.17a4.296 4.296 0 0 0-.584 2.162 4.334 4.334 0 0 0 3.515 4.249v6.878a4.338 4.338 0 0 0-3.407 3.3h-9.355a4.334 4.334 0 0 0-4.22-3.379 4.334 4.334 0 0 0-4.329 4.33c0 1.153.458 2.201 1.196 2.978l-6.673 9.472a.95.95 0 0 0 1.553 1.094l6.701-9.51a4.303 4.303 0 0 0 1.553.293 4.333 4.333 0 0 0 4.22-3.379H3.43a4.335 4.335 0 0 0 3.344 3.283v2.341a.95.95 0 0 0 1.9 0v-.66l.064-.001V45.34a4.337 4.337 0 0 0 3.132-3.232h9.052a4.333 4.333 0 0 0 4.22 3.377 4.333 4.333 0 0 0 4.328-4.329c0-1.623-.901-3.04-2.228-3.781l2.288-6.06c.184.032.374.045.57.045a4.29 4.29 0 0 0 2.958-1.173l15.15 11.717a.942.942 0 0 0 .576.203.942.942 0 0 0 .753-.374.942.942 0 0 0-.171-1.33L34.126 28.617c.197-.489.304-1.02.304-1.584a4.336 4.336 0 0 0-1.926-3.597l2.218-5.878a4.333 4.333 0 0 0 5.109-3.287h13.093c.52 0 .95-.424.95-.95a.951.951 0 0 0-.95-.948zm-63.071.001a2.431 2.431 0 0 1-2.428-2.428 2.431 2.431 0 0 1 2.428-2.428A2.431 2.431 0 0 1-7.72 9.946a2.431 2.431 0 0 1-2.428 2.428zm0 31.212a2.431 2.431 0 0 1-2.428-2.428 2.432 2.432 0 0 1 2.428-2.43 2.432 2.432 0 0 1 2.428 2.43 2.431 2.431 0 0 1-2.428 2.428zm25.622-29.508c1.12 0 2.054.764 2.335 1.796l-.068.077.115.09c.03.15.047.306.047.465a2.431 2.431 0 0 1-2.428 2.429 2.43 2.43 0 0 1-2.428-2.429 2.43 2.43 0 0 1 2.427-2.428zm-6.56-6.56a2.431 2.431 0 0 1 2.428 2.428 2.431 2.431 0 0 1-2.428 2.428 2.431 2.431 0 0 1-2.428-2.428 2.431 2.431 0 0 1 2.428-2.428zm-15.27 4.511c.21-.382.365-.799.453-1.24H4.67a4.335 4.335 0 0 0 4.245 3.485c.937 0 1.803-.302 2.511-.81l.589.453a4.301 4.301 0 0 0 .196 5.422l-2.392 2.702a4.295 4.295 0 0 0-4.63.18L-6.354 12.028zM5.22 25.78a2.431 2.431 0 0 1 2.428-2.428 2.431 2.431 0 0 1 2.429 2.428 2.431 2.431 0 0 1-2.429 2.429A2.431 2.431 0 0 1 5.22 25.78zm2.428 17.805a2.431 2.431 0 0 1-2.428-2.428 2.432 2.432 0 0 1 2.428-2.429 2.432 2.432 0 0 1 2.429 2.43 2.431 2.431 0 0 1-2.429 2.427zm19.92-2.427a2.431 2.431 0 0 1-2.429 2.428 2.431 2.431 0 0 1-2.428-2.428 2.432 2.432 0 0 1 2.428-2.43 2.432 2.432 0 0 1 2.428 2.43zm-2.156-4.316c-.091-.006-.18-.013-.273-.013a4.333 4.333 0 0 0-4.22 3.38h-9.05a4.338 4.338 0 0 0-3.134-3.237v-7.007a4.333 4.333 0 0 0 3.242-4.185c0-.907-.282-1.749-.761-2.445l2.53-2.863a4.318 4.318 0 0 0 5.104-1.263l7.448 5.754a4.327 4.327 0 0 0 1.444 5.7l-2.33 6.179zm7.118-9.807c0 .114-.006.222-.025.33a2.377 2.377 0 0 1-.988 1.634 2.375 2.375 0 0 1-1.286.456c-.044.007-.088.007-.133.007a2.43 2.43 0 0 1-.93-4.675 2.43 2.43 0 0 1 .86-.178c.026-.006.045-.006.07-.006.665 0 1.267.266 1.703.703.45.437.73 1.051.73 1.73zm3.081-11.282a2.431 2.431 0 0 1-2.428-2.429c0-1.34 1.089-2.429 2.428-2.429a2.431 2.431 0 0 1 2.428 2.43 2.431 2.431 0 0 1-2.428 2.428zM7.722 54.155a.95.95 0 0 0-.95.95v2.458a.95.95 0 0 0 1.9 0v-2.458a.95.95 0 0 0-.95-.95z"/><path d="M7.722 49.239a.95.95 0 0 0-.95.95v2.458a.95.95 0 0 0 1.9 0V50.19a.95.95 0 0 0-.95-.95zM7.722 59.072a.95.95 0 0 0-.95.95v2.458a.95.95 0 0 0 1.9 0v-2.458a.95.95 0 0 0-.95-.95z"/></g></g></g></svg>