<svg xmlns="http://www.w3.org/2000/svg" viewBox="0 0 96 96"><title>icon-cloud-download</title><path d="M40.8 73H29.6c-.8 0-1.6.8-1.6 1.6s0 .8.8 1.6l19.3 18.5 19.2-18.5c.8-.8.8-1.6 0-2.4 0 0-.8-.8-1.6-.8H54.5V59.4H40.8V73zm35.8-48c0-1 .6-1.6.6-2.8 0-10.8-8.6-19.4-19.4-19.4h-1.2a22 22 0 0 0-20.6 16c-1.7-.6-4-.6-5.7-.6a16.5 16.5 0 0 0-17.1 15.5c0 1.1 0 2.8.6 4h-.6c-5.7.5-10.3 5.1-10.9 10.8 0 5.7 4.6 9.7 9.7 10.9h29.2v-24c0-.6.6-1.2 1.2-1.2h10.8c.6 0 1.2.6 1.2 1.2v24h22.8l3.4-.6c8-1.1 13.2-8 12.6-16a19.4 19.4 0 0 0-16.6-17.7z"/></svg>