<svg xmlns="http://www.w3.org/2000/svg" width="96" height="96" viewBox="0 0 96 96"><path d="M48 92c24.3 0 44-19.7 44-44S72.3 4 48 4 4 23.7 4 48s19.7 44 44 44zm0 3C22.043 95 1 73.957 1 48S22.043 1 48 1s47 21.043 47 47-21.043 47-47 47z"/><path d="M18.99 49h51.108v-3H18.99z"/><path d="M71.79 45.335v4.242l-2.121-2.121 2.121-2.121zM48.456 26.243V22l25.456 25.456-25.456 25.456v-4.243l21.213-21.213-21.213-21.213zM71.79 45.335v4.242l-2.121-2.121 2.121-2.121zM48.456 26.243V22l25.456 25.456-25.456 25.456v-4.243l21.213-21.213-21.213-21.213z"/></svg>