<svg width="29" height="31" viewBox="0 0 29 31" xmlns="http://www.w3.org/2000/svg"><title>blue/icon-ui-storage-blue</title><g fill="#0A0A0A" fill-rule="evenodd"><path d="M14.095 25.418C8.392 25.394 2.7 23.975 0 21.272v3.452c0 3.378 6.325 6.119 14.4 6.154 8.075-.035 14.4-2.776 14.4-6.154V20.56c-2.1 3.166-8.513 4.83-14.705 4.857M24.535 9.01c-2.584 1.078-6.044 1.812-9.743 1.812h-.02c-3.7 0-7.16-.734-9.744-1.812-2.516-1.05-3.41-2.324-3.41-3.016 0-.692.894-1.845 3.41-2.895 2.584-1.078 6.044-1.687 9.743-1.687h.021c3.7 0 7.16.585 9.743 1.663 2.517 1.05 3.41 2.274 3.41 2.966 0 .691-.893 1.918-3.41 2.969M14.4 0C6.5.005.3 2.672 0 5.966v5.278c0 3.378 6.325 6.12 14.4 6.155 8.075-.036 14.4-2.777 14.4-6.155V5.966C28.8 2.672 22.3.005 14.4 0"/><path d="M0 14.288v3.548c0 3.378 6.325 6.119 14.4 6.154 8.075-.035 14.4-2.776 14.4-6.154v-3.548c-2.4 2.917-8.468 4.45-14.405 4.475C8.466 18.737 2.7 17.205 0 14.288"/></g></svg>