<svg width="44" height="52" viewBox="0 0 44 52" xmlns="http://www.w3.org/2000/svg"><title>icon-share</title><g fill="none" fill-rule="evenodd" opacity=".829"><path d="M17 14h-6v21h21V14h-6v3h3v15H14V17h3v-3z" fill="#626262" fill-rule="nonzero"/><path fill="#626262" fill-rule="nonzero" d="M23 25V3.68h-3V25z"/><path d="M23.66 2.473h-4.243l2.121 2.122 2.122-2.122zm2.216 6.46l4.217-.026L21.538.352l-8.66 8.66 4.269-.026 4.391-4.391 4.338 4.338zm-2.216-6.46h-4.243l2.121 2.122 2.122-2.122zm2.216 6.46l4.217-.026L21.538.352l-8.66 8.66 4.269-.026 4.391-4.391 4.338 4.338z" fill="#626262" fill-rule="nonzero"/><path d="M1.678 50.556a2.95 2.95 0 0 1-1.194-1.74l1.32-.576c.16.52.428.938.804 1.254.376.316.876.474 1.5.474.48 0 .882-.102 1.206-.306.324-.204.486-.514.486-.93 0-.392-.114-.682-.342-.87-.228-.188-.594-.334-1.098-.438l-1.188-.252C1.684 46.868.94 46.052.94 44.724c0-.488.126-.916.378-1.284s.614-.654 1.086-.858c.472-.204 1.024-.306 1.656-.306.84 0 1.55.174 2.13.522.58.348.962.866 1.146 1.554L6.1 45c-.136-.496-.382-.878-.738-1.146-.356-.268-.814-.402-1.374-.402-.464 0-.838.102-1.122.306a.984.984 0 0 0-.426.846c0 .344.102.614.306.81.204.196.542.346 1.014.45l1.236.264c.76.16 1.34.43 1.74.81.4.38.6.93.6 1.65 0 .496-.124.942-.372 1.338-.248.396-.618.708-1.11.936-.492.228-1.09.342-1.794.342-.976 0-1.77-.216-2.382-.648zM16.712 51h-1.548v-3.72h-3.828V51H9.788v-8.52h1.548v3.564h3.828V42.48h1.548V51zm7.936-2.244h-3.336L20.544 51h-1.572l3.168-8.52h1.68L26.988 51h-1.572l-.768-2.244zm-.408-1.176l-.996-2.88a7.235 7.235 0 0 1-.252-.912h-.024c-.056.28-.14.584-.252.912l-.996 2.88h2.52zm8.056 0h-1.5V51h-1.548v-8.52h3.432c1.032 0 1.782.234 2.25.702.468.468.702 1.086.702 1.854 0 .544-.148 1.028-.444 1.452-.296.424-.744.72-1.344.888L35.872 51h-1.704l-1.872-3.42zm-1.5-1.152h1.62c.552 0 .956-.124 1.212-.372s.384-.588.384-1.02c0-.92-.532-1.38-1.596-1.38h-1.62v2.772zM44 49.788V51h-5.616v-8.52h5.532v1.212h-3.984v2.34h3.78v1.2h-3.78v2.556H44z" fill="#606060"/></g></svg>