<svg width="65" height="65" viewBox="0 0 65 65" xmlns="http://www.w3.org/2000/svg"><title>icon-k8</title><g fill="currentColor" fill-rule="evenodd"><path d="M32.475 11.726c-.65 0-1.179.586-1.179 1.31l.003.032c-.001.099-.006.217-.003.303.016.417.107.736.161 1.12.1.823.183 1.504.131 2.138-.05.24-.225.458-.382.61l-.028.498c-.707.059-1.42.166-2.13.328a15.16 15.16 0 0 0-7.701 4.4c-.13-.09-.358-.253-.426-.303-.21.028-.423.093-.7-.068-.527-.355-1.008-.845-1.589-1.435-.266-.283-.46-.552-.775-.824-.072-.062-.182-.145-.262-.209a1.4 1.4 0 0 0-.821-.31c-.363-.012-.711.13-.94.416-.406.509-.275 1.287.29 1.737l.018.013c.077.063.173.144.244.196.336.248.642.375.977.572.705.435 1.29.796 1.753 1.231.18.193.212.533.237.68l.377.338a15.248 15.248 0 0 0-2.405 10.632l-.493.143c-.13.168-.314.432-.506.512-.607.19-1.29.26-2.113.347-.387.032-.72.013-1.13.09-.091.018-.217.05-.316.074l-.01.002-.018.005c-.694.168-1.14.806-.997 1.436.144.629.822 1.012 1.521.86.005 0 .013 0 .018-.002.008-.001.015-.005.023-.007.097-.022.22-.046.304-.068.404-.108.696-.267 1.058-.406.78-.28 1.425-.513 2.055-.604.262-.02.54.162.677.24l.514-.089a15.336 15.336 0 0 0 6.797 8.486l-.215.514c.078.2.163.47.106.667-.23.593-.621 1.219-1.067 1.917-.217.323-.437.573-.633.942-.046.088-.105.224-.15.317-.304.648-.081 1.394.5 1.675.586.281 1.313-.016 1.627-.665l.003-.003v-.002c.045-.092.108-.213.146-.3.167-.382.222-.71.34-1.08.312-.783.483-1.605.913-2.117.117-.14.308-.195.507-.248l.267-.483a15.225 15.225 0 0 0 10.876.028l.252.453c.202.065.423.1.602.365.321.548.54 1.198.808 1.982.118.37.176.698.343 1.08.038.087.101.21.146.302.314.652 1.043.95 1.63.668.58-.28.804-1.027.5-1.675-.045-.093-.107-.23-.153-.317-.195-.37-.416-.617-.633-.94-.446-.698-.816-1.277-1.045-1.87-.095-.306.017-.497.091-.696-.045-.05-.14-.34-.196-.476a15.338 15.338 0 0 0 6.794-8.546c.152.023.418.07.504.088.177-.118.34-.27.66-.245.629.091 1.274.325 2.054.605.363.139.655.3 1.058.408.085.022.207.044.304.065l.023.008.018.002c.699.15 1.378-.232 1.52-.861.144-.63-.301-1.268-.996-1.435-.101-.024-.245-.063-.343-.081-.41-.078-.744-.059-1.13-.091-.824-.086-1.507-.156-2.113-.347-.247-.096-.423-.39-.509-.511l-.476-.139c.247-1.785.18-3.643-.247-5.502a15.251 15.251 0 0 0-2.208-5.105l.418-.375c.019-.212.002-.433.222-.667.463-.435 1.047-.797 1.752-1.232.335-.196.644-.324.98-.571.076-.056.18-.145.26-.21.565-.45.695-1.228.289-1.737-.406-.509-1.193-.557-1.758-.106-.08.064-.19.147-.262.21-.316.271-.512.54-.778.823-.581.59-1.062 1.082-1.59 1.438-.228.133-.562.087-.714.078l-.448.32a15.444 15.444 0 0 0-9.784-4.727c-.01-.157-.024-.44-.027-.527-.154-.146-.34-.272-.386-.589-.051-.634.035-1.315.134-2.138.054-.384.145-.703.161-1.12.003-.095-.002-.233-.003-.335 0-.724-.527-1.31-1.178-1.31zm-1.476 9.141l-.35 6.183-.025.012a1.04 1.04 0 0 1-1.65.796l-.01.005-5.069-3.594A12.146 12.146 0 0 1 31 20.867zm2.954 0c2.681.33 5.16 1.544 7.061 3.405l-5.036 3.57-.018-.007a1.04 1.04 0 0 1-1.652-.793l-.005-.003-.35-6.172zM22.057 26.58l4.628 4.14-.004.025a1.038 1.038 0 0 1-.408 1.785l-.006.02-5.932 1.713a12.138 12.138 0 0 1 1.722-7.683zm20.803.002a12.3 12.3 0 0 1 1.519 3.71c.306 1.333.383 2.664.257 3.95l-5.964-1.717-.005-.025a1.04 1.04 0 0 1-.408-1.785l-.002-.013 4.603-4.12zM31.525 31.04h1.897l1.178 1.473-.423 1.838-1.702.819-1.707-.822-.423-1.838 1.18-1.47zm6.08 5.04c.08-.003.16.004.239.019l.01-.013 6.137 1.038a12.15 12.15 0 0 1-4.913 6.172l-2.383-5.755.008-.01a1.04 1.04 0 0 1 .902-1.45zm-10.307.026a1.04 1.04 0 0 1 .939 1.448l.018.023-2.358 5.696A12.203 12.203 0 0 1 21 37.142l6.085-1.032.01.013c.067-.013.136-.019.204-.018zm5.14 2.496a1.03 1.03 0 0 1 .485.103c.206.1.366.256.466.443h.023l2.999 5.42c-.39.13-.79.242-1.199.335a12.19 12.19 0 0 1-6.65-.343l2.991-5.41h.005c.18-.335.52-.535.88-.548z"/><path d="M32.262 1.953a4.151 4.151 0 0 0-1.576.403L9.145 12.645a4.155 4.155 0 0 0-2.229 2.77L1.603 38.534a4.11 4.11 0 0 0 .793 3.457l14.908 18.538a4.196 4.196 0 0 0 3.22 1.537l23.908-.005c1.232 0 2.451-.58 3.22-1.534l14.903-18.54a4.123 4.123 0 0 0 .796-3.456L58.03 15.41a4.154 4.154 0 0 0-2.228-2.768L34.26 2.352a4.17 4.17 0 0 0-2-.399zm.026 3.851a3.64 3.64 0 0 1 1.742.348l18.783 8.97a3.622 3.622 0 0 1 1.943 2.415l4.64 20.157a3.594 3.594 0 0 1-.694 3.015L45.708 56.874a3.659 3.659 0 0 1-2.808 1.338l-20.846.004a3.659 3.659 0 0 1-2.808-1.34l-13-16.162a3.582 3.582 0 0 1-.692-3.014l4.634-20.158a3.624 3.624 0 0 1 1.943-2.416l18.781-8.974c.43-.205.9-.324 1.376-.348z"/></g></svg>