<svg width="32" height="32" viewBox="0 0 32 32" xmlns="http://www.w3.org/2000/svg"><title>blue/icon-ui-redpoint-expand-blue</title><path d="M8.946 12.34a.992.992 0 0 0 1.41.006l1.99-1.99a1 1 0 0 0 0-1.41l-4.53-4.53a.998.998 0 0 1 .002-1.411L10.116.707c.39-.39.256-.707-.292-.707H1C.447 0 0 .451 0 .999v8.825c0 .552.316.68.698.293l2.316-2.34a.99.99 0 0 1 1.402.004l4.53 4.56zm20.05 11.842a1.002 1.002 0 0 1-1.412.002l-4.53-4.53a.995.995 0 0 0-1.41 0l-1.99 1.99a.994.994 0 0 0 0 1.405l4.53 4.5a.992.992 0 0 1-.002 1.407l-2.298 2.298c-.39.39-.256.707.292.707H31a1 1 0 0 0 .999-.995v-8.794c0-.55-.316-.678-.707-.288l-2.298 2.298zm-7.351-11.836a1 1 0 0 0 1.409 0l4.53-4.53a.992.992 0 0 1 1.412.01l2.257 2.281c.39.396.708.265.708-.283V1a1 1 0 0 0-.995-1h-8.794c-.55 0-.678.316-.288.707l2.298 2.298a1 1 0 0 1 .002 1.411l-4.53 4.53a.995.995 0 0 0 0 1.41l1.99 1.99zm-11.29 7.308a1 1 0 0 0-1.409 0l-4.53 4.53a.992.992 0 0 1-1.402 0l-2.316-2.34c-.385-.39-.698-.255-.698.293v8.825c0 .552.451 1 .999 1.003l8.825.031c.552.002.682-.312.292-.703l-2.298-2.298a1.002 1.002 0 0 1-.002-1.411l4.53-4.53a.995.995 0 0 0 0-1.41l-1.99-1.99z" fill="#0A0A0A" fill-rule="evenodd"/></svg>