<svg width="40" height="36" viewBox="0 0 40 36" xmlns="http://www.w3.org/2000/svg"><title>&gt;_</title><path d="M0 2C0 .895.892 0 1.997 0h36.006C39.106 0 40 .89 40 2v32c0 1.105-.892 2-1.997 2H1.997A1.995 1.995 0 0 1 0 34V2zm1 2.996c0-.55.453-.996.997-.996h36.006c.55 0 .997.438.997.996v29.008c0 .55-.453.996-.997.996H1.997A.992.992 0 0 1 1 34.004V4.996zm17.234 13.485c0-1.365-11.383-8.28-11.383-8.28-.47-.289-.851-.07-.851.477v2.713c0 .552.383 1.243.84 1.534l4.75 3.02c.465.296.468.782 0 1.09L6.84 22.17c-.464.306-.84 1.006-.84 1.554v2.713c0 .552.38.762.84.472 0 0 11.394-7.062 11.394-8.427zm.916 10.274a1 1 0 0 0-.997.991v1.263c0 .547.44.991.997.991h15.852a1 1 0 0 0 .998-.991v-1.263a.991.991 0 0 0-.998-.991H19.15z" fill="#0A0A0A" fill-rule="evenodd"/></svg>