<svg data-name="Layer 1" xmlns="http://www.w3.org/2000/svg" viewBox="0 0 96 96" preserveAspectRatio="xMidYMid meet"><title>cubes-data</title><path d="M47.9 16.68L80 35.1l.07 37L48 90.62 16 72.19l-.07-37 32-18.54m0-3a3 3 0 0 0-1.51.4l-32 18.55a3 3 0 0 0-1.5 2.6l.07 37a3 3 0 0 0 1.5 2.6l32.05 18.42a3 3 0 0 0 1.49.4 3 3 0 0 0 1.51-.4l32-18.55a3 3 0 0 0 1.5-2.6L83 35.1a3 3 0 0 0-1.5-2.6L49.39 14.08a3 3 0 0 0-1.49-.4z"/><path d="M47.93 5.38l16 9.21v18.49L48 42.35l-16-9.21V14.65l16-9.27m0-3a3 3 0 0 0-1.5.4l-16 9.27a3 3 0 0 0-1.49 2.6v18.49a3 3 0 0 0 1.51 2.6L46.5 45a3 3 0 0 0 3 0l16-9.28a3 3 0 0 0 1.5-2.65V14.59A3 3 0 0 0 65.45 12l-16-9.21a3 3 0 0 0-1.5-.4z"/><path d="M47.9 25.58a1.45 1.45 0 0 1-.76-.21l-16-9.43a1.5 1.5 0 0 1 1.52-2.58l15.2 9 15.3-9a1.5 1.5 0 0 1 1.52 2.58l-16.02 9.43a1.48 1.48 0 0 1-.76.21z"/><path d="M48 43.85a1.5 1.5 0 0 1-1.5-1.5V24.08a1.5 1.5 0 0 1 3 0v18.27a1.5 1.5 0 0 1-1.5 1.5zM73.5 49.81l16 9.22v18.48l-16 9.27-16-9.21V59.08l16-9.27m0-3a3 3 0 0 0-1.5.41l-16 9.27a3 3 0 0 0-1.49 2.6v18.49a3 3 0 0 0 1.51 2.59l16 9.22a3.08 3.08 0 0 0 1.5.39 3 3 0 0 0 1.5-.4l16-9.27a3 3 0 0 0 1.49-2.6V59.02a3 3 0 0 0-1.51-2.6l-16-9.21a3 3 0 0 0-1.5-.4z"/><path d="M73.47 70a1.51 1.51 0 0 1-.77-.21l-16-9.42a1.5 1.5 0 0 1 1.53-2.59l15.2 9 15.29-9a1.5 1.5 0 1 1 1.53 2.59L74.23 69.8a1.5 1.5 0 0 1-.76.2z"/><path d="M73.57 88.28a1.5 1.5 0 0 1-1.5-1.5V68.51a1.5 1.5 0 1 1 3 0v18.27a1.5 1.5 0 0 1-1.5 1.5zM22.43 49.81l16 9.22v18.48l-16 9.27-16-9.21V59.08l16-9.27m0-3a3 3 0 0 0-1.5.41l-16 9.27a3 3 0 0 0-1.49 2.6v18.49A3 3 0 0 0 5 80.17l16 9.22a3.08 3.08 0 0 0 1.5.39 3 3 0 0 0 1.5-.4l16-9.27a3 3 0 0 0 1.49-2.6V59.02a3 3 0 0 0-1.49-2.6l-16-9.21a3 3 0 0 0-1.5-.4z"/><path d="M22.4 70a1.45 1.45 0 0 1-.76-.21l-16-9.42a1.5 1.5 0 0 1 1.56-2.58l15.2 9 15.3-9a1.5 1.5 0 0 1 1.52 2.59L23.16 69.8a1.48 1.48 0 0 1-.76.2z"/><path d="M22.5 88.28a1.5 1.5 0 0 1-1.5-1.5V68.51a1.5 1.5 0 0 1 3 0v18.27a1.5 1.5 0 0 1-1.5 1.5z"/></svg>