<svg width="32" height="32" viewBox="0 0 32 32" xmlns="http://www.w3.org/2000/svg"><title>icon-twitter</title><path d="M2.582 24.14c0 .14.07.267.208.38.231.159.643.394 1.235.704C6.283 26.408 8.651 27 11.13 27c3.09 0 5.898-.808 8.423-2.424a14.604 14.604 0 0 0 3.206-2.784c.934-1.085 1.677-2.217 2.227-3.396a17.858 17.858 0 0 0 1.235-3.545c.273-1.184.4-2.335.382-3.452v-.494c1.082-.79 1.929-1.691 2.539-2.706a.656.656 0 0 0 .083-.254c0-.122-.05-.24-.139-.324a.436.436 0 0 0-.318-.14c-.065 0-.176.037-.334.112-.276.094-.55.19-.825.289a2.64 2.64 0 0 1-.23.078c.241-.273.49-.642.75-1.107.26-.465.389-.805.389-1.022 0-.12-.05-.236-.139-.316a.463.463 0 0 0-.333-.135.412.412 0 0 0-.222.071c-1.055.573-2.04.963-2.956 1.17C23.749 5.54 22.412 5 20.858 5c-1.591 0-2.947.564-4.066 1.691-1.12 1.128-1.679 2.49-1.679 4.087 0 .282.019.513.055.69a14.323 14.323 0 0 1-4.524-1.14A13.941 13.941 0 0 1 6.732 7.79a53.81 53.81 0 0 1-1.555-1.65.529.529 0 0 0-.389-.169c-.11 0-.226.076-.346.226-.24.366-.43.815-.569 1.346A6.144 6.144 0 0 0 3.664 9.1c0 1.4.43 2.621 1.29 3.664l-.401-.197c-.232-.103-.403-.155-.514-.155a.576.576 0 0 0-.395.141.466.466 0 0 0-.16.367c0 .986.25 1.921.75 2.805a5.8 5.8 0 0 0 2.025 2.113l-.166-.027a.294.294 0 0 1-.076-.015 2.486 2.486 0 0 0-.077-.021.187.187 0 0 0-.042-.007.413.413 0 0 0-.311.14.445.445 0 0 0-.133.31c0 .01.01.062.028.156.3.954.84 1.811 1.568 2.487a5.623 5.623 0 0 0 2.567 1.375c-1.61 1.004-3.386 1.508-5.328 1.508-.129 0-.337-.014-.625-.043-.212-.011-.425-.02-.638-.027a.413.413 0 0 0-.312.14.46.46 0 0 0-.132.324z" fill="#1DA1F2" fill-rule="evenodd"/></svg>