<svg width="42" height="47" viewBox="0 0 42 47" xmlns="http://www.w3.org/2000/svg"><title>VMs</title><path d="M0 4v7c0 1.998 2 4 4 4h15.039c.32 0 .961.55.961 1.099V19H4c-1.982.061-4.08 2.021-4 4v6c-.091 3.188 2 5.005 4.196 5h14.833c.324 0 .971.726.971 1.09V39c-.605.217-2.227.602-3 3H1s-1 0-1 1 1 1 1 1h16c.473 1.35 1.82 3.022 4 3 2.18-.022 3.41-1.527 4-3h16s1.025 0 1.025-1S41 42 41 42H25c-.473-1.323-1.18-2.425-3-3v-3.87c0-.377.674-1.13 1.01-1.13H38c2 0 4.082-1.875 4-5v-5c.05-3.028-2-4.933-4-5H22v-2.898c0-.55.641-1.102.962-1.102H38c1.98-.048 3.902-1.854 4-4V4c0-2-1.969-4-4-4H4C2.01 0 0 2.06 0 4zm38 17c1 .02 1.997 1 2 2v6.905c.05 1.095-1 2.1-2 2.095H4c-1.013-.02-1.994-.945-2-2v-7c.011-.945 1-1.984 2-2h34zm-24.5 4a1.5 1.5 0 1 0 0 3 1.5 1.5 0 0 0 0-3zm-6 0a1.5 1.5 0 1 0 0 3 1.5 1.5 0 0 0 0-3zM38 2c1.033.022 2 .97 2 2v7c0 1.038-.993 2.02-2 2H4c-1.003 0-2-.979-2-2V4c0-1.003.95-2 2-2h34zM7.5 6a1.5 1.5 0 1 0 0 3 1.5 1.5 0 0 0 0-3zm6 0a1.5 1.5 0 1 0 0 3 1.5 1.5 0 0 0 0-3zM21 40.5c1.41 0 2.5 1.09 2.5 2.5s-1.09 2.5-2.5 2.5-2.5-1.09-2.5-2.5 1.09-2.5 2.5-2.5z" fill="#000" fill-rule="evenodd"/></svg>