<svg width="38" height="32" viewBox="0 0 38 32" xmlns="http://www.w3.org/2000/svg"><title>blue/icon-ui-warning-blue</title><path d="M20.275 1.038C19.876.368 19.355 0 18.833 0c-.522 0-1.043.339-1.441 1.01L.508 29.517C-.288 30.859.356 32 1.949 32h33.769c1.592 0 2.237-1.139 1.441-2.48L20.275 1.038zM2.709 30.667c-.731 0-1.022-.51-.642-1.153L18.105 2.426c.377-.636.985-.642 1.366 0l16.077 27.088c.378.637.079 1.153-.64 1.153h-32.2zm18.124-19.213c0-.474-.451-.859-1.009-.859h-1.982c-.557 0-1.009.385-1.009.86v8.877c0 .474.452.858 1.01.858h1.981c.558 0 1.01-.384 1.01-.858 0 0 0 .474 0 0v-8.878zm0 13.016c0-.558-.451-1.01-1.009-1.01h-1.982a1.01 1.01 0 0 0-1.009 1.01v1.982c0 .558.452 1.009 1.01 1.009h1.981c.558 0 1.01-.451 1.01-1.009 0 0 0 .558 0 0V24.47z" fill="#0A0A0A" fill-rule="evenodd"/></svg>