<svg width="100" height="101" viewBox="0 0 100 101" xmlns="http://www.w3.org/2000/svg"><title>Fill 1</title><path d="M98.112 45.66L54.452 2a6.44 6.44 0 0 0-9.108 0l-9.065 9.068 11.5 11.5a7.646 7.646 0 0 1 7.868 1.834 7.653 7.653 0 0 1 1.817 7.917l11.084 11.084c2.683-.925 5.776-.327 7.919 1.819a7.662 7.662 0 0 1 0 10.836 7.663 7.663 0 0 1-12.508-8.334L53.62 37.386v27.203c.73.361 1.418.843 2.027 1.45a7.663 7.663 0 1 1-10.836 0 7.655 7.655 0 0 1 2.51-1.673V36.91a7.663 7.663 0 0 1-4.16-10.05L31.823 15.522 1.885 45.458a6.445 6.445 0 0 0 0 9.11l43.663 43.66a6.443 6.443 0 0 0 9.109 0L98.112 54.77a6.441 6.441 0 0 0 0-9.11" fill="#010101" fill-rule="evenodd"/></svg>