<svg viewBox="0 0 96 96" xmlns="http://www.w3.org/2000/svg" preserveAspectRatio="xMidYMid meet"><title>icon-datica-cli</title><g fill="#000000" fill-rule="evenodd"><path d="M2 7.5973C2 5.0583 4.0505 3 6.5938 3h82.8124C91.9432 3 94 5.0458 94 7.5973v75.8054C94 85.9417 91.9495 88 89.4062 88H6.5938C4.0568 88 2 85.9542 2 83.4027V7.5973zm2 8.7167v67.372C4 84.9822 5.0336 86 6.3086 86h83.3828C90.9504 86 92 84.964 92 83.686V16.314C92 15.0178 90.9664 14 89.6914 14H6.3086C5.0496 14 4 15.036 4 16.314zM6 10c1.1046 0 2-.8954 2-2s-.8954-2-2-2-2 .8954-2 2 .8954 2 2 2zm7 0c1.1046 0 2-.8954 2-2s-.8954-2-2-2-2 .8954-2 2 .8954 2 2 2zm7 0c1.1046 0 2-.8954 2-2s-.8954-2-2-2-2 .8954-2 2 .8954 2 2 2zm4 53.407c0-1.6896-13.957-10.2487-13.957-10.2487C9.467 52.801 9 53.0703 9 53.748v3.3587c0 .683.4697 1.5385 1.031 1.899l5.824 3.7394c.5694.366.573.967 0 1.349l-5.824 3.879C9.4615 68.352 9 69.218 9 69.896v3.3586c0 .683.4654.9435 1.031.5842 0 0 13.969-8.7418 13.969-10.4315zM27.286 76c-.7103 0-1.286.5562-1.286 1.222v1.556c0 .675.5685 1.222 1.286 1.222h20.428c.7103 0 1.286-.5562 1.286-1.222v-1.556c0-.675-.5685-1.222-1.286-1.222H27.286z" fill-rule="nonzero"/><path d="M10.5488 27.6812v-.69c-.1963 0-.4-.0102-.6108-.0308-.211-.0205-.4087-.052-.5933-.0944-.1845-.0425-.397-.118-.6372-.2264v-.8437c.1934.099.383.184.569.254.186.07.3824.126.589.167.2065.041.4343.07.6833.088v-2.448l-.4702-.255c-.8906-.478-1.336-1.055-1.336-1.732 0-.361.148-.711.444-1.053.2958-.341.75-.538 1.3622-.591v-.7298h.6153v.7297c.346 0 .755.06 1.226.18v.76l-.153-.044c-.442-.123-.8-.1976-1.072-.224v2.391l.493.2814c.463.2666.78.529.952.7866.1715.258.257.5318.257.822 0 .261-.065.5134-.1954.758-.1304.245-.317.455-.5603.6306-.243.1756-.558.297-.945.3646v.747h-.615zm0-4.7593v-2.031c-.296.067-.5237.178-.6833.334-.1597.155-.2395.337-.2395.545 0 .196.068.384.2043.564.1363.18.3758.375.7185.586zm.6153 1.3v2.021c.32-.114.536-.254.649-.42.113-.166.169-.351.169-.556 0-.199-.055-.37-.167-.512-.111-.142-.328-.32-.65-.534zm8.271-1.651c-.279 0-.477.09-.621.27.297.261.468.621.468 1.071 0 .963-.792 1.521-1.854 1.521-.315 0-.594-.045-.846-.135-.126.072-.207.18-.207.342 0 .243.198.405.702.405l1.143.009c1.044.009 1.557.495 1.557 1.26 0 1.017-.909 1.548-2.403 1.548-1.368 0-2.106-.441-2.106-1.116 0-.468.315-.792.837-.936-.414-.153-.621-.45-.621-.837 0-.423.261-.747.675-.9-.333-.261-.54-.639-.54-1.134 0-.972.792-1.548 1.836-1.548.342 0 .666.063.936.18.171-.522.612-.783 1.179-.783.081 0 .162.009.234.027v.801c-.126-.018-.225-.045-.369-.045zm-2.007 2.187c.477 0 .846-.333.846-.855 0-.513-.36-.837-.828-.837-.468 0-.828.333-.828.855s.351.837.81.837zm.54 2.187l-1.107-.009c-.081 0-.162-.009-.234-.009-.243.108-.396.315-.396.567 0 .432.396.657 1.242.657.927 0 1.287-.27 1.287-.684 0-.342-.243-.513-.792-.522zm5.115-6.444h-1.314v1.242h1.314v-1.242zM20.581 27h3.933v-.81h-1.476V22.5h-2.322v.81h1.269v2.88h-1.404V27zm4.556-3.708h1.233v2.187c0 1.008.585 1.593 1.764 1.593.432 0 .729-.063.963-.108v-.891c-.234.036-.504.063-.792.063-.567 0-.873-.279-.873-.819v-2.025h1.665V22.5h-1.665v-1.566l-1.062.423V22.5h-1.233v.792zm10.921-.792v.783c.225-.477.756-.891 1.386-.891 1.179 0 1.827.972 1.827 2.349 0 1.413-.675 2.367-1.872 2.367-.558 0-1.08-.324-1.287-.756v2.403h-1.053V22.5h.999zm.027 2.367c0 .855.405 1.413 1.044 1.413.657 0 1.044-.603 1.044-1.539 0-.927-.36-1.521-1.035-1.521-.63 0-1.053.513-1.053 1.422v.225zm6.6534 1.305V27h.999v-4.5h-1.062v2.457c0 .558-.216 1.305-.972 1.305-.423 0-.792-.207-.792-1.035V22.5h-1.071v2.835c0 .702.135 1.125.414 1.395.306.288.702.378 1.107.378.657 0 1.179-.477 1.377-.936zm4.0342.936c1.17 0 1.89-.531 1.89-1.44 0-.72-.396-1.179-1.26-1.296l-.783-.108c-.495-.063-.702-.243-.702-.558 0-.36.297-.549.819-.549.576 0 .981.315 1.17.783l.765-.405c-.225-.702-.927-1.143-1.899-1.143-1.134 0-1.845.522-1.845 1.386 0 .711.459 1.206 1.35 1.314l.711.09c.468.063.675.216.675.576s-.288.567-.837.567c-.657 0-1.116-.306-1.323-.891l-.792.378c.261.828.999 1.296 2.061 1.296zm3.8903-3.789v-2.844H49.61V27h1.053v-2.439c0-.549.225-1.296 1.008-1.296.432 0 .819.216.819 1.071V27h1.062v-2.781c0-.747-.162-1.179-.441-1.449-.306-.288-.711-.378-1.062-.378-.648 0-1.188.396-1.386.927zm11.479-2.844h1.062V27h-.999v-.819c-.234.54-.657.927-1.404.927-1.098 0-1.818-.927-1.818-2.358 0-1.413.747-2.358 1.926-2.358.603 0 1.035.324 1.233.756v-2.673zm.027 4.14c0-.837-.396-1.395-1.026-1.395-.684 0-1.053.576-1.053 1.521s.387 1.539 1.026 1.539c.648 0 1.053-.549 1.053-1.395v-.27zm5.861.99c0 .63.045 1.089.135 1.395h-1.062c-.045-.27-.063-.54-.081-.801-.261.594-.747.909-1.494.909-.882 0-1.485-.54-1.485-1.314 0-.45.189-.801.558-1.035.288-.18.765-.306 1.467-.396l.882-.126v-.135c0-.648-.243-.945-.792-.945-.531 0-.837.279-.873.783h-1.107c.081-.99.819-1.548 2.034-1.548 1.242 0 1.818.576 1.818 1.854v1.359zm-1.053-.747l-.846.126c-.693.108-.981.315-.981.711 0 .405.27.648.729.648.666 0 1.098-.468 1.098-1.188v-.297zm2-1.566h1.233v2.187c0 1.008.585 1.593 1.764 1.593.432 0 .729-.063.963-.108v-.891c-.234.036-.504.063-.792.063-.567 0-.873-.279-.873-.819v-2.025h1.665V22.5h-1.665v-1.566l-1.062.423V22.5h-1.233v.792zm7.688-2.79h-1.314v1.242h1.314v-1.242zM74.164 27h3.933v-.81h-1.476V22.5h-2.322v.81h1.269v2.88h-1.404V27zm6.6534.108c1.188 0 1.836-.738 1.98-1.629l-1.017-.198c-.09.612-.405.963-.963.963-.738 0-1.098-.621-1.098-1.539 0-.882.36-1.476 1.071-1.476.549 0 .882.324.963.927l1.053-.162c-.135-1.017-.891-1.602-1.962-1.602-1.476 0-2.214.99-2.214 2.34 0 1.332.765 2.376 2.187 2.376zm6.6982-1.503c0 .63.045 1.089.135 1.395h-1.062c-.045-.27-.063-.54-.081-.801-.261.594-.747.909-1.494.909-.882 0-1.485-.54-1.485-1.314 0-.45.189-.801.558-1.035.288-.18.765-.306 1.467-.396l.882-.126v-.135c0-.648-.243-.945-.792-.945-.531 0-.837.279-.873.783h-1.107c.081-.99.819-1.548 2.034-1.548 1.242 0 1.818.576 1.818 1.854v1.359zm-1.053-.747l-.846.126c-.693.108-.981.315-.981.711 0 .405.27.648.729.648.666 0 1.098-.468 1.098-1.188v-.297z"/></g></svg>