<svg viewBox="0 0 95 95" xmlns="http://www.w3.org/2000/svg" preserveAspectRatio="xMidYMid meet"><title>icon-hosting</title><g transform="translate(3 12)" fill-rule="evenodd"><path d="M34 69C15.222 69 0 53.778 0 35S15.222 1 34 1s34 15.222 34 34-15.222 34-34 34zm0-2.267c17.526 0 31.733-14.207 31.733-31.733S51.526 3.267 34 3.267 2.267 17.474 2.267 35 16.474 66.733 34 66.733z" fill-rule="nonzero"/><path d="M30.826 67.295C21.578 62.855 15 50.255 15 35.5c0-14.755 6.578-27.355 15.826-31.795V2c1.252 0 2.48.142 3.674.414A16.48 16.48 0 0 1 38.174 2v1.705C47.422 8.145 54 20.745 54 35.5c0 14.755-6.578 27.355-15.826 31.795V69a16.48 16.48 0 0 1-3.674-.414 16.48 16.48 0 0 1-3.674.414v-1.705zm3.674-1.052c9.724-2.6 17.24-15.32 17.24-30.743 0-15.424-7.516-28.144-17.24-30.743-9.724 2.6-17.24 15.32-17.24 30.743 0 15.424 7.516 28.144 17.24 30.743z" fill-rule="nonzero"/><path d="M32.89 51.085v16.223h2.255V51.113c-.752.018-1.504.01-2.256-.028zm14.393-15.117H79v-2.256H47.283v2.256zM35.145 15.69V.692H32.89v15.072a11.146 11.146 0 0 1 2.256-.074zM21.493 33.712H1v2.256h20.493v-2.256zM84 62V6h-2v56z" fill-rule="nonzero"/><circle cx="83" cy="9" r="8"/><circle cx="83" cy="35" r="8"/><circle cx="83" cy="62" r="8"/><path d="M34.968 18.02c-4.963 0-9.017 3.998-9.017 8.928v3.965c-.233.053-.473.094-.71.15a1.617 1.617 0 0 0-1.23 1.572V46.77c0 .686.437 1.312 1.097 1.53 6.58 2.18 13.155 2.18 19.732 0a1.618 1.618 0 0 0 1.096-1.53V32.635a1.623 1.623 0 0 0-1.23-1.572c-.24-.06-.48-.097-.72-.15v-3.965c0-4.93-4.038-8.93-9.016-8.93zm0 3.82c2.845 0 5.153 2.294 5.153 5.108v3.288a40.91 40.91 0 0 0-10.31 0v-3.288c0-2.814 2.318-5.11 5.16-5.11zm.005 14.164c1.192 0 2.165.955 2.165 2.138 0 .68-.33 1.286-.828 1.676l.548 4.548h-3.776l.555-4.548a2.118 2.118 0 0 1-.83-1.676c0-1.18.97-2.138 2.166-2.138zm-10.72-13.227c-5.76-1.63-10.59-4.83-14.51-9.607L8 14.682c4.2 5.114 9.384 8.555 15.526 10.318.17-.774.415-1.518.728-2.223zm20.04-.19C49.803 20.883 54.446 17.69 58.25 13L60 14.5c-4.07 5.02-9.06 8.454-14.942 10.295a11.61 11.61 0 0 0-.766-2.21zM21.765 47C16.388 48.813 11.793 51.942 8 56.383l1.742 1.453c3.735-4.373 8.293-7.373 13.694-9.002A4.02 4.02 0 0 1 21.766 47zm24.993.222c5.148 1.867 9.567 4.98 13.24 9.335L58.25 58c-3.658-4.336-8.093-7.342-13.33-9.023a4.025 4.025 0 0 0 1.84-1.755z" fill-rule="nonzero"/></g></svg>