<svg xmlns="http://www.w3.org/2000/svg" width="16" height="16" viewBox="0 0 16 16">
  <g>
    <path d="M7.98734317,0.103155869 L14.4873432,2.99204476 L14.4873432,7.31628157 C14.4873432,11.2537711 11.7691288,14.8921756 8.11619854,15.786843 L7.98734317,15.818402 L7.8584878,15.786843 C4.2055575,14.8921756 1.48734317,11.2537711 1.48734317,7.31628157 L1.48734317,2.99204476 L7.98734317,0.103155869 Z M7.98734317,1.28866653 L2.5706765,3.69607394 L2.5706765,7.31628157 C2.5706765,10.7179026 4.8938478,13.873958 7.98734317,14.7015952 C11.0808385,13.873958 13.4040098,10.7179026 13.4040098,7.31628157 L13.4040098,3.69607394 L7.98734317,1.28866653 Z"/>
    <polygon points="10.856 5.313 11.704 6.161 6.812 11.054 4.282 8.524 5.13 7.675 6.812 9.357"/>
  </g>
</svg>
