<svg width="61" height="61" viewBox="0 0 61 61" fill="none" xmlns="http://www.w3.org/2000/svg">
<path d="M1.52381 30.4762C1.52381 42.2583 11.0751 51.8095 22.8571 51.8095C34.6392 51.8095 44.1905 42.2583 44.1905 30.4762H45.7143C45.7143 43.0998 35.4808 53.3333 22.8571 53.3333C10.2335 53.3333 0 43.0998 0 30.4762H1.52381Z" fill="white"/>
<path d="M30.4762 1.52381C18.6941 1.52381 9.14286 11.0751 9.14286 22.8571C9.14286 34.6392 18.6941 44.1905 30.4762 44.1905V45.7143C17.8525 45.7143 7.61905 35.4808 7.61905 22.8571C7.61905 10.2335 17.8525 0 30.4762 0V1.52381ZM30.4762 16.7619V15.2381C43.0998 15.2381 53.3333 25.4716 53.3333 38.0952C53.3333 50.7189 43.0998 60.9524 30.4762 60.9524V59.4286C42.2583 59.4286 51.8095 49.8773 51.8095 38.0952C51.8095 26.3132 42.2583 16.7619 30.4762 16.7619Z" fill="white"/>
<path d="M59.4286 30.4762C59.4286 18.6941 49.8773 9.14283 38.0952 9.14283C26.3132 9.14283 16.7619 18.6941 16.7619 30.4762H15.2381C15.2381 17.8525 25.4716 7.61902 38.0952 7.61902C50.7189 7.61902 60.9524 17.8525 60.9524 30.4762H59.4286Z" fill="white"/>
<path d="M30.4762 45.7142C22.0604 45.7142 15.2381 38.8919 15.2381 30.4761C15.2381 22.0604 22.0604 15.238 30.4762 15.238C38.892 15.238 45.7143 22.0604 45.7143 30.4761C45.7143 38.8919 38.892 45.7142 30.4762 45.7142ZM30.4762 44.1904C38.0504 44.1904 44.1905 38.0503 44.1905 30.4761C44.1905 22.9019 38.0504 16.7618 30.4762 16.7618C22.902 16.7618 16.7619 22.9019 16.7619 30.4761C16.7619 38.0503 22.902 44.1904 30.4762 44.1904Z" fill="white"/>
<path d="M30.4762 60.9524C13.6447 60.9524 0 47.3077 0 30.4762C0 13.6447 13.6447 0 30.4762 0C47.3077 0 60.9524 13.6447 60.9524 30.4762C60.9524 47.3077 47.3077 60.9524 30.4762 60.9524ZM30.4762 59.4286C46.4661 59.4286 59.4286 46.4661 59.4286 30.4762C59.4286 14.4862 46.4661 1.52381 30.4762 1.52381C14.4862 1.52381 1.52381 14.4862 1.52381 30.4762C1.52381 46.4661 14.4862 59.4286 30.4762 59.4286Z" fill="white"/>
</svg>
