<svg xmlns="http://www.w3.org/2000/svg" fill="none" viewBox="0 0 100 95"><path fill="#fff" d="M98.9 80.9L84.4 36.8c-.2-.6-.6-1.1-1.2-1.4l-4.5-2-2.1 4.1 3.7 1.7 12.8 38.9-17.7-5.5-4.5-27.2c-.8.3-1.7.5-2.6.5-.7 0-1.4-.1-2-.3l4.5 27.1-18.5 5.7V38.9l6.9-3.1-2.1-4.1-7.1 3.2-15.1-6.8c-.6-.3-1.3-.3-1.9 0l-16.1 7.3c-.6.3-1 .8-1.2 1.4L1.2 80.9c-.3.8-.1 1.7.5 2.3.6.6 1.5.8 2.3.6l22.7-7 22.7 7h1.4l22.7-7 22.7 7 .7.1a2 2 0 0 0 1.6-.7c.4-.6.7-1.5.4-2.3zm-74.2-8.3L6.9 78.1l12.8-38.9L31 34.1l-6.3 38.5zm23 5.9l-18.4-5.7 6.4-39.2 12 5.4v39.5z"/><path fill="#fff" d="M66.6 40.3a1.9 1.9 0 0 0 3.4 0l9.9-19.4a13 13 0 1 0-23.3 0l10 19.4zm1.7-32a6.8 6.8 0 1 1-6.8 6.8 6.9 6.9 0 0 1 6.8-6.8z"/><path fill="#fff" d="M68.3 19.7c2.6 0 4.6-2.1 4.6-4.6 0-2.6-2.1-4.6-4.6-4.6a4.6 4.6 0 0 0-4.6 4.6c0 2.5 2.1 4.6 4.6 4.6z"/></svg>