<svg version="1.1" xmlns="http://www.w3.org/2000/svg" x="0" y="0" viewBox="0 0 612 711.34" enable-background="new 0 0 612 711.34" xml:space="preserve"><defs><filter id="a" filterUnits="userSpaceOnUse" x="0" y="0" width="612" height="711.34"><feColorMatrix type="matrix" values="1 0 0 0 0 0 1 0 0 0 0 0 1 0 0 0 0 0 1 0"/></filter></defs><mask maskUnits="userSpaceOnUse" x="0" y="0" width="612" height="711.34" id="b"><g filter="url(#a)"><path fill="#FFFFFF" d="M208 469.95a3.34 3.34 0 0 0 .6-4.71 3.4 3.4 0 0 0-4.74-.7 3.34 3.34 0 0 0-.6 4.71 3.42 3.42 0 0 0 4.74.7zM117.76 443.58a3.8 3.8 0 0 0 .68-5.36 3.89 3.89 0 0 0-5.4-.8 3.8 3.8 0 0 0-.68 5.36 3.89 3.89 0 0 0 5.4.8zM21.66 546.61a2.85 2.85 0 0 0 .51-4.01 2.9 2.9 0 0 0-4.03-.6 2.85 2.85 0 0 0-.51 4.01 2.9 2.9 0 0 0 4.03.6zM54.91 462.42a3.34 3.34 0 0 0 .6-4.71 3.41 3.41 0 0 0-4.74-.7 3.34 3.34 0 0 0-.6 4.71 3.42 3.42 0 0 0 4.74.7zM105.88 492.65a2.8 2.8 0 0 0 .5-3.96 2.86 2.86 0 0 0-3.99-.59 2.8 2.8 0 0 0-.5 3.96 2.88 2.88 0 0 0 3.99.59zM218.52 528.59a3.34 3.34 0 0 0 .6-4.71 3.41 3.41 0 0 0-4.74-.7 3.34 3.34 0 0 0-.6 4.71 3.41 3.41 0 0 0 4.74.7zM167.23 588.64a3.34 3.34 0 0 0 .6-4.71 3.41 3.41 0 0 0-4.74-.7 3.34 3.34 0 0 0-.6 4.71 3.41 3.41 0 0 0 4.74.7zM374.37 552.26a2.75 2.75 0 0 0 .49-3.88 2.82 2.82 0 0 0-3.91-.58 2.75 2.75 0 0 0-.49 3.88 2.82 2.82 0 0 0 3.91.58zM421.95 216.72a2.74 2.74 0 0 0 .49-3.88 2.82 2.82 0 0 0-3.91-.58 2.75 2.75 0 0 0-.49 3.88 2.82 2.82 0 0 0 3.91.58zM466.59 246.85a5.3 5.3 0 0 0 .95-7.48 5.41 5.41 0 0 0-7.53-1.12 5.3 5.3 0 0 0-.95 7.48 5.43 5.43 0 0 0 7.53 1.12zM462.7 163.79a4.75 4.75 0 0 0 .85-6.7 4.85 4.85 0 0 0-6.75-1 4.74 4.74 0 0 0-.85 6.7 4.85 4.85 0 0 0 6.75 1zM535.27 232.74a3.34 3.34 0 0 0 .6-4.71 3.4 3.4 0 0 0-4.74-.7c-1.47 1.11-1.74 3.22-.59 4.71s3.25 1.8 4.73.7zM530.36 199.59a2.74 2.74 0 0 0 .49-3.88 2.8 2.8 0 0 0-3.9-.58 2.74 2.74 0 0 0-.49 3.88 2.8 2.8 0 0 0 3.9.58zM595.33 182.42c.74-.55.87-1.61.3-2.36a1.7 1.7 0 0 0-2.37-.35 1.67 1.67 0 0 0-.3 2.36c.57.74 1.63.9 2.37.35zM395.2 138.32a2.75 2.75 0 0 0 .49-3.88 2.82 2.82 0 0 0-3.91-.58 2.75 2.75 0 0 0-.49 3.88 2.82 2.82 0 0 0 3.91.58zM372.21 125.24a2.74 2.74 0 0 0 .49-3.88 2.82 2.82 0 0 0-3.91-.58 2.75 2.75 0 0 0-.49 3.88 2.82 2.82 0 0 0 3.91.58zM432.01 90.79a2.75 2.75 0 0 0 .49-3.88 2.82 2.82 0 0 0-3.91-.58 2.74 2.74 0 0 0-.49 3.88 2.81 2.81 0 0 0 3.91.58zM404.83 100.51a2.75 2.75 0 0 0 .49-3.88 2.82 2.82 0 0 0-3.91-.58 2.75 2.75 0 0 0-.49 3.88 2.82 2.82 0 0 0 3.91.58zM380.65 65.13a2.26 2.26 0 0 0 .4-3.19 2.31 2.31 0 0 0-3.21-.48 2.25 2.25 0 0 0-.4 3.19 2.3 2.3 0 0 0 3.21.48zM352.27 183.94a2.75 2.75 0 0 0 .49-3.88 2.82 2.82 0 0 0-3.91-.58 2.75 2.75 0 0 0-.49 3.88 2.82 2.82 0 0 0 3.91.58zM302.88 148.59a2.75 2.75 0 0 0 .49-3.88 2.82 2.82 0 0 0-3.91-.58 2.75 2.75 0 0 0-.49 3.88 2.82 2.82 0 0 0 3.91.58zM350.15 55.14a2.75 2.75 0 0 0 .49-3.88 2.82 2.82 0 0 0-3.91-.58 2.75 2.75 0 0 0-.49 3.88 2.82 2.82 0 0 0 3.91.58zM392.2 210.32a2.75 2.75 0 0 0 .49-3.88 2.82 2.82 0 0 0-3.91-.58 2.75 2.75 0 0 0-.49 3.88 2.82 2.82 0 0 0 3.91.58zM345.33 626.88a2.75 2.75 0 0 0 .49-3.88 2.82 2.82 0 0 0-3.91-.58 2.75 2.75 0 0 0-.49 3.88 2.82 2.82 0 0 0 3.91.58zM300.17 691.32a2.75 2.75 0 0 0 .49-3.88 2.82 2.82 0 0 0-3.91-.58 2.75 2.75 0 0 0-.49 3.88 2.82 2.82 0 0 0 3.91.58zM327.22 636.25a2.75 2.75 0 0 0 .49-3.88 2.82 2.82 0 0 0-3.91-.58 2.75 2.75 0 0 0-.49 3.88 2.82 2.82 0 0 0 3.91.58zM384.74 618.1a1.96 1.96 0 0 0 .35-2.77 2 2 0 0 0-2.79-.41 1.96 1.96 0 0 0-.35 2.77 2.02 2.02 0 0 0 2.79.41zM308.42 464.64c1.69-1.27 2-3.69.68-5.4a3.92 3.92 0 0 0-5.44-.81 3.82 3.82 0 0 0-.68 5.4 3.91 3.91 0 0 0 5.44.81zM318.18 508.12a2.35 2.35 0 0 0 .42-3.32 2.41 2.41 0 0 0-3.35-.5 2.36 2.36 0 0 0-.42 3.33 2.42 2.42 0 0 0 3.35.49zM296.63 426.93a2.65 2.65 0 0 0 .47-3.74 2.71 2.71 0 0 0-3.77-.56 2.65 2.65 0 0 0-.47 3.74 2.71 2.71 0 0 0 3.77.56zM287.19 395.18a2.65 2.65 0 0 0 .47-3.74 2.71 2.71 0 0 0-3.77-.56 2.65 2.65 0 0 0-.47 3.74 2.71 2.71 0 0 0 3.77.56zM303.16 392.84c1-.75 1.18-2.18.4-3.19a2.32 2.32 0 0 0-3.21-.48 2.25 2.25 0 0 0-.4 3.19 2.3 2.3 0 0 0 3.21.48zM292.26 502.68a1.96 1.96 0 0 0 .35-2.77 2 2 0 0 0-2.79-.41 1.96 1.96 0 0 0-.35 2.77 2.02 2.02 0 0 0 2.79.41zM319.29 537.92a2.95 2.95 0 0 0 .53-4.16 3 3 0 0 0-4.18-.62c-1.3.97-1.54 2.84-.52 4.16s2.87 1.6 4.17.62zM334.91 551.54a3.24 3.24 0 0 0 .72-4.55 3.32 3.32 0 0 0-4.62-.55 3.24 3.24 0 0 0-.72 4.55 3.3 3.3 0 0 0 4.62.55zM308.91 555.65c1-.75 1.18-2.18.4-3.19a2.32 2.32 0 0 0-3.21-.48 2.25 2.25 0 0 0-.4 3.19 2.32 2.32 0 0 0 3.21.48zM329.51 569.07a1.96 1.96 0 0 0 .35-2.77 2 2 0 0 0-2.79-.41c-.87.65-1.02 1.89-.35 2.77s1.93 1.06 2.79.41zM310.45 603.67c1-.75 1.18-2.18.4-3.19a2.32 2.32 0 0 0-3.21-.48 2.25 2.25 0 0 0-.4 3.19 2.32 2.32 0 0 0 3.21.48zM307.27 406.68c.78-.58.92-1.7.31-2.49a1.8 1.8 0 0 0-2.51-.37c-.78.59-.92 1.7-.31 2.49.6.79 1.73.96 2.51.37zM315.96 369.28c.78-.59.92-1.7.32-2.49a1.8 1.8 0 0 0-2.51-.37c-.78.59-.92 1.7-.31 2.49.59.79 1.72.96 2.5.37z"/><path fill="none" stroke="#FFFFFF" stroke-width=".75" d="M205.73 467.01l79.2-74.17M285.55 392.95l9.79 31.65M295.14 425.44l-89.11 41.72M294.57 424.55l11.19-19.46M306.01 405.66l-20.85-12.42M294.97 424.71l11.45 36.64M305.83 461.42l-.37-56.07M306.01 461.71l-14.22 39.3M291.07 500.58l25.76 5.42M316.6 506.23l-11.35-44.55M316.91 506.25l.9 29.37M291.33 500.86l26.23 34.6M317.51 535.88l-9.61 18.26M317.65 535.46l11.17 31.85M383.94 616.16L371.9 550.2M307.57 554.06l2.11 47.85M308.85 601.79l18.96-34.45M317.49 535.35l15.72 13.41M333.22 549.12l-4.46 18.42M305.89 405.34l-4.74-14.22M301.65 391.45l-16.27 1.83"/><path fill="#FFFFFF" d="M354.19 457.48a3.34 3.34 0 0 0 .6-4.71 3.4 3.4 0 0 0-4.74-.7 3.34 3.34 0 0 0-.6 4.71 3.41 3.41 0 0 0 4.74.7zM335.84 342.73a2.65 2.65 0 0 0 .47-3.74 2.71 2.71 0 0 0-3.77-.56 2.65 2.65 0 0 0-.47 3.74 2.71 2.71 0 0 0 3.77.56zM365.03 413.68a2.65 2.65 0 0 0 .47-3.74 2.71 2.71 0 0 0-3.77-.56 2.65 2.65 0 0 0-.47 3.74 2.71 2.71 0 0 0 3.77.56zM337.13 391.64a4.41 4.41 0 0 0 .79-6.23 4.52 4.52 0 0 0-6.28-.93 4.42 4.42 0 0 0-.79 6.24 4.52 4.52 0 0 0 6.28.92zM366.63 348.46c1-.75 1.18-2.18.4-3.19a2.31 2.31 0 0 0-3.21-.48 2.25 2.25 0 0 0-.4 3.19 2.32 2.32 0 0 0 3.21.48zM385.38 313.85c.78-.59.92-1.7.32-2.49a1.8 1.8 0 0 0-2.51-.37c-.78.59-.92 1.7-.32 2.49.6.79 1.73.95 2.51.37zM406.37 353.03c.78-.59.92-1.7.31-2.49a1.8 1.8 0 0 0-2.51-.37c-.78.59-.92 1.7-.32 2.49.61.79 1.74.96 2.52.37z"/><path fill="none" stroke="#FFFFFF" stroke-width=".75" d="M305.7 462.94l28.52-75.1M314.48 367.26l-12.46 23.86M363.4 411.8l-57.43 50.13M363.23 411.38l1.27-64.83M352.3 455.01l10.3-43.53M305.73 460.88l46.41-6.2M317 505.64l34.92-50.63"/><path fill="#FFFFFF" d="M362.87 228.31a2.36 2.36 0 0 0 .42-3.33 2.41 2.41 0 0 0-3.35-.5 2.36 2.36 0 0 0-.42 3.33 2.41 2.41 0 0 0 3.35.5zM338.21 235.61c.87-.65 1.02-1.89.35-2.77a2 2 0 0 0-2.79-.41 1.96 1.96 0 0 0-.35 2.77 2 2 0 0 0 2.79.41zM377.38 265.91a4.32 4.32 0 0 0 .77-6.1 4.42 4.42 0 0 0-6.14-.91 4.32 4.32 0 0 0-.77 6.1 4.43 4.43 0 0 0 6.14.91zM407.05 310.39a3.24 3.24 0 0 0 .72-4.55 3.32 3.32 0 0 0-4.62-.55 3.24 3.24 0 0 0-.72 4.55 3.3 3.3 0 0 0 4.62.55zM344.97 266.5c1-.75 1.18-2.17.4-3.19a2.31 2.31 0 0 0-3.21-.48 2.25 2.25 0 0 0-.4 3.19 2.3 2.3 0 0 0 3.21.48zM376.46 302.49a1.96 1.96 0 0 0 .35-2.77 2 2 0 0 0-2.79-.41 1.96 1.96 0 0 0-.35 2.77 2 2 0 0 0 2.79.41zM318.72 307.02a2.07 2.07 0 0 0 .37-2.91 2.12 2.12 0 0 0-2.93-.44 2.07 2.07 0 0 0-.37 2.91 2.12 2.12 0 0 0 2.93.44z"/><path fill="none" stroke="#FFFFFF" stroke-width=".75" d="M350.63 181.89l-13.38 52.45M336.84 233.53l24.5-7.36M361.3 226.42l-11.35-44.55M375.69 300.4l-1.79-37.77M361.57 226.33l13.45 36.04M374.58 263.11l-31.4 1.88M343.62 264.72l31.51 36.27M375.49 301.58l-57.98 3.58M317.68 305.28l17.05 35.15M364.56 346.74l10.06-45.85M375.28 300.37l29.95 7.27M405.28 308.13l-40.29 39.02M361.95 226.32l-18.08 38.79M363 411.88l-29.05-23.65M365.23 346.99l-31.14-6.39M334.41 340.65l-19.15 27.38M364.81 347.16l-30.15 41.06M314.52 366.77l19.97 21.05M405.29 352.2l-40.15-5.61M405.35 351.88l-41.61 59.77M334.3 388.6l-32.74 2.56M375.54 300.68l8.84 11.66M405.21 308.32l-21.08 4.48M365.08 346.22l18.72-33.95M405.21 307.91l1.09 43.31M404.18 307.93l-29.89-45.29M317.29 505.44l55.65 44.47M372.72 550.64l-39.68-1.31M383.66 617.1l-40.03 7.69M382.12 614.46l-49.31-65.04M204.51 466.99l85.95 33.03M215.92 524.74l75.12-23.61M216.25 525.78l-50.62 60.34"/><path fill="#FFFFFF" d="M231.76 594.51a3.34 3.34 0 0 0 .6-4.71 3.4 3.4 0 0 0-4.74-.7 3.34 3.34 0 0 0-.6 4.71 3.41 3.41 0 0 0 4.74.7z"/><path fill="none" stroke="#FFFFFF" stroke-width=".75" d="M229.46 592.15l-64.45-6.22M215.54 525.97l14.5 65.95M206.08 467.68l10.45 57.46M309.19 601.56l34.68 22.92M328.33 567.47l15.96 56.99M374.63 262.21l15.2-54.14M373.15 263.16l46.7-48.9M420.21 215.02l-29.85-6.73M390.71 208.48l-28.53 17.72M390.54 207.95l2.14-71.76M349.81 181.87l43.3-46M402.05 98.81l-31.9 23.96-69.74 23.29 49.69 35.95 19.92-59.07M393.33 136.51l-23.05-13.28M393.35 135.81l36.49-47.43M430.21 89.13l-51.17-25.91"/><path fill="none" stroke="#FFFFFF" stroke-width=".75" d="M348.11 52.83l22.5 69.99 8.03-59.51M402.95 97.79l27.27-9.44"/><path fill="#FFFFFF" d="M434.84 23.9a2.74 2.74 0 0 0 .49-3.88 2.82 2.82 0 0 0-3.91-.58 2.75 2.75 0 0 0-.49 3.88 2.82 2.82 0 0 0 3.91.58z"/><path fill="none" stroke="#FFFFFF" stroke-width=".75" d="M433.36 21.97L379.2 63.03M430.33 88.43l2.03-66.66M403.27 98.44l-9.2 37.68M343.68 624.94L299 689.24M308.88 602.2l-9.54 86.78M308.87 602.58l-93.12-77M307.59 554.74l-91.69-29.39M343.81 625.05l-18.15 9.23M309.23 601.88l16.74 31.94M325.58 634.26l-26.53 54.91M420.39 214.01l43.46 28.79M463.06 242.15l65.41-45.01M463.12 241.78l70.13-11.71M532.98 229.73l61.07-49.12M594.51 181.62l-65.87 15.73M527.78 195.97l5.98 33.94"/><path fill="#FFFFFF" d="M476.3 108.59a2.74 2.74 0 0 0 .49-3.88 2.82 2.82 0 0 0-3.91-.58 2.75 2.75 0 0 0-.49 3.88 2.82 2.82 0 0 0 3.91.58zM509.26 150.07a2.74 2.74 0 0 0 .49-3.88 2.82 2.82 0 0 0-3.91-.58 2.75 2.75 0 0 0-.49 3.88 2.82 2.82 0 0 0 3.91.58z"/><path fill="none" stroke="#FFFFFF" stroke-width=".75" d="M460.05 159.85l14.04-53.71M507.77 148.29l-46.79 11.38"/><path fill="#FFFFFF" d="M531.04 106.84a2.75 2.75 0 0 0 .49-3.88 2.82 2.82 0 0 0-3.91-.58 2.74 2.74 0 0 0-.49 3.88 2.82 2.82 0 0 0 3.91.58zM556.5 138.43a2.74 2.74 0 0 0 .49-3.88 2.8 2.8 0 0 0-3.9-.58 2.74 2.74 0 0 0-.49 3.88 2.8 2.8 0 0 0 3.9.58z"/><path fill="none" stroke="#FFFFFF" stroke-width=".75" d="M507.21 148.24l21.71-43.88M555.02 136.65l-46.79 11.38"/><path fill="#FFFFFF" d="M452.11 408.77a3.34 3.34 0 0 0 .6-4.71 3.4 3.4 0 0 0-4.74-.7 3.33 3.33 0 0 0-.59 4.71 3.4 3.4 0 0 0 4.73.7zM462.99 368.54a2.74 2.74 0 0 0 .49-3.88 2.8 2.8 0 0 0-3.9-.58 2.74 2.74 0 0 0-.49 3.88 2.8 2.8 0 0 0 3.9.58zM503.92 407.15a2.84 2.84 0 0 0 .51-4.01 2.9 2.9 0 0 0-4.04-.6 2.84 2.84 0 0 0-.5 4.01 2.9 2.9 0 0 0 4.03.6zM483.57 489.97a2.84 2.84 0 0 0 .5-4.01 2.91 2.91 0 0 0-4.04-.6 2.84 2.84 0 0 0-.51 4.01 2.9 2.9 0 0 0 4.05.6z"/><path fill="none" stroke="#FFFFFF" stroke-width=".75" d="M404.83 350.65l56.67 15.7M405.1 351.05l45.23 54.82M449.93 405.97l32.34 81.4M502.02 405.15l-40.99-38.59M461.6 366.76l-11 39.35M463.4 242.84l-57.85 65.19M375.26 260.94l88.11-18.26M336.78 234.29l6.96 30.38M342.64 263.89L318.2 305M482.33 487.35l19.08-82.37M502.34 405.46l-51.82.25M449.63 407.08l-86.25 4.68M403.04 99.25l-24.38-35.5-30.79-10.81-46.91 93.46M317.57 305.38L365 347.25M306.37 462.99l-100.23 4.73-91.73-26.76-62.36 17.54-32.08 84.41 84.01-53.06 102.14-22.13M52.78 459.5l51.42 31.09M114.82 441.55l-10.4 48.75"/><path fill="#FFFFFF" d="M220.32 221.6a3.8 3.8 0 0 0 .68-5.36 3.89 3.89 0 0 0-5.4-.8 3.8 3.8 0 0 0-.68 5.36 3.89 3.89 0 0 0 5.4.8zM139.81 265.74a2.85 2.85 0 0 0 .51-4.01 2.9 2.9 0 0 0-4.03-.6 2.85 2.85 0 0 0-.51 4.01 2.9 2.9 0 0 0 4.03.6zM157.27 217.77a3.34 3.34 0 0 0 .6-4.71 3.41 3.41 0 0 0-4.74-.71 3.34 3.34 0 0 0-.6 4.71 3.4 3.4 0 0 0 4.74.71zM192.79 276.25a2.8 2.8 0 0 0 .5-3.96 2.87 2.87 0 0 0-3.99-.59 2.8 2.8 0 0 0-.5 3.96 2.88 2.88 0 0 0 3.99.59zM272.65 268.91a2.8 2.8 0 0 0 .5-3.96 2.87 2.87 0 0 0-3.99-.59 2.8 2.8 0 0 0-.5 3.96 2.87 2.87 0 0 0 3.99.59z"/><path fill="none" stroke="#FFFFFF" stroke-width=".75" d="M317.91 306.55l-46.82-38.75-53-49.19-63.53-4.07-16.55 47.97 53.07 11.12 80.01-5.84M155.03 215.11l36.17 58.81M218.48 218.47l-27.17 55.42M271.08 266.73l72.27-1.13M336.95 233.93l-65.82 32.97M420.64 214.12L459.55 160"/><path fill="#FFFFFF" d="M209.37 339.7a4.74 4.74 0 0 0 .85-6.7 4.85 4.85 0 0 0-6.75-1 4.74 4.74 0 0 0-.85 6.7 4.87 4.87 0 0 0 6.75 1zM152.53 337.9a2.75 2.75 0 0 0 .49-3.88 2.82 2.82 0 0 0-3.91-.58 2.75 2.75 0 0 0-.49 3.88 2.82 2.82 0 0 0 3.91.58zM183.57 380.83a2.75 2.75 0 0 0 .49-3.88 2.82 2.82 0 0 0-3.91-.58 2.75 2.75 0 0 0-.49 3.88 2.82 2.82 0 0 0 3.91.58z"/><path fill="none" stroke="#FFFFFF" stroke-width=".75" d="M150.49 335.05l56.03 1.13M205.87 337.15l-23.68 41.59"/><path fill="#FFFFFF" d="M145.94 382.64a2.75 2.75 0 0 0 .49-3.88 2.82 2.82 0 0 0-3.91-.58 2.75 2.75 0 0 0-.49 3.88 2.82 2.82 0 0 0 3.91.58zM208.92 414.81a2.75 2.75 0 0 0 .49-3.88 2.82 2.82 0 0 0-3.91-.58 2.75 2.75 0 0 0-.49 3.88 2.82 2.82 0 0 0 3.91.58z"/><path fill="none" stroke="#FFFFFF" stroke-width=".75" d="M143.93 379.89l38.59-1.47M182.09 379.44l25.27 33.33M190.69 274.07l16.07 61.68"/></g></mask><linearGradient id="c" gradientUnits="userSpaceOnUse" x1="356.54" y1="681.9" x2="249" y2="-7.98" gradientTransform="matrix(1 0 0 -1 0 713.34)"><stop offset="0" stop-color="#3ae3d8"/><stop offset=".54" stop-color="#638bff"/><stop offset="1" stop-color="#d819f7"/></linearGradient><path mask="url(#b)" fill="url(#c)" d="M0 0h612v711.34H0z"/></svg>