<svg viewBox="0 0 2226 2586" fill="none" xmlns="http://www.w3.org/2000/svg"><path d="M734 1733a12.7 12.7 0 0 0 4.5-13.6c-.4-1.7-1.2-3.2-2.3-4.5a13.1 13.1 0 0 0-18.2-2.7 12.8 12.8 0 0 0-2.3 18 13.1 13.1 0 0 0 18.2 2.8zM387 1631.5a14.6 14.6 0 0 0 2.6-20.5 15 15 0 0 0-20.7-3.1 14.6 14.6 0 0 0-2.6 20.6 15 15 0 0 0 20.7 3zM17.8 2027.5a11 11 0 0 0 2-15.4 11.2 11.2 0 0 0-15.5-2.3 11 11 0 0 0-2 15.4 11.2 11.2 0 0 0 15.5 2.3zM145.6 1704a12.8 12.8 0 0 0 2.3-18 13.1 13.1 0 0 0-18.2-2.8 12.8 12.8 0 0 0-2.3 18.1 13.1 13.1 0 0 0 18.2 2.7zm195.9 116.2a10.8 10.8 0 0 0 1.9-15.3 11 11 0 0 0-15.3-2.2 10.8 10.8 0 0 0-2 15.2 11.1 11.1 0 0 0 15.4 2.3zm432.9 138a12.8 12.8 0 0 0 2.3-18 13.1 13.1 0 0 0-18.3-2.7 12.8 12.8 0 0 0-2.3 18 13.1 13.1 0 0 0 18.3 2.8zM577.2 2189a12.8 12.8 0 0 0 2.4-18.1 13.1 13.1 0 0 0-18.3-2.7 12.8 12.8 0 0 0-2.3 18 13.1 13.1 0 0 0 18.2 2.8zm796.1-139.8a10.6 10.6 0 0 0 3.8-11.2c-.4-1.3-1-2.6-1.9-3.7a10.9 10.9 0 0 0-15-2.2 10.6 10.6 0 0 0-3.8 11.2c.4 1.3 1 2.6 1.9 3.7a10.8 10.8 0 0 0 15 2.2zM1556.2 760a10.6 10.6 0 0 0 3.7-11.2c-.3-1.3-1-2.6-1.9-3.7a10.8 10.8 0 0 0-15-2.2 10.6 10.6 0 0 0-3.7 11.2 10.9 10.9 0 0 0 16.9 6zm171.5 115.8a20.5 20.5 0 0 0 3.7-28.7 20.8 20.8 0 0 0-29-4.3 20.3 20.3 0 0 0-3.6 28.7 20.8 20.8 0 0 0 29 4.3zm-15-319.1a18.3 18.3 0 0 0 3.3-25.8 18.6 18.6 0 0 0-25.9-3.8 18.1 18.1 0 0 0-3.3 25.7 18.6 18.6 0 0 0 26 3.9zm279 264.9a12.9 12.9 0 0 0 2.3-18.1 13 13 0 0 0-18.2-2.7 12.8 12.8 0 0 0-2.3 18 13 13 0 0 0 18.2 2.8zm-18.9-127.4a10.5 10.5 0 0 0 1.9-14.9 10.8 10.8 0 0 0-15-2.2 10.6 10.6 0 0 0-3.8 11.2c.4 1.3 1 2.6 2 3.7a10.7 10.7 0 0 0 14.9 2.2zm249.7-66a6.4 6.4 0 0 0 1.2-9 6.5 6.5 0 0 0-9.2-1.4 6.3 6.3 0 0 0-2.4 4.3c-.1.9 0 1.7.1 2.6.3.8.7 1.5 1.2 2.2a6.6 6.6 0 0 0 9 1.4zm-769.1-169.4a10.6 10.6 0 0 0 1.8-14.9 10.8 10.8 0 0 0-15-2.2 10.5 10.5 0 0 0-3.7 11.2 10.8 10.8 0 0 0 16.9 6zm-88.4-50.2a10.5 10.5 0 0 0 1.9-15 10.9 10.9 0 0 0-15-2.2 10.6 10.6 0 0 0-3.8 11.2c.4 1.4 1 2.6 1.9 3.7a10.8 10.8 0 0 0 15 2.3zm229.8-132.4a10.6 10.6 0 0 0 3.8-11.2c-.4-1.3-1-2.6-1.9-3.7a10.8 10.8 0 0 0-15-2.2 10.5 10.5 0 0 0-1.9 14.9 10.8 10.8 0 0 0 15 2.2zm-104.4 37.4a10.7 10.7 0 0 0 4-7.1 10.7 10.7 0 0 0-2.1-7.9 10.8 10.8 0 0 0-15-2.2 10.5 10.5 0 0 0-4.1 7 10.3 10.3 0 0 0 2.1 8 10.8 10.8 0 0 0 15 2.2zm-93-136a8.7 8.7 0 0 0 1.6-12.2 9 9 0 0 0-12.3-1.9 8.7 8.7 0 0 0-1.6 12.3 8.9 8.9 0 0 0 12.4 1.8zm-109 456.5a10.5 10.5 0 0 0 3.7-11.2 10.8 10.8 0 0 0-16.9-6 10.6 10.6 0 0 0-3.7 11.3 10.9 10.9 0 0 0 16.9 6v-.1zm-189.8-135.8a10.5 10.5 0 0 0 3.7-11.2 10.8 10.8 0 0 0-16.9-6 10.6 10.6 0 0 0-1.9 15 10.8 10.8 0 0 0 15 2.2zm181.6-359a10.6 10.6 0 0 0 3.8-11.3c-.4-1.3-1-2.6-1.9-3.7a10.9 10.9 0 0 0-15-2.2 10.6 10.6 0 0 0-3.8 11.2c.4 1.3 1 2.6 2 3.7a10.8 10.8 0 0 0 15 2.2zm161.6 596.1a10.5 10.5 0 0 0 4-7 10.5 10.5 0 0 0-2-7.9 10.8 10.8 0 0 0-15.1-2.2 10.5 10.5 0 0 0-3.8 11.2c.4 1.4 1 2.6 2 3.7a10.8 10.8 0 0 0 15 2.2zm-180 1600.5a10.5 10.5 0 0 0 3.7-11.2c-.4-1.4-1-2.6-2-3.7a10.8 10.8 0 0 0-15-2.3 10.5 10.5 0 0 0-1.8 15 10.9 10.9 0 0 0 15 2.2zm-173.6 247.6a10.5 10.5 0 0 0 1.8-15 10.9 10.9 0 0 0-15-2.2 10.5 10.5 0 0 0-1.9 15 10.8 10.8 0 0 0 15 2.2zm104-211.6a10.5 10.5 0 0 0 3.7-11.2c-.4-1.4-1-2.6-2-3.7a10.8 10.8 0 0 0-15-2.3 10.5 10.5 0 0 0-1.8 15 11 11 0 0 0 15 2.2zm221-69.8a7.5 7.5 0 0 0 2.9-5 7.5 7.5 0 0 0-1.6-5.6 7.7 7.7 0 0 0-10.7-1.6 7.6 7.6 0 0 0-2.7 8c.3 1 .7 1.9 1.3 2.7a7.8 7.8 0 0 0 10.8 1.6zm-293.3-589.5a14.7 14.7 0 0 0 2.6-20.8 15 15 0 0 0-21-3.1 14.7 14.7 0 0 0-2.5 20.7 15 15 0 0 0 20.9 3.1zm37.5 167a9.1 9.1 0 0 0 3.2-9.6 9 9 0 0 0-1.6-3.2 9.2 9.2 0 0 0-12.9-1.9 9.1 9.1 0 0 0-3.5 6 9 9 0 0 0 1.9 6.8 9.3 9.3 0 0 0 12.9 2zm-82.9-312a10.1 10.1 0 0 0 3.7-10.7 10 10 0 0 0-1.9-3.6 10.4 10.4 0 0 0-14.4-2.1 10.2 10.2 0 0 0-1.8 14.3 10.4 10.4 0 0 0 14.5 2.2zm-36.2-122a10.2 10.2 0 0 0 1.8-14.3 10.4 10.4 0 0 0-14.5-2.1 10.2 10.2 0 0 0-1.8 14.3 10.4 10.4 0 0 0 14.5 2.2zm61.3-9a8.6 8.6 0 0 0 1.6-12.2 9 9 0 0 0-12.4-1.8 8.7 8.7 0 0 0-1.5 12.3 8.8 8.8 0 0 0 12.3 1.8zm-41.8 422.1a7.6 7.6 0 0 0 2.6-8c-.2-1-.7-1.9-1.3-2.6a7.7 7.7 0 0 0-10.7-1.6 7.4 7.4 0 0 0-3 5 7.3 7.3 0 0 0 1.6 5.6 7.8 7.8 0 0 0 10.8 1.6zm103.8 135.4a11.4 11.4 0 0 0 2-16 11.5 11.5 0 0 0-16-2.4c-5 3.8-6 11-2 16s11 6.2 16 2.4zm60 52.3a12.5 12.5 0 0 0 4.9-13c-.4-1.6-1-3.1-2-4.5a12.8 12.8 0 0 0-17.8-2 12.5 12.5 0 0 0-2.8 17.4 12.6 12.6 0 0 0 17.8 2.1zm-99.9 15.8a8.7 8.7 0 0 0 1.6-12.2 9 9 0 0 0-12.4-1.9 8.8 8.8 0 0 0-3.3 5.8 8.5 8.5 0 0 0 1.8 6.5 8.9 8.9 0 0 0 12.3 1.8zm79.2 51.6a7.7 7.7 0 0 0 3-5 7.6 7.6 0 0 0-1.6-5.7 7.7 7.7 0 0 0-10.8-1.5 7.5 7.5 0 0 0-1.3 10.6c2.6 3.4 7.4 4 10.7 1.6zm-73.2 133a8.7 8.7 0 0 0 1.5-12.3 9 9 0 0 0-12.3-1.9 8.7 8.7 0 0 0-1.6 12.3 9 9 0 0 0 12.4 1.8zm-12.3-757c3-2.2 3.6-6.5 1.2-9.5a7 7 0 0 0-9.6-1.4 6.8 6.8 0 0 0-1.2 9.5 7 7 0 0 0 9.6 1.5zm33.4-143.6c3-2.3 3.6-6.6 1.3-9.6a7 7 0 0 0-9.7-1.4 6.7 6.7 0 0 0-1.2 9.5c2.3 3 6.6 3.7 9.6 1.5z" fill="white"/><path d="M1093.8 1431.3l-62.5 7m-306 283.4l304.3-285-304.4 285zM1032 1437l37.6 121.6-37.6-121.6zm36.8 124.9l-342.4 160.2 342.4-160.3zm-2.2-3.5l43-74.7-43 74.7zm44-72.5l-80.1-47.8 80.1 47.8zm-42.4 73.1l44 140.8-44-140.8zm41.7 141l-1.4-215.3 1.4 215.4zm.7 1.2l-54.6 151 54.6-151zm-57.4 149.3l99 20.9-99-20.9zm98.1 21.7l-43.6-171.1 43.6 171.1zm1.2.1l3.5 112.9-3.5-112.9zm-98.3-20.7l100.8 133-100.8-133zm100.6 134.6l-37 70.1 37-70.1zm.5-1.6l43 122.3-43-122.3zm254.8 310l-46.3-253.4 46.3 253.4zm-293.5-238.6l8.1 183.8-8.1-183.8zm5 183.4l72.8-132.4-72.9 132.4zm33.1-255.3l60.4 51.5-60.4-51.5zm60.5 53l-17.2 70.7 17.2-70.8zm-105-552.5l-18.3-54.6 18.2 54.6z" stroke="white" stroke-width="3"/><path d="M1295.8 1685a12.6 12.6 0 0 0 4.9-8.5 13 13 0 0 0-2.6-9.5 13 13 0 0 0-18.3-2.7 12.7 12.7 0 0 0-4.9 8.5 12.7 12.7 0 0 0 2.6 9.6 13.1 13.1 0 0 0 18.3 2.6zm-70.6-440.8a10.1 10.1 0 0 0 3.6-10.8 10 10 0 0 0-1.8-3.6 10.4 10.4 0 0 0-14.5-2.1 10.3 10.3 0 0 0-3.6 10.8c.4 1.3 1 2.5 1.8 3.5a10.4 10.4 0 0 0 14.5 2.2zm112.2 272.6a10.1 10.1 0 0 0 3.6-10.8c-.3-1.3-1-2.5-1.8-3.6a10.4 10.4 0 0 0-14.5-2.2 10.2 10.2 0 0 0-1.8 14.4 10.4 10.4 0 0 0 14.5 2.2zm-107.2-84.7a17 17 0 0 0 3-24 17.4 17.4 0 0 0-24.1-3.5 16.8 16.8 0 0 0-6 18 17 17 0 0 0 3 6 17.4 17.4 0 0 0 24 3.5zm113.4-166a8.7 8.7 0 0 0 1.5-12.2 8.8 8.8 0 0 0-12.3-1.8 8.6 8.6 0 0 0-3.1 9.2 9 9 0 0 0 13.9 4.9zm72-132.9c3-2.3 3.6-6.5 1.3-9.5a6.9 6.9 0 0 0-9.7-1.5 6.8 6.8 0 0 0-1.2 9.6 7 7 0 0 0 9.6 1.4zm80.7 150.5c3-2.2 3.5-6.5 1.2-9.5a6.9 6.9 0 0 0-9.6-1.4 6.8 6.8 0 0 0-1.3 9.5 7 7 0 0 0 9.7 1.4z" fill="white"/><path d="M1152.8 1870l134.2-194.5m-177.6 30.5l109.6-288.5-109.6 288.5zm33.8-367.6l-48 91.7 48-91.7zm188 171.1l-220.8 192.6 220.8-192.6zm-.7-1.6l4.9-249-4.9 249zm-42 167.6l39.6-167.2-39.6 167.3zm-179 22.6l178.4-23.8-178.4 23.8z" stroke="white" stroke-width="3"/><path d="M1329.1 804.6a9 9 0 0 0 3.5-6.1 9 9 0 0 0-1.9-6.7 9.3 9.3 0 0 0-12.8-2 9 9 0 0 0-1.7 12.8 9.3 9.3 0 0 0 13 2zm-94.8 28c3.4-2.5 4-7.3 1.4-10.6a7.7 7.7 0 0 0-10.7-1.6 7.5 7.5 0 0 0-1.4 10.6 7.7 7.7 0 0 0 10.8 1.6zM1385 949a16.5 16.5 0 0 0 5.9-17.6c-.6-2.1-1.6-4-3-5.8a17 17 0 0 0-23.6-3.5 16.7 16.7 0 0 0-5.9 17.6c.6 2.1 1.6 4.1 3 5.8a17 17 0 0 0 23.6 3.5zm114 171a12.5 12.5 0 0 0 2.8-17.6 12.8 12.8 0 0 0-17.8-2 12.5 12.5 0 0 0-4.8 13c.4 1.6 1 3 2 4.4a12.7 12.7 0 0 0 17.8 2.1zm-238.6-168.7a8.6 8.6 0 0 0 1.6-12.3 8.9 8.9 0 0 0-12.4-1.8 8.5 8.5 0 0 0-3.3 5.8 8.7 8.7 0 0 0 1.8 6.4 8.8 8.8 0 0 0 12.3 1.9zm121 138.3a7.7 7.7 0 0 0 3-5 7.6 7.6 0 0 0-1.6-5.7 7.7 7.7 0 0 0-10.7-1.6 7.4 7.4 0 0 0-3 5 7.6 7.6 0 0 0 1.6 5.7 7.7 7.7 0 0 0 10.8 1.6zm-221.9 17.4a8 8 0 0 0 3-5.3 8.2 8.2 0 0 0-12.8-7.6 8 8 0 0 0-2.8 8.4 8.2 8.2 0 0 0 12.7 4.5z" fill="white"/><path d="M765.6 1947.5l-194.5 231.8m711-1553l-51.4 201.4 51.4-201.5zm-53 198.3l94.1-28.3-94.1 28.3zm94-27.3l-43.6-171.2 43.6 171.2zm55.3 284.2l-6.9-145 6.9 145zM1324 797l51.7 138.4-51.7-138.4zm50 141.3l-120.6 7.2 120.6-7.2zm-119 6.2l121.1 139.3-121-139.3zm122.5 141.6l-222.8 13.7 222.8-13.7zm-222.1 14.2l65.5 135-65.5-135zm180.1 159.3l38.7-176.2-38.7 176.2zm41.2-178.2l115.1 28-115-28zm115.3 29.8l-154.8 150 154.8-150zM1325.6 797L1256 946l69.5-149zm4 713l-111.6-91 111.6 91zm8.6-249.4l-119.7-24.5 119.7 24.5zm-118.5-24.3l-73.5 105.2 73.5-105.2zm116.9 25l-115.9 157.7 115.9-157.7zm-193.3 75.3l76.8 81-76.8-81zm348.8-56l-154.3-21.5 154.3 21.5zm.3-1.2l-160 229.7 160-229.7zm-273 141.1l-126 9.8 126-9.8zm158.4-337.8l34 44.8-34-44.8zm114 29.4l-81 17.2 81-17.2zm-154.2 145.6l72-130.5-72 130.5zm154.2-147.2l4.2 166.4-4.2-166.4zm-4 0l-114.8-174 114.9 174zm-333.8 759l213.8 170.8-213.8-170.9zm213 173.6l-152.5-5 152.5 5zm42 255.3l-153.8 29.6 153.8-29.6zm-5.9-10.1l-189.5-250 189.5 250zm-682.6-566.6l330.3 126.9-330.3-127zm43.9 221.9l288.7-90.8-288.7 90.8z" stroke="white" stroke-width="3"/><path d="M825.2 2211.5a12.8 12.8 0 0 0 2.3-18 13 13 0 0 0-18.2-2.8 13 13 0 0 0-4.5 13.6 13.1 13.1 0 0 0 20.5 7.2z" fill="white"/><path d="M1588 269.8l-196.7-99.5M816.4 2202.4l-247.7-23.8 247.7 23.8zm-53.5-254.2l55.7 253.4-55.7-253.4zm-36.3-224l40.1 220.8-40.1-220.8zm396.2 514.4l133.3 88-133.3-88zm73.6-131l61.3 219-61.3-219zm178-1172.8l58.3-208-58.4 208zm-5.8 3.7l179.5-188-179.5 188zm180.9-185l-114.7-25.9 114.7 25.9zM1436 728.4l-109.6 68 109.6-68zm-.6-2l8.2-275.8-8.2 275.7zM1278.9 626l166.4-176.7L1279 626.1zm200.8-319L1357 399l-268 89.5 191 138 76.5-226.9 123-92.7zm-33.5 144.8l-88.6-51 88.6 51zm0-2.7l140.3-182.3-140.2 182.3z" stroke="white" stroke-width="3"/><path d="M1483.2 303.1l104.8-36.3m-315.6-136.4l86.5 268.9 30.8-228.7-117.3-40.2z" stroke="white" stroke-width="3"/><path d="M1605.7 19.2a10.6 10.6 0 0 0 1.9-14.9 10.8 10.8 0 0 0-15-2.2 10.7 10.7 0 0 0-4 7 10.5 10.5 0 0 0 2 7.9 10.8 10.8 0 0 0 15.1 2.2z" fill="white"/><path d="M1962.9 680.3l23 130.4M1600 11.8L1392 169.6 1600 11.8zm-11.6 255.3l7.8-256-7.8 256zm-104 38.5L1449 450.4l35.4-144.8zm-229 2022.8l-171.7 247 171.7-247zm-133.8-87.3l-36.6 333.4 36.6-333.4zm0 1.4l-357.9-295.8 357.9 295.8zm-5-183.8l-352.3-112.9 352.4 113zM1256 2329l-69.8 35.4 69.8-35.4zm-133-89l64.4 122.7-64.3-122.8zm63 124.3l-102 211 102-211zm364.3-1614.6l167 110.6-167-110.6zm164 108.1l251.3-172.9-251.3 173zm.2-1.4l269.5-45-269.5 45zm268.5-46.3l234.7-188.7L1982.9 810zm236.4-184.8l-253.1 60.4 253.1-60.4z" stroke="white" stroke-width="3"/><path d="M1765 344.6a10.5 10.5 0 0 0 2-15 10.9 10.9 0 0 0-15.1-2.1 10.5 10.5 0 0 0-3.8 11.2c.4 1.3 1 2.6 2 3.7a10.8 10.8 0 0 0 15 2.2zM1891.7 504a10.5 10.5 0 0 0 1.9-15 10.9 10.9 0 0 0-15-2.2 10.5 10.5 0 0 0-4 7 10.3 10.3 0 0 0 2 8 10.8 10.8 0 0 0 15.1 2.2z" fill="white"/><path d="M1886 497.1l-179.8 43.7m-3.6.7l54-206.3-54 206.3z" stroke="white" stroke-width="3"/><path d="M1975.4 337.9a10.5 10.5 0 0 0 4-7 10.3 10.3 0 0 0-2.1-8 10.8 10.8 0 0 0-15-2.2 10.6 10.6 0 0 0-2 15 10.8 10.8 0 0 0 15.1 2.2zm97.9 121.3a10.5 10.5 0 0 0 1.8-14.9 10.8 10.8 0 0 0-15-2.2 10.6 10.6 0 0 0-3.7 11.2c.4 1.4 1 2.6 1.9 3.7a10.7 10.7 0 0 0 15 2.2z" fill="white"/><path d="M2067.6 452.4l-179.8 43.7m-4 .8l83.5-168.6-83.5 168.6z" stroke="white" stroke-width="3"/><path d="M1672 1497.9a12.7 12.7 0 0 0 5-8.6 13 13 0 0 0-2.6-9.5 13 13 0 0 0-21.6 1.1 12.8 12.8 0 0 0 1.1 14.3 13.1 13.1 0 0 0 18.2 2.7zm41.9-154.6a10.3 10.3 0 0 0 4-7 10.5 10.5 0 0 0-2.1-7.9 10.7 10.7 0 0 0-17.8 1 10.4 10.4 0 0 0-1 8c.4 1.3 1 2.6 1.9 3.7a10.7 10.7 0 0 0 15 2.2zm157.3 148.4a10.8 10.8 0 0 0 4.2-7.3 10.8 10.8 0 0 0-2.3-8.1 11.1 11.1 0 0 0-15.5-2.3 11 11 0 0 0-1.9 15.4 11.2 11.2 0 0 0 15.5 2.3zm-78.2 318.2a11 11 0 0 0 2-15.4 11.2 11.2 0 0 0-15.6-2.3 10.8 10.8 0 0 0-4.2 7.3 11 11 0 0 0 2.2 8 11.1 11.1 0 0 0 15.6 2.4z" fill="white"/><path d="M375.8 1623.8l-40 187.3m1154.6-536.5l217.8 60.3-217.8-60.3zm1 1.5l173.8 210.7-173.8-210.7zm172.3 211L1788 1800 1663.7 1487zm200.2-3.1l-157.5-148.3 157.5 148.3zm-155.4-147.5l-42.2 151.2 42.3-151.2zm7-476.1L1493 1110.8l222.4-250.4zm-338.8 69.5l338.6-70.1-338.6 70.1zm-147.9-102.4l26.8 116.8-26.8-116.8zm22.6 113.8l-94 158 94-158zm536.8 858.5l73.3-316.5-73.3 316.5zm77-314.6l-199.2 1 199.1-1zm-202.7 6.2l-331.4 18 331.5-18zm-179-1182.7l-93.7-136.4-118.3-41.5-180.3 359 392.3-181zm-328.5 792l182.3 160.8-182.3-160.8zm-43 605.5l-385.2 18.2-352.5-102.8-239.7 67.4-123.3 324.3 322.9-203.9 392.5-85 385.3-18.2zm-974.6-13.4L335 1812.3l-197.6-119.5z" stroke="white" stroke-width="3"/><path d="M781.3 778.8a14.6 14.6 0 0 0 2.6-20.6 15 15 0 0 0-20.8-3 14.6 14.6 0 0 0-2.6 20.5 15 15 0 0 0 20.8 3zM471.9 948.4a11 11 0 0 0 2-15.4 11.1 11.1 0 0 0-15.6-2.3 11 11 0 0 0-2 15.4 11.1 11.1 0 0 0 15.6 2.3zm67-184.3a12.8 12.8 0 0 0 2.4-18.1 13.1 13.1 0 0 0-18.2-2.8 12.8 12.8 0 0 0-2.3 18.1 13 13 0 0 0 18.2 2.8zm136.6 224.7a10.8 10.8 0 0 0 1.9-15.3 11 11 0 0 0-15.3-2.2 10.8 10.8 0 0 0-2 15.2 11 11 0 0 0 15.4 2.3zm306.9-28.3a10.7 10.7 0 0 0 2-15.2 11 11 0 0 0-15.4-2.2 10.8 10.8 0 0 0-2 15.2 11 11 0 0 0 15.4 2.3z" fill="white"/><path d="M1551.1 750l149.6-207.9m-544.4 563l-180-148.8-203.6-189-244.1-15.6L464.9 936l204 42.7 307.5-22.5 180 149zm-626-351.3l139 226-139-226zm244 13L669.7 979.7l104.4-213zm202 185.4l277.8-4.4-277.7 4.4zm253.2-126l-253 126.6 253-126.6z" stroke="white" stroke-width="3"/><path d="M739.2 1232.5a18.3 18.3 0 0 0 6.5-19.3c-.6-2.3-1.7-4.5-3.2-6.4a18.6 18.6 0 0 0-26-3.9 18.3 18.3 0 0 0-3.2 25.8 18.7 18.7 0 0 0 25.9 3.8zm-218.4-6.9a10.6 10.6 0 0 0 1.8-14.9 10.8 10.8 0 0 0-15-2.2 10.6 10.6 0 0 0-1.9 14.9 10.8 10.8 0 0 0 15 2.2zm119.2 165a10.6 10.6 0 0 0 2-15 10.8 10.8 0 0 0-15.1-2.2 10.6 10.6 0 0 0-1.9 15 10.8 10.8 0 0 0 15 2.1z" fill="white"/><path d="M725.7 1222.7l-91 159.8M513 1214.7l215.3 4.3-215.3-4.3z" stroke="white" stroke-width="3"/><path d="M495.4 1397.5a10.6 10.6 0 0 0 2-14.9 10.8 10.8 0 0 0-15.1-2.2 10.6 10.6 0 0 0-1.9 14.9 10.8 10.8 0 0 0 15 2.2zm242 123.6a10.6 10.6 0 0 0 2-14.9 10.8 10.8 0 0 0-15-2.2 10.6 10.6 0 0 0-2 14.9 10.8 10.8 0 0 0 15 2.2z" fill="white"/><path d="M667.4 980.4l61.8 237m-241.5 169.5l148.3-5.6-148.3 5.6zm146.7-1.7l97 128-97-128z" stroke="white" stroke-width="3"/></svg>