<?xml version="1.0" encoding="utf-8"?>
<!-- Generator: Adobe Illustrator 23.0.6, SVG Export Plug-In . SVG Version: 6.00 Build 0)  -->
<svg version="1.1" id="Layer_1" xmlns="http://www.w3.org/2000/svg" xmlns:xlink="http://www.w3.org/1999/xlink" x="0px" y="0px"
	 viewBox="0 0 1651 1903" enable-background="new 0 0 1651 1903" xml:space="preserve">
<g>
	<defs>
		<rect id="SVGID_1_" width="1651" height="1903"/>
	</defs>
	<clipPath id="SVGID_2_">
		<use xlink:href="#SVGID_1_"  overflow="visible"/>
	</clipPath>
	<g id="network-grad" clip-path="url(#SVGID_2_)">
		<defs>
			<filter id="Adobe_OpacityMaskFilter" filterUnits="userSpaceOnUse" x="-28" y="-55" width="1696" height="1976">
				<feColorMatrix  type="matrix" values="1 0 0 0 0  0 1 0 0 0  0 0 1 0 0  0 0 0 1 0"/>
			</filter>
		</defs>
		<mask maskUnits="userSpaceOnUse" x="-28" y="-55" width="1696" height="1976" id="mask0_1_">
			<g id="network_1_" filter="url(#Adobe_OpacityMaskFilter)">
				<path id="Vector_1_" fill="#FFFFFF" d="M550.31,1268c5.08-3.81,6-11.09,2.05-16.24c-3.95-5.16-11.27-6.25-16.35-2.43
					c-5.08,3.81-6,11.08-2.05,16.24C537.91,1270.73,545.23,1271.81,550.31,1268z"/>
				<path id="Vector_2_1_" fill="#FFFFFF" d="M301.59,1195.53c5.78-4.34,6.83-12.61,2.33-18.48c-4.49-5.87-12.82-7.1-18.6-2.77
					c-5.78,4.34-6.83,12.62-2.33,18.48C287.48,1198.63,295.81,1199.87,301.59,1195.53z"/>
				<path id="Vector_3_1_" fill="#FFFFFF" d="M36.09,1479.2c4.32-3.25,5.1-9.43,1.75-13.82c-3.36-4.39-9.59-5.31-13.91-2.07
					c-4.32,3.25-5.1,9.43-1.75,13.82C25.54,1481.51,31.77,1482.44,36.09,1479.2z"/>
				<path id="Vector_4_1_" fill="#FFFFFF" d="M128.03,1247.23c5.08-3.82,6-11.09,2.05-16.25c-3.95-5.15-11.27-6.24-16.35-2.43
					c-5.08,3.82-6,11.09-2.05,16.25C115.62,1249.95,122.94,1251.04,128.03,1247.23z"/>
				<path id="Vector_5_1_" fill="#FFFFFF" d="M268.4,1330.32c4.27-3.21,5.05-9.33,1.73-13.66c-3.32-4.34-9.48-5.26-13.76-2.05
					c-4.27,3.21-5.05,9.33-1.73,13.67C257.96,1332.61,264.12,1333.53,268.4,1330.32z"/>
				<path id="Vector_6_1_" fill="#FFFFFF" d="M579.34,1429.76c5.08-3.82,6-11.09,2.05-16.25c-3.95-5.15-11.27-6.24-16.35-2.43
					c-5.08,3.82-6,11.09-2.05,16.25C566.93,1432.48,574.26,1433.57,579.34,1429.76z"/>
				<path id="Vector_7_1_" fill="#FFFFFF" d="M437.86,1595.41c5.08-3.82,6-11.09,2.05-16.25c-3.95-5.15-11.27-6.24-16.35-2.43
					c-5.08,3.82-6,11.09-2.05,16.25C425.46,1598.13,432.78,1599.22,437.86,1595.41z"/>
				<path id="Vector_8_1_" fill="#FFFFFF" d="M1008.99,1494.72c4.18-3.14,4.94-9.13,1.69-13.37c-3.25-4.25-9.28-5.15-13.47-2.01
					c-4.19,3.15-4.94,9.13-1.69,13.38S1004.8,1497.86,1008.99,1494.72z"/>
				<path id="Vector_9_1_" fill="#FFFFFF" d="M1140.24,569.13c4.19-3.14,4.94-9.13,1.69-13.38c-3.25-4.25-9.28-5.14-13.47-2
					c-4.18,3.14-4.94,9.13-1.69,13.38C1130.03,571.38,1136.06,572.27,1140.24,569.13z"/>
				<path id="Vector_10_1_" fill="#FFFFFF" d="M1264.49,653.67c8.08-6.06,9.53-17.61,3.26-25.8c-6.27-8.19-17.9-9.92-25.97-3.86
					c-8.07,6.06-9.53,17.61-3.26,25.8S1256.42,659.73,1264.49,653.67z"/>
				<path id="Vector_11_1_" fill="#FFFFFF" d="M1253.52,424.26c7.23-5.43,8.53-15.77,2.92-23.1c-5.62-7.33-16.03-8.88-23.26-3.46
					c-7.23,5.42-8.54,15.77-2.92,23.1C1235.88,428.13,1246.29,429.68,1253.52,424.26z"/>
				<path id="Vector_12_1_" fill="#FFFFFF" d="M1453.08,613.65c5.09-3.81,6-11.09,2.06-16.24c-3.95-5.16-11.27-6.24-16.36-2.43
					c-5.08,3.81-6,11.09-2.05,16.24C1440.68,616.38,1448,617.46,1453.08,613.65z"/>
				<path id="Vector_13_1_" fill="#FFFFFF" d="M1439.31,521.87c4.19-3.14,4.94-9.13,1.69-13.38c-3.25-4.25-9.28-5.14-13.46-2
					c-4.19,3.14-4.95,9.13-1.69,13.38C1429.1,524.12,1435.13,525.02,1439.31,521.87z"/>
				<path id="Vector_14_1_" fill="#FFFFFF" d="M1618.04,473.92c2.54-1.91,3-5.54,1.03-8.12c-1.98-2.58-5.64-3.12-8.18-1.22
					c-2.54,1.91-3,5.54-1.03,8.12C1611.84,475.28,1615.5,475.82,1618.04,473.92z"/>
				<path id="Vector_15_1_" fill="#FFFFFF" d="M1066.45,352.86c4.18-3.14,4.94-9.13,1.69-13.38c-3.25-4.25-9.28-5.14-13.47-2
					c-4.18,3.14-4.94,9.13-1.69,13.38C1056.23,355.11,1062.26,356,1066.45,352.86z"/>
				<path id="Vector_16_1_" fill="#FFFFFF" d="M1003.03,316.79c4.19-3.14,4.94-9.13,1.69-13.38c-3.25-4.25-9.28-5.14-13.46-2
					c-4.18,3.14-4.94,9.13-1.69,13.38C992.82,319.03,998.85,319.93,1003.03,316.79z"/>
				<path id="Vector_17_1_" fill="#FFFFFF" d="M1168.01,221.77c4.18-3.14,4.94-9.13,1.69-13.38c-3.26-4.25-9.29-5.14-13.47-2
					c-4.19,3.14-4.94,9.13-1.69,13.38C1157.79,224.02,1163.82,224.91,1168.01,221.77z"/>
				<path id="Vector_18_1_" fill="#FFFFFF" d="M1093.01,248.57c4.18-3.14,4.94-9.13,1.69-13.38c-3.25-4.25-9.28-5.14-13.47-2
					c-4.18,3.14-4.94,9.13-1.69,13.38C1082.79,250.82,1088.82,251.71,1093.01,248.57z"/>
				<path id="Vector_19_1_" fill="#FFFFFF" d="M1026.11,150.71c3.43-2.58,4.06-7.5,1.38-10.99c-2.67-3.49-7.62-4.22-11.06-1.64
					s-4.06,7.5-1.39,10.99C1017.72,152.56,1022.67,153.29,1026.11,150.71z"/>
				<path id="Vector_20_1_" fill="#FFFFFF" d="M948.03,478.7c4.19-3.14,4.94-9.13,1.69-13.38c-3.25-4.25-9.28-5.14-13.47-2
					c-4.18,3.14-4.94,9.13-1.69,13.38C937.82,480.95,943.84,481.85,948.03,478.7z"/>
				<path id="Vector_21_1_" fill="#FFFFFF" d="M811.79,381.2c4.18-3.14,4.94-9.13,1.69-13.38c-3.25-4.25-9.28-5.14-13.47-2
					s-4.94,9.13-1.69,13.38C801.58,383.45,807.61,384.34,811.79,381.2z"/>
				<path id="Vector_22_1_" fill="#FFFFFF" d="M942.19,123.42c4.19-3.14,4.94-9.13,1.69-13.38c-3.25-4.25-9.28-5.14-13.47-2
					c-4.18,3.14-4.94,9.13-1.69,13.38C931.97,125.66,938,126.56,942.19,123.42z"/>
				<path id="Vector_23_1_" fill="#FFFFFF" d="M1058.17,551.49c4.18-3.14,4.94-9.13,1.69-13.38c-3.25-4.25-9.28-5.14-13.47-2
					c-4.18,3.14-4.94,9.13-1.69,13.38C1047.95,553.74,1053.98,554.63,1058.17,551.49z"/>
				<path id="Vector_24_1_" fill="#FFFFFF" d="M928.89,1700.56c4.19-3.14,4.94-9.13,1.69-13.37c-3.25-4.25-9.28-5.14-13.47-2
					c-4.19,3.14-4.94,9.13-1.69,13.37C918.68,1702.81,924.71,1703.71,928.89,1700.56z"/>
				<path id="Vector_25_1_" fill="#FFFFFF" d="M804.31,1878.31c4.18-3.14,4.94-9.13,1.69-13.38c-3.25-4.25-9.28-5.14-13.47-2
					c-4.18,3.14-4.94,9.13-1.69,13.38C794.1,1880.55,800.13,1881.45,804.31,1878.31z"/>
				<path id="Vector_26_1_" fill="#FFFFFF" d="M878.94,1726.42c4.18-3.14,4.94-9.13,1.69-13.38c-3.25-4.25-9.28-5.14-13.47-2
					s-4.94,9.13-1.69,13.38C868.72,1728.66,874.75,1729.56,878.94,1726.42z"/>
				<path id="Vector_27_1_" fill="#FFFFFF" d="M1037.27,1675.9c2.99-2.24,3.53-6.52,1.21-9.55c-2.33-3.04-6.63-3.68-9.62-1.43
					c-2.99,2.24-3.53,6.52-1.21,9.55C1029.97,1677.5,1034.28,1678.14,1037.27,1675.9z"/>
				<path id="Vector_28_1_" fill="#FFFFFF" d="M827.53,1253.64c5.83-4.37,6.88-12.71,2.35-18.63c-4.53-5.91-12.93-7.16-18.76-2.79
					c-5.83,4.38-6.88,12.72-2.35,18.63C813.31,1256.77,821.7,1258.02,827.53,1253.64z"/>
				<path id="Vector_29_1_" fill="#FFFFFF" d="M853.83,1372.75c3.59-2.69,4.24-7.82,1.45-11.46c-2.79-3.64-7.96-4.41-11.54-1.72
					c-3.59,2.69-4.24,7.83-1.45,11.47C845.07,1374.68,850.24,1375.44,853.83,1372.75z"/>
				<path id="Vector_30_1_" fill="#FFFFFF" d="M794.51,1148.95c4.04-3.03,4.77-8.8,1.63-12.9c-3.14-4.09-8.95-4.95-12.99-1.93
					c-4.04,3.03-4.76,8.81-1.63,12.9C784.66,1151.12,790.48,1151.98,794.51,1148.95z"/>
				<path id="Vector_31_1_" fill="#FFFFFF" d="M768.47,1061.36c4.04-3.03,4.77-8.8,1.63-12.9c-3.14-4.09-8.95-4.96-12.98-1.93
					c-4.04,3.03-4.77,8.81-1.63,12.9C758.62,1063.53,764.43,1064.39,768.47,1061.36z"/>
				<path id="Vector_32_1_" fill="#FFFFFF" d="M812.35,1054.69c3.44-2.58,4.06-7.5,1.39-10.99c-2.67-3.48-7.62-4.22-11.06-1.64
					c-3.44,2.58-4.06,7.5-1.39,10.99C803.96,1056.54,808.91,1057.27,812.35,1054.69z"/>
				<path id="Vector_33_1_" fill="#FFFFFF" d="M782.15,1357.51c2.99-2.24,3.53-6.52,1.21-9.55c-2.32-3.04-6.63-3.68-9.62-1.43
					c-2.99,2.24-3.53,6.52-1.21,9.55C774.86,1359.12,779.16,1359.76,782.15,1357.51z"/>
				<path id="Vector_34_1_" fill="#FFFFFF" d="M857.15,1455.27c4.48-3.36,5.29-9.78,1.81-14.33c-3.48-4.55-9.94-5.51-14.43-2.14
					c-4.48,3.36-5.29,9.78-1.81,14.33C846.2,1457.68,852.66,1458.64,857.15,1455.27z"/>
				<path id="Vector_35_1_" fill="#FFFFFF" d="M900.33,1492.97c5.08-3.82,6.19-10.85,2.47-15.7c-3.72-4.86-10.85-5.7-15.94-1.88
					c-5.08,3.81-6.19,10.84-2.47,15.7C888.11,1495.94,895.24,1496.78,900.33,1492.97z"/>
				<path id="Vector_36_1_" fill="#FFFFFF" d="M828.22,1503.79c3.44-2.58,4.06-7.5,1.39-10.99c-2.67-3.49-7.62-4.22-11.06-1.64
					c-3.44,2.58-4.06,7.5-1.39,10.99C819.83,1505.63,824.78,1506.37,828.22,1503.79z"/>
				<path id="Vector_37_1_" fill="#FFFFFF" d="M884.93,1540.65c2.99-2.25,3.53-6.52,1.21-9.56c-2.32-3.03-6.63-3.67-9.62-1.43
					c-2.99,2.25-3.53,6.53-1.21,9.56S881.94,1542.89,884.93,1540.65z"/>
				<path id="Vector_38_1_" fill="#FFFFFF" d="M832.47,1636.25c3.44-2.58,4.06-7.5,1.39-10.99c-2.67-3.49-7.62-4.22-11.06-1.64
					s-4.06,7.5-1.39,10.99C824.08,1638.09,829.03,1638.83,832.47,1636.25z"/>
				<path id="Vector_39_1_" fill="#FFFFFF" d="M823.48,1092.6c2.69-2.01,3.18-5.86,1.09-8.59s-5.97-3.31-8.66-1.29
					c-2.69,2.02-3.18,5.87-1.09,8.6C816.91,1094.05,820.79,1094.62,823.48,1092.6z"/>
				<path id="Vector_40_1_" fill="#FFFFFF" d="M847.44,989.42c2.69-2.02,3.18-5.87,1.09-8.6c-2.09-2.73-5.97-3.3-8.66-1.29
					c-2.69,2.02-3.18,5.87-1.09,8.6C840.88,990.87,844.75,991.44,847.44,989.42z"/>
				<path id="Vector_41_1_" fill="none" stroke="#FFFFFF" stroke-width="2.1312" d="M542.62,1258.03l218.47-204.59"/>
				<path id="Vector_42_1_" fill="none" stroke="#FFFFFF" stroke-width="2.1312" d="M762.82,1053.73l27,87.32"/>
				<path id="Vector_43_1_" fill="none" stroke="#FFFFFF" stroke-width="2.1312" d="M789.28,1143.34l-245.8,115.09"/>
				<path id="Vector_44_1_" fill="none" stroke="#FFFFFF" stroke-width="2.1312" d="M787.7,1140.89l30.87-53.67"/>
				<path id="Vector_45_1_" fill="none" stroke="#FFFFFF" stroke-width="2.1312" d="M819.24,1088.79l-57.52-34.27"/>
				<path id="Vector_46_1_" fill="none" stroke="#FFFFFF" stroke-width="2.1312" d="M788.79,1141.34l31.59,101.07"/>
				<path id="Vector_47_1_" fill="none" stroke="#FFFFFF" stroke-width="2.1312" d="M818.76,1242.59l-1.02-154.66"/>
				<path id="Vector_48_1_" fill="none" stroke="#FFFFFF" stroke-width="2.1312" d="M819.24,1243.39l-39.22,108.41"/>
				<path id="Vector_49_1_" fill="none" stroke="#FFFFFF" stroke-width="2.1312" d="M778.03,1350.62l71.06,14.94"/>
				<path id="Vector_50_1_" fill="none" stroke="#FFFFFF" stroke-width="2.1312" d="M848.47,1366.2l-31.32-122.89"/>
				<path id="Vector_51_1_" fill="none" stroke="#FFFFFF" stroke-width="2.1312" d="M849.32,1366.28l2.49,81.01"/>
				<path id="Vector_52_1_" fill="none" stroke="#FFFFFF" stroke-width="2.1312" d="M778.77,1351.4l72.35,95.43"/>
				<path id="Vector_53_1_" fill="none" stroke="#FFFFFF" stroke-width="2.1312" d="M850.96,1448l-26.51,50.37"/>
				<path id="Vector_54_1_" fill="none" stroke="#FFFFFF" stroke-width="2.1312" d="M851.35,1446.84l30.8,87.85"/>
				<path id="Vector_55_1_" fill="none" stroke="#FFFFFF" stroke-width="2.1312" d="M1034.21,1669.45l-33.19-181.94"/>
				<path id="Vector_56_1_" fill="none" stroke="#FFFFFF" stroke-width="2.1312" d="M823.55,1498.15l5.83,132"/>
				<path id="Vector_57_1_" fill="none" stroke="#FFFFFF" stroke-width="2.1312" d="M827.09,1629.8l52.3-95.02"/>
				<path id="Vector_58_1_" fill="none" stroke="#FFFFFF" stroke-width="2.1312" d="M850.92,1446.54l43.37,36.98"/>
				<path id="Vector_59_1_" fill="none" stroke="#FFFFFF" stroke-width="2.1312" d="M894.3,1484.51L882,1535.33"/>
				<path id="Vector_60_1_" fill="none" stroke="#FFFFFF" stroke-width="2.1312" d="M818.92,1087.92l-13.08-39.23"/>
				<path id="Vector_61_1_" fill="none" stroke="#FFFFFF" stroke-width="2.1312" d="M807.23,1049.6l-44.88,5.04"/>
				<path id="Vector_62_1_" fill="#FFFFFF" d="M953.6,1233.61c5.08-3.81,6-11.08,2.05-16.24c-3.95-5.16-11.27-6.24-16.35-2.43
					c-5.08,3.82-6,11.09-2.05,16.24C941.2,1236.34,948.52,1237.43,953.6,1233.61z"/>
				<path id="Vector_63_1_" fill="#FFFFFF" d="M902.66,916.69c4.04-3.03,4.77-8.8,1.63-12.9c-3.14-4.1-8.95-4.96-12.99-1.93
					s-4.77,8.8-1.63,12.9C892.81,918.85,898.63,919.72,902.66,916.69z"/>
				<path id="Vector_64_1_" fill="#FFFFFF" d="M983.19,1112.39c4.04-3.03,4.77-8.8,1.63-12.9c-3.14-4.09-8.95-4.95-12.99-1.93
					c-4.03,3.03-4.77,8.81-1.63,12.9C973.34,1114.56,979.16,1115.42,983.19,1112.39z"/>
				<path id="Vector_65_1_" fill="#FFFFFF" d="M906.99,1052.6c6.73-5.04,7.94-14.67,2.72-21.49c-5.23-6.83-14.92-8.27-21.64-3.22
					c-6.73,5.05-7.94,14.67-2.72,21.5C890.57,1056.21,900.26,1057.65,906.99,1052.6z"/>
				<path id="Vector_66_1_" fill="#FFFFFF" d="M987.45,932.25c3.44-2.58,4.06-7.5,1.39-10.99c-2.67-3.49-7.62-4.22-11.06-1.64
					c-3.44,2.58-4.06,7.5-1.39,10.99C979.06,934.1,984.01,934.83,987.45,932.25z"/>
				<path id="Vector_67_1_" fill="#FFFFFF" d="M1038.94,836.52c2.69-2.02,3.18-5.87,1.09-8.6c-2.09-2.73-5.97-3.31-8.66-1.29
					c-2.69,2.02-3.18,5.87-1.09,8.6C1032.38,837.96,1036.25,838.54,1038.94,836.52z"/>
				<path id="Vector_68_1_" fill="#FFFFFF" d="M1096.85,944.61c2.69-2.02,3.17-5.87,1.08-8.6c-2.09-2.73-5.96-3.31-8.65-1.29
					c-2.7,2.02-3.18,5.87-1.09,8.6C1090.28,946.05,1094.16,946.63,1096.85,944.61z"/>
				<path id="Vector_69_1_" fill="none" stroke="#FFFFFF" stroke-width="2.1312" d="M818.39,1246.81l78.67-207.15"/>
				<path id="Vector_70_1_" fill="none" stroke="#FFFFFF" stroke-width="2.1312" d="M842.6,982.87l-34.36,65.83"/>
				<path id="Vector_71_1_" fill="none" stroke="#FFFFFF" stroke-width="2.1312" d="M977.55,1105.74l-158.41,138.27"/>
				<path id="Vector_72_1_" fill="none" stroke="#FFFFFF" stroke-width="2.1312" d="M977.08,1104.58l3.5-178.84"/>
				<path id="Vector_73_1_" fill="none" stroke="#FFFFFF" stroke-width="2.1312" d="M946.95,1224.93l28.42-120.07"/>
				<path id="Vector_74_1_" fill="none" stroke="#FFFFFF" stroke-width="2.1312" d="M818.49,1241.11l128.03-17.1"/>
				<path id="Vector_75_1_" fill="none" stroke="#FFFFFF" stroke-width="2.1312" d="M849.56,1364.59l96.34-139.65"/>
				<path id="Vector_76_1_" fill="#FFFFFF" d="M977.11,600.9c3.59-2.69,4.24-7.83,1.45-11.47c-2.79-3.64-7.96-4.41-11.54-1.72
					c-3.59,2.69-4.24,7.83-1.45,11.47C968.36,602.82,973.53,603.59,977.11,600.9z"/>
				<path id="Vector_77_1_" fill="#FFFFFF" d="M908.91,620.82c2.99-2.24,3.53-6.52,1.21-9.55c-2.32-3.03-6.63-3.67-9.62-1.43
					c-2.99,2.24-3.53,6.52-1.21,9.55C901.61,622.42,905.92,623.06,908.91,620.82z"/>
				<path id="Vector_78_1_" fill="#FFFFFF" d="M1017.97,705.7c6.57-4.94,7.76-14.35,2.65-21.02c-5.11-6.67-14.58-8.08-21.16-3.15
					c-6.58,4.94-7.77,14.35-2.66,21.02C1001.91,709.23,1011.39,710.64,1017.97,705.7z"/>
				<path id="Vector_79_1_" fill="#FFFFFF" d="M1099.31,827.75c5.08-3.82,6.19-10.84,2.47-15.7c-3.72-4.85-10.86-5.7-15.94-1.88
					c-5.08,3.82-6.19,10.84-2.47,15.7C1087.09,830.72,1094.22,831.57,1099.31,827.75z"/>
				<path id="Vector_80_1_" fill="#FFFFFF" d="M927.7,706.19c3.44-2.58,4.06-7.5,1.39-10.99c-2.67-3.49-7.62-4.22-11.06-1.64
					c-3.44,2.58-4.06,7.5-1.39,10.99C919.31,708.04,924.26,708.78,927.7,706.19z"/>
				<path id="Vector_81_1_" fill="#FFFFFF" d="M1014.43,805.31c2.99-2.24,3.53-6.52,1.2-9.55c-2.32-3.03-6.63-3.67-9.62-1.43
					c-2.99,2.24-3.53,6.52-1.2,9.55C1007.13,806.91,1011.44,807.55,1014.43,805.31z"/>
				<path id="Vector_82_1_" fill="#FFFFFF" d="M855.19,817.83c3.14-2.36,3.71-6.85,1.27-10.03c-2.44-3.18-6.96-3.86-10.1-1.5
					c-3.14,2.36-3.71,6.85-1.27,10.03C847.53,819.52,852.05,820.19,855.19,817.83z"/>
				<path id="Vector_83_1_" fill="none" stroke="#FFFFFF" stroke-width="2.1312" d="M942.33,471.52l-36.91,144.67"/>
				<path id="Vector_84_1_" fill="none" stroke="#FFFFFF" stroke-width="2.1312" d="M904.29,613.98l67.57-20.29"/>
				<path id="Vector_85_1_" fill="none" stroke="#FFFFFF" stroke-width="2.1312" d="M971.76,594.35l-31.32-122.89"/>
				<path id="Vector_86_1_" fill="none" stroke="#FFFFFF" stroke-width="2.1312" d="M1011.46,798.43l-4.94-104.18"/>
				<path id="Vector_87_1_" fill="none" stroke="#FFFFFF" stroke-width="2.1312" d="M972.53,594.11l37.11,99.43"/>
				<path id="Vector_88_1_" fill="none" stroke="#FFFFFF" stroke-width="2.1312" d="M1008.39,695.57l-86.62,5.17"/>
				<path id="Vector_89_1_" fill="none" stroke="#FFFFFF" stroke-width="2.1312" d="M923,700l86.93,100.06"/>
				<path id="Vector_90_1_" fill="none" stroke="#FFFFFF" stroke-width="2.1312" d="M1010.91,801.7l-159.93,9.89"/>
				<path id="Vector_91_1_" fill="none" stroke="#FFFFFF" stroke-width="2.1312" d="M851.43,811.91l47.04,96.97"/>
				<path id="Vector_92_1_" fill="none" stroke="#FFFFFF" stroke-width="2.1312" d="M980.76,926.26l27.74-126.47"/>
				<path id="Vector_93_1_" fill="none" stroke="#FFFFFF" stroke-width="2.1312" d="M1010.32,798.36l82.62,20.06"/>
				<path id="Vector_94_1_" fill="none" stroke="#FFFFFF" stroke-width="2.1312" d="M1093.09,819.76L981.96,927.38"/>
				<path id="Vector_95_1_" fill="none" stroke="#FFFFFF" stroke-width="2.1312" d="M973.57,594.07L923.7,701.06"/>
				<path id="Vector_96_1_" fill="none" stroke="#FFFFFF" stroke-width="2.1312" d="M976.46,1105.96l-80.13-65.23"/>
				<path id="Vector_97_1_" fill="none" stroke="#FFFFFF" stroke-width="2.1312" d="M982.62,926.95l-85.9-17.63"/>
				<path id="Vector_98_1_" fill="none" stroke="#FFFFFF" stroke-width="2.1312" d="M897.6,909.47l-52.83,75.52"/>
				<path id="Vector_99_1_" fill="none" stroke="#FFFFFF" stroke-width="2.1312" d="M981.46,927.43l-83.18,113.25"/>
				<path id="Vector_100_1_" fill="none" stroke="#FFFFFF" stroke-width="2.1312" d="M842.72,981.5l55.1,58.07"/>
				<path id="Vector_101_1_" fill="none" stroke="#FFFFFF" stroke-width="2.1312" d="M1093.11,941.32l-110.75-15.48"/>
				<path id="Vector_102_1_" fill="none" stroke="#FFFFFF" stroke-width="2.1312" d="M1093.28,940.44L978.5,1105.32"/>
				<path id="Vector_103_1_" fill="none" stroke="#FFFFFF" stroke-width="2.1312" d="M897.29,1041.73l-90.33,7.07"/>
				<path id="Vector_104_1_" fill="none" stroke="#FFFFFF" stroke-width="2.1312" d="M1011.04,799.19l24.39,32.17"/>
				<path id="Vector_105_1_" fill="none" stroke="#FFFFFF" stroke-width="2.1312" d="M1092.9,820.29l-58.16,12.37"/>
				<path id="Vector_106_1_" fill="none" stroke="#FFFFFF" stroke-width="2.1312" d="M982.2,924.84l51.64-93.64"/>
				<path id="Vector_107_1_" fill="none" stroke="#FFFFFF" stroke-width="2.1312" d="M1092.88,819.15l3.02,119.47"/>
				<path id="Vector_108_1_" fill="none" stroke="#FFFFFF" stroke-width="2.1312" d="M1090.05,819.19l-82.45-124.93"/>
				<path id="Vector_109_1_" fill="none" stroke="#FFFFFF" stroke-width="2.1312" d="M850.36,1364.04l153.52,122.68"/>
				<path id="Vector_110_1_" fill="none" stroke="#FFFFFF" stroke-width="2.1312" d="M1003.26,1488.71l-109.46-3.6"/>
				<path id="Vector_111_1_" fill="none" stroke="#FFFFFF" stroke-width="2.1312" d="M1033.45,1672.05l-110.42,21.2"/>
				<path id="Vector_112_1_" fill="none" stroke="#FFFFFF" stroke-width="2.1312" d="M1029.2,1664.75l-136.01-179.41"/>
				<path id="Vector_113_1_" fill="none" stroke="#FFFFFF" stroke-width="2.1312" d="M539.26,1257.98l237.1,91.11"/>
				<path id="Vector_114_1_" fill="none" stroke="#FFFFFF" stroke-width="2.1312" d="M570.72,1417.26l207.22-65.12"/>
				<path id="Vector_115_1_" fill="none" stroke="#FFFFFF" stroke-width="2.1312" d="M571.64,1420.14l-139.65,166.45"/>
				<path id="Vector_116_1_" fill="#FFFFFF" d="M615.86,1611.59c5.08-3.81,6-11.08,2.05-16.24c-3.95-5.16-11.27-6.24-16.35-2.43
					c-5.08,3.81-6,11.09-2.05,16.24C603.46,1614.32,610.78,1615.41,615.86,1611.59z"/>
				<path id="Vector_117_1_" fill="none" stroke="#FFFFFF" stroke-width="2.1312" d="M608.09,1603.22l-177.77-17.16"/>
				<path id="Vector_118_1_" fill="none" stroke="#FFFFFF" stroke-width="2.1312" d="M569.68,1420.66l39.99,181.91"/>
				<path id="Vector_119_1_" fill="none" stroke="#FFFFFF" stroke-width="2.1312" d="M543.59,1259.87l28.82,158.49"/>
				<path id="Vector_120_1_" fill="none" stroke="#FFFFFF" stroke-width="2.1312" d="M828.02,1629.18l95.66,63.22"/>
				<path id="Vector_121_1_" fill="none" stroke="#FFFFFF" stroke-width="2.1312" d="M880.83,1535.15l44.04,157.21"/>
				<path id="Vector_122_1_" fill="none" stroke="#FFFFFF" stroke-width="2.1312" d="M1008.55,693.09l41.93-149.34"/>
				<path id="Vector_123_1_" fill="none" stroke="#FFFFFF" stroke-width="2.1312" d="M1004.47,695.71l128.82-134.88"/>
				<path id="Vector_124_1_" fill="none" stroke="#FFFFFF" stroke-width="2.1312" d="M1134.27,562.91l-82.34-18.56"/>
				<path id="Vector_125_1_" fill="none" stroke="#FFFFFF" stroke-width="2.1312" d="M1052.89,544.87l-78.69,48.87"/>
				<path id="Vector_126_1_" fill="none" stroke="#FFFFFF" stroke-width="2.1312" d="M1052.44,543.42l5.91-197.95"/>
				<path id="Vector_127_1_" fill="none" stroke="#FFFFFF" stroke-width="2.1312" d="M940.07,471.46l119.43-126.9"/>
				<path id="Vector_128_1_" fill="none" stroke="#FFFFFF" stroke-width="2.1312" d="M1084.18,242.35l-88,66.1l-192.38,64.26
					l137.08,99.17l54.95-162.95"/>
				<path id="Vector_129_1_" fill="none" stroke="#FFFFFF" stroke-width="2.1312" d="M1060.13,346.34l-63.57-36.63"/>
				<path id="Vector_130_1_" fill="none" stroke="#FFFFFF" stroke-width="2.1312" d="M1060.19,344.42l100.67-130.83"/>
				<path id="Vector_131_1_" fill="none" stroke="#FFFFFF" stroke-width="2.1312" d="M1161.85,215.65l-141.16-71.47"/>
				<path id="Vector_132_1_" fill="none" stroke="#FFFFFF" stroke-width="2.1312" d="M935.39,115.51l62.06,193.06l22.16-164.15"/>
				<path id="Vector_133_1_" fill="none" stroke="#FFFFFF" stroke-width="2.1312" d="M1086.66,239.53l75.22-26.03"/>
				<path id="Vector_134_1_" fill="#FFFFFF" d="M1175.81,37.24c4.19-3.14,4.94-9.13,1.69-13.38s-9.28-5.14-13.47-2
					c-4.18,3.14-4.94,9.13-1.69,13.38C1165.6,39.49,1171.63,40.38,1175.81,37.24z"/>
				<path id="Vector_135_1_" fill="none" stroke="#FFFFFF" stroke-width="2.1312" d="M1170.54,30.37l-149.41,113.27"/>
				<path id="Vector_136_1_" fill="none" stroke="#FFFFFF" stroke-width="2.1312" d="M1162.19,213.73l5.61-183.89"/>
				<path id="Vector_137_1_" fill="none" stroke="#FFFFFF" stroke-width="2.1312" d="M1087.53,241.31l-25.39,103.95"/>
				<path id="Vector_138_1_" fill="none" stroke="#FFFFFF" stroke-width="2.1312" d="M923.17,1693.66l-123.24,177.36"/>
				<path id="Vector_139_1_" fill="none" stroke="#FFFFFF" stroke-width="2.1312" d="M827.17,1630.95l-26.32,239.39"/>
				<path id="Vector_140_1_" fill="none" stroke="#FFFFFF" stroke-width="2.1312" d="M827.14,1631.99l-256.86-212.41"/>
				<path id="Vector_141_1_" fill="none" stroke="#FFFFFF" stroke-width="2.1312" d="M823.61,1500.03l-252.94-81.07"/>
				<path id="Vector_142_1_" fill="none" stroke="#FFFFFF" stroke-width="2.1312" d="M923.53,1693.98l-50.07,25.47"/>
				<path id="Vector_143_1_" fill="none" stroke="#FFFFFF" stroke-width="2.1312" d="M828.13,1630.05l46.17,88.11"/>
				<path id="Vector_144_1_" fill="none" stroke="#FFFFFF" stroke-width="2.1312" d="M873.24,1719.39l-73.18,151.47"/>
				<path id="Vector_145_1_" fill="none" stroke="#FFFFFF" stroke-width="2.1312" d="M1134.78,560.12l119.88,79.42"/>
				<path id="Vector_146_1_" fill="none" stroke="#FFFFFF" stroke-width="2.1312" d="M1252.48,637.74l180.44-124.15"/>
				<path id="Vector_147_1_" fill="none" stroke="#FFFFFF" stroke-width="2.1312" d="M1252.64,636.72l193.44-32.3"/>
				<path id="Vector_148_1_" fill="none" stroke="#FFFFFF" stroke-width="2.1312" d="M1445.36,603.49l168.46-135.5"/>
				<path id="Vector_149_1_" fill="none" stroke="#FFFFFF" stroke-width="2.1312" d="M1615.07,470.78l-181.69,43.39"/>
				<path id="Vector_150_1_" fill="none" stroke="#FFFFFF" stroke-width="2.1312" d="M1431,510.36l16.5,93.63"/>
				<path id="Vector_151_1_" fill="#FFFFFF" d="M1290.18,270.87c4.19-3.14,4.94-9.13,1.69-13.38c-3.25-4.25-9.28-5.14-13.47-2
					c-4.18,3.14-4.94,9.13-1.68,13.38C1279.97,273.12,1286,274.01,1290.18,270.87z"/>
				<path id="Vector_152_1_" fill="#FFFFFF" d="M1381.08,385.28c4.19-3.14,4.94-9.13,1.69-13.38c-3.25-4.25-9.28-5.14-13.47-2
					c-4.18,3.14-4.94,9.13-1.69,13.38C1370.87,387.52,1376.9,388.42,1381.08,385.28z"/>
				<path id="Vector_153_1_" fill="none" stroke="#FFFFFF" stroke-width="2.1312" d="M1244.17,410.74l38.72-148.16"/>
				<path id="Vector_154_1_" fill="none" stroke="#FFFFFF" stroke-width="2.1312" d="M1375.8,378.84l-129.07,31.38"/>
				<path id="Vector_155_1_" fill="#FFFFFF" d="M1441.18,266.03c4.18-3.14,4.94-9.13,1.69-13.38c-3.26-4.25-9.28-5.14-13.47-2
					c-4.19,3.14-4.94,9.13-1.69,13.38C1430.96,268.28,1436.99,269.17,1441.18,266.03z"/>
				<path id="Vector_156_1_" fill="#FFFFFF" d="M1511.4,353.17c4.19-3.14,4.95-9.13,1.69-13.38c-3.25-4.25-9.28-5.14-13.46-2
					c-4.19,3.14-4.94,9.13-1.69,13.38C1501.19,355.42,1507.22,356.32,1511.4,353.17z"/>
				<path id="Vector_157_1_" fill="none" stroke="#FFFFFF" stroke-width="2.1312" d="M1374.25,378.7l59.88-121.04"/>
				<path id="Vector_158_1_" fill="none" stroke="#FFFFFF" stroke-width="2.1312" d="M1506.13,346.74l-129.08,31.38"/>
				<path id="Vector_159_1_" fill="#FFFFFF" d="M1223.69,1099.25c5.09-3.82,6.01-11.09,2.06-16.24c-3.95-5.16-11.27-6.25-16.36-2.43
					c-5.08,3.81-6,11.08-2.05,16.24C1211.29,1101.97,1218.61,1103.06,1223.69,1099.25z"/>
				<path id="Vector_160_1_" fill="#FFFFFF" d="M1253.47,987.94c4.19-3.14,4.94-9.13,1.69-13.38c-3.25-4.25-9.28-5.14-13.46-2
					c-4.19,3.14-4.95,9.13-1.69,13.38C1243.26,990.18,1249.29,991.08,1253.47,987.94z"/>
				<path id="Vector_161_1_" fill="#FFFFFF" d="M1366.39,1094.49c4.33-3.25,5.12-9.44,1.75-13.83c-3.36-4.4-9.6-5.32-13.93-2.07
					c-4.32,3.25-5.11,9.44-1.74,13.83C1355.83,1096.81,1362.07,1097.74,1366.39,1094.49z"/>
				<path id="Vector_162_1_" fill="#FFFFFF" d="M1310.27,1322.96c4.32-3.24,5.11-9.44,1.74-13.83c-3.36-4.39-9.6-5.32-13.92-2.07
					c-4.33,3.25-5.12,9.44-1.75,13.83C1299.7,1325.29,1305.94,1326.21,1310.27,1322.96z"/>
				<path id="Vector_163_1_" fill="none" stroke="#FFFFFF" stroke-width="2.1312" d="M1091.85,937.04l156.31,43.3"/>
				<path id="Vector_164_1_" fill="none" stroke="#FFFFFF" stroke-width="2.1312" d="M1092.6,938.14l124.76,151.21"/>
				<path id="Vector_165_1_" fill="none" stroke="#FFFFFF" stroke-width="2.1312" d="M1216.26,1089.64l89.21,224.54"/>
				<path id="Vector_166_1_" fill="none" stroke="#FFFFFF" stroke-width="2.1312" d="M1359.94,1087.39l-113.07-106.44"/>
				<path id="Vector_167_1_" fill="none" stroke="#FFFFFF" stroke-width="2.1312" d="M1248.45,981.48l-30.33,108.55"/>
				<path id="Vector_168_1_" fill="none" stroke="#FFFFFF" stroke-width="2.1312" d="M1253.41,639.66L1093.83,819.5"/>
				<path id="Vector_169_1_" fill="none" stroke="#FFFFFF" stroke-width="2.1312" d="M1010.28,689.58l243.04-50.36"/>
				<path id="Vector_170_1_" fill="none" stroke="#FFFFFF" stroke-width="2.1312" d="M904.13,616.07l19.19,83.8"/>
				<path id="Vector_171_1_" fill="none" stroke="#FFFFFF" stroke-width="2.1312" d="M920.31,697.71L852.89,811.1"/>
				<path id="Vector_172_1_" fill="none" stroke="#FFFFFF" stroke-width="2.1312" d="M1305.63,1314.13l52.64-227.22"/>
				<path id="Vector_173_1_" fill="none" stroke="#FFFFFF" stroke-width="2.1312" d="M1360.82,1088.24l-142.95,0.69"/>
				<path id="Vector_174_1_" fill="none" stroke="#FFFFFF" stroke-width="2.1312" d="M1215.43,1092.7l-237.91,12.92"/>
				<path id="Vector_175_1_" fill="none" stroke="#FFFFFF" stroke-width="2.1312" d="M1086.91,243.55l-67.26-97.92l-84.93-29.82
					l-129.39,257.8"/>
				<path id="Vector_176_1_" fill="none" stroke="#FFFFFF" stroke-width="2.1312" d="M851.15,812.17l130.82,115.5"/>
				<path id="Vector_177_1_" fill="none" stroke="#FFFFFF" stroke-width="2.1312" d="M820.23,1246.93l-276.5,13.06l-253.03-73.83
					l-172,48.38l-88.48,232.85l231.75-146.36l281.76-61.04"/>
				<path id="Vector_178_1_" fill="none" stroke="#FFFFFF" stroke-width="2.1312" d="M120.71,1237.3l141.85,85.76"/>
				<path id="Vector_179_1_" fill="none" stroke="#FFFFFF" stroke-width="2.1312" d="M291.84,1187.78l-28.7,134.47"/>
				<path id="Vector_180_1_" fill="#FFFFFF" d="M587.5,580.19c5.78-4.34,6.83-12.61,2.33-18.48c-4.49-5.87-12.82-7.1-18.6-2.77
					c-5.78,4.34-6.83,12.61-2.33,18.48C573.39,583.29,581.72,584.53,587.5,580.19z"/>
				<path id="Vector_181_1_" fill="#FFFFFF" d="M362.02,704.4c4.32-3.24,5.1-9.43,1.75-13.82c-3.36-4.39-9.59-5.31-13.91-2.07
					c-4.32,3.24-5.1,9.43-1.74,13.82S357.69,707.65,362.02,704.4z"/>
				<path id="Vector_182_1_" fill="#FFFFFF" d="M410.38,572.37c5.08-3.82,6-11.09,2.05-16.24c-3.95-5.16-11.27-6.24-16.35-2.43
					c-5.08,3.82-6,11.09-2.05,16.24C397.97,575.1,405.3,576.18,410.38,572.37z"/>
				<path id="Vector_183_1_" fill="#FFFFFF" d="M508.13,733.38c4.27-3.21,5.05-9.33,1.73-13.66c-3.32-4.34-9.48-5.25-13.76-2.04
					c-4.27,3.21-5.05,9.33-1.73,13.66C497.7,735.67,503.85,736.59,508.13,733.38z"/>
				<path id="Vector_184_1_" fill="#FFFFFF" d="M728.43,713.14c4.28-3.21,5.05-9.33,1.73-13.66c-3.32-4.34-9.48-5.25-13.76-2.04
					c-4.28,3.21-5.05,9.33-1.73,13.66C718,715.44,724.16,716.35,728.43,713.14z"/>
				<path id="Vector_185_1_" fill="none" stroke="#FFFFFF" stroke-width="2.1312" d="M852.08,815.39L722.91,708.48L576.7,572.8
					l-175.24-11.23l-45.65,132.34l146.4,30.68l220.7-16.11"/>
				<path id="Vector_186_1_" fill="none" stroke="#FFFFFF" stroke-width="2.1312" d="M402.78,563.16l99.77,162.24"/>
				<path id="Vector_187_1_" fill="none" stroke="#FFFFFF" stroke-width="2.1312" d="M577.79,572.43l-74.95,152.89"/>
				<path id="Vector_188_1_" fill="none" stroke="#FFFFFF" stroke-width="2.1312" d="M722.9,705.54l199.35-3.11"/>
				<path id="Vector_189_1_" fill="none" stroke="#FFFFFF" stroke-width="2.1312" d="M904.61,615.06L723.03,706"/>
				<path id="Vector_190_1_" fill="none" stroke="#FFFFFF" stroke-width="2.1312" d="M1135.46,560.43l107.34-149.3"/>
				<path id="Vector_191_1_" fill="#FFFFFF" d="M554.7,909.49c7.23-5.42,8.54-15.77,2.92-23.1c-5.62-7.33-16.03-8.88-23.26-3.46
					c-7.23,5.43-8.54,15.77-2.92,23.1C537.06,913.37,547.48,914.92,554.7,909.49z"/>
				<path id="Vector_192_1_" fill="#FFFFFF" d="M397.06,903.41c4.19-3.14,4.94-9.13,1.69-13.38c-3.25-4.25-9.28-5.14-13.47-2
					c-4.18,3.14-4.94,9.13-1.69,13.38C386.85,905.65,392.88,906.55,397.06,903.41z"/>
				<path id="Vector_193_1_" fill="#FFFFFF" d="M482.67,1021.83c4.18-3.15,4.94-9.13,1.69-13.38c-3.25-4.25-9.28-5.14-13.47-2
					c-4.18,3.14-4.94,9.13-1.69,13.37C472.45,1024.07,478.48,1024.97,482.67,1021.83z"/>
				<path id="Vector_194_1_" fill="none" stroke="#FFFFFF" stroke-width="2.1312" d="M390.25,894.02l154.55,3.1"/>
				<path id="Vector_195_1_" fill="none" stroke="#FFFFFF" stroke-width="2.1312" d="M543.02,899.8l-65.33,114.72"/>
				<path id="Vector_196_1_" fill="#FFFFFF" d="M378.89,1026.82c4.19-3.15,4.94-9.13,1.69-13.38c-3.25-4.25-9.28-5.14-13.47-2
					c-4.19,3.14-4.94,9.13-1.69,13.37C368.67,1029.06,374.7,1029.96,378.89,1026.82z"/>
				<path id="Vector_197_1_" fill="#FFFFFF" d="M552.6,1115.57c4.18-3.14,4.94-9.13,1.69-13.38c-3.25-4.24-9.28-5.14-13.47-2
					c-4.18,3.14-4.94,9.13-1.69,13.38C542.39,1117.81,548.42,1118.71,552.6,1115.57z"/>
				<path id="Vector_198_1_" fill="none" stroke="#FFFFFF" stroke-width="2.1312" d="M372.16,1017.71l106.44-4.06"/>
				<path id="Vector_199_1_" fill="none" stroke="#FFFFFF" stroke-width="2.1312" d="M477.42,1016.47l69.7,91.95"/>
				<path id="Vector_200_1_" fill="none" stroke="#FFFFFF" stroke-width="2.1312" d="M501.15,725.8l44.34,170.13"/>
			</g>
		</mask>
		<g mask="url(#mask0_1_)">
			
				<linearGradient id="gradient_1_" gradientUnits="userSpaceOnUse" x1="960.3654" y1="1871.4105" x2="661.7014" y2="-44.4474" gradientTransform="matrix(1 0 0 -1 0 1904)">
				<stop  offset="0" style="stop-color:#54FEFA"/>
				<stop  offset="0.5365" style="stop-color:#8190FF"/>
				<stop  offset="1" style="stop-color:#D819F7"/>
			</linearGradient>
			<rect id="gradient" x="-28" y="-55" fill="url(#gradient_1_)" width="1696" height="1976"/>
		</g>
	</g>
</g>
</svg>
