<svg xmlns="http://www.w3.org/2000/svg" preserveAspectRatio="xMinYMid meet" fill="none" viewBox="0 0 247 345"><path fill="url(#paint0_linear)" fill-rule="evenodd" d="M62.5 124.2A62 62 0 1 0 62.5 0a62 62 0 0 0 0 124.2zm91 2.2a31 31 0 1 0-.1 0 31 31 0 1 0 .1 0zm-77.7 31c8.6 0 15.5-6.9 15.5-15.4a15.5 15.5 0 1 0 0-.1 15.5 15.5 0 1 0-15.5 15.5zm0 31c8.6 0 15.5-6.8 15.5-15.4 0 8.6 7 15.5 15.5 15.5a15.5 15.5 0 1 0 .1 0 15.5 15.5 0 1 0-15.6-15.6 15.5 15.5 0 1 0-15.5 15.6zm86.4 125.2a31 31 0 1 0 0-62.1 31 31 0 0 0 0 62zm84.4-156.2a31 31 0 1 1-62 0 31 31 0 0 1 62 0zM91.3 235a15.5 15.5 0 1 1-31 0 15.5 15.5 0 0 1 31 0zm-13.8 77.6a15.5 15.5 0 1 0 0-31 15.5 15.5 0 0 0 0 31zM93 329.5a15.5 15.5 0 1 1-31 0 15.5 15.5 0 0 1 31 0z" clip-rule="evenodd"/><defs><linearGradient id="paint0_linear" x1="-21.2" x2="62.8" y1="-17.7" y2="321.3" gradientUnits="userSpaceOnUse"><stop stop-color="#008FDF"/><stop offset="1" stop-color="#00E3BA"/></linearGradient></defs></svg>