<svg xmlns="http://www.w3.org/2000/svg" width="295" height="449" fill="none" viewBox="0 0 295 449"><path fill="url(#paint0_linear)" fill-rule="evenodd" d="M80.1 1l80.05 46.22v92.43l-80.06 46.22L.05 139.65V47.22L80.1 1zm123.74 160.26l54.75 31.6v63.22l-54.75 31.61-54.75-31.6v-63.22l54.75-31.61zm6.95 179.46l-30.5-17.6-30.5 17.6v35.22l30.5 17.6 30.5-17.6v-35.22zm39.27 69.59l16.48 9.52v19.03l-16.48 9.52-16.49-9.52v-19.03l16.49-9.52zm44.29-300.12L265.47 93.5l-28.88 16.68v33.34l28.88 16.68 28.88-16.68V110.2z" clip-rule="evenodd"/><defs><linearGradient id="paint0_linear" x1="167.41" x2="129.92" y1="1.28" y2="453.06" gradientUnits="userSpaceOnUse"><stop stop-color="#4C66F1"/><stop offset="1" stop-color="#D129C3"/></linearGradient></defs></svg>