<svg xmlns="http://www.w3.org/2000/svg" viewBox="0 0 404 100"><g fill="none" fill-rule="evenodd"><path fill="#FFF" d="M72.9 79c3.4 0 6.1-2.8 6.1-6.2V21.5H32.7c-4 0-7.2 3.2-7.2 7.1V79H73z" opacity=".8"/><path fill="#98C21F" d="M81.7 100zM60 82.2h-.2z"/><path fill="#FFF" d="M95.6 21.5H82.2v52.2c0 4.6-3.8 8.5-8.5 8.5H25.5v9.3c0 4.7 3.8 8.5 8.5 8.5h61.6c4.7 0 8.4-3.8 8.4-8.5V30c0-4.7-3.8-8.4-8.4-8.4z" opacity=".7"/><path fill="#FFF" d="M22.7 27c0-4.6 3.7-8.3 8.4-8.3h48V9C79 4.5 75.2.8 70.6.8H9.2A8.3 8.3 0 0 0 .9 9v61.4c0 4.7 3.7 8.5 8.4 8.5h13.4V27z"/><g fill="#FFF"><path d="M135.2 54c-4.7-1.6-10-4.2-10-10 0-4.6 4-9.2 10.4-9.2 6.8 0 10.4 5.1 10.4 5.1l-3.8 3.9s-2.6-3.7-6.6-3.7c-2.8 0-4.8 1.8-4.8 3.8 0 2.8 2.5 3.7 6.9 5.3 4.8 1.7 9 4 9 9.8 0 5.9-5.2 9-11.2 9-8 0-11.7-6.6-11.7-6.6l4-3.6s2.8 4.9 7.7 4.9c2.8 0 5.6-1 5.6-3.7 0-2.6-2.1-3.7-6-5z"/><path fill-rule="nonzero" d="M182.9 51.4A16 16 0 0 1 166.7 68c-9.4 0-16.1-7-16.1-16.6a16 16 0 0 1 16.1-16.6A16 16 0 0 1 183 51.4zm-5.6 0c0-6.2-4.1-11.3-10.6-11.3-6.4 0-10.5 5.1-10.5 11.3 0 6.1 4 11.3 10.5 11.3s10.6-5.2 10.6-11.3z"/><path d="M210.9 58.9l3.6 3.6s-4.2 5.5-12.3 5.5A16 16 0 0 1 186 51.4a16 16 0 0 1 16.3-16.6c7.6 0 11.9 5 11.9 5l-3.7 3.7s-3-3.6-8.2-3.6c-6.3 0-10.7 5.3-10.7 11.5 0 6.1 4.4 11.4 10.7 11.4 5.6 0 8.7-4 8.7-4zM239.2 37.6h-9.7v-2.2h21.7v2.2h-9.7v29.8h-2.3V37.6z"/><path fill-rule="nonzero" d="M270.8 57v1h-18a8.1 8.1 0 0 0 8.4 7.6c3.2 0 5.7-1.7 7.1-3.5l1.7 1.6c-2 2.5-5.3 4.3-8.8 4.3-6.2 0-10.7-5-10.7-11s4-11 10.2-11c5.6 0 10.1 4.7 10.1 11zm-2.5-1.2c-.1-2.4-2.2-7.5-7.6-7.5-5.8 0-7.8 5.1-7.8 7.5h15.4z"/><path d="M276.6 32.8h2.3v34.6h-2.3z"/><path fill-rule="nonzero" d="M304.9 57v1h-18a8.1 8.1 0 0 0 8.3 7.6c3.2 0 5.7-1.7 7.2-3.5l1.6 1.6c-2 2.5-5.3 4.3-8.8 4.3-6.2 0-10.7-5-10.7-11s4-11 10.2-11c5.6 0 10.2 4.7 10.2 11zm-2.4-1.2c-.1-2.4-2.2-7.5-7.6-7.5-5.9 0-7.8 5.1-7.8 7.5h15.4z"/><path d="M325.4 67.4H323v-13c0-4.3-1.9-6-5-6-4 0-5.8 3.9-5.8 3.9v15h-2.4V46.6h2.2v3.6s1.8-4.1 6.5-4.1c2.5 0 5.1 1.1 6.3 4 .2-.2 2-4 6.8-4 3.2 0 6.8 1.7 6.8 7.6v13.8h-2.3v-13c0-4.3-2-6-5.1-6-4 0-5.6 3.9-5.6 3.9v15z"/><path fill-rule="nonzero" d="M363.8 57v1h-18a8.1 8.1 0 0 0 8.3 7.6c3.3 0 5.8-1.7 7.2-3.5l1.6 1.6c-2 2.5-5.2 4.3-8.8 4.3-6.1 0-10.7-5-10.7-11s4.1-11 10.3-11c5.4 0 10.1 4.7 10.1 11zm-2.5-1.2c-.1-2.4-2.2-7.5-7.6-7.5-5.9 0-7.8 5.1-7.8 7.5h15.4zm24 11.6v-3.8s-2.6 4.4-7.8 4.4c-6 0-10.5-4.6-10.5-11 0-6.5 4.6-11 10.5-11 4.5 0 7 3.2 7.4 4V32.9h2.4v34.6h-2zm-.4-14.3s-2.2-4.8-7.4-4.8c-4.7 0-8 3.8-8 8.7 0 4.8 3.3 8.6 8 8.6 5.2 0 7.4-4.8 7.4-4.8V53zM396.2 37.9h-.9v-4.7h-1.7v-.9h4.5v.9h-1.7v4.7h-.2zm3.3 0h-1v-5.6h1.4l1.5 4.4 1.3-4.4h1.3V38h-.9v-4.7l-1.4 4.7h-1l-1.4-4.7v4.7h.2z"/></g></g></svg>