<svg xmlns="http://www.w3.org/2000/svg" viewBox="0 0 399 64"><g fill="none" fill-rule="evenodd"><path fill="#469DD7" d="M25 9.8V1.4a31.6 31.6 0 0 0-15 8.4h15"/><path fill="#0081C8" d="M39.8 9.8V1.4a31.6 31.6 0 0 1 14.9 8.4h-15"/><path fill="#A0C2E4" d="M32.4.6c-2.6 0-5.1.3-7.5.8v8.4h14.9V1.4C37.4 1 34.9.6 32.4.6"/><path fill="#0081C8" d="M39.8 54.5v8.3a31.6 31.6 0 0 0 14.9-8.3h-15m-14.8 0v8.3A31.6 31.6 0 0 1 10 54.5h15"/><path fill="#469DD7" d="M32.3 63.7c2.6 0 5.1-.3 7.5-.9v-8.3H24.9v8.3c2.4.6 4.9 1 7.4 1"/><path fill="#0081C8" d="M54.7 24.7H63a31.6 31.6 0 0 0-8.4-14.9v14.9m0 14.9H63a31.6 31.6 0 0 1-8.4 14.9v-15"/><path fill="#469DD7" d="M64 32.2c0-2.6-.4-5.1-1-7.5h-8.3v14.9H63c.6-2.4 1-4.9 1-7.4"/><path fill="#0081C8" d="M10 39.6H1.7A31.5 31.5 0 0 0 10 54.5v-15"/><path fill="#469DD7" d="M10 24.7H1.7A31.6 31.6 0 0 1 10 9.8v14.9"/><path fill="#A0C2E4" d="M.8 32.1c0 2.6.3 5 .9 7.5H10v-15H1.7c-.6 2.5-1 5-1 7.5"/><path fill="#93CC84" d="M10 24.7h15V9.8H10z"/><path fill="#C6E3BD" d="M10 39.6h15V24.7H10z"/><path fill="#6EBF5D" d="M10 54.5h15V39.6H10z"/><path fill="#C6E3BD" d="M25 24.7h14.8V9.8H25z"/><path fill="#E4105B" d="M25 39.6h14.8V24.7H25z"/><path fill="#93CC84" d="M25 54.5h14.8V39.6H25z"/><path fill="#6EBF5D" d="M39.8 24.7h14.8V9.8H39.8z"/><path fill="#93CC84" d="M39.8 39.6h14.8V24.7H39.8z"/><path fill="#6EBF5D" d="M39.8 54.5h14.8V39.6H39.8z"/><path fill="#FFF" d="M116.2 54.6h-2.8l-6.5-18.3c-.6-1.5-1.2-3.4-1.8-5.5h-.2l-1.8 5.5-6.8 18.3h-3L81.2 19h4.2l8 23.7 1.7 5.5c.5-1.7 1.2-3.5 2-5.4l6-16.8-2.4-7h4.2l8.1 23.5 1.9 5.4 1.7-5.3 7.7-23.6h4.1l-12 35.6"/><path fill="#FFF" fill-rule="nonzero" d="M139.8 31.7c-4.8 0-7.5 3.9-7.5 9.9s2.8 10 7.6 10c4.7 0 7.6-4 7.6-10s-2.8-9.9-7.7-9.9zm8 20.1a11 11 0 0 1-8 3.2c-3.2 0-6-1-8-3.1-2.2-2.4-3.5-6-3.5-10.2 0-4.2 1.3-7.7 3.6-10 2-2.1 4.7-3.3 8-3.3 3.2 0 6 1.2 8 3.3 2.2 2.3 3.5 5.8 3.5 10s-1.3 7.7-3.6 10.1z"/><path fill="#FFF" d="M161 55c-3.1 0-4.5-2-4.5-4.7V16.4h4v32.1c0 2.5.5 3 2 3 .3 0 .8 0 1.4-.2l.5 2.8a7 7 0 0 1-3.4.9m14.3 0c-3.7 0-5.4-2.2-5.4-5.4V32.4h-4.2V29h4.2v-5.6l3.9-1.3v7h7.8l-1.4 3.3h-6.4v16c0 2.1.8 3 2.5 3 1.8 0 3.5-1 4.5-1.7l1.2 2.8a11.9 11.9 0 0 1-6.7 2.5"/><path fill="#FFF" fill-rule="nonzero" d="M193.8 31.7c-3.8 0-6.1 3.3-6.1 7.4h12c0-3.6-2-7.4-6-7.4zm-6.2 10.7c0 4.8 2.8 9.1 8.4 9.1a12 12 0 0 0 6-1.8l1.2 2.7c-1.8 1.5-5 2.6-8 2.6-8 0-11.8-6.5-11.8-13.8 0-7.3 4.2-12.8 10.3-12.8 6.6 0 10.2 5.2 10.2 13v1h-16.3z"/><path fill="#FFF" d="M221.8 33c-.5-.3-1.3-.5-2.4-.5-1.5 0-4 1.3-5.6 3v19H210V29h3.2l.6 3c3.5-3.2 5.4-3.6 7.2-3.6 1.1 0 2.1.4 2.6.7l-1.7 3.8m9.8 22a14 14 0 0 1-7.5-1.9l1.5-3c1.2.7 3.4 1.8 6.2 1.8 3 0 5.4-1.4 5.4-3.7 0-6.3-11.6-4-11.6-13 0-3.7 2.6-6.7 8.4-6.7 2.7 0 4.8.6 6.4 1.3v3.5c-1.7-.8-3.6-1.5-6.2-1.5s-4.7.9-4.7 3.2c0 5.7 11.7 4.2 11.7 12.6 0 5.3-4.4 7.5-9.6 7.5M276 54.4l-14.2-16v16H258V19h4v16.3L275 19.1h5l-14.7 17.4 16 17.9H276M289.4 55c-3 0-4.4-2-4.4-4.7V16.4h4v32.1c0 2.5.5 3 2 3 .3 0 .7 0 1.3-.2l.5 2.8a7 7 0 0 1-3.4.9m24.3-.6l-1-2.6a13 13 0 0 1-8.2 3.2c-3.4 0-7.7-1.8-7.7-9V29h3.9v16.7c0 4.2 1.8 5.9 5 5.9a9 9 0 0 0 6.7-3.4V29h4v14.8c0 8 0 9.6.5 10.6h-3.2M348.6 54.6H345l-6.3-20.5h-.2l-6.3 20.5h-3.4L320.3 29h4l6.2 20.2h.2L337 29h3.5l6.4 20.3h.1l6.1-20.3h4l-8.5 25.6"/><path fill="#FFF" fill-rule="nonzero" d="M369.3 31.7c-3.8 0-6.1 3.3-6.1 7.4h12c0-3.6-2-7.4-5.9-7.4zm-6.2 10.7c0 4.8 2.8 9.1 8.5 9.1a12 12 0 0 0 6-1.8l1.2 2.7c-1.9 1.5-5 2.6-8 2.6-8 0-11.9-6.5-11.9-13.8 0-7.3 4.2-12.8 10.4-12.8 6.5 0 10.1 5.2 10.1 13v1h-16.3z"/><path fill="#FFF" d="M396.6 33c-.5-.3-1.3-.5-2.4-.5-1.5 0-4 1.3-5.6 3v19h-4V29h3.3l.5 3c3.5-3.2 5.5-3.6 7.3-3.6 1.1 0 2.1.4 2.6.7l-1.7 3.8M63.7 51.2h-1v3.2h-1v-3.2h-1.2v-.7H64l-.2.7M67.7 54.4v-2-.4l-.3.4-.7 1h-.4l-.7-1-.3-.4v2.4h-.9v-4h.8l1 1.5c.2.1.3.3.3.4l.3-.5 1-1.3h.8v4h-1"/></g></svg>