<svg xmlns="http://www.w3.org/2000/svg" viewBox="0 0 399 64"><g fill="none" fill-rule="evenodd"><path fill="#469DD7" d="M25 9.4V1a31.6 31.6 0 0 0-15 8.4h15"/><path fill="#0081C8" d="M39.8 9.4V1a31.6 31.6 0 0 1 14.9 8.4h-15"/><path fill="#A0C2E4" d="M32.4.1c-2.6 0-5.1.3-7.5 1v8.3h14.9V1C37.4.5 34.9.1 32.4.1"/><path fill="#0081C8" d="M39.8 54v8.4A31.6 31.6 0 0 0 54.7 54h-15M25 54v8.4A31.6 31.6 0 0 1 10 54h15"/><path fill="#469DD7" d="M32.3 63.3c2.6 0 5.1-.3 7.5-.9V54H24.9v8.4c2.4.6 4.9.9 7.4.9"/><path fill="#0081C8" d="M54.7 24.3H63a31.6 31.6 0 0 0-8.4-14.9v14.9m0 14.9H63A31.6 31.6 0 0 1 54.7 54V39.2"/><path fill="#469DD7" d="M64 31.7c0-2.5-.4-5-1-7.4h-8.3v14.9H63c.6-2.4 1-4.9 1-7.5"/><path fill="#0081C8" d="M10 39.2H1.7A31.5 31.5 0 0 0 10 54V39.2"/><path fill="#469DD7" d="M10 24.3H1.7A31.6 31.6 0 0 1 10 9.4v14.9"/><path fill="#A0C2E4" d="M.8 31.7c0 2.6.3 5 .9 7.5H10v-15H1.7c-.6 2.5-1 5-1 7.5"/><path fill="#93CC84" d="M10 24.3h15v-15H10z"/><path fill="#C6E3BD" d="M10 39.2h15v-15H10z"/><path fill="#6EBF5D" d="M10 54h15V39.3H10z"/><path fill="#C6E3BD" d="M25 24.3h14.8v-15H25z"/><path fill="#E4105B" d="M25 39.2h14.8v-15H25z"/><path fill="#93CC84" d="M25 54h14.8V39.3H25z"/><path fill="#6EBF5D" d="M39.8 24.3h14.8v-15H39.8z"/><path fill="#93CC84" d="M39.8 39.2h14.8v-15H39.8z"/><path fill="#6EBF5D" d="M39.8 54h14.8V39.3H39.8z"/><path fill="#696A6D" d="M116.2 54.2h-2.8l-6.5-18.3c-.6-1.5-1.2-3.4-1.8-5.5h-.2l-1.8 5.5-6.8 18.3h-3L81.2 18.6h4.2l8 23.7 1.7 5.5c.5-1.7 1.2-3.5 2-5.4l6-16.8-2.4-7h4.2l8.1 23.4 1.9 5.5 1.7-5.3 7.7-23.6h4.1l-12 35.6"/><path fill="#696A6D" fill-rule="nonzero" d="M139.8 31.3c-4.8 0-7.5 3.9-7.5 9.9s2.8 10 7.6 10c4.7 0 7.6-4 7.6-10s-2.8-9.9-7.7-9.9zm8 20.1a11 11 0 0 1-8 3.2c-3.2 0-6-1.1-8-3.1-2.2-2.4-3.5-6-3.5-10.2 0-4.2 1.3-7.7 3.6-10 2-2.2 4.7-3.3 8-3.3 3.2 0 6 1.1 8 3.2 2.2 2.4 3.5 5.9 3.5 10 0 4.3-1.3 7.8-3.6 10.2z"/><path fill="#696A6D" d="M161 54.6c-3.1 0-4.5-2-4.5-4.7v-34h4v32.2c0 2.4.5 3 2 3 .3 0 .8 0 1.4-.2l.5 2.8a7 7 0 0 1-3.4.9m14.3 0c-3.7 0-5.4-2.2-5.4-5.5V32h-4.2v-3.3h4.2V23l3.9-1.3v7h7.8l-1.4 3.2h-6.4v16c0 2.2.8 3.2 2.5 3.2 1.8 0 3.5-1 4.5-1.9L182 52a11.9 11.9 0 0 1-6.7 2.6"/><path fill="#696A6D" fill-rule="nonzero" d="M193.8 31.3c-3.8 0-6.1 3.3-6.1 7.4h12c0-3.6-2-7.4-6-7.4zM187.6 42c0 4.8 2.8 9.1 8.4 9.1a12 12 0 0 0 6-1.8l1.2 2.7c-1.8 1.5-5 2.6-8 2.6-8 0-11.8-6.5-11.8-13.8 0-7.4 4.2-12.8 10.3-12.8 6.6 0 10.2 5.2 10.2 13v1h-16.3z"/><path fill="#696A6D" d="M221.8 32.5c-.5-.2-1.3-.4-2.4-.4-1.5 0-4 1.3-5.6 3v19H210V28.5h3.2l.6 3c3.5-3.3 5.4-3.6 7.2-3.6 1.1 0 2.1.4 2.6.7l-1.7 3.8m9.8 22a14 14 0 0 1-7.5-1.9l1.5-3c1.2.7 3.4 1.8 6.2 1.8 3 0 5.4-1.4 5.4-3.8 0-6.2-11.6-4-11.6-13 0-3.6 2.6-6.6 8.4-6.6 2.7 0 4.8.6 6.4 1.3v3.4c-1.7-.7-3.6-1.5-6.2-1.5s-4.7 1-4.7 3.3c0 5.7 11.7 4.2 11.7 12.5 0 5.4-4.4 7.6-9.6 7.6M276 54l-14.2-16v16H258V18.6h4v16.3L275 18.7h5L265.2 36l16 17.9H276M289.4 54.6c-3 0-4.4-2-4.4-4.7v-34h4v32.2c0 2.4.5 3 2 3 .3 0 .7 0 1.3-.2l.5 2.8a7 7 0 0 1-3.4.9m24.3-.6l-1-2.6a13 13 0 0 1-8.2 3.2c-3.4 0-7.7-1.8-7.7-9v-17h3.9v16.7c0 4.2 1.8 5.9 5 5.9a9 9 0 0 0 6.7-3.4V28.6h4v14.8c0 8 0 9.6.5 10.6h-3.2M348.6 54.2H345l-6.3-20.5h-.2l-6.3 20.5h-3.4l-8.5-25.6h4l6.2 20.2h.2l6.3-20.2h3.5l6.4 20.3h.1l6.1-20.3h4l-8.5 25.6"/><path fill="#696A6D" fill-rule="nonzero" d="M369.3 31.3c-3.8 0-6.1 3.3-6.1 7.4h12c0-3.6-2-7.4-5.9-7.4zM363.1 42c0 4.8 2.8 9.1 8.5 9.1a12 12 0 0 0 6-1.8l1.2 2.7c-1.9 1.5-5 2.6-8 2.6-8 0-11.9-6.5-11.9-13.8 0-7.4 4.2-12.8 10.4-12.8 6.5 0 10.1 5.2 10.1 13v1h-16.3z"/><path fill="#696A6D" d="M396.6 32.5c-.5-.2-1.3-.4-2.4-.4-1.5 0-4 1.3-5.6 3v19h-4V28.5h3.3l.5 3c3.5-3.3 5.5-3.6 7.3-3.6 1.1 0 2.1.4 2.6.7l-1.7 3.8M63.7 50.8h-1V54h-1v-3.2h-1.2V50H64l-.2.7M67.7 54v-2-.4l-.3.4-.7 1h-.4l-.7-1-.3-.4V54h-.9v-4h.8l1 1.4.3.5.3-.5 1-1.3h.8v4h-1"/></g></svg>