<svg aria-hidden="true" data-name="logo-horiz" style="position: absolute; width: 0; height: 0; overflow: hidden;" xmlns="http://www.w3.org/2000/svg" xmlns:xlink="http://www.w3.org/1999/xlink">
    <defs>
        <symbol id="datica-logo-horiz" viewBox="0 0 222 90">
            <title>datica-logo</title>
            <path fill="currentColor" fill-rule="evenodd" d="M0.418,35.73 L6.13,29.348 L26.05,53.105 L0.418,35.73 Z M6.13,67.313 L6.13,58.695 L36.778,62.981 L6.13,67.313 Z M31.484,86.878 L25.726,80.496 L51.36,63.121 L31.484,86.878 L31.484,86.878 Z M63.34,84.456 L54.796,83.571 L62.272,53.431 L63.34,84.456 Z M85.444,61.257 L78.479,66.288 L63.944,38.898 L85.444,61.258 L85.444,61.257 Z M86.374,29.161 L84.562,37.593 L55.492,26.972 L86.373,29.162 L86.374,29.161 Z M65.661,4.705 L69.933,12.205 L41.235,23.805 L65.661,4.705 Z M33.945,0.465 L42.117,3.121 L28.557,31.025 L33.945,0.465 Z M7.523,18.54 L15.371,15.046 L23.915,44.906 L7.523,18.54 Z M0,49.751 L3.483,41.878 L29.766,58.322 L0,49.752 L0,49.751 Z M15.185,77.981 L12.538,69.781 L43.001,64.378 L15.185,77.981 L15.185,77.981 Z M45.323,88.741 L37.846,84.456 L56.932,59.953 L45.322,88.741 L45.323,88.741 Z M74.903,76.537 L66.498,78.353 L64.315,47.375 L74.903,76.537 L74.903,76.537 Z M88.741,47.608 L83.68,54.596 L61.39,33.028 L88.741,47.608 L88.741,47.608 Z M79.733,16.863 L80.615,25.435 L49.688,24.363 L79.733,16.863 L79.733,16.863 Z M52.52,0 L58.882,5.776 L35.2,25.761 L52.52,0 Z M21.036,5.776 L29.626,5.776 L25.308,36.521 L21.036,5.776 Z M106.49,58.097 L106.49,30.172 L116.559,30.172 C124.739,30.172 130.089,35.757 130.089,44.017 C130.089,52.277 124.779,58.097 116.479,58.097 L106.489,58.097 L106.49,58.097 Z M139.646,58.569 C135.634,58.569 132.96,56.249 132.96,52.749 C132.96,50.86 133.786,49.287 135.359,48.304 C136.775,47.478 138.663,46.967 141.769,46.534 L145.939,46.023 L145.939,45.511 C145.939,42.561 144.799,41.303 142.281,41.303 C139.961,41.303 138.584,42.523 138.427,44.764 L133.589,44.764 C133.904,40.556 137.207,37.96 142.281,37.96 C148.102,37.96 150.698,40.438 150.698,46.14 L150.698,52.001 C150.698,54.676 150.895,56.721 151.288,58.097 L146.568,58.097 C146.393912,56.9771931 146.289046,55.8477161 146.254,54.715 C145.31,57.115 142.832,58.569 139.646,58.569 L139.646,58.569 Z M153.806,41.853 L153.806,38.432 L157.346,38.432 L157.346,33.476 L162.065,31.588 L162.065,38.432 L166.863,38.432 L166.863,41.853 L162.065,41.853 L162.065,51.253 C162.065,53.378 162.97,54.361 164.936,54.361 C165.723,54.361 166.234,54.282 166.863,54.125 L166.863,58.097 C165.723,58.333 164.857,58.451 163.638,58.451 C158.918,58.451 157.345,55.973 157.345,52.001 L157.345,41.853 L153.805,41.853 L153.806,41.853 Z M170.954,35.167 L170.954,30.251 L176.067,30.251 L176.067,35.167 L170.954,35.167 Z M171.19,38.432 L175.91,38.432 L175.91,58.097 L171.19,58.097 L171.19,38.432 Z M190.147,58.569 C184.287,58.569 180.511,54.519 180.511,48.265 C180.511,41.853 184.208,37.96 190.187,37.96 C195.064,37.96 198.25,40.556 198.84,45.04 L194.238,45.787 C193.923,43.112 192.389,41.657 190.068,41.657 C187.158,41.657 185.349,44.095 185.349,48.147 C185.349,52.394 187.119,54.833 190.147,54.833 C192.507,54.833 193.963,53.378 194.395,50.624 L198.84,51.529 C198.132,55.895 194.828,58.569 190.147,58.569 L190.147,58.569 Z M208.357,58.569 C204.347,58.569 201.672,56.249 201.672,52.749 C201.672,50.86 202.498,49.287 204.071,48.304 C205.487,47.478 207.375,46.967 210.481,46.534 L214.651,46.023 L214.651,45.511 C214.651,42.561 213.511,41.303 210.993,41.303 C208.673,41.303 207.296,42.523 207.139,44.764 L202.3,44.764 C202.615,40.556 205.918,37.96 210.992,37.96 C216.813,37.96 219.409,40.438 219.409,46.14 L219.409,52.001 C219.409,54.676 219.606,56.721 219.999,58.097 L215.279,58.097 C215.104912,56.9771931 215.000046,55.8477161 214.965,54.715 C214.021,57.115 211.543,58.569 208.357,58.569 L208.357,58.569 Z M209.892,55.226 C212.802,55.226 214.769,53.181 214.769,50.034 L214.769,48.776 L210.324,49.444 C207.729,49.877 206.549,50.821 206.549,52.512 C206.549,54.164 207.807,55.226 209.892,55.226 Z M141.18,55.226 C144.09,55.226 146.057,53.181 146.057,50.034 L146.057,48.776 L141.613,49.444 C139.017,49.877 137.837,50.821 137.837,52.512 C137.837,54.164 139.095,55.226 141.18,55.226 Z M111.563,54.125 L116.323,54.125 C121.75,54.125 124.779,49.562 124.779,44.017 C124.779,38.353 121.869,34.145 116.401,34.145 L111.563,34.145 L111.563,54.125 L111.563,54.125 Z" transform="translate(.833 .596)"/>
        </symbol>
        <symbol viewBox="0 0 62 62" id="ccms-logo"><path fill-rule="evenodd" clip-rule="evenodd" d="M31 61c16.569 0 30-13.431 30-30C61 14.431 47.569 1 31 1 14.431 1 1 14.431 1 31c0 16.569 13.431 30 30 30zm0-3c14.912 0 27-12.088 27-27S45.912 4 31 4 4 16.088 4 31s12.088 27 27 27z"/><path fill-rule="evenodd" clip-rule="evenodd" d="M31 42c6.075 0 11-4.925 11-11s-4.925-11-11-11-11 4.925-11 11 4.925 11 11 11zm0-3a8 8 0 1 0 0-16 8 8 0 0 0 0 16z"/><path fill-rule="evenodd" clip-rule="evenodd" d="M47.748 40.512c0-9.717-7.653-17.523-17.008-17.523v-3c11.089 0 20.009 9.227 20.009 20.523 0 11.295-8.92 20.522-20.009 20.522v-3c9.355 0 17.009-7.806 17.009-17.522z"/><path fill-rule="evenodd" clip-rule="evenodd" d="M14.252 21.488c0 9.717 7.653 17.523 17.008 17.523v3c-11.089 0-20.009-9.227-20.009-20.523 0-11.295 8.92-20.522 20.009-20.522v3c-9.355 0-17.009 7.806-17.009 17.522z"/><path fill-rule="evenodd" clip-rule="evenodd" d="M40.512 14.252c-9.717 0-17.523 7.653-17.523 17.008h-3c0-11.089 9.227-20.009 20.523-20.009 11.295 0 20.522 8.92 20.522 20.009h-3c0-9.355-7.806-17.009-17.522-17.009z"/><path fill-rule="evenodd" clip-rule="evenodd" d="M21.488 47.748c9.717 0 17.523-7.653 17.523-17.008h3c0 11.089-9.227 20.009-20.523 20.009-11.295 0-20.522-8.92-20.522-20.009h3c0 9.355 7.806 17.009 17.522 17.009z"/></symbol><symbol viewBox="0 0 60 61" id="cks-logo"><path d="M28.542 22.124c.002.16-.004.306 0 .41.018.512.127.903.192 1.374.118 1.008.217 1.844.156 2.62-.06.294-.27.562-.456.748l-.033.61a17.83 17.83 0 0 0-2.54.402c-3.65.852-6.792 2.784-9.184 5.393-.155-.11-.427-.31-.508-.37-.25.034-.504.114-.835-.084-.628-.435-1.201-1.036-1.894-1.76-.318-.346-.548-.675-.925-1.009-.086-.076-.217-.178-.313-.256a1.644 1.644 0 0 0-.979-.38 1.338 1.338 0 0 0-1.12.51c-.484.623-.329 1.577.346 2.13.113.092.227.19.312.255.4.304.766.46 1.165.701.84.534 1.537.976 2.09 1.51.216.236.254.653.282.833l.45.413a19.107 19.107 0 0 0-2.867 13.032l-.589.176c-.155.206-.374.53-.603.627-.25.08-1.683-.47-1.689-.128-.012.647 1.67 2.318 2.16 2.245.314-.025.644.2.808.294l.613-.108c.703 2.24 9.039 5.418 17.366 5.399 8.368-.02 16.728-3.247 17.403-5.427.182.03.498.087.6.108.212-.144.406-.33.787-.3.75.112 1.943-1.803 1.485-1.88a7.038 7.038 0 0 1-1.013-.237c-.295-.118-.505-.478-.607-.627l-.568-.17a19.16 19.16 0 0 0-.294-6.744 18.97 18.97 0 0 0-2.634-6.256c.146-.136.421-.387.499-.46.023-.26.003-.531.264-.818.553-.534 1.25-.976 2.09-1.51.4-.24.768-.396 1.168-.7.091-.069.215-.178.31-.256.674-.553.83-1.507.345-2.13-.484-.624-1.422-.683-2.096-.13-.096.078-.226.18-.312.256-.378.334-.61.663-.928 1.01-.693.723-1.266 1.327-1.895 1.762-.273.163-.672.107-.853.096l-.535.392c-3.048-3.285-7.198-5.386-11.666-5.794-.013-.192-.03-.54-.033-.645-.183-.18-.404-.334-.46-.722-.06-.777.041-1.613.16-2.62.065-.472.173-.863.192-1.374.004-.117-.003-.285-.003-.41 0-.887-.63-1.606-1.406-1.606-.776 0-1.405.719-1.405 1.605zm-.355 9.6L27.77 39.3l-.03.016c-.028.678-.57 1.219-1.237 1.219a1.21 1.21 0 0 1-.73-.244l-6.057-4.398a14.37 14.37 0 0 1 8.471-4.17zm3.523 0c3.197.404 6.154 1.892 8.42 4.173l-6.006 4.377a1.25 1.25 0 0 1-1.72-.244c-.17-.22-.26-.478-.27-.738l-.424-7.568zm-14.186 7l5.52 5.075-.007.03c.498.446.572 1.218.156 1.754-.17.219-.398.366-.642.435L15.47 48.14a15.213 15.213 0 0 1 2.054-9.417zm26.618 4.55c.366 1.634.457 3.266.307 4.843l-7.111-2.105-.006-.031c-.637-.18-1.029-.845-.88-1.513a1.27 1.27 0 0 1 .393-.676l5.487-5.065a15.302 15.302 0 0 1 1.81 4.547zm-15.327.916h2.261l1.406 1.806-.505 2.253-2.03 1.004-2.036-1.007-.504-2.253 1.408-1.803zm7.535 6.202l7.33 1.256c-.203.586-.584 1.428-1.144 2.526l-6 1.85-1.556-3.864c-.252-.635.01-1.366.61-1.663.154-.077.314-.119.474-.127a1.2 1.2 0 0 1 .286.022zm-11.388 1c.06.273.031.544-.069.784l.021.027-1.44 3.58-6.085-1.64c-.547-1.067-.923-1.89-1.127-2.47l7.256-1.266c.093 0 .175-.007.255-.006.558.008 1.06.406 1.19.99zm4.94 2.068a1.246 1.246 0 0 1 1.135.67l1.215 2.238-4.767.297 1.363-2.532c.22-.412.626-.657 1.054-.673z"/><path fill-rule="evenodd" clip-rule="evenodd" d="M30 60c16.569 0 30-13.431 30-30C60 13.431 46.569 0 30 0 13.431 0 0 13.431 0 30c0 16.569 13.431 30 30 30zm0-3c14.912 0 27-12.088 27-27S44.912 3 30 3 3 15.088 3 30s12.088 27 27 27z"/></symbol>
        <symbol id="cmi-logo" xmlns="http://www.w3.org/2000/svg" fill="none" viewBox="0 0 60 61"><circle cx="30" cy="48" r="4" fill="currentColor"/><path fill="currentColor" fill-rule="evenodd" d="M30 60a30 30 0 1 0 0-60 30 30 0 0 0 0 60zm0-3a27 27 0 1 0 0-54 27 27 0 0 0 0 54z" clip-rule="evenodd"/><circle cx="43" cy="41" r="4" fill="currentColor"/><circle cx="17" cy="41" r="4" fill="currentColor"/><path fill="currentColor" fill-rule="evenodd" d="M29.8 26l12.8 12.8-2.1 2.1-10.7-10.6-10.6 10.6-2.1-2.1L29.8 26z" clip-rule="evenodd"/><circle cx="48" cy="29" r="4" fill="currentColor"/><circle cx="12" cy="29" r="4" fill="currentColor"/><path fill="currentColor" fill-rule="evenodd" d="M29.8 8.9L49.1 28l-2.2 2.1-17-17-17.1 17-2.2-2.1L29.8 8.9z" clip-rule="evenodd"/></symbol>
        <symbol viewBox="0 0 60 60" id="cpaas-logo"><path fill-rule="evenodd" clip-rule="evenodd" d="M30 60c16.569 0 30-13.431 30-30C60 13.431 46.569 0 30 0 13.431 0 0 13.431 0 30c0 16.569 13.431 30 30 30zm0-3c14.912 0 27-12.088 27-27S44.912 3 30 3 3 15.088 3 30s12.088 27 27 27z"/><path d="M41 37.875c3.314 0 6-2.642 6-5.9 0-3.259-2.686-5.9-6-5.9a6.046 6.046 0 0 0-3.235.93c-.93-3.914-4.501-6.83-8.765-6.83-4.643 0-8.465 3.457-8.948 7.896a5.302 5.302 0 0 0-2.302-.521c-2.9 0-5.25 2.311-5.25 5.162 0 2.852 2.35 5.163 5.25 5.163H41zm0 1.475H17.75c-3.728 0-6.75-2.972-6.75-6.638 0-3.665 3.022-6.637 6.75-6.637.394 0 .78.033 1.156.097C20.165 21.857 24.208 18.7 29 18.7c4.334 0 8.054 2.582 9.658 6.267A7.609 7.609 0 0 1 41 24.6c4.142 0 7.5 3.302 7.5 7.375S45.142 39.35 41 39.35z"/><path fill-rule="evenodd" clip-rule="evenodd" d="M37.115 28.598l-.323-1.362c-.823-3.463-3.991-6.061-7.792-6.061-4.14 0-7.527 3.08-7.954 7.005l-.153 1.405-1.274-.612a4.301 4.301 0 0 0-1.869-.423c-2.363 0-4.25 1.88-4.25 4.162 0 2.284 1.887 4.163 4.25 4.163H41c2.777 0 5-2.21 5-4.9 0-2.69-2.223-4.9-5-4.9-.998 0-1.924.285-2.702.776l-1.183.747zm-18.028-.88a5.344 5.344 0 0 0-1.337-.168c-2.9 0-5.25 2.311-5.25 5.162 0 2.852 2.35 5.163 5.25 5.163H41c3.314 0 6-2.642 6-5.9 0-3.259-2.686-5.9-6-5.9a6.069 6.069 0 0 0-3.235.93 8.667 8.667 0 0 0-.298-.988c-1.252-3.407-4.57-5.842-8.467-5.842-4.28 0-7.864 2.939-8.776 6.877a8.683 8.683 0 0 0-.172 1.02 5.269 5.269 0 0 0-.965-.353zM17.75 40.35c-4.264 0-7.75-3.404-7.75-7.638 0-4.233 3.486-7.637 7.75-7.637.156 0 .31.005.464.013C19.841 20.768 24.062 17.7 29 17.7c4.428 0 8.278 2.466 10.2 6.088A8.65 8.65 0 0 1 41 23.6c4.678 0 8.5 3.734 8.5 8.375S45.678 40.35 41 40.35H17.75zm20.908-15.383C37.054 21.282 33.334 18.7 29 18.7c-4.793 0-8.835 3.157-10.094 7.472a6.91 6.91 0 0 0-1.156-.097c-3.728 0-6.75 2.972-6.75 6.637 0 3.666 3.022 6.638 6.75 6.638H41c4.142 0 7.5-3.302 7.5-7.375S45.142 24.6 41 24.6c-.818 0-1.605.129-2.342.367z"/></symbol>
        <symbol id="icon-consulting-compass" xmlns="http://www.w3.org/2000/svg" fill="none" viewBox="0 0 60 59"><path fill="currentColor" fill-rule="evenodd" d="M23.8 28.3a8.04 8.04 0 0 0 12.79 0l2.82 7.46H20.9l2.9-7.46zm2.36-17.96c.8 0 1.57.16 2.28.45a8.02 8.02 0 0 0-2.28 5.59v.08a8.08 8.08 0 0 0-3.69 4.69 6.03 6.03 0 0 1 3.7-10.8zm2.02-5.66a2.02 2.02 0 0 1 4.03 0v3.91c-.72.19-1.4.47-2.02.83a7.99 7.99 0 0 0-2.01-.83V4.68zm6.04 17.74c-.8 0-1.57-.16-2.27-.45a8.04 8.04 0 0 0 1.94-3.31c1.1.85 1.89 2.06 2.2 3.46a6 6 0 0 1-1.87.3zm-5.78-.45a6.02 6.02 0 0 1-4.14.15 6.05 6.05 0 0 1 2.2-3.46 8.07 8.07 0 0 0 1.94 3.31zm1.75-4.58c.65 0 1.28.1 1.87.3a6.04 6.04 0 0 1-1.87 3.18 6.03 6.03 0 0 1-1.87-3.18c.6-.2 1.22-.3 1.87-.3zm0-5.5a6.03 6.03 0 0 1 1.96 3.73 8.1 8.1 0 0 0-3.92 0c.19-1.47.9-2.78 1.96-3.73zm0 17.57a6.05 6.05 0 0 1-5.99-5.28 8 8 0 0 0 5.99-.84 8 8 0 0 0 6 .84 6.05 6.05 0 0 1-6 5.28zm10.07-13.08c0 1.94-.92 3.66-2.35 4.77a8.08 8.08 0 0 0-3.7-4.69l.01-.08c0-2.17-.87-4.14-2.27-5.6a6.03 6.03 0 0 1 8.31 5.6zm-2.01 7.39c2.5-1.65 4.03-3.39 4.03-7.4a8.06 8.06 0 0 0-8.06-8.04c0-1.73-.07-4.36-.07-4.36a4.02 4.02 0 0 0-7.91 0s-.08 2.63-.08 4.36a8.06 8.06 0 0 0-8.05 8.05c0 4.44 2.08 5.68 3.14 7.05L10.78 52.2l-.04 5.33 4.2-4.42 5.5-15.96h19.24l5.76 15.96 3.82 4.27V52.2L38.25 23.77z" clip-rule="evenodd"/><path fill="currentColor" fill-rule="evenodd" d="M36.52 4.01a1.5 1.5 0 0 1 1.93-.89c.6.23 1.2.47 1.77.74a1.5 1.5 0 0 1-1.26 2.72c-.5-.23-1.02-.45-1.55-.64A1.5 1.5 0 0 1 36.52 4zm-13.04 0a1.5 1.5 0 0 1-.89 1.93c-.53.2-1.04.4-1.55.64a1.5 1.5 0 1 1-1.26-2.72c.58-.27 1.17-.51 1.77-.74a1.5 1.5 0 0 1 1.93.9zM44.45 8.2a1.5 1.5 0 0 1 2.12-.08c.46.43.92.88 1.35 1.35a1.5 1.5 0 1 1-2.2 2.04c-.38-.41-.78-.81-1.2-1.2a1.5 1.5 0 0 1-.07-2.11zm-28.9 0c.57.6.53 1.56-.08 2.12-.41.38-.8.78-1.19 1.19a1.5 1.5 0 1 1-2.2-2.04c.43-.47.89-.92 1.36-1.35a1.5 1.5 0 0 1 2.11.08zm34.63 6.88a1.5 1.5 0 0 1 1.99.73c.26.58.5 1.17.73 1.78a1.5 1.5 0 1 1-2.81 1.03c-.2-.52-.41-1.04-.65-1.55a1.5 1.5 0 0 1 .74-1.99zm-40.36 0a1.5 1.5 0 0 1 .74 2c-.24.5-.45 1.02-.65 1.54a1.5 1.5 0 1 1-2.81-1.03c.22-.6.47-1.2.73-1.78a1.5 1.5 0 0 1 2-.73zm43 8.56a1.5 1.5 0 0 1 1.57 1.44 24.8 24.8 0 0 1 0 1.91 1.5 1.5 0 1 1-3-.11 21.62 21.62 0 0 0 0-1.69 1.5 1.5 0 0 1 1.44-1.55zm-45.65 0a1.5 1.5 0 0 1 1.44 1.55 21.82 21.82 0 0 0 0 1.69 1.5 1.5 0 0 1-3 .11 24.82 24.82 0 0 1 0-1.91 1.5 1.5 0 0 1 1.56-1.44zm44.84 8.92a1.5 1.5 0 0 1 .9 1.92c-.23.6-.48 1.2-.74 1.78a1.5 1.5 0 1 1-2.73-1.26c.24-.51.45-1.03.65-1.55a1.5 1.5 0 0 1 1.92-.9zM8 32.55a1.5 1.5 0 0 1 1.92.89c.2.52.41 1.04.65 1.55a1.5 1.5 0 0 1-2.73 1.26c-.26-.58-.5-1.17-.73-1.78a1.5 1.5 0 0 1 .89-1.92zm39.85 7.92c.6.56.64 1.51.08 2.12-.43.47-.89.92-1.35 1.35a1.5 1.5 0 0 1-2.04-2.2c.41-.38.8-.77 1.19-1.19a1.5 1.5 0 0 1 2.12-.08zm-35.68 0a1.5 1.5 0 0 1 2.12.08c.38.42.78.81 1.2 1.2a1.5 1.5 0 1 1-2.04 2.2c-.47-.44-.93-.9-1.36-1.36a1.5 1.5 0 0 1 .08-2.12zm28.8 5.73a1.5 1.5 0 0 1-.74 2c-.58.26-1.17.5-1.77.73a1.5 1.5 0 0 1-1.04-2.82c.53-.2 1.05-.4 1.55-.64a1.5 1.5 0 0 1 2 .73zm-21.91 0a1.5 1.5 0 0 1 1.99-.73c.5.23 1.02.45 1.55.64a1.5 1.5 0 1 1-1.04 2.82c-.6-.23-1.2-.47-1.77-.74a1.5 1.5 0 0 1-.73-1.99zm8.55 2.65a1.5 1.5 0 0 1 1.56-1.44 21.81 21.81 0 0 0 1.68 0 1.5 1.5 0 0 1 .12 3 24.8 24.8 0 0 1-1.92 0 1.5 1.5 0 0 1-1.44-1.56z" clip-rule="evenodd"/></symbol>
        <symbol id="emissary-logo" fill="none" viewBox="0 0 28 27"><path fill="currentColor" fill-opacity=".84" fill-rule="evenodd" d="M17.29 18.05a.7.7 0 0 1-.95 0l-2.36-2.24.47-.45 1.9-1.8.46-.44 2.84 2.69-.47.45-1.9 1.8z" clip-rule="evenodd"/><path fill="currentColor" fill-opacity=".7" fill-rule="evenodd" d="M14.45 15.36l-.47.45-2.84-2.69.47-.45 1.9-1.8.47-.44 2.83 2.69-.47.45-1.9 1.8z" clip-rule="evenodd"/><path fill="currentColor" fill-opacity=".84" fill-rule="evenodd" d="M10.67 8.19a.7.7 0 0 1 .94 0l2.37 2.24-.48.45-1.9 1.8-.46.44-2.84-2.7.47-.44 1.9-1.8z" clip-rule="evenodd"/><path fill="currentColor" fill-rule="evenodd" d="M19.18 10.88a.7.7 0 0 1 .94 0l2.37 2.24-.47.45-1.9 1.8-.47.44-2.84-2.69.48-.45 1.9-1.8zm-13.25 1.8a.6.6 0 0 0 0 .89L8.3 15.8l.47-.45 1.9-1.8.47-.44-2.84-2.69-.47.45-1.9 1.8z" clip-rule="evenodd"/><path fill="currentColor" fill-rule="evenodd" d="M14.12 25.5a12 12 0 1 0 0-24 12 12 0 0 0 0 24zm0 1.5a13.5 13.5 0 1 0 0-27 13.5 13.5 0 0 0 0 27z" clip-rule="evenodd"/></symbol>
    </defs>
</svg>
