<?xml version="1.0" encoding="UTF-8" standalone="no"?>
<svg width="400px" height="127px" viewBox="0 0 400 127" version="1.1" xmlns="http://www.w3.org/2000/svg" xmlns:xlink="http://www.w3.org/1999/xlink" xmlns:sketch="http://www.bohemiancoding.com/sketch/ns">
    <!-- Generator: Sketch 3.5.2 (25235) - http://www.bohemiancoding.com/sketch -->
    <title>docbookmd-logo-w</title>
    <desc>Created with Sketch.</desc>
    <defs></defs>
    <g id="Page-1" stroke="none" stroke-width="1" fill="none" fill-rule="evenodd" sketch:type="MSPage">
        <g id="docbookmd-logo-w" sketch:type="MSArtboardGroup" fill="#FFFFFF">
            <g id="Group" sketch:type="MSLayerGroup">
                <path d="M365.640599,121.688186 L357.044925,121.694509 L367.657238,91.518802 C367.657238,91.518802 374.642263,91.515807 376.249584,91.515807 C392.432612,91.515807 387.500832,121.688186 365.640599,121.688186 L365.640599,121.688186 Z M377.843594,86.98802 C368.113145,86.98802 355.693844,86.9936772 355.693844,86.9936772 L354.099834,91.518802 L355.896839,91.518802 L338.745424,116.046256 L338.392679,86.9936772 L321.499168,86.9936772 L319.90416,91.518802 L323.401331,91.518802 C324.68386,91.5557404 325.714476,92.6019967 325.714476,93.8905158 C325.714476,94.1787022 325.665557,94.4489185 325.573378,94.7034942 L317.167388,118.610982 C316.492845,120.387354 314.787022,121.657571 312.780366,121.694509 L309.295507,121.694509 L307.706156,126.219634 L325.800333,126.219634 L327.389684,121.694509 L323.953411,121.694509 C322.640599,121.688186 321.585025,120.62396 321.585025,119.31381 C321.585025,119.043927 321.627953,118.786023 321.714143,118.546755 L331.212313,91.518802 L331.635275,126.219634 L336.163062,126.219634 L360.419301,91.518802 L350.925125,118.512812 C350.276206,120.344426 348.545757,121.657571 346.502496,121.694509 L343.477537,121.694509 L341.886855,126.219634 L364.049917,126.219634 C396.519135,126.219634 401.577371,86.98802 377.843594,86.98802 L377.843594,86.98802 Z" id="Fill-1" sketch:type="MSShapeGroup"></path>
                <path d="M129.445258,122.203661 C122.358735,122.203661 132.457903,90.9670549 140.422296,90.9670549 C147.502496,90.9670549 137.402995,122.203661 129.445258,122.203661 L129.445258,122.203661 Z M142.127787,86.1134775 C121.775707,86.1134775 109.614642,127.121464 127.714809,127.121464 C148.054908,127.121464 160.221963,86.1134775 142.127787,86.1134775 L142.127787,86.1134775 Z" id="Fill-3" sketch:type="MSShapeGroup"></path>
                <path d="M225.684193,122.203661 C218.597338,122.203661 228.696506,90.9670549 236.660899,90.9670549 C243.747421,90.9670549 233.64792,122.203661 225.684193,122.203661 L225.684193,122.203661 Z M238.366389,86.1134775 C218.014309,86.1134775 205.853245,127.121464 223.953411,127.121464 C244.293844,127.121464 256.460566,86.1134775 238.366389,86.1134775 L238.366389,86.1134775 Z" id="Fill-4" sketch:type="MSShapeGroup"></path>
                <path d="M257.761398,122.203661 C250.674542,122.203661 260.774043,90.9670549 268.744426,90.9670549 C275.824958,90.9670549 265.72579,122.203661 257.761398,122.203661 L257.761398,122.203661 Z M270.45025,86.1134775 C250.097837,86.1134775 237.930782,127.121464 256.037604,127.121464 C276.377371,127.121464 288.538436,86.1134775 270.45025,86.1134775 L270.45025,86.1134775 Z" id="Fill-5" sketch:type="MSShapeGroup"></path>
                <path d="M193.600333,122.203661 C186.519468,122.203661 196.612978,90.9670549 204.583028,90.9670549 C211.663894,90.9670549 201.564393,122.203661 193.600333,122.203661 L193.600333,122.203661 Z M206.288852,86.1134775 C204.178369,86.1134775 202.159401,86.5613977 200.251581,87.3500832 L203.699501,77.5447587 C203.994343,76.6981697 203.509484,76.0079867 202.607654,76.0079867 L197.067221,76.0079867 C196.171048,76.0079867 195.195674,76.6981697 194.894842,77.5447587 L184.556406,106.956739 C182.114143,114.733444 182.464226,122.439933 186.795674,125.609318 C188.108819,126.572379 189.790017,127.121464 191.876206,127.121464 C212.215973,127.121464 224.383028,86.1134775 206.288852,86.1134775 L206.288852,86.1134775 Z" id="Fill-6" sketch:type="MSShapeGroup"></path>
                <path d="M177.524792,111.742429 L172.14376,111.742429 C171.204992,111.742429 170.395008,112.285191 170.002329,113.076539 L170.002329,113.079867 C167.492845,118.209318 164.369717,122.203661 161.522795,122.203661 C154.43594,122.203661 164.535441,90.9670549 172.499501,90.9670549 C175.045923,90.9670549 175.377371,94.9946755 174.383028,100.161398 C174.365058,100.231614 174.358735,100.308153 174.358735,100.385025 C174.358735,100.995674 174.855574,101.49584 175.469218,101.49584 L180.568053,101.49584 C181.807321,101.49584 182.819967,100.547754 182.936439,99.3391015 C183.580699,92.0159734 181.071215,86.1134775 174.211647,86.1134775 C153.859235,86.1134775 141.69218,127.121464 159.792679,127.121464 C167.707488,127.121464 174.383028,120.918469 178.518802,113.33777 C178.592346,113.190349 178.635275,113.024626 178.635275,112.852912 C178.635275,112.239601 178.138436,111.742429 177.524792,111.742429" id="Fill-7" sketch:type="MSShapeGroup"></path>
                <path d="M294.04193,76.0079867 C293.14609,76.0079867 292.170715,76.6981697 291.869884,77.5447587 L275.297504,124.679867 C274.996672,125.526456 275.487521,126.219634 276.383361,126.219634 L281.930116,126.219634 C282.825957,126.219634 283.801331,125.526456 284.09584,124.679867 L300.674542,77.5447587 C300.975374,76.6981697 300.484526,76.0079867 299.588686,76.0079867 L294.04193,76.0079867" id="Fill-8" sketch:type="MSShapeGroup"></path>
                <path d="M316.37604,88.1044925 C316.37604,87.4911814 315.879201,86.9936772 315.265557,86.9936772 L309.737105,86.9936772 C308.743095,86.9936772 307.890183,87.6073211 307.534443,88.4815308 C304.834609,95.4183028 300.760399,101.753411 297.189684,101.753411 L295.165058,101.753411 C294.716805,101.765391 294.330449,102.044925 294.170715,102.440599 L293.207654,105.195674 C293.176705,105.296506 293.158403,105.398003 293.158403,105.505158 C293.158403,106.118802 293.655574,106.615973 294.268885,106.615973 L295.502163,106.615973 C299.423295,106.615973 298.079534,116.190682 294.741431,124.734775 C294.698502,124.851248 294.673877,124.977038 294.673877,125.109151 C294.673877,125.722463 295.170715,126.219634 295.784359,126.219634 L301.312812,126.219634 C302.306822,126.219634 303.166057,125.6 303.515474,124.73178 C303.515474,124.73178 303.521797,124.73178 303.521797,124.728453 C306.656905,116.896506 307.07421,108.5797 303.533777,104.434942 C309.209651,101.26223 313.706822,95.028619 316.314476,88.4695507 C316.351414,88.3560732 316.37604,88.2332779 316.37604,88.1044925" id="Fill-9" sketch:type="MSShapeGroup"></path>
                <path d="M96.5211314,122.203661 C89.4342762,122.203661 99.533777,90.9670549 107.50416,90.9670549 C111.04426,90.9670549 110.289517,98.771381 107.657571,106.57604 L107.185025,107.9198 C104.503494,115.257903 100.275874,122.203661 96.5211314,122.203661 L96.5211314,122.203661 Z M126.66589,77.5447587 C126.966389,76.6981697 126.475874,76.0079867 125.5797,76.0079867 L120.032945,76.0079867 C119.137438,76.0079867 118.16173,76.6981697 117.866889,77.5447587 L114.314809,87.6472546 C112.995341,86.6718802 111.30782,86.1134775 109.209651,86.1134775 C88.8575707,86.1134775 76.690183,127.121464 94.7906822,127.121464 C98.3860233,127.121464 101.724126,125.83594 104.687521,123.731448 L106.853577,125.614975 C106.859567,125.621631 106.86589,125.621631 106.87188,125.621631 C107.289185,125.992679 107.835275,126.213644 108.442596,126.213644 L112.031947,126.213644 C112.651913,126.213644 113.148752,125.716473 113.148752,125.102829 C113.148752,124.885191 113.081531,124.676539 112.971048,124.504493 L112.971048,124.498502 L111.774376,122.651913 C111.535108,122.283195 111.400333,121.841597 111.400333,121.369384 C111.400333,121.102496 111.443261,120.847587 111.529118,120.608319 L126.66589,77.5447587 L126.66589,77.5447587 Z" id="Fill-10" sketch:type="MSShapeGroup"></path>
                <path d="M65.0326123,23.2499168 L57.1603993,23.2499168 L57.1603993,15.7031614 L49.165391,15.7031614 L49.165391,23.2499168 L41.6309484,23.2499168 L41.6309484,31.2232945 L49.165391,31.2232945 L49.165391,39.1044925 L57.1603993,39.1044925 L57.1603993,31.2232945 L65.0326123,31.2232945 L65.0326123,23.2499168" id="Fill-11" sketch:type="MSShapeGroup"></path>
                <path d="M117.235275,0.179700499 L58.8415973,0.179700499 C53.5154742,0.179700499 49.1840266,4.51148087 49.1840266,9.83727121 L49.1840266,11.0918469 L57.1603993,11.0918469 L57.1603993,9.83727121 C57.1603993,8.91081531 57.9151414,8.1530782 58.8415973,8.1530782 L117.235275,8.1530782 C118.16173,8.1530782 118.922463,8.91081531 118.922463,9.83727121 L118.922463,47.7620632 C118.922463,48.6918469 118.16173,49.4462562 117.235275,49.4462562 L104.87188,49.4462562 C103.767055,49.4462562 102.7797,49.9064892 102.171714,50.7041597 C101.564393,51.5018303 101.386689,52.5723794 101.681198,53.6372712 L104.245923,62.9603993 L91.6798669,51.6369384 C90.3178037,50.4096506 87.8146423,49.4462562 85.9737105,49.4462562 L85.9737105,32.9074875 C85.9737105,27.5816972 81.6419301,23.2499168 76.3161398,23.2499168 L69.640599,23.2499168 L69.640599,31.2232945 L76.3161398,31.2232945 C77.2425957,31.2232945 77.9973378,31.9780366 77.9973378,32.9074875 L77.9973378,49.4462562 L58.8415973,49.4462562 C57.9151414,49.4462562 57.1603993,48.6918469 57.1603993,47.7620632 L57.1603993,43.7124792 L49.1840266,43.7124792 L49.1840266,47.7620632 C49.1840266,53.0878536 53.5154742,57.4196339 58.8415973,57.4196339 L77.9973378,57.4196339 L77.9973378,76.4559068 C77.9973378,77.3853577 77.2425957,78.136772 76.3161398,78.136772 L44.962396,78.136772 C43.121797,78.136772 40.6123128,79.1001664 39.2442596,80.3304493 L24.4079867,93.6971714 L27.5434276,82.330782 C27.837604,81.263228 27.6539101,80.1926789 27.0462562,79.3920133 C26.4389351,78.59401 25.4572379,78.136772 24.3464226,78.136772 L9.65757072,78.136772 C8.73111481,78.136772 7.9703827,77.3853577 7.9703827,76.4559068 L7.9703827,32.9074875 C7.9703827,31.9780366 8.73111481,31.2232945 9.65757072,31.2232945 L37.0229617,31.2232945 L37.0229617,23.2499168 L9.65757072,23.2499168 C4.33211314,23.2499168 0,27.5816972 0,32.9074875 L0,76.4559068 C0,81.7787022 4.33211314,86.1134775 9.65757072,86.1134775 L18.2232945,86.1134775 L16.4252912,92.6479201 C15.4622296,96.1271215 16.5111481,98.5014975 17.5667221,99.8818636 C18.9347754,101.679534 21.0209651,102.710483 23.2911814,102.710483 C25.2975042,102.710483 27.1936772,101.92213 28.9178037,100.366722 L44.4778702,86.3530782 C44.6252912,86.2728785 44.944426,86.1500832 45.103827,86.1134775 L76.3161398,86.1134775 C81.6419301,86.1134775 85.9737105,81.7787022 85.9737105,76.4559068 L85.9737105,57.4625624 C86.1394343,57.5178037 86.3417637,57.6006656 86.4522463,57.6592346 L99.7361065,69.6269551 C101.460233,71.1823627 103.356073,71.9707155 105.362396,71.9707155 C107.632945,71.9707155 109.725125,70.9430948 111.093511,69.1420965 C112.142429,67.7647255 113.192013,65.3900166 112.234609,61.9111481 L110.995008,57.4196339 L117.235275,57.4196339 C122.567055,57.4196339 126.898835,53.0878536 126.898835,47.7620632 L126.898835,9.83727121 C126.898835,4.51148087 122.567055,0.179700499 117.235275,0.179700499" id="Fill-13" sketch:type="MSShapeGroup"></path>
                <path d="M395.071547,83.3124792 C395.257903,83.3124792 395.434276,83.3034942 395.600666,83.2911814 C395.767055,83.2818636 395.913478,83.2482529 396.049917,83.1896839 C396.176373,83.1314476 396.282862,83.0455907 396.356073,82.9291181 C396.43594,82.8093178 396.472546,82.643594 396.472546,82.431614 C396.472546,82.2539101 396.439268,82.112812 396.366057,82.0053245 C396.299501,81.9014975 396.206323,81.8183028 396.103161,81.7633943 C395.993344,81.7051581 395.863561,81.6648918 395.723794,81.646589 C395.580699,81.6252912 395.440932,81.6159734 395.301165,81.6159734 L394.202995,81.6159734 L394.202995,83.3124792 L395.071547,83.3124792 L395.071547,83.3124792 Z M395.434276,80.9440932 C396.066556,80.9440932 396.539101,81.0702163 396.845258,81.321797 C397.148087,81.5730449 397.301165,81.9567388 397.301165,82.4688852 C397.301165,82.950416 397.171381,83.3034942 396.90183,83.5271215 C396.63228,83.7510815 396.299501,83.8798669 395.900166,83.9227953 L397.420965,86.2762063 L396.532446,86.2762063 L395.084859,83.9843594 L394.202995,83.9843594 L394.202995,86.2762063 L393.374376,86.2762063 L393.374376,80.9440932 L395.434276,80.9440932 L395.434276,80.9440932 Z M391.673877,85.1497504 C391.863561,85.6222962 392.126456,86.0366057 392.46589,86.3863561 C392.801997,86.7364393 393.201331,87.0093178 393.660566,87.2116473 C394.123128,87.4109817 394.618968,87.5091514 395.151414,87.5091514 C395.687188,87.5091514 396.176373,87.4109817 396.63228,87.2116473 C397.084859,87.0093178 397.484193,86.7364393 397.8203,86.3863561 C398.159734,86.0366057 398.422629,85.6222962 398.612313,85.1497504 C398.801997,84.6715474 398.90183,84.1527454 398.90183,83.5916805 C398.90183,83.0455907 398.801997,82.5394343 398.612313,82.0672213 C398.422629,81.5946755 398.159734,81.1863561 397.8203,80.8399334 C397.484193,80.4928453 397.084859,80.2232945 396.63228,80.0236273 C396.176373,79.8242928 395.687188,79.7231281 395.151414,79.7231281 C394.618968,79.7231281 394.123128,79.8242928 393.660566,80.0236273 C393.201331,80.2232945 392.801997,80.4928453 392.46589,80.8399334 C392.126456,81.1863561 391.863561,81.5946755 391.673877,82.0672213 C391.477537,82.5394343 391.384359,83.0455907 391.384359,83.5916805 C391.384359,84.1527454 391.477537,84.6715474 391.673877,85.1497504 L391.673877,85.1497504 Z M390.918469,81.7966722 C391.164725,81.2449251 391.494176,80.7660566 391.913478,80.3580699 C392.336106,79.9500832 392.821963,79.6309484 393.377704,79.4009983 C393.936772,79.1677205 394.52579,79.0512479 395.151414,79.0512479 C395.777038,79.0512479 396.372712,79.1677205 396.925125,79.4009983 C397.477537,79.6309484 397.963394,79.9500832 398.372712,80.3580699 C398.792013,80.7660566 399.121464,81.2449251 399.36772,81.7966722 C399.607321,82.3524126 399.730449,82.950416 399.730449,83.5916805 C399.730449,84.2509151 399.607321,84.8585691 399.36772,85.4169717 C399.121464,85.9720466 398.792013,86.4569052 398.372712,86.8708819 C397.963394,87.2792013 397.477537,87.5983361 396.925125,87.8252912 C396.372712,88.0552413 395.777038,88.1690516 395.151414,88.1690516 C394.52579,88.1690516 393.936772,88.0552413 393.377704,87.8252912 C392.821963,87.5983361 392.336106,87.2792013 391.913478,86.8708819 C391.494176,86.4569052 391.164725,85.9720466 390.918469,85.4169717 C390.672213,84.8585691 390.55574,84.2509151 390.55574,83.5916805 C390.55574,82.950416 390.672213,82.3524126 390.918469,81.7966722 L390.918469,81.7966722 Z" id="Fill-15" sketch:type="MSShapeGroup"></path>
            </g>
        </g>
    </g>
</svg>