<svg width="400" height="127" viewBox="0 0 400 127" xmlns="http://www.w3.org/2000/svg" xmlns:xlink="http://www.w3.org/1999/xlink">
  <title>
    docbookmd-logo
  </title>
  <defs>
    <path id="a" d="M.02.1797h399.7104v126.9418H.02"/>
  </defs>
  <g fill="none" fill-rule="evenodd">
    <path d="M365.6406 121.6882l-8.5957.0063 10.612-30.1757s6.985-.003 8.592-.003c16.183 0 11.251 30.1724-10.609 30.1724zm12.203-34.7002c-9.7305 0-22.1498.0057-22.1498.0057l-1.594 4.525h1.797l-17.1514 24.5276-.3527-29.0526h-16.8935l-1.595 4.525h3.497c1.2827.037 2.3133 1.0833 2.3133 2.3718 0 .2882-.049.5584-.141.813l-8.406 23.9075c-.6747 1.7764-2.3805 3.0466-4.387 3.0835h-3.485l-1.5893 4.525h18.094l1.5895-4.525h-3.4363c-1.3128-.0063-2.3684-1.0705-2.3684-2.3807 0-.27.043-.5278.129-.767l9.4983-27.028.423 34.7008h4.5278l24.257-34.7008-9.494 26.994c-.649 1.8316-2.379 3.1448-4.422 3.1817h-3.025l-1.59 4.525h22.163c32.469 0 37.528-39.2315 13.794-39.2315z" fill="#C4242B"/>
    <path d="M129.4453 122.2037c-7.0866 0 3.0126-31.2366 10.977-31.2366 7.0802 0-3.0193 31.237-10.977 31.237zm12.6825-36.0902c-20.352 0-32.5132 41.008-14.413 41.008 20.34 0 32.5072-41.008 14.413-41.008zm83.5564 36.0902c-7.087 0 3.0123-31.2366 10.9767-31.2366 7.086 0-3.013 31.237-10.977 31.237zm12.6822-36.0902c-20.352 0-32.5132 41.008-14.413 41.008 20.3404 0 32.5072-41.008 14.413-41.008z" fill="#3A3B39"/>
    <path d="M257.7614 122.2037c-7.087 0 3.0126-31.2366 10.983-31.2366 7.0806 0-3.0186 31.237-10.983 31.237zm12.689-36.0902c-20.3526 0-32.5196 41.008-14.4128 41.008 20.3398 0 32.5008-41.008 14.4126-41.008zm-76.85 36.0902c-7.081 0 3.0126-31.2366 10.9826-31.2366 7.081 0-3.0186 31.237-10.9827 31.237zm12.6885-36.0902c-2.111 0-4.13.448-6.038 1.2366l3.448-9.805c.294-.846-.19-1.537-1.092-1.537h-5.541c-.896 0-1.872.691-2.173 1.537l-10.339 29.412c-2.443 7.777-2.093 15.483 2.239 18.653 1.313.963 2.994 1.512 5.08 1.512 20.34 0 32.507-41.008 14.413-41.008zm-28.765 25.629h-5.381c-.939 0-1.749.5427-2.142 1.334v.0034c-2.51 5.129-5.633 9.123-8.48 9.123-7.087 0 3.012-31.237 10.976-31.237 2.546 0 2.878 4.027 1.883 9.194-.018.07-.025.147-.025.223 0 .61.497 1.11 1.111 1.11h5.099c1.239 0 2.252-.948 2.368-2.157.644-7.323-1.865-13.225-8.725-13.225-20.353 0-32.52 41.008-14.419 41.008 7.915 0 14.59-6.203 18.726-13.784.073-.148.116-.314.116-.485 0-.614-.497-1.111-1.1105-1.111" fill="#3A3B39"/>
    <path d="M294.042 76.008c-.896 0-1.8713.6902-2.172 1.5368l-16.5725 47.135c-.3008.8467.19 1.5398 1.086 1.5398h5.5466c.896 0 1.872-.693 2.166-1.5397l16.579-47.136c.301-.847-.19-1.537-1.086-1.537h-5.547m22.334 12.096c0-.614-.496-1.111-1.11-1.111h-5.528c-.994 0-1.846.613-2.202 1.487-2.7 6.937-6.774 13.272-10.344 13.272h-2.024c-.448.012-.834.291-.994.687l-.963 2.755c-.031.101-.049.202-.049.309 0 .613.497 1.11 1.111 1.11h1.234c3.921 0 2.5777 9.575-.7604 18.119-.043.116-.0673.242-.0673.374 0 .613.4963 1.11 1.11 1.11h5.5285c.994 0 1.853-.619 2.2027-1.4874 0 0 .0066 0 .0066-.0038 3.135-7.832 3.552-16.149.012-20.294 5.676-3.173 10.173-9.4068 12.7806-15.9658.037-.1138.0615-.2366.0615-.365M96.524 122.2c-7.0864 0 3.013-31.237 10.9835-31.237 3.54 0 2.785 7.8046.1535 15.609l-.4724 1.344c-2.6816 7.338-6.909 14.284-10.664 14.284zm30.145-44.659c.301-.847-.19-1.537-1.086-1.537h-5.547c-.896 0-1.8716.6905-2.166 1.537l-3.553 10.103c-1.3194-.9754-3.007-1.534-5.105-1.534-20.352 0-32.5195 41.008-14.419 41.008 3.595 0 6.9334-1.2852 9.897-3.39l2.166 1.884c.006.007.0126.007.0186.007.4173.371.9634.592 1.5707.592h3.589c.62 0 1.117-.497 1.117-1.111 0-.218-.067-.4266-.178-.5986v-.006l-1.196-1.8467c-.239-.369-.374-.8108-.374-1.283 0-.267.043-.5218.129-.761l15.137-43.0636z" fill="#3A3B39"/>
    <mask id="b" fill="#fff">
      <use xlink:href="#a"/>
    </mask>
    <path d="M65.0326 23.25h-7.8722v-7.547h-7.995v7.547H41.631v7.9733h7.5344v7.8812h7.995v-7.8812h7.8722V23.25" fill="#C4242B" mask="url(#b)"/>
    <path d="M117.2353.1797H58.8416c-5.326 0-9.6576 4.3318-9.6576 9.6576v1.2545h7.9764V9.8373c0-.9265.7547-1.6842 1.6812-1.6842h58.3937c.9264 0 1.6872.758 1.6872 1.685v37.924c0 .93-.7608 1.685-1.6872 1.685H104.872c-1.105 0-2.0923.46-2.7003 1.258-.6073.798-.785 1.868-.4905 2.933l2.5647 9.323L91.68 51.637c-1.3622-1.2273-3.8654-2.1907-5.7063-2.1907V32.9075c0-5.3258-4.3318-9.6576-9.6576-9.6576h-6.675v7.973h6.676c.927 0 1.682.754 1.682 1.684v16.539H58.842c-.9265 0-1.681-.755-1.681-1.684v-4.05h-7.977v4.049c0 5.326 4.3315 9.657 9.6576 9.657h19.1557v19.037c0 .929-.7547 1.68-1.6812 1.68H44.963c-1.8406 0-4.35.963-5.718 2.193L24.408 93.697l3.1354-11.3664c.2942-1.0676.1105-2.138-.497-2.9388-.6075-.798-1.5892-1.2552-2.7-1.2552H9.6576c-.9265 0-1.6872-.7514-1.6872-1.681v-43.548c0-.9295.7607-1.6842 1.6872-1.6842H37.023V23.25H9.6576C4.332 23.25 0 27.5816 0 32.9074V76.456c0 5.3227 4.332 9.6575 9.6576 9.6575h8.5657l-1.798 6.5344c-.963 3.479.0858 5.853 1.1414 7.234 1.368 1.797 3.4543 2.828 5.7245 2.828 2.0063 0 3.9025-.789 5.6266-2.344l15.56-14.014c.1475-.08.4666-.203.626-.24H76.316c5.326 0 9.6577-4.335 9.6577-9.658V57.462c.1657.055.368.138.4785.1966l13.284 11.968c1.724 1.5552 3.62 2.3435 5.6262 2.3435 2.2705 0 4.3627-1.027 5.731-2.828 1.049-1.377 2.0986-3.752 1.1412-7.231l-1.2396-4.491h6.2403c5.3318 0 9.6635-4.331 9.6635-9.657V9.838c0-5.3258-4.3317-9.6576-9.6635-9.6576" fill="#9EA1A0" mask="url(#b)"/>
    <path d="M395.0715 83.3125c.1864 0 .3628-.009.5292-.0213.1664-.0093.3128-.043.4492-.1015.126-.0583.233-.144.306-.2606.08-.119.116-.285.116-.497 0-.177-.033-.319-.107-.426-.067-.104-.16-.187-.263-.242-.11-.058-.24-.098-.38-.116-.143-.021-.283-.03-.423-.03h-1.098v1.697h.868zm.3628-2.3684c.6323 0 1.1048.127 1.411.378.3028.251.456.635.456 1.147 0 .482-.13.835-.3995 1.059-.2695.224-.6023.353-1.0016.396l1.5208 2.354h-.8886l-1.4475-2.292h-.882v2.292h-.829v-5.332h2.06zm-3.7603 4.206c.1896.473.4525.887.792 1.237.336.35.7353.623 1.1946.825.4625.2.9584.298 1.4908.298.5358 0 1.025-.098 1.481-.297.4525-.202.8518-.475 1.188-.825.3393-.35.6022-.764.792-1.236.1896-.478.2894-.997.2894-1.558 0-.546-.0998-1.052-.2895-1.524-.1897-.472-.4526-.881-.792-1.227-.336-.347-.7354-.616-1.188-.816-.456-.199-.945-.3-1.481-.3-.5323 0-1.0282.101-1.4907.3007-.4593.1997-.8586.469-1.1947.8163-.34.347-.603.755-.792 1.2276-.197.472-.29.9785-.29 1.5246 0 .561.093 1.08.289 1.558zm-.7555-3.353c.2462-.552.5757-1.03.995-1.438.4226-.408.9085-.727 1.4642-.957.559-.233 1.148-.35 1.7737-.35.6256 0 1.2213.117 1.7737.35.553.23 1.039.549 1.448.957.42.408.749.887.995 1.439.24.556.363 1.154.363 1.795 0 .66-.123 1.267-.362 1.826-.246.555-.575 1.04-.995 1.454-.409.408-.895.728-1.447.955-.552.23-1.148.344-1.773.344s-1.214-.114-1.773-.344c-.555-.227-1.041-.546-1.464-.954-.419-.414-.749-.899-.995-1.454-.246-.558-.363-1.166-.363-1.825 0-.641.116-1.239.363-1.795z" fill="#3A3B39"/>
  </g>
</svg>
