<svg id="layer" xmlns="http://www.w3.org/2000/svg" viewBox="0 0 652 652"><style>.st0{fill:#ffffff}</style><path class="st0" d="M113.8 321.2c-1.5 6.5-3.3 14.8-4.4 18.9-2 8.1-3.3 9.3-12.2 9.3-15 0-29.8-1.1-45-1.1-8.5 0-17.6 0-26.1.6V345c11.7 0 14.6-6.8 15-27.6.2-9.6.4-20.4.4-30 0-9.8-.2-19.6-.2-29.4 0-22.8-4.4-28.7-15-28.7v-3.9h81.6c-.2 3.7-.4 7.4-.4 11.1 0 6.1.2 10.9.4 15.6h-5c-2.2-14.1-8.3-17.8-30.5-17.8-5.4 0-8.9.4-13.9.4 0 7.8-.4 15.6-.4 23.3 0 7.4-.2 15-.2 22.4 3.7 0 10.2.2 13.9.2 19.3 0 22-3.3 23.1-14.1h4.8c-.2 6.3-.2 8.1-.2 18.5 0 9.8 0 11.5.2 17.6h-4.8c-1.1-10.4-4.8-14.1-23-14.1-4.1 0-10 .2-14.1.2v28.7c0 16.8.2 22.4 18.3 22.4 21.1 0 28.5-6.3 32.6-19.6l5.1 1zM255.5 348.1c-5.9 0-17.4.6-22.2.7v-3.9c13 0 13.7-11.1 13.7-28.5 0-7.6-.9-48-1.7-75-15.4 33.9-30.4 73.7-42.8 107.4h-6.8c-7.8-20.2-30.4-77.2-45-107.6-.7 39.1-1.3 66.6-1.3 75.2 0 16.3.6 28.5 13.7 28.5v3.9c-4.3-.2-14.3-.7-19.6-.7-5.4 0-15.6.6-19.8.7v-3.9c14.1 0 15.7-11.7 15.7-28.5 0-6.7 1.5-49.4 1.5-61.5 0-16.3-2.2-25.7-13.9-25.7v-3.9c3 .2 10.4.7 17 .7 6.7 0 14.4-.6 17.4-.7 13.1 32.4 26.5 65.7 40.5 97.6 13-30.9 26.7-65 38.3-97.6 3.1.2 10.9.7 17.6.7 6.7 0 14.1-.6 17-.7v3.9c-11.5 0-13.1 7.4-13.1 23.3 0 5.2.9 45.2 1.5 63.9.4 16.8 1.7 28.5 15.2 28.5v3.9c-5-.2-16.8-.7-22.9-.7M346.5 351.4c-37.4 0-62.6-25.7-62.6-63.1 0-38.3 27-65.5 65-65.5 37.4 0 63.3 25.5 63.3 62.6 0 37.9-27.7 66-65.7 66m0-119.4c-26.1 0-44.1 19.8-44.1 48.7 0 34.4 20.4 61.5 46.8 61.5 25.9 0 44.2-21.1 44.2-50.2.1-33.9-20.4-60-46.9-60M523 349.7c-9.6 0-16.1-2-22.2-10.7-10.7-15.7-21.5-31.7-31.8-47.6-2.8.2-5.7.4-9.6.4-2 0-5.9-.2-9.1-.6v25.2c0 17 .7 28.5 16.8 28.5v3.9c-5.4-.2-18.2-.6-24.8-.6-6.7 0-19.6.4-25.2.6v-3.9c15.6 0 16.5-11.3 16.5-28.5 0-6.8.4-19.4.4-29.1 0-9.8-.2-20.9-.2-30.7 0-16.3-.7-27.4-16.5-27.4v-3.9c4.1.2 13.1.7 16.7.7 11.3 0 18.3-1.3 29.6-1.3 22.6 0 42.2 6.7 42.2 32.8 0 15.4-9.8 27.6-21.1 30.9 7.6 11.1 17.8 25.5 27.2 38 7.6 9.8 16.5 18.5 25 18.5h1.3v3.5c-3.8.8-10.6 1.3-15.2 1.3m-63-117.5c-3.3 0-6.5.2-9.8.6V284c3.7.4 7.8.6 11.7.6 15.7 0 26.7-3.9 26.7-22.2-.1-18.9-9.3-30.2-28.6-30.2M607.2 248.6c-7 11.8-21.7 36.5-25.6 43.7 0 8 .2 16.1.2 24.1 0 17 .6 28.5 16.5 28.5v3.9c-5.6-.2-18.7-.4-25-.4-6.7 0-19.6.2-25 .4v-3.9c15.6 0 16.3-10.7 16.3-28.5 0-8 .4-15.9.4-23.9-9.1-16.5-19.3-34.4-29.4-50.2-6.5-10-9.8-13.1-15-13.1v-3.9c3.3.2 11.9.7 19.6.7 6.7 0 15.9-.6 19.6-.7v3.9c-5.2 0-6.9 1.9-6.9 5 0 2.6 1.7 6.5 6.3 15 5.7 10.9 11.5 20.6 18.2 31.7 6.8-11.7 13.5-22.4 19.4-33.7 4.4-8.3 5.6-11.1 5.6-13.1 0-3-2-4.8-7.6-4.8v-3.9c2.4.2 9.6.7 15.6.7 6.1 0 13.5-.6 15.7-.7v3.9c-6-.1-11.3 6.6-18.9 19.3M70.3 428.4c-2.3 0-7.1.2-9.1.3v-1.4c4.9 0 6-2.6 6-10.3 0-3.5.1-7.2.1-10.7l-23.1.1c0 3.5.1 7.2.1 10.7 0 6.3.4 10.2 6 10.2v1.4c-2-.1-6.8-.3-9.1-.3s-7.1.2-9.1.3v-1.4c4.9 0 6-2.7 6-10.2 0-3.5.1-7.3.1-10.8v-10.9c0-7.8-.9-10.3-6-10.3v-1.4c2 .1 6.8.3 9.1.3s7.1-.2 9.1-.3v1.4c-5.1 0-6 2.6-6 10.3 0 2.5-.1 5.2-.1 7.7h23.1v-7.7c0-7.7-1.1-10.3-6-10.3v-1.4c2 .1 6.8.3 9.1.3s7.1-.2 9.1-.3v1.4c-4.9 0-6 2.6-6 10.3 0 3.6-.1 7.3-.1 10.9 0 3.5.1 7.2.1 10.7 0 6.8.6 10.3 6 10.3v1.4c-2.2-.1-7-.3-9.3-.3M133.2 418.6c-.5 2.4-1.2 5.4-1.6 6.9-.7 3-1.2 3.4-4.5 3.4-5.5 0-10.9-.4-16.4-.4-3.1 0-6.4 0-9.5.2v-1.4c4.3 0 5.3-2.5 5.5-10.1.1-3.5.1-7.4.1-10.9 0-3.6-.1-7.2-.1-10.7 0-8.3-1.6-10.5-5.5-10.5v-1.4H131c-.1 1.4-.1 2.7-.1 4.1 0 2.2.1 4 .1 5.7h-1.8c-.8-5.1-3-6.5-11.1-6.5-2 0-3.2.1-5.1.1 0 2.8-.1 5.7-.1 8.5 0 2.7-.1 5.5-.1 8.2 1.4 0 3.7.1 5.1.1 7 0 8-1.2 8.4-5.1h1.8c-.1 2.3-.1 3-.1 6.8 0 3.6 0 4.2.1 6.4h-1.8c-.4-3.8-1.8-5.1-8.4-5.1-1.5 0-3.6.1-5.1.1v10.5c0 6.1.1 8.2 6.7 8.2 7.7 0 10.4-2.3 11.9-7.2l1.8.1zM194.4 428.7c-2.4-.1-6.1-.3-7.6-.3-1.6 0-5.9.1-8.7.3v-1.4c2.9 0 3.9-1.3 3.9-3.2 0-1.1-.6-3.4-2.1-7.7-.4-1.1-.9-2.3-1.3-3.4h-14.1c-.7 1.8-1.4 3.6-2 5.4-.5 1.7-1.6 4.5-1.6 6.2 0 1.8 1.1 2.7 3.4 2.7v1.4c-1.9-.1-4.5-.3-6.2-.3-2 0-4.7.1-6.6.3v-1.4c1.8 0 3.6-1.7 5-4.7 1.2-2.6 2-4.5 5.3-13.2 2-5.3 3.3-8.7 4.7-12.4 1.7-4.5 3.5-8.8 4.7-13.4h3.5c.9 3.2 3 8.7 4.6 13l7 18.8c3 8.1 4.5 11.8 7.9 11.8v1.5zm-22.6-35.4c-2 5.2-4.3 11.1-6.2 16.4h12l-5.8-16.4zM246.4 418.6c-.5 2.4-1.2 5.1-1.6 6.6-.7 2.6-1.3 3.8-3.2 3.8-2.6 0-12.4-.5-18.6-.5-2.2 0-7 .2-9 .3v-1.4c5.7 0 6-4.1 6-10.4 0-3.5.1-7.1.1-10.6 0-3.6 0-7.2-.1-10.7-.1-7.2-.5-10.5-6-10.5v-1.4c3 .1 6.1.3 9.2.3 2.8 0 6.2-.1 9-.3v1.4c-6 0-6 4.3-6 10.5-.1 3.6-.1 7.2-.1 10.7 0 3.5.1 7.1.1 10.6 0 7.1 1.4 8.5 6.8 8.5 7.1 0 10.2-2 11.8-7.2l1.6.3zM295.1 393.6c-1.3-5-3.5-6.3-8.6-6.3h-5c0 2.8-.1 5.5-.1 8.2-.1 4-.1 8.4-.1 10.9 0 3.2.1 7.9.1 11 0 6.7.8 9.9 5.9 9.9v1.4c-2-.1-6.8-.2-9.1-.2s-7.1.1-9.1.2v-1.4c4.6 0 6-2.9 6-9.9 0-3.5.1-7.6.1-11.1 0-3.2-.1-7.3-.1-10.7 0-2.8-.1-5.5-.1-8.2h-4.8c-5.3 0-7.6 1.1-9 6.3l-1.9-.3c.6-3.4 1.2-7 1.4-10.3 2.8.7 4.2.9 11.3.9h12.2c7.2 0 8.6-.1 11.4-.9.3 3.3.8 7.2 1.4 10.3l-1.9.2zM354.8 428.4c-2.3 0-7.1.2-9.1.3v-1.4c4.9 0 6-2.6 6-10.3 0-3.5.1-7.2.1-10.7l-23.1.1c0 3.5.1 7.2.1 10.7 0 6.3.4 10.2 6 10.2v1.4c-2-.1-6.8-.3-9.1-.3s-7.1.2-9.1.3v-1.4c4.9 0 6-2.7 6-10.2 0-3.5.1-7.3.1-10.8v-10.9c0-7.8-.9-10.3-6-10.3v-1.4c2 .1 6.8.3 9.1.3s7.1-.2 9.1-.3v1.4c-5.1 0-6 2.6-6 10.3 0 2.5-.1 5.2-.1 7.7h23.1v-7.7c0-7.7-1.1-10.3-6-10.3v-1.4c2 .1 6.8.3 9.1.3s7.1-.2 9.1-.3v1.4c-4.9 0-6 2.6-6 10.3 0 3.6-.1 7.3-.1 10.9 0 3.5.1 7.2.1 10.7 0 6.8.6 10.3 6 10.3v1.4c-2.2-.1-7-.3-9.3-.3M418.7 427.2c-4 1.6-7.8 2.4-12.3 2.4-12 0-24.1-7.2-24.1-23.6 0-13.1 8.5-23.3 24.3-23.3 4.5 0 8.7.8 12.6 2-.1 1.4-.1 2.8-.1 4.2v.5c0 1.3 0 2.9.1 4h-1.9c-.7-4.9-4.3-7.4-10.9-7.4-10.7 0-17.3 6.8-17.3 17.8 0 13 7.3 22.4 17.5 22.4 5.9 0 9.7-3 11.4-8.2l1.8.4c-.4 3.4-.7 6-1.1 8.8M480.8 428.7c-2.4-.1-6.1-.3-7.6-.3-1.6 0-5.9.1-8.7.3v-1.4c2.9 0 3.9-1.3 3.9-3.2 0-1.1-.6-3.4-2.1-7.7-.4-1.1-.9-2.3-1.3-3.4h-14c-.7 1.8-1.4 3.6-2 5.4-.5 1.7-1.6 4.5-1.6 6.2 0 1.8 1.1 2.7 3.4 2.7v1.4c-1.9-.1-4.5-.3-6.2-.3-2 0-4.7.1-6.6.3v-1.4c1.8 0 3.6-1.7 5-4.7 1.2-2.6 2-4.5 5.3-13.2 2-5.3 3.3-8.7 4.7-12.4 1.7-4.5 3.5-8.8 4.7-13.4h3.5c.9 3.2 3 8.7 4.6 13l7 18.8c3 8.1 4.5 11.8 7.9 11.8v1.5zm-22.5-35.4c-2 5.2-4.2 11.1-6.2 16.4h12l-5.8-16.4zM538.9 429c-3.5 0-5.9-.7-8.1-3.9-3.9-5.7-7.8-11.6-11.6-17.4-1 .1-2.1.1-3.5.1-.7 0-2.2-.1-3.3-.2v9.2c0 6.2.3 10.4 6.1 10.4v1.4c-2-.1-6.6-.2-9-.2-2.4 0-7.2.1-9.2.2v-1.4c5.7 0 6-4.1 6-10.4 0-2.5.1-7.1.1-10.6 0-3.6-.1-7.6-.1-11.2 0-5.9-.3-10-6-10v-1.4c1.5.1 4.8.3 6.1.3 4.1 0 6.7-.5 10.8-.5 8.2 0 15.4 2.4 15.4 12 0 5.6-3.6 10.1-7.7 11.3 2.8 4.1 6.5 9.3 9.9 13.9 2.8 3.6 6 6.8 9.1 6.8h.5v1.3c-1.3.1-3.8.3-5.5.3M516 386.1c-1.2 0-2.4.1-3.6.2V405c1.3.1 2.8.2 4.3.2 5.7 0 9.7-1.4 9.7-8.1 0-6.9-3.4-11-10.4-11M594.4 418.6c-.5 2.4-1.2 5.4-1.6 6.9-.7 3-1.2 3.4-4.5 3.4-5.5 0-10.9-.4-16.4-.4-3.1 0-6.4 0-9.5.2v-1.4c4.3 0 5.3-2.5 5.5-10.1.1-3.5.1-7.4.1-10.9 0-3.6-.1-7.2-.1-10.7 0-8.3-1.6-10.5-5.5-10.5v-1.4h29.8c-.1 1.4-.1 2.7-.1 4.1 0 2.2.1 4 .1 5.7h-1.8c-.8-5.1-3-6.5-11.1-6.5-2 0-3.2.1-5.1.1 0 2.8-.1 5.7-.1 8.5 0 2.7-.1 5.5-.1 8.2 1.4 0 3.7.1 5.1.1 7 0 8-1.2 8.4-5.1h1.8c-.1 2.3-.1 3-.1 6.8 0 3.6 0 4.2.1 6.4h-1.8c-.4-3.8-1.8-5.1-8.4-5.1-1.5 0-3.7.1-5.1.1v10.5c0 6.1.1 8.2 6.7 8.2 7.7 0 10.4-2.3 11.9-7.2l1.8.1z"/></svg>