<svg width="400" height="82" viewBox="0 0 400 82" xmlns="http://www.w3.org/2000/svg"><title>metabahn-logo</title><g fill="none" fill-rule="evenodd"><path d="M123.824 48.624h6.796v2.707c1.31-1.363 2.427-2.285 3.353-2.766.987-.502 2.225-.752 3.715-.752 3.323 0 5.95 1.444 7.884 4.33 2.134-2.886 5.024-4.33 8.67-4.33 6.624 0 9.936 4 9.936 12V77.92h-6.826V61.648c0-2.808-.342-4.793-1.027-5.956-.705-1.183-1.863-1.774-3.474-1.774-1.87 0-3.236.7-4.09 2.105-.857 1.404-1.285 3.66-1.285 6.768v15.13h-6.827V61.738c0-5.214-1.51-7.82-4.53-7.82-1.913 0-3.308.71-4.184 2.135-.876 1.424-1.314 3.67-1.314 6.738v15.13h-6.796V48.624zm75.725 16.242h-21.085c.182 2.406.967 4.32 2.356 5.745 1.39 1.405 3.173 2.106 5.348 2.106 1.69 0 3.09-.4 4.198-1.203 1.088-.802 2.326-2.286 3.716-4.45l5.74 3.187c-.887 1.504-1.824 2.792-2.81 3.865-.987 1.073-2.044 1.955-3.172 2.647-1.128.692-2.346 1.198-3.655 1.52-1.31.32-2.728.48-4.26.48-4.39 0-7.913-1.403-10.57-4.21-2.66-2.828-3.988-6.578-3.988-11.25 0-4.632 1.29-8.382 3.866-11.25 2.598-2.827 6.042-4.24 10.33-4.24 4.33 0 7.753 1.373 10.27 4.12 2.497 2.728 3.746 6.507 3.746 11.34l-.03 1.594zm-6.98-5.534c-.945-3.61-3.23-5.414-6.855-5.414-.826 0-1.6.125-2.326.376-.726.25-1.386.61-1.98 1.082-.594.472-1.102 1.038-1.525 1.7-.423.662-.745 1.414-.966 2.256h13.65zm21.96-4.392v22.98h-6.796V54.94h-2.9v-6.316h2.9V37.886h6.797v10.738h5.286v6.316h-5.285zm32.14-6.316h6.825V77.92h-6.826v-3.068c-2.8 2.607-5.81 3.91-9.032 3.91-4.068 0-7.43-1.464-10.09-4.39-2.637-2.99-3.956-6.72-3.956-11.19 0-4.392 1.32-8.05 3.957-10.98 2.637-2.926 5.94-4.39 9.906-4.39 3.424 0 6.495 1.403 9.213 4.21v-3.398zm-16.13 14.558c0 2.807.755 5.093 2.265 6.858 1.55 1.784 3.504 2.676 5.86 2.676 2.517 0 4.55-.862 6.1-2.586 1.552-1.785 2.327-4.05 2.327-6.798 0-2.747-.775-5.013-2.326-6.798-1.55-1.744-3.564-2.616-6.04-2.616-2.337 0-4.29.882-5.86 2.647-1.55 1.784-2.327 3.99-2.327 6.617zm38.33-36.064v24.905c2.718-2.808 5.8-4.21 9.243-4.21 3.967 0 7.27 1.473 9.907 4.42 2.638 2.928 3.957 6.577 3.957 10.95 0 4.51-1.33 8.24-3.987 11.188-2.638 2.928-5.97 4.392-9.998 4.392-3.403 0-6.444-1.303-9.122-3.91v3.068h-6.796V27.118h6.796zm16.16 36.365c0-2.808-.765-5.094-2.296-6.858-1.55-1.805-3.494-2.707-5.83-2.707-2.496 0-4.53.872-6.1 2.616-1.55 1.725-2.327 3.97-2.327 6.738 0 2.847.765 5.123 2.296 6.828 1.53 1.744 3.544 2.616 6.04 2.616 2.357 0 4.31-.872 5.86-2.616 1.57-1.765 2.357-3.97 2.357-6.617zm35.823-14.86h6.827V77.92h-6.827v-3.068c-2.8 2.607-5.81 3.91-9.03 3.91-4.07 0-7.432-1.464-10.09-4.39-2.638-2.99-3.957-6.72-3.957-11.19 0-4.392 1.32-8.05 3.957-10.98 2.638-2.926 5.94-4.39 9.908-4.39 3.424 0 6.495 1.403 9.213 4.21v-3.398zm-16.13 14.56c0 2.806.756 5.092 2.266 6.857 1.55 1.784 3.503 2.676 5.86 2.676 2.516 0 4.55-.862 6.1-2.586 1.55-1.785 2.326-4.05 2.326-6.798 0-2.747-.775-5.013-2.326-6.798-1.55-1.744-3.564-2.616-6.04-2.616-2.337 0-4.29.882-5.86 2.647-1.55 1.784-2.326 3.99-2.326 6.617zm31.535-36.065h6.796V51.06c2.417-2.165 5.085-3.248 8.005-3.248 3.32 0 5.98 1.073 7.973 3.218 1.69 1.865 2.537 4.843 2.537 8.933V77.92h-6.796V60.595c0-2.346-.418-4.046-1.254-5.098-.835-1.053-2.18-1.58-4.032-1.58-2.376 0-4.048.733-5.014 2.196-.947 1.484-1.42 4.03-1.42 7.64V77.92h-6.796V27.118zm33.92 21.506h6.827v2.707c2.376-2.345 5.054-3.518 8.035-3.518 3.423 0 6.09 1.073 8.004 3.218 1.65 1.825 2.477 4.803 2.477 8.933V77.92h-6.826V61.557c0-2.887-.402-4.882-1.208-5.985-.785-1.123-2.215-1.684-4.29-1.684-2.254 0-3.855.74-4.802 2.225-.926 1.464-1.39 4.02-1.39 7.67V77.92h-6.825V48.624z" fill="#000"/><path fill="#E74C3C" d="M2 44.04h37.116V81H2zM2 4h37.116v36.96H2zM60.767 36.34c7.687 0 13.92-6.205 13.92-13.86 0-7.655-6.233-13.86-13.92-13.86S46.85 14.825 46.85 22.48c0 7.655 6.23 13.86 13.917 13.86zm0 4.62c-10.25 0-18.558-8.274-18.558-18.48C42.21 12.274 50.517 4 60.766 4c10.25 0 18.56 8.274 18.56 18.48 0 10.206-8.31 18.48-18.56 18.48zM42.21 44.04h37.115V81H42.21z"/></g></svg>