<?xml version="1.0" encoding="UTF-8" standalone="no"?>
<svg width="400px" height="82px" viewBox="0 0 400 82" version="1.1" xmlns="http://www.w3.org/2000/svg" xmlns:xlink="http://www.w3.org/1999/xlink" xmlns:sketch="http://www.bohemiancoding.com/sketch/ns">
    <!-- Generator: Sketch 3.5.2 (25235) - http://www.bohemiancoding.com/sketch -->
    <title>metabahn-logo-w</title>
    <desc>Created with Sketch.</desc>
    <defs></defs>
    <g id="Page-1" stroke="none" stroke-width="1" fill="none" fill-rule="evenodd" sketch:type="MSPage">
        <g id="metabahn-logo-w" sketch:type="MSArtboardGroup" fill="#FFFFFF">
            <g id="Group-3" sketch:type="MSLayerGroup" transform="translate(2.000000, 4.000000)">
                <path d="M121.824037,44.6239062 L128.620231,44.6239062 L128.620231,47.3309375 C129.929134,45.967389 131.046719,45.0450024 131.97302,44.56375 C132.959731,44.0624454 134.198136,43.8117969 135.688272,43.8117969 C139.010872,43.8117969 141.638708,45.2555324 143.571857,48.1430469 C145.706376,45.2555324 148.595988,43.8117969 152.240779,43.8117969 C158.865843,43.8117969 162.178325,47.8121475 162.178325,55.8129687 L162.178325,73.92 L155.351926,73.92 L155.351926,57.6477344 C155.351926,54.8404287 155.009603,52.8552923 154.324945,51.6922656 C153.620152,50.5091868 152.462293,49.9176563 150.851335,49.9176563 C148.978597,49.9176563 147.614338,50.6194721 146.758517,52.023125 C145.902695,53.4267779 145.474791,55.6826147 145.474791,58.7907031 L145.474791,73.92 L138.648392,73.92 L138.648392,57.7379688 C138.648392,52.524401 137.138142,49.9176563 134.117596,49.9176563 C132.204584,49.9176563 130.81012,50.6294981 129.934162,52.0532031 C129.058203,53.4769082 128.620231,55.722719 128.620231,58.7907031 L128.620231,73.92 L121.824037,73.92 L121.824037,44.6239062 Z M197.548737,60.8660938 L176.465434,60.8660938 C176.646667,63.2723558 177.431997,65.1873106 178.821448,66.6110156 C180.210899,68.0146685 181.992994,68.7164844 184.167787,68.7164844 C185.859293,68.7164844 187.258791,68.3154467 188.366324,67.5133594 C189.453721,66.711272 190.692126,65.2274327 192.081577,63.0617969 L197.820585,66.2500781 C196.934558,67.7539919 195.998203,69.0423254 195.011492,70.1151172 C194.02478,71.187909 192.967605,72.0701919 191.839935,72.7619922 C190.712264,73.4537925 189.493996,73.9601026 188.185093,74.2809375 C186.87619,74.6017724 185.456554,74.7621875 183.926145,74.7621875 C179.536285,74.7621875 176.012368,73.3585557 173.354288,70.55125 C170.696208,67.7238921 169.367188,63.97419 169.367188,59.3020313 C169.367188,54.6699768 170.655934,50.9202748 173.233467,48.0528125 C175.831136,45.2254546 179.274506,43.8117969 183.563681,43.8117969 C187.89313,43.8117969 191.316363,45.1853508 193.833485,47.9325 C196.330469,50.659597 197.578943,54.4393769 197.578943,59.2719531 L197.548737,60.8660938 Z M190.571312,55.3317188 C189.624874,51.7223257 187.339362,49.9176563 183.714707,49.9176563 C182.889092,49.9176563 182.11383,50.0429805 181.388899,50.2936328 C180.663968,50.5442851 180.004492,50.905219 179.410451,51.3764453 C178.816411,51.8476716 178.30796,52.4141373 177.885084,53.0758594 C177.462207,53.7375814 177.14002,54.489527 176.918514,55.3317188 L190.571312,55.3317188 Z M212.530569,50.9403125 L212.530569,73.92 L205.734375,73.92 L205.734375,50.9403125 L202.834666,50.9403125 L202.834666,44.6239063 L205.734375,44.6239063 L205.734375,33.8860156 L212.530569,33.8860156 L212.530569,44.6239063 L217.816497,44.6239063 L217.816497,50.9403125 L212.530569,50.9403125 Z M244.669013,44.6239063 L251.495412,44.6239063 L251.495412,73.92 L244.669013,73.92 L244.669013,70.8520313 C241.869974,73.4588151 238.859543,74.7621875 235.637627,74.7621875 C231.569959,74.7621875 228.207135,73.2984001 225.549055,70.3707813 C222.911112,67.3830059 221.59216,63.6533557 221.59216,59.1817188 C221.59216,54.7902905 222.911112,51.1308219 225.549055,48.2032031 C228.186998,45.2755843 231.489412,43.8117969 235.456395,43.8117969 C238.87968,43.8117969 241.950522,45.2154287 244.669013,48.0227344 L244.669013,44.6239063 Z M228.53938,59.1817188 C228.53938,61.9890245 229.294506,64.2749391 230.804778,66.0395312 C232.355325,67.8241756 234.308582,68.7164844 236.664608,68.7164844 C239.181729,68.7164844 241.215532,67.8542534 242.766079,66.1297656 C244.316626,64.3451213 245.091888,62.0792585 245.091888,59.3321094 C245.091888,56.5849602 244.316626,54.3190975 242.766079,52.5344531 C241.215532,50.7899132 239.201866,49.9176563 236.725018,49.9176563 C234.38913,49.9176563 232.435873,50.7999391 230.865189,52.5645313 C229.314642,54.3491756 228.53938,56.5548827 228.53938,59.1817188 L228.53938,59.1817188 Z M266.869913,23.1180469 L266.869913,48.0227344 C269.588404,45.2154287 272.669314,43.8117969 276.112736,43.8117969 C280.079719,43.8117969 283.382133,45.2856103 286.020076,48.2332813 C288.658019,51.1609001 289.976971,54.8103427 289.976971,59.1817188 C289.976971,63.6934601 288.647951,67.4231103 285.989871,70.3707812 C283.351928,73.2984001 280.019309,74.7621875 275.991915,74.7621875 C272.588767,74.7621875 269.54813,73.4588151 266.869913,70.8520313 L266.869913,73.92 L260.073719,73.92 L260.073719,23.1180469 L266.869913,23.1180469 Z M283.029751,59.4825 C283.029751,56.6751943 282.264558,54.3892797 280.734148,52.6246875 C279.183601,50.819991 277.240413,49.9176563 274.904524,49.9176563 C272.40754,49.9176563 270.373736,50.7899132 268.803052,52.5344531 C267.252506,54.2589409 266.477244,56.5047518 266.477244,59.2719531 C266.477244,62.1193632 267.242437,64.3952519 268.772847,66.0996875 C270.303257,67.8442275 272.316924,68.7164844 274.813908,68.7164844 C277.169934,68.7164844 279.123191,67.8442275 280.673737,66.0996875 C282.244421,64.3350953 283.029751,62.1293882 283.029751,59.4825 L283.029751,59.4825 Z M318.853243,44.6239063 L325.679642,44.6239063 L325.679642,73.92 L318.853243,73.92 L318.853243,70.8520313 C316.054204,73.4588151 313.043772,74.7621875 309.821857,74.7621875 C305.754189,74.7621875 302.391365,73.2984001 299.733285,70.3707813 C297.095342,67.3830059 295.77639,63.6533557 295.77639,59.1817188 C295.77639,54.7902905 297.095342,51.1308219 299.733285,48.2032031 C302.371228,45.2755843 305.673642,43.8117969 309.640625,43.8117969 C313.06391,43.8117969 316.134752,45.2154287 318.853243,48.0227344 L318.853243,44.6239063 Z M302.72361,59.1817188 C302.72361,61.9890245 303.478735,64.2749391 304.989008,66.0395312 C306.539555,67.8241756 308.492812,68.7164844 310.848837,68.7164844 C313.365959,68.7164844 315.399762,67.8542534 316.950309,66.1297656 C318.500856,64.3451213 319.276117,62.0792585 319.276117,59.3321094 C319.276117,56.5849602 318.500856,54.3190975 316.950309,52.5344531 C315.399762,50.7899132 313.386095,49.9176563 310.909248,49.9176563 C308.573359,49.9176563 306.620102,50.7999391 305.049419,52.5645313 C303.498872,54.3491756 302.72361,56.5548827 302.72361,59.1817188 L302.72361,59.1817188 Z M334.257949,23.1180469 L341.054142,23.1180469 L341.054142,47.0602344 C343.470579,44.8945985 346.138688,43.8117969 349.058548,43.8117969 C352.381149,43.8117969 355.039189,44.8845726 357.032749,47.0301563 C358.724254,48.8950093 359.569995,51.8727139 359.569995,55.9633594 L359.569995,73.92 L352.773801,73.92 L352.773801,56.595 C352.773801,54.2488945 352.355965,52.5494975 351.520281,51.4967578 C350.684596,50.4440182 349.340474,49.9176563 347.487872,49.9176563 C345.11171,49.9176563 343.440366,50.64955 342.473792,52.1133594 C341.527354,53.597221 341.054142,56.1438101 341.054142,59.7532031 L341.054142,73.92 L334.257949,73.92 L334.257949,23.1180469 Z M368.178507,44.6239062 L375.004906,44.6239062 L375.004906,47.3309375 C377.381068,44.984832 380.059245,43.8117969 383.039517,43.8117969 C386.462802,43.8117969 389.13091,44.8845726 391.043923,47.0301562 C392.695154,48.854905 393.520758,51.8326096 393.520758,55.9633594 L393.520758,73.92 L386.694359,73.92 L386.694359,57.5575 C386.694359,54.6699856 386.291625,52.6748232 385.486146,51.5719531 C384.700805,50.4490308 383.271101,49.8875781 381.196993,49.8875781 C378.941652,49.8875781 377.340787,50.6294978 376.39435,52.1133594 C375.468049,53.5771688 375.004906,56.1337838 375.004906,59.7832813 L375.004906,73.92 L368.178507,73.92 L368.178507,44.6239062 Z" id="metabahn" sketch:type="MSShapeGroup"></path>
                <rect id="Rectangle-1" sketch:type="MSShapeGroup" x="0" y="40.04" width="37.1162791" height="36.96"></rect>
                <rect id="Rectangle-1-Copy-2" sketch:type="MSShapeGroup" x="0" y="0" width="37.1162791" height="36.96"></rect>
                <path d="M58.7674419,32.34 L58.7674419,32.34 C66.4544749,32.34 72.6860465,26.1346666 72.6860465,18.48 C72.6860465,10.8253334 66.4544749,4.62 58.7674419,4.62 C51.0804088,4.62 44.8488372,10.8253334 44.8488372,18.48 C44.8488372,26.1346666 51.0804088,32.34 58.7674419,32.34 L58.7674419,32.34 Z M58.7674419,36.96 L58.7674419,36.96 C48.5180644,36.96 40.2093023,28.6862222 40.2093023,18.48 C40.2093023,8.27377782 48.5180644,0 58.7674419,0 C69.0168193,0 77.3255814,8.27377782 77.3255814,18.48 C77.3255814,28.6862222 69.0168193,36.96 58.7674419,36.96 L58.7674419,36.96 Z" id="Shape" sketch:type="MSShapeGroup"></path>
                <rect id="Rectangle-1-Copy" sketch:type="MSShapeGroup" x="40.2093023" y="40.04" width="37.1162791" height="36.96"></rect>
            </g>
        </g>
    </g>
</svg>